<?xml version="1.0" standalone="no"?>
<!DOCTYPE svg PUBLIC "-//W3C//DTD SVG 1.1//EN" "http://www.w3.org/Graphics/SVG/1.1/DTD/svg11.dtd" >
<svg xmlns="http://www.w3.org/2000/svg" xmlns:xlink="http://www.w3.org/1999/xlink" version="1.1">
<metadata>
Created by FontForge 20170731 at Sat Jan 14 17:11:16 2023
 By Aleksey,,,
Copyright 2020 The JetBrains Mono Project Authors (https://github.com/JetBrains/JetBrainsMono)
</metadata>
<defs>
<font id="JetBrainsMono-Regular" horiz-adv-x="600" >
  <font-face 
    font-family="JetBrains Mono"
    font-weight="400"
    font-stretch="normal"
    units-per-em="1000"
    panose-1="2 0 0 9 0 0 0 0 0 0"
    ascent="800"
    descent="-200"
    x-height="550"
    cap-height="730"
    bbox="-1735 -400 765 1120"
    underline-thickness="50"
    underline-position="-230"
    unicode-range="U+000D-1D56B"
  />
<missing-glyph 
d="M90 0v730h420v-730h-420zM140 109l300 571h-300v-571zM160 50h300v571z" />
    <glyph glyph-name=".notdef" 
d="M90 0v730h420v-730h-420zM140 109l300 571h-300v-571zM160 50h300v571z" />
    <glyph glyph-name=".null" horiz-adv-x="0" 
 />
    <glyph glyph-name="nonmarkingreturn" horiz-adv-x="333" 
 />
    <glyph glyph-name="CR" unicode="&#xd;" 
 />
    <glyph glyph-name="space" unicode=" " 
 />
    <glyph glyph-name="exclam" unicode="!" 
d="M259 215l-12 515h106l-12 -515h-82zM285 -5q-26 0 -43 17t-17 43t17 43t43 17h30q29 0 44.5 -16.5t15.5 -42.5t-17 -43.5t-43 -17.5h-30z" />
    <glyph glyph-name="quotedbl" unicode="&#x22;" 
d="M151 430l-8 300h102l-7 -300h-87zM363 430l-8 300h102l-7 -300h-87z" />
    <glyph glyph-name="numbersign" unicode="#" 
d="M83 0l39 210h-87v65h98l34 180h-97v65h108l39 210h70l-39 -210h160l39 210h70l-39 -210h87v-65h-98l-34 -180h97v-65h-108l-39 -210h-70l39 210h-160l-39 -210h-70zM203 275h160l34 180h-160z" />
    <glyph glyph-name="dollar" unicode="$" 
d="M275 -140v131q-94 8 -147.5 60.5t-55.5 138.5h90q0 -49 29.5 -80t83.5 -38v262l-27 8q-75 23 -115.5 77t-40.5 127q0 80 49.5 132t133.5 60v132h60v-131q83 -8 133 -60t51 -134h-90q0 47 -24.5 76.5t-69.5 36.5v-248l40 -13q73 -23 113 -78t40 -129q0 -82 -52.5 -136
t-140.5 -63v-131h-60zM182 554q0 -45 24 -78t69 -47v229q-44 -7 -68.5 -34t-24.5 -70zM335 72q49 8 76 38t27 78q0 44 -23.5 76.5t-67.5 46.5l-12 4v-243z" />
    <glyph glyph-name="percent" unicode="%" 
d="M153 400q-64 0 -101.5 36.5t-36.5 98.5v65q-1 62 36.5 98.5t101.5 36.5t101.5 -36.5t38.5 -98.5v-65q0 -62 -37.5 -98.5t-102.5 -36.5zM14 0l498 730h74l-498 -730h-74zM154 468q30 0 47.5 18t17.5 49v65q0 31 -17.5 49t-47.5 18t-47.5 -18t-17.5 -49v-65q0 -31 17.5 -49
t47.5 -18zM446 -5q-64 0 -101.5 36.5t-37.5 98.5v65q-1 62 37 98.5t102 36.5t101.5 -36.5t37.5 -98.5v-65q0 -62 -37.5 -98.5t-101.5 -36.5zM446 64q30 0 47.5 17.5t17.5 48.5v65q0 31 -17.5 49t-48.5 18q-29 0 -46.5 -18t-17.5 -49v-65q-1 -31 16.5 -48.5t48.5 -17.5z" />
    <glyph glyph-name="ampersand" unicode="&#x26;" 
d="M215 -9q-88 0 -139 51.5t-51 139.5v57q0 80 45 128t121 52l-28 36q-54 71 -54 126q0 71 48 115t125 44q55 0 96.5 -24t65 -66.5t23.5 -99.5h-88q0 50 -26.5 81.5t-70.5 31.5q-37 0 -60.5 -23t-23.5 -61q0 -39 29 -76l195 -252l91 114h100l-143 -176l145 -189h-99l-97 128
l-43 -54q-34 -42 -75.5 -62.5t-85.5 -20.5zM221 72q57 0 97 51l52 66l-125 160h-30q-47 0 -74.5 -29.5t-27.5 -80.5v-57q0 -51 29.5 -80.5t78.5 -29.5z" />
    <glyph glyph-name="quotesingle" unicode="'" 
d="M257 430l-8 300h102l-7 -300h-87z" />
    <glyph glyph-name="parenleft" unicode="(" 
d="M485 -120q-143 32 -221.5 134t-78.5 256v180q0 154 78.5 256t221.5 134v-87q-64 -15 -111.5 -57t-73 -104.5t-25.5 -141.5v-180q0 -78 25.5 -141t73 -105t111.5 -57v-87z" />
    <glyph glyph-name="parenright" unicode=")" 
d="M115 -120v87q65 15 112 57t72.5 105t25.5 141v180q0 79 -25.5 141.5t-72.5 104.5t-112 57v87q143 -32 221.5 -134t78.5 -256v-180q0 -154 -78.5 -256t-221.5 -134z" />
    <glyph glyph-name="asterisk" unicode="*" 
d="M177 103l-69 49l65 93q13 18 35.5 44t42.5 46q-28 4 -59 12t-49 15l-107 40l28 79l108 -40q17 -6 45 -19t51 -27q-5 26 -7.5 53.5t-2.5 46.5v125h84v-125q0 -19 -3 -46.5t-8 -53.5q24 14 51.5 27t45.5 19l108 40l28 -79l-107 -40q-18 -7 -49 -15t-59 -12q20 -20 43 -46.5
t35 -43.5l65 -93l-69 -49l-65 94q-12 17 -29 47t-29 56q-12 -26 -29 -55.5t-29 -47.5z" />
    <glyph glyph-name="plus" unicode="+" 
d="M256 95v195h-191v80h191v195h88v-195h191v-80h-191v-195h-88z" />
    <glyph glyph-name="comma" unicode="," 
d="M210 -160l55 306h108l-70 -306h-93z" />
    <glyph glyph-name="hyphen" unicode="-" 
d="M140 290v80h320v-80h-320z" />
    <glyph glyph-name="period" unicode="." 
d="M300 -10q-37 0 -59.5 22t-22.5 57q0 37 22.5 60t59.5 23t59.5 -23t22.5 -60q0 -35 -22.5 -57t-59.5 -22z" />
    <glyph glyph-name="slash" unicode="/" 
d="M75 -110l355 940h95l-355 -940h-95z" />
    <glyph glyph-name="zero" unicode="0" 
d="M300 -10q-101 0 -160.5 58.5t-59.5 156.5v320q0 98 59.5 156.5t160.5 58.5t160.5 -58.5t59.5 -156.5v-320q0 -65 -27 -113.5t-76.5 -75t-116.5 -26.5zM300 67q60 0 96.5 38.5t36.5 99.5v320q0 61 -36.5 99.5t-96.5 38.5t-96.5 -38.5t-36.5 -99.5v-320q0 -61 36.5 -99.5
t96.5 -38.5zM300 310q-27 0 -43.5 15t-16.5 43q0 27 16.5 41.5t43.5 14.5t43.5 -14.5t16.5 -41.5q0 -28 -16.5 -43t-43.5 -15z" />
    <glyph glyph-name="one" unicode="1" 
d="M90 0v82h198v570l-198 -148v103l165 123h123v-648h162v-82h-450z" />
    <glyph glyph-name="two" unicode="2" 
d="M86 0v83l243 260q53 56 75 100t22 86q0 60 -34.5 95.5t-93.5 35.5q-61 0 -96.5 -36.5t-35.5 -98.5h-90q3 99 63 157t159 58q101 0 160.5 -57t59.5 -155q0 -52 -28.5 -110t-97.5 -130l-197 -206h332v-82h-441z" />
    <glyph glyph-name="three" unicode="3" 
d="M289 -10q-101 0 -160 56.5t-59 153.5h90q0 -60 35 -95t95 -35t95 35t35 95v50q0 60 -35 95t-95 35h-79v78l179 190h-300v82h402v-84l-176 -187q90 -7 142 -62.5t52 -146.5v-50q0 -97 -59.5 -153.5t-161.5 -56.5z" />
    <glyph glyph-name="four" unicode="4" 
d="M400 0v160h-330v141l266 429h102l-278 -449v-39h240v178h90v-420h-90z" />
    <glyph glyph-name="five" unicode="5" 
d="M294 -10q-101 0 -160 56.5t-59 153.5h90q0 -60 35 -95t95 -35t95 35t35 95v45q0 60 -34 95t-92 35h-199v355h389v-82h-305l2 -191h118q101 0 156 -55.5t55 -156.5v-45q0 -97 -59.5 -153.5t-161.5 -56.5z" />
    <glyph glyph-name="six" unicode="6" 
d="M301 -10q-70 0 -123.5 29.5t-83.5 82t-30 121.5q0 48 18 98.5t49 105.5l169 303h100l-180 -313l3 -2q13 17 39 26t57 9q65 0 113.5 -28.5t76 -78.5t27.5 -116q0 -70 -30 -123.5t-82.5 -83.5t-122.5 -30zM300 70q65 0 105.5 43t40.5 112t-40.5 112t-105.5 43t-105.5 -43
t-40.5 -112t40.5 -112t105.5 -43z" />
    <glyph glyph-name="seven" unicode="7" 
d="M190 0l260 648h-278v-118h-90v200h464v-84l-258 -646h-98z" />
    <glyph glyph-name="eight" unicode="8" 
d="M300 -10q-69 0 -122 27t-82.5 75.5t-29.5 111.5q0 69 39.5 119t105.5 61v3q-57 13 -91 57.5t-34 102.5q0 57 27 100.5t75.5 68t111.5 24.5q64 0 112 -24.5t75 -68t27 -100.5q0 -58 -34 -102.5t-91 -57.5v-3q66 -11 105.5 -61t39.5 -119q0 -63 -29.5 -111.5t-82 -75.5
t-122.5 -27zM300 422q56 0 90 33t34 86t-34 86t-90 33q-55 0 -89.5 -33t-34.5 -86t34.5 -86t89.5 -33zM300 71q64 0 104 37.5t40 97.5q0 61 -40 98.5t-104 37.5t-104 -37.5t-40 -98.5q0 -60 40 -97.5t104 -37.5z" />
    <glyph glyph-name="nine" unicode="9" 
d="M195 0l180 313l-3 2q-10 -16 -37 -25.5t-59 -9.5q-63 0 -110.5 28.5t-74.5 78.5t-27 116q0 71 30 124t83 83t122 30q71 0 124 -29.5t83 -82t30 -121.5q0 -48 -18 -98.5t-49 -105.5l-169 -303h-105zM300 350q65 0 105.5 43t40.5 112t-40.5 112t-105.5 43t-105.5 -43
t-40.5 -112t40.5 -112t105.5 -43z" />
    <glyph glyph-name="colon" unicode=":" 
d="M300 412q-41 0 -62 20t-21 54t21 54t62 20t62 -20t21 -54t-21 -54t-62 -20zM300 -10q-41 0 -62 20t-21 54t21 54t62 20t62 -20t21 -54t-21 -54t-62 -20z" />
    <glyph glyph-name="semicolon" unicode=";" 
d="M290 410q-33 0 -54 21t-21 54q0 32 21.5 53.5t53.5 21.5h20q32 0 53.5 -21.5t21.5 -53.5q0 -33 -21 -54t-54 -21h-20zM205 -160l55 306h108l-70 -306h-93z" />
    <glyph glyph-name="less" unicode="&#x3c;" 
d="M515 65l-430 215v100l430 215v-87l-310 -152q-19 -9 -35.5 -15.5t-24.5 -8.5q9 -2 26 -8.5t34 -15.5l310 -153v-90z" />
    <glyph glyph-name="equal" unicode="=" 
d="M85 410v80h430v-80h-430zM85 170v80h430v-80h-430z" />
    <glyph glyph-name="greater" unicode="&#x3e;" 
d="M85 65v87l310 152q19 9 35.5 15.5t24.5 8.5q-9 2 -26 9t-34 15l-310 153v90l430 -215v-100z" />
    <glyph glyph-name="question" unicode="?" 
d="M206 215v170h50q64 0 101.5 35.5t37.5 94.5t-37.5 94.5t-102.5 35.5h-125v85h125q70 0 121.5 -26.5t80 -74.5t28.5 -114q0 -57 -24 -102.5t-66.5 -72.5t-98.5 -30v-95h-90zM235 -5q-26 0 -43 17t-17 43t17 43t43 17h30q29 0 44.5 -16.5t15.5 -42.5t-17 -43.5t-43 -17.5
h-30z" />
    <glyph glyph-name="at" unicode="@" 
d="M325 -180q-85 0 -148 35.5t-97.5 101t-34.5 153.5v340q0 135 72 212.5t198 77.5q114 0 179.5 -65.5t65.5 -179.5v-271q0 -78 -43 -123.5t-117 -45.5q-73 0 -116.5 44t-43.5 115v116q0 74 35 114.5t99 40.5q41 0 68 -16t36 -44h2v70q0 85 -42.5 130t-122.5 45
q-90 0 -140 -58t-50 -162v-340q0 -100 53.5 -157.5t146.5 -57.5h110v-75h-110zM400 122q38 0 59 24.5t21 67.5v117q0 44 -21 67.5t-59 23.5t-59 -24t-21 -68v-116q0 -43 21 -67.5t59 -24.5z" />
    <glyph glyph-name="A" unicode="A" 
d="M50 0l190 730h121l189 -730h-91l-48 194h-221l-48 -194h-92zM208 270h184l-56 225q-16 64 -25 107t-11 56q-2 -13 -11 -56t-25 -106z" />
    <glyph glyph-name="B" unicode="B" 
d="M93 0v730h207q100 0 156.5 -50t56.5 -139q0 -56 -35.5 -101t-92.5 -56v-3q43 -5 75.5 -30t51 -63.5t18.5 -84.5q0 -94 -57.5 -148.5t-157.5 -54.5h-222zM181 419h118q58 0 91.5 31t33.5 84t-33 84t-91 31h-119v-230zM181 81h124q63 0 99.5 33.5t36.5 91.5
q0 60 -36.5 97.5t-99.5 37.5h-124v-260z" />
    <glyph glyph-name="C" unicode="C" 
d="M308 -10q-100 0 -158 56t-58 154v330q0 98 58 154t158 56q98 0 156 -56.5t58 -153.5h-90q0 62 -32.5 95.5t-91.5 33.5t-92.5 -33.5t-33.5 -95.5v-330q0 -62 33.5 -95.5t92.5 -33.5t91.5 33.5t32.5 95.5h90q0 -97 -58 -153.5t-156 -56.5z" />
    <glyph glyph-name="D" unicode="D" 
d="M92 0v730h189q71 0 122.5 -27t80 -76t28.5 -116v-291q0 -67 -28.5 -116.5t-80 -76.5t-122.5 -27h-189zM182 80h99q66 0 103.5 37t37.5 103v291q0 65 -37.5 102t-103.5 37h-99v-570z" />
    <glyph glyph-name="E" unicode="E" 
d="M100 0v730h420v-82h-331v-226h296v-80h-296v-260h331v-82h-420z" />
    <glyph glyph-name="F" unicode="F" 
d="M95 0v730h430v-82h-342v-242h316v-82h-314v-324h-90z" />
    <glyph glyph-name="G" unicode="G" 
d="M304 -10q-100 0 -158 56t-58 154v330q0 98 58 154t158 56q98 0 156 -56.5t58 -153.5h-90q0 62 -32.5 95.5t-91.5 33.5t-92.5 -33t-33.5 -95v-331q0 -62 33.5 -96t92.5 -34t91.5 34t32.5 96v100h-148v82h238v-182q0 -97 -58 -153.5t-156 -56.5z" />
    <glyph glyph-name="H" unicode="H" 
d="M93 0v730h90v-312h234v312h90v-730h-90v336h-234v-336h-90z" />
    <glyph glyph-name="I" unicode="I" 
d="M105 0v82h149v566h-149v82h390v-82h-149v-566h149v-82h-390z" />
    <glyph glyph-name="J" unicode="J" 
d="M270 -10q-105 0 -165 59t-60 161h90q0 -67 35.5 -103.5t99.5 -36.5t99.5 36.5t35.5 103.5v520h90v-520q0 -102 -60.5 -161t-164.5 -59z" />
    <glyph glyph-name="K" unicode="K" 
d="M92 0v730h90v-314h108l162 314h98l-181 -352l191 -378h-103l-170 337h-105v-337h-90z" />
    <glyph glyph-name="L" unicode="L" 
d="M130 0v730h90v-648h330v-82h-420z" />
    <glyph glyph-name="M" unicode="M" 
d="M72 0v730h133l93 -316l97 316h133v-730h-87v345q0 49 1.5 112.5t4.5 128.5t7 117l-118 -377h-78l-113 368q8 -74 11 -162t3 -187v-345h-87z" />
    <glyph glyph-name="N" unicode="N" 
d="M90 0v730h120l223 -625q-2 25 -4.5 61.5t-4 77t-1.5 76.5v410h87v-730h-120l-222 625q2 -24 4 -60.5t3.5 -77t1.5 -77.5v-410h-87z" />
    <glyph glyph-name="O" unicode="O" 
d="M300 -10q-98 0 -155 57t-57 163v310q0 106 57 163t155 57t155 -57t57 -162v-311q0 -106 -57 -163t-155 -57zM300 71q59 0 90.5 33.5t31.5 95.5v330q0 62 -31.5 95.5t-90.5 33.5q-58 0 -90 -33.5t-32 -95.5v-330q0 -62 32 -95.5t90 -33.5z" />
    <glyph glyph-name="P" unicode="P" 
d="M92 0v730h235q102 0 162.5 -58.5t60.5 -156.5t-60.5 -156.5t-162.5 -58.5h-145v-300h-90zM182 381h145q59 0 94.5 36.5t35.5 97.5q0 62 -35.5 98t-94.5 36h-145v-268z" />
    <glyph glyph-name="Q" unicode="Q" 
d="M422 -180l-103 171q-4 0 -9 -0.5t-10 -0.5q-101 0 -160.5 58.5t-59.5 156.5v320q0 98 59.5 156.5t160.5 58.5t160.5 -58.5t59.5 -156.5v-320q0 -67 -29 -117t-82 -75l117 -193h-104zM300 70q59 0 94.5 37t35.5 98v320q0 62 -35.5 98.5t-94.5 36.5t-94.5 -36.5
t-35.5 -98.5v-320q0 -61 35.5 -98t94.5 -37z" />
    <glyph glyph-name="R" unicode="R" 
d="M93 0v730h225q65 0 114 -26.5t76 -73.5t27 -110q0 -74 -38 -127t-101 -74l149 -319h-99l-143 310h-121v-310h-89zM182 391h136q56 0 90 35.5t34 93.5q0 59 -34 94t-90 35h-136v-258z" />
    <glyph glyph-name="S" unicode="S" 
d="M304 -10q-106 0 -169 56t-63 154h90q0 -61 39 -95.5t103 -34.5q62 0 99 36t37 94q0 44 -23.5 76.5t-67.5 44.5l-111 31q-69 20 -108.5 71.5t-39.5 121.5q0 58 26 102t73 68.5t108 24.5q62 0 109.5 -24.5t74.5 -68t27 -100.5h-90q0 50 -34 81.5t-87 31.5t-86 -31.5
t-33 -81.5q0 -40 21.5 -68.5t60.5 -39.5l114 -32q73 -20 113.5 -75.5t40.5 -131.5q0 -96 -61 -153t-163 -57z" />
    <glyph glyph-name="T" unicode="T" 
d="M255 0v648h-200v82h490v-82h-200v-648h-90z" />
    <glyph glyph-name="U" unicode="U" 
d="M300 -10q-102 0 -156 56.5t-54 153.5v530h90v-530q0 -60 29.5 -95t90.5 -35q60 0 90 35t30 95v530h90v-530q0 -98 -53.5 -154t-156.5 -56z" />
    <glyph glyph-name="V" unicode="V" 
d="M238 0l-188 730h92l125 -497q13 -52 21.5 -96t12.5 -67q4 23 13.5 67.5t22.5 96.5l120 496h93l-189 -730h-123z" />
    <glyph glyph-name="W" unicode="W" 
d="M107 0l-87 730h83l57 -540q4 -33 6 -68.5t3 -56.5q2 21 5.5 56.5t7.5 68.5l72 540h97l66 -540q4 -33 8 -68.5t6 -56.5q2 21 4.5 56.5t6.5 68.5l59 540h79l-89 -730h-113l-66 550q-4 34 -6 66.5t-4 50.5q-2 -18 -4 -50.5t-7 -66.5l-71 -550h-113z" />
    <glyph glyph-name="X" unicode="X" 
d="M40 0l210 370l-199 360h104l113 -216q9 -17 18.5 -36.5t15.5 -30.5q5 11 14.5 30.5t18.5 36.5l115 216h99l-199 -354l210 -376h-103l-125 232q-9 17 -18.5 36.5t-14.5 31.5q-5 -12 -14.5 -31t-18.5 -36l-126 -233h-100z" />
    <glyph glyph-name="Y" unicode="Y" 
d="M255 0v273l-220 457h96l142 -300q12 -25 19 -42.5t9 -25.5q2 8 9.5 25.5t19.5 42.5l142 300h93l-220 -457v-273h-90z" />
    <glyph glyph-name="Z" unicode="Z" 
d="M85 0v90l329 558h-324v82h415v-90l-329 -558h339v-82h-430z" />
    <glyph glyph-name="bracketleft" unicode="[" 
d="M205 -110v940h245v-80h-155v-780h155v-80h-245z" />
    <glyph glyph-name="backslash" unicode="\" 
d="M430 -110l-355 940h95l355 -940h-95z" />
    <glyph glyph-name="bracketright" unicode="]" 
d="M150 -110v80h155v780h-155v80h245v-940h-245z" />
    <glyph glyph-name="asciicircum" unicode="^" 
d="M80 340l179 390h84l177 -390h-81l-112 258q-8 20 -14.5 38.5t-9.5 28.5q-4 -10 -11 -28.5t-16 -38.5l-115 -258h-81z" />
    <glyph glyph-name="underscore" unicode="_" 
d="M60 -100v75h480v-75h-480z" />
    <glyph glyph-name="grave" unicode="`" 
d="M277 645l-115 140h100l110 -140h-95z" />
    <glyph glyph-name="a" unicode="a" 
d="M252 -10q-85 0 -135 47.5t-50 124.5q0 51 23 89t64 59.5t94 21.5h170v43q0 107 -117 107q-52 0 -84 -19t-34 -53h-90q5 65 60.5 107.5t147.5 42.5q100 0 153.5 -48t53.5 -134v-378h-89v100h-2q-8 -51 -51 -80.5t-114 -29.5zM274 66q66 0 105 32t39 87v77h-160
q-44 0 -71.5 -26.5t-27.5 -70.5q0 -46 30.5 -72.5t84.5 -26.5z" />
    <glyph glyph-name="b" unicode="b" 
d="M332 -10q-62 0 -102 30.5t-47 84.5h-1v-105h-90v730h90v-160l-2 -125h1q8 53 48.5 84t102.5 31q83 0 132 -55t49 -150v-161q0 -94 -49 -149t-132 -55zM302 68q57 0 89 30t32 97v160q0 68 -32 97.5t-89 29.5q-55 0 -87.5 -35t-32.5 -97v-150q0 -62 32.5 -97t87.5 -35z" />
    <glyph glyph-name="c" unicode="c" 
d="M308 -10q-100 0 -160 56t-60 154v150q0 98 60 154t160 56q95 0 153.5 -51t61.5 -139h-90q-3 53 -36 81.5t-89 28.5q-59 0 -94.5 -33.5t-35.5 -95.5v-151q0 -62 35.5 -96t94.5 -34q56 0 89 29t36 81h90q-3 -88 -61.5 -139t-153.5 -51z" />
    <glyph glyph-name="d" unicode="d" 
d="M268 -10q-82 0 -131.5 55t-49.5 149v161q0 95 49 150t132 55q62 0 102.5 -31t48.5 -84h1l-2 125v160h90v-730h-90v105h-1q-7 -54 -47 -84.5t-102 -30.5zM298 68q56 0 88 35t32 97v150q0 62 -32 97t-88 35q-57 0 -89 -29.5t-32 -97.5v-160q0 -67 32 -97t89 -30z" />
    <glyph glyph-name="e" unicode="e" 
d="M300 -10q-97 0 -156.5 58.5t-59.5 161.5v130q0 103 59.5 161.5t156.5 58.5q65 0 113.5 -26t75.5 -73t27 -111v-98h-344v-52q0 -61 35 -96.5t93 -35.5q50 0 82.5 19.5t39.5 52.5h90q-9 -69 -67 -109.5t-145 -40.5zM172 322h256v28q0 65 -33.5 100.5t-94.5 35.5
t-94.5 -35.5t-33.5 -100.5v-28z" />
    <glyph glyph-name="f" unicode="f" 
d="M215 0v393h-160v82h160v115q0 65 41 102.5t113 37.5h161v-82h-161q-64 0 -64 -58v-115h225v-82h-225v-393h-90z" />
    <glyph glyph-name="g" unicode="g" 
d="M161 -180v82h155q47 0 74 26.5t27 71.5v50l2 90h-3q-8 -49 -47 -75.5t-98 -26.5q-85 0 -134 54t-49 148v116q0 94 49 149t134 55q59 0 98 -28t47 -77h2v95h89v-550q0 -83 -51.5 -131.5t-140.5 -48.5h-154zM298 113q56 0 88 35t32 97v105q0 62 -32 97t-88 35
q-57 0 -88.5 -33t-31.5 -89v-125q0 -56 31.5 -89t88.5 -33z" />
    <glyph glyph-name="h" unicode="h" 
d="M92 0v730h90v-285h1q7 55 45 85t101 30q83 0 132 -51t49 -139v-370h-90v355q0 62 -31.5 95.5t-85.5 33.5q-56 0 -88.5 -35t-32.5 -99v-350h-90z" />
    <glyph glyph-name="i" unicode="i" 
d="M85 0v82h195v386h-175v82h265v-468h185v-82h-470zM315 649q-33 0 -52 17t-19 46q0 30 19 47.5t52 17.5t52 -17.5t19 -47.5q0 -29 -19 -46t-52 -17z" />
    <glyph glyph-name="j" unicode="j" 
d="M90 -180v82h124q62 0 96.5 34t34.5 95v437h-260v82h350v-519q0 -97 -60 -154t-161 -57h-124zM380 649q-33 0 -52 17t-19 46q0 30 19 47.5t52 17.5t52 -17.5t19 -47.5q0 -29 -19 -46t-52 -17z" />
    <glyph glyph-name="k" unicode="k" 
d="M97 0v730h90v-407h105l154 227h103l-177 -262l187 -288h-105l-160 245h-107v-245h-90z" />
    <glyph glyph-name="l" unicode="l" 
d="M380 0q-73 0 -116.5 42.5t-43.5 112.5v493h-190v82h280v-575q0 -34 19 -53.5t51 -19.5h170v-82h-170z" />
    <glyph glyph-name="m" unicode="m" 
d="M60 0v550h78v-73h2q5 37 29.5 60t62.5 23q36 0 61 -21t36 -57h1q7 36 31.5 57t62.5 21q53 0 84.5 -39.5t31.5 -102.5v-418h-84v419q0 33 -16 52.5t-44 19.5q-27 0 -43 -19t-16 -52v-420h-74v419q0 33 -16 52.5t-43 19.5q-28 0 -44 -19t-16 -52v-420h-84z" />
    <glyph glyph-name="n" unicode="n" 
d="M92 0v550h90v-105h1q7 55 45 85t101 30q83 0 132 -51t49 -139v-370h-90v354q0 63 -31.5 96.5t-85.5 33.5q-56 0 -88.5 -35t-32.5 -99v-350h-90z" />
    <glyph glyph-name="o" unicode="o" 
d="M300 -8q-99 0 -157.5 58t-58.5 162v126q0 105 58 162.5t158 57.5t158 -57.5t58 -162.5v-126q0 -104 -58.5 -162t-157.5 -58zM300 72q59 0 92.5 33t33.5 97v146q0 64 -33.5 97t-92.5 33q-58 0 -92 -33t-34 -97v-146q0 -64 34 -97t92 -33z" />
    <glyph glyph-name="p" unicode="p" 
d="M92 -180v730h90v-105h1q7 54 47 84.5t102 30.5q83 0 132 -54.5t49 -149.5v-161q0 -95 -49 -150t-132 -55q-62 0 -102 31t-47 84h-3l2 -125v-160h-90zM302 68q57 0 89 30t32 97v160q0 68 -32 97.5t-89 29.5q-55 0 -87.5 -35t-32.5 -97v-150q0 -62 32.5 -97t87.5 -35z" />
    <glyph glyph-name="q" unicode="q" 
d="M418 -180v160l2 125h-3q-7 -53 -47 -84t-102 -31q-83 0 -132 55t-49 150v161q0 95 49.5 149.5t131.5 54.5q62 0 102 -30.5t47 -84.5h1v105h90v-730h-90zM298 68q56 0 88 35t32 97v150q0 62 -32 97t-88 35q-57 0 -89 -29t-32 -93v-170q0 -64 32 -93t89 -29z" />
    <glyph glyph-name="r" unicode="r" 
d="M112 0v550h90v-105h2q7 53 45 84t102 31q86 0 132.5 -51.5t46.5 -146.5v-47h-90v47q0 120 -117 120q-59 0 -90 -34t-31 -98v-350h-90z" />
    <glyph glyph-name="s" unicode="s" 
d="M278 -8q-92 0 -142.5 41.5t-50.5 117.5h90q0 -38 27 -59.5t76 -21.5h44q50 0 77.5 22t27.5 62q0 71 -65 80l-152 22q-56 8 -87 46.5t-31 101.5q0 72 49.5 113t136.5 41h44q80 0 130.5 -39.5t54.5 -103.5h-91q-2 29 -27.5 48t-66.5 19h-44q-46 0 -72 -21t-26 -57
q0 -58 53 -66l142 -20q140 -20 140 -164q0 -77 -50.5 -119.5t-142.5 -42.5h-44z" />
    <glyph glyph-name="t" unicode="t" 
d="M355 0q-68 0 -109 39.5t-41 105.5v323h-158v82h158v155h90v-155h225v-82h-225v-323q0 -28 16.5 -45.5t43.5 -17.5h160v-82h-160z" />
    <glyph glyph-name="u" unicode="u" 
d="M299 -10q-95 0 -152 56.5t-57 153.5v350h90v-350q0 -60 32 -95.5t87 -35.5q56 0 88.5 35.5t32.5 95.5v350h90v-350q0 -97 -58 -153.5t-153 -56.5z" />
    <glyph glyph-name="v" unicode="v" 
d="M241 0l-187 550h97l120 -370q11 -33 19 -63.5t12 -47.5q5 17 12 47.5t17 63.5l120 370h95l-187 -550h-118z" />
    <glyph glyph-name="w" unicode="w" 
d="M121 0l-90 550h78l56 -388q3 -22 6 -48.5t4 -43.5q2 17 4.5 43.5t6.5 48.5l69 388h90l69 -388q4 -22 7.5 -48.5t4.5 -43.5q2 17 5 43.5t6 48.5l58 388h74l-94 -550h-99l-63 380q-4 28 -7.5 59.5t-5.5 48.5q-1 -17 -5 -48.5t-9 -59.5l-66 -380h-99z" />
    <glyph glyph-name="x" unicode="x" 
d="M50 0l195 283l-183 267h106l109 -170q7 -11 13.5 -24l10.5 -21q3 8 9.5 21t13.5 24l109 170h106l-183 -268l194 -282h-106l-118 180q-7 11 -13.5 25.5t-11.5 23.5q-4 -9 -11.5 -23.5t-15.5 -25.5l-118 -180h-106z" />
    <glyph glyph-name="y" unicode="y" 
d="M178 -180l81 214l-205 516h97l130 -340q8 -20 15 -42t10 -38q3 16 10 38t14 42l121 340h95l-274 -730h-94z" />
    <glyph glyph-name="z" unicode="z" 
d="M90 0v90l308 378h-300v82h401v-90l-314 -378h325v-82h-420z" />
    <glyph glyph-name="braceleft" unicode="{" 
d="M460 -110q-88 0 -140 43.5t-45 122.5l15 164q5 53 -15 76.5t-85 23.5h-115v80h115q65 0 85 23.5t15 76.5l-15 164q-7 79 45 122.5t140 43.5h45v-80h-45q-47 0 -73 -21.5t-22 -64.5l15 -164q5 -59 -28 -94.5t-108 -42.5q75 -7 108 -46t28 -97l-15 -164q-4 -43 22 -64.5
t73 -21.5h45v-80h-45z" />
    <glyph glyph-name="bar" unicode="|" 
d="M255 -110v940h90v-940h-90z" />
    <glyph glyph-name="braceright" unicode="}" 
d="M95 -110v80h45q47 0 74.5 21.5t20.5 64.5l-25 164q-9 57 20 96.5t80 48.5q-51 8 -80 43t-20 92l25 164q7 43 -20.5 64.5t-74.5 21.5h-45v80h45q59 0 103.5 -19.5t67 -56.5t14.5 -90l-25 -164q-8 -53 13.5 -76.5t86.5 -23.5h125v-80h-125q-64 0 -86 -23.5t-14 -76.5
l25 -164q8 -52 -14.5 -89.5t-67 -57t-103.5 -19.5h-45z" />
    <glyph glyph-name="asciitilde" unicode="~" 
d="M70 255v70q0 59 36 94.5t94 35.5q37 0 62 -13t42 -32.5t30.5 -39t28.5 -32.5t35 -13q47 0 47 55v70h85v-70q0 -58 -35.5 -94t-94.5 -36q-37 0 -62 13t-42 32.5t-30.5 39t-28.5 32.5t-35 13q-47 0 -47 -55v-70h-85z" />
    <glyph glyph-name="uni00A0" unicode="&#xa0;" 
 />
    <glyph glyph-name="exclamdown" unicode="&#xa1;" 
d="M285 435q-26 0 -43 17t-17 43t17 43t43 17h30q26 0 43 -17.5t17 -43.5q0 -25 -15.5 -42t-44.5 -17h-30zM247 -180l12 515h82l12 -515h-106z" />
    <glyph glyph-name="cent" unicode="&#xa2;" 
d="M273 -140v132q-85 10 -135 64.5t-50 143.5v150q0 89 50 143.5t135 64.5v132h60v-131q85 -7 136 -57t54 -132h-90q-3 46 -29 74t-71 34v-406q45 6 71 34t29 74h90q-3 -82 -54 -132t-136 -57v-131h-60zM178 200q0 -52 25.5 -84.5t69.5 -42.5v404q-44 -10 -69.5 -42
t-25.5 -84v-151z" />
    <glyph glyph-name="sterling" unicode="&#xa3;" 
d="M75 0v100q24 19 49 45.5t42.5 55t17.5 53.5q0 27 -5 51h-104v80h75q-14 26 -29 50.5t-25 53t-10 66.5q0 85 58 135t156 50q99 0 156.5 -50.5t58.5 -139.5h-95q0 50 -33 80t-88 30q-58 0 -90 -28.5t-32 -81.5q0 -35 12 -60.5t29 -49.5t32 -55h185v-80h-163q3 -20 3 -42
q0 -43 -17.5 -79.5t-43 -63t-49.5 -40.5h370v-80h-460z" />
    <glyph glyph-name="currency" unicode="&#xa4;" 
d="M495 113l-87 87q-46 -29 -107 -29q-62 0 -109 29l-85 -85l-62 62l83 84q-33 49 -33 112q0 64 34 113l-86 86l63 63l88 -88q48 28 107 28q63 0 111 -31l84 84l61 -61l-83 -83q31 -50 31 -111q0 -31 -8.5 -59.5t-23.5 -52.5l85 -85zM301 240q56 0 93 38t37 95t-37 95
t-93 38q-37 0 -67 -17.5t-47.5 -47.5t-17.5 -68t17.5 -68t47.5 -47.5t67 -17.5z" />
    <glyph glyph-name="yen" unicode="&#xa5;" 
d="M60 120v75h195v75h-195v75h160l-185 385h96l142 -300q12 -25 19 -42.5t9 -25.5q2 8 9.5 25.5t19.5 42.5l142 300h93l-185 -385h160v-75h-195v-75h195v-75h-195v-120h-90v120h-195z" />
    <glyph glyph-name="brokenbar" unicode="&#xa6;" 
d="M255 450v380h90v-380h-90zM255 -110v380h90v-380h-90z" />
    <glyph glyph-name="section" unicode="&#xa7;" 
d="M275 -154q-91 0 -144.5 41.5t-53.5 112.5h95q0 -34 28 -54t75 -20h50q50 0 78.5 23t28.5 63q0 36 -25.5 61.5t-75.5 33.5l-92 15q-46 8 -80 34t-53 63t-19 77q0 58 29.5 94t81.5 43v2q-52 12 -80 50t-28 94q0 74 51 117.5t138 43.5h50q79 0 130 -39t58 -106h-95
q-4 30 -29 47.5t-64 17.5h-50q-46 0 -72.5 -22t-26.5 -60q0 -33 18 -56t50 -29l120 -23q71 -13 111.5 -62t40.5 -110q0 -58 -34 -92.5t-81 -37.5v-2q21 -2 48.5 -18.5t48.5 -49t21 -83.5q0 -78 -53 -123.5t-145 -45.5h-50zM330 187q44 -7 72 26t28 86q0 35 -22 62t-57 33
l-74 13q-44 8 -72 -24t-28 -83q0 -38 21.5 -66t55.5 -34z" />
    <glyph glyph-name="dieresis" unicode="&#xa8;" 
d="M411 649q-29 0 -46.5 17t-17.5 46q0 30 17.5 47.5t46.5 17.5t46.5 -17.5t17.5 -47.5q0 -29 -17.5 -46t-46.5 -17zM189 649q-29 0 -46.5 17t-17.5 46q0 30 17.5 47.5t46.5 17.5t46.5 -17.5t17.5 -47.5q0 -29 -17.5 -46t-46.5 -17z" />
    <glyph glyph-name="copyright" unicode="&#xa9;" 
d="M300 110q-76 0 -133.5 30t-89.5 84t-32 126v150q0 72 32 126t89.5 84t133.5 30q77 0 134 -30t89 -84t32 -126v-150q0 -72 -32 -126t-89 -84t-134 -30zM300 160q60 0 105 23.5t70 66.5t25 100v150q0 57 -25 99.5t-70 66.5t-105 24t-105 -24t-70 -66.5t-25 -99.5v-150
q0 -57 25 -100t70 -66.5t105 -23.5zM305 245q-56 0 -90.5 31.5t-34.5 83.5v130q0 52 34.5 83.5t90.5 31.5t90 -31.5t34 -83.5h-65q0 27 -16.5 43.5t-42.5 16.5q-27 0 -43.5 -16.5t-16.5 -43.5v-130q0 -27 16.5 -43.5t43.5 -16.5q26 0 42.5 16.5t16.5 43.5h65
q0 -52 -34 -83.5t-90 -31.5z" />
    <glyph glyph-name="ordfeminine" unicode="&#xaa;" 
d="M274 450q-45 0 -72 23.5t-27 62.5t28 62t77 23h90v29q0 23 -17.5 36.5t-47.5 13.5q-26 0 -44 -11t-21 -29h-50q5 38 35.5 59t79.5 21q53 0 84 -24t31 -66v-195h-47v55h-3q-10 -28 -35.5 -44t-60.5 -16zM287 488q39 0 61 18t22 49v26h-90q-55 0 -55 -45q0 -22 17 -35
t45 -13z" />
    <glyph glyph-name="guillemotleft" unicode="&#xab;" 
d="M460 40l-192 240l191 240h104l-196 -238l196 -242h-103zM222 40l-192 240l191 240h106l-196 -238l196 -242h-105z" />
    <glyph glyph-name="logicalnot" unicode="&#xac;" 
d="M415 185v130h-315v80h400v-210h-85z" />
    <glyph glyph-name="uni00AD" unicode="&#xad;" 
d="M140 290v80h320v-80h-320z" />
    <glyph glyph-name="registered" unicode="&#xae;" 
d="M300 110q-76 0 -133.5 30t-89.5 84t-32 126v150q0 72 32 126t89.5 84t133.5 30q77 0 134 -30t89 -84t32 -126v-150q0 -72 -32 -126t-89 -84t-134 -30zM100 350q0 -57 25 -100t70 -66.5t105 -23.5t105 23.5t70 66.5t25 100v150q0 57 -25 99.5t-70 66.5t-105 24t-105 -24
t-70 -66.5t-25 -99.5v-150zM190 250v350h114q54 0 85.5 -28.5t31.5 -76.5q0 -69 -60 -95l66 -150h-64l-59 140h-54v-140h-60zM250 440h54q26 0 41 14.5t15 40.5t-15 40.5t-41 14.5h-54v-110z" />
    <glyph glyph-name="macron" unicode="&#xaf;" 
d="M140 670v75h320v-75h-320z" />
    <glyph glyph-name="degree" unicode="&#xb0;" 
d="M300 450q-67 0 -108.5 40.5t-41.5 104.5q0 65 41.5 105t108.5 40t108.5 -40t41.5 -105q0 -64 -41.5 -104.5t-108.5 -40.5zM300 506q38 0 61.5 24.5t23.5 64.5t-23.5 65t-61.5 25q-37 0 -61 -25t-24 -65t24 -64.5t61 -24.5z" />
    <glyph glyph-name="plusminus" unicode="&#xb1;" 
d="M70 0v70h186v225h-191v80h191v195h88v-195h191v-80h-191v-225h186v-70h-460z" />
    <glyph glyph-name="uni00B2" unicode="&#xb2;" 
d="M156 382v77l183 158q20 17 32 35.5t12 40.5q0 35 -23.5 56.5t-58.5 21.5q-34 0 -58.5 -22t-24.5 -58h-71q2 43 23 75t55.5 50.5t75.5 18.5q44 0 78.5 -17.5t55 -49t20.5 -73.5q0 -36 -21 -67t-57 -62l-140 -119h220v-65h-301z" />
    <glyph glyph-name="uni00B3" unicode="&#xb3;" 
d="M300 377q-71 0 -116 41t-45 107h71q0 -37 25 -60.5t65 -23.5t65 23.5t25 60.5t-25 60t-65 23h-41v69l115 88h-213v65h285v-72l-117 -92q60 -7 96.5 -45t36.5 -96q0 -66 -45 -107t-117 -41z" />
    <glyph glyph-name="acute" unicode="&#xb4;" 
d="M232 645l106 140h97l-111 -140h-92z" />
    <glyph glyph-name="uni00B5" unicode="&#xb5;" 
d="M93 -180v730h90v-350q0 -62 30 -97t85 -35q56 0 87.5 35t31.5 97v350h90v-550h-88v105h-3q-3 -53 -30 -84t-89 -31t-86 31t-27 84h-3l2 -125v-160h-90z" />
    <glyph glyph-name="paragraph" unicode="&#xb6;" 
d="M255 -180v490q-85 0 -137.5 47t-52.5 123v80q0 77 52.5 123.5t137.5 46.5h80v-910h-80zM425 -180v910h80v-910h-80z" />
    <glyph glyph-name="periodcentered" unicode="&#xb7;" 
d="M300 260q-37 0 -59.5 22t-22.5 57q0 37 22.5 60t59.5 23t59.5 -23t22.5 -60q0 -35 -22.5 -57t-59.5 -22z" />
    <glyph glyph-name="cedilla" unicode="&#xb8;" 
d="M205 -203v55h70q22 0 35.5 11.5t13.5 24.5q0 17 -27.5 30t-77.5 13l35 95h57l-21 -61q26 -3 54 -13t47 -28t19 -44q0 -34 -33 -58.5t-87 -24.5h-85z" />
    <glyph glyph-name="uni00B9" unicode="&#xb9;" 
d="M150 382v65h144v324l-141 -85v73l116 71h96v-383h115v-65h-330z" />
    <glyph glyph-name="ordmasculine" unicode="&#xba;" 
d="M300 445q-52 0 -83.5 29t-31.5 76v80q0 47 31.5 76t83.5 29t83.5 -29t31.5 -76v-80q0 -47 -31.5 -76t-83.5 -29zM300 485q29 0 47 18t18 47v80q0 29 -18 47t-47 18t-47 -18t-18 -47v-80q0 -29 18 -47t47 -18z" />
    <glyph glyph-name="guillemotright" unicode="&#xbb;" 
d="M274 40l192 241l-193 239h105l192 -240l-191 -240h-105zM38 40l192 241l-193 239h103l192 -240l-191 -240h-103z" />
    <glyph glyph-name="onequarter" unicode="&#xbc;" 
d="M5 0l280 405h-255v50h118v236q-4 -7 -13 -17.5t-20 -20.5l-62 -54v70l70 61h85v-275h97v-21l205 296h85l-505 -730h-85zM480 0v70h-175v80l126 175h69l-135 -189v-16h115v89h60v-209h-60z" />
    <glyph glyph-name="onehalf" unicode="&#xbd;" 
d="M5 0l280 405h-255v50h118v236q-4 -7 -13 -17.5t-20 -20.5l-62 -54v70l70 61h85v-275h107v-7l195 282h85l-505 -730h-85zM315 0v64l120 69q70 40 70 83q0 29 -18 46.5t-47 17.5t-47 -17.5t-18 -46.5h-60q2 52 36.5 83t88.5 31q56 0 90.5 -31t34.5 -81q0 -31 -22.5 -61
t-63.5 -53l-93 -52v-10q11 2 32 5t43 3h109v-50h-255z" />
    <glyph glyph-name="threequarters" unicode="&#xbe;" 
d="M154 400q-58 0 -93 29t-35 76h60q0 -25 18.5 -40t49.5 -15q30 0 48.5 15t18.5 40t-18.5 40t-47.5 15h-30v57l81 63h-156v50h215v-55l-85 -66q45 -6 73 -34t28 -70q0 -47 -35 -76t-92 -29zM5 0l505 730h85l-505 -730h-85zM480 0v70h-175v80l126 175h69l-135 -189v-16h115
v89h60v-209h-60z" />
    <glyph glyph-name="questiondown" unicode="&#xbf;" 
d="M335 435q-28 0 -44 17t-16 42q0 26 17 43.5t43 17.5h30q26 0 43 -17t17 -43t-17 -43t-43 -17h-30zM345 -180q-70 0 -121.5 26.5t-80 75t-28.5 113.5q0 58 24 103t66.5 72t98.5 30v95h90v-170h-50q-64 0 -101.5 -35.5t-37.5 -94.5t38 -94.5t102 -35.5h125v-85h-125z" />
    <glyph glyph-name="Agrave" unicode="&#xc0;" 
d="M50 0l190 730h121l189 -730h-91l-48 194h-221l-48 -194h-92zM208 270h184l-56 225q-16 64 -25 107t-11 56q-2 -13 -11 -56t-25 -106zM267 810l-115 140h100l110 -140h-95z" />
    <glyph glyph-name="Aacute" unicode="&#xc1;" 
d="M50 0l190 730h121l189 -730h-91l-48 194h-221l-48 -194h-92zM208 270h184l-56 225q-16 64 -25 107t-11 56q-2 -13 -11 -56t-25 -106zM242 810l106 140h97l-111 -140h-92z" />
    <glyph glyph-name="Acircumflex" unicode="&#xc2;" 
d="M50 0l190 730h121l189 -730h-91l-48 194h-221l-48 -194h-92zM208 270h184l-56 225q-16 64 -25 107t-11 56q-2 -13 -11 -56t-25 -106zM119 810l139 140h83l140 -140h-99l-82 78l-80 -78h-101z" />
    <glyph glyph-name="Atilde" unicode="&#xc3;" 
d="M50 0l190 730h121l189 -730h-91l-48 194h-221l-48 -194h-92zM208 270h184l-56 225q-16 64 -25 107t-11 56q-2 -13 -11 -56t-25 -106zM370 815q-30 0 -49 10.5t-32 24.5t-25 24.5t-29 10.5q-30 0 -30 -35v-30h-65v30q0 45 25 70t65 25q30 0 49 -10.5t32 -24.5t25 -24.5
t29 -10.5q30 0 30 35v30h65v-30q0 -45 -24.5 -70t-65.5 -25z" />
    <glyph glyph-name="Adieresis" unicode="&#xc4;" 
d="M50 0l190 730h121l189 -730h-91l-48 194h-221l-48 -194h-92zM208 270h184l-56 225q-16 64 -25 107t-11 56q-2 -13 -11 -56t-25 -106zM411 817q-29 0 -46.5 17t-17.5 46q0 30 17.5 47.5t46.5 17.5t46.5 -17.5t17.5 -47.5q0 -29 -17.5 -46t-46.5 -17zM189 817
q-29 0 -46.5 17t-17.5 46q0 30 17.5 47.5t46.5 17.5t46.5 -17.5t17.5 -47.5q0 -29 -17.5 -46t-46.5 -17z" />
    <glyph glyph-name="Aring" unicode="&#xc5;" 
d="M50 0l190 730h121l189 -730h-91l-48 194h-221l-48 -194h-92zM208 270h184l-56 225q-16 64 -25 107t-11 56q-2 -13 -11 -56t-25 -106zM300 766q-54 0 -87 31.5t-33 82.5t33 82.5t87 31.5t87 -31.5t33 -82.5t-33 -82.5t-87 -31.5zM300 819q27 0 43.5 16.5t16.5 44.5
t-16.5 45t-43.5 17t-43.5 -17t-16.5 -45t16.5 -44.5t43.5 -16.5z" />
    <glyph glyph-name="AE" unicode="&#xc6;" 
d="M30 0l145 730h395v-82h-182v-228h157v-82h-157v-256h182v-82h-268v203h-141l-40 -203h-91zM175 278h127v370h-56z" />
    <glyph glyph-name="Ccedilla" unicode="&#xc7;" 
d="M210 -203v55h70q22 0 35.5 11.5t13.5 24.5q0 17 -27.5 30t-77.5 13l24 65q-73 16 -114.5 69t-41.5 135v330q0 98 58 154t158 56q98 0 156 -56.5t58 -153.5h-90q0 62 -32.5 95.5t-91.5 33.5t-92.5 -33.5t-33.5 -95.5v-330q0 -62 33.5 -95.5t92.5 -33.5t91.5 33.5
t32.5 95.5h90q0 -97 -58 -153.5t-156 -56.5h-4l-9 -25q26 -3 54 -13t47 -28t19 -44q0 -34 -33 -58.5t-87 -24.5h-85z" />
    <glyph glyph-name="Egrave" unicode="&#xc8;" 
d="M100 0v730h420v-82h-331v-226h296v-80h-296v-260h331v-82h-420zM277 810l-115 140h100l110 -140h-95z" />
    <glyph glyph-name="Eacute" unicode="&#xc9;" 
d="M100 0v730h420v-82h-331v-226h296v-80h-296v-260h331v-82h-420zM252 810l106 140h97l-111 -140h-92z" />
    <glyph glyph-name="Ecircumflex" unicode="&#xca;" 
d="M100 0v730h420v-82h-331v-226h296v-80h-296v-260h331v-82h-420zM129 810l139 140h83l140 -140h-99l-82 78l-80 -78h-101z" />
    <glyph glyph-name="Edieresis" unicode="&#xcb;" 
d="M100 0v730h420v-82h-331v-226h296v-80h-296v-260h331v-82h-420zM421 817q-29 0 -46.5 17t-17.5 46q0 30 17.5 47.5t46.5 17.5t46.5 -17.5t17.5 -47.5q0 -29 -17.5 -46t-46.5 -17zM199 817q-29 0 -46.5 17t-17.5 46q0 30 17.5 47.5t46.5 17.5t46.5 -17.5t17.5 -47.5
q0 -29 -17.5 -46t-46.5 -17z" />
    <glyph glyph-name="Igrave" unicode="&#xcc;" 
d="M105 0v82h149v566h-149v82h390v-82h-149v-566h149v-82h-390zM267 810l-115 140h100l110 -140h-95z" />
    <glyph glyph-name="Iacute" unicode="&#xcd;" 
d="M105 0v82h149v566h-149v82h390v-82h-149v-566h149v-82h-390zM242 810l106 140h97l-111 -140h-92z" />
    <glyph glyph-name="Icircumflex" unicode="&#xce;" 
d="M105 0v82h149v566h-149v82h390v-82h-149v-566h149v-82h-390zM119 810l139 140h83l140 -140h-99l-82 78l-80 -78h-101z" />
    <glyph glyph-name="Idieresis" unicode="&#xcf;" 
d="M105 0v82h149v566h-149v82h390v-82h-149v-566h149v-82h-390zM411 817q-29 0 -46.5 17t-17.5 46q0 30 17.5 47.5t46.5 17.5t46.5 -17.5t17.5 -47.5q0 -29 -17.5 -46t-46.5 -17zM189 817q-29 0 -46.5 17t-17.5 46q0 30 17.5 47.5t46.5 17.5t46.5 -17.5t17.5 -47.5
q0 -29 -17.5 -46t-46.5 -17z" />
    <glyph glyph-name="Eth" unicode="&#xd0;" 
d="M92 0v335h-82v75h82v320h189q71 0 122.5 -27t80 -76t28.5 -116v-291q0 -67 -28.5 -116.5t-80 -76.5t-122.5 -27h-189zM182 80h99q66 0 103.5 37t37.5 103v291q0 65 -37.5 102t-103.5 37h-99v-240h108v-75h-108v-255z" />
    <glyph glyph-name="Ntilde" unicode="&#xd1;" 
d="M90 0v730h120l223 -625q-2 25 -4.5 61.5t-4 77t-1.5 76.5v410h87v-730h-120l-222 625q2 -24 4 -60.5t3.5 -77t1.5 -77.5v-410h-87zM370 815q-30 0 -49 10.5t-32 24.5t-25 24.5t-29 10.5q-30 0 -30 -35v-30h-65v30q0 45 25 70t65 25q30 0 49 -10.5t32 -24.5t25 -24.5
t29 -10.5q30 0 30 35v30h65v-30q0 -45 -24.5 -70t-65.5 -25z" />
    <glyph glyph-name="Ograve" unicode="&#xd2;" 
d="M300 -10q-98 0 -155 57t-57 163v310q0 106 57 163t155 57t155 -57t57 -162v-311q0 -106 -57 -163t-155 -57zM300 71q59 0 90.5 33.5t31.5 95.5v330q0 62 -31.5 95.5t-90.5 33.5q-58 0 -90 -33.5t-32 -95.5v-330q0 -62 32 -95.5t90 -33.5zM267 810l-115 140h100l110 -140
h-95z" />
    <glyph glyph-name="Oacute" unicode="&#xd3;" 
d="M300 -10q-98 0 -155 57t-57 163v310q0 106 57 163t155 57t155 -57t57 -162v-311q0 -106 -57 -163t-155 -57zM300 71q59 0 90.5 33.5t31.5 95.5v330q0 62 -31.5 95.5t-90.5 33.5q-58 0 -90 -33.5t-32 -95.5v-330q0 -62 32 -95.5t90 -33.5zM242 810l106 140h97l-111 -140
h-92z" />
    <glyph glyph-name="Ocircumflex" unicode="&#xd4;" 
d="M300 -10q-98 0 -155 57t-57 163v310q0 106 57 163t155 57t155 -57t57 -162v-311q0 -106 -57 -163t-155 -57zM300 71q59 0 90.5 33.5t31.5 95.5v330q0 62 -31.5 95.5t-90.5 33.5q-58 0 -90 -33.5t-32 -95.5v-330q0 -62 32 -95.5t90 -33.5zM119 810l139 140h83l140 -140
h-99l-82 78l-80 -78h-101z" />
    <glyph glyph-name="Otilde" unicode="&#xd5;" 
d="M300 -10q-98 0 -155 57t-57 163v310q0 106 57 163t155 57t155 -57t57 -162v-311q0 -106 -57 -163t-155 -57zM300 71q59 0 90.5 33.5t31.5 95.5v330q0 62 -31.5 95.5t-90.5 33.5q-58 0 -90 -33.5t-32 -95.5v-330q0 -62 32 -95.5t90 -33.5zM370 815q-30 0 -49 10.5
t-32 24.5t-25 24.5t-29 10.5q-30 0 -30 -35v-30h-65v30q0 45 25 70t65 25q30 0 49 -10.5t32 -24.5t25 -24.5t29 -10.5q30 0 30 35v30h65v-30q0 -45 -24.5 -70t-65.5 -25z" />
    <glyph glyph-name="Odieresis" unicode="&#xd6;" 
d="M300 -10q-98 0 -155 57t-57 163v310q0 106 57 163t155 57t155 -57t57 -162v-311q0 -106 -57 -163t-155 -57zM300 71q59 0 90.5 33.5t31.5 95.5v330q0 62 -31.5 95.5t-90.5 33.5q-58 0 -90 -33.5t-32 -95.5v-330q0 -62 32 -95.5t90 -33.5zM411 817q-29 0 -46.5 17
t-17.5 46q0 30 17.5 47.5t46.5 17.5t46.5 -17.5t17.5 -47.5q0 -29 -17.5 -46t-46.5 -17zM189 817q-29 0 -46.5 17t-17.5 46q0 30 17.5 47.5t46.5 17.5t46.5 -17.5t17.5 -47.5q0 -29 -17.5 -46t-46.5 -17z" />
    <glyph glyph-name="multiply" unicode="&#xd7;" 
d="M156 136l-51 52l141 141l-141 142l51 51l142 -141l145 145l51 -52l-145 -145l142 -141l-52 -52l-141 142z" />
    <glyph glyph-name="Oslash" unicode="&#xd8;" 
d="M35 -40l76 134q-23 45 -23 106v330q0 98 57 154t155 56q92 0 148 -49l33 59h84l-70 -125q17 -41 17 -94v-331q0 -98 -57 -154t-155 -56q-85 0 -140 43l-41 -73h-84zM178 530v-317l224 397q-31 49 -102 49q-58 0 -90 -33.5t-32 -95.5zM300 71q59 0 90.5 33.5t31.5 95.5
v297l-218 -386q32 -40 96 -40z" />
    <glyph glyph-name="Ugrave" unicode="&#xd9;" 
d="M300 -10q-102 0 -156 56.5t-54 153.5v530h90v-530q0 -60 29.5 -95t90.5 -35q60 0 90 35t30 95v530h90v-530q0 -98 -53.5 -154t-156.5 -56zM267 810l-115 140h100l110 -140h-95z" />
    <glyph glyph-name="Uacute" unicode="&#xda;" 
d="M300 -10q-102 0 -156 56.5t-54 153.5v530h90v-530q0 -60 29.5 -95t90.5 -35q60 0 90 35t30 95v530h90v-530q0 -98 -53.5 -154t-156.5 -56zM242 810l106 140h97l-111 -140h-92z" />
    <glyph glyph-name="Ucircumflex" unicode="&#xdb;" 
d="M300 -10q-102 0 -156 56.5t-54 153.5v530h90v-530q0 -60 29.5 -95t90.5 -35q60 0 90 35t30 95v530h90v-530q0 -98 -53.5 -154t-156.5 -56zM119 810l139 140h83l140 -140h-99l-82 78l-80 -78h-101z" />
    <glyph glyph-name="Udieresis" unicode="&#xdc;" 
d="M300 -10q-102 0 -156 56.5t-54 153.5v530h90v-530q0 -60 29.5 -95t90.5 -35q60 0 90 35t30 95v530h90v-530q0 -98 -53.5 -154t-156.5 -56zM411 817q-29 0 -46.5 17t-17.5 46q0 30 17.5 47.5t46.5 17.5t46.5 -17.5t17.5 -47.5q0 -29 -17.5 -46t-46.5 -17zM189 817
q-29 0 -46.5 17t-17.5 46q0 30 17.5 47.5t46.5 17.5t46.5 -17.5t17.5 -47.5q0 -29 -17.5 -46t-46.5 -17z" />
    <glyph glyph-name="Yacute" unicode="&#xdd;" 
d="M255 0v273l-220 457h96l142 -300q12 -25 19 -42.5t9 -25.5q2 8 9.5 25.5t19.5 42.5l142 300h93l-220 -457v-273h-90zM242 810l106 140h97l-111 -140h-92z" />
    <glyph glyph-name="Thorn" unicode="&#xde;" 
d="M90 0v730h90v-150h153q66 0 114.5 -25t75.5 -70t27 -105q0 -91 -59 -145.5t-158 -54.5h-153v-180h-90zM180 260h153q58 0 91 32.5t33 87.5q0 56 -33.5 88t-90.5 32h-153v-240z" />
    <glyph glyph-name="germandbls" unicode="&#xdf;" 
d="M92 0v534q0 61 26.5 107.5t74 72.5t110.5 26t110 -23.5t73.5 -64.5t26.5 -96q0 -59 -32.5 -104t-84.5 -58v-3q62 -11 101 -63t39 -124q0 -60 -28 -106t-77.5 -72t-115.5 -26h-58v82h48q62 0 100.5 36t38.5 94t-36 94t-94 36h-57v80h46q53 0 86.5 33t33.5 86t-33.5 86
t-86.5 33q-54 0 -87.5 -35t-33.5 -91v-534h-90z" />
    <glyph glyph-name="agrave" unicode="&#xe0;" 
d="M252 -10q-85 0 -135 47.5t-50 124.5q0 51 23 89t64 59.5t94 21.5h170v43q0 107 -117 107q-52 0 -84 -19t-34 -53h-90q5 65 60.5 107.5t147.5 42.5q100 0 153.5 -48t53.5 -134v-378h-89v100h-2q-8 -51 -51 -80.5t-114 -29.5zM274 66q66 0 105 32t39 87v77h-160
q-44 0 -71.5 -26.5t-27.5 -70.5q0 -46 30.5 -72.5t84.5 -26.5zM272 645l-115 140h100l110 -140h-95z" />
    <glyph glyph-name="aacute" unicode="&#xe1;" 
d="M252 -10q-85 0 -135 47.5t-50 124.5q0 51 23 89t64 59.5t94 21.5h170v43q0 107 -117 107q-52 0 -84 -19t-34 -53h-90q5 65 60.5 107.5t147.5 42.5q100 0 153.5 -48t53.5 -134v-378h-89v100h-2q-8 -51 -51 -80.5t-114 -29.5zM274 66q66 0 105 32t39 87v77h-160
q-44 0 -71.5 -26.5t-27.5 -70.5q0 -46 30.5 -72.5t84.5 -26.5zM247 645l106 140h97l-111 -140h-92z" />
    <glyph glyph-name="acircumflex" unicode="&#xe2;" 
d="M252 -10q-85 0 -135 47.5t-50 124.5q0 51 23 89t64 59.5t94 21.5h170v43q0 107 -117 107q-52 0 -84 -19t-34 -53h-90q5 65 60.5 107.5t147.5 42.5q100 0 153.5 -48t53.5 -134v-378h-89v100h-2q-8 -51 -51 -80.5t-114 -29.5zM274 66q66 0 105 32t39 87v77h-160
q-44 0 -71.5 -26.5t-27.5 -70.5q0 -46 30.5 -72.5t84.5 -26.5zM124 645l139 140h83l140 -140h-99l-82 78l-80 -78h-101z" />
    <glyph glyph-name="atilde" unicode="&#xe3;" 
d="M252 -10q-85 0 -135 47.5t-50 124.5q0 51 23 89t64 59.5t94 21.5h170v43q0 107 -117 107q-52 0 -84 -19t-34 -53h-90q5 65 60.5 107.5t147.5 42.5q100 0 153.5 -48t53.5 -134v-378h-89v100h-2q-8 -51 -51 -80.5t-114 -29.5zM274 66q66 0 105 32t39 87v77h-160
q-44 0 -71.5 -26.5t-27.5 -70.5q0 -46 30.5 -72.5t84.5 -26.5zM375 650q-30 0 -49 10.5t-32 24.5t-25 24.5t-29 10.5q-30 0 -30 -35v-30h-65v30q0 45 25 70t65 25q30 0 49 -10.5t32 -24.5t25 -24.5t29 -10.5q30 0 30 35v30h65v-30q0 -45 -24.5 -70t-65.5 -25z" />
    <glyph glyph-name="adieresis" unicode="&#xe4;" 
d="M252 -10q-85 0 -135 47.5t-50 124.5q0 51 23 89t64 59.5t94 21.5h170v43q0 107 -117 107q-52 0 -84 -19t-34 -53h-90q5 65 60.5 107.5t147.5 42.5q100 0 153.5 -48t53.5 -134v-378h-89v100h-2q-8 -51 -51 -80.5t-114 -29.5zM274 66q66 0 105 32t39 87v77h-160
q-44 0 -71.5 -26.5t-27.5 -70.5q0 -46 30.5 -72.5t84.5 -26.5zM416 649q-29 0 -46.5 17t-17.5 46q0 30 17.5 47.5t46.5 17.5t46.5 -17.5t17.5 -47.5q0 -29 -17.5 -46t-46.5 -17zM194 649q-29 0 -46.5 17t-17.5 46q0 30 17.5 47.5t46.5 17.5t46.5 -17.5t17.5 -47.5
q0 -29 -17.5 -46t-46.5 -17z" />
    <glyph glyph-name="aring" unicode="&#xe5;" 
d="M252 -10q-85 0 -135 47.5t-50 124.5q0 51 23 89t64 59.5t94 21.5h170v43q0 107 -117 107q-52 0 -84 -19t-34 -53h-90q5 65 60.5 107.5t147.5 42.5q100 0 153.5 -48t53.5 -134v-378h-89v100h-2q-8 -51 -51 -80.5t-114 -29.5zM274 66q66 0 105 32t39 87v77h-160
q-44 0 -71.5 -26.5t-27.5 -70.5q0 -46 30.5 -72.5t84.5 -26.5zM305 608q-54 0 -87 31.5t-33 82.5t33 82.5t87 31.5t87 -31.5t33 -82.5t-33 -82.5t-87 -31.5zM305 661q27 0 43.5 16.5t16.5 44.5t-16.5 45t-43.5 17t-43.5 -17t-16.5 -45t16.5 -44.5t43.5 -16.5z" />
    <glyph glyph-name="ae" unicode="&#xe6;" 
d="M178 -10q-65 0 -106 47t-41 122q0 74 42 119.5t109 45.5h81v75q0 41 -18 63.5t-50 22.5q-31 0 -50 -19.5t-19 -51.5h-79q0 65 37.5 105.5t97.5 40.5q49 0 83 -24.5t39 -64.5q5 40 37.5 64.5t78.5 24.5q65 0 105 -44.5t40 -115.5v-144h-222v-106q0 -40 18.5 -62.5
t50.5 -22.5t50.5 20t18.5 52h84q0 -65 -40 -106t-105 -41q-43 0 -75.5 25t-40.5 65q-8 -40 -43 -65t-83 -25zM343 324h138v76q0 39 -18.5 62t-50.5 23q-31 0 -50 -23t-19 -62v-76zM191 65q33 0 52.5 23t19.5 62v106h-79q-31 0 -50 -26t-19 -70q0 -43 20.5 -69t55.5 -26z" />
    <glyph glyph-name="ccedilla" unicode="&#xe7;" 
d="M209 -203v55h70q22 0 35.5 11.5t13.5 24.5q0 17 -27.5 30t-77.5 13l24 65q-73 16 -116 69t-43 135v150q0 98 60 154t160 56q95 0 153.5 -51t61.5 -139h-90q-3 53 -36 81.5t-89 28.5q-59 0 -94.5 -33.5t-35.5 -95.5v-151q0 -62 35.5 -96t94.5 -34q56 0 89 29t36 81h90
q-3 -88 -61.5 -139t-153.5 -51h-5l-9 -25q26 -3 54 -13t47 -28t19 -44q0 -34 -33 -58.5t-87 -24.5h-85z" />
    <glyph glyph-name="egrave" unicode="&#xe8;" 
d="M300 -10q-97 0 -156.5 58.5t-59.5 161.5v130q0 103 59.5 161.5t156.5 58.5q65 0 113.5 -26t75.5 -73t27 -111v-98h-344v-52q0 -61 35 -96.5t93 -35.5q50 0 82.5 19.5t39.5 52.5h90q-9 -69 -67 -109.5t-145 -40.5zM172 322h256v28q0 65 -33.5 100.5t-94.5 35.5
t-94.5 -35.5t-33.5 -100.5v-28zM267 645l-115 140h100l110 -140h-95z" />
    <glyph glyph-name="eacute" unicode="&#xe9;" 
d="M300 -10q-97 0 -156.5 58.5t-59.5 161.5v130q0 103 59.5 161.5t156.5 58.5q65 0 113.5 -26t75.5 -73t27 -111v-98h-344v-52q0 -61 35 -96.5t93 -35.5q50 0 82.5 19.5t39.5 52.5h90q-9 -69 -67 -109.5t-145 -40.5zM172 322h256v28q0 65 -33.5 100.5t-94.5 35.5
t-94.5 -35.5t-33.5 -100.5v-28zM242 645l106 140h97l-111 -140h-92z" />
    <glyph glyph-name="ecircumflex" unicode="&#xea;" 
d="M300 -10q-97 0 -156.5 58.5t-59.5 161.5v130q0 103 59.5 161.5t156.5 58.5q65 0 113.5 -26t75.5 -73t27 -111v-98h-344v-52q0 -61 35 -96.5t93 -35.5q50 0 82.5 19.5t39.5 52.5h90q-9 -69 -67 -109.5t-145 -40.5zM172 322h256v28q0 65 -33.5 100.5t-94.5 35.5
t-94.5 -35.5t-33.5 -100.5v-28zM119 645l139 140h83l140 -140h-99l-82 78l-80 -78h-101z" />
    <glyph glyph-name="edieresis" unicode="&#xeb;" 
d="M300 -10q-97 0 -156.5 58.5t-59.5 161.5v130q0 103 59.5 161.5t156.5 58.5q65 0 113.5 -26t75.5 -73t27 -111v-98h-344v-52q0 -61 35 -96.5t93 -35.5q50 0 82.5 19.5t39.5 52.5h90q-9 -69 -67 -109.5t-145 -40.5zM172 322h256v28q0 65 -33.5 100.5t-94.5 35.5
t-94.5 -35.5t-33.5 -100.5v-28zM411 649q-29 0 -46.5 17t-17.5 46q0 30 17.5 47.5t46.5 17.5t46.5 -17.5t17.5 -47.5q0 -29 -17.5 -46t-46.5 -17zM189 649q-29 0 -46.5 17t-17.5 46q0 30 17.5 47.5t46.5 17.5t46.5 -17.5t17.5 -47.5q0 -29 -17.5 -46t-46.5 -17z" />
    <glyph glyph-name="igrave" unicode="&#xec;" 
d="M85 0v82h195v386h-175v82h265v-468h185v-82h-470zM282 645l-115 140h100l110 -140h-95z" />
    <glyph glyph-name="iacute" unicode="&#xed;" 
d="M85 0v82h195v386h-175v82h265v-468h185v-82h-470zM257 645l106 140h97l-111 -140h-92z" />
    <glyph glyph-name="icircumflex" unicode="&#xee;" 
d="M85 0v82h195v386h-175v82h265v-468h185v-82h-470zM134 645l139 140h83l140 -140h-99l-82 78l-80 -78h-101z" />
    <glyph glyph-name="idieresis" unicode="&#xef;" 
d="M85 0v82h195v386h-175v82h265v-468h185v-82h-470zM426 649q-29 0 -46.5 17t-17.5 46q0 30 17.5 47.5t46.5 17.5t46.5 -17.5t17.5 -47.5q0 -29 -17.5 -46t-46.5 -17zM204 649q-29 0 -46.5 17t-17.5 46q0 30 17.5 47.5t46.5 17.5t46.5 -17.5t17.5 -47.5q0 -29 -17.5 -46
t-46.5 -17z" />
    <glyph glyph-name="eth" unicode="&#xf0;" 
d="M299 -10q-68 0 -120 28t-80.5 79t-28.5 118t26.5 116.5t74 77t110.5 27.5q44 0 73.5 -19t40.5 -37h14q-4 10 -20 36.5t-44 63.5l-65 91l-163 -76v80l120 56l-72 99h104l44 -64l148 69v-80l-106 -49l78 -113q44 -64 70.5 -135t26.5 -135q0 -70 -29 -122.5t-80.5 -81.5
t-121.5 -29zM299 70q64 0 102.5 40t38.5 105t-38.5 105t-102.5 40q-62 0 -100.5 -40t-38.5 -105t38.5 -105t100.5 -40z" />
    <glyph glyph-name="ntilde" unicode="&#xf1;" 
d="M92 0v550h90v-105h1q7 55 45 85t101 30q83 0 132 -51t49 -139v-370h-90v354q0 63 -31.5 96.5t-85.5 33.5q-56 0 -88.5 -35t-32.5 -99v-350h-90zM375 650q-30 0 -49 10.5t-32 24.5t-25 24.5t-29 10.5q-30 0 -30 -35v-30h-65v30q0 45 25 70t65 25q30 0 49 -10.5t32 -24.5
t25 -24.5t29 -10.5q30 0 30 35v30h65v-30q0 -45 -24.5 -70t-65.5 -25z" />
    <glyph glyph-name="ograve" unicode="&#xf2;" 
d="M300 -8q-99 0 -157.5 58t-58.5 162v126q0 105 58 162.5t158 57.5t158 -57.5t58 -162.5v-126q0 -104 -58.5 -162t-157.5 -58zM300 72q59 0 92.5 33t33.5 97v146q0 64 -33.5 97t-92.5 33q-58 0 -92 -33t-34 -97v-146q0 -64 34 -97t92 -33zM267 645l-115 140h100l110 -140
h-95z" />
    <glyph glyph-name="oacute" unicode="&#xf3;" 
d="M300 -8q-99 0 -157.5 58t-58.5 162v126q0 105 58 162.5t158 57.5t158 -57.5t58 -162.5v-126q0 -104 -58.5 -162t-157.5 -58zM300 72q59 0 92.5 33t33.5 97v146q0 64 -33.5 97t-92.5 33q-58 0 -92 -33t-34 -97v-146q0 -64 34 -97t92 -33zM242 645l106 140h97l-111 -140
h-92z" />
    <glyph glyph-name="ocircumflex" unicode="&#xf4;" 
d="M300 -8q-99 0 -157.5 58t-58.5 162v126q0 105 58 162.5t158 57.5t158 -57.5t58 -162.5v-126q0 -104 -58.5 -162t-157.5 -58zM300 72q59 0 92.5 33t33.5 97v146q0 64 -33.5 97t-92.5 33q-58 0 -92 -33t-34 -97v-146q0 -64 34 -97t92 -33zM119 645l139 140h83l140 -140h-99
l-82 78l-80 -78h-101z" />
    <glyph glyph-name="otilde" unicode="&#xf5;" 
d="M300 -8q-99 0 -157.5 58t-58.5 162v126q0 105 58 162.5t158 57.5t158 -57.5t58 -162.5v-126q0 -104 -58.5 -162t-157.5 -58zM300 72q59 0 92.5 33t33.5 97v146q0 64 -33.5 97t-92.5 33q-58 0 -92 -33t-34 -97v-146q0 -64 34 -97t92 -33zM370 650q-30 0 -49 10.5t-32 24.5
t-25 24.5t-29 10.5q-30 0 -30 -35v-30h-65v30q0 45 25 70t65 25q30 0 49 -10.5t32 -24.5t25 -24.5t29 -10.5q30 0 30 35v30h65v-30q0 -45 -24.5 -70t-65.5 -25z" />
    <glyph glyph-name="odieresis" unicode="&#xf6;" 
d="M300 -8q-99 0 -157.5 58t-58.5 162v126q0 105 58 162.5t158 57.5t158 -57.5t58 -162.5v-126q0 -104 -58.5 -162t-157.5 -58zM300 72q59 0 92.5 33t33.5 97v146q0 64 -33.5 97t-92.5 33q-58 0 -92 -33t-34 -97v-146q0 -64 34 -97t92 -33zM411 649q-29 0 -46.5 17t-17.5 46
q0 30 17.5 47.5t46.5 17.5t46.5 -17.5t17.5 -47.5q0 -29 -17.5 -46t-46.5 -17zM189 649q-29 0 -46.5 17t-17.5 46q0 30 17.5 47.5t46.5 17.5t46.5 -17.5t17.5 -47.5q0 -29 -17.5 -46t-46.5 -17z" />
    <glyph glyph-name="divide" unicode="&#xf7;" 
d="M300 460q-37 0 -60 20.5t-23 54.5t23 54.5t60 20.5q38 0 60.5 -20.5t22.5 -54.5t-22.5 -54.5t-60.5 -20.5zM100 295v75h400v-75h-400zM300 55q-37 0 -60 20.5t-23 54.5t23 54.5t60 20.5q38 0 60.5 -20.5t22.5 -54.5t-22.5 -54.5t-60.5 -20.5z" />
    <glyph glyph-name="oslash" unicode="&#xf8;" 
d="M35 -30l81 114q-28 49 -28 116v150q0 98 57 154t155 56q76 0 128 -34l46 64h91l-84 -118q31 -50 31 -121v-151q0 -98 -57 -154t-155 -56q-80 0 -134 38l-41 -58h-90zM173 200q0 -17 3 -31l204 288q-32 23 -80 23q-60 0 -93.5 -34t-33.5 -96v-150zM300 70q60 0 93.5 34.5
t33.5 95.5v150q0 21 -4 40l-208 -293q32 -27 85 -27z" />
    <glyph glyph-name="ugrave" unicode="&#xf9;" 
d="M299 -10q-95 0 -152 56.5t-57 153.5v350h90v-350q0 -60 32 -95.5t87 -35.5q56 0 88.5 35.5t32.5 95.5v350h90v-350q0 -97 -58 -153.5t-153 -56.5zM267 645l-115 140h100l110 -140h-95z" />
    <glyph glyph-name="uacute" unicode="&#xfa;" 
d="M299 -10q-95 0 -152 56.5t-57 153.5v350h90v-350q0 -60 32 -95.5t87 -35.5q56 0 88.5 35.5t32.5 95.5v350h90v-350q0 -97 -58 -153.5t-153 -56.5zM242 645l106 140h97l-111 -140h-92z" />
    <glyph glyph-name="ucircumflex" unicode="&#xfb;" 
d="M299 -10q-95 0 -152 56.5t-57 153.5v350h90v-350q0 -60 32 -95.5t87 -35.5q56 0 88.5 35.5t32.5 95.5v350h90v-350q0 -97 -58 -153.5t-153 -56.5zM119 645l139 140h83l140 -140h-99l-82 78l-80 -78h-101z" />
    <glyph glyph-name="udieresis" unicode="&#xfc;" 
d="M299 -10q-95 0 -152 56.5t-57 153.5v350h90v-350q0 -60 32 -95.5t87 -35.5q56 0 88.5 35.5t32.5 95.5v350h90v-350q0 -97 -58 -153.5t-153 -56.5zM411 649q-29 0 -46.5 17t-17.5 46q0 30 17.5 47.5t46.5 17.5t46.5 -17.5t17.5 -47.5q0 -29 -17.5 -46t-46.5 -17zM189 649
q-29 0 -46.5 17t-17.5 46q0 30 17.5 47.5t46.5 17.5t46.5 -17.5t17.5 -47.5q0 -29 -17.5 -46t-46.5 -17z" />
    <glyph glyph-name="yacute" unicode="&#xfd;" 
d="M178 -180l81 214l-205 516h97l130 -340q8 -20 15 -42t10 -38q3 16 10 38t14 42l121 340h95l-274 -730h-94zM242 645l106 140h97l-111 -140h-92z" />
    <glyph glyph-name="thorn" unicode="&#xfe;" 
d="M87 -170v900h90v-160l-2 -125h1q8 53 48.5 84t102.5 31q83 0 132 -55t49 -150v-161q0 -94 -49 -149t-132 -55q-62 0 -102 30.5t-47 84.5h-1v-275h-90zM297 68q57 0 89 30t32 97v160q0 68 -32 97.5t-89 29.5q-55 0 -87.5 -35t-32.5 -97v-150q0 -62 32.5 -97t87.5 -35z" />
    <glyph glyph-name="ydieresis" unicode="&#xff;" 
d="M178 -180l81 214l-205 516h97l130 -340q8 -20 15 -42t10 -38q3 16 10 38t14 42l121 340h95l-274 -730h-94zM411 649q-29 0 -46.5 17t-17.5 46q0 30 17.5 47.5t46.5 17.5t46.5 -17.5t17.5 -47.5q0 -29 -17.5 -46t-46.5 -17zM189 649q-29 0 -46.5 17t-17.5 46
q0 30 17.5 47.5t46.5 17.5t46.5 -17.5t17.5 -47.5q0 -29 -17.5 -46t-46.5 -17z" />
    <glyph glyph-name="Amacron" unicode="&#x100;" 
d="M50 0l190 730h121l189 -730h-91l-48 194h-221l-48 -194h-92zM208 270h184l-56 225q-16 64 -25 107t-11 56q-2 -13 -11 -56t-25 -106zM140 840v75h320v-75h-320z" />
    <glyph glyph-name="amacron" unicode="&#x101;" 
d="M252 -10q-85 0 -135 47.5t-50 124.5q0 51 23 89t64 59.5t94 21.5h170v43q0 107 -117 107q-52 0 -84 -19t-34 -53h-90q5 65 60.5 107.5t147.5 42.5q100 0 153.5 -48t53.5 -134v-378h-89v100h-2q-8 -51 -51 -80.5t-114 -29.5zM274 66q66 0 105 32t39 87v77h-160
q-44 0 -71.5 -26.5t-27.5 -70.5q0 -46 30.5 -72.5t84.5 -26.5zM145 670v75h320v-75h-320z" />
    <glyph glyph-name="Abreve" unicode="&#x102;" 
d="M50 0l190 730h121l189 -730h-91l-48 194h-221l-48 -194h-92zM208 270h184l-56 225q-16 64 -25 107t-11 56q-2 -13 -11 -56t-25 -106zM300 805q-72 0 -116 40t-44 105h71q0 -39 24 -63t64 -24q41 0 65.5 24t24.5 63h71q0 -65 -44 -105t-116 -40z" />
    <glyph glyph-name="abreve" unicode="&#x103;" 
d="M252 -10q-85 0 -135 47.5t-50 124.5q0 51 23 89t64 59.5t94 21.5h170v43q0 107 -117 107q-52 0 -84 -19t-34 -53h-90q5 65 60.5 107.5t147.5 42.5q100 0 153.5 -48t53.5 -134v-378h-89v100h-2q-8 -51 -51 -80.5t-114 -29.5zM274 66q66 0 105 32t39 87v77h-160
q-44 0 -71.5 -26.5t-27.5 -70.5q0 -46 30.5 -72.5t84.5 -26.5zM305 640q-72 0 -116 40t-44 105h71q0 -39 24 -63t64 -24q41 0 65.5 24t24.5 63h71q0 -65 -44 -105t-116 -40z" />
    <glyph glyph-name="Aogonek" unicode="&#x104;" 
d="M50 0l190 730h121l189 -730h-17q-33 -27 -48 -49.5t-15 -43.5q0 -22 15 -36t40 -14h60v-60h-78q-55 0 -88.5 26.5t-33.5 66.5q0 27 16.5 54t57.5 58l-48 192h-221l-48 -194h-92zM208 270h184l-56 225q-16 64 -25 107t-11 56q-2 -13 -11 -56t-25 -106z" />
    <glyph glyph-name="aogonek" unicode="&#x105;" 
d="M252 -10q-85 0 -135 47.5t-50 124.5q0 51 23 89t64 59.5t94 21.5h170v43q0 107 -117 107q-52 0 -84 -19t-34 -53h-90q5 65 60.5 107.5t147.5 42.5q100 0 153.5 -48t53.5 -134v-378h2q-34 -28 -49 -50t-15 -43q0 -22 15 -36t40 -14h60v-60h-78q-55 0 -88.5 26.5
t-33.5 66.5q0 26 16 53t55 57h-13v100h-2q-8 -51 -51 -80.5t-114 -29.5zM274 66q66 0 105 32t39 87v77h-160q-44 0 -71.5 -26.5t-27.5 -70.5q0 -46 30.5 -72.5t84.5 -26.5z" />
    <glyph glyph-name="Cacute" unicode="&#x106;" 
d="M308 -10q-100 0 -158 56t-58 154v330q0 98 58 154t158 56q98 0 156 -56.5t58 -153.5h-90q0 62 -32.5 95.5t-91.5 33.5t-92.5 -33.5t-33.5 -95.5v-330q0 -62 33.5 -95.5t92.5 -33.5t91.5 33.5t32.5 95.5h90q0 -97 -58 -153.5t-156 -56.5zM247 810l106 140h97l-111 -140
h-92z" />
    <glyph glyph-name="cacute" unicode="&#x107;" 
d="M308 -10q-100 0 -160 56t-60 154v150q0 98 60 154t160 56q95 0 153.5 -51t61.5 -139h-90q-3 53 -36 81.5t-89 28.5q-59 0 -94.5 -33.5t-35.5 -95.5v-151q0 -62 35.5 -96t94.5 -34q56 0 89 29t36 81h90q-3 -88 -61.5 -139t-153.5 -51zM250 645l106 140h97l-111 -140h-92z
" />
    <glyph glyph-name="Ccircumflex" unicode="&#x108;" 
d="M308 -10q-100 0 -158 56t-58 154v330q0 98 58 154t158 56q98 0 156 -56.5t58 -153.5h-90q0 62 -32.5 95.5t-91.5 33.5t-92.5 -33.5t-33.5 -95.5v-330q0 -62 33.5 -95.5t92.5 -33.5t91.5 33.5t32.5 95.5h90q0 -97 -58 -153.5t-156 -56.5zM124 810l139 140h83l140 -140h-99
l-82 78l-80 -78h-101z" />
    <glyph glyph-name="ccircumflex" unicode="&#x109;" 
d="M308 -10q-100 0 -160 56t-60 154v150q0 98 60 154t160 56q95 0 153.5 -51t61.5 -139h-90q-3 53 -36 81.5t-89 28.5q-59 0 -94.5 -33.5t-35.5 -95.5v-151q0 -62 35.5 -96t94.5 -34q56 0 89 29t36 81h90q-3 -88 -61.5 -139t-153.5 -51zM127 645l139 140h83l140 -140h-99
l-82 78l-80 -78h-101z" />
    <glyph glyph-name="Cdotaccent" unicode="&#x10a;" 
d="M308 -10q-100 0 -158 56t-58 154v330q0 98 58 154t158 56q98 0 156 -56.5t58 -153.5h-90q0 62 -32.5 95.5t-91.5 33.5t-92.5 -33.5t-33.5 -95.5v-330q0 -62 33.5 -95.5t92.5 -33.5t91.5 33.5t32.5 95.5h90q0 -97 -58 -153.5t-156 -56.5zM305 816q-33 0 -52 17.5t-19 46.5
t19 46.5t52 17.5t52 -17.5t19 -46.5t-19 -46.5t-52 -17.5z" />
    <glyph glyph-name="cdotaccent" unicode="&#x10b;" 
d="M308 -10q-100 0 -160 56t-60 154v150q0 98 60 154t160 56q95 0 153.5 -51t61.5 -139h-90q-3 53 -36 81.5t-89 28.5q-59 0 -94.5 -33.5t-35.5 -95.5v-151q0 -62 35.5 -96t94.5 -34q56 0 89 29t36 81h90q-3 -88 -61.5 -139t-153.5 -51zM308 649q-33 0 -52 17t-19 46
q0 30 19 47.5t52 17.5t52 -17.5t19 -47.5q0 -29 -19 -46t-52 -17z" />
    <glyph glyph-name="Ccaron" unicode="&#x10c;" 
d="M308 -10q-100 0 -158 56t-58 154v330q0 98 58 154t158 56q98 0 156 -56.5t58 -153.5h-90q0 62 -32.5 95.5t-91.5 33.5t-92.5 -33.5t-33.5 -95.5v-330q0 -62 33.5 -95.5t92.5 -33.5t91.5 33.5t32.5 95.5h90q0 -97 -58 -153.5t-156 -56.5zM264 810l-140 140h99l82 -78
l80 78h101l-139 -140h-83z" />
    <glyph glyph-name="ccaron" unicode="&#x10d;" 
d="M308 -10q-100 0 -160 56t-60 154v150q0 98 60 154t160 56q95 0 153.5 -51t61.5 -139h-90q-3 53 -36 81.5t-89 28.5q-59 0 -94.5 -33.5t-35.5 -95.5v-151q0 -62 35.5 -96t94.5 -34q56 0 89 29t36 81h90q-3 -88 -61.5 -139t-153.5 -51zM267 645l-140 140h99l82 -78l80 78
h101l-139 -140h-83z" />
    <glyph glyph-name="Dcaron" unicode="&#x10e;" 
d="M92 0v730h189q71 0 122.5 -27t80 -76t28.5 -116v-291q0 -67 -28.5 -116.5t-80 -76.5t-122.5 -27h-189zM182 80h99q66 0 103.5 37t37.5 103v291q0 65 -37.5 102t-103.5 37h-99v-570zM259 810l-140 140h99l82 -78l80 78h101l-139 -140h-83z" />
    <glyph glyph-name="dcaron" unicode="&#x10f;" 
d="M228 -10q-76 0 -120.5 54t-44.5 145v171q0 92 44.5 146t120.5 54q57 0 92.5 -31t41.5 -84h3l-2 125v160h90v-730h-90v105h-1q-6 -53 -41.5 -84t-92.5 -31zM505 550l15 180h84l-24 -180h-75zM258 68q50 0 77.5 33.5t27.5 93.5v160q0 60 -27.5 93.5t-77.5 33.5
q-49 0 -77 -33.5t-28 -93.5v-160q0 -60 28 -93.5t77 -33.5z" />
    <glyph glyph-name="Dcroat" unicode="&#x110;" 
d="M92 0v335h-82v75h82v320h189q71 0 122.5 -27t80 -76t28.5 -116v-291q0 -67 -28.5 -116.5t-80 -76.5t-122.5 -27h-189zM182 80h99q66 0 103.5 37t37.5 103v291q0 65 -37.5 102t-103.5 37h-99v-240h108v-75h-108v-255z" />
    <glyph glyph-name="dcroat" unicode="&#x111;" 
d="M268 -10q-82 0 -130 55t-48 149v101q0 95 47.5 150t130.5 55q62 0 101 -31t46 -84h3l-2 125v60h-166v75h166v85h90v-85h94v-75h-94v-570h-90v105h-1q-7 -54 -46 -84.5t-101 -30.5zM298 68q56 0 87 35t31 97v90q0 62 -31 97t-87 35q-57 0 -87.5 -34t-30.5 -98v-90
q0 -64 30.5 -98t87.5 -34z" />
    <glyph glyph-name="Emacron" unicode="&#x112;" 
d="M100 0v730h420v-82h-331v-226h296v-80h-296v-260h331v-82h-420zM150 840v75h320v-75h-320z" />
    <glyph glyph-name="emacron" unicode="&#x113;" 
d="M300 -10q-97 0 -156.5 58.5t-59.5 161.5v130q0 103 59.5 161.5t156.5 58.5q65 0 113.5 -26t75.5 -73t27 -111v-98h-344v-52q0 -61 35 -96.5t93 -35.5q50 0 82.5 19.5t39.5 52.5h90q-9 -69 -67 -109.5t-145 -40.5zM172 322h256v28q0 65 -33.5 100.5t-94.5 35.5
t-94.5 -35.5t-33.5 -100.5v-28zM140 670v75h320v-75h-320z" />
    <glyph glyph-name="Ebreve" unicode="&#x114;" 
d="M100 0v730h420v-82h-331v-226h296v-80h-296v-260h331v-82h-420zM310 805q-72 0 -116 40t-44 105h71q0 -39 24 -63t64 -24q41 0 65.5 24t24.5 63h71q0 -65 -44 -105t-116 -40z" />
    <glyph glyph-name="ebreve" unicode="&#x115;" 
d="M300 -10q-97 0 -156.5 58.5t-59.5 161.5v130q0 103 59.5 161.5t156.5 58.5q65 0 113.5 -26t75.5 -73t27 -111v-98h-344v-52q0 -61 35 -96.5t93 -35.5q50 0 82.5 19.5t39.5 52.5h90q-9 -69 -67 -109.5t-145 -40.5zM172 322h256v28q0 65 -33.5 100.5t-94.5 35.5
t-94.5 -35.5t-33.5 -100.5v-28zM300 640q-72 0 -116 40t-44 105h71q0 -39 24 -63t64 -24q41 0 65.5 24t24.5 63h71q0 -65 -44 -105t-116 -40z" />
    <glyph glyph-name="Edotaccent" unicode="&#x116;" 
d="M100 0v730h420v-82h-331v-226h296v-80h-296v-260h331v-82h-420zM310 816q-33 0 -52 17.5t-19 46.5t19 46.5t52 17.5t52 -17.5t19 -46.5t-19 -46.5t-52 -17.5z" />
    <glyph glyph-name="edotaccent" unicode="&#x117;" 
d="M300 -10q-97 0 -156.5 58.5t-59.5 161.5v130q0 103 59.5 161.5t156.5 58.5q65 0 113.5 -26t75.5 -73t27 -111v-98h-344v-52q0 -61 35 -96.5t93 -35.5q50 0 82.5 19.5t39.5 52.5h90q-9 -69 -67 -109.5t-145 -40.5zM172 322h256v28q0 65 -33.5 100.5t-94.5 35.5
t-94.5 -35.5t-33.5 -100.5v-28zM300 649q-33 0 -52 17t-19 46q0 30 19 47.5t52 17.5t52 -17.5t19 -47.5q0 -29 -19 -46t-52 -17z" />
    <glyph glyph-name="Eogonek" unicode="&#x118;" 
d="M100 0v730h420v-82h-331v-226h296v-80h-296v-260h331v-82h-47q-33 -27 -48 -49.5t-15 -43.5q0 -22 15 -36t40 -14h60v-60h-78q-55 0 -88.5 26.5t-33.5 66.5q0 26 16 53t55 57h-296z" />
    <glyph glyph-name="eogonek" unicode="&#x119;" 
d="M373 -203q-55 0 -88.5 26.5t-33.5 66.5q0 47 59 100h-10q-97 0 -154.5 57.5t-57.5 152.5v150q0 95 57.5 152.5t154.5 57.5q98 0 155 -57.5t57 -152.5v-97h-336v-53q0 -65 31.5 -99.5t92.5 -34.5q105 0 120 74h90q-5 -43 -30 -75t-64 -51l-16 -13q-34 -28 -49 -50.5
t-15 -43.5q0 -22 15 -36t40 -14h60v-60h-78zM176 321h248v29q0 65 -31 100t-93 35q-61 0 -92.5 -35t-31.5 -100v-29z" />
    <glyph glyph-name="Ecaron" unicode="&#x11a;" 
d="M100 0v730h420v-82h-331v-226h296v-80h-296v-260h331v-82h-420zM269 810l-140 140h99l82 -78l80 78h101l-139 -140h-83z" />
    <glyph glyph-name="ecaron" unicode="&#x11b;" 
d="M300 -10q-97 0 -156.5 58.5t-59.5 161.5v130q0 103 59.5 161.5t156.5 58.5q65 0 113.5 -26t75.5 -73t27 -111v-98h-344v-52q0 -61 35 -96.5t93 -35.5q50 0 82.5 19.5t39.5 52.5h90q-9 -69 -67 -109.5t-145 -40.5zM172 322h256v28q0 65 -33.5 100.5t-94.5 35.5
t-94.5 -35.5t-33.5 -100.5v-28zM259 645l-140 140h99l82 -78l80 78h101l-139 -140h-83z" />
    <glyph glyph-name="Gcircumflex" unicode="&#x11c;" 
d="M304 -10q-100 0 -158 56t-58 154v330q0 98 58 154t158 56q98 0 156 -56.5t58 -153.5h-90q0 62 -32.5 95.5t-91.5 33.5t-92.5 -33t-33.5 -95v-331q0 -62 33.5 -96t92.5 -34t91.5 34t32.5 96v100h-148v82h238v-182q0 -97 -58 -153.5t-156 -56.5zM119 810l139 140h83
l140 -140h-99l-82 78l-80 -78h-101z" />
    <glyph glyph-name="gcircumflex" unicode="&#x11d;" 
d="M161 -180v82h155q47 0 74 26.5t27 71.5v50l2 90h-3q-8 -49 -47 -75.5t-98 -26.5q-85 0 -134 54t-49 148v116q0 94 49 149t134 55q59 0 98 -28t47 -77h2v95h89v-550q0 -83 -51.5 -131.5t-140.5 -48.5h-154zM298 113q56 0 88 35t32 97v105q0 62 -32 97t-88 35
q-57 0 -88.5 -33t-31.5 -89v-125q0 -56 31.5 -89t88.5 -33zM116 645l139 140h83l140 -140h-99l-82 78l-80 -78h-101z" />
    <glyph glyph-name="Gbreve" unicode="&#x11e;" 
d="M304 -10q-100 0 -158 56t-58 154v330q0 98 58 154t158 56q98 0 156 -56.5t58 -153.5h-90q0 62 -32.5 95.5t-91.5 33.5t-92.5 -33t-33.5 -95v-331q0 -62 33.5 -96t92.5 -34t91.5 34t32.5 96v100h-148v82h238v-182q0 -97 -58 -153.5t-156 -56.5zM300 805q-72 0 -116 40
t-44 105h71q0 -39 24 -63t64 -24q41 0 65.5 24t24.5 63h71q0 -65 -44 -105t-116 -40z" />
    <glyph glyph-name="gbreve" unicode="&#x11f;" 
d="M161 -180v82h155q47 0 74 26.5t27 71.5v50l2 90h-3q-8 -49 -47 -75.5t-98 -26.5q-85 0 -134 54t-49 148v116q0 94 49 149t134 55q59 0 98 -28t47 -77h2v95h89v-550q0 -83 -51.5 -131.5t-140.5 -48.5h-154zM298 113q56 0 88 35t32 97v105q0 62 -32 97t-88 35
q-57 0 -88.5 -33t-31.5 -89v-125q0 -56 31.5 -89t88.5 -33zM297 640q-72 0 -116 40t-44 105h71q0 -39 24 -63t64 -24q41 0 65.5 24t24.5 63h71q0 -65 -44 -105t-116 -40z" />
    <glyph glyph-name="Gdotaccent" unicode="&#x120;" 
d="M304 -10q-100 0 -158 56t-58 154v330q0 98 58 154t158 56q98 0 156 -56.5t58 -153.5h-90q0 62 -32.5 95.5t-91.5 33.5t-92.5 -33t-33.5 -95v-331q0 -62 33.5 -96t92.5 -34t91.5 34t32.5 96v100h-148v82h238v-182q0 -97 -58 -153.5t-156 -56.5zM300 816q-33 0 -52 17.5
t-19 46.5t19 46.5t52 17.5t52 -17.5t19 -46.5t-19 -46.5t-52 -17.5z" />
    <glyph glyph-name="gdotaccent" unicode="&#x121;" 
d="M161 -180v82h155q47 0 74 26.5t27 71.5v50l2 90h-3q-8 -49 -47 -75.5t-98 -26.5q-85 0 -134 54t-49 148v116q0 94 49 149t134 55q59 0 98 -28t47 -77h2v95h89v-550q0 -83 -51.5 -131.5t-140.5 -48.5h-154zM298 113q56 0 88 35t32 97v105q0 62 -32 97t-88 35
q-57 0 -88.5 -33t-31.5 -89v-125q0 -56 31.5 -89t88.5 -33zM297 649q-33 0 -52 17t-19 46q0 30 19 47.5t52 17.5t52 -17.5t19 -47.5q0 -29 -19 -46t-52 -17z" />
    <glyph glyph-name="uni0122" unicode="&#x122;" 
d="M304 -10q-100 0 -158 56t-58 154v330q0 98 58 154t158 56q98 0 156 -56.5t58 -153.5h-90q0 62 -32.5 95.5t-91.5 33.5t-92.5 -33t-33.5 -95v-331q0 -62 33.5 -96t92.5 -34t91.5 34t32.5 96v100h-148v82h238v-182q0 -97 -58 -153.5t-156 -56.5zM194 -240l95 145h105
l-105 -145h-95z" />
    <glyph glyph-name="uni0123" unicode="&#x123;" 
d="M161 -180v82h155q47 0 74 26.5t27 71.5v50l2 90h-3q-8 -49 -47 -75.5t-98 -26.5q-85 0 -134 54t-49 148v116q0 94 49 149t134 55q59 0 98 -28t47 -77h2v95h89v-550q0 -83 -51.5 -131.5t-140.5 -48.5h-154zM298 113q56 0 88 35t32 97v105q0 62 -32 97t-88 35
q-57 0 -88.5 -33t-31.5 -89v-125q0 -56 31.5 -89t88.5 -33zM412 880l-80 -235h-125l130 235h75z" />
    <glyph glyph-name="Hcircumflex" unicode="&#x124;" 
d="M93 0v730h90v-312h234v312h90v-730h-90v336h-234v-336h-90zM119 810l139 140h83l140 -140h-99l-82 78l-80 -78h-101z" />
    <glyph glyph-name="hcircumflex" unicode="&#x125;" 
d="M92 0v730h90v-285h1q7 55 45 85t101 30q83 0 132 -51t49 -139v-370h-90v355q0 62 -31.5 95.5t-85.5 33.5q-56 0 -88.5 -35t-32.5 -99v-350h-90zM-44 825l139 140h83l140 -140h-99l-82 78l-80 -78h-101z" />
    <glyph glyph-name="Hbar" unicode="&#x126;" 
d="M93 0v525h-83v75h83v130h90v-130h234v130h90v-130h83v-75h-83v-525h-90v336h-234v-336h-90zM183 418h234v107h-234v-107z" />
    <glyph glyph-name="hbar" unicode="&#x127;" 
d="M0 570v75h92v85h90v-85h168v-75h-168v-185h1q7 55 45 85t101 30q83 0 132 -51t49 -139v-310h-90v300q0 59 -31.5 91.5t-85.5 32.5q-56 0 -88.5 -35t-32.5 -99v-290h-90v570h-92z" />
    <glyph glyph-name="Itilde" unicode="&#x128;" 
d="M105 0v82h149v566h-149v82h390v-82h-149v-566h149v-82h-390zM370 815q-30 0 -49 10.5t-32 24.5t-25 24.5t-29 10.5q-30 0 -30 -35v-30h-65v30q0 45 25 70t65 25q30 0 49 -10.5t32 -24.5t25 -24.5t29 -10.5q30 0 30 35v30h65v-30q0 -45 -24.5 -70t-65.5 -25z" />
    <glyph glyph-name="itilde" unicode="&#x129;" 
d="M85 0v82h195v386h-175v82h265v-468h185v-82h-470zM385 650q-30 0 -49 10.5t-32 24.5t-25 24.5t-29 10.5q-30 0 -30 -35v-30h-65v30q0 45 25 70t65 25q30 0 49 -10.5t32 -24.5t25 -24.5t29 -10.5q30 0 30 35v30h65v-30q0 -45 -24.5 -70t-65.5 -25z" />
    <glyph glyph-name="Imacron" unicode="&#x12a;" 
d="M105 0v82h149v566h-149v82h390v-82h-149v-566h149v-82h-390zM140 840v75h320v-75h-320z" />
    <glyph glyph-name="imacron" unicode="&#x12b;" 
d="M85 0v82h195v386h-175v82h265v-468h185v-82h-470zM155 670v75h320v-75h-320z" />
    <glyph glyph-name="Ibreve" unicode="&#x12c;" 
d="M105 0v82h149v566h-149v82h390v-82h-149v-566h149v-82h-390zM300 805q-72 0 -116 40t-44 105h71q0 -39 24 -63t64 -24q41 0 65.5 24t24.5 63h71q0 -65 -44 -105t-116 -40z" />
    <glyph glyph-name="ibreve" unicode="&#x12d;" 
d="M85 0v82h195v386h-175v82h265v-468h185v-82h-470zM315 640q-72 0 -116 40t-44 105h71q0 -39 24 -63t64 -24q41 0 65.5 24t24.5 63h71q0 -65 -44 -105t-116 -40z" />
    <glyph glyph-name="Iogonek" unicode="&#x12e;" 
d="M105 0v82h149v566h-149v82h390v-82h-149v-566h149v-82h-162q-33 -27 -48 -49.5t-15 -43.5q0 -22 15 -36t40 -14h60v-60h-78q-55 0 -88.5 26.5t-33.5 66.5q0 26 16 53t55 57h-151z" />
    <glyph glyph-name="iogonek" unicode="&#x12f;" 
d="M315 649q-33 0 -52 17t-19 46q0 30 19 47.5t52 17.5t52 -17.5t19 -47.5q0 -29 -19 -46t-52 -17zM85 0v82h195v386h-175v82h265v-468h185v-82h-207q-33 -27 -48 -49.5t-15 -43.5q0 -22 15 -36t40 -14h60v-60h-78q-55 0 -88.5 26.5t-33.5 66.5q0 26 16 53t55 57h-186z" />
    <glyph glyph-name="Idotaccent" unicode="&#x130;" 
d="M105 0v82h149v566h-149v82h390v-82h-149v-566h149v-82h-390zM300 816q-33 0 -52 17.5t-19 46.5t19 46.5t52 17.5t52 -17.5t19 -46.5t-19 -46.5t-52 -17.5z" />
    <glyph glyph-name="dotlessi" unicode="&#x131;" 
d="M85 0v82h195v386h-175v82h265v-468h185v-82h-470z" />
    <glyph glyph-name="Jcircumflex" unicode="&#x134;" 
d="M270 -10q-105 0 -165 59t-60 161h90q0 -67 35.5 -103.5t99.5 -36.5t99.5 36.5t35.5 103.5v520h90v-520q0 -102 -60.5 -161t-164.5 -59zM269 810l139 140h83l140 -140h-99l-82 78l-80 -78h-101z" />
    <glyph glyph-name="jcircumflex" unicode="&#x135;" 
d="M90 -180v82h124q62 0 96.5 34t34.5 95v437h-260v82h350v-519q0 -97 -60 -154t-161 -57h-124zM199 645l139 140h83l140 -140h-99l-82 78l-80 -78h-101z" />
    <glyph glyph-name="uni0136" unicode="&#x136;" 
d="M92 0v730h90v-314h108l162 314h98l-181 -352l191 -378h-103l-170 337h-105v-337h-90zM190 -240l95 145h105l-105 -145h-95z" />
    <glyph glyph-name="uni0137" unicode="&#x137;" 
d="M97 0v730h90v-407h105l154 227h103l-177 -262l187 -288h-105l-160 245h-107v-245h-90zM190 -240l95 145h105l-105 -145h-95z" />
    <glyph glyph-name="kgreenlandic" unicode="&#x138;" 
d="M103 0v550h90v-227h107l152 227h103l-178 -264l188 -286h-105l-159 241h-108v-241h-90z" />
    <glyph glyph-name="Lacute" unicode="&#x139;" 
d="M130 0v730h90v-648h330v-82h-420zM117 810l106 140h97l-111 -140h-92z" />
    <glyph glyph-name="lacute" unicode="&#x13a;" 
d="M380 0q-73 0 -116.5 42.5t-43.5 112.5v493h-190v82h280v-575q0 -34 19 -53.5t51 -19.5h170v-82h-170zM182 810l106 140h97l-111 -140h-92z" />
    <glyph glyph-name="uni013B" unicode="&#x13b;" 
d="M130 0v730h90v-648h330v-82h-420zM230 -240l95 145h105l-105 -145h-95z" />
    <glyph glyph-name="uni013C" unicode="&#x13c;" 
d="M380 0q-73 0 -116.5 42.5t-43.5 112.5v493h-190v82h280v-575q0 -34 19 -53.5t51 -19.5h170v-82h-170zM210 -240l95 145h105l-105 -145h-95z" />
    <glyph glyph-name="Lcaron" unicode="&#x13d;" 
d="M130 0v730h90v-648h330v-82h-420zM345 550l15 180h84l-24 -180h-75z" />
    <glyph glyph-name="lcaron" unicode="&#x13e;" 
d="M380 0q-73 0 -116.5 42.5t-43.5 112.5v493h-190v82h280v-575q0 -34 19 -53.5t51 -19.5h170v-82h-170zM410 550l15 180h84l-24 -180h-75z" />
    <glyph glyph-name="Ldot" unicode="&#x13f;" 
d="M130 0v730h90v-648h330v-82h-420zM465 265q-37 0 -59.5 22t-22.5 57q0 37 22.5 60t59.5 23t59.5 -23t22.5 -60q0 -35 -22.5 -57t-59.5 -22z" />
    <glyph glyph-name="ldot" unicode="&#x140;" 
d="M360 0q-73 0 -116.5 42.5t-43.5 112.5v493h-190v82h280v-575q0 -34 19 -53.5t51 -19.5h170v-82h-170zM547 265q-37 0 -59.5 22t-22.5 57q0 37 22.5 60t59.5 23t59.5 -23t22.5 -60q0 -35 -22.5 -57t-59.5 -22z" />
    <glyph glyph-name="Lslash" unicode="&#x141;" 
d="M130 0v304l-110 -74v80l110 74v346h90v-285l170 115v-80l-170 -115v-283h330v-82h-420z" />
    <glyph glyph-name="lslash" unicode="&#x142;" 
d="M100 230v80l120 81v257h-190v82h280v-278l160 108v-80l-160 -108v-217q0 -34 19 -53.5t51 -19.5h170v-82h-170q-73 0 -116.5 42.5t-43.5 112.5v156z" />
    <glyph glyph-name="Nacute" unicode="&#x143;" 
d="M90 0v730h120l223 -625q-2 25 -4.5 61.5t-4 77t-1.5 76.5v410h87v-730h-120l-222 625q2 -24 4 -60.5t3.5 -77t1.5 -77.5v-410h-87zM242 810l106 140h97l-111 -140h-92z" />
    <glyph glyph-name="nacute" unicode="&#x144;" 
d="M92 0v550h90v-105h1q7 55 45 85t101 30q83 0 132 -51t49 -139v-370h-90v354q0 63 -31.5 96.5t-85.5 33.5q-56 0 -88.5 -35t-32.5 -99v-350h-90zM247 645l106 140h97l-111 -140h-92z" />
    <glyph glyph-name="uni0145" unicode="&#x145;" 
d="M90 0v730h120l223 -625q-2 25 -4.5 61.5t-4 77t-1.5 76.5v410h87v-730h-120l-222 625q2 -24 4 -60.5t3.5 -77t1.5 -77.5v-410h-87zM190 -240l95 145h105l-105 -145h-95z" />
    <glyph glyph-name="uni0146" unicode="&#x146;" 
d="M92 0v550h90v-105h1q7 55 45 85t101 30q83 0 132 -51t49 -139v-370h-90v354q0 63 -31.5 96.5t-85.5 33.5q-56 0 -88.5 -35t-32.5 -99v-350h-90zM190 -240l95 145h105l-105 -145h-95z" />
    <glyph glyph-name="Ncaron" unicode="&#x147;" 
d="M90 0v730h120l223 -625q-2 25 -4.5 61.5t-4 77t-1.5 76.5v410h87v-730h-120l-222 625q2 -24 4 -60.5t3.5 -77t1.5 -77.5v-410h-87zM259 810l-140 140h99l82 -78l80 78h101l-139 -140h-83z" />
    <glyph glyph-name="ncaron" unicode="&#x148;" 
d="M92 0v550h90v-105h1q7 55 45 85t101 30q83 0 132 -51t49 -139v-370h-90v354q0 63 -31.5 96.5t-85.5 33.5q-56 0 -88.5 -35t-32.5 -99v-350h-90zM264 645l-140 140h99l82 -78l80 78h101l-139 -140h-83z" />
    <glyph glyph-name="napostrophe" unicode="&#x149;" 
d="M92 0v550h90v-105h1q7 55 45 85t101 30q83 0 132 -51t49 -139v-370h-90v354q0 63 -31.5 96.5t-85.5 33.5q-56 0 -88.5 -35t-32.5 -99v-350h-90zM-10 645l95 145h105l-105 -145h-95z" />
    <glyph glyph-name="Eng" unicode="&#x14a;" 
d="M240 -180v82h65q53 0 84 30.5t31 82.5l-252 610q2 -24 4 -60.5t3.5 -77t1.5 -77.5v-410h-87v730h120l223 -549q-2 25 -4.5 61.5t-4 77.5t-1.5 77v333h87v-715q0 -88 -56 -141.5t-149 -53.5h-65z" />
    <glyph glyph-name="eng" unicode="&#x14b;" 
d="M240 -180v82h63q53 0 84 30.5t31 82.5v345q0 59 -30.5 91.5t-84.5 32.5q-56 0 -87.5 -35t-31.5 -99v-350h-90v550h90v-105h1q6 55 43.5 85t100.5 30q83 0 131 -51t48 -139v-355q0 -88 -56 -141.5t-149 -53.5h-63z" />
    <glyph glyph-name="Omacron" unicode="&#x14c;" 
d="M300 -10q-98 0 -155 57t-57 163v310q0 106 57 163t155 57t155 -57t57 -162v-311q0 -106 -57 -163t-155 -57zM300 71q59 0 90.5 33.5t31.5 95.5v330q0 62 -31.5 95.5t-90.5 33.5q-58 0 -90 -33.5t-32 -95.5v-330q0 -62 32 -95.5t90 -33.5zM140 840v75h320v-75h-320z" />
    <glyph glyph-name="omacron" unicode="&#x14d;" 
d="M300 -8q-99 0 -157.5 58t-58.5 162v126q0 105 58 162.5t158 57.5t158 -57.5t58 -162.5v-126q0 -104 -58.5 -162t-157.5 -58zM300 72q59 0 92.5 33t33.5 97v146q0 64 -33.5 97t-92.5 33q-58 0 -92 -33t-34 -97v-146q0 -64 34 -97t92 -33zM140 670v75h320v-75h-320z" />
    <glyph glyph-name="Obreve" unicode="&#x14e;" 
d="M300 -10q-98 0 -155 57t-57 163v310q0 106 57 163t155 57t155 -57t57 -162v-311q0 -106 -57 -163t-155 -57zM300 71q59 0 90.5 33.5t31.5 95.5v330q0 62 -31.5 95.5t-90.5 33.5q-58 0 -90 -33.5t-32 -95.5v-330q0 -62 32 -95.5t90 -33.5zM300 805q-72 0 -116 40t-44 105
h71q0 -39 24 -63t64 -24q41 0 65.5 24t24.5 63h71q0 -65 -44 -105t-116 -40z" />
    <glyph glyph-name="obreve" unicode="&#x14f;" 
d="M300 -8q-99 0 -157.5 58t-58.5 162v126q0 105 58 162.5t158 57.5t158 -57.5t58 -162.5v-126q0 -104 -58.5 -162t-157.5 -58zM300 72q59 0 92.5 33t33.5 97v146q0 64 -33.5 97t-92.5 33q-58 0 -92 -33t-34 -97v-146q0 -64 34 -97t92 -33zM300 640q-72 0 -116 40t-44 105
h71q0 -39 24 -63t64 -24q41 0 65.5 24t24.5 63h71q0 -65 -44 -105t-116 -40z" />
    <glyph glyph-name="Ohungarumlaut" unicode="&#x150;" 
d="M300 -10q-98 0 -155 57t-57 163v310q0 106 57 163t155 57t155 -57t57 -162v-311q0 -106 -57 -163t-155 -57zM300 71q59 0 90.5 33.5t31.5 95.5v330q0 62 -31.5 95.5t-90.5 33.5q-58 0 -90 -33.5t-32 -95.5v-330q0 -62 32 -95.5t90 -33.5zM326 810l110 140h92l-115 -140
h-87zM147 810l110 140h92l-115 -140h-87z" />
    <glyph glyph-name="ohungarumlaut" unicode="&#x151;" 
d="M300 -8q-99 0 -157.5 58t-58.5 162v126q0 105 58 162.5t158 57.5t158 -57.5t58 -162.5v-126q0 -104 -58.5 -162t-157.5 -58zM300 72q59 0 92.5 33t33.5 97v146q0 64 -33.5 97t-92.5 33q-58 0 -92 -33t-34 -97v-146q0 -64 34 -97t92 -33zM326 645l110 140h92l-115 -140
h-87zM147 645l110 140h92l-115 -140h-87z" />
    <glyph glyph-name="OE" unicode="&#x152;" 
d="M195 -10q-72 0 -113.5 51t-41.5 139v370q0 88 41.5 139t113.5 51q35 0 58 -14.5t36 -35t16 -40.5h5v80h265v-82h-177v-230h152v-82h-152v-254h177v-82h-265v80h-5q-3 -19 -16 -40t-36 -35.5t-58 -14.5zM220 70q42 0 66 29.5t24 80.5v370q0 51 -24 80.5t-66 29.5
t-66 -29.5t-24 -80.5v-370q0 -51 24 -80.5t66 -29.5z" />
    <glyph glyph-name="oe" unicode="&#x153;" 
d="M180 -10q-67 0 -106 43.5t-39 116.5v250q0 74 39 117t106 43q40 0 65.5 -13t38.5 -31.5t14 -35.5h4q2 17 14.5 35.5t38 31.5t65.5 13q67 0 106 -43t39 -117v-150h-222v-100q0 -38 18 -60.5t49 -22.5q26 0 44.5 16t22.5 42h85q-10 -62 -48 -98.5t-94 -36.5q-40 0 -65.5 13
t-38 31.5t-14.5 35.5h-4q-1 -17 -14 -35.5t-38.5 -31.5t-65.5 -13zM190 67q31 0 49 22.5t18 60.5v250q0 38 -18 60.5t-49 22.5q-32 0 -51 -22.5t-19 -60.5v-250q0 -38 19 -60.5t51 -22.5zM343 323h137v77q0 38 -19 60.5t-51 22.5q-31 0 -49 -22.5t-18 -60.5v-77z" />
    <glyph glyph-name="Racute" unicode="&#x154;" 
d="M93 0v730h225q65 0 114 -26.5t76 -73.5t27 -110q0 -74 -38 -127t-101 -74l149 -319h-99l-143 310h-121v-310h-89zM182 391h136q56 0 90 35.5t34 93.5q0 59 -34 94t-90 35h-136v-258zM242 810l106 140h97l-111 -140h-92z" />
    <glyph glyph-name="racute" unicode="&#x155;" 
d="M112 0v550h90v-105h2q7 53 45 84t102 31q86 0 132.5 -51.5t46.5 -146.5v-47h-90v47q0 120 -117 120q-59 0 -90 -34t-31 -98v-350h-90zM262 645l106 140h97l-111 -140h-92z" />
    <glyph glyph-name="uni0156" unicode="&#x156;" 
d="M93 0v730h225q65 0 114 -26.5t76 -73.5t27 -110q0 -74 -38 -127t-101 -74l149 -319h-99l-143 310h-121v-310h-89zM182 391h136q56 0 90 35.5t34 93.5q0 59 -34 94t-90 35h-136v-258zM190 -240l95 145h105l-105 -145h-95z" />
    <glyph glyph-name="uni0157" unicode="&#x157;" 
d="M112 0v550h90v-105h2q7 53 45 84t102 31q86 0 132.5 -51.5t46.5 -146.5v-47h-90v47q0 120 -117 120q-59 0 -90 -34t-31 -98v-350h-90zM35 -240l95 145h105l-105 -145h-95z" />
    <glyph glyph-name="Rcaron" unicode="&#x158;" 
d="M93 0v730h225q65 0 114 -26.5t76 -73.5t27 -110q0 -74 -38 -127t-101 -74l149 -319h-99l-143 310h-121v-310h-89zM182 391h136q56 0 90 35.5t34 93.5q0 59 -34 94t-90 35h-136v-258zM259 810l-140 140h99l82 -78l80 78h101l-139 -140h-83z" />
    <glyph glyph-name="rcaron" unicode="&#x159;" 
d="M112 0v550h90v-105h2q7 53 45 84t102 31q86 0 132.5 -51.5t46.5 -146.5v-47h-90v47q0 120 -117 120q-59 0 -90 -34t-31 -98v-350h-90zM279 645l-140 140h99l82 -78l80 78h101l-139 -140h-83z" />
    <glyph glyph-name="Sacute" unicode="&#x15a;" 
d="M304 -10q-106 0 -169 56t-63 154h90q0 -61 39 -95.5t103 -34.5q62 0 99 36t37 94q0 44 -23.5 76.5t-67.5 44.5l-111 31q-69 20 -108.5 71.5t-39.5 121.5q0 58 26 102t73 68.5t108 24.5q62 0 109.5 -24.5t74.5 -68t27 -100.5h-90q0 50 -34 81.5t-87 31.5t-86 -31.5
t-33 -81.5q0 -40 21.5 -68.5t60.5 -39.5l114 -32q73 -20 113.5 -75.5t40.5 -131.5q0 -96 -61 -153t-163 -57zM242 810l106 140h97l-111 -140h-92z" />
    <glyph glyph-name="sacute" unicode="&#x15b;" 
d="M278 -8q-92 0 -142.5 41.5t-50.5 117.5h90q0 -38 27 -59.5t76 -21.5h44q50 0 77.5 22t27.5 62q0 71 -65 80l-152 22q-56 8 -87 46.5t-31 101.5q0 72 49.5 113t136.5 41h44q80 0 130.5 -39.5t54.5 -103.5h-91q-2 29 -27.5 48t-66.5 19h-44q-46 0 -72 -21t-26 -57
q0 -58 53 -66l142 -20q140 -20 140 -164q0 -77 -50.5 -119.5t-142.5 -42.5h-44zM242 645l106 140h97l-111 -140h-92z" />
    <glyph glyph-name="Scircumflex" unicode="&#x15c;" 
d="M304 -10q-106 0 -169 56t-63 154h90q0 -61 39 -95.5t103 -34.5q62 0 99 36t37 94q0 44 -23.5 76.5t-67.5 44.5l-111 31q-69 20 -108.5 71.5t-39.5 121.5q0 58 26 102t73 68.5t108 24.5q62 0 109.5 -24.5t74.5 -68t27 -100.5h-90q0 50 -34 81.5t-87 31.5t-86 -31.5
t-33 -81.5q0 -40 21.5 -68.5t60.5 -39.5l114 -32q73 -20 113.5 -75.5t40.5 -131.5q0 -96 -61 -153t-163 -57zM119 810l139 140h83l140 -140h-99l-82 78l-80 -78h-101z" />
    <glyph glyph-name="scircumflex" unicode="&#x15d;" 
d="M278 -8q-92 0 -142.5 41.5t-50.5 117.5h90q0 -38 27 -59.5t76 -21.5h44q50 0 77.5 22t27.5 62q0 71 -65 80l-152 22q-56 8 -87 46.5t-31 101.5q0 72 49.5 113t136.5 41h44q80 0 130.5 -39.5t54.5 -103.5h-91q-2 29 -27.5 48t-66.5 19h-44q-46 0 -72 -21t-26 -57
q0 -58 53 -66l142 -20q140 -20 140 -164q0 -77 -50.5 -119.5t-142.5 -42.5h-44zM119 645l139 140h83l140 -140h-99l-82 78l-80 -78h-101z" />
    <glyph glyph-name="Scedilla" unicode="&#x15e;" 
d="M205 -203v55h70q22 0 35.5 11.5t13.5 24.5q0 17 -27.5 30t-77.5 13l24 64q-79 15 -125 68.5t-46 136.5h90q0 -61 39 -95.5t103 -34.5q62 0 99 36t37 94q0 44 -23.5 76.5t-67.5 44.5l-111 31q-69 20 -108.5 71.5t-39.5 121.5q0 58 26 102t73 68.5t108 24.5
q62 0 109.5 -24.5t74.5 -68t27 -100.5h-90q0 50 -34 81.5t-87 31.5t-86 -31.5t-33 -81.5q0 -40 21.5 -68.5t60.5 -39.5l114 -32q73 -20 113.5 -75.5t40.5 -131.5q0 -96 -61 -153t-163 -57h-5l-9 -25q26 -3 54 -13t47 -28t19 -44q0 -34 -33 -58.5t-87 -24.5h-85z" />
    <glyph glyph-name="scedilla" unicode="&#x15f;" 
d="M215 -203v55h70q22 0 35.5 11.5t13.5 24.5q0 17 -27.5 30t-77.5 13l23 62q-80 6 -123.5 46.5t-43.5 111.5h90q0 -38 27 -59.5t76 -21.5h44q50 0 77.5 22t27.5 62q0 71 -65 80l-152 22q-56 8 -87 46.5t-31 101.5q0 72 49.5 113t136.5 41h44q80 0 130.5 -39.5t54.5 -103.5
h-91q-2 29 -27.5 48t-66.5 19h-44q-46 0 -72 -21t-26 -57q0 -58 53 -66l142 -20q140 -20 140 -164q0 -77 -50.5 -119.5t-142.5 -42.5h-13l-9 -27q26 -3 54 -13t47 -28t19 -44q0 -34 -33 -58.5t-87 -24.5h-85z" />
    <glyph glyph-name="Scaron" unicode="&#x160;" 
d="M304 -10q-106 0 -169 56t-63 154h90q0 -61 39 -95.5t103 -34.5q62 0 99 36t37 94q0 44 -23.5 76.5t-67.5 44.5l-111 31q-69 20 -108.5 71.5t-39.5 121.5q0 58 26 102t73 68.5t108 24.5q62 0 109.5 -24.5t74.5 -68t27 -100.5h-90q0 50 -34 81.5t-87 31.5t-86 -31.5
t-33 -81.5q0 -40 21.5 -68.5t60.5 -39.5l114 -32q73 -20 113.5 -75.5t40.5 -131.5q0 -96 -61 -153t-163 -57zM259 810l-140 140h99l82 -78l80 78h101l-139 -140h-83z" />
    <glyph glyph-name="scaron" unicode="&#x161;" 
d="M278 -8q-92 0 -142.5 41.5t-50.5 117.5h90q0 -38 27 -59.5t76 -21.5h44q50 0 77.5 22t27.5 62q0 71 -65 80l-152 22q-56 8 -87 46.5t-31 101.5q0 72 49.5 113t136.5 41h44q80 0 130.5 -39.5t54.5 -103.5h-91q-2 29 -27.5 48t-66.5 19h-44q-46 0 -72 -21t-26 -57
q0 -58 53 -66l142 -20q140 -20 140 -164q0 -77 -50.5 -119.5t-142.5 -42.5h-44zM259 645l-140 140h99l82 -78l80 78h101l-139 -140h-83z" />
    <glyph glyph-name="uni0162" unicode="&#x162;" 
d="M255 0v648h-200v82h490v-82h-200v-648l-12 -35q26 -3 54 -13t47 -28t19 -44q0 -34 -33 -58.5t-87 -24.5h-85v55h70q22 0 35.5 11.5t13.5 24.5q0 17 -27.5 30t-77.5 13l25 69h-32z" />
    <glyph glyph-name="uni0163" unicode="&#x163;" 
d="M265 -203v55h70q22 0 35.5 11.5t13.5 24.5q0 17 -27.5 30t-77.5 13l28 75q-48 13 -75 49.5t-27 89.5v323h-158v82h158v155h90v-155h225v-82h-225v-323q0 -28 16.5 -45.5t43.5 -17.5h160v-82h-153l-12 -35q26 -3 54 -13t47 -28t19 -44q0 -34 -33 -58.5t-87 -24.5h-85z" />
    <glyph glyph-name="Tcaron" unicode="&#x164;" 
d="M255 0v648h-200v82h490v-82h-200v-648h-90zM259 810l-140 140h99l82 -78l80 78h101l-139 -140h-83z" />
    <glyph glyph-name="tcaron" unicode="&#x165;" 
d="M355 0q-68 0 -109 39.5t-41 105.5v323h-158v82h158v155h90v-155h225v-82h-225v-323q0 -28 16.5 -45.5t43.5 -17.5h160v-82h-160zM370 621l15 180h84l-24 -180h-75z" />
    <glyph glyph-name="Tbar" unicode="&#x166;" 
d="M255 0v295h-145v75h145v278h-200v82h490v-82h-200v-278h145v-75h-145v-295h-90z" />
    <glyph glyph-name="tbar" unicode="&#x167;" 
d="M85 239v75h120v154h-158v82h158v155h90v-155h225v-82h-225v-154h180v-75h-180v-94q0 -28 16.5 -45.5t43.5 -17.5h160v-82h-160q-68 0 -109 39.5t-41 105.5v94h-120z" />
    <glyph glyph-name="Utilde" unicode="&#x168;" 
d="M300 -10q-102 0 -156 56.5t-54 153.5v530h90v-530q0 -60 29.5 -95t90.5 -35q60 0 90 35t30 95v530h90v-530q0 -98 -53.5 -154t-156.5 -56zM370 815q-30 0 -49 10.5t-32 24.5t-25 24.5t-29 10.5q-30 0 -30 -35v-30h-65v30q0 45 25 70t65 25q30 0 49 -10.5t32 -24.5
t25 -24.5t29 -10.5q30 0 30 35v30h65v-30q0 -45 -24.5 -70t-65.5 -25z" />
    <glyph glyph-name="utilde" unicode="&#x169;" 
d="M299 -10q-95 0 -152 56.5t-57 153.5v350h90v-350q0 -60 32 -95.5t87 -35.5q56 0 88.5 35.5t32.5 95.5v350h90v-350q0 -97 -58 -153.5t-153 -56.5zM370 650q-30 0 -49 10.5t-32 24.5t-25 24.5t-29 10.5q-30 0 -30 -35v-30h-65v30q0 45 25 70t65 25q30 0 49 -10.5t32 -24.5
t25 -24.5t29 -10.5q30 0 30 35v30h65v-30q0 -45 -24.5 -70t-65.5 -25z" />
    <glyph glyph-name="Umacron" unicode="&#x16a;" 
d="M300 -10q-102 0 -156 56.5t-54 153.5v530h90v-530q0 -60 29.5 -95t90.5 -35q60 0 90 35t30 95v530h90v-530q0 -98 -53.5 -154t-156.5 -56zM140 840v75h320v-75h-320z" />
    <glyph glyph-name="umacron" unicode="&#x16b;" 
d="M299 -10q-95 0 -152 56.5t-57 153.5v350h90v-350q0 -60 32 -95.5t87 -35.5q56 0 88.5 35.5t32.5 95.5v350h90v-350q0 -97 -58 -153.5t-153 -56.5zM140 670v75h320v-75h-320z" />
    <glyph glyph-name="Ubreve" unicode="&#x16c;" 
d="M300 -10q-102 0 -156 56.5t-54 153.5v530h90v-530q0 -60 29.5 -95t90.5 -35q60 0 90 35t30 95v530h90v-530q0 -98 -53.5 -154t-156.5 -56zM300 805q-72 0 -116 40t-44 105h71q0 -39 24 -63t64 -24q41 0 65.5 24t24.5 63h71q0 -65 -44 -105t-116 -40z" />
    <glyph glyph-name="ubreve" unicode="&#x16d;" 
d="M299 -10q-95 0 -152 56.5t-57 153.5v350h90v-350q0 -60 32 -95.5t87 -35.5q56 0 88.5 35.5t32.5 95.5v350h90v-350q0 -97 -58 -153.5t-153 -56.5zM300 640q-72 0 -116 40t-44 105h71q0 -39 24 -63t64 -24q41 0 65.5 24t24.5 63h71q0 -65 -44 -105t-116 -40z" />
    <glyph glyph-name="Uring" unicode="&#x16e;" 
d="M300 -10q-102 0 -156 56.5t-54 153.5v530h90v-530q0 -60 29.5 -95t90.5 -35q60 0 90 35t30 95v530h90v-530q0 -98 -53.5 -154t-156.5 -56zM300 766q-54 0 -87 31.5t-33 82.5t33 82.5t87 31.5t87 -31.5t33 -82.5t-33 -82.5t-87 -31.5zM300 819q27 0 43.5 16.5t16.5 44.5
t-16.5 45t-43.5 17t-43.5 -17t-16.5 -45t16.5 -44.5t43.5 -16.5z" />
    <glyph glyph-name="uring" unicode="&#x16f;" 
d="M299 -10q-95 0 -152 56.5t-57 153.5v350h90v-350q0 -60 32 -95.5t87 -35.5q56 0 88.5 35.5t32.5 95.5v350h90v-350q0 -97 -58 -153.5t-153 -56.5zM300 608q-54 0 -87 31.5t-33 82.5t33 82.5t87 31.5t87 -31.5t33 -82.5t-33 -82.5t-87 -31.5zM300 661q27 0 43.5 16.5
t16.5 44.5t-16.5 45t-43.5 17t-43.5 -17t-16.5 -45t16.5 -44.5t43.5 -16.5z" />
    <glyph glyph-name="Uhungarumlaut" unicode="&#x170;" 
d="M300 -10q-102 0 -156 56.5t-54 153.5v530h90v-530q0 -60 29.5 -95t90.5 -35q60 0 90 35t30 95v530h90v-530q0 -98 -53.5 -154t-156.5 -56zM326 810l110 140h92l-115 -140h-87zM147 810l110 140h92l-115 -140h-87z" />
    <glyph glyph-name="uhungarumlaut" unicode="&#x171;" 
d="M299 -10q-95 0 -152 56.5t-57 153.5v350h90v-350q0 -60 32 -95.5t87 -35.5q56 0 88.5 35.5t32.5 95.5v350h90v-350q0 -97 -58 -153.5t-153 -56.5zM326 645l110 140h92l-115 -140h-87zM147 645l110 140h92l-115 -140h-87z" />
    <glyph glyph-name="Uogonek" unicode="&#x172;" 
d="M379 -203q-55 0 -88.5 26.5t-33.5 66.5q0 46 56 100h-13q-98 0 -154 56t-56 154v530h90v-530q0 -62 31 -95.5t89 -33.5q59 0 89.5 33.5t30.5 95.5v530h90v-530q0 -121 -80 -175l-29 -24q-33 -28 -46 -50.5t-13 -43.5q0 -22 15 -36t40 -14h60v-60h-78z" />
    <glyph glyph-name="uogonek" unicode="&#x173;" 
d="M372 -203q-55 0 -88.5 26.5t-33.5 66.5q0 22 12.5 45.5t46.5 54.5h-9q-98 0 -154 56t-56 154v350h90v-350q0 -130 120 -130t120 130v350h90v-350q0 -127 -87 -179l-24 -20q-34 -28 -49 -50.5t-15 -43.5q0 -22 15 -36t40 -14h60v-60h-78z" />
    <glyph glyph-name="Wcircumflex" unicode="&#x174;" 
d="M107 0l-87 730h83l57 -540q4 -33 6 -68.5t3 -56.5q2 21 5.5 56.5t7.5 68.5l72 540h97l66 -540q4 -33 8 -68.5t6 -56.5q2 21 4.5 56.5t6.5 68.5l59 540h79l-89 -730h-113l-66 550q-4 34 -6 66.5t-4 50.5q-2 -18 -4 -50.5t-7 -66.5l-71 -550h-113zM119 810l139 140h83
l140 -140h-99l-82 78l-80 -78h-101z" />
    <glyph glyph-name="wcircumflex" unicode="&#x175;" 
d="M121 0l-90 550h78l56 -388q3 -22 6 -48.5t4 -43.5q2 17 4.5 43.5t6.5 48.5l69 388h90l69 -388q4 -22 7.5 -48.5t4.5 -43.5q2 17 5 43.5t6 48.5l58 388h74l-94 -550h-99l-63 380q-4 28 -7.5 59.5t-5.5 48.5q-1 -17 -5 -48.5t-9 -59.5l-66 -380h-99zM119 645l139 140h83
l140 -140h-99l-82 78l-80 -78h-101z" />
    <glyph glyph-name="Ycircumflex" unicode="&#x176;" 
d="M255 0v273l-220 457h96l142 -300q12 -25 19 -42.5t9 -25.5q2 8 9.5 25.5t19.5 42.5l142 300h93l-220 -457v-273h-90zM119 810l139 140h83l140 -140h-99l-82 78l-80 -78h-101z" />
    <glyph glyph-name="ycircumflex" unicode="&#x177;" 
d="M178 -180l81 214l-205 516h97l130 -340q8 -20 15 -42t10 -38q3 16 10 38t14 42l121 340h95l-274 -730h-94zM119 645l139 140h83l140 -140h-99l-82 78l-80 -78h-101z" />
    <glyph glyph-name="Ydieresis" unicode="&#x178;" 
d="M255 0v273l-220 457h96l142 -300q12 -25 19 -42.5t9 -25.5q2 8 9.5 25.5t19.5 42.5l142 300h93l-220 -457v-273h-90zM411 817q-29 0 -46.5 17t-17.5 46q0 30 17.5 47.5t46.5 17.5t46.5 -17.5t17.5 -47.5q0 -29 -17.5 -46t-46.5 -17zM189 817q-29 0 -46.5 17t-17.5 46
q0 30 17.5 47.5t46.5 17.5t46.5 -17.5t17.5 -47.5q0 -29 -17.5 -46t-46.5 -17z" />
    <glyph glyph-name="Zacute" unicode="&#x179;" 
d="M85 0v90l329 558h-324v82h415v-90l-329 -558h339v-82h-430zM242 810l106 140h97l-111 -140h-92z" />
    <glyph glyph-name="zacute" unicode="&#x17a;" 
d="M90 0v90l308 378h-300v82h401v-90l-314 -378h325v-82h-420zM242 645l106 140h97l-111 -140h-92z" />
    <glyph glyph-name="Zdotaccent" unicode="&#x17b;" 
d="M85 0v90l329 558h-324v82h415v-90l-329 -558h339v-82h-430zM300 816q-33 0 -52 17.5t-19 46.5t19 46.5t52 17.5t52 -17.5t19 -46.5t-19 -46.5t-52 -17.5z" />
    <glyph glyph-name="zdotaccent" unicode="&#x17c;" 
d="M90 0v90l308 378h-300v82h401v-90l-314 -378h325v-82h-420zM300 649q-33 0 -52 17t-19 46q0 30 19 47.5t52 17.5t52 -17.5t19 -47.5q0 -29 -19 -46t-52 -17z" />
    <glyph glyph-name="Zcaron" unicode="&#x17d;" 
d="M85 0v90l329 558h-324v82h415v-90l-329 -558h339v-82h-430zM259 810l-140 140h99l82 -78l80 78h101l-139 -140h-83z" />
    <glyph glyph-name="zcaron" unicode="&#x17e;" 
d="M90 0v90l308 378h-300v82h401v-90l-314 -378h325v-82h-420zM259 645l-140 140h99l82 -78l80 78h101l-139 -140h-83z" />
    <glyph glyph-name="longs" unicode="&#x17f;" 
d="M165 0v571q0 71 46.5 115t122.5 44h176v-80h-176q-35 0 -57 -22t-22 -58v-570h-90z" />
    <glyph glyph-name="uni018F" unicode="&#x18f;" 
d="M300 -10q-97 0 -153.5 57.5t-56.5 152.5v200h330v131q0 62 -30.5 95.5t-89.5 33.5q-58 0 -89 -34t-31 -96h-90q0 97 56 153.5t154 56.5q100 0 155 -56t55 -154v-330q0 -95 -56 -152.5t-154 -57.5zM300 65q62 0 91 35t29 100v130h-240v-130q0 -65 29.5 -100t90.5 -35z" />
    <glyph glyph-name="uni0190" unicode="&#x190;" 
d="M309 -10q-72 0 -126.5 26.5t-85.5 73.5t-31 109q0 71 39 122.5t101 62.5v3q-52 13 -84.5 58.5t-32.5 105.5q0 56 27.5 98.5t76 66.5t112.5 24q66 0 116.5 -26.5t78.5 -73.5t28 -110h-90q0 58 -37 94t-96 36q-56 0 -91 -32.5t-35 -85.5q0 -54 35.5 -88t92.5 -34h87v-80
h-86q-67 0 -108.5 -37.5t-41.5 -97.5t41.5 -97.5t108.5 -37.5q65 0 107 36t43 94h90q-1 -62 -31.5 -109.5t-84 -74t-123.5 -26.5z" />
    <glyph glyph-name="florin" unicode="&#x192;" 
d="M0 -180v82h105q53 0 84 30.5t31 82.5v298h-160v82h160v196q0 66 40.5 102.5t113.5 36.5h161v-80h-161q-64 0 -64 -60v-195h225v-82h-225v-298q0 -88 -56 -141.5t-149 -53.5h-105z" />
    <glyph glyph-name="uni019B" unicode="&#x19b;" 
d="M50 0l204 541l-4 9l-160 -80v80l134 67l-44 113h96l27 -73l167 83v-80l-141 -71l221 -589h-96l-131 357q-13 35 -19 62t-11 42q0 -15 -4 -42t-16 -62l-126 -357h-97z" />
    <glyph glyph-name="Ohorn" unicode="&#x1a0;" 
d="M300 -10q-98 0 -155 57t-57 163v310q0 106 57 163t155 57q80 0 133 -38q22 7 22 33v75h75v-80q0 -58 -48 -83q30 -51 30 -126v-311q0 -106 -57 -163t-155 -57zM300 71q59 0 90.5 33.5t31.5 95.5v330q0 62 -31.5 95.5t-90.5 33.5q-58 0 -90 -33.5t-32 -95.5v-330
q0 -62 32 -95.5t90 -33.5z" />
    <glyph glyph-name="ohorn" unicode="&#x1a1;" 
d="M300 -8q-99 0 -157.5 58t-58.5 162v126q0 105 58 162.5t158 57.5q69 0 119 -28h11q35 0 35 35v75h75v-80q0 -31 -16 -54t-44 -33q36 -54 36 -135v-126q0 -104 -58.5 -162t-157.5 -58zM300 72q59 0 92.5 33t33.5 97v146q0 64 -33.5 97t-92.5 33q-58 0 -92 -33t-34 -97
v-146q0 -64 34 -97t92 -33z" />
    <glyph glyph-name="Uhorn" unicode="&#x1af;" 
d="M300 -10q-102 0 -156 56.5t-54 153.5v530h90v-530q0 -60 29.5 -95t90.5 -35q60 0 90 35t30 95v530h65q16 0 25.5 9.5t9.5 25.5v75h75v-80q0 -39 -23 -63.5t-62 -30.5v-466q0 -98 -53.5 -154t-156.5 -56z" />
    <glyph glyph-name="uhorn" unicode="&#x1b0;" 
d="M90 200v350h90v-350q0 -62 32 -96.5t87 -34.5q56 0 88.5 34.5t32.5 96.5v350h70q35 0 35 35v75h75v-80q0 -43 -21.5 -69t-68.5 -26v-285q0 -97 -58 -153.5t-153 -56.5t-152 56.5t-57 153.5z" />
    <glyph glyph-name="uni01CD" unicode="&#x1cd;" 
d="M50 0l190 730h121l189 -730h-91l-48 194h-221l-48 -194h-92zM208 270h184l-56 225q-16 64 -25 107t-11 56q-2 -13 -11 -56t-25 -106zM259 810l-140 140h99l82 -78l80 78h101l-139 -140h-83z" />
    <glyph glyph-name="uni01CE" unicode="&#x1ce;" 
d="M252 -10q-85 0 -135 47.5t-50 124.5q0 51 23 89t64 59.5t94 21.5h170v43q0 107 -117 107q-52 0 -84 -19t-34 -53h-90q5 65 60.5 107.5t147.5 42.5q100 0 153.5 -48t53.5 -134v-378h-89v100h-2q-8 -51 -51 -80.5t-114 -29.5zM274 66q66 0 105 32t39 87v77h-160
q-44 0 -71.5 -26.5t-27.5 -70.5q0 -46 30.5 -72.5t84.5 -26.5zM264 645l-140 140h99l82 -78l80 78h101l-139 -140h-83z" />
    <glyph glyph-name="uni01D0" unicode="&#x1d0;" 
d="M85 0v82h195v386h-175v82h265v-468h185v-82h-470zM274 645l-140 140h99l82 -78l80 78h101l-139 -140h-83z" />
    <glyph glyph-name="uni01D2" unicode="&#x1d2;" 
d="M300 -8q-99 0 -157.5 58t-58.5 162v126q0 105 58 162.5t158 57.5t158 -57.5t58 -162.5v-126q0 -104 -58.5 -162t-157.5 -58zM300 72q59 0 92.5 33t33.5 97v146q0 64 -33.5 97t-92.5 33q-58 0 -92 -33t-34 -97v-146q0 -64 34 -97t92 -33zM259 645l-140 140h99l82 -78
l80 78h101l-139 -140h-83z" />
    <glyph glyph-name="uni01D4" unicode="&#x1d4;" 
d="M299 -10q-95 0 -152 56.5t-57 153.5v350h90v-350q0 -60 32 -95.5t87 -35.5q56 0 88.5 35.5t32.5 95.5v350h90v-350q0 -97 -58 -153.5t-153 -56.5zM259 645l-140 140h99l82 -78l80 78h101l-139 -140h-83z" />
    <glyph glyph-name="uni01D6" unicode="&#x1d6;" 
d="M299 -10q-95 0 -152 56.5t-57 153.5v350h90v-350q0 -60 32 -95.5t87 -35.5q56 0 88.5 35.5t32.5 95.5v350h90v-350q0 -97 -58 -153.5t-153 -56.5zM411 649q-29 0 -46.5 17t-17.5 46q0 30 17.5 47.5t46.5 17.5t46.5 -17.5t17.5 -47.5q0 -29 -17.5 -46t-46.5 -17zM189 649
q-29 0 -46.5 17t-17.5 46q0 30 17.5 47.5t46.5 17.5t46.5 -17.5t17.5 -47.5q0 -29 -17.5 -46t-46.5 -17zM140 897v75h320v-75h-320z" />
    <glyph glyph-name="uni01D8" unicode="&#x1d8;" 
d="M299 -10q-95 0 -152 56.5t-57 153.5v350h90v-350q0 -60 32 -95.5t87 -35.5q56 0 88.5 35.5t32.5 95.5v350h90v-350q0 -97 -58 -153.5t-153 -56.5zM411 649q-29 0 -46.5 17t-17.5 46q0 30 17.5 47.5t46.5 17.5t46.5 -17.5t17.5 -47.5q0 -29 -17.5 -46t-46.5 -17zM189 649
q-29 0 -46.5 17t-17.5 46q0 30 17.5 47.5t46.5 17.5t46.5 -17.5t17.5 -47.5q0 -29 -17.5 -46t-46.5 -17zM242 872l106 140h97l-111 -140h-92z" />
    <glyph glyph-name="uni01DA" unicode="&#x1da;" 
d="M299 -10q-95 0 -152 56.5t-57 153.5v350h90v-350q0 -60 32 -95.5t87 -35.5q56 0 88.5 35.5t32.5 95.5v350h90v-350q0 -97 -58 -153.5t-153 -56.5zM411 649q-29 0 -46.5 17t-17.5 46q0 30 17.5 47.5t46.5 17.5t46.5 -17.5t17.5 -47.5q0 -29 -17.5 -46t-46.5 -17zM189 649
q-29 0 -46.5 17t-17.5 46q0 30 17.5 47.5t46.5 17.5t46.5 -17.5t17.5 -47.5q0 -29 -17.5 -46t-46.5 -17zM259 872l-140 140h99l82 -78l80 78h101l-139 -140h-83z" />
    <glyph glyph-name="uni01DC" unicode="&#x1dc;" 
d="M299 -10q-95 0 -152 56.5t-57 153.5v350h90v-350q0 -60 32 -95.5t87 -35.5q56 0 88.5 35.5t32.5 95.5v350h90v-350q0 -97 -58 -153.5t-153 -56.5zM411 649q-29 0 -46.5 17t-17.5 46q0 30 17.5 47.5t46.5 17.5t46.5 -17.5t17.5 -47.5q0 -29 -17.5 -46t-46.5 -17zM189 649
q-29 0 -46.5 17t-17.5 46q0 30 17.5 47.5t46.5 17.5t46.5 -17.5t17.5 -47.5q0 -29 -17.5 -46t-46.5 -17zM267 872l-115 140h100l110 -140h-95z" />
    <glyph glyph-name="Gcaron" unicode="&#x1e6;" 
d="M304 -10q-100 0 -158 56t-58 154v330q0 98 58 154t158 56q98 0 156 -56.5t58 -153.5h-90q0 62 -32.5 95.5t-91.5 33.5t-92.5 -33t-33.5 -95v-331q0 -62 33.5 -96t92.5 -34t91.5 34t32.5 96v100h-148v82h238v-182q0 -97 -58 -153.5t-156 -56.5zM259 810l-140 140h99
l82 -78l80 78h101l-139 -140h-83z" />
    <glyph glyph-name="gcaron" unicode="&#x1e7;" 
d="M161 -180v82h155q47 0 74 26.5t27 71.5v50l2 90h-3q-8 -49 -47 -75.5t-98 -26.5q-85 0 -134 54t-49 148v116q0 94 49 149t134 55q59 0 98 -28t47 -77h2v95h89v-550q0 -83 -51.5 -131.5t-140.5 -48.5h-154zM298 113q56 0 88 35t32 97v105q0 62 -32 97t-88 35
q-57 0 -88.5 -33t-31.5 -89v-125q0 -56 31.5 -89t88.5 -33zM256 645l-140 140h99l82 -78l80 78h101l-139 -140h-83z" />
    <glyph glyph-name="uni01EA" unicode="&#x1ea;" 
d="M379 -203q-55 0 -88.5 26.5t-33.5 66.5q0 46 56 100h-13q-98 0 -155 56t-57 154v330q0 98 57 154t155 56t155 -55.5t57 -153.5v-331q0 -59 -21.5 -104t-60.5 -71l-29 -24q-33 -28 -46 -50.5t-13 -43.5q0 -22 15 -36t40 -14h60v-60h-78zM300 71q59 0 90.5 33.5t31.5 95.5
v330q0 62 -31.5 95.5t-90.5 33.5q-58 0 -90 -33.5t-32 -95.5v-330q0 -62 32 -95.5t90 -33.5z" />
    <glyph glyph-name="uni01EB" unicode="&#x1eb;" 
d="M372 -203q-55 0 -88.5 26.5t-33.5 66.5q0 22 12.5 45.5t46.5 54.5h-9q-98 0 -155 56t-57 154v150q0 98 57 154t155 56t155 -55.5t57 -153.5v-151q0 -62 -23 -107.5t-66 -71.5l-24 -20q-34 -28 -49 -50.5t-15 -43.5q0 -22 15 -36t40 -14h60v-60h-78zM300 70q59 0 90.5 33
t31.5 97v150q0 64 -31.5 97t-90.5 33q-58 0 -90 -33t-32 -97v-150q0 -64 32 -97t90 -33z" />
    <glyph glyph-name="uni01F4" unicode="&#x1f4;" 
d="M304 -10q-100 0 -158 56t-58 154v330q0 98 58 154t158 56q98 0 156 -56.5t58 -153.5h-90q0 62 -32.5 95.5t-91.5 33.5t-92.5 -33t-33.5 -95v-331q0 -62 33.5 -96t92.5 -34t91.5 34t32.5 96v100h-148v82h238v-182q0 -97 -58 -153.5t-156 -56.5zM242 810l106 140h97
l-111 -140h-92z" />
    <glyph glyph-name="uni01F5" unicode="&#x1f5;" 
d="M161 -180v82h155q47 0 74 26.5t27 71.5v50l2 90h-3q-8 -49 -47 -75.5t-98 -26.5q-85 0 -134 54t-49 148v116q0 94 49 149t134 55q59 0 98 -28t47 -77h2v95h89v-550q0 -83 -51.5 -131.5t-140.5 -48.5h-154zM298 113q56 0 88 35t32 97v105q0 62 -32 97t-88 35
q-57 0 -88.5 -33t-31.5 -89v-125q0 -56 31.5 -89t88.5 -33zM239 645l106 140h97l-111 -140h-92z" />
    <glyph glyph-name="AEacute" unicode="&#x1fc;" 
d="M30 0l145 730h395v-82h-182v-228h157v-82h-157v-256h182v-82h-268v203h-141l-40 -203h-91zM175 278h127v370h-56zM242 810l106 140h97l-111 -140h-92z" />
    <glyph glyph-name="aeacute" unicode="&#x1fd;" 
d="M178 -10q-65 0 -106 47t-41 122q0 74 42 119.5t109 45.5h81v75q0 41 -18 63.5t-50 22.5q-31 0 -50 -19.5t-19 -51.5h-79q0 65 37.5 105.5t97.5 40.5q49 0 83 -24.5t39 -64.5q5 40 37.5 64.5t78.5 24.5q65 0 105 -44.5t40 -115.5v-144h-222v-106q0 -40 18.5 -62.5
t50.5 -22.5t50.5 20t18.5 52h84q0 -65 -40 -106t-105 -41q-43 0 -75.5 25t-40.5 65q-8 -40 -43 -65t-83 -25zM343 324h138v76q0 39 -18.5 62t-50.5 23q-31 0 -50 -23t-19 -62v-76zM191 65q33 0 52.5 23t19.5 62v106h-79q-31 0 -50 -26t-19 -70q0 -43 20.5 -69t55.5 -26z
M242 645l106 140h97l-111 -140h-92z" />
    <glyph glyph-name="Oslashacute" unicode="&#x1fe;" 
d="M35 -40l76 134q-23 45 -23 106v330q0 98 57 154t155 56q92 0 148 -49l33 59h84l-70 -125q17 -41 17 -94v-331q0 -98 -57 -154t-155 -56q-85 0 -140 43l-41 -73h-84zM178 530v-317l224 397q-31 49 -102 49q-58 0 -90 -33.5t-32 -95.5zM300 71q59 0 90.5 33.5t31.5 95.5
v297l-218 -386q32 -40 96 -40zM242 810l106 140h97l-111 -140h-92z" />
    <glyph glyph-name="oslashacute" unicode="&#x1ff;" 
d="M35 -30l81 114q-28 49 -28 116v150q0 98 57 154t155 56q76 0 128 -34l46 64h91l-84 -118q31 -50 31 -121v-151q0 -98 -57 -154t-155 -56q-80 0 -134 38l-41 -58h-90zM173 200q0 -17 3 -31l204 288q-32 23 -80 23q-60 0 -93.5 -34t-33.5 -96v-150zM300 70q60 0 93.5 34.5
t33.5 95.5v150q0 21 -4 40l-208 -293q32 -27 85 -27zM242 645l106 140h97l-111 -140h-92z" />
    <glyph glyph-name="uni0218" unicode="&#x218;" 
d="M304 -10q-106 0 -169 56t-63 154h90q0 -61 39 -95.5t103 -34.5q62 0 99 36t37 94q0 44 -23.5 76.5t-67.5 44.5l-111 31q-69 20 -108.5 71.5t-39.5 121.5q0 58 26 102t73 68.5t108 24.5q62 0 109.5 -24.5t74.5 -68t27 -100.5h-90q0 50 -34 81.5t-87 31.5t-86 -31.5
t-33 -81.5q0 -40 21.5 -68.5t60.5 -39.5l114 -32q73 -20 113.5 -75.5t40.5 -131.5q0 -96 -61 -153t-163 -57zM190 -240l95 145h105l-105 -145h-95z" />
    <glyph glyph-name="uni0219" unicode="&#x219;" 
d="M278 -8q-92 0 -142.5 41.5t-50.5 117.5h90q0 -38 27 -59.5t76 -21.5h44q50 0 77.5 22t27.5 62q0 71 -65 80l-152 22q-56 8 -87 46.5t-31 101.5q0 72 49.5 113t136.5 41h44q80 0 130.5 -39.5t54.5 -103.5h-91q-2 29 -27.5 48t-66.5 19h-44q-46 0 -72 -21t-26 -57
q0 -58 53 -66l142 -20q140 -20 140 -164q0 -77 -50.5 -119.5t-142.5 -42.5h-44zM190 -240l95 145h105l-105 -145h-95z" />
    <glyph glyph-name="uni021A" unicode="&#x21a;" 
d="M255 0v648h-200v82h490v-82h-200v-648h-90zM190 -240l95 145h105l-105 -145h-95z" />
    <glyph glyph-name="uni021B" unicode="&#x21b;" 
d="M355 0q-68 0 -109 39.5t-41 105.5v323h-158v82h158v155h90v-155h225v-82h-225v-323q0 -28 16.5 -45.5t43.5 -17.5h160v-82h-160zM250 -240l95 145h105l-105 -145h-95z" />
    <glyph glyph-name="uni0232" unicode="&#x232;" 
d="M255 0v273l-220 457h96l142 -300q12 -25 19 -42.5t9 -25.5q2 8 9.5 25.5t19.5 42.5l142 300h93l-220 -457v-273h-90zM140 840v75h320v-75h-320z" />
    <glyph glyph-name="uni0233" unicode="&#x233;" 
d="M178 -180l81 214l-205 516h97l130 -340q8 -20 15 -42t10 -38q3 16 10 38t14 42l121 340h95l-274 -730h-94zM140 670v75h320v-75h-320z" />
    <glyph glyph-name="uni0237" unicode="&#x237;" 
d="M90 -180v82h124q62 0 96.5 34t34.5 95v437h-260v82h350v-519q0 -97 -60 -154t-161 -57h-124z" />
    <glyph glyph-name="uni0259" unicode="&#x259;" 
d="M300 -10q-97 0 -153.5 57.5t-56.5 152.5v97h332v53q0 65 -30 99.5t-92 34.5q-103 0 -118 -74h-90q9 69 65 109.5t143 40.5q98 0 154 -57.5t56 -152.5v-150q0 -95 -56 -152.5t-154 -57.5zM300 65q62 0 92 35t30 100v29h-244v-29q0 -65 30.5 -100t91.5 -35z" />
    <glyph glyph-name="uni02B9" unicode="&#x2b9;" 
d="M165 410l80 311h130l-130 -311h-80z" />
    <glyph glyph-name="uni02BA" unicode="&#x2ba;" 
d="M330 409l80 311h130l-130 -311h-80zM55 409l80 311h130l-130 -311h-80z" />
    <glyph glyph-name="uni02BC" unicode="&#x2bc;" 
d="M165 465l80 311h130l-130 -311h-80z" />
    <glyph glyph-name="circumflex" unicode="&#x2c6;" 
d="M119 645l139 140h83l140 -140h-99l-82 78l-80 -78h-101z" />
    <glyph glyph-name="caron" unicode="&#x2c7;" 
d="M259 645l-140 140h99l82 -78l80 78h101l-139 -140h-83z" />
    <glyph glyph-name="uni02C9" unicode="&#x2c9;" 
d="M140 670v75h320v-75h-320z" />
    <glyph glyph-name="breve" unicode="&#x2d8;" 
d="M300 640q-72 0 -116 40t-44 105h71q0 -39 24 -63t64 -24q41 0 65.5 24t24.5 63h71q0 -65 -44 -105t-116 -40z" />
    <glyph glyph-name="dotaccent" unicode="&#x2d9;" 
d="M300 649q-33 0 -52 17t-19 46q0 30 19 47.5t52 17.5t52 -17.5t19 -47.5q0 -29 -19 -46t-52 -17z" />
    <glyph glyph-name="ring" unicode="&#x2da;" 
d="M300 608q-54 0 -87 31.5t-33 82.5t33 82.5t87 31.5t87 -31.5t33 -82.5t-33 -82.5t-87 -31.5zM300 661q27 0 43.5 16.5t16.5 44.5t-16.5 45t-43.5 17t-43.5 -17t-16.5 -45t16.5 -44.5t43.5 -16.5z" />
    <glyph glyph-name="ogonek" unicode="&#x2db;" 
d="M307 -203q-55 0 -88.5 26.5t-33.5 66.5q0 29 19 58t66 62h75l-11 -9q-34 -28 -49 -50.5t-15 -43.5q0 -22 15 -36t40 -14h60v-60h-78z" />
    <glyph glyph-name="tilde" unicode="&#x2dc;" 
d="M370 650q-30 0 -49 10.5t-32 24.5t-25 24.5t-29 10.5q-30 0 -30 -35v-30h-65v30q0 45 25 70t65 25q30 0 49 -10.5t32 -24.5t25 -24.5t29 -10.5q30 0 30 35v30h65v-30q0 -45 -24.5 -70t-65.5 -25z" />
    <glyph glyph-name="hungarumlaut" unicode="&#x2dd;" 
d="M326 645l110 140h92l-115 -140h-87zM147 645l110 140h92l-115 -140h-87z" />
    <glyph glyph-name="uni02F3" unicode="&#x2f3;" 
d="M300 -250q-54 0 -87 27.5t-33 72.5t33 72.5t87 27.5t87 -27.5t33 -72.5t-33 -72.5t-87 -27.5zM299 -199q28 0 44.5 13.5t16.5 35.5q0 26 -16 38t-45 12q-26 0 -42.5 -13.5t-16.5 -36.5q0 -22 16.5 -35.5t42.5 -13.5z" />
    <glyph glyph-name="uni02F7" unicode="&#x2f7;" 
d="M370 -210q-30 0 -49 10.5t-32 24.5t-25 24.5t-29 10.5q-30 0 -30 -35v-30h-65v30q0 45 25 70t65 25q30 0 49 -10.5t32 -24.5t25 -24.5t29 -10.5q30 0 30 35v30h65v-30q0 -45 -24.5 -70t-65.5 -25z" />
    <glyph glyph-name="gravecomb" unicode="&#x300;" horiz-adv-x="0" 
d="M-323 645l-115 140h100l110 -140h-95z" />
    <glyph glyph-name="acutecomb" unicode="&#x301;" horiz-adv-x="0" 
d="M-368 645l106 140h97l-111 -140h-92z" />
    <glyph glyph-name="uni0302" unicode="&#x302;" horiz-adv-x="0" 
d="M-481 645l139 140h83l140 -140h-99l-82 78l-80 -78h-101z" />
    <glyph glyph-name="tildecomb" unicode="&#x303;" horiz-adv-x="0" 
d="M-230 650q-30 0 -49 10.5t-32 24.5t-25 24.5t-29 10.5q-30 0 -30 -35v-30h-65v30q0 45 25 70t65 25q30 0 49 -10.5t32 -24.5t25 -24.5t29 -10.5q30 0 30 35v30h65v-30q0 -45 -24.5 -70t-65.5 -25z" />
    <glyph glyph-name="uni0304" unicode="&#x304;" horiz-adv-x="0" 
d="M-460 670v75h320v-75h-320z" />
    <glyph glyph-name="uni0306" unicode="&#x306;" horiz-adv-x="0" 
d="M-300 640q-72 0 -116 40t-44 105h71q0 -39 24 -63t64 -24q41 0 65.5 24t24.5 63h71q0 -65 -44 -105t-116 -40z" />
    <glyph glyph-name="uni0307" unicode="&#x307;" horiz-adv-x="0" 
d="M-300 649q-33 0 -52 17t-19 46q0 30 19 47.5t52 17.5t52 -17.5t19 -47.5q0 -29 -19 -46t-52 -17z" />
    <glyph glyph-name="uni0308" unicode="&#x308;" horiz-adv-x="0" 
d="M-189 649q-29 0 -46.5 17t-17.5 46q0 30 17.5 47.5t46.5 17.5t46.5 -17.5t17.5 -47.5q0 -29 -17.5 -46t-46.5 -17zM-411 649q-29 0 -46.5 17t-17.5 46q0 30 17.5 47.5t46.5 17.5t46.5 -17.5t17.5 -47.5q0 -29 -17.5 -46t-46.5 -17z" />
    <glyph glyph-name="hookabovecomb" unicode="&#x309;" horiz-adv-x="0" 
d="M-342 645l50 63q14 19 14 32q0 20 -32 20h-80v65h105q38 0 61.5 -19.5t23.5 -54.5q0 -32 -17 -54l-40 -52h-85z" />
    <glyph glyph-name="uni030A" unicode="&#x30a;" horiz-adv-x="0" 
d="M-300 608q-54 0 -87 31.5t-33 82.5t33 82.5t87 31.5t87 -31.5t33 -82.5t-33 -82.5t-87 -31.5zM-300 661q27 0 43.5 16.5t16.5 44.5t-16.5 45t-43.5 17t-43.5 -17t-16.5 -45t16.5 -44.5t43.5 -16.5z" />
    <glyph glyph-name="uni030B" unicode="&#x30b;" horiz-adv-x="0" 
d="M-274 645l110 140h92l-115 -140h-87zM-453 645l110 140h92l-115 -140h-87z" />
    <glyph glyph-name="uni030C" unicode="&#x30c;" horiz-adv-x="0" 
d="M-341 645l-140 140h99l82 -78l80 78h101l-139 -140h-83z" />
    <glyph glyph-name="uni030F" unicode="&#x30f;" horiz-adv-x="0" 
d="M-326 645h-87l-115 140h92zM-147 645h-87l-115 140h92z" />
    <glyph glyph-name="uni0312" unicode="&#x312;" horiz-adv-x="0" 
d="M-185 880l-80 -235h-125l130 235h75z" />
    <glyph glyph-name="uni031B" unicode="&#x31b;" horiz-adv-x="0" 
d="M-232 485v65h26q35 0 35 35v75h75v-80q0 -43 -29 -69t-76 -26h-31z" />
    <glyph glyph-name="dotbelowcomb" unicode="&#x323;" horiz-adv-x="0" 
d="M-300 -213q-33 0 -52 17t-19 46q0 30 19 47.5t52 17.5t52 -17.5t19 -47.5q0 -29 -19 -46t-52 -17z" />
    <glyph glyph-name="uni0325" unicode="&#x325;" horiz-adv-x="0" 
d="M-300 -250q-54 0 -87 27.5t-33 72.5t33 72.5t87 27.5t87 -27.5t33 -72.5t-33 -72.5t-87 -27.5zM-301 -199q28 0 44.5 13.5t16.5 35.5q0 26 -16 38t-45 12q-26 0 -42.5 -13.5t-16.5 -36.5q0 -22 16.5 -35.5t42.5 -13.5z" />
    <glyph glyph-name="uni0326" unicode="&#x326;" horiz-adv-x="0" 
d="M-410 -240l95 145h105l-105 -145h-95z" />
    <glyph glyph-name="uni0327" unicode="&#x327;" horiz-adv-x="0" 
d="M-395 -203v55h70q22 0 35.5 11.5t13.5 24.5q0 17 -27.5 30t-77.5 13l35 95h57l-21 -61q26 -3 54 -13t47 -28t19 -44q0 -34 -33 -58.5t-87 -24.5h-85z" />
    <glyph glyph-name="uni0328" unicode="&#x328;" horiz-adv-x="0" 
d="M-293 -203q-55 0 -88.5 26.5t-33.5 66.5q0 29 19 58t66 62h75l-11 -9q-34 -28 -49 -50.5t-15 -43.5q0 -22 15 -36t40 -14h60v-60h-78z" />
    <glyph glyph-name="uni0336" unicode="&#x336;" horiz-adv-x="0" 
d="M-630 290v70h660v-70h-660z" />
    <glyph glyph-name="uni0337" unicode="&#x337;" horiz-adv-x="0" 
d="M-565 -30l439 620h91l-440 -620h-90z" />
    <glyph glyph-name="uni0338" unicode="&#x338;" horiz-adv-x="0" 
d="M-490 -110l317 770h63l-317 -770h-63z" />
    <glyph glyph-name="uni0374" unicode="&#x374;" 
d="M165 410l80 311h130l-130 -311h-80z" />
    <glyph glyph-name="uni0375" unicode="&#x375;" 
d="M210 -160l55 306h108l-70 -306h-93z" />
    <glyph glyph-name="uni037E" unicode="&#x37e;" 
d="M290 410q-33 0 -54 21t-21 54q0 32 21.5 53.5t53.5 21.5h20q32 0 53.5 -21.5t21.5 -53.5q0 -33 -21 -54t-54 -21h-20zM205 -160l55 306h108l-70 -306h-93z" />
    <glyph glyph-name="tonos" unicode="&#x384;" 
d="M210 645l106 140h100l-111 -140h-95z" />
    <glyph glyph-name="dieresistonos" unicode="&#x385;" 
d="M259 769l78 131h80l-88 -131h-70zM411 649q-29 0 -46.5 17t-17.5 46q0 30 17.5 47.5t46.5 17.5t46.5 -17.5t17.5 -47.5q0 -29 -17.5 -46t-46.5 -17zM189 649q-29 0 -46.5 17t-17.5 46q0 30 17.5 47.5t46.5 17.5t46.5 -17.5t17.5 -47.5q0 -29 -17.5 -46t-46.5 -17z" />
    <glyph glyph-name="Alphatonos" unicode="&#x386;" 
d="M50 0l190 730h121l189 -730h-91l-48 194h-221l-48 -194h-92zM208 270h184l-56 225q-16 64 -25 107t-11 56q-2 -13 -11 -56t-25 -106zM10 570l56 160h94l-64 -160h-86z" />
    <glyph glyph-name="anoteleia" unicode="&#x387;" 
d="M300 265q-37 0 -59.5 22t-22.5 57q0 37 22.5 60t59.5 23t59.5 -23t22.5 -60q0 -35 -22.5 -57t-59.5 -22z" />
    <glyph glyph-name="Epsilontonos" unicode="&#x388;" 
d="M100 0v730h420v-82h-331v-226h296v-80h-296v-260h331v-82h-420zM-115 570l56 160h94l-64 -160h-86z" />
    <glyph glyph-name="Etatonos" unicode="&#x389;" 
d="M-115 570l56 160h94l-64 -160h-86zM93 0v730h90v-312h234v312h90v-730h-90v336h-234v-336h-90z" />
    <glyph glyph-name="Iotatonos" unicode="&#x38a;" 
d="M-115 570l56 160h94l-64 -160h-86zM105 0v82h149v566h-149v82h390v-82h-149v-566h149v-82h-390z" />
    <glyph glyph-name="Omicrontonos" unicode="&#x38c;" 
d="M-80 570l56 160h94l-64 -160h-86zM300 -10q-98 0 -155 57t-57 163v310q0 106 57 163t155 57t155 -57t57 -162v-311q0 -106 -57 -163t-155 -57zM300 71q59 0 90.5 33.5t31.5 95.5v330q0 62 -31.5 95.5t-90.5 33.5q-58 0 -90 -33.5t-32 -95.5v-330q0 -62 32 -95.5t90 -33.5
z" />
    <glyph glyph-name="Upsilontonos" unicode="&#x38e;" 
d="M-125 570l56 160h94l-64 -160h-86zM255 0v273l-220 457h96l142 -300q12 -25 19 -42.5t9 -25.5q2 8 9.5 25.5t19.5 42.5l142 300h93l-220 -457v-273h-90z" />
    <glyph glyph-name="Omegatonos" unicode="&#x38f;" 
d="M50 0v80h145v5q-24 3 -51 20.5t-45.5 52t-18.5 87.5v280q0 98 59.5 156.5t160.5 58.5t160.5 -58.5t59.5 -156.5v-280q0 -53 -18.5 -87t-45 -51.5t-51.5 -20.5v-6h146v-80h-211v110q40 0 65 36.5t25 93.5v285q0 62 -35.5 98.5t-94.5 36.5t-94.5 -36.5t-35.5 -98.5v-285
q0 -57 25 -93.5t65 -36.5v-110h-210zM-80 570l56 160h94l-64 -160h-86z" />
    <glyph glyph-name="iotadieresistonos" unicode="&#x390;" 
d="M410 0q-73 0 -116.5 42.5t-43.5 112.5v313h-195v82h285v-395q0 -34 19 -53.5t51 -19.5h140v-82h-140zM259 769l78 131h80l-88 -131h-70zM411 649q-29 0 -46.5 17t-17.5 46q0 30 17.5 47.5t46.5 17.5t46.5 -17.5t17.5 -47.5q0 -29 -17.5 -46t-46.5 -17zM189 649
q-29 0 -46.5 17t-17.5 46q0 30 17.5 47.5t46.5 17.5t46.5 -17.5t17.5 -47.5q0 -29 -17.5 -46t-46.5 -17z" />
    <glyph glyph-name="Alpha" unicode="&#x391;" 
d="M50 0l190 730h121l189 -730h-91l-48 194h-221l-48 -194h-92zM208 270h184l-56 225q-16 64 -25 107t-11 56q-2 -13 -11 -56t-25 -106z" />
    <glyph glyph-name="Beta" unicode="&#x392;" 
d="M93 0v730h207q100 0 156.5 -50t56.5 -139q0 -56 -35.5 -101t-92.5 -56v-3q43 -5 75.5 -30t51 -63.5t18.5 -84.5q0 -94 -57.5 -148.5t-157.5 -54.5h-222zM181 419h118q58 0 91.5 31t33.5 84t-33 84t-91 31h-119v-230zM181 81h124q63 0 99.5 33.5t36.5 91.5
q0 60 -36.5 97.5t-99.5 37.5h-124v-260z" />
    <glyph glyph-name="Gamma" unicode="&#x393;" 
d="M130 0v730h425v-82h-335v-648h-90z" />
    <glyph glyph-name="uni0394" unicode="&#x394;" 
d="M50 0l190 730h121l189 -730h-500zM264 496l-102 -416h277l-103 415q-13 52 -22 97.5t-14 67.5q-4 -22 -13.5 -67t-22.5 -97z" />
    <glyph glyph-name="Epsilon" unicode="&#x395;" 
d="M100 0v730h420v-82h-331v-226h296v-80h-296v-260h331v-82h-420z" />
    <glyph glyph-name="Zeta" unicode="&#x396;" 
d="M85 0v90l329 558h-324v82h415v-90l-329 -558h339v-82h-430z" />
    <glyph glyph-name="Eta" unicode="&#x397;" 
d="M93 0v730h90v-312h234v312h90v-730h-90v336h-234v-336h-90z" />
    <glyph glyph-name="Theta" unicode="&#x398;" 
d="M300 -10q-98 0 -155 56t-57 154v330q0 98 57 154t155 56t155 -55.5t57 -153.5v-331q0 -98 -57 -154t-155 -56zM300 71q59 0 90.5 33.5t31.5 95.5v330q0 62 -31.5 95.5t-90.5 33.5q-58 0 -90 -33.5t-32 -95.5v-330q0 -62 32 -95.5t90 -33.5zM210 325v82h180v-82h-180z" />
    <glyph glyph-name="Iota" unicode="&#x399;" 
d="M105 0v82h149v566h-149v82h390v-82h-149v-566h149v-82h-390z" />
    <glyph glyph-name="Kappa" unicode="&#x39a;" 
d="M92 0v730h90v-314h108l162 314h98l-181 -352l191 -378h-103l-170 337h-105v-337h-90z" />
    <glyph glyph-name="Lambda" unicode="&#x39b;" 
d="M50 0l190 730h121l189 -730h-91l-123 495q-17 71 -26.5 118l-9.5 47l-9.5 -46.5t-26.5 -117.5l-122 -496h-92z" />
    <glyph glyph-name="Mu" unicode="&#x39c;" 
d="M72 0v730h133l93 -316l97 316h133v-730h-87v345q0 49 1.5 112.5t4.5 128.5t7 117l-118 -377h-78l-113 368q8 -74 11 -162t3 -187v-345h-87z" />
    <glyph glyph-name="Nu" unicode="&#x39d;" 
d="M90 0v730h120l223 -625q-2 25 -4.5 61.5t-4 77t-1.5 76.5v410h87v-730h-120l-222 625q2 -24 4 -60.5t3.5 -77t1.5 -77.5v-410h-87z" />
    <glyph glyph-name="Xi" unicode="&#x39e;" 
d="M80 648v82h440v-82h-440zM110 329v82h380v-82h-380zM80 0v82h440v-82h-440z" />
    <glyph glyph-name="Omicron" unicode="&#x39f;" 
d="M300 -10q-98 0 -155 57t-57 163v310q0 106 57 163t155 57t155 -57t57 -162v-311q0 -106 -57 -163t-155 -57zM300 71q59 0 90.5 33.5t31.5 95.5v330q0 62 -31.5 95.5t-90.5 33.5q-58 0 -90 -33.5t-32 -95.5v-330q0 -62 32 -95.5t90 -33.5z" />
    <glyph glyph-name="Pi" unicode="&#x3a0;" 
d="M94 0v730h412v-730h-90v648h-232v-648h-90z" />
    <glyph glyph-name="Rho" unicode="&#x3a1;" 
d="M92 0v730h235q102 0 162.5 -58.5t60.5 -156.5t-60.5 -156.5t-162.5 -58.5h-145v-300h-90zM182 381h145q59 0 94.5 36.5t35.5 97.5q0 62 -35.5 98t-94.5 36h-145v-268z" />
    <glyph glyph-name="Sigma" unicode="&#x3a3;" 
d="M75 0v80l232 291l-232 279v80h475v-80h-369l235 -275l-236 -295h370v-80h-475z" />
    <glyph glyph-name="Tau" unicode="&#x3a4;" 
d="M255 0v648h-200v82h490v-82h-200v-648h-90z" />
    <glyph glyph-name="Upsilon" unicode="&#x3a5;" 
d="M255 0v273l-220 457h96l142 -300q12 -25 19 -42.5t9 -25.5q2 8 9.5 25.5t19.5 42.5l142 300h93l-220 -457v-273h-90z" />
    <glyph glyph-name="Phi" unicode="&#x3a6;" 
d="M255 -25v80q-60 0 -107 26t-74.5 72.5t-27.5 109.5v219q0 65 27 112.5t74.5 74t107.5 26.5v75h90v-75q61 0 108 -26.5t74 -74t27 -112.5v-219q0 -63 -27.5 -109.5t-74.5 -72.5t-107 -26v-80h-90zM259 131v488q-56 0 -92.5 -36.5t-36.5 -100.5v-219q0 -61 36.5 -96.5
t92.5 -35.5zM341 131q56 0 92.5 35.5t36.5 96.5v219q0 64 -36.5 100.5t-92.5 36.5v-488z" />
    <glyph glyph-name="Chi" unicode="&#x3a7;" 
d="M40 0l210 370l-199 360h104l113 -216q9 -17 18.5 -36.5t15.5 -30.5q5 11 14.5 30.5t18.5 36.5l115 216h99l-199 -354l210 -376h-103l-125 232q-9 17 -18.5 36.5t-14.5 31.5q-5 -12 -14.5 -31t-18.5 -36l-126 -233h-100z" />
    <glyph glyph-name="Psi" unicode="&#x3a8;" 
d="M255 0v170q-60 0 -105 26t-70.5 72.5t-25.5 109.5v352h84v-352q0 -61 33.5 -95.5t89.5 -34.5v482h78v-482q56 0 89.5 34.5t33.5 95.5v352h84v-352q0 -63 -25 -109.5t-70.5 -72.5t-105.5 -26v-170h-90z" />
    <glyph glyph-name="uni03A9" unicode="&#x3a9;" 
d="M50 0v80h145v5q-24 3 -51 20.5t-45.5 52t-18.5 87.5v280q0 98 59.5 156.5t160.5 58.5t160.5 -58.5t59.5 -156.5v-280q0 -53 -18.5 -87t-45 -51.5t-51.5 -20.5v-6h146v-80h-211v110q40 0 65 36.5t25 93.5v285q0 62 -35.5 98.5t-94.5 36.5t-94.5 -36.5t-35.5 -98.5v-285
q0 -57 25 -93.5t65 -36.5v-110h-210z" />
    <glyph glyph-name="Iotadieresis" unicode="&#x3aa;" 
d="M411 817q-29 0 -46.5 17t-17.5 46q0 30 17.5 47.5t46.5 17.5t46.5 -17.5t17.5 -47.5q0 -29 -17.5 -46t-46.5 -17zM189 817q-29 0 -46.5 17t-17.5 46q0 30 17.5 47.5t46.5 17.5t46.5 -17.5t17.5 -47.5q0 -29 -17.5 -46t-46.5 -17zM105 0v82h149v566h-149v82h390v-82h-149
v-566h149v-82h-390z" />
    <glyph glyph-name="Upsilondieresis" unicode="&#x3ab;" 
d="M411 817q-29 0 -46.5 17t-17.5 46q0 30 17.5 47.5t46.5 17.5t46.5 -17.5t17.5 -47.5q0 -29 -17.5 -46t-46.5 -17zM189 817q-29 0 -46.5 17t-17.5 46q0 30 17.5 47.5t46.5 17.5t46.5 -17.5t17.5 -47.5q0 -29 -17.5 -46t-46.5 -17zM255 0v273l-220 457h96l142 -300
q12 -25 19 -42.5t9 -25.5q2 8 9.5 25.5t19.5 42.5l142 300h93l-220 -457v-273h-90z" />
    <glyph glyph-name="alphatonos" unicode="&#x3ac;" 
d="M234 645l106 140h100l-111 -140h-95zM268 -10q-82 0 -132.5 55t-50.5 149v161q0 95 50 150t133 55q62 0 102 -31t47 -84h3l-2 105h90v-550h-90v105h-1q-7 -54 -47 -84.5t-102 -30.5zM298 68q56 0 88 35t32 97v150q0 62 -32 97t-88 35q-57 0 -90 -34t-33 -98v-150
q0 -64 33 -98t90 -34z" />
    <glyph glyph-name="epsilontonos" unicode="&#x3ad;" 
d="M334 -7h-53q-95 0 -150.5 44.5t-55.5 119.5q0 60 33 98t93 42v4q-50 4 -81.5 35.5t-31.5 77.5q0 69 52.5 106t142.5 37h47q86 0 137 -38.5t52 -103.5h-90q-1 29 -28 46t-71 17h-47q-46 0 -73.5 -20.5t-27.5 -55.5q0 -36 27.5 -57t74.5 -21h117v-78h-120q-52 0 -82 -23.5
t-30 -64.5q0 -39 30 -61.5t82 -22.5h53q49 0 77.5 21t28.5 56h90q0 -73 -53 -115.5t-143 -42.5zM240 645l106 140h100l-111 -140h-95z" />
    <glyph glyph-name="etatonos" unicode="&#x3ae;" 
d="M92 0v550h90v-105h1q7 55 45 85t101 30q83 0 132 -51t49 -139v-370h-90v354q0 63 -31.5 96.5t-85.5 33.5q-56 0 -88.5 -35t-32.5 -99v-350h-90zM245 645l106 140h100l-111 -140h-95z" />
    <glyph glyph-name="iotatonos" unicode="&#x3af;" 
d="M410 0q-73 0 -116.5 42.5t-43.5 112.5v313h-195v82h285v-395q0 -34 19 -53.5t51 -19.5h140v-82h-140zM235 645l106 140h100l-111 -140h-95z" />
    <glyph glyph-name="upsilondieresistonos" unicode="&#x3b0;" 
d="M299 -10q-95 0 -152 56.5t-57 153.5v350h90v-350q0 -60 32 -95.5t87 -35.5q56 0 88.5 35.5t32.5 95.5v350h90v-350q0 -97 -58 -153.5t-153 -56.5zM259 769l78 131h80l-88 -131h-70zM411 649q-29 0 -46.5 17t-17.5 46q0 30 17.5 47.5t46.5 17.5t46.5 -17.5t17.5 -47.5
q0 -29 -17.5 -46t-46.5 -17zM189 649q-29 0 -46.5 17t-17.5 46q0 30 17.5 47.5t46.5 17.5t46.5 -17.5t17.5 -47.5q0 -29 -17.5 -46t-46.5 -17z" />
    <glyph glyph-name="alpha" unicode="&#x3b1;" 
d="M268 -10q-82 0 -132.5 55t-50.5 149v161q0 95 50 150t133 55q62 0 102 -31t47 -84h3l-2 105h90v-550h-90v105h-1q-7 -54 -47 -84.5t-102 -30.5zM298 68q56 0 88 35t32 97v150q0 62 -32 97t-88 35q-57 0 -90 -34t-33 -98v-150q0 -64 33 -98t90 -34z" />
    <glyph glyph-name="beta" unicode="&#x3b2;" 
d="M92 -180v709q0 63 26 110.5t73 74t108 26.5t106.5 -22.5t71.5 -63t26 -93.5q0 -56 -32 -99t-83 -56v-3q45 -6 78.5 -33t52.5 -68.5t19 -92.5q0 -65 -26.5 -114.5t-74.5 -77t-111 -27.5q-60 0 -98.5 30t-45.5 82h-3l3 -122v-160h-90zM316 72q58 0 94 39.5t36 102.5
t-36 102.5t-95 39.5h-55v76h39q52 0 84 31.5t32 82.5t-32 82.5t-84 31.5t-84.5 -36t-32.5 -95v-315q0 -63 37.5 -102.5t96.5 -39.5z" />
    <glyph glyph-name="gamma" unicode="&#x3b3;" 
d="M255 -180v180l-195 550h95l124 -365q12 -34 17 -60.5t8 -43.5q3 17 7.5 43.5t15.5 60.5l121 365h92l-195 -550v-180h-90z" />
    <glyph glyph-name="delta" unicode="&#x3b4;" 
d="M300 -10q-97 0 -156.5 57.5t-59.5 157.5v97q0 63 24.5 110t68.5 73.5t102 26.5h6q-34 28 -77.5 61t-99.5 75v82h393v-75h-292q97 -67 165.5 -127t105 -127t36.5 -156q0 -130 -59 -192.5t-157 -62.5zM300 70q57 0 90.5 40.5t33.5 134.5q0 63 -13.5 107t-48.5 85h-63
q-55 0 -90 -37.5t-35 -97.5v-97q0 -64 34.5 -99.5t91.5 -35.5z" />
    <glyph glyph-name="epsilon" unicode="&#x3b5;" 
d="M334 -7h-53q-95 0 -150.5 44.5t-55.5 119.5q0 60 33 98t93 42v4q-50 4 -81.5 35.5t-31.5 77.5q0 69 52.5 106t142.5 37h47q86 0 137 -38.5t52 -103.5h-90q-1 29 -28 46t-71 17h-47q-46 0 -73.5 -20.5t-27.5 -55.5q0 -36 27.5 -57t74.5 -21h117v-78h-120q-52 0 -82 -23.5
t-30 -64.5q0 -39 30 -61.5t82 -22.5h53q49 0 77.5 21t28.5 56h90q0 -73 -53 -115.5t-143 -42.5z" />
    <glyph glyph-name="zeta" unicode="&#x3b6;" 
d="M484 -185l-70 42l46 73q10 16 10 30q0 26 -34 37l-132 38q-101 29 -150 78t-49 122q0 67 49 137.5t158 162.5l134 113h-326v82h435v-90l-186 -166q-90 -80 -131 -135.5t-41 -102.5q0 -77 137 -117l129 -37q47 -13 72 -43t25 -68q0 -39 -27 -80z" />
    <glyph glyph-name="eta" unicode="&#x3b7;" 
d="M92 0v550h90v-105h1q7 55 45 85t101 30q83 0 132 -51t49 -139v-370h-90v354q0 63 -31.5 96.5t-85.5 33.5q-56 0 -88.5 -35t-32.5 -99v-350h-90z" />
    <glyph glyph-name="theta" unicode="&#x3b8;" 
d="M300 -10q-98 0 -155 56t-57 154v320q0 98 57 154t155 56t155 -55.5t57 -153.5v-321q0 -98 -57 -154t-155 -56zM178 403h244v117q0 64 -31.5 97t-90.5 33q-58 0 -90 -33t-32 -97v-117zM300 70q59 0 90.5 33t31.5 97v125h-244v-125q0 -64 32 -97t90 -33z" />
    <glyph glyph-name="iota" unicode="&#x3b9;" 
d="M410 0q-73 0 -116.5 42.5t-43.5 112.5v313h-195v82h285v-395q0 -34 19 -53.5t51 -19.5h140v-82h-140z" />
    <glyph glyph-name="kappa" unicode="&#x3ba;" 
d="M103 0v550h90v-227h107l152 227h103l-178 -264l188 -286h-105l-159 241h-108v-241h-90z" />
    <glyph glyph-name="lambda" unicode="&#x3bb;" 
d="M50 0l204 541l-74 189h96l274 -730h-96l-131 357q-13 35 -19 62t-11 42q0 -15 -4 -42t-16 -62l-126 -357h-97z" />
    <glyph glyph-name="uni03BC" unicode="&#x3bc;" 
d="M93 -180v730h90v-350q0 -62 30 -97t85 -35q56 0 87.5 35t31.5 97v350h90v-550h-88v105h-3q-3 -53 -30 -84t-89 -31t-86 31t-27 84h-3l2 -125v-160h-90z" />
    <glyph glyph-name="nu" unicode="&#x3bd;" 
d="M241 0l-187 550h97l120 -370q11 -33 19 -63.5t12 -47.5q5 17 12 47.5t17 63.5l120 370h95l-187 -550h-118z" />
    <glyph glyph-name="xi" unicode="&#x3be;" 
d="M325 658q-55 0 -89 -33t-34 -83q0 -49 34 -77.5t89 -28.5h146v-80h-142q-66 0 -107.5 -35t-41.5 -91q0 -78 116 -113l143 -44q74 -23 89 -73.5t-27 -118.5l-41 -66l-70 39l43 70q14 24 9 42t-33 27l-139 44q-94 30 -139.5 77t-45.5 116q0 66 39 114t101 59v3
q-52 13 -84.5 53.5t-32.5 97.5q0 53 27.5 94.5t76.5 65t113 23.5t111 -22.5t74 -61.5t29 -90h-90q-4 41 -36 66.5t-88 25.5z" />
    <glyph glyph-name="omicron" unicode="&#x3bf;" 
d="M300 -8q-99 0 -157.5 58t-58.5 162v126q0 105 58 162.5t158 57.5t158 -57.5t58 -162.5v-126q0 -104 -58.5 -162t-157.5 -58zM300 72q59 0 92.5 33t33.5 97v146q0 64 -33.5 97t-92.5 33q-58 0 -92 -33t-34 -97v-146q0 -64 34 -97t92 -33z" />
    <glyph glyph-name="pi" unicode="&#x3c0;" 
d="M536 -5q-76 0 -121.5 48t-45.5 127v300h-173v-470h-87v470h-84v80h529v-80h-99v-306q0 -41 20.5 -63t55.5 -22h24v-84h-19z" />
    <glyph glyph-name="rho" unicode="&#x3c1;" 
d="M94 -180v536q0 95 56 149.5t153 54.5t152 -54.5t55 -149.5v-161q0 -95 -47.5 -150t-130.5 -55q-62 0 -101 31t-46 84h-3l2 -125v-160h-90zM302 68q57 0 87.5 34t30.5 98v150q0 64 -30.5 98t-87.5 34t-87.5 -34t-30.5 -98v-150q0 -62 31.5 -97t86.5 -35z" />
    <glyph glyph-name="uni03C2" unicode="&#x3c2;" 
d="M345 -146l43 70q14 24 9 42t-33 27l-118 37q-74 23 -115 72.5t-41 117.5v130q0 98 59.5 154t159.5 56q95 0 153 -51t61 -139h-90q-3 53 -35.5 81.5t-88.5 28.5q-59 0 -94 -33.5t-35 -95.5v-131q0 -37 24.5 -66t67.5 -43l122 -38q74 -23 89 -73.5t-27 -118.5l-41 -66z" />
    <glyph glyph-name="sigma" unicode="&#x3c3;" 
d="M297 -10q-64 0 -111.5 26.5t-74 73.5t-26.5 110v140q0 63 26.5 110.5t74 73.5t111.5 26h273v-82h-169v-3q50 -4 79 -37.5t29 -87.5v-140q0 -63 -26.5 -110t-74 -73.5t-111.5 -26.5zM297 70q57 0 89.5 35t32.5 95v140q0 60 -32.5 95t-89.5 35t-89.5 -35t-32.5 -95v-140
q0 -60 32.5 -95t89.5 -35z" />
    <glyph glyph-name="tau" unicode="&#x3c4;" 
d="M365 0q-68 0 -109 39.5t-41 105.5v323h-168v82h473v-82h-215v-323q0 -28 16.5 -45.5t43.5 -17.5h150v-82h-150z" />
    <glyph glyph-name="upsilon" unicode="&#x3c5;" 
d="M299 -10q-95 0 -152 56.5t-57 153.5v350h90v-350q0 -60 32 -95.5t87 -35.5q56 0 88.5 35.5t32.5 95.5v350h90v-350q0 -97 -58 -153.5t-153 -56.5z" />
    <glyph glyph-name="phi" unicode="&#x3c6;" 
d="M255 -180v180q-59 0 -104.5 26t-71 73t-25.5 108v146q0 52 17 95t48 71.5t71 35.5v-95q-22 -5 -36.5 -34.5t-14.5 -67.5l-1 -156q-1 -58 34 -94.5t91 -36.5v479h80q60 0 105.5 -25t71.5 -69t26 -103v-146q0 -61 -25.5 -108t-70.5 -73t-105 -26v-180h-90zM337 71
q56 0 90.5 36.5t34.5 94.5v156q0 54 -33 88t-86 34h-6v-409z" />
    <glyph glyph-name="chi" unicode="&#x3c7;" 
d="M50 0l195 283l-183 267h106l109 -170q7 -11 13.5 -24l10.5 -21q3 8 9.5 21t13.5 24l109 170h106l-183 -268l194 -282h-106l-118 180q-7 11 -13.5 25.5t-11.5 23.5q-4 -9 -11.5 -23.5t-15.5 -25.5l-118 -180h-106z" />
    <glyph glyph-name="psi" unicode="&#x3c8;" 
d="M255 -180v180q-92 0 -146.5 54t-54.5 148v348h84v-348q0 -61 31 -95t92 -34v477h78v-477q61 0 92 34t31 95v348h84v-348q0 -94 -54.5 -148t-146.5 -54v-180h-90z" />
    <glyph glyph-name="omega" unicode="&#x3c9;" 
d="M181 -10q-58 0 -92.5 46t-34.5 125v187q0 87 38 144.5t103 67.5v-95q-25 -5 -40.5 -35t-15.5 -76v-199q0 -41 17 -65t45 -24t44 24t16 65v190h78v-190q0 -41 16 -65t44 -24q29 0 45.5 24t16.5 65v199q0 43 -16.5 71.5t-44.5 34.5v95q68 -10 107 -66t39 -141v-187
q0 -79 -34 -125t-93 -46q-49 0 -81.5 31.5t-37.5 84.5h-2q-4 -53 -36 -84.5t-81 -31.5z" />
    <glyph glyph-name="iotadieresis" unicode="&#x3ca;" 
d="M410 0q-73 0 -116.5 42.5t-43.5 112.5v313h-195v82h285v-395q0 -34 19 -53.5t51 -19.5h140v-82h-140zM406 649q-29 0 -46.5 17t-17.5 46q0 30 17.5 47.5t46.5 17.5t46.5 -17.5t17.5 -47.5q0 -29 -17.5 -46t-46.5 -17zM184 649q-29 0 -46.5 17t-17.5 46q0 30 17.5 47.5
t46.5 17.5t46.5 -17.5t17.5 -47.5q0 -29 -17.5 -46t-46.5 -17z" />
    <glyph glyph-name="upsilondieresis" unicode="&#x3cb;" 
d="M299 -10q-95 0 -152 56.5t-57 153.5v350h90v-350q0 -60 32 -95.5t87 -35.5q56 0 88.5 35.5t32.5 95.5v350h90v-350q0 -97 -58 -153.5t-153 -56.5zM411 649q-29 0 -46.5 17t-17.5 46q0 30 17.5 47.5t46.5 17.5t46.5 -17.5t17.5 -47.5q0 -29 -17.5 -46t-46.5 -17zM189 649
q-29 0 -46.5 17t-17.5 46q0 30 17.5 47.5t46.5 17.5t46.5 -17.5t17.5 -47.5q0 -29 -17.5 -46t-46.5 -17z" />
    <glyph glyph-name="omicrontonos" unicode="&#x3cc;" 
d="M300 -8q-99 0 -157.5 58t-58.5 162v126q0 105 58 162.5t158 57.5t158 -57.5t58 -162.5v-126q0 -104 -58.5 -162t-157.5 -58zM300 72q59 0 92.5 33t33.5 97v146q0 64 -33.5 97t-92.5 33q-58 0 -92 -33t-34 -97v-146q0 -64 34 -97t92 -33zM240 645l106 140h100l-111 -140
h-95z" />
    <glyph glyph-name="upsilontonos" unicode="&#x3cd;" 
d="M299 -10q-95 0 -152 56.5t-57 153.5v350h90v-350q0 -60 32 -95.5t87 -35.5q56 0 88.5 35.5t32.5 95.5v350h90v-350q0 -97 -58 -153.5t-153 -56.5zM240 645l106 140h100l-111 -140h-95z" />
    <glyph glyph-name="omegatonos" unicode="&#x3ce;" 
d="M181 -10q-58 0 -92.5 46t-34.5 125v187q0 87 38 144.5t103 67.5v-95q-25 -5 -40.5 -35t-15.5 -76v-199q0 -41 17 -65t45 -24t44 24t16 65v190h78v-190q0 -41 16 -65t44 -24q29 0 45.5 24t16.5 65v199q0 43 -16.5 71.5t-44.5 34.5v95q68 -10 107 -66t39 -141v-187
q0 -79 -34 -125t-93 -46q-49 0 -81.5 31.5t-37.5 84.5h-2q-4 -53 -36 -84.5t-81 -31.5zM230 645l106 140h100l-111 -140h-95z" />
    <glyph glyph-name="uni03CF" unicode="&#x3cf;" 
d="M92 0v730h90v-314h108l162 314h98l-181 -352l155 -307h56v-71q0 -88 -47.5 -134t-139.5 -46h-29v79h29q45 0 73 27.5t28 73.5h-37l-170 337h-105v-337h-90z" />
    <glyph glyph-name="uni03D5" unicode="&#x3d5;" 
d="M255 -180v180q-61 2 -108 29t-73 74.5t-26 108.5v128q0 61 26 108t73 74t108 28v180h90v-180q62 -1 108.5 -28t72.5 -74t26 -108v-128q0 -61 -26 -108.5t-72.5 -74.5t-108.5 -29v-180h-90zM262 71v408q-60 0 -94.5 -35t-34.5 -94v-148q0 -60 34.5 -95.5t94.5 -35.5z
M338 71q60 0 94.5 35.5t34.5 95.5v148q0 59 -34.5 94t-94.5 35v-408z" />
    <glyph glyph-name="uni03D6" unicode="&#x3d6;" 
d="M181 -10q-58 0 -92 43t-34 118v188q0 46 19.5 79t55.5 50h-115v82h570v-82h-115q36 -17 55.5 -50t19.5 -79v-188q0 -75 -33.5 -118t-92.5 -43q-49 0 -80 28.5t-39 78.5q-7 -50 -38 -78.5t-81 -28.5zM201 66q29 0 45.5 22t16.5 62v195h74v-195q0 -40 16.5 -62t45.5 -22
q61 0 61 84v234q0 84 -61 84h-198q-61 0 -61 -84v-234q0 -84 61 -84z" />
    <glyph glyph-name="uni03D7" unicode="&#x3d7;" 
d="M92 0v550h86v-296q0 -43 -1.5 -89t-9.5 -75l229 460h112v-479h42v-71q0 -88 -47.5 -134t-139.5 -46h-29v79h29q45 0 73 27.5t28 73.5h-42v297q0 44 1.5 90t9.5 75l-229 -462h-112z" />
    <glyph glyph-name="uni0401" unicode="&#x401;" 
d="M100 0v730h420v-82h-331v-226h296v-80h-296v-260h331v-82h-420zM421 817q-29 0 -46.5 17t-17.5 46q0 30 17.5 47.5t46.5 17.5t46.5 -17.5t17.5 -47.5q0 -29 -17.5 -46t-46.5 -17zM199 817q-29 0 -46.5 17t-17.5 46q0 30 17.5 47.5t46.5 17.5t46.5 -17.5t17.5 -47.5
q0 -29 -17.5 -46t-46.5 -17z" />
    <glyph glyph-name="uni0402" unicode="&#x402;" 
d="M260 -180v82h70q53 0 84 30.5t31 82.5v286q0 119 -87 119q-49 0 -107 -61l-51 -54v-305h-90v651h-110v79h320v-79h-120v-250l16 17q76 82 163 82q71 0 113.5 -48.5t42.5 -130.5v-306q0 -88 -56 -141.5t-149 -53.5h-70z" />
    <glyph glyph-name="uni0403" unicode="&#x403;" 
d="M130 0v730h425v-82h-335v-648h-90zM262 810l106 140h97l-111 -140h-92z" />
    <glyph glyph-name="uni0404" unicode="&#x404;" 
d="M308 -10q-100 0 -158 56t-58 154v330q0 98 58 154t158 56q98 0 156 -56.5t58 -153.5h-90q0 62 -32.5 95.5t-91.5 33.5t-92.5 -33.5t-33.5 -95.5v-111h223v-82h-223v-137q0 -62 33.5 -95.5t92.5 -33.5t91.5 33.5t32.5 95.5h90q0 -97 -58 -153.5t-156 -56.5z" />
    <glyph glyph-name="uni0405" unicode="&#x405;" 
d="M304 -10q-106 0 -169 56t-63 154h90q0 -61 39 -95.5t103 -34.5q62 0 99 36t37 94q0 44 -23.5 76.5t-67.5 44.5l-111 31q-69 20 -108.5 71.5t-39.5 121.5q0 58 26 102t73 68.5t108 24.5q62 0 109.5 -24.5t74.5 -68t27 -100.5h-90q0 50 -34 81.5t-87 31.5t-86 -31.5
t-33 -81.5q0 -40 21.5 -68.5t60.5 -39.5l114 -32q73 -20 113.5 -75.5t40.5 -131.5q0 -96 -61 -153t-163 -57z" />
    <glyph glyph-name="uni0406" unicode="&#x406;" 
d="M105 0v82h149v566h-149v82h390v-82h-149v-566h149v-82h-390z" />
    <glyph glyph-name="uni0407" unicode="&#x407;" 
d="M105 0v82h149v566h-149v82h390v-82h-149v-566h149v-82h-390zM411 817q-29 0 -46.5 17t-17.5 46q0 30 17.5 47.5t46.5 17.5t46.5 -17.5t17.5 -47.5q0 -29 -17.5 -46t-46.5 -17zM189 817q-29 0 -46.5 17t-17.5 46q0 30 17.5 47.5t46.5 17.5t46.5 -17.5t17.5 -47.5
q0 -29 -17.5 -46t-46.5 -17z" />
    <glyph glyph-name="uni0408" unicode="&#x408;" 
d="M270 -10q-105 0 -165 59t-60 161h90q0 -67 35.5 -103.5t99.5 -36.5t99.5 36.5t35.5 103.5v520h90v-520q0 -102 -60.5 -161t-164.5 -59z" />
    <glyph glyph-name="uni0409" unicode="&#x409;" 
d="M-5 -5v80h18q29 0 42 28.5t14 90.5l5 536h286v-300h60q72 0 116 -42.5t44 -112.5v-120q0 -70 -44 -112.5t-116 -42.5h-140v655h-123l-4 -461q-1 -104 -36 -151.5t-107 -47.5h-15zM360 75h60q36 0 56 22t20 58v120q0 36 -20 58t-56 22h-60v-280z" />
    <glyph glyph-name="uni040A" unicode="&#x40a;" 
d="M53 0v730h80v-300h147v300h80v-300h60q74 0 117 -42t43 -113v-120q0 -71 -43 -113t-117 -42h-140v355h-147v-355h-80zM360 75h60q38 0 59 21.5t21 58.5v120q0 38 -21 59t-59 21h-60v-280z" />
    <glyph glyph-name="uni040B" unicode="&#x40b;" 
d="M110 0v651h-110v79h320v-79h-120v-250l16 17q76 82 163 82q71 0 113.5 -48.5t42.5 -130.5v-321h-90v301q0 119 -87 119q-49 0 -107 -61l-51 -54v-305h-90z" />
    <glyph glyph-name="uni040C" unicode="&#x40c;" 
d="M92 0v730h90v-314h108l162 314h98l-181 -352l191 -378h-103l-170 337h-105v-337h-90zM242 810l106 140h97l-111 -140h-92z" />
    <glyph glyph-name="uni040E" unicode="&#x40e;" 
d="M191 0l74 189l-215 541h98l131 -357q13 -34 21 -64.5t10 -45.5q2 15 9 45.5t18 64.5l115 357h98l-263 -730h-96zM300 805q-72 0 -116 40t-44 105h71q0 -39 24 -63t64 -24q41 0 65.5 24t24.5 63h71q0 -65 -44 -105t-116 -40z" />
    <glyph glyph-name="uni040F" unicode="&#x40f;" 
d="M255 -125v125h-161v730h90v-648h232v648h90v-730h-161v-125h-90z" />
    <glyph glyph-name="uni0410" unicode="&#x410;" 
d="M50 0l190 730h121l189 -730h-91l-48 194h-221l-48 -194h-92zM208 270h184l-56 225q-16 64 -25 107t-11 56q-2 -13 -11 -56t-25 -106z" />
    <glyph glyph-name="uni0411" unicode="&#x411;" 
d="M94 0v730h406v-82h-316v-216h121q104 0 164.5 -59t60.5 -157q0 -97 -60.5 -156.5t-164.5 -59.5h-211zM184 82h121q62 0 97 36.5t35 97.5q0 62 -35 98t-97 36h-121v-268z" />
    <glyph glyph-name="uni0412" unicode="&#x412;" 
d="M93 0v730h207q100 0 156.5 -50t56.5 -139q0 -56 -35.5 -101t-92.5 -56v-3q43 -5 75.5 -30t51 -63.5t18.5 -84.5q0 -94 -57.5 -148.5t-157.5 -54.5h-222zM181 419h118q58 0 91.5 31t33.5 84t-33 84t-91 31h-119v-230zM181 81h124q63 0 99.5 33.5t36.5 91.5
q0 60 -36.5 97.5t-99.5 37.5h-124v-260z" />
    <glyph glyph-name="uni0413" unicode="&#x413;" 
d="M130 0v730h425v-82h-335v-648h-90z" />
    <glyph glyph-name="uni0414" unicode="&#x414;" 
d="M25 -140v217h45q17 30 35 90.5t19 130.5l7 432h374v-653h70v-217h-80v140h-390v-140h-80zM164 77h251v573h-198l-5 -352q-1 -77 -17 -136t-31 -85z" />
    <glyph glyph-name="uni0415" unicode="&#x415;" 
d="M100 0v730h420v-82h-331v-226h296v-80h-296v-260h331v-82h-420z" />
    <glyph glyph-name="uni0416" unicode="&#x416;" 
d="M6 0l134 379l-124 351h94l106 -319h46v319h76v-319h48l104 319h94l-125 -352l135 -378h-93l-117 343h-46v-343h-76v343h-48l-116 -343h-92z" />
    <glyph glyph-name="uni0417" unicode="&#x417;" 
d="M291 -10q-70 0 -123.5 26.5t-84 74t-31.5 109.5h90q2 -58 43.5 -94t106.5 -36q67 0 108.5 37.5t41.5 97.5t-41.5 97.5t-108.5 37.5h-86v80h87q57 0 92.5 34t35.5 88q0 53 -35 85.5t-91 32.5q-59 0 -96 -36t-37 -94h-90q0 63 28.5 110t78.5 73.5t116 26.5q64 0 112.5 -24
t76 -66.5t27.5 -98.5q0 -60 -32.5 -105.5t-84.5 -58.5v-3q62 -11 101 -62.5t39 -122.5q0 -62 -30.5 -109t-85.5 -73.5t-127 -26.5z" />
    <glyph glyph-name="uni0418" unicode="&#x418;" 
d="M90 0v730h87v-410q0 -36 -1.5 -76.5t-3.5 -77t-4 -61.5l222 625h120v-730h-87v410q0 37 1.5 77.5t4 77t4.5 60.5l-223 -625h-120z" />
    <glyph glyph-name="uni0419" unicode="&#x419;" 
d="M90 0v730h87v-410q0 -36 -1.5 -76.5t-3.5 -77t-4 -61.5l222 625h120v-730h-87v410q0 37 1.5 77.5t4 77t4.5 60.5l-223 -625h-120zM300 805q-72 0 -116 40t-44 105h71q0 -39 24 -63t64 -24q41 0 65.5 24t24.5 63h71q0 -65 -44 -105t-116 -40z" />
    <glyph glyph-name="uni041A" unicode="&#x41a;" 
d="M92 0v730h90v-314h108l162 314h98l-181 -352l191 -378h-103l-170 337h-105v-337h-90z" />
    <glyph glyph-name="uni041B" unicode="&#x41b;" 
d="M20 -5v84h18q44 0 63.5 39.5t20.5 135.5l8 476h376v-730h-90v648h-197l-7 -394q-2 -134 -42.5 -196.5t-126.5 -62.5h-23z" />
    <glyph glyph-name="uni041C" unicode="&#x41c;" 
d="M72 0v730h133l93 -316l97 316h133v-730h-87v345q0 49 1.5 112.5t4.5 128.5t7 117l-118 -377h-78l-113 368q8 -74 11 -162t3 -187v-345h-87z" />
    <glyph glyph-name="uni041D" unicode="&#x41d;" 
d="M93 0v730h90v-312h234v312h90v-730h-90v336h-234v-336h-90z" />
    <glyph glyph-name="uni041E" unicode="&#x41e;" 
d="M300 -10q-98 0 -155 57t-57 163v310q0 106 57 163t155 57t155 -57t57 -162v-311q0 -106 -57 -163t-155 -57zM300 71q59 0 90.5 33.5t31.5 95.5v330q0 62 -31.5 95.5t-90.5 33.5q-58 0 -90 -33.5t-32 -95.5v-330q0 -62 32 -95.5t90 -33.5z" />
    <glyph glyph-name="uni041F" unicode="&#x41f;" 
d="M94 0v730h412v-730h-90v648h-232v-648h-90z" />
    <glyph glyph-name="uni0420" unicode="&#x420;" 
d="M92 0v730h235q102 0 162.5 -58.5t60.5 -156.5t-60.5 -156.5t-162.5 -58.5h-145v-300h-90zM182 381h145q59 0 94.5 36.5t35.5 97.5q0 62 -35.5 98t-94.5 36h-145v-268z" />
    <glyph glyph-name="uni0421" unicode="&#x421;" 
d="M308 -10q-100 0 -158 56t-58 154v330q0 98 58 154t158 56q98 0 156 -56.5t58 -153.5h-90q0 62 -32.5 95.5t-91.5 33.5t-92.5 -33.5t-33.5 -95.5v-330q0 -62 33.5 -95.5t92.5 -33.5t91.5 33.5t32.5 95.5h90q0 -97 -58 -153.5t-156 -56.5z" />
    <glyph glyph-name="uni0422" unicode="&#x422;" 
d="M255 0v648h-200v82h490v-82h-200v-648h-90z" />
    <glyph glyph-name="uni0423" unicode="&#x423;" 
d="M191 0l74 189l-215 541h98l131 -357q13 -34 21 -64.5t10 -45.5q2 15 9 45.5t18 64.5l115 357h98l-263 -730h-96z" />
    <glyph glyph-name="uni0424" unicode="&#x424;" 
d="M255 -25v80q-60 0 -107 26t-74.5 72.5t-27.5 109.5v219q0 65 27 112.5t74.5 74t107.5 26.5v75h90v-75q61 0 108 -26.5t74 -74t27 -112.5v-219q0 -63 -27.5 -109.5t-74.5 -72.5t-107 -26v-80h-90zM259 131v488q-56 0 -92.5 -36.5t-36.5 -100.5v-219q0 -61 36.5 -96.5
t92.5 -35.5zM341 131q56 0 92.5 35.5t36.5 96.5v219q0 64 -36.5 100.5t-92.5 36.5v-488z" />
    <glyph glyph-name="uni0425" unicode="&#x425;" 
d="M40 0l210 370l-199 360h104l113 -216q9 -17 18.5 -36.5t15.5 -30.5q5 11 14.5 30.5t18.5 36.5l115 216h99l-199 -354l210 -376h-103l-125 232q-9 17 -18.5 36.5t-14.5 31.5q-5 -12 -14.5 -31t-18.5 -36l-126 -233h-100z" />
    <glyph glyph-name="uni0426" unicode="&#x426;" 
d="M485 -140v140h-391v730h90v-650h216v650h90v-650h75v-220h-80z" />
    <glyph glyph-name="uni0427" unicode="&#x427;" 
d="M415 0v271h-140q-94 0 -147 48t-53 132v279h90v-279q0 -48 31.5 -74t88.5 -26h130v379h90v-730h-90z" />
    <glyph glyph-name="uni0428" unicode="&#x428;" 
d="M62 0l-2 730h85v-652h119v652h74v-652h118v652h84v-730h-478z" />
    <glyph glyph-name="uni0429" unicode="&#x429;" 
d="M515 -140v140h-455v730h81v-652h120v652h70v-652h120v652h81v-652h63v-218h-80z" />
    <glyph glyph-name="uni042A" unicode="&#x42a;" 
d="M135 0v648h-140v82h230v-300h105q66 0 115.5 -27t77 -75t27.5 -113q0 -64 -27.5 -112.5t-77 -75.5t-115.5 -27h-195zM225 82h100q59 0 95.5 36.5t36.5 96.5t-36.5 96.5t-95.5 36.5h-100v-266z" />
    <glyph glyph-name="uni042B" unicode="&#x42b;" 
d="M60 0v730h84v-300h46q90 0 143 -51t53 -139v-51q0 -87 -53 -138t-143 -51h-130zM456 0v730h84v-730h-84zM144 79h46q51 0 81.5 30t30.5 81v50q0 51 -30.5 81t-81.5 30h-46v-272z" />
    <glyph glyph-name="uni042C" unicode="&#x42c;" 
d="M94 0v730h90v-300h146q66 0 115.5 -27t77 -75t27.5 -113q0 -64 -27.5 -112.5t-77 -75.5t-115.5 -27h-236zM184 82h141q59 0 95.5 36.5t36.5 96.5t-36.5 96.5t-95.5 36.5h-141v-266z" />
    <glyph glyph-name="uni042D" unicode="&#x42d;" 
d="M78 200h90q0 -62 33 -95.5t91 -33.5q59 0 92.5 33.5t33.5 95.5v137h-223v82h223v111q0 62 -33.5 95.5t-92.5 33.5q-58 0 -91 -33.5t-33 -95.5h-90q0 97 58 153.5t156 56.5q100 0 158 -56t58 -154v-330q0 -98 -58 -154t-158 -56q-98 0 -156 56.5t-58 153.5z" />
    <glyph glyph-name="uni042E" unicode="&#x42e;" 
d="M400 -10q-75 0 -119 50t-44 135v162h-94v-337h-83v730h83v-313h94v138q0 86 44 135.5t119 49.5q78 0 124 -49.5t46 -135.5v-380q0 -85 -46 -135t-124 -50zM400 64q41 0 64 29t23 82v380q0 53 -23 82t-64 29t-64 -29t-23 -82v-380q0 -53 23 -82t64 -29z" />
    <glyph glyph-name="uni042F" unicode="&#x42f;" 
d="M56 0l150 320q-66 20 -104 73t-38 127q0 63 27 110t76 73.5t114 26.5h224v-730h-90v310h-116l-139 -310h-104zM281 390h134v260h-134q-55 0 -89.5 -35.5t-34.5 -94.5q0 -58 34 -94t90 -36z" />
    <glyph glyph-name="uni0430" unicode="&#x430;" 
d="M252 -10q-85 0 -135 47.5t-50 124.5q0 51 23 89t64 59.5t94 21.5h170v43q0 107 -117 107q-52 0 -84 -19t-34 -53h-90q5 65 60.5 107.5t147.5 42.5q100 0 153.5 -48t53.5 -134v-378h-89v100h-2q-8 -51 -51 -80.5t-114 -29.5zM274 66q66 0 105 32t39 87v77h-160
q-44 0 -71.5 -26.5t-27.5 -70.5q0 -46 30.5 -72.5t84.5 -26.5z" />
    <glyph glyph-name="uni0431" unicode="&#x431;" 
d="M300 -10q-99 0 -156.5 58t-57.5 157v253q0 121 54.5 188t160.5 77l182 17v-89l-168 -15q-154 -14 -154 -178v-45q12 48 52.5 75.5t102.5 27.5q95 0 146.5 -58t51.5 -155v-98q0 -99 -57.5 -157t-156.5 -58zM300 70q58 0 91 36.5t33 98.5v98q0 62 -33 98.5t-91 36.5
t-91 -36.5t-33 -98.5v-98q0 -62 33 -98.5t91 -36.5z" />
    <glyph glyph-name="uni0432" unicode="&#x432;" 
d="M92 0v550h241q83 0 131 -37t48 -101q0 -46 -31.5 -77.5t-81.5 -35.5v-4q60 -4 93 -42t33 -98q0 -71 -51 -113t-138 -42h-244zM180 320h153q42 0 66 20t24 56q0 35 -24 55t-66 20h-153v-151zM180 79h156q47 0 73.5 22t26.5 62q0 39 -26.5 61t-73.5 22h-156v-167z" />
    <glyph glyph-name="uni0433" unicode="&#x433;" 
d="M135 0v550h395v-82h-305v-468h-90z" />
    <glyph glyph-name="uni0434" unicode="&#x434;" 
d="M27 -140v220h42q13 12 25.5 36.5t21.5 68.5t10 116l4 249h365v-470h75v-220h-80v140h-383v-140h-80zM159 80h246v392h-190l-2 -173q-1 -71 -9 -115t-19.5 -68.5t-25.5 -35.5z" />
    <glyph glyph-name="uni0435" unicode="&#x435;" 
d="M300 -10q-97 0 -156.5 58.5t-59.5 161.5v130q0 103 59.5 161.5t156.5 58.5q65 0 113.5 -26t75.5 -73t27 -111v-98h-344v-52q0 -61 35 -96.5t93 -35.5q50 0 82.5 19.5t39.5 52.5h90q-9 -69 -67 -109.5t-145 -40.5zM172 322h256v28q0 65 -33.5 100.5t-94.5 35.5
t-94.5 -35.5t-33.5 -100.5v-28z" />
    <glyph glyph-name="uni0436" unicode="&#x436;" 
d="M15 0l123 284l-115 266h86l101 -237h53v237h74v-237h51l104 237h85l-115 -263l123 -287h-89l-105 251h-54v-251h-74v251h-54l-106 -251h-88z" />
    <glyph glyph-name="uni0437" unicode="&#x437;" 
d="M266 -7q-90 0 -143 42.5t-53 115.5h90q0 -35 28.5 -56t77.5 -21h53q52 0 82 22.5t30 61.5q0 41 -30 64.5t-82 23.5h-120v78h117q47 0 74.5 21t27.5 57q0 35 -27 55.5t-74 20.5h-47q-44 0 -70.5 -17t-28.5 -46h-90q2 65 53 103.5t136 38.5h47q90 0 142.5 -37t52.5 -106
q0 -46 -31.5 -77.5t-81.5 -35.5v-4q60 -4 93 -42t33 -98q0 -75 -55.5 -119.5t-150.5 -44.5h-53z" />
    <glyph glyph-name="uni0438" unicode="&#x438;" 
d="M92 0v550h86v-296q0 -43 -1.5 -89t-9.5 -75l229 460h112v-550h-86v297q0 44 1.5 90t9.5 75l-229 -462h-112z" />
    <glyph glyph-name="uni0439" unicode="&#x439;" 
d="M92 0v550h86v-296q0 -43 -1.5 -89t-9.5 -75l229 460h112v-550h-86v297q0 44 1.5 90t9.5 75l-229 -462h-112zM300 640q-72 0 -116 40t-44 105h71q0 -39 24 -63t64 -24q41 0 65.5 24t24.5 63h71q0 -65 -44 -105t-116 -40z" />
    <glyph glyph-name="uni043A" unicode="&#x43a;" 
d="M103 0v550h90v-227h107l152 227h103l-178 -264l188 -286h-105l-159 241h-108v-241h-90z" />
    <glyph glyph-name="uni043B" unicode="&#x43b;" 
d="M25 -7v84h15q46 0 64.5 36t19.5 129l6 308h378v-550h-90v468h-199l-5 -230q-3 -131 -42 -188t-127 -57h-20z" />
    <glyph glyph-name="uni043C" unicode="&#x43c;" 
d="M72 0v550h118l108 -269l109 269h121v-550h-86v85q0 143 1.5 247t11.5 174l-117 -291h-82l-110 275q9 -62 10.5 -158t1.5 -247v-85h-86z" />
    <glyph glyph-name="uni043D" unicode="&#x43d;" 
d="M92 0v550h90v-227h236v227h90v-550h-90v241h-236v-241h-90z" />
    <glyph glyph-name="uni043E" unicode="&#x43e;" 
d="M300 -8q-99 0 -157.5 58t-58.5 162v126q0 105 58 162.5t158 57.5t158 -57.5t58 -162.5v-126q0 -104 -58.5 -162t-157.5 -58zM300 72q59 0 92.5 33t33.5 97v146q0 64 -33.5 97t-92.5 33q-58 0 -92 -33t-34 -97v-146q0 -64 34 -97t92 -33z" />
    <glyph glyph-name="uni043F" unicode="&#x43f;" 
d="M92 0v550h416v-550h-90v468h-236v-468h-90z" />
    <glyph glyph-name="uni0440" unicode="&#x440;" 
d="M92 -180v730h90v-105h1q7 54 47 84.5t102 30.5q83 0 132 -54.5t49 -149.5v-161q0 -95 -49 -150t-132 -55q-62 0 -102 31t-47 84h-3l2 -125v-160h-90zM302 68q57 0 89 30t32 97v160q0 68 -32 97.5t-89 29.5q-55 0 -87.5 -35t-32.5 -97v-150q0 -62 32.5 -97t87.5 -35z" />
    <glyph glyph-name="uni0441" unicode="&#x441;" 
d="M308 -10q-100 0 -160 56t-60 154v150q0 98 60 154t160 56q95 0 153.5 -51t61.5 -139h-90q-3 53 -36 81.5t-89 28.5q-59 0 -94.5 -33.5t-35.5 -95.5v-151q0 -62 35.5 -96t94.5 -34q56 0 89 29t36 81h90q-3 -88 -61.5 -139t-153.5 -51z" />
    <glyph glyph-name="uni0442" unicode="&#x442;" 
d="M255 0v468h-200v82h490v-82h-200v-468h-90z" />
    <glyph glyph-name="uni0443" unicode="&#x443;" 
d="M178 -180l81 214l-205 516h97l130 -340q8 -20 15 -42t10 -38q3 16 10 38t14 42l121 340h95l-274 -730h-94z" />
    <glyph glyph-name="uni0444" unicode="&#x444;" 
d="M255 -180v180q-61 2 -108 29t-73 74.5t-26 108.5v128q0 61 26 108t73 74t108 28v180h90v-180q62 -1 108.5 -28t72.5 -74t26 -108v-128q0 -61 -26 -108.5t-72.5 -74.5t-108.5 -29v-180h-90zM262 71v408q-60 0 -94.5 -35t-34.5 -94v-148q0 -60 34.5 -95.5t94.5 -35.5z
M338 71q60 0 94.5 35.5t34.5 95.5v148q0 59 -34.5 94t-94.5 35v-408z" />
    <glyph glyph-name="uni0445" unicode="&#x445;" 
d="M50 0l195 283l-183 267h106l109 -170q7 -11 13.5 -24l10.5 -21q3 8 9.5 21t13.5 24l109 170h106l-183 -268l194 -282h-106l-118 180q-7 11 -13.5 25.5t-11.5 23.5q-4 -9 -11.5 -23.5t-15.5 -25.5l-118 -180h-106z" />
    <glyph glyph-name="uni0446" unicode="&#x446;" 
d="M490 -140v140h-398v550h90v-470h223v470h90v-470h75v-220h-80z" />
    <glyph glyph-name="uni0447" unicode="&#x447;" 
d="M410 0v191h-147q-85 0 -135 45t-50 121v193h90v-193q0 -39 26.5 -62t71.5 -23h144v278h90v-550h-90z" />
    <glyph glyph-name="uni0448" unicode="&#x448;" 
d="M62 0l-2 550h85v-474h119v474h74v-474h118v474h84v-550h-478z" />
    <glyph glyph-name="uni0449" unicode="&#x449;" 
d="M515 -140v140h-455v550h81v-474h118v474h70v-474h118v474h81v-474h67v-216h-80z" />
    <glyph glyph-name="uni044A" unicode="&#x44a;" 
d="M165 0v470h-140v80h230v-202h115q93 0 146.5 -46.5t53.5 -127.5q0 -80 -54 -127t-146 -47h-205zM255 82h115q52 0 79.5 23.5t27.5 68.5t-27.5 68.5t-79.5 23.5h-115v-184z" />
    <glyph glyph-name="uni044B" unicode="&#x44b;" 
d="M60 0v550h84v-202h55q89 0 140.5 -47t51.5 -127t-51.5 -127t-140.5 -47h-139zM456 0v550h84v-550h-84zM144 72h55q52 0 82 27.5t30 74.5t-30 74.5t-82 27.5h-55v-204z" />
    <glyph glyph-name="uni044C" unicode="&#x44c;" 
d="M105 0v550h90v-202h157q93 0 146.5 -46.5t53.5 -127.5q0 -80 -54 -127t-146 -47h-247zM195 82h157q52 0 79.5 23.5t27.5 68.5t-27.5 68.5t-79.5 23.5h-157v-184z" />
    <glyph glyph-name="uni044D" unicode="&#x44d;" 
d="M294 -10q-95 0 -153 50.5t-61 135.5h90q3 -49 36 -77.5t88 -28.5q59 0 94 34t35 95v41h-183v80h183v30q0 62 -35 96t-94 34q-55 0 -88 -28t-36 -77h-90q3 84 61 134.5t153 50.5q100 0 159.5 -56t59.5 -154v-150q0 -98 -59.5 -154t-159.5 -56z" />
    <glyph glyph-name="uni044E" unicode="&#x44e;" 
d="M395 -10q-71 0 -112.5 46t-41.5 124v83h-98v-243h-83v550h83v-235h98v75q0 78 41.5 124t112.5 46q76 0 120.5 -46t44.5 -124v-230q0 -78 -44.5 -124t-120.5 -46zM396 60q38 0 59.5 27t21.5 73v230q0 46 -21.5 73t-59.5 27q-37 0 -58 -27t-21 -73v-230q0 -46 21 -73
t58 -27z" />
    <glyph glyph-name="uni044F" unicode="&#x44f;" 
d="M63 0l141 214q-58 14 -93 58.5t-35 105.5q0 80 54 126t146 46h232v-550h-90v208h-116l-130 -208h-109zM276 286h142v185h-142q-49 0 -78.5 -24.5t-29.5 -68.5q0 -43 29.5 -67.5t78.5 -24.5z" />
    <glyph glyph-name="uni0451" unicode="&#x451;" 
d="M300 -10q-97 0 -156.5 58.5t-59.5 161.5v130q0 103 59.5 161.5t156.5 58.5q65 0 113.5 -26t75.5 -73t27 -111v-98h-344v-52q0 -61 35 -96.5t93 -35.5q50 0 82.5 19.5t39.5 52.5h90q-9 -69 -67 -109.5t-145 -40.5zM172 322h256v28q0 65 -33.5 100.5t-94.5 35.5
t-94.5 -35.5t-33.5 -100.5v-28zM411 649q-29 0 -46.5 17t-17.5 46q0 30 17.5 47.5t46.5 17.5t46.5 -17.5t17.5 -47.5q0 -29 -17.5 -46t-46.5 -17zM189 649q-29 0 -46.5 17t-17.5 46q0 30 17.5 47.5t46.5 17.5t46.5 -17.5t17.5 -47.5q0 -29 -17.5 -46t-46.5 -17z" />
    <glyph glyph-name="uni0452" unicode="&#x452;" 
d="M250 -180v83h37q62 0 96.5 33.5t34.5 94.5v269q0 59 -30.5 91.5t-84.5 32.5q-56 0 -87.5 -35t-31.5 -99v-290h-90v570h-94v75h94v85h90v-85h166v-75h-166v-185h1q6 55 43.5 85t100.5 30q83 0 131 -51t48 -139v-279q0 -97 -60 -154t-161 -57h-37z" />
    <glyph glyph-name="uni0453" unicode="&#x453;" 
d="M135 0v550h395v-82h-305v-468h-90zM272 645l106 140h97l-111 -140h-92z" />
    <glyph glyph-name="uni0454" unicode="&#x454;" 
d="M306 -10q-100 0 -159.5 56t-59.5 154v150q0 98 59.5 154t159.5 56q95 0 153 -50.5t61 -134.5h-90q-3 49 -35.5 77t-88.5 28q-59 0 -94 -34t-35 -96v-30h183v-80h-183v-41q0 -61 35 -95t94 -34q56 0 88.5 28.5t35.5 77.5h90q-3 -85 -61 -135.5t-153 -50.5z" />
    <glyph glyph-name="uni0455" unicode="&#x455;" 
d="M278 -8q-92 0 -142.5 41.5t-50.5 117.5h90q0 -38 27 -59.5t76 -21.5h44q50 0 77.5 22t27.5 62q0 71 -65 80l-152 22q-56 8 -87 46.5t-31 101.5q0 72 49.5 113t136.5 41h44q80 0 130.5 -39.5t54.5 -103.5h-91q-2 29 -27.5 48t-66.5 19h-44q-46 0 -72 -21t-26 -57
q0 -58 53 -66l142 -20q140 -20 140 -164q0 -77 -50.5 -119.5t-142.5 -42.5h-44z" />
    <glyph glyph-name="uni0456" unicode="&#x456;" 
d="M85 0v82h195v386h-175v82h265v-468h185v-82h-470zM315 649q-33 0 -52 17t-19 46q0 30 19 47.5t52 17.5t52 -17.5t19 -47.5q0 -29 -19 -46t-52 -17z" />
    <glyph glyph-name="uni0457" unicode="&#x457;" 
d="M85 0v82h195v386h-175v82h265v-468h185v-82h-470zM426 649q-29 0 -46.5 17t-17.5 46q0 30 17.5 47.5t46.5 17.5t46.5 -17.5t17.5 -47.5q0 -29 -17.5 -46t-46.5 -17zM204 649q-29 0 -46.5 17t-17.5 46q0 30 17.5 47.5t46.5 17.5t46.5 -17.5t17.5 -47.5q0 -29 -17.5 -46
t-46.5 -17z" />
    <glyph glyph-name="uni0458" unicode="&#x458;" 
d="M90 -180v82h124q62 0 96.5 34t34.5 95v437h-260v82h350v-519q0 -97 -60 -154t-161 -57h-124zM380 649q-33 0 -52 17t-19 46q0 30 19 47.5t52 17.5t52 -17.5t19 -47.5q0 -29 -19 -46t-52 -17z" />
    <glyph glyph-name="uni0459" unicode="&#x459;" 
d="M5 -5v85h18q25 0 40 31t16 83l4 356h273v-200h62q72 0 116 -42.5t44 -111.5v-42q0 -69 -44 -111.5t-116 -42.5h-139v473h-113l-3 -279q-1 -91 -39.5 -145t-103.5 -54h-15zM356 74h62q36 0 55.5 22t19.5 58v42q0 36 -19.5 58t-55.5 22h-62v-202z" />
    <glyph glyph-name="uni045A" unicode="&#x45a;" 
d="M62 0v550h83v-200h139v200h73v-200h61q72 0 116 -42.5t44 -112.5v-40q0 -70 -44 -112.5t-116 -42.5h-134v275h-139v-275h-83zM357 75h61q36 0 56.5 22t20.5 58v40q0 36 -20.5 58t-56.5 22h-61v-200z" />
    <glyph glyph-name="uni045B" unicode="&#x45b;" 
d="M0 570v75h92v85h90v-85h168v-75h-168v-185h1q7 55 45 85t101 30q83 0 132 -51t49 -139v-310h-90v300q0 59 -31.5 91.5t-85.5 32.5q-56 0 -88.5 -35t-32.5 -99v-290h-90v570h-92z" />
    <glyph glyph-name="uni045C" unicode="&#x45c;" 
d="M103 0v550h90v-227h107l152 227h103l-178 -264l188 -286h-105l-159 241h-108v-241h-90zM245 645l106 140h97l-111 -140h-92z" />
    <glyph glyph-name="uni045E" unicode="&#x45e;" 
d="M178 -180l81 214l-205 516h97l130 -340q8 -20 15 -42t10 -38q3 16 10 38t14 42l121 340h95l-274 -730h-94zM300 640q-72 0 -116 40t-44 105h71q0 -39 24 -63t64 -24q41 0 65.5 24t24.5 63h71q0 -65 -44 -105t-116 -40z" />
    <glyph glyph-name="uni045F" unicode="&#x45f;" 
d="M255 -125v125h-163v550h90v-468h236v468h90v-550h-163v-125h-90z" />
    <glyph glyph-name="uni0490" unicode="&#x490;" 
d="M130 0v730h340v95h85v-177h-335v-648h-90z" />
    <glyph glyph-name="uni0491" unicode="&#x491;" 
d="M130 0v550h310v105h85v-187h-305v-468h-90z" />
    <glyph glyph-name="uni0492" unicode="&#x492;" 
d="M130 0v326h-100v80h100v324h425v-82h-335v-242h160v-80h-160v-326h-90z" />
    <glyph glyph-name="uni0493" unicode="&#x493;" 
d="M150 0v235h-100v82h100v233h395v-82h-305v-151h175v-82h-175v-235h-90z" />
    <glyph glyph-name="uni049A" unicode="&#x49a;" 
d="M81 0v730h90v-314h108l162 314h98l-181 -352l151 -298h76v-220h-80v140h-59l-170 337h-105v-337h-90z" />
    <glyph glyph-name="uni049B" unicode="&#x49b;" 
d="M92 0v550h90v-227h98l160 227h103l-185 -262l136 -208h76v-220h-80v140h-49l-160 245h-99v-245h-90z" />
    <glyph glyph-name="uni04A2" unicode="&#x4a2;" 
d="M89 0v730h90v-312h234v312h90v-650h47v-220h-80v140h-57v336h-234v-336h-90z" />
    <glyph glyph-name="uni04A3" unicode="&#x4a3;" 
d="M91 0v550h90v-229h232v229h90v-470h47v-220h-80v140h-57v239h-232v-239h-90z" />
    <glyph glyph-name="uni04AE" unicode="&#x4ae;" 
d="M255 0v273l-220 457h96l142 -300q12 -25 19 -42.5t9 -25.5q2 8 9.5 25.5t19.5 42.5l142 300h93l-220 -457v-273h-90z" />
    <glyph glyph-name="uni04AF" unicode="&#x4af;" 
d="M255 -180v180l-195 550h95l124 -365q12 -34 17 -60.5t8 -43.5q3 17 7.5 43.5t15.5 60.5l121 365h92l-195 -550v-180h-90z" />
    <glyph glyph-name="uni04B0" unicode="&#x4b0;" 
d="M125 198v75h130l-220 457h96l142 -300q12 -25 19 -42.5t9 -25.5q2 8 9.5 25.5t19.5 42.5l142 300h93l-220 -457h130v-75h-130v-198h-90v198h-130z" />
    <glyph glyph-name="uni04B1" unicode="&#x4b1;" 
d="M125 -75v75h130l-195 550h95l124 -365q12 -34 17 -60.5t8 -43.5q3 17 7.5 43.5t15.5 60.5l121 365h92l-195 -550h130v-75h-130v-105h-90v105h-130z" />
    <glyph glyph-name="uni04B6" unicode="&#x4b6;" 
d="M405 0v271h-140q-94 0 -147 48t-53 132v279h90v-279q0 -48 31.5 -74t88.5 -26h130v379h90v-650h47v-220h-80v140h-57z" />
    <glyph glyph-name="uni04B7" unicode="&#x4b7;" 
d="M405 0v191h-147q-85 0 -135 45t-50 121v193h90v-193q0 -39 26.5 -62t71.5 -23h144v278h90v-470h45v-220h-80v140h-55z" />
    <glyph glyph-name="uni04BA" unicode="&#x4ba;" 
d="M185 730v-271h140q94 0 147 -48t53 -132v-279h-90v279q0 48 -31.5 74t-88.5 26h-130v-379h-90v730h90z" />
    <glyph glyph-name="uni04BB" unicode="&#x4bb;" 
d="M190 550v-191h147q86 0 135.5 -44.5t49.5 -121.5v-193h-90v193q0 39 -26.5 62t-71.5 23h-144v-278h-90v550h90z" />
    <glyph glyph-name="uni04D8" unicode="&#x4d8;" 
d="M297 -10q-98 0 -155.5 56.5t-57.5 153.5v209h336v122q0 59 -33 94t-90 35t-90 -35t-33 -95h-90q0 97 57.5 153.5t155.5 56.5t155.5 -56.5t57.5 -153.5v-330q0 -97 -57.5 -153.5t-155.5 -56.5zM297 70q57 0 90 35t33 95v127h-246v-127q0 -60 33 -95t90 -35z" />
    <glyph glyph-name="uni04D9" unicode="&#x4d9;" 
d="M300 560q98 0 157 -58.5t59 -161.5v-130q0 -103 -59 -161.5t-157 -58.5q-65 0 -113.5 26t-75.5 73.5t-27 110.5v98h344v52q0 61 -34.5 96.5t-93.5 35.5q-50 0 -82.5 -19.5t-39.5 -52.5h-90q9 69 67 109.5t145 40.5zM428 228h-256v-28q0 -65 33.5 -100.5t94.5 -35.5
t94.5 35.5t33.5 100.5v28z" />
    <glyph glyph-name="uni04DC" unicode="&#x4dc;" 
d="M6 0l134 379l-124 351h94l106 -319h46v319h76v-319h48l104 319h94l-125 -352l135 -378h-93l-117 343h-46v-343h-76v343h-48l-116 -343h-92zM411 817q-29 0 -46.5 17t-17.5 46q0 30 17.5 47.5t46.5 17.5t46.5 -17.5t17.5 -47.5q0 -29 -17.5 -46t-46.5 -17zM189 817
q-29 0 -46.5 17t-17.5 46q0 30 17.5 47.5t46.5 17.5t46.5 -17.5t17.5 -47.5q0 -29 -17.5 -46t-46.5 -17z" />
    <glyph glyph-name="uni04DD" unicode="&#x4dd;" 
d="M15 0l123 284l-115 266h86l101 -237h53v237h74v-237h51l104 237h85l-115 -263l123 -287h-89l-105 251h-54v-251h-74v251h-54l-106 -251h-88zM411 649q-29 0 -46.5 17t-17.5 46q0 30 17.5 47.5t46.5 17.5t46.5 -17.5t17.5 -47.5q0 -29 -17.5 -46t-46.5 -17zM189 649
q-29 0 -46.5 17t-17.5 46q0 30 17.5 47.5t46.5 17.5t46.5 -17.5t17.5 -47.5q0 -29 -17.5 -46t-46.5 -17z" />
    <glyph glyph-name="uni04DE" unicode="&#x4de;" 
d="M291 -10q-70 0 -123.5 26.5t-84 74t-31.5 109.5h90q2 -58 43.5 -94t106.5 -36q67 0 108.5 37.5t41.5 97.5t-41.5 97.5t-108.5 37.5h-86v80h87q57 0 92.5 34t35.5 88q0 53 -35 85.5t-91 32.5q-59 0 -96 -36t-37 -94h-90q0 63 28.5 110t78.5 73.5t116 26.5q64 0 112.5 -24
t76 -66.5t27.5 -98.5q0 -60 -32.5 -105.5t-84.5 -58.5v-3q62 -11 101 -62.5t39 -122.5q0 -62 -30.5 -109t-85.5 -73.5t-127 -26.5zM411 817q-29 0 -46.5 17t-17.5 46q0 30 17.5 47.5t46.5 17.5t46.5 -17.5t17.5 -47.5q0 -29 -17.5 -46t-46.5 -17zM189 817q-29 0 -46.5 17
t-17.5 46q0 30 17.5 47.5t46.5 17.5t46.5 -17.5t17.5 -47.5q0 -29 -17.5 -46t-46.5 -17z" />
    <glyph glyph-name="uni04DF" unicode="&#x4df;" 
d="M266 -7q-90 0 -143 42.5t-53 115.5h90q0 -35 28.5 -56t77.5 -21h53q52 0 82 22.5t30 61.5q0 41 -30 64.5t-82 23.5h-120v78h117q47 0 74.5 21t27.5 57q0 35 -27 55.5t-74 20.5h-47q-44 0 -70.5 -17t-28.5 -46h-90q2 65 53 103.5t136 38.5h47q90 0 142.5 -37t52.5 -106
q0 -46 -31.5 -77.5t-81.5 -35.5v-4q60 -4 93 -42t33 -98q0 -75 -55.5 -119.5t-150.5 -44.5h-53zM411 649q-29 0 -46.5 17t-17.5 46q0 30 17.5 47.5t46.5 17.5t46.5 -17.5t17.5 -47.5q0 -29 -17.5 -46t-46.5 -17zM189 649q-29 0 -46.5 17t-17.5 46q0 30 17.5 47.5t46.5 17.5
t46.5 -17.5t17.5 -47.5q0 -29 -17.5 -46t-46.5 -17z" />
    <glyph glyph-name="uni04E4" unicode="&#x4e4;" 
d="M90 0v730h87v-410q0 -36 -1.5 -76.5t-3.5 -77t-4 -61.5l222 625h120v-730h-87v410q0 37 1.5 77.5t4 77t4.5 60.5l-223 -625h-120zM411 817q-29 0 -46.5 17t-17.5 46q0 30 17.5 47.5t46.5 17.5t46.5 -17.5t17.5 -47.5q0 -29 -17.5 -46t-46.5 -17zM189 817q-29 0 -46.5 17
t-17.5 46q0 30 17.5 47.5t46.5 17.5t46.5 -17.5t17.5 -47.5q0 -29 -17.5 -46t-46.5 -17z" />
    <glyph glyph-name="uni04E5" unicode="&#x4e5;" 
d="M92 0v550h86v-296q0 -43 -1.5 -89t-9.5 -75l229 460h112v-550h-86v297q0 44 1.5 90t9.5 75l-229 -462h-112zM411 649q-29 0 -46.5 17t-17.5 46q0 30 17.5 47.5t46.5 17.5t46.5 -17.5t17.5 -47.5q0 -29 -17.5 -46t-46.5 -17zM189 649q-29 0 -46.5 17t-17.5 46
q0 30 17.5 47.5t46.5 17.5t46.5 -17.5t17.5 -47.5q0 -29 -17.5 -46t-46.5 -17z" />
    <glyph glyph-name="uni04E6" unicode="&#x4e6;" 
d="M300 -10q-98 0 -155 57t-57 163v310q0 106 57 163t155 57t155 -57t57 -162v-311q0 -106 -57 -163t-155 -57zM300 71q59 0 90.5 33.5t31.5 95.5v330q0 62 -31.5 95.5t-90.5 33.5q-58 0 -90 -33.5t-32 -95.5v-330q0 -62 32 -95.5t90 -33.5zM411 817q-29 0 -46.5 17
t-17.5 46q0 30 17.5 47.5t46.5 17.5t46.5 -17.5t17.5 -47.5q0 -29 -17.5 -46t-46.5 -17zM189 817q-29 0 -46.5 17t-17.5 46q0 30 17.5 47.5t46.5 17.5t46.5 -17.5t17.5 -47.5q0 -29 -17.5 -46t-46.5 -17z" />
    <glyph glyph-name="uni04E7" unicode="&#x4e7;" 
d="M300 -8q-99 0 -157.5 58t-58.5 162v126q0 105 58 162.5t158 57.5t158 -57.5t58 -162.5v-126q0 -104 -58.5 -162t-157.5 -58zM300 72q59 0 92.5 33t33.5 97v146q0 64 -33.5 97t-92.5 33q-58 0 -92 -33t-34 -97v-146q0 -64 34 -97t92 -33zM411 649q-29 0 -46.5 17t-17.5 46
q0 30 17.5 47.5t46.5 17.5t46.5 -17.5t17.5 -47.5q0 -29 -17.5 -46t-46.5 -17zM189 649q-29 0 -46.5 17t-17.5 46q0 30 17.5 47.5t46.5 17.5t46.5 -17.5t17.5 -47.5q0 -29 -17.5 -46t-46.5 -17z" />
    <glyph glyph-name="uni04E8" unicode="&#x4e8;" 
d="M300 -10q-98 0 -154 56.5t-56 154.5v329q0 98 56 154t154 56t154 -56t56 -154v-329q0 -97 -56 -154t-154 -57zM179 414h242v116q0 64 -31 97.5t-90 33.5t-90 -33.5t-31 -97.5v-116zM300 69q59 0 90 34t31 98v133h-242v-133q0 -64 31.5 -98t89.5 -34z" />
    <glyph glyph-name="uni04E9" unicode="&#x4e9;" 
d="M300 -10q-97 0 -153.5 57t-56.5 154v149q0 98 56.5 154t153.5 56q96 0 153 -57t57 -152v-150q0 -97 -57 -154t-153 -57zM178 315h244v35q0 63 -31.5 97t-90.5 34q-58 0 -90 -34t-32 -97v-35zM300 69q59 0 90.5 34t31.5 98v39h-244v-39q0 -64 32 -98t90 -34z" />
    <glyph glyph-name="uni04F4" unicode="&#x4f4;" 
d="M415 0v271h-140q-94 0 -147 48t-53 132v279h90v-279q0 -48 31.5 -74t88.5 -26h130v379h90v-730h-90zM411 817q-29 0 -46.5 17t-17.5 46q0 30 17.5 47.5t46.5 17.5t46.5 -17.5t17.5 -47.5q0 -29 -17.5 -46t-46.5 -17zM189 817q-29 0 -46.5 17t-17.5 46q0 30 17.5 47.5
t46.5 17.5t46.5 -17.5t17.5 -47.5q0 -29 -17.5 -46t-46.5 -17z" />
    <glyph glyph-name="uni04F5" unicode="&#x4f5;" 
d="M410 0v191h-147q-85 0 -135 45t-50 121v193h90v-193q0 -39 26.5 -62t71.5 -23h144v278h90v-550h-90zM411 649q-29 0 -46.5 17t-17.5 46q0 30 17.5 47.5t46.5 17.5t46.5 -17.5t17.5 -47.5q0 -29 -17.5 -46t-46.5 -17zM189 649q-29 0 -46.5 17t-17.5 46q0 30 17.5 47.5
t46.5 17.5t46.5 -17.5t17.5 -47.5q0 -29 -17.5 -46t-46.5 -17z" />
    <glyph glyph-name="uni0AEA" unicode="&#xaea;" 
d="M300 -10q-67 0 -116.5 25t-76.5 68t-27 95q0 46 21.5 86.5t55.5 80.5l91 105l-172 200h104l121 -139l121 139h102l-172 -199l93 -107q35 -41 55 -81.5t20 -84.5q0 -52 -27 -95t-76 -68t-117 -25zM170 186q0 -48 35 -82t95 -34t95 34t35 82q0 55 -48 109l-82 96l-83 -96
q-22 -25 -34.5 -52.5t-12.5 -56.5z" />
    <glyph glyph-name="Wgrave" unicode="&#x1e80;" 
d="M107 0l-87 730h83l57 -540q4 -33 6 -68.5t3 -56.5q2 21 5.5 56.5t7.5 68.5l72 540h97l66 -540q4 -33 8 -68.5t6 -56.5q2 21 4.5 56.5t6.5 68.5l59 540h79l-89 -730h-113l-66 550q-4 34 -6 66.5t-4 50.5q-2 -18 -4 -50.5t-7 -66.5l-71 -550h-113zM267 810l-115 140h100
l110 -140h-95z" />
    <glyph glyph-name="wgrave" unicode="&#x1e81;" 
d="M121 0l-90 550h78l56 -388q3 -22 6 -48.5t4 -43.5q2 17 4.5 43.5t6.5 48.5l69 388h90l69 -388q4 -22 7.5 -48.5t4.5 -43.5q2 17 5 43.5t6 48.5l58 388h74l-94 -550h-99l-63 380q-4 28 -7.5 59.5t-5.5 48.5q-1 -17 -5 -48.5t-9 -59.5l-66 -380h-99zM267 645l-115 140h100
l110 -140h-95z" />
    <glyph glyph-name="Wacute" unicode="&#x1e82;" 
d="M107 0l-87 730h83l57 -540q4 -33 6 -68.5t3 -56.5q2 21 5.5 56.5t7.5 68.5l72 540h97l66 -540q4 -33 8 -68.5t6 -56.5q2 21 4.5 56.5t6.5 68.5l59 540h79l-89 -730h-113l-66 550q-4 34 -6 66.5t-4 50.5q-2 -18 -4 -50.5t-7 -66.5l-71 -550h-113zM242 810l106 140h97
l-111 -140h-92z" />
    <glyph glyph-name="wacute" unicode="&#x1e83;" 
d="M121 0l-90 550h78l56 -388q3 -22 6 -48.5t4 -43.5q2 17 4.5 43.5t6.5 48.5l69 388h90l69 -388q4 -22 7.5 -48.5t4.5 -43.5q2 17 5 43.5t6 48.5l58 388h74l-94 -550h-99l-63 380q-4 28 -7.5 59.5t-5.5 48.5q-1 -17 -5 -48.5t-9 -59.5l-66 -380h-99zM242 645l106 140h97
l-111 -140h-92z" />
    <glyph glyph-name="Wdieresis" unicode="&#x1e84;" 
d="M107 0l-87 730h83l57 -540q4 -33 6 -68.5t3 -56.5q2 21 5.5 56.5t7.5 68.5l72 540h97l66 -540q4 -33 8 -68.5t6 -56.5q2 21 4.5 56.5t6.5 68.5l59 540h79l-89 -730h-113l-66 550q-4 34 -6 66.5t-4 50.5q-2 -18 -4 -50.5t-7 -66.5l-71 -550h-113zM411 817q-29 0 -46.5 17
t-17.5 46q0 30 17.5 47.5t46.5 17.5t46.5 -17.5t17.5 -47.5q0 -29 -17.5 -46t-46.5 -17zM189 817q-29 0 -46.5 17t-17.5 46q0 30 17.5 47.5t46.5 17.5t46.5 -17.5t17.5 -47.5q0 -29 -17.5 -46t-46.5 -17z" />
    <glyph glyph-name="wdieresis" unicode="&#x1e85;" 
d="M121 0l-90 550h78l56 -388q3 -22 6 -48.5t4 -43.5q2 17 4.5 43.5t6.5 48.5l69 388h90l69 -388q4 -22 7.5 -48.5t4.5 -43.5q2 17 5 43.5t6 48.5l58 388h74l-94 -550h-99l-63 380q-4 28 -7.5 59.5t-5.5 48.5q-1 -17 -5 -48.5t-9 -59.5l-66 -380h-99zM411 649
q-29 0 -46.5 17t-17.5 46q0 30 17.5 47.5t46.5 17.5t46.5 -17.5t17.5 -47.5q0 -29 -17.5 -46t-46.5 -17zM189 649q-29 0 -46.5 17t-17.5 46q0 30 17.5 47.5t46.5 17.5t46.5 -17.5t17.5 -47.5q0 -29 -17.5 -46t-46.5 -17z" />
    <glyph glyph-name="uni1E9E" unicode="&#x1e9e;" 
d="M92 0v524q0 62 26 108.5t73.5 72t110.5 25.5h227v-88l-162 -219q78 -5 125.5 -61t47.5 -147q0 -64 -27 -112.5t-75 -75.5t-113 -27h-67v82h57q60 0 95 36t35 97q0 60 -35 95t-95 35h-45v78l164 225h-132q-55 0 -87.5 -33t-32.5 -91v-524h-90z" />
    <glyph glyph-name="uni1EA0" unicode="&#x1ea0;" 
d="M50 0l190 730h121l189 -730h-91l-48 194h-221l-48 -194h-92zM208 270h184l-56 225q-16 64 -25 107t-11 56q-2 -13 -11 -56t-25 -106zM300 -213q-33 0 -52 17t-19 46q0 30 19 47.5t52 17.5t52 -17.5t19 -47.5q0 -29 -19 -46t-52 -17z" />
    <glyph glyph-name="uni1EA1" unicode="&#x1ea1;" 
d="M252 -10q-85 0 -135 47.5t-50 124.5q0 51 23 89t64 59.5t94 21.5h170v43q0 107 -117 107q-52 0 -84 -19t-34 -53h-90q5 65 60.5 107.5t147.5 42.5q100 0 153.5 -48t53.5 -134v-378h-89v100h-2q-8 -51 -51 -80.5t-114 -29.5zM274 66q66 0 105 32t39 87v77h-160
q-44 0 -71.5 -26.5t-27.5 -70.5q0 -46 30.5 -72.5t84.5 -26.5zM305 -213q-33 0 -52 17t-19 46q0 30 19 47.5t52 17.5t52 -17.5t19 -47.5q0 -29 -19 -46t-52 -17z" />
    <glyph glyph-name="uni1EA2" unicode="&#x1ea2;" 
d="M50 0l190 730h121l189 -730h-91l-48 194h-221l-48 -194h-92zM208 270h184l-56 225q-16 64 -25 107t-11 56q-2 -13 -11 -56t-25 -106zM258 800l45 63q14 20 14 32q0 20 -32 20h-75v65h80q47 0 76 -20.5t29 -54.5q0 -28 -17 -53l-35 -52h-85z" />
    <glyph glyph-name="uni1EA3" unicode="&#x1ea3;" 
d="M252 -10q-85 0 -135 47.5t-50 124.5q0 51 23 89t64 59.5t94 21.5h170v43q0 107 -117 107q-52 0 -84 -19t-34 -53h-90q5 65 60.5 107.5t147.5 42.5q100 0 153.5 -48t53.5 -134v-378h-89v100h-2q-8 -51 -51 -80.5t-114 -29.5zM274 66q66 0 105 32t39 87v77h-160
q-44 0 -71.5 -26.5t-27.5 -70.5q0 -46 30.5 -72.5t84.5 -26.5zM263 645l50 63q14 19 14 32q0 20 -32 20h-80v65h105q38 0 61.5 -19.5t23.5 -54.5q0 -32 -17 -54l-40 -52h-85z" />
    <glyph glyph-name="uni1EA4" unicode="&#x1ea4;" 
d="M50 0l190 730h121l189 -730h-91l-48 194h-221l-48 -194h-92zM208 270h184l-56 225q-16 64 -25 107t-11 56q-2 -13 -11 -56t-25 -106zM408 900l105 120h102l-110 -120h-97zM120 780l138 140h84l139 -140h-101l-80 78l-81 -78h-99z" />
    <glyph glyph-name="uni1EA5" unicode="&#x1ea5;" 
d="M252 -10q-85 0 -135 47.5t-50 124.5q0 51 23 89t64 59.5t94 21.5h170v43q0 107 -117 107q-52 0 -84 -19t-34 -53h-90q5 65 60.5 107.5t147.5 42.5q100 0 153.5 -48t53.5 -134v-378h-89v100h-2q-8 -51 -51 -80.5t-114 -29.5zM274 66q66 0 105 32t39 87v77h-160
q-44 0 -71.5 -26.5t-27.5 -70.5q0 -46 30.5 -72.5t84.5 -26.5zM415 760l115 140h100l-120 -140h-95zM125 645l138 140h84l139 -140h-101l-80 78l-81 -78h-99z" />
    <glyph glyph-name="uni1EA6" unicode="&#x1ea6;" 
d="M50 0l190 730h121l189 -730h-91l-48 194h-221l-48 -194h-92zM208 270h184l-56 225q-16 64 -25 107t-11 56q-2 -13 -11 -56t-25 -106zM445 900l-120 120h100l115 -120h-95zM120 780l138 140h84l139 -140h-101l-80 78l-81 -78h-99z" />
    <glyph glyph-name="uni1EA7" unicode="&#x1ea7;" 
d="M252 -10q-85 0 -135 47.5t-50 124.5q0 51 23 89t64 59.5t94 21.5h170v43q0 107 -117 107q-52 0 -84 -19t-34 -53h-90q5 65 60.5 107.5t147.5 42.5q100 0 153.5 -48t53.5 -134v-378h-89v100h-2q-8 -51 -51 -80.5t-114 -29.5zM274 66q66 0 105 32t39 87v77h-160
q-44 0 -71.5 -26.5t-27.5 -70.5q0 -46 30.5 -72.5t84.5 -26.5zM455 760l-130 140h100l125 -140h-95zM125 645l138 140h84l139 -140h-101l-80 78l-81 -78h-99z" />
    <glyph glyph-name="uni1EA8" unicode="&#x1ea8;" 
d="M50 0l190 730h121l189 -730h-91l-48 194h-221l-48 -194h-92zM208 270h184l-56 225q-16 64 -25 107t-11 56q-2 -13 -11 -56t-25 -106zM420 880l48 47q8 8 8 19q0 16 -15 16h-66v58h85q32 0 51 -17t19 -45t-16 -44l-36 -34h-78zM120 780l138 140h84l139 -140h-101l-80 78
l-81 -78h-99z" />
    <glyph glyph-name="uni1EA9" unicode="&#x1ea9;" 
d="M252 -10q-85 0 -135 47.5t-50 124.5q0 51 23 89t64 59.5t94 21.5h170v43q0 107 -117 107q-52 0 -84 -19t-34 -53h-90q5 65 60.5 107.5t147.5 42.5q100 0 153.5 -48t53.5 -134v-378h-89v100h-2q-8 -51 -51 -80.5t-114 -29.5zM274 66q66 0 105 32t39 87v77h-160
q-44 0 -71.5 -26.5t-27.5 -70.5q0 -46 30.5 -72.5t84.5 -26.5zM428 760l45 61q9 14 9 24q0 25 -32 25h-50v60h55q46 0 73 -20t27 -55q0 -21 -17 -45l-35 -50h-75zM125 645l138 140h84l139 -140h-101l-80 78l-81 -78h-99z" />
    <glyph glyph-name="uni1EAA" unicode="&#x1eaa;" 
d="M50 0l190 730h121l189 -730h-91l-48 194h-221l-48 -194h-92zM208 270h184l-56 225q-16 64 -25 107t-11 56q-2 -13 -11 -56t-25 -106zM377 920q-31 0 -52 7t-36 16.5t-28.5 16.5t-30.5 7q-13 0 -21.5 -8t-8.5 -22v-7h-65v7q0 38 24.5 60.5t65.5 22.5q32 0 52.5 -7
t35 -16.5t27.5 -16.5t30 -7q14 0 22 8.5t8 21.5v7h65v-7q0 -38 -23.5 -60.5t-64.5 -22.5zM120 780l116 110h128l116 -110h-101l-79 73l-81 -73h-99z" />
    <glyph glyph-name="uni1EAB" unicode="&#x1eab;" 
d="M252 -10q-85 0 -135 47.5t-50 124.5q0 51 23 89t64 59.5t94 21.5h170v43q0 107 -117 107q-52 0 -84 -19t-34 -53h-90q5 65 60.5 107.5t147.5 42.5q100 0 153.5 -48t53.5 -134v-378h-89v100h-2q-8 -51 -51 -80.5t-114 -29.5zM274 66q66 0 105 32t39 87v77h-160
q-44 0 -71.5 -26.5t-27.5 -70.5q0 -46 30.5 -72.5t84.5 -26.5zM371 812q-31 0 -49.5 9.5t-30.5 22t-23 22t-28 9.5q-30 0 -30 -30v-25h-65v20q0 40 26 64t68 24q32 0 50.5 -9.5t30 -22t22.5 -22t28 -9.5q30 0 30 30v25h65v-20q0 -40 -26 -64t-68 -24zM125 645l138 140h84
l139 -140h-101l-80 78l-81 -78h-99z" />
    <glyph glyph-name="uni1EAC" unicode="&#x1eac;" 
d="M119 810l139 140h83l140 -140h-99l-82 78l-80 -78h-101zM50 0l190 730h121l189 -730h-91l-48 194h-221l-48 -194h-92zM208 270h184l-56 225q-16 64 -25 107t-11 56q-2 -13 -11 -56t-25 -106zM300 -213q-33 0 -52 17t-19 46q0 30 19 47.5t52 17.5t52 -17.5t19 -47.5
q0 -29 -19 -46t-52 -17z" />
    <glyph glyph-name="uni1EAD" unicode="&#x1ead;" 
d="M252 -10q-85 0 -135 47.5t-50 124.5q0 51 23 89t64 59.5t94 21.5h170v43q0 107 -117 107q-52 0 -84 -19t-34 -53h-90q5 65 60.5 107.5t147.5 42.5q100 0 153.5 -48t53.5 -134v-378h-89v100h-2q-8 -51 -51 -80.5t-114 -29.5zM274 66q66 0 105 32t39 87v77h-160
q-44 0 -71.5 -26.5t-27.5 -70.5q0 -46 30.5 -72.5t84.5 -26.5zM305 -213q-33 0 -52 17t-19 46q0 30 19 47.5t52 17.5t52 -17.5t19 -47.5q0 -29 -19 -46t-52 -17zM124 645l139 140h83l140 -140h-99l-82 78l-80 -78h-101z" />
    <glyph glyph-name="uni1EAE" unicode="&#x1eae;" 
d="M237 900l105 120h96l-110 -120h-91zM275 780q-64 0 -102 35t-38 95h70q0 -32 19 -51t51 -19h49q33 0 52 19t19 51h70q0 -60 -38 -95t-103 -35h-49zM50 0l190 730h121l189 -730h-91l-48 194h-221l-48 -194h-92zM208 270h184l-56 225q-16 64 -25 107t-11 56q-2 -13 -11 -56
t-25 -106z" />
    <glyph glyph-name="uni1EAF" unicode="&#x1eaf;" 
d="M252 -10q-85 0 -135 47.5t-50 124.5q0 51 23 89t64 59.5t94 21.5h170v43q0 107 -117 107q-52 0 -84 -19t-34 -53h-90q5 65 60.5 107.5t147.5 42.5q100 0 153.5 -48t53.5 -134v-378h-89v100h-2q-8 -51 -51 -80.5t-114 -29.5zM274 66q66 0 105 32t39 87v77h-160
q-44 0 -71.5 -26.5t-27.5 -70.5q0 -46 30.5 -72.5t84.5 -26.5zM242 760l115 130h96l-120 -130h-91zM305 640q-76 0 -123 36t-47 94h70q0 -31 27.5 -50.5t72.5 -19.5t72.5 19.5t27.5 50.5h70q0 -58 -46.5 -94t-123.5 -36z" />
    <glyph glyph-name="uni1EB0" unicode="&#x1eb0;" 
d="M50 0l190 730h121l189 -730h-91l-48 194h-221l-48 -194h-92zM208 270h184l-56 225q-16 64 -25 107t-11 56q-2 -13 -11 -56t-25 -106zM272 900l-100 120h96l95 -120h-91zM275 780q-64 0 -102 35t-38 95h70q0 -32 19 -51t51 -19h49q33 0 52 19t19 51h70q0 -60 -38 -95
t-103 -35h-49z" />
    <glyph glyph-name="uni1EB1" unicode="&#x1eb1;" 
d="M252 -10q-85 0 -135 47.5t-50 124.5q0 51 23 89t64 59.5t94 21.5h170v43q0 107 -117 107q-52 0 -84 -19t-34 -53h-90q5 65 60.5 107.5t147.5 42.5q100 0 153.5 -48t53.5 -134v-378h-89v100h-2q-8 -51 -51 -80.5t-114 -29.5zM274 66q66 0 105 32t39 87v77h-160
q-44 0 -71.5 -26.5t-27.5 -70.5q0 -46 30.5 -72.5t84.5 -26.5zM277 760l-120 130h96l115 -130h-91zM305 640q-76 0 -123 36t-47 94h70q0 -31 27.5 -50.5t72.5 -19.5t72.5 19.5t27.5 50.5h70q0 -58 -46.5 -94t-123.5 -36z" />
    <glyph glyph-name="uni1EB2" unicode="&#x1eb2;" 
d="M50 0l190 730h121l189 -730h-91l-48 194h-221l-48 -194h-92zM208 270h184l-56 225q-16 64 -25 107t-11 56q-2 -13 -11 -56t-25 -106zM254 880l47 56q7 8 7 16t-10 8h-73v60h97q26 0 40.5 -12.5t14.5 -35.5q0 -13 -4 -27t-12 -25l-32 -40h-75zM275 780q-64 0 -102 35
t-38 95h70q0 -32 19 -51t51 -19h49q33 0 52 19t19 51h70q0 -60 -38 -95t-103 -35h-49z" />
    <glyph glyph-name="uni1EB3" unicode="&#x1eb3;" 
d="M252 -10q-85 0 -135 47.5t-50 124.5q0 51 23 89t64 59.5t94 21.5h170v43q0 107 -117 107q-52 0 -84 -19t-34 -53h-90q5 65 60.5 107.5t147.5 42.5q100 0 153.5 -48t53.5 -134v-378h-89v100h-2q-8 -51 -51 -80.5t-114 -29.5zM274 66q66 0 105 32t39 87v77h-160
q-44 0 -71.5 -26.5t-27.5 -70.5q0 -46 30.5 -72.5t84.5 -26.5zM258 760l45 61q9 12 9 25q0 24 -27 24h-55v60h65q43 0 68.5 -19.5t25.5 -51.5q0 -13 -4.5 -25.5t-12.5 -23.5l-35 -50h-79zM305 640q-76 0 -123 36t-47 94h70q0 -31 27.5 -50.5t72.5 -19.5t72.5 19.5t27.5 50.5
h70q0 -58 -46.5 -94t-123.5 -36z" />
    <glyph glyph-name="uni1EB4" unicode="&#x1eb4;" 
d="M50 0l190 730h121l189 -730h-91l-48 194h-221l-48 -194h-92zM208 270h184l-56 225q-16 64 -25 107t-11 56q-2 -13 -11 -56t-25 -106zM377 920q-31 0 -52 7t-36 16.5t-28.5 16.5t-30.5 7q-13 0 -21.5 -8t-8.5 -22v-7h-65v7q0 38 24.5 60.5t65.5 22.5q32 0 52.5 -7
t35 -16.5t27.5 -16.5t30 -7q14 0 22 8.5t8 21.5v7h65v-7q0 -38 -23.5 -60.5t-64.5 -22.5zM275 780q-64 0 -102 30t-38 90h70q0 -32 19 -46t51 -14h49q33 0 52 14t19 46h70q0 -60 -38 -90t-103 -30h-49z" />
    <glyph glyph-name="uni1EB5" unicode="&#x1eb5;" 
d="M252 -10q-85 0 -135 47.5t-50 124.5q0 51 23 89t64 59.5t94 21.5h170v43q0 107 -117 107q-52 0 -84 -19t-34 -53h-90q5 65 60.5 107.5t147.5 42.5q100 0 153.5 -48t53.5 -134v-378h-89v100h-2q-8 -51 -51 -80.5t-114 -29.5zM274 66q66 0 105 32t39 87v77h-160
q-44 0 -71.5 -26.5t-27.5 -70.5q0 -46 30.5 -72.5t84.5 -26.5zM371 812q-31 0 -49.5 9.5t-30.5 22t-23 22t-28 9.5q-30 0 -30 -30v-25h-65v20q0 40 26 64t68 24q32 0 50.5 -9.5t30 -22t22.5 -22t28 -9.5q30 0 30 30v25h65v-20q0 -40 -26 -64t-68 -24zM305 645q-72 0 -116 36
t-44 94h65q0 -31 26 -51t68 -20q43 0 69.5 20t26.5 51h65q0 -58 -44 -94t-116 -36z" />
    <glyph glyph-name="uni1EB6" unicode="&#x1eb6;" 
d="M300 805q-72 0 -116 40t-44 105h71q0 -39 24 -63t64 -24q41 0 65.5 24t24.5 63h71q0 -65 -44 -105t-116 -40zM50 0l190 730h121l189 -730h-91l-48 194h-221l-48 -194h-92zM208 270h184l-56 225q-16 64 -25 107t-11 56q-2 -13 -11 -56t-25 -106zM300 -213q-33 0 -52 17
t-19 46q0 30 19 47.5t52 17.5t52 -17.5t19 -47.5q0 -29 -19 -46t-52 -17z" />
    <glyph glyph-name="uni1EB7" unicode="&#x1eb7;" 
d="M252 -10q-85 0 -135 47.5t-50 124.5q0 51 23 89t64 59.5t94 21.5h170v43q0 107 -117 107q-52 0 -84 -19t-34 -53h-90q5 65 60.5 107.5t147.5 42.5q100 0 153.5 -48t53.5 -134v-378h-89v100h-2q-8 -51 -51 -80.5t-114 -29.5zM274 66q66 0 105 32t39 87v77h-160
q-44 0 -71.5 -26.5t-27.5 -70.5q0 -46 30.5 -72.5t84.5 -26.5zM305 -213q-33 0 -52 17t-19 46q0 30 19 47.5t52 17.5t52 -17.5t19 -47.5q0 -29 -19 -46t-52 -17zM305 640q-72 0 -116 40t-44 105h71q0 -39 24 -63t64 -24q41 0 65.5 24t24.5 63h71q0 -65 -44 -105t-116 -40z
" />
    <glyph glyph-name="uni1EB8" unicode="&#x1eb8;" 
d="M100 0v730h420v-82h-331v-226h296v-80h-296v-260h331v-82h-420zM310 -213q-33 0 -52 17t-19 46q0 30 19 47.5t52 17.5t52 -17.5t19 -47.5q0 -29 -19 -46t-52 -17z" />
    <glyph glyph-name="uni1EB9" unicode="&#x1eb9;" 
d="M300 -10q-97 0 -156.5 58.5t-59.5 161.5v130q0 103 59.5 161.5t156.5 58.5q65 0 113.5 -26t75.5 -73t27 -111v-98h-344v-52q0 -61 35 -96.5t93 -35.5q50 0 82.5 19.5t39.5 52.5h90q-9 -69 -67 -109.5t-145 -40.5zM172 322h256v28q0 65 -33.5 100.5t-94.5 35.5
t-94.5 -35.5t-33.5 -100.5v-28zM300 -213q-33 0 -52 17t-19 46q0 30 19 47.5t52 17.5t52 -17.5t19 -47.5q0 -29 -19 -46t-52 -17z" />
    <glyph glyph-name="uni1EBA" unicode="&#x1eba;" 
d="M100 0v730h420v-82h-331v-226h296v-80h-296v-260h331v-82h-420zM268 800l45 63q14 20 14 32q0 20 -32 20h-75v65h80q47 0 76 -20.5t29 -54.5q0 -28 -17 -53l-35 -52h-85z" />
    <glyph glyph-name="uni1EBB" unicode="&#x1ebb;" 
d="M300 -10q-97 0 -156.5 58.5t-59.5 161.5v130q0 103 59.5 161.5t156.5 58.5q65 0 113.5 -26t75.5 -73t27 -111v-98h-344v-52q0 -61 35 -96.5t93 -35.5q50 0 82.5 19.5t39.5 52.5h90q-9 -69 -67 -109.5t-145 -40.5zM172 322h256v28q0 65 -33.5 100.5t-94.5 35.5
t-94.5 -35.5t-33.5 -100.5v-28zM258 645l50 63q14 19 14 32q0 20 -32 20h-80v65h105q38 0 61.5 -19.5t23.5 -54.5q0 -32 -17 -54l-40 -52h-85z" />
    <glyph glyph-name="uni1EBC" unicode="&#x1ebc;" 
d="M100 0v730h420v-82h-331v-226h296v-80h-296v-260h331v-82h-420zM380 815q-30 0 -49 10.5t-32 24.5t-25 24.5t-29 10.5q-30 0 -30 -35v-30h-65v30q0 45 25 70t65 25q30 0 49 -10.5t32 -24.5t25 -24.5t29 -10.5q30 0 30 35v30h65v-30q0 -45 -24.5 -70t-65.5 -25z" />
    <glyph glyph-name="uni1EBD" unicode="&#x1ebd;" 
d="M300 -10q-97 0 -156.5 58.5t-59.5 161.5v130q0 103 59.5 161.5t156.5 58.5q65 0 113.5 -26t75.5 -73t27 -111v-98h-344v-52q0 -61 35 -96.5t93 -35.5q50 0 82.5 19.5t39.5 52.5h90q-9 -69 -67 -109.5t-145 -40.5zM172 322h256v28q0 65 -33.5 100.5t-94.5 35.5
t-94.5 -35.5t-33.5 -100.5v-28zM370 650q-30 0 -49 10.5t-32 24.5t-25 24.5t-29 10.5q-30 0 -30 -35v-30h-65v30q0 45 25 70t65 25q30 0 49 -10.5t32 -24.5t25 -24.5t29 -10.5q30 0 30 35v30h65v-30q0 -45 -24.5 -70t-65.5 -25z" />
    <glyph glyph-name="uni1EBE" unicode="&#x1ebe;" 
d="M100 0v730h420v-82h-331v-226h296v-80h-296v-260h331v-82h-420zM418 900l105 120h102l-110 -120h-97zM130 780l138 140h84l139 -140h-101l-80 78l-81 -78h-99z" />
    <glyph glyph-name="uni1EBF" unicode="&#x1ebf;" 
d="M300 -10q-97 0 -156.5 58.5t-59.5 161.5v130q0 103 59.5 161.5t156.5 58.5q65 0 113.5 -26t75.5 -73t27 -111v-98h-344v-52q0 -61 35 -96.5t93 -35.5q50 0 82.5 19.5t39.5 52.5h90q-9 -69 -67 -109.5t-145 -40.5zM172 322h256v28q0 65 -33.5 100.5t-94.5 35.5
t-94.5 -35.5t-33.5 -100.5v-28zM410 760l115 140h100l-120 -140h-95zM120 645l138 140h84l139 -140h-101l-80 78l-81 -78h-99z" />
    <glyph glyph-name="uni1EC0" unicode="&#x1ec0;" 
d="M100 0v730h420v-82h-331v-226h296v-80h-296v-260h331v-82h-420zM455 900l-120 120h100l115 -120h-95zM130 780l138 140h84l139 -140h-101l-80 78l-81 -78h-99z" />
    <glyph glyph-name="uni1EC1" unicode="&#x1ec1;" 
d="M300 -10q-97 0 -156.5 58.5t-59.5 161.5v130q0 103 59.5 161.5t156.5 58.5q65 0 113.5 -26t75.5 -73t27 -111v-98h-344v-52q0 -61 35 -96.5t93 -35.5q50 0 82.5 19.5t39.5 52.5h90q-9 -69 -67 -109.5t-145 -40.5zM172 322h256v28q0 65 -33.5 100.5t-94.5 35.5
t-94.5 -35.5t-33.5 -100.5v-28zM450 760l-130 140h100l125 -140h-95zM120 645l138 140h84l139 -140h-101l-80 78l-81 -78h-99z" />
    <glyph glyph-name="uni1EC2" unicode="&#x1ec2;" 
d="M100 0v730h420v-82h-331v-226h296v-80h-296v-260h331v-82h-420zM430 880l48 47q8 8 8 19q0 16 -15 16h-66v58h85q32 0 51 -17t19 -45t-16 -44l-36 -34h-78zM130 780l138 140h84l139 -140h-101l-80 78l-81 -78h-99z" />
    <glyph glyph-name="uni1EC3" unicode="&#x1ec3;" 
d="M300 -10q-97 0 -156.5 58.5t-59.5 161.5v130q0 103 59.5 161.5t156.5 58.5q65 0 113.5 -26t75.5 -73t27 -111v-98h-344v-52q0 -61 35 -96.5t93 -35.5q50 0 82.5 19.5t39.5 52.5h90q-9 -69 -67 -109.5t-145 -40.5zM172 322h256v28q0 65 -33.5 100.5t-94.5 35.5
t-94.5 -35.5t-33.5 -100.5v-28zM423 760l45 61q9 14 9 24q0 25 -32 25h-50v60h55q46 0 73 -20t27 -55q0 -21 -17 -45l-35 -50h-75zM120 645l138 140h84l139 -140h-101l-80 78l-81 -78h-99z" />
    <glyph glyph-name="uni1EC4" unicode="&#x1ec4;" 
d="M100 0v730h420v-82h-331v-226h296v-80h-296v-260h331v-82h-420zM387 920q-31 0 -52 7t-36 16.5t-28.5 16.5t-30.5 7q-13 0 -21.5 -8t-8.5 -22v-7h-65v7q0 38 24.5 60.5t65.5 22.5q32 0 52.5 -7t35 -16.5t27.5 -16.5t30 -7q14 0 22 8.5t8 21.5v7h65v-7q0 -38 -23.5 -60.5
t-64.5 -22.5zM130 780l116 110h128l116 -110h-101l-79 73l-81 -73h-99z" />
    <glyph glyph-name="uni1EC5" unicode="&#x1ec5;" 
d="M300 -10q-97 0 -156.5 58.5t-59.5 161.5v130q0 103 59.5 161.5t156.5 58.5q65 0 113.5 -26t75.5 -73t27 -111v-98h-344v-52q0 -61 35 -96.5t93 -35.5q50 0 82.5 19.5t39.5 52.5h90q-9 -69 -67 -109.5t-145 -40.5zM172 322h256v28q0 65 -33.5 100.5t-94.5 35.5
t-94.5 -35.5t-33.5 -100.5v-28zM366 812q-31 0 -49.5 9.5t-30.5 22t-23 22t-28 9.5q-30 0 -30 -30v-25h-65v20q0 40 26 64t68 24q32 0 50.5 -9.5t30 -22t22.5 -22t28 -9.5q30 0 30 30v25h65v-20q0 -40 -26 -64t-68 -24zM120 645l138 140h84l139 -140h-101l-80 78l-81 -78
h-99z" />
    <glyph glyph-name="uni1EC6" unicode="&#x1ec6;" 
d="M100 0v730h420v-82h-331v-226h296v-80h-296v-260h331v-82h-420zM310 -213q-33 0 -52 17t-19 46q0 30 19 47.5t52 17.5t52 -17.5t19 -47.5q0 -29 -19 -46t-52 -17zM129 810l139 140h83l140 -140h-99l-82 78l-80 -78h-101z" />
    <glyph glyph-name="uni1EC7" unicode="&#x1ec7;" 
d="M300 -10q-97 0 -156.5 58.5t-59.5 161.5v130q0 103 59.5 161.5t156.5 58.5q65 0 113.5 -26t75.5 -73t27 -111v-98h-344v-52q0 -61 35 -96.5t93 -35.5q50 0 82.5 19.5t39.5 52.5h90q-9 -69 -67 -109.5t-145 -40.5zM172 322h256v28q0 65 -33.5 100.5t-94.5 35.5
t-94.5 -35.5t-33.5 -100.5v-28zM300 -213q-33 0 -52 17t-19 46q0 30 19 47.5t52 17.5t52 -17.5t19 -47.5q0 -29 -19 -46t-52 -17zM119 645l139 140h83l140 -140h-99l-82 78l-80 -78h-101z" />
    <glyph glyph-name="uni1EC8" unicode="&#x1ec8;" 
d="M105 0v82h149v566h-149v82h390v-82h-149v-566h149v-82h-390zM258 800l45 63q14 20 14 32q0 20 -32 20h-75v65h80q47 0 76 -20.5t29 -54.5q0 -28 -17 -53l-35 -52h-85z" />
    <glyph glyph-name="uni1EC9" unicode="&#x1ec9;" 
d="M85 0v82h195v386h-175v82h265v-468h185v-82h-470zM273 645l50 63q14 19 14 32q0 20 -32 20h-80v65h105q38 0 61.5 -19.5t23.5 -54.5q0 -32 -17 -54l-40 -52h-85z" />
    <glyph glyph-name="uni1ECA" unicode="&#x1eca;" 
d="M105 0v82h149v566h-149v82h390v-82h-149v-566h149v-82h-390zM300 -213q-33 0 -52 17t-19 46q0 30 19 47.5t52 17.5t52 -17.5t19 -47.5q0 -29 -19 -46t-52 -17z" />
    <glyph glyph-name="uni1ECB" unicode="&#x1ecb;" 
d="M85 0v82h195v386h-175v82h265v-468h185v-82h-470zM315 649q-33 0 -52 17t-19 46q0 30 19 47.5t52 17.5t52 -17.5t19 -47.5q0 -29 -19 -46t-52 -17zM315 -213q-33 0 -52 17t-19 46q0 30 19 47.5t52 17.5t52 -17.5t19 -47.5q0 -29 -19 -46t-52 -17z" />
    <glyph glyph-name="uni1ECC" unicode="&#x1ecc;" 
d="M300 -10q-98 0 -155 57t-57 163v310q0 106 57 163t155 57t155 -57t57 -162v-311q0 -106 -57 -163t-155 -57zM300 71q59 0 90.5 33.5t31.5 95.5v330q0 62 -31.5 95.5t-90.5 33.5q-58 0 -90 -33.5t-32 -95.5v-330q0 -62 32 -95.5t90 -33.5zM300 -213q-33 0 -52 17t-19 46
q0 30 19 47.5t52 17.5t52 -17.5t19 -47.5q0 -29 -19 -46t-52 -17z" />
    <glyph glyph-name="uni1ECD" unicode="&#x1ecd;" 
d="M300 -8q-99 0 -157.5 58t-58.5 162v126q0 105 58 162.5t158 57.5t158 -57.5t58 -162.5v-126q0 -104 -58.5 -162t-157.5 -58zM300 72q59 0 92.5 33t33.5 97v146q0 64 -33.5 97t-92.5 33q-58 0 -92 -33t-34 -97v-146q0 -64 34 -97t92 -33zM300 -213q-33 0 -52 17t-19 46
q0 30 19 47.5t52 17.5t52 -17.5t19 -47.5q0 -29 -19 -46t-52 -17z" />
    <glyph glyph-name="uni1ECE" unicode="&#x1ece;" 
d="M300 -10q-98 0 -155 57t-57 163v310q0 106 57 163t155 57t155 -57t57 -162v-311q0 -106 -57 -163t-155 -57zM300 71q59 0 90.5 33.5t31.5 95.5v330q0 62 -31.5 95.5t-90.5 33.5q-58 0 -90 -33.5t-32 -95.5v-330q0 -62 32 -95.5t90 -33.5zM258 800l45 63q14 20 14 32
q0 20 -32 20h-75v65h80q47 0 76 -20.5t29 -54.5q0 -28 -17 -53l-35 -52h-85z" />
    <glyph glyph-name="uni1ECF" unicode="&#x1ecf;" 
d="M300 -8q-99 0 -157.5 58t-58.5 162v126q0 105 58 162.5t158 57.5t158 -57.5t58 -162.5v-126q0 -104 -58.5 -162t-157.5 -58zM300 72q59 0 92.5 33t33.5 97v146q0 64 -33.5 97t-92.5 33q-58 0 -92 -33t-34 -97v-146q0 -64 34 -97t92 -33zM258 645l50 63q14 19 14 32
q0 20 -32 20h-80v65h105q38 0 61.5 -19.5t23.5 -54.5q0 -32 -17 -54l-40 -52h-85z" />
    <glyph glyph-name="uni1ED0" unicode="&#x1ed0;" 
d="M300 -10q-98 0 -155 57t-57 163v310q0 106 57 163t155 57t155 -57t57 -162v-311q0 -106 -57 -163t-155 -57zM300 71q59 0 90.5 33.5t31.5 95.5v330q0 62 -31.5 95.5t-90.5 33.5q-58 0 -90 -33.5t-32 -95.5v-330q0 -62 32 -95.5t90 -33.5zM408 900l105 120h102l-110 -120
h-97zM120 780l138 140h84l139 -140h-101l-80 78l-81 -78h-99z" />
    <glyph glyph-name="uni1ED1" unicode="&#x1ed1;" 
d="M300 -8q-99 0 -157.5 58t-58.5 162v126q0 105 58 162.5t158 57.5t158 -57.5t58 -162.5v-126q0 -104 -58.5 -162t-157.5 -58zM300 72q59 0 92.5 33t33.5 97v146q0 64 -33.5 97t-92.5 33q-58 0 -92 -33t-34 -97v-146q0 -64 34 -97t92 -33zM410 760l115 140h100l-120 -140
h-95zM120 645l138 140h84l139 -140h-101l-80 78l-81 -78h-99z" />
    <glyph glyph-name="uni1ED2" unicode="&#x1ed2;" 
d="M300 -10q-98 0 -155 57t-57 163v310q0 106 57 163t155 57t155 -57t57 -162v-311q0 -106 -57 -163t-155 -57zM300 71q59 0 90.5 33.5t31.5 95.5v330q0 62 -31.5 95.5t-90.5 33.5q-58 0 -90 -33.5t-32 -95.5v-330q0 -62 32 -95.5t90 -33.5zM445 900l-120 120h100l115 -120
h-95zM120 780l138 140h84l139 -140h-101l-80 78l-81 -78h-99z" />
    <glyph glyph-name="uni1ED3" unicode="&#x1ed3;" 
d="M300 -8q-99 0 -157.5 58t-58.5 162v126q0 105 58 162.5t158 57.5t158 -57.5t58 -162.5v-126q0 -104 -58.5 -162t-157.5 -58zM300 72q59 0 92.5 33t33.5 97v146q0 64 -33.5 97t-92.5 33q-58 0 -92 -33t-34 -97v-146q0 -64 34 -97t92 -33zM450 760l-130 140h100l125 -140
h-95zM120 645l138 140h84l139 -140h-101l-80 78l-81 -78h-99z" />
    <glyph glyph-name="uni1ED4" unicode="&#x1ed4;" 
d="M300 -10q-98 0 -155 57t-57 163v310q0 106 57 163t155 57t155 -57t57 -162v-311q0 -106 -57 -163t-155 -57zM300 71q59 0 90.5 33.5t31.5 95.5v330q0 62 -31.5 95.5t-90.5 33.5q-58 0 -90 -33.5t-32 -95.5v-330q0 -62 32 -95.5t90 -33.5zM420 880l48 47q8 8 8 19
q0 16 -15 16h-66v58h85q32 0 51 -17t19 -45t-16 -44l-36 -34h-78zM120 780l138 140h84l139 -140h-101l-80 78l-81 -78h-99z" />
    <glyph glyph-name="uni1ED5" unicode="&#x1ed5;" 
d="M300 -8q-99 0 -157.5 58t-58.5 162v126q0 105 58 162.5t158 57.5t158 -57.5t58 -162.5v-126q0 -104 -58.5 -162t-157.5 -58zM300 72q59 0 92.5 33t33.5 97v146q0 64 -33.5 97t-92.5 33q-58 0 -92 -33t-34 -97v-146q0 -64 34 -97t92 -33zM423 760l45 61q9 14 9 24
q0 25 -32 25h-50v60h55q46 0 73 -20t27 -55q0 -21 -17 -45l-35 -50h-75zM120 645l138 140h84l139 -140h-101l-80 78l-81 -78h-99z" />
    <glyph glyph-name="uni1ED6" unicode="&#x1ed6;" 
d="M300 -10q-98 0 -155 57t-57 163v310q0 106 57 163t155 57t155 -57t57 -162v-311q0 -106 -57 -163t-155 -57zM300 71q59 0 90.5 33.5t31.5 95.5v330q0 62 -31.5 95.5t-90.5 33.5q-58 0 -90 -33.5t-32 -95.5v-330q0 -62 32 -95.5t90 -33.5zM377 920q-31 0 -52 7t-36 16.5
t-28.5 16.5t-30.5 7q-13 0 -21.5 -8t-8.5 -22v-7h-65v7q0 38 24.5 60.5t65.5 22.5q32 0 52.5 -7t35 -16.5t27.5 -16.5t30 -7q14 0 22 8.5t8 21.5v7h65v-7q0 -38 -23.5 -60.5t-64.5 -22.5zM120 780l116 110h128l116 -110h-101l-79 73l-81 -73h-99z" />
    <glyph glyph-name="uni1ED7" unicode="&#x1ed7;" 
d="M300 -8q-99 0 -157.5 58t-58.5 162v126q0 105 58 162.5t158 57.5t158 -57.5t58 -162.5v-126q0 -104 -58.5 -162t-157.5 -58zM300 72q59 0 92.5 33t33.5 97v146q0 64 -33.5 97t-92.5 33q-58 0 -92 -33t-34 -97v-146q0 -64 34 -97t92 -33zM366 812q-31 0 -49.5 9.5
t-30.5 22t-23 22t-28 9.5q-30 0 -30 -30v-25h-65v20q0 40 26 64t68 24q32 0 50.5 -9.5t30 -22t22.5 -22t28 -9.5q30 0 30 30v25h65v-20q0 -40 -26 -64t-68 -24zM120 645l138 140h84l139 -140h-101l-80 78l-81 -78h-99z" />
    <glyph glyph-name="uni1ED8" unicode="&#x1ed8;" 
d="M300 -10q-98 0 -155 57t-57 163v310q0 106 57 163t155 57t155 -57t57 -162v-311q0 -106 -57 -163t-155 -57zM300 71q59 0 90.5 33.5t31.5 95.5v330q0 62 -31.5 95.5t-90.5 33.5q-58 0 -90 -33.5t-32 -95.5v-330q0 -62 32 -95.5t90 -33.5zM300 -213q-33 0 -52 17t-19 46
q0 30 19 47.5t52 17.5t52 -17.5t19 -47.5q0 -29 -19 -46t-52 -17zM119 810l139 140h83l140 -140h-99l-82 78l-80 -78h-101z" />
    <glyph glyph-name="uni1ED9" unicode="&#x1ed9;" 
d="M300 -8q-99 0 -157.5 58t-58.5 162v126q0 105 58 162.5t158 57.5t158 -57.5t58 -162.5v-126q0 -104 -58.5 -162t-157.5 -58zM300 72q59 0 92.5 33t33.5 97v146q0 64 -33.5 97t-92.5 33q-58 0 -92 -33t-34 -97v-146q0 -64 34 -97t92 -33zM300 -213q-33 0 -52 17t-19 46
q0 30 19 47.5t52 17.5t52 -17.5t19 -47.5q0 -29 -19 -46t-52 -17zM119 645l139 140h83l140 -140h-99l-82 78l-80 -78h-101z" />
    <glyph glyph-name="uni1EDA" unicode="&#x1eda;" 
d="M300 -10q-98 0 -155 57t-57 163v310q0 106 57 163t155 57q80 0 133 -38q22 7 22 33v75h75v-80q0 -58 -48 -83q30 -51 30 -126v-311q0 -106 -57 -163t-155 -57zM300 71q59 0 90.5 33.5t31.5 95.5v330q0 62 -31.5 95.5t-90.5 33.5q-58 0 -90 -33.5t-32 -95.5v-330
q0 -62 32 -95.5t90 -33.5zM232 810l106 140h97l-111 -140h-92z" />
    <glyph glyph-name="uni1EDB" unicode="&#x1edb;" 
d="M300 -8q-99 0 -157.5 58t-58.5 162v126q0 105 58 162.5t158 57.5q69 0 119 -28h11q35 0 35 35v75h75v-80q0 -31 -16 -54t-44 -33q36 -54 36 -135v-126q0 -104 -58.5 -162t-157.5 -58zM300 72q59 0 92.5 33t33.5 97v146q0 64 -33.5 97t-92.5 33q-58 0 -92 -33t-34 -97
v-146q0 -64 34 -97t92 -33zM232 645l106 140h97l-111 -140h-92z" />
    <glyph glyph-name="uni1EDC" unicode="&#x1edc;" 
d="M300 -10q-98 0 -155 57t-57 163v310q0 106 57 163t155 57q80 0 133 -38q22 7 22 33v75h75v-80q0 -58 -48 -83q30 -51 30 -126v-311q0 -106 -57 -163t-155 -57zM300 71q59 0 90.5 33.5t31.5 95.5v330q0 62 -31.5 95.5t-90.5 33.5q-58 0 -90 -33.5t-32 -95.5v-330
q0 -62 32 -95.5t90 -33.5zM257 810l-115 140h100l110 -140h-95z" />
    <glyph glyph-name="uni1EDD" unicode="&#x1edd;" 
d="M300 -8q-99 0 -157.5 58t-58.5 162v126q0 105 58 162.5t158 57.5q69 0 119 -28h11q35 0 35 35v75h75v-80q0 -31 -16 -54t-44 -33q36 -54 36 -135v-126q0 -104 -58.5 -162t-157.5 -58zM300 72q59 0 92.5 33t33.5 97v146q0 64 -33.5 97t-92.5 33q-58 0 -92 -33t-34 -97
v-146q0 -64 34 -97t92 -33zM257 645l-115 140h100l110 -140h-95z" />
    <glyph glyph-name="uni1EDE" unicode="&#x1ede;" 
d="M300 -10q-98 0 -155 57t-57 163v310q0 106 57 163t155 57q80 0 133 -38q22 7 22 33v75h75v-80q0 -58 -48 -83q30 -51 30 -126v-311q0 -106 -57 -163t-155 -57zM300 71q59 0 90.5 33.5t31.5 95.5v330q0 62 -31.5 95.5t-90.5 33.5q-58 0 -90 -33.5t-32 -95.5v-330
q0 -62 32 -95.5t90 -33.5zM248 800l45 63q14 20 14 32q0 20 -32 20h-75v65h80q47 0 76 -20.5t29 -54.5q0 -28 -17 -53l-35 -52h-85z" />
    <glyph glyph-name="uni1EDF" unicode="&#x1edf;" 
d="M300 -8q-99 0 -157.5 58t-58.5 162v126q0 105 58 162.5t158 57.5q69 0 119 -28h11q35 0 35 35v75h75v-80q0 -31 -16 -54t-44 -33q36 -54 36 -135v-126q0 -104 -58.5 -162t-157.5 -58zM300 72q59 0 92.5 33t33.5 97v146q0 64 -33.5 97t-92.5 33q-58 0 -92 -33t-34 -97
v-146q0 -64 34 -97t92 -33zM248 645l50 63q14 19 14 32q0 20 -32 20h-80v65h105q38 0 61.5 -19.5t23.5 -54.5q0 -32 -17 -54l-40 -52h-85z" />
    <glyph glyph-name="uni1EE0" unicode="&#x1ee0;" 
d="M300 -10q-98 0 -155 57t-57 163v310q0 106 57 163t155 57q80 0 133 -38q22 7 22 33v75h75v-80q0 -58 -48 -83q30 -51 30 -126v-311q0 -106 -57 -163t-155 -57zM300 71q59 0 90.5 33.5t31.5 95.5v330q0 62 -31.5 95.5t-90.5 33.5q-58 0 -90 -33.5t-32 -95.5v-330
q0 -62 32 -95.5t90 -33.5zM360 815q-30 0 -49 10.5t-32 24.5t-25 24.5t-29 10.5q-30 0 -30 -35v-30h-65v30q0 45 25 70t65 25q30 0 49 -10.5t32 -24.5t25 -24.5t29 -10.5q30 0 30 35v30h65v-30q0 -45 -24.5 -70t-65.5 -25z" />
    <glyph glyph-name="uni1EE1" unicode="&#x1ee1;" 
d="M300 -8q-99 0 -157.5 58t-58.5 162v126q0 105 58 162.5t158 57.5q69 0 119 -28h11q35 0 35 35v75h75v-80q0 -31 -16 -54t-44 -33q36 -54 36 -135v-126q0 -104 -58.5 -162t-157.5 -58zM300 72q59 0 92.5 33t33.5 97v146q0 64 -33.5 97t-92.5 33q-58 0 -92 -33t-34 -97
v-146q0 -64 34 -97t92 -33zM360 650q-30 0 -49 10.5t-32 24.5t-25 24.5t-29 10.5q-30 0 -30 -35v-30h-65v30q0 45 25 70t65 25q30 0 49 -10.5t32 -24.5t25 -24.5t29 -10.5q30 0 30 35v30h65v-30q0 -45 -24.5 -70t-65.5 -25z" />
    <glyph glyph-name="uni1EE2" unicode="&#x1ee2;" 
d="M300 -10q-98 0 -155 57t-57 163v310q0 106 57 163t155 57q80 0 133 -38q22 7 22 33v75h75v-80q0 -58 -48 -83q30 -51 30 -126v-311q0 -106 -57 -163t-155 -57zM300 71q59 0 90.5 33.5t31.5 95.5v330q0 62 -31.5 95.5t-90.5 33.5q-58 0 -90 -33.5t-32 -95.5v-330
q0 -62 32 -95.5t90 -33.5zM300 -213q-33 0 -52 17t-19 46q0 30 19 47.5t52 17.5t52 -17.5t19 -47.5q0 -29 -19 -46t-52 -17z" />
    <glyph glyph-name="uni1EE3" unicode="&#x1ee3;" 
d="M300 -8q-99 0 -157.5 58t-58.5 162v126q0 105 58 162.5t158 57.5q69 0 119 -28h11q35 0 35 35v75h75v-80q0 -31 -16 -54t-44 -33q36 -54 36 -135v-126q0 -104 -58.5 -162t-157.5 -58zM300 72q59 0 92.5 33t33.5 97v146q0 64 -33.5 97t-92.5 33q-58 0 -92 -33t-34 -97
v-146q0 -64 34 -97t92 -33zM300 -213q-33 0 -52 17t-19 46q0 30 19 47.5t52 17.5t52 -17.5t19 -47.5q0 -29 -19 -46t-52 -17z" />
    <glyph glyph-name="uni1EE4" unicode="&#x1ee4;" 
d="M300 -10q-102 0 -156 56.5t-54 153.5v530h90v-530q0 -60 29.5 -95t90.5 -35q60 0 90 35t30 95v530h90v-530q0 -98 -53.5 -154t-156.5 -56zM300 -213q-33 0 -52 17t-19 46q0 30 19 47.5t52 17.5t52 -17.5t19 -47.5q0 -29 -19 -46t-52 -17z" />
    <glyph glyph-name="uni1EE5" unicode="&#x1ee5;" 
d="M299 -10q-95 0 -152 56.5t-57 153.5v350h90v-350q0 -60 32 -95.5t87 -35.5q56 0 88.5 35.5t32.5 95.5v350h90v-350q0 -97 -58 -153.5t-153 -56.5zM300 -213q-33 0 -52 17t-19 46q0 30 19 47.5t52 17.5t52 -17.5t19 -47.5q0 -29 -19 -46t-52 -17z" />
    <glyph glyph-name="uni1EE6" unicode="&#x1ee6;" 
d="M300 -10q-102 0 -156 56.5t-54 153.5v530h90v-530q0 -60 29.5 -95t90.5 -35q60 0 90 35t30 95v530h90v-530q0 -98 -53.5 -154t-156.5 -56zM258 800l45 63q14 20 14 32q0 20 -32 20h-75v65h80q47 0 76 -20.5t29 -54.5q0 -28 -17 -53l-35 -52h-85z" />
    <glyph glyph-name="uni1EE7" unicode="&#x1ee7;" 
d="M299 -10q-95 0 -152 56.5t-57 153.5v350h90v-350q0 -60 32 -95.5t87 -35.5q56 0 88.5 35.5t32.5 95.5v350h90v-350q0 -97 -58 -153.5t-153 -56.5zM258 645l50 63q14 19 14 32q0 20 -32 20h-80v65h105q38 0 61.5 -19.5t23.5 -54.5q0 -32 -17 -54l-40 -52h-85z" />
    <glyph glyph-name="uni1EE8" unicode="&#x1ee8;" 
d="M300 -10q-102 0 -156 56.5t-54 153.5v530h90v-530q0 -60 29.5 -95t90.5 -35q60 0 90 35t30 95v530h65q16 0 25.5 9.5t9.5 25.5v75h75v-80q0 -39 -23 -63.5t-62 -30.5v-466q0 -98 -53.5 -154t-156.5 -56zM242 810l106 140h97l-111 -140h-92z" />
    <glyph glyph-name="uni1EE9" unicode="&#x1ee9;" 
d="M90 200v350h90v-350q0 -62 32 -96.5t87 -34.5q56 0 88.5 34.5t32.5 96.5v350h70q35 0 35 35v75h75v-80q0 -43 -21.5 -69t-68.5 -26v-285q0 -97 -58 -153.5t-153 -56.5t-152 56.5t-57 153.5zM242 645l106 140h97l-111 -140h-92z" />
    <glyph glyph-name="uni1EEA" unicode="&#x1eea;" 
d="M300 -10q-102 0 -156 56.5t-54 153.5v530h90v-530q0 -60 29.5 -95t90.5 -35q60 0 90 35t30 95v530h65q16 0 25.5 9.5t9.5 25.5v75h75v-80q0 -39 -23 -63.5t-62 -30.5v-466q0 -98 -53.5 -154t-156.5 -56zM267 810l-115 140h100l110 -140h-95z" />
    <glyph glyph-name="uni1EEB" unicode="&#x1eeb;" 
d="M90 200v350h90v-350q0 -62 32 -96.5t87 -34.5q56 0 88.5 34.5t32.5 96.5v350h70q35 0 35 35v75h75v-80q0 -43 -21.5 -69t-68.5 -26v-285q0 -97 -58 -153.5t-153 -56.5t-152 56.5t-57 153.5zM267 645l-115 140h100l110 -140h-95z" />
    <glyph glyph-name="uni1EEC" unicode="&#x1eec;" 
d="M300 -10q-102 0 -156 56.5t-54 153.5v530h90v-530q0 -60 29.5 -95t90.5 -35q60 0 90 35t30 95v530h65q16 0 25.5 9.5t9.5 25.5v75h75v-80q0 -39 -23 -63.5t-62 -30.5v-466q0 -98 -53.5 -154t-156.5 -56zM258 800l45 63q14 20 14 32q0 20 -32 20h-75v65h80q47 0 76 -20.5
t29 -54.5q0 -28 -17 -53l-35 -52h-85z" />
    <glyph glyph-name="uni1EED" unicode="&#x1eed;" 
d="M90 200v350h90v-350q0 -62 32 -96.5t87 -34.5q56 0 88.5 34.5t32.5 96.5v350h70q35 0 35 35v75h75v-80q0 -43 -21.5 -69t-68.5 -26v-285q0 -97 -58 -153.5t-153 -56.5t-152 56.5t-57 153.5zM258 645l50 63q14 19 14 32q0 20 -32 20h-80v65h105q38 0 61.5 -19.5
t23.5 -54.5q0 -32 -17 -54l-40 -52h-85z" />
    <glyph glyph-name="uni1EEE" unicode="&#x1eee;" 
d="M300 -10q-102 0 -156 56.5t-54 153.5v530h90v-530q0 -60 29.5 -95t90.5 -35q60 0 90 35t30 95v530h65q16 0 25.5 9.5t9.5 25.5v75h75v-80q0 -39 -23 -63.5t-62 -30.5v-466q0 -98 -53.5 -154t-156.5 -56zM370 815q-30 0 -49 10.5t-32 24.5t-25 24.5t-29 10.5
q-30 0 -30 -35v-30h-65v30q0 45 25 70t65 25q30 0 49 -10.5t32 -24.5t25 -24.5t29 -10.5q30 0 30 35v30h65v-30q0 -45 -24.5 -70t-65.5 -25z" />
    <glyph glyph-name="uni1EEF" unicode="&#x1eef;" 
d="M90 200v350h90v-350q0 -62 32 -96.5t87 -34.5q56 0 88.5 34.5t32.5 96.5v350h70q35 0 35 35v75h75v-80q0 -43 -21.5 -69t-68.5 -26v-285q0 -97 -58 -153.5t-153 -56.5t-152 56.5t-57 153.5zM370 650q-30 0 -49 10.5t-32 24.5t-25 24.5t-29 10.5q-30 0 -30 -35v-30h-65v30
q0 45 25 70t65 25q30 0 49 -10.5t32 -24.5t25 -24.5t29 -10.5q30 0 30 35v30h65v-30q0 -45 -24.5 -70t-65.5 -25z" />
    <glyph glyph-name="uni1EF0" unicode="&#x1ef0;" 
d="M300 -10q-102 0 -156 56.5t-54 153.5v530h90v-530q0 -60 29.5 -95t90.5 -35q60 0 90 35t30 95v530h65q16 0 25.5 9.5t9.5 25.5v75h75v-80q0 -39 -23 -63.5t-62 -30.5v-466q0 -98 -53.5 -154t-156.5 -56zM300 -213q-33 0 -52 17t-19 46q0 30 19 47.5t52 17.5t52 -17.5
t19 -47.5q0 -29 -19 -46t-52 -17z" />
    <glyph glyph-name="uni1EF1" unicode="&#x1ef1;" 
d="M90 200v350h90v-350q0 -62 32 -96.5t87 -34.5q56 0 88.5 34.5t32.5 96.5v350h70q35 0 35 35v75h75v-80q0 -43 -21.5 -69t-68.5 -26v-285q0 -97 -58 -153.5t-153 -56.5t-152 56.5t-57 153.5zM299 -213q-33 0 -52 17t-19 46q0 30 19 47.5t52 17.5t52 -17.5t19 -47.5
q0 -29 -19 -46t-52 -17z" />
    <glyph glyph-name="Ygrave" unicode="&#x1ef2;" 
d="M255 0v273l-220 457h96l142 -300q12 -25 19 -42.5t9 -25.5q2 8 9.5 25.5t19.5 42.5l142 300h93l-220 -457v-273h-90zM267 810l-115 140h100l110 -140h-95z" />
    <glyph glyph-name="ygrave" unicode="&#x1ef3;" 
d="M178 -180l81 214l-205 516h97l130 -340q8 -20 15 -42t10 -38q3 16 10 38t14 42l121 340h95l-274 -730h-94zM267 645l-115 140h100l110 -140h-95z" />
    <glyph glyph-name="uni1EF4" unicode="&#x1ef4;" 
d="M255 0v273l-220 457h96l142 -300q12 -25 19 -42.5t9 -25.5q2 8 9.5 25.5t19.5 42.5l142 300h93l-220 -457v-273h-90zM300 -213q-33 0 -52 17t-19 46q0 30 19 47.5t52 17.5t52 -17.5t19 -47.5q0 -29 -19 -46t-52 -17z" />
    <glyph glyph-name="uni1EF5" unicode="&#x1ef5;" 
d="M178 -180l81 214l-205 516h97l130 -340q8 -20 15 -42t10 -38q3 16 10 38t14 42l121 340h95l-274 -730h-94zM460 -213q-33 0 -52 17t-19 46q0 30 19 47.5t52 17.5t52 -17.5t19 -47.5q0 -29 -19 -46t-52 -17z" />
    <glyph glyph-name="uni1EF6" unicode="&#x1ef6;" 
d="M255 0v273l-220 457h96l142 -300q12 -25 19 -42.5t9 -25.5q2 8 9.5 25.5t19.5 42.5l142 300h93l-220 -457v-273h-90zM258 800l45 63q14 20 14 32q0 20 -32 20h-75v65h80q47 0 76 -20.5t29 -54.5q0 -28 -17 -53l-35 -52h-85z" />
    <glyph glyph-name="uni1EF7" unicode="&#x1ef7;" 
d="M178 -180l81 214l-205 516h97l130 -340q8 -20 15 -42t10 -38q3 16 10 38t14 42l121 340h95l-274 -730h-94zM258 645l50 63q14 19 14 32q0 20 -32 20h-80v65h105q38 0 61.5 -19.5t23.5 -54.5q0 -32 -17 -54l-40 -52h-85z" />
    <glyph glyph-name="uni1EF8" unicode="&#x1ef8;" 
d="M255 0v273l-220 457h96l142 -300q12 -25 19 -42.5t9 -25.5q2 8 9.5 25.5t19.5 42.5l142 300h93l-220 -457v-273h-90zM370 815q-30 0 -49 10.5t-32 24.5t-25 24.5t-29 10.5q-30 0 -30 -35v-30h-65v30q0 45 25 70t65 25q30 0 49 -10.5t32 -24.5t25 -24.5t29 -10.5
q30 0 30 35v30h65v-30q0 -45 -24.5 -70t-65.5 -25z" />
    <glyph glyph-name="uni1EF9" unicode="&#x1ef9;" 
d="M178 -180l81 214l-205 516h97l130 -340q8 -20 15 -42t10 -38q3 16 10 38t14 42l121 340h95l-274 -730h-94zM370 650q-30 0 -49 10.5t-32 24.5t-25 24.5t-29 10.5q-30 0 -30 -35v-30h-65v30q0 45 25 70t65 25q30 0 49 -10.5t32 -24.5t25 -24.5t29 -10.5q30 0 30 35v30h65
v-30q0 -45 -24.5 -70t-65.5 -25z" />
    <glyph glyph-name="EMquad" unicode="&#x2001;" 
 />
    <glyph glyph-name="ZEROWIDTHSPACE" unicode="&#x200b;" 
 />
    <glyph glyph-name="uni2010" unicode="&#x2010;" 
d="M140 290v80h320v-80h-320z" />
    <glyph glyph-name="endash" unicode="&#x2013;" 
d="M80 290v80h440v-80h-440z" />
    <glyph glyph-name="emdash" unicode="&#x2014;" 
d="M0 290v80h600v-80h-600z" />
    <glyph glyph-name="uni2016" unicode="&#x2016;" 
d="M125 -110v940h90v-940h-90zM385 -110v940h90v-940h-90z" />
    <glyph glyph-name="quoteleft" unicode="&#x2018;" 
d="M380 730l-56 -123q-9 -19 -14 -40.5t-5 -36.5q0 -29 14 -57.5t39 -47.5h-101q-22 20 -34.5 48.5t-12.5 56.5q0 20 7 48t18 53l45 99h100z" />
    <glyph glyph-name="quoteright" unicode="&#x2019;" 
d="M220 425l56 123q9 20 14 41t5 36q0 29 -14 57.5t-39 47.5h101q22 -20 34.5 -48t12.5 -57q0 -20 -7 -48t-18 -53l-45 -99h-100z" />
    <glyph glyph-name="quotesinglbase" unicode="&#x201a;" 
d="M220 -160l56 123q9 20 14 41t5 36q0 29 -14 57.5t-39 47.5h101q22 -20 34.5 -48t12.5 -57q0 -20 -7 -48t-18 -53l-45 -99h-100z" />
    <glyph glyph-name="quotereversed" unicode="&#x201b;" 
d="M380 425h-100l-45 99q-11 25 -18 53t-7 48q0 29 12.5 57t34.5 48h101q-25 -19 -39 -47.5t-14 -57.5q0 -15 5 -36t14 -41z" />
    <glyph glyph-name="quotedblleft" unicode="&#x201c;" 
d="M493 730l-56 -123q-9 -19 -14 -40.5t-5 -36.5q0 -29 14 -57.5t39 -47.5h-101q-22 20 -34.5 48.5t-12.5 56.5q0 20 7 48t18 53l45 99h100zM275 730l-56 -123q-9 -19 -14 -40.5t-5 -36.5q0 -29 14 -57.5t39 -47.5h-101q-22 20 -34.5 48.5t-12.5 56.5q0 20 7 48t18 53l45 99
h100z" />
    <glyph glyph-name="quotedblright" unicode="&#x201d;" 
d="M105 431l56 123q9 20 14 41t5 36q0 29 -14 57.5t-39 47.5h101q22 -20 34.5 -48t12.5 -57q0 -20 -7 -48t-18 -53l-45 -99h-100zM325 431l56 123q9 20 14 41t5 36q0 29 -14 57.5t-39 47.5h101q22 -20 34.5 -48t12.5 -57q0 -20 -7 -48t-18 -53l-45 -99h-100z" />
    <glyph glyph-name="quotedblbase" unicode="&#x201e;" 
d="M105 -160l56 123q9 20 14 41t5 36q0 29 -14 57.5t-39 47.5h101q22 -20 34.5 -48t12.5 -57q0 -20 -7 -48t-18 -53l-45 -99h-100zM347 -160l56 123q9 20 14 41t5 36q0 29 -14 57.5t-39 47.5h101q22 -20 34.5 -48t12.5 -57q0 -20 -7 -48t-18 -53l-45 -99h-100z" />
    <glyph glyph-name="uni201F" unicode="&#x201f;" 
d="M495 425h-100l-45 99q-11 25 -18 53t-7 48q0 29 12.5 57t34.5 48h101q-25 -19 -39 -47.5t-14 -57.5q0 -15 5 -36t14 -41zM275 425h-100l-45 99q-11 25 -18 53t-7 48q0 29 12.5 57t34.5 48h101q-25 -19 -39 -47.5t-14 -57.5q0 -15 5 -36t14 -41z" />
    <glyph glyph-name="dagger" unicode="&#x2020;" 
d="M255 -110v630h-175v80h175v230h90v-230h175v-80h-175v-630h-90z" />
    <glyph glyph-name="daggerdbl" unicode="&#x2021;" 
d="M255 -110v250h-175v80h175v290h-175v80h175v240h90v-240h175v-80h-175v-290h175v-80h-175v-250h-90z" />
    <glyph glyph-name="bullet" unicode="&#x2022;" 
d="M300 245q-52 0 -86 34t-34 86q0 53 34 86.5t86 33.5q53 0 86.5 -33.5t33.5 -86.5q0 -52 -33.5 -86t-86.5 -34z" />
    <glyph glyph-name="onedotenleader" unicode="&#x2024;" 
d="M300 -10q-37 0 -59.5 22t-22.5 57q0 37 22.5 60t59.5 23t59.5 -23t22.5 -60q0 -35 -22.5 -57t-59.5 -22z" />
    <glyph glyph-name="ellipsis" unicode="&#x2026;" 
d="M490 -10q-22 0 -36 15t-14 40v70q0 25 14 40t36 15q23 0 36.5 -15t13.5 -40v-70q0 -25 -13.5 -40t-36.5 -15zM110 -10q-22 0 -36 15t-14 40v70q0 25 14 40t36 15q23 0 36.5 -15t13.5 -40v-70q0 -25 -13.5 -40t-36.5 -15zM300 -10q-22 0 -36 15t-14 40v70q0 25 14 40
t36 15q23 0 36.5 -15t13.5 -40v-70q0 -25 -13.5 -40t-36.5 -15z" />
    <glyph glyph-name="perthousand" unicode="&#x2030;" 
d="M125 440q-55 0 -87 31t-33 84v65q-1 53 31.5 84t87.5 31t87.5 -31t33.5 -84v-65q0 -53 -32 -84t-88 -31zM-5 0l438 730h67l-438 -730h-67zM125 499q26 0 41.5 15.5t15.5 40.5v65q-1 26 -16 41t-41 15t-41.5 -15t-15.5 -41v-65q0 -25 15.5 -40.5t41.5 -15.5zM345 -5
q-50 0 -79.5 32t-28.5 87v56q0 56 29.5 88t78.5 32q38 0 61 -19t25 -51q3 32 26.5 51t60.5 19q50 0 79 -32t29 -88v-56q0 -55 -29 -87t-79 -32q-38 0 -61 19t-25 51q-4 -32 -27.5 -51t-59.5 -19zM350 48q23 0 36.5 17.5t14.5 48.5v56q0 31 -14 49t-37 18t-37 -18t-14 -49
v-56q-1 -31 13 -48.5t38 -17.5zM513 48q23 0 36.5 17.5t14.5 48.5v56q0 31 -14 49t-37 18t-37 -18t-14 -49v-56q-1 -31 13 -48.5t38 -17.5z" />
    <glyph glyph-name="minute" unicode="&#x2032;" 
d="M210 419l55 306h108l-70 -306h-93z" />
    <glyph glyph-name="second" unicode="&#x2033;" 
d="M105 420l55 306h108l-70 -306h-93zM332 420l55 306h108l-70 -306h-93z" />
    <glyph glyph-name="uni2034" unicode="&#x2034;" 
d="M20 419l55 306h108l-70 -306h-93zM219 419l55 306h108l-70 -306h-93zM417 419l55 306h108l-70 -306h-93z" />
    <glyph glyph-name="guilsinglleft" unicode="&#x2039;" 
d="M349 40l-202 240l202 240h102l-204 -238l207 -242h-105z" />
    <glyph glyph-name="guilsinglright" unicode="&#x203a;" 
d="M150 40l204 238l-207 242h105l202 -240l-202 -240h-102z" />
    <glyph glyph-name="exclamdbl" unicode="&#x203c;" 
d="M139 215l-12 515h106l-12 -515h-82zM165 -5q-26 0 -43 17t-17 43t17 43t43 17h30q29 0 44.5 -16.5t15.5 -42.5t-17 -43.5t-43 -17.5h-30zM379 215l-12 515h106l-12 -515h-82zM405 -5q-26 0 -43 17t-17 43t17 43t43 17h30q29 0 44.5 -16.5t15.5 -42.5t-17 -43.5t-43 -17.5
h-30z" />
    <glyph glyph-name="uni203D" unicode="&#x203d;" 
d="M223 205l-13 245v100h90v-100l-3 -62q48 10 75.5 43.5t27.5 83.5q0 59 -37.5 94.5t-102.5 35.5h-125v85h125q70 0 121.5 -26.5t80 -74.5t28.5 -114q0 -87 -53 -142t-144 -62l-6 -106h-64zM240 -5q-26 0 -43 17t-17 43t17 43t43 17h30q29 0 44.5 -16.5t15.5 -42.5
t-17 -43.5t-43 -17.5h-30z" />
    <glyph glyph-name="uni203E" unicode="&#x203e;" 
d="M-10 750v80h620v-80h-620z" />
    <glyph glyph-name="uni203F" unicode="&#x203f;" 
d="M180 -180q-78 0 -124 48.5t-46 131.5h90q0 -46 24.5 -73t65.5 -27h220q41 0 65.5 27t24.5 73h90q0 -83 -46 -131.5t-124 -48.5h-240z" />
    <glyph glyph-name="fraction" unicode="&#x2044;" 
d="M5 0l505 730h85l-505 -730h-85z" />
    <glyph glyph-name="uni2045" unicode="&#x2045;" 
d="M205 -110v940h245v-80h-155v-335h155v-80h-155v-365h150v-80h-240z" />
    <glyph glyph-name="uni2046" unicode="&#x2046;" 
d="M395 -110h-240v80h150v365h-155v80h155v335h-155v80h245v-940z" />
    <glyph glyph-name="uni2070" unicode="&#x2070;" 
d="M300 377q-73 0 -118 46t-45 119v129q0 73 45 118.5t118 45.5t118 -45.5t45 -118.5v-129q0 -73 -45 -119t-118 -46zM300 441q41 0 66.5 28t25.5 73v129q0 44 -25.5 72t-66.5 28t-66.5 -28t-25.5 -72v-129q0 -45 25.5 -73t66.5 -28z" />
    <glyph glyph-name="uni2074" unicode="&#x2074;" 
d="M374 382v105h-231v93l174 250h80l-184 -266v-13h161v114h71v-283h-71z" />
    <glyph glyph-name="uni2075" unicode="&#x2075;" 
d="M303 377q-73 0 -117.5 40t-44.5 108h70q0 -40 25 -62t67 -22q40 0 64 23.5t24 60.5q0 38 -24 61t-64 23h-139v221h282v-63h-215v-98h72q74 0 117 -39t43 -105t-44 -107t-116 -41z" />
    <glyph glyph-name="uni2076" unicode="&#x2076;" 
d="M301 377q-75 0 -121 42.5t-46 109.5q0 50 36 107l126 194h77l-129 -197h4q27 37 76 37q64 0 103 -39t39 -102q0 -67 -45.5 -109.5t-119.5 -42.5zM300 441q42 0 68 24.5t26 63.5t-26 63.5t-68 24.5q-41 0 -67.5 -24.5t-26.5 -63.5t26 -63.5t68 -24.5z" />
    <glyph glyph-name="uni2077" unicode="&#x2077;" 
d="M216 382l177 384h-175v-78h-70v142h314v-76l-168 -372h-78z" />
    <glyph glyph-name="uni2078" unicode="&#x2078;" 
d="M300 377q-73 0 -119 36.5t-46 94.5q0 46 29 76.5t75 34.5v4q-42 8 -67.5 34t-25.5 60q0 53 42.5 85.5t111.5 32.5q70 0 113 -32.5t43 -85.5q0 -34 -26 -60t-70 -34v-4q47 -4 76 -34.5t29 -76.5q0 -58 -45.5 -94.5t-119.5 -36.5zM300 644q39 0 63 18t24 47t-24 47.5
t-63 18.5q-38 0 -61.5 -18.5t-23.5 -47.5t23.5 -47t61.5 -18zM300 438q42 0 69 20.5t27 53.5t-27 53.5t-69 20.5t-69 -20.5t-27 -53.5t27 -53.5t69 -20.5z" />
    <glyph glyph-name="uni2079" unicode="&#x2079;" 
d="M231 382l126 197h-4q-10 -16 -29 -26.5t-48 -10.5q-63 0 -100 39.5t-37 101.5q0 68 43.5 110t116.5 42q74 0 118 -42t44 -110q0 -33 -11 -63t-33 -65l-109 -173h-77zM300 595q38 0 63.5 24.5t25.5 63.5t-24 63.5t-65 24.5t-65 -24.5t-24 -63.5t24 -63.5t65 -24.5z" />
    <glyph glyph-name="uni207A" unicode="&#x207a;" 
d="M260 305v105h-100v70h100v105h80v-105h100v-70h-100v-105h-80z" />
    <glyph glyph-name="uni207C" unicode="&#x207c;" 
d="M151 634v56h301v-56h-301zM151 466v56h301v-56h-301z" />
    <glyph glyph-name="uni2080" unicode="&#x2080;" 
d="M300 -138q-73 0 -118 46t-45 119v129q0 73 45 118.5t118 45.5t118 -45.5t45 -118.5v-129q0 -73 -45 -119t-118 -46zM300 -74q41 0 66.5 28t25.5 73v129q0 44 -25.5 72t-66.5 28t-66.5 -28t-25.5 -72v-129q0 -45 25.5 -73t66.5 -28z" />
    <glyph glyph-name="uni2081" unicode="&#x2081;" 
d="M150 -133v65h144v324l-141 -85v73l116 71h96v-383h115v-65h-330z" />
    <glyph glyph-name="uni2082" unicode="&#x2082;" 
d="M156 -133v77l183 158q20 17 32 35.5t12 40.5q0 35 -23.5 56.5t-58.5 21.5q-34 0 -58.5 -22t-24.5 -58h-71q2 43 23 75t55.5 50.5t75.5 18.5q44 0 78.5 -17.5t55 -49t20.5 -73.5q0 -36 -21 -67t-57 -62l-140 -119h220v-65h-301z" />
    <glyph glyph-name="uni2083" unicode="&#x2083;" 
d="M300 -138q-71 0 -116 41t-45 107h71q0 -37 25 -60.5t65 -23.5t65 23.5t25 60.5t-25 60t-65 23h-41v69l115 88h-213v65h285v-72l-117 -92q60 -7 96.5 -45t36.5 -96q0 -66 -45 -107t-117 -41z" />
    <glyph glyph-name="uni2084" unicode="&#x2084;" 
d="M374 -133v105h-231v93l174 250h80l-184 -266v-13h161v114h71v-283h-71z" />
    <glyph glyph-name="uni2085" unicode="&#x2085;" 
d="M303 -138q-73 0 -117.5 40t-44.5 108h70q0 -40 25 -62t67 -22q40 0 64 23.5t24 60.5q0 38 -24 61t-64 23h-139v221h282v-63h-215v-98h72q74 0 117 -39t43 -105t-44 -107t-116 -41z" />
    <glyph glyph-name="uni2086" unicode="&#x2086;" 
d="M301 -138q-75 0 -121 42.5t-46 109.5q0 50 36 107l126 194h77l-129 -197h4q27 37 76 37q64 0 103 -39t39 -102q0 -67 -45.5 -109.5t-119.5 -42.5zM300 -74q42 0 68 24.5t26 63.5t-26 63.5t-68 24.5q-41 0 -67.5 -24.5t-26.5 -63.5t26 -63.5t68 -24.5z" />
    <glyph glyph-name="uni2087" unicode="&#x2087;" 
d="M216 -133l177 384h-175v-78h-70v142h314v-76l-168 -372h-78z" />
    <glyph glyph-name="uni2088" unicode="&#x2088;" 
d="M300 -148q-73 0 -119 36.5t-46 94.5q0 46 29 76.5t75 34.5v4q-42 8 -67.5 34t-25.5 60q0 53 42.5 85.5t111.5 32.5q70 0 113 -32.5t43 -85.5q0 -34 -26 -60t-70 -34v-4q47 -4 76 -34.5t29 -76.5q0 -58 -45.5 -94.5t-119.5 -36.5zM300 119q39 0 63 18t24 47t-24 47.5
t-63 18.5q-38 0 -61.5 -18.5t-23.5 -47.5t23.5 -47t61.5 -18zM300 -87q42 0 69 20.5t27 53.5t-27 53.5t-69 20.5t-69 -20.5t-27 -53.5t27 -53.5t69 -20.5z" />
    <glyph glyph-name="uni2089" unicode="&#x2089;" 
d="M231 -133l126 197h-4q-10 -16 -29 -26.5t-48 -10.5q-63 0 -100 39.5t-37 101.5q0 68 43.5 110t116.5 42q74 0 118 -42t44 -110q0 -33 -11 -63t-33 -65l-109 -173h-77zM300 80q38 0 63.5 24.5t25.5 63.5t-24 63.5t-65 24.5t-65 -24.5t-24 -63.5t24 -63.5t65 -24.5z" />
    <glyph glyph-name="dong" unicode="&#x20ab;" 
d="M268 50q-82 0 -130 55t-48 149v41q0 95 47.5 150t130.5 55q62 0 101 -31t46 -84h3l-2 125v60h-116v75h116v85h90v-85h94v-75h-94v-510h-90v105h-1q-7 -54 -46 -84.5t-101 -30.5zM298 128q56 0 87 35t31 97v30q0 62 -31 97t-87 35q-57 0 -87.5 -34t-30.5 -98v-30
q0 -64 30.5 -98t87.5 -34zM90 -80v80h420v-80h-420z" />
    <glyph glyph-name="Euro" unicode="&#x20ac;" 
d="M308 -10q-100 0 -158 56t-58 154v45h-73v65h73v100h-73v65h73v55q0 98 58 154t158 56q98 0 156 -56.5t58 -153.5h-90q0 62 -32.5 95.5t-91.5 33.5t-92.5 -33.5t-33.5 -95.5v-55h173v-65h-173v-100h173v-65h-173v-45q0 -62 33.5 -95.5t92.5 -33.5t91.5 33.5t32.5 95.5h90
q0 -97 -58 -153.5t-156 -56.5z" />
    <glyph glyph-name="uni20AE" unicode="&#x20ae;" 
d="M256 0v183l-176 -48v75l176 48v100l-176 -48v75l176 48v218h-211v79h510v-79h-211v-194l176 48v-75l-176 -48v-100l176 48v-75l-176 -48v-207h-88z" />
    <glyph glyph-name="uni20B4" unicode="&#x20b4;" 
d="M50 398v70h279l37 32q21 18 35 39.5t14 45.5q0 38 -28 57.5t-77 19.5q-56 0 -88.5 -26.5t-32.5 -75.5h-89q2 85 57 132.5t152 47.5q89 0 141.5 -39t52.5 -111q0 -34 -18.5 -60.5t-48.5 -53.5l-9 -8h123v-70h-500zM50 252v70h500v-70h-302l-16 -12q-22 -16 -35.5 -38.5
t-13.5 -46.5q0 -37 29.5 -62t78.5 -25q56 0 90 31.5t34 80.5h89q-1 -85 -58 -137.5t-154 -52.5q-89 0 -143 44t-54 116q0 59 51 102h-96z" />
    <glyph glyph-name="uni20BD" unicode="&#x20bd;" 
d="M110 0v155h-80v80h80v85h-80v80h80v330h223q66 0 114.5 -25.5t75.5 -71.5t27 -108q0 -61 -27 -107.5t-75.5 -72t-114.5 -25.5h-133v-85h230v-80h-230v-155h-90zM200 400h133q57 0 90.5 34t33.5 91t-33.5 91t-90.5 34h-133v-250z" />
    <glyph glyph-name="uni20BF" unicode="&#x20bf;" 
d="M179 -140v140h-86v730h86v141h60v-141h70v141h60v-148q68 -16 106 -63t38 -119q0 -59 -29 -100t-81 -55q59 -16 93 -64t34 -119q0 -80 -42.5 -132t-118.5 -66v-145h-60v140h-70v-140h-60zM181 419h118q58 0 91.5 31t33.5 84t-33 84t-91 31h-119v-230zM181 81h124
q63 0 99.5 33.5t36.5 91.5q0 60 -36.5 97.5t-99.5 37.5h-124v-260z" />
    <glyph glyph-name="uni2102" unicode="&#x2102;" 
d="M300 -10q-103 0 -164.5 59.5t-61.5 160.5v310q0 101 61.5 160.5t164.5 59.5q105 0 165.5 -59.5t60.5 -160.5h-42q0 83 -49 131.5t-135 48.5q-46 0 -82 -15v-640q36 -15 82 -15q86 0 135 48.5t49 131.5h42q0 -101 -60.5 -160.5t-165.5 -59.5zM176 69v592
q-28 -24 -44 -59.5t-16 -81.5v-310q0 -46 16 -81.5t44 -59.5z" />
    <glyph glyph-name="uni210D" unicode="&#x210d;" 
d="M75 0v730h144v-331h162v331h144v-730h-144v359h-162v-359h-144zM117 40h60v650h-60v-650zM423 40h60v650h-60v-650z" />
    </font>
</defs>
</svg>
