<?xml version="1.0" standalone="no"?>
<!DOCTYPE svg PUBLIC "-//W3C//DTD SVG 1.1//EN" "http://www.w3.org/Graphics/SVG/1.1/DTD/svg11.dtd" >
<svg xmlns="http://www.w3.org/2000/svg" xmlns:xlink="http://www.w3.org/1999/xlink" version="1.1">
<metadata>
Created by FontForge 20170731 at Sat Jan 14 17:11:15 2023
 By Aleksey,,,
Copyright 2020 The JetBrains Mono Project Authors (https://github.com/JetBrains/JetBrainsMono)
</metadata>
<defs>
<font id="JetBrainsMono-Bold" horiz-adv-x="600" >
  <font-face 
    font-family="JetBrains Mono"
    font-weight="700"
    font-stretch="normal"
    units-per-em="1000"
    panose-1="2 0 0 9 0 0 0 0 0 0"
    ascent="800"
    descent="-200"
    x-height="550"
    cap-height="730"
    bbox="-1728 -400 765 1120"
    underline-thickness="50"
    underline-position="-230"
    unicode-range="U+000D-1D56B"
  />
<missing-glyph 
d="M90 0v730h420v-730h-420zM140 109l300 571h-300v-571zM160 50h300v571z" />
    <glyph glyph-name=".notdef" 
d="M90 0v730h420v-730h-420zM140 109l300 571h-300v-571zM160 50h300v571z" />
    <glyph glyph-name=".null" horiz-adv-x="0" 
 />
    <glyph glyph-name="nonmarkingreturn" horiz-adv-x="333" 
 />
    <glyph glyph-name="CR" unicode="&#xd;" 
 />
    <glyph glyph-name="space" unicode=" " 
 />
    <glyph glyph-name="exclam" unicode="!" 
d="M246 227l-14 503h136l-14 -503h-108zM285 -5q-31 0 -50 18.5t-19 47.5t19 47.5t50 18.5h30q32 0 50.5 -18.5t18.5 -47.5t-19.5 -47.5t-50.5 -18.5h-29z" />
    <glyph glyph-name="quotedbl" unicode="&#x22;" 
d="M124 430l-9 300h134l-8 -300h-117zM360 430l-9 300h134l-8 -300h-117z" />
    <glyph glyph-name="numbersign" unicode="#" 
d="M77 0l34 190h-76v85h90l31 180h-86v85h101l34 190h88l-34 -190h142l34 190h88l-34 -190h76v-85h-91l-31 -180h87v-85h-102l-33 -190h-88l34 190h-143l-33 -190h-88zM213 275h142l31 180h-142z" />
    <glyph glyph-name="dollar" unicode="$" 
d="M269 -140v132q-98 8 -154.5 62t-57.5 142h125q0 -37 23 -61.5t64 -32.5v212l-18 5q-86 22 -132.5 79t-46.5 138q0 85 53 139.5t144 62.5v132h62v-131q93 -8 146.5 -61.5t54.5 -138.5h-125q0 74 -76 89v-202l33 -9q87 -22 133 -78.5t46 -139.5q0 -87 -57.5 -143.5
t-154.5 -64.5v-131h-62zM197 543q0 -35 18.5 -61t53.5 -38v184q-72 -14 -72 -85zM331 101q41 6 64 30.5t23 62.5q0 37 -23 64t-64 36v-193z" />
    <glyph glyph-name="percent" unicode="%" 
d="M151 400q-68 0 -107 36.5t-38 98.5v65q-1 62 38.5 98.5t106.5 36.5q66 0 105.5 -36.5t40.5 -98.5v-65q0 -62 -39.5 -98.5t-106.5 -36.5zM0 0l510 730h90l-510 -730h-90zM151 477q26 0 41.5 15.5t15.5 42.5v65q0 27 -15 42.5t-41 15.5t-41.5 -15.5t-15.5 -42.5v-65
q0 -27 15 -42.5t41 -15.5zM448 -5q-66 0 -105.5 36.5t-39.5 98.5v65q0 62 39 98.5t106 36.5t106.5 -36.5t39.5 -98.5v-65q0 -62 -39.5 -98.5t-106.5 -36.5zM448 73q26 0 41.5 15.5t15.5 41.5v65q0 27 -15.5 42.5t-41.5 15.5q-25 0 -40.5 -15.5t-15.5 -42.5v-65
q-1 -26 14.5 -41.5t41.5 -15.5z" />
    <glyph glyph-name="ampersand" unicode="&#x26;" 
d="M223 -10q-95 0 -150.5 52.5t-55.5 140.5v66q0 77 40 125t108 56l-22 30q-22 30 -33.5 59.5t-11.5 56.5q0 48 23.5 85t65 58t95.5 21q58 0 101.5 -24.5t68 -69t24.5 -102.5h-115q0 43 -22 69t-57 26q-30 0 -49 -19t-19 -49q0 -14 6 -30t16 -29l184 -243l76 96h128
l-142 -180l139 -185h-131l-75 100l-19 -24q-29 -40 -75 -63t-98 -23zM227 94q30 0 53.5 14t42.5 40l28 35l-117 155h-14q-39 0 -61.5 -24t-22.5 -65v-66q0 -41 24.5 -65t66.5 -24z" />
    <glyph glyph-name="quotesingle" unicode="'" 
d="M242 430l-9 300h134l-8 -300h-117z" />
    <glyph glyph-name="parenleft" unicode="(" 
d="M485 -120q-152 35 -235 137.5t-83 253.5v179q0 150 83 252t235 138v-124q-89 -21 -140.5 -92.5t-51.5 -173.5v-179q0 -102 51.5 -173.5t140.5 -92.5v-125z" />
    <glyph glyph-name="parenright" unicode=")" 
d="M115 -120v125q89 21 140.5 92.5t51.5 173.5v179q0 102 -51.5 173.5t-140.5 92.5v124q152 -36 235 -138t83 -252v-179q0 -151 -83 -253.5t-235 -137.5z" />
    <glyph glyph-name="asterisk" unicode="*" 
d="M183 98l-83 59l70 99q14 20 31.5 38.5t37.5 35.5q-53 5 -94 20l-113 42l35 95l113 -41q40 -15 83 -43q-6 23 -10 46.5t-4 49.5v121h102v-121q0 -26 -4 -49.5t-11 -46.5q44 28 84 43l113 41l35 -95l-113 -42q-41 -15 -94 -20q20 -17 37.5 -35.5t31.5 -38.5l70 -99l-83 -59
l-71 99q-14 20 -25.5 42.5t-20.5 46.5q-9 -23 -20.5 -46t-25.5 -43z" />
    <glyph glyph-name="plus" unicode="+" 
d="M238 92v180h-179v116h179v180h124v-180h179v-116h-179v-180h-124z" />
    <glyph glyph-name="comma" unicode="," 
d="M190 -160l53 306h143l-76 -306h-120z" />
    <glyph glyph-name="hyphen" unicode="-" 
d="M140 272v116h320v-116h-320z" />
    <glyph glyph-name="period" unicode="." 
d="M300 -10q-42 0 -67.5 25.5t-25.5 66.5t25.5 67t67.5 26t67.5 -26t25.5 -67t-25.5 -66.5t-67.5 -25.5z" />
    <glyph glyph-name="slash" unicode="/" 
d="M60 -110l350 940h130l-350 -940h-130z" />
    <glyph glyph-name="zero" unicode="0" 
d="M300 -10q-71 0 -123 27t-80.5 76t-28.5 115v314q0 66 28.5 115t80.5 76t123 27t123 -27t80.5 -76t28.5 -115v-314q0 -66 -28.5 -115t-80.5 -76t-123 -27zM300 98q52 0 83 30t31 80v314q0 50 -30.5 80t-83.5 30t-83.5 -30t-30.5 -80v-314q0 -50 31 -80t83 -30zM300 305
q-30 0 -48 16.5t-18 46.5t18 45.5t48 15.5t48 -15.5t18 -45.5t-18 -46.5t-48 -16.5z" />
    <glyph glyph-name="one" unicode="1" 
d="M84 0v113h190v496l-191 -140v140l168 121h148v-617h153v-113h-468z" />
    <glyph glyph-name="two" unicode="2" 
d="M74 0v113l263 269q64 67 64 136q0 49 -28.5 79.5t-76.5 30.5q-49 0 -78.5 -31.5t-29.5 -83.5h-125q0 68 30 119t83 79.5t123 28.5q69 0 121 -27t80.5 -75.5t28.5 -113.5q0 -56 -26.5 -112t-87.5 -116l-184 -183h307v-113h-464z" />
    <glyph glyph-name="three" unicode="3" 
d="M293 -10q-108 0 -171 56.5t-63 153.5h126q0 -46 29 -73.5t80 -27.5q50 0 79 27.5t29 73.5v55q0 49 -28.5 76.5t-79.5 27.5h-92v100l168 161h-285v110h422v-106l-168 -161q88 -12 138.5 -66.5t50.5 -141.5v-55q0 -97 -63.5 -153.5t-171.5 -56.5z" />
    <glyph glyph-name="four" unicode="4" 
d="M382 0v145h-323v181l270 404h139l-289 -437v-38h203v165h126v-420h-126z" />
    <glyph glyph-name="five" unicode="5" 
d="M296 -10q-107 0 -170.5 56.5t-63.5 153.5h125q0 -46 29.5 -73.5t80.5 -27.5t79.5 27.5t28.5 76.5v48q0 49 -28 76.5t-79 27.5h-211v375h416v-113h-298l1 -152h98q108 0 167 -56t59 -158v-48q0 -99 -62.5 -156t-171.5 -57z" />
    <glyph glyph-name="six" unicode="6" 
d="M300 -10q-75 0 -130.5 30t-86 84.5t-30.5 127.5q0 43 18.5 98.5t50.5 112.5l158 287h142l-188 -322l4 -2q15 21 44 33t63 12q61 0 106.5 -27.5t70.5 -77.5t25 -118q0 -72 -30.5 -125.5t-86 -83t-130.5 -29.5zM300 96q56 0 90 35.5t34 94.5q0 60 -34 95.5t-90 35.5
t-90 -35.5t-34 -95.5q0 -59 34 -94.5t90 -35.5z" />
    <glyph glyph-name="seven" unicode="7" 
d="M158 0l267 620h-233v-119h-125v229h493v-110l-265 -620h-137z" />
    <glyph glyph-name="eight" unicode="8" 
d="M300 -10q-73 0 -129 27.5t-87 76t-31 112.5q0 67 38.5 117t100.5 63v2q-53 11 -85.5 54t-32.5 102q0 58 28.5 102t79.5 69t118 25t118.5 -25t80 -69t28.5 -102q0 -59 -33 -102t-86 -54v-2q62 -13 100.5 -63t38.5 -117q0 -64 -31 -112.5t-87 -76t-129 -27.5zM300 431
q47 0 76 28.5t29 73.5q0 46 -29 74.5t-76 28.5t-76 -28.5t-29 -74.5q0 -45 29 -73.5t76 -28.5zM300 96q55 0 90 32t35 84q0 53 -35 85.5t-90 32.5t-90 -32.5t-35 -85.5q0 -52 35 -84t90 -32z" />
    <glyph glyph-name="nine" unicode="9" 
d="M175 0l171 295q-12 -9 -28 -15.5t-48 -6.5q-60 0 -109.5 29t-78.5 80.5t-29 119.5q0 72 30.5 125.5t86 83t130.5 29.5t130.5 -30t86 -84.5t30.5 -127.5q0 -43 -18.5 -98.5t-50.5 -112.5l-158 -287h-145zM300 373q56 0 90 35.5t34 95.5q0 59 -34 94.5t-90 35.5t-90 -35.5
t-34 -94.5q0 -60 34 -95.5t90 -35.5z" />
    <glyph glyph-name="colon" unicode=":" 
d="M300 393q-43 0 -68 23t-25 61q0 37 25 60t68 23t68 -23t25 -60q0 -38 -25 -61t-68 -23zM300 -10q-43 0 -68 23t-25 60q0 38 25 61t68 23t68 -23t25 -61q0 -37 -25 -60t-68 -23z" />
    <glyph glyph-name="semicolon" unicode=";" 
d="M290 392q-37 0 -60.5 24t-23.5 60t24 60t60 24h20q36 0 60 -24t24 -60t-23.5 -60t-60.5 -24h-20zM185 -160l53 306h143l-76 -306h-120z" />
    <glyph glyph-name="less" unicode="&#x3c;" 
d="M524 56l-448 211v125l448 211v-115l-290 -134q-20 -9 -39.5 -15.5t-30.5 -8.5q11 -2 31 -8t39 -15l290 -134v-117z" />
    <glyph glyph-name="equal" unicode="=" 
d="M82 395v115h436v-115h-436zM82 150v115h436v-115h-436z" />
    <glyph glyph-name="greater" unicode="&#x3e;" 
d="M76 56v115l290 134q20 9 39.5 15t30.5 9q-11 2 -31 8t-39 14l-290 135v117l448 -211v-125z" />
    <glyph glyph-name="question" unicode="?" 
d="M188 227l-2 190h79q50 0 80 27t30 71q0 45 -30 71.5t-81 26.5h-149v117h143q74 0 128 -26.5t84 -74.5t30 -114q0 -61 -25.5 -107.5t-70.5 -73t-105 -27.5v-80h-111zM229 -5q-31 0 -50 18.5t-19 47.5t19 47.5t50 18.5h30q31 0 49.5 -18.5t18.5 -47.5t-19 -47.5t-50 -18.5
h-29z" />
    <glyph glyph-name="at" unicode="@" 
d="M325 -180q-90 0 -155.5 35.5t-101 100.5t-35.5 155v339q0 90 34 155t97 100t151 35q80 0 137.5 -30.5t88.5 -85t31 -126.5v-270q0 -80 -46.5 -126.5t-125.5 -46.5q-78 0 -123.5 45.5t-45.5 122.5v107q0 75 35 118t96 43q41 0 68 -17t36 -47h2v71q0 73 -40 112.5
t-117 39.5q-82 0 -128 -52.5t-46 -147.5v-339q0 -93 49.5 -144.5t138.5 -51.5h110v-95h-110zM400 138q33 0 50.5 22.5t17.5 62.5v107q0 41 -17.5 63t-50.5 22t-50.5 -22.5t-17.5 -62.5v-107q0 -40 17.5 -62.5t50.5 -22.5z" />
    <glyph glyph-name="A" unicode="A" 
d="M35 0l184 730h161l185 -730h-128l-40 177h-194l-40 -177h-128zM226 279h148l-44 196q-11 49 -19 88.5t-11 57.5q-3 -18 -11 -57.5t-19 -87.5z" />
    <glyph glyph-name="B" unicode="B" 
d="M77 0v730h224q105 0 167.5 -51t62.5 -137q0 -60 -34.5 -103t-89.5 -52v-2q41 -5 73 -29.5t50 -63t18 -84.5q0 -63 -29 -110t-82 -72.5t-125 -25.5h-235zM199 429h100q49 0 78 26.5t29 72.5q0 45 -28.5 71.5t-78.5 26.5h-100v-197zM199 104h106q55 0 86.5 29.5t31.5 80.5
t-31.5 82.5t-86.5 31.5h-106v-224z" />
    <glyph glyph-name="C" unicode="C" 
d="M308 -10q-71 0 -123 26.5t-80.5 75t-28.5 114.5v318q0 66 28.5 114.5t80.5 75t123 26.5q70 0 122 -26.5t81 -75t29 -114.5h-126q0 51 -27.5 78.5t-78.5 27.5t-79 -27.5t-28 -78.5v-318q0 -51 28 -78.5t79 -27.5t78.5 27.5t27.5 78.5h126q0 -66 -29 -114.5t-81 -75
t-122 -26.5z" />
    <glyph glyph-name="D" unicode="D" 
d="M75 0v730h217q74 0 128.5 -28.5t84.5 -79.5t30 -120v-273q0 -69 -30 -120.5t-84.5 -80t-128.5 -28.5h-217zM200 112h92q54 0 86 31.5t32 85.5v273q0 53 -32 84.5t-86 31.5h-92v-506z" />
    <glyph glyph-name="E" unicode="E" 
d="M88 0v730h438v-110h-315v-190h280v-106h-280v-214h315v-110h-438z" />
    <glyph glyph-name="F" unicode="F" 
d="M80 0v730h454v-116h-331v-195h305v-116h-303v-303h-125z" />
    <glyph glyph-name="G" unicode="G" 
d="M304 -10q-71 0 -123 26.5t-80.5 75t-28.5 114.5v318q0 66 28.5 114.5t80.5 75t123 26.5q70 0 122 -26.5t81 -75t29 -114.5h-126q0 51 -27.5 78.5t-78.5 27.5t-79 -27t-28 -78v-319q0 -51 28 -79t79 -28t78.5 28t27.5 79v81h-124v108h250v-189q0 -66 -29 -114.5t-81 -75
t-122 -26.5z" />
    <glyph glyph-name="H" unicode="H" 
d="M77 0v730h125v-296h196v296h125v-730h-125v321h-196v-321h-125z" />
    <glyph glyph-name="I" unicode="I" 
d="M90 0v113h147v504h-147v113h420v-113h-147v-504h147v-113h-420z" />
    <glyph glyph-name="J" unicode="J" 
d="M270 -10q-111 0 -175.5 61t-64.5 165h125q0 -54 30.5 -85.5t84.5 -31.5q53 0 84 31t31 85v515h125v-515q0 -104 -64.5 -164.5t-175.5 -60.5z" />
    <glyph glyph-name="K" unicode="K" 
d="M76 0v730h125v-298h86l139 298h135l-164 -348l172 -382h-139l-144 323h-85v-323h-125z" />
    <glyph glyph-name="L" unicode="L" 
d="M121 0v730h125v-617h310v-113h-435z" />
    <glyph glyph-name="M" unicode="M" 
d="M54 0v730h163l82 -314l83 314h164v-730h-117v307q0 63 3.5 130.5t8.5 131t11 115.5l-103 -367h-103l-99 358q9 -69 16.5 -164.5t7.5 -203.5v-307h-117z" />
    <glyph glyph-name="N" unicode="N" 
d="M72 0v730h153l203 -590q-3 32 -6 75.5t-5.5 88.5t-2.5 80v346h114v-730h-153l-201 590q2 -29 5 -70t5 -84t2 -79v-357h-114z" />
    <glyph glyph-name="O" unicode="O" 
d="M300 -10q-105 0 -166.5 60t-61.5 166v298q0 106 61.5 166t166.5 60t166.5 -60t61.5 -165v-299q0 -106 -61.5 -166t-166.5 -60zM300 100q51 0 77 27.5t26 78.5v318q0 51 -26 78.5t-77 27.5t-77 -27.5t-26 -78.5v-318q0 -51 26 -78.5t77 -27.5z" />
    <glyph glyph-name="P" unicode="P" 
d="M77 0v730h243q73 0 127.5 -28t84.5 -78.5t30 -118.5t-30 -118.5t-84.5 -78.5t-127.5 -28h-118v-280h-125zM202 390h118q53 0 84 32t31 83t-31 83t-84 32h-118v-230z" />
    <glyph glyph-name="Q" unicode="Q" 
d="M409 -180l-103 170h-6q-70 0 -122 27t-81 76t-29 115v314q0 66 28.5 115t81 76t122.5 27t122 -27t81 -76t29 -115v-314q0 -66 -28.5 -115.5t-80.5 -75.5l121 -197h-135zM300 100q52 0 79.5 28.5t27.5 79.5v314q0 51 -28.5 80t-78.5 29t-78.5 -29t-28.5 -80v-314
q0 -51 27.5 -79.5t79.5 -28.5z" />
    <glyph glyph-name="R" unicode="R" 
d="M77 0v730h230q73 0 126.5 -27t83.5 -75.5t30 -114.5q0 -73 -36 -127.5t-97 -77.5l143 -308h-137l-128 290h-91v-290h-124zM201 400h106q53 0 83 29t30 80t-30.5 81t-82.5 30h-106v-220z" />
    <glyph glyph-name="S" unicode="S" 
d="M303 -10q-74 0 -129.5 26t-86 74.5t-30.5 115.5h123q0 -49 33.5 -78t89.5 -29q54 0 85.5 28.5t31.5 76.5q0 36 -20.5 63.5t-58.5 37.5l-98 25q-79 20 -125 75t-46 131q0 93 61 148.5t163 55.5q69 0 120.5 -25t79.5 -70.5t28 -106.5h-122q0 42 -29 68t-77 26
q-47 0 -74.5 -25.5t-27.5 -66.5q0 -34 19.5 -56t54.5 -32l101 -25q81 -20 127.5 -80t46.5 -143q0 -65 -29.5 -113t-83.5 -74.5t-127 -26.5z" />
    <glyph glyph-name="T" unicode="T" 
d="M237 0v617h-191v113h508v-113h-191v-617h-126z" />
    <glyph glyph-name="U" unicode="U" 
d="M300 -10q-107 0 -167.5 58.5t-60.5 159.5v522h126v-521q0 -52 26 -81t76 -29q49 0 75.5 29t26.5 81v521h126v-522q0 -101 -60 -159.5t-168 -58.5z" />
    <glyph glyph-name="V" unicode="V" 
d="M219 0l-184 730h129l111 -476q9 -35 16.5 -75.5t11.5 -64.5q4 24 11.5 64.5t16.5 76.5l107 475h127l-184 -730h-162z" />
    <glyph glyph-name="W" unicode="W" 
d="M90 0l-76 730h104l46 -510q2 -26 4.5 -66.5t2.5 -68.5q3 28 6.5 68.5t6.5 66.5l64 510h107l60 -510q3 -26 7.5 -66.5t7.5 -68.5q1 28 3.5 68.5t4.5 66.5l45 510h103l-80 -730h-138l-56 512q-3 29 -6 70.5t-5 68.5q-2 -27 -5 -68.5t-6 -70.5l-61 -512h-139z" />
    <glyph glyph-name="X" unicode="X" 
d="M28 0l202 374l-190 356h140l92 -183q10 -20 18 -38.5t12 -28.5q3 10 11 28.5t18 38.5l93 183h136l-190 -353l202 -377h-140l-103 202q-10 19 -18.5 38.5t-12.5 30.5q-4 -11 -12 -30t-18 -39l-104 -202h-136z" />
    <glyph glyph-name="Y" unicode="Y" 
d="M237 0v265l-214 465h132l113 -253q13 -30 22 -59t12 -45q4 16 12.5 45t21.5 59l111 253h130l-214 -465v-265h-126z" />
    <glyph glyph-name="Z" unicode="Z" 
d="M79 0v116l293 501h-286v113h424v-116l-294 -501h305v-113h-442z" />
    <glyph glyph-name="bracketleft" unicode="[" 
d="M185 -110v940h280v-115h-155v-710h155v-115h-280z" />
    <glyph glyph-name="backslash" unicode="\" 
d="M409 -110l-349 940h130l349 -940h-130z" />
    <glyph glyph-name="bracketright" unicode="]" 
d="M135 -110v115h155v710h-155v115h280v-940h-280z" />
    <glyph glyph-name="asciicircum" unicode="^" 
d="M68 340l173 390h120l171 -390h-117l-92 230q-8 21 -13.5 40.5t-7.5 29.5q-3 -10 -9 -29.5t-14 -40.5l-95 -230h-116z" />
    <glyph glyph-name="underscore" unicode="_" 
d="M60 -138v113h480v-113h-480z" />
    <glyph glyph-name="grave" unicode="`" 
d="M259 645l-116 140h138l107 -140h-129z" />
    <glyph glyph-name="a" unicode="a" 
d="M239 -10q-84 0 -132.5 47.5t-48.5 124.5q0 80 55 127.5t151 47.5h134v39q0 83 -97 83q-44 0 -70 -17t-29 -48h-120q4 74 62.5 120t157.5 46q105 0 163 -49t58 -138v-373h-122v103q-7 -53 -50 -83t-112 -30zM279 92q55 0 87 27t32 72v65h-128q-41 0 -65 -23t-24 -59
q0 -37 25.5 -59.5t72.5 -22.5z" />
    <glyph glyph-name="b" unicode="b" 
d="M350 -10q-58 0 -97 29t-54 81v-100h-122v730h125v-154l-4 -126q16 52 55.5 81t96.5 29q81 0 130 -57t49 -154v-149q0 -96 -49.5 -153t-129.5 -57zM303 98q48 0 74.5 26t26.5 80v142q0 54 -26.5 80t-74.5 26t-74.5 -29t-26.5 -82v-132q0 -53 26.5 -82t74.5 -29z" />
    <glyph glyph-name="c" unicode="c" 
d="M309 -10q-71 0 -123.5 26.5t-81.5 75t-29 114.5v138q0 66 29 114.5t81.5 75t123.5 26.5q103 0 165.5 -53.5t65.5 -145.5h-123q-3 43 -32.5 66.5t-75.5 23.5q-51 0 -80 -27.5t-29 -78.5v-139q0 -51 29 -79t80 -28q47 0 76 23.5t32 66.5h123q-3 -92 -65.5 -145.5
t-165.5 -53.5z" />
    <glyph glyph-name="d" unicode="d" 
d="M250 -10q-80 0 -129.5 57t-49.5 153v149q0 97 49 154t130 57q57 0 96.5 -29t55.5 -81l-4 126v154h125v-730h-122v100q-15 -52 -54 -81t-97 -29zM297 98q48 0 74.5 29t26.5 82v132q0 53 -26.5 82t-74.5 29t-74.5 -26t-26.5 -80v-142q0 -54 26.5 -80t74.5 -26z" />
    <glyph glyph-name="e" unicode="e" 
d="M301 -10q-70 0 -122 27t-80.5 76.5t-28.5 116.5v130q0 67 28.5 116.5t80.5 76.5t122 27q69 0 120.5 -27t80 -75.5t28.5 -113.5v-100h-340v-38q0 -56 29 -84.5t82 -28.5q39 0 66.5 13.5t32.5 39.5h124q-13 -71 -74 -113.5t-149 -42.5zM190 344v-19l220 1v19q0 57 -28 88
t-81 31q-55 0 -83 -31.5t-28 -88.5z" />
    <glyph glyph-name="f" unicode="f" 
d="M200 0v362h-151v113h151v97q0 72 48 115t127 43h161v-110h-158q-24 0 -38.5 -13.5t-14.5 -36.5v-95h211v-113h-211v-362h-125z" />
    <glyph glyph-name="g" unicode="g" 
d="M152 -180v104h155q44 0 68 23.5t24 63.5v33l2 86q-17 -46 -54.5 -71.5t-91.5 -25.5q-84 0 -133.5 56.5t-49.5 153.5v107q0 96 49.5 153t133.5 57q54 0 91.5 -25.5t54.5 -72.5v88h122v-542q0 -87 -57.5 -137.5t-156.5 -50.5h-157zM297 140q48 0 74.5 28.5t26.5 79.5v96
q0 51 -26.5 79.5t-74.5 28.5t-74 -27.5t-26 -76.5v-104q0 -49 26 -76.5t74 -27.5z" />
    <glyph glyph-name="h" unicode="h" 
d="M77 0v730h125v-180l-3 -102q10 52 49 82t99 30q81 0 129.5 -54t48.5 -145v-361h-125v346q0 51 -26.5 78.5t-71.5 27.5q-47 0 -73.5 -28t-26.5 -80v-344h-125z" />
    <glyph glyph-name="i" unicode="i" 
d="M76 0v113h188v324h-168v113h293v-437h169v-113h-482zM318 642q-38 0 -60 19.5t-22 52.5t22 52.5t60 19.5t60 -19.5t22 -52.5t-22 -52.5t-60 -19.5z" />
    <glyph glyph-name="j" unicode="j" 
d="M81 -180v113h145q48 0 76 28.5t28 77.5v398h-254v113h379v-514q0 -100 -60 -158t-162 -58h-152zM386 642q-38 0 -60 19.5t-22 52.5t22 52.5t60 19.5t60 -19.5t22 -52.5t-22 -52.5t-60 -19.5z" />
    <glyph glyph-name="k" unicode="k" 
d="M82 0v730h125v-396h88l131 216h139l-163 -266l169 -284h-142l-134 228h-88v-228h-125z" />
    <glyph glyph-name="l" unicode="l" 
d="M389 0q-82 0 -131.5 49t-49.5 129v439h-181v113h306v-549q0 -31 17.5 -49.5t47.5 -18.5h161v-113h-170z" />
    <glyph glyph-name="m" unicode="m" 
d="M47 0v550h104v-80h3q3 40 28 65t63 25q37 0 63 -23.5t35 -63.5q4 40 29.5 63.5t64.5 23.5q50 0 83 -39.5t33 -101.5v-419h-110v410q0 27 -12.5 42.5t-35.5 15.5q-45 0 -45 -58v-410h-100v410q0 27 -11.5 42.5t-33.5 15.5q-48 0 -48 -58v-410h-110z" />
    <glyph glyph-name="n" unicode="n" 
d="M77 0v550h122v-103q10 52 49 82.5t99 30.5q81 0 129.5 -54t48.5 -145v-361h-125v346q0 51 -26.5 78.5t-71.5 27.5q-47 0 -73.5 -28t-26.5 -80v-344h-125z" />
    <glyph glyph-name="o" unicode="o" 
d="M300 -9q-106 0 -168 59.5t-62 160.5v128q0 102 62 161t168 59t168 -59t62 -161v-128q0 -101 -62 -160.5t-168 -59.5zM300 100q50 0 77.5 27.5t27.5 79.5v136q0 52 -27.5 79.5t-77.5 27.5t-77.5 -27.5t-27.5 -79.5v-136q0 -52 27.5 -79.5t77.5 -27.5z" />
    <glyph glyph-name="p" unicode="p" 
d="M77 -180v730h122v-101q15 52 54 81.5t97 29.5q53 0 93.5 -26t63 -73.5t22.5 -110.5v-149q0 -95 -49 -153t-130 -58q-58 0 -97.5 30t-54.5 84l4 -130v-154h-125zM303 98q48 0 74.5 26t26.5 80v142q0 54 -26.5 80t-74.5 26t-74.5 -29t-26.5 -82v-132q0 -53 26.5 -82
t74.5 -29z" />
    <glyph glyph-name="q" unicode="q" 
d="M398 -180v154l4 125h-1q-16 -51 -55 -80t-96 -29q-81 0 -130 57t-49 154v149q0 96 49.5 153t129.5 57q58 0 97 -29t54 -81v100h122v-730h-125zM297 98q48 0 74.5 29t26.5 82v132q0 53 -26.5 82t-74.5 29t-74.5 -26t-26.5 -78v-146q0 -52 26.5 -78t74.5 -26z" />
    <glyph glyph-name="r" unicode="r" 
d="M97 0v550h122v-107q10 54 49.5 85.5t102.5 31.5q84 0 131 -54t47 -151v-52h-125v46q0 50 -26 76.5t-74 26.5q-50 0 -76 -30t-26 -85v-337h-125z" />
    <glyph glyph-name="s" unicode="s" 
d="M277 -9q-98 0 -155 44.5t-57 120.5h123q0 -32 23.5 -49t65.5 -17h44q45 0 69.5 17t24.5 49q0 30 -17 44.5t-52 19.5l-137 18q-66 9 -101.5 51t-35.5 109q0 78 52 119.5t150 41.5h46q92 0 148 -42t58 -112h-124q-1 26 -23 41.5t-59 15.5h-46q-40 0 -61 -16.5t-21 -44.5
q0 -25 15.5 -37t45.5 -15l129 -18q76 -9 114.5 -53.5t38.5 -119.5q0 -80 -54.5 -123.5t-159.5 -43.5h-44z" />
    <glyph glyph-name="t" unicode="t" 
d="M355 0q-77 0 -122.5 44.5t-45.5 120.5v272h-152v113h152v155h126v-155h219v-113h-219v-269q0 -24 13.5 -39.5t37.5 -15.5h163v-113h-172z" />
    <glyph glyph-name="u" unicode="u" 
d="M300 -10q-105 0 -165 58.5t-60 159.5v342h125v-341q0 -52 26 -81t74 -29q47 0 73.5 29t26.5 81v341h125v-342q0 -101 -61 -159.5t-164 -58.5z" />
    <glyph glyph-name="v" unicode="v" 
d="M221 0l-185 550h131l106 -334q10 -30 17.5 -60.5t10.5 -52.5q4 22 10.5 52.5t15.5 59.5l105 335h132l-184 -550h-159z" />
    <glyph glyph-name="w" unicode="w" 
d="M102 0l-86 550h99l49 -337q4 -31 7 -67l5 -60q1 24 4 60t9 67l60 337h104l58 -337q6 -31 9.5 -67.5t5.5 -60.5q2 24 4.5 60.5t7.5 67.5l50 337h96l-88 -550h-129l-52 339q-5 28 -9 64.5t-6 59.5q-1 -23 -6 -59.5t-9 -64.5l-54 -339h-129z" />
    <glyph glyph-name="x" unicode="x" 
d="M36 0l192 284l-179 266h141l85 -135q8 -12 15 -27t10 -24q4 9 10.5 24t14.5 27l85 135h142l-179 -266l191 -284h-142l-95 151q-8 12 -15.5 27.5t-11.5 24.5q-4 -9 -11 -24.5t-15 -27.5l-96 -151h-142z" />
    <glyph glyph-name="y" unicode="y" 
d="M165 -180l78 210l-207 520h132l106 -281q9 -25 18 -54.5t13 -54.5q3 25 11.5 54.5t17.5 54.5l98 281h132l-268 -730h-131z" />
    <glyph glyph-name="z" unicode="z" 
d="M78 0v113l287 327h-278v110h424v-113l-290 -327h301v-110h-444z" />
    <glyph glyph-name="braceleft" unicode="{" 
d="M442 -111q-88 0 -139 48.5t-43 129.5l15 152q4 41 -14 62t-62 21h-130v115h130q44 0 62 21t14 61l-15 157q-8 79 43 126.5t139 47.5h69v-115h-51q-37 0 -57 -18.5t-18 -52.5l15 -156q5 -51 -26.5 -84.5t-93.5 -41.5q62 -9 93.5 -44t26.5 -87l-15 -156q-3 -33 17.5 -51.5
t57.5 -18.5h51v-116h-69z" />
    <glyph glyph-name="bar" unicode="|" 
d="M237 -110v940h126v-940h-126z" />
    <glyph glyph-name="braceright" unicode="}" 
d="M89 -111v116h51q37 0 58 18.5t17 51.5l-20 156q-6 51 24 86.5t84 44.5q-54 9 -84 42t-24 84l20 156q4 34 -17 52.5t-58 18.5h-51v115h69q58 0 101.5 -21.5t65 -60.5t15.5 -92l-20 -157q-10 -82 77 -82h134v-115h-134q-87 0 -77 -83l20 -152q6 -54 -15.5 -94t-64.5 -62
t-102 -22h-69z" />
    <glyph glyph-name="asciitilde" unicode="~" 
d="M52 255v79q0 61 40 98.5t105 37.5q41 0 68 -14t44.5 -34t31.5 -40.5t28 -34t35 -13.5q38 0 38 43v73h106v-79q0 -61 -39.5 -98.5t-105.5 -37.5q-41 0 -68 14t-44.5 34t-31.5 40.5t-28 34t-35 13.5q-38 0 -38 -43v-73h-106z" />
    <glyph glyph-name="uni00A0" unicode="&#xa0;" 
 />
    <glyph glyph-name="exclamdown" unicode="&#xa1;" 
d="M285 423q-31 0 -50 18.5t-19 47.5t19 47.5t50 18.5h29q31 0 50.5 -18.5t19.5 -47.5t-18.5 -47.5t-50.5 -18.5h-30zM232 -180l14 503h108l14 -503h-136z" />
    <glyph glyph-name="cent" unicode="&#xa2;" 
d="M274 -140v132q-91 9 -145 66t-54 148v138q0 91 54 148t145 66v132h63v-131q91 -8 145.5 -60t57.5 -138h-123q-2 36 -23.5 58.5t-56.5 28.5v-346q35 6 56.5 28.5t23.5 58.5h123q-3 -86 -57.5 -138t-145.5 -60v-131h-63zM200 206q0 -42 19.5 -68.5t54.5 -34.5v344
q-35 -8 -54.5 -34.5t-19.5 -67.5v-139z" />
    <glyph glyph-name="sterling" unicode="&#xa3;" 
d="M75 0v135q24 14 49 35t42.5 46t17.5 50q0 14 -2 27h-113v104h67l-32 42t-26.5 46.5t-10.5 60.5q0 56 28.5 100t81 69t123.5 25q103 0 165 -55t66 -147h-127q-2 40 -30.5 66.5t-76.5 26.5q-49 0 -77 -25.5t-28 -66.5q0 -30 13 -51.5t30.5 -42t33.5 -48.5h166v-104h-137
v-18q0 -44 -21 -76.5t-52 -53.5t-60 -30h370v-115h-460z" />
    <glyph glyph-name="currency" unicode="&#xa4;" 
d="M494 111l-88 87q-46 -27 -105 -27q-60 0 -106 27l-86 -86l-67 67l84 84q-31 49 -31 110t31 108l-86 87l67 68l88 -88q48 27 106 27q61 0 109 -29l84 84l66 -66l-84 -84q29 -49 29 -107q0 -30 -8 -57.5t-22 -50.5l87 -87zM301 255q49 0 82 34t33 84t-33 84t-82 34
q-50 0 -83.5 -34t-33.5 -84t33.5 -84t83.5 -34z" />
    <glyph glyph-name="yen" unicode="&#xa5;" 
d="M60 108v93h177v63h-177v93h135l-172 373h132l113 -253q13 -30 22 -59t12 -45q4 16 12.5 45t21.5 59l111 253h130l-172 -373h135v-93h-177v-63h177v-93h-177v-108h-126v108h-177z" />
    <glyph glyph-name="brokenbar" unicode="&#xa6;" 
d="M237 450v380h126v-380h-126zM237 -110v380h126v-380h-126z" />
    <glyph glyph-name="section" unicode="&#xa7;" 
d="M280 -155q-99 0 -157.5 41.5t-64.5 114.5h127q4 -26 30 -41.5t65 -15.5h39q46 0 73 20.5t27 53.5q0 61 -89 78l-92 18q-79 15 -124.5 61t-45.5 106q0 59 33.5 93.5t95.5 40.5v5q-33 7 -62 27t-47 51t-18 73q0 78 56.5 123.5t155.5 45.5h38q93 0 149.5 -39.5t64.5 -109.5
h-127q-4 22 -27 36t-60 14h-38q-44 0 -67 -18.5t-23 -49.5q0 -27 17 -46t51 -26l110 -22q81 -17 125.5 -64t44.5 -108q0 -57 -35.5 -91.5t-94.5 -39.5v-5q26 -3 57 -20.5t53 -50.5t22 -83q0 -79 -59 -125.5t-164 -46.5h-39zM321 199q43 -9 70 18t27 76q0 33 -20 58t-53 32
l-63 12q-41 8 -66.5 -18.5t-25.5 -74.5q0 -35 18.5 -60.5t48.5 -30.5z" />
    <glyph glyph-name="dieresis" unicode="&#xa8;" 
d="M417 642q-33 0 -53 19.5t-20 52.5t20 52.5t53 19.5q34 0 54 -19.5t20 -52.5t-20 -52.5t-54 -19.5zM183 642q-34 0 -54 19.5t-20 52.5t20 52.5t54 19.5q33 0 53 -19.5t20 -52.5t-20 -52.5t-53 -19.5z" />
    <glyph glyph-name="copyright" unicode="&#xa9;" 
d="M300 110q-76 0 -133.5 30t-89.5 84t-32 126v150q0 72 32 126t89.5 84t133.5 30q77 0 134 -30t89 -84t32 -126v-150q0 -72 -32 -126t-89 -84t-134 -30zM300 160q60 0 105 23.5t70 66.5t25 100v150q0 57 -25 99.5t-70 66.5t-105 24t-105 -24t-70 -66.5t-25 -99.5v-150
q0 -57 25 -100t70 -66.5t105 -23.5zM305 245q-59 0 -95 33t-36 88v118q0 55 36 88t95 33q58 0 94 -33t36 -88h-77q0 25 -14.5 39.5t-38.5 14.5t-39 -14.5t-15 -39.5v-118q0 -25 15 -39.5t39 -14.5t38.5 14.5t14.5 39.5h77q0 -55 -36 -88t-94 -33z" />
    <glyph glyph-name="ordfeminine" unicode="&#xaa;" 
d="M268 450q-44 0 -71.5 24t-27.5 63t30 62.5t81 23.5h78v27q0 18 -14.5 28t-38.5 10q-22 0 -36.5 -8.5t-16.5 -22.5h-68q7 38 39.5 60.5t81.5 22.5q55 0 88 -24.5t33 -65.5v-195h-65v55h-3q-11 -28 -34.5 -44t-55.5 -16zM287 498q32 0 51.5 15.5t19.5 41.5v22h-78
q-20 0 -31.5 -10t-11.5 -29q0 -18 14 -29t36 -11z" />
    <glyph glyph-name="guillemotleft" unicode="&#xab;" 
d="M441 40l-175 240l176 240h134l-180 -238l180 -242h-135zM196 40l-175 240l176 240h135l-180 -238l180 -242h-136z" />
    <glyph glyph-name="logicalnot" unicode="&#xac;" 
d="M377 165v133h-277v115h400v-248h-123z" />
    <glyph glyph-name="uni00AD" unicode="&#xad;" 
d="M140 272v116h320v-116h-320z" />
    <glyph glyph-name="registered" unicode="&#xae;" 
d="M300 110q-76 0 -133.5 30t-89.5 84t-32 126v150q0 72 32 126t89.5 84t133.5 30q77 0 134 -30t89 -84t32 -126v-150q0 -72 -32 -126t-89 -84t-134 -30zM100 350q0 -57 25 -100t70 -66.5t105 -23.5t105 23.5t70 66.5t25 100v150q0 57 -25 99.5t-70 66.5t-105 24t-105 -24
t-70 -66.5t-25 -99.5v-150zM184 250v350h120q56 0 89.5 -29.5t33.5 -78.5q0 -32 -15.5 -56t-42.5 -36l64 -150h-76l-55 137h-46v-137h-72zM256 446h48q23 0 36.5 13t13.5 36t-13.5 36t-36.5 13h-48v-98z" />
    <glyph glyph-name="macron" unicode="&#xaf;" 
d="M128 661v96h344v-96h-344z" />
    <glyph glyph-name="degree" unicode="&#xb0;" 
d="M300 427q-72 0 -117 43.5t-45 112.5q0 70 45 113.5t117 43.5t117 -43.5t45 -113.5q0 -69 -45 -112.5t-117 -43.5zM300 501q34 0 55.5 23t21.5 59q0 37 -21.5 60t-55.5 23t-55.5 -23t-21.5 -60q0 -36 21.5 -59t55.5 -23z" />
    <glyph glyph-name="plusminus" unicode="&#xb1;" 
d="M67 0v94h174v181h-179v115h179v180h124v-180h179v-115h-179v-181h168v-94h-466z" />
    <glyph glyph-name="uni00B2" unicode="&#xb2;" 
d="M151 382v90l181 143q19 16 30.5 34.5t11.5 39.5q0 31 -20 50t-52 19q-31 0 -51.5 -19.5t-20.5 -50.5h-87q1 65 46 106t113 41q70 0 114.5 -40t44.5 -105q0 -37 -22.5 -70.5t-60.5 -62.5l-126 -98h210v-77h-311z" />
    <glyph glyph-name="uni00B3" unicode="&#xb3;" 
d="M302 377q-75 0 -122.5 41t-47.5 107h87q0 -31 23 -51t60 -20q36 0 59 21.5t23 55.5t-23 55t-59 21h-40v67l106 79h-214v77h301v-81l-105 -82q55 -9 88 -45.5t33 -90.5q0 -69 -47 -111.5t-122 -42.5z" />
    <glyph glyph-name="acute" unicode="&#xb4;" 
d="M214 645l106 140h134l-114 -140h-126z" />
    <glyph glyph-name="uni00B5" unicode="&#xb5;" 
d="M77 -180v730h125v-344q0 -51 26 -79.5t73 -28.5t73.5 28.5t26.5 79.5v344h125v-550h-124l3 105h-2q-5 -54 -30.5 -84.5t-71.5 -30.5q-47 0 -71.5 30.5t-28.5 84.5h-2l3 -131v-154h-125z" />
    <glyph glyph-name="paragraph" unicode="&#xb6;" 
d="M246 -180v490q-85 0 -137.5 47t-52.5 123v80q0 77 52.5 123.5t137.5 46.5h98v-910h-98zM422 -180v910h98v-910h-98z" />
    <glyph glyph-name="periodcentered" unicode="&#xb7;" 
d="M300 255q-42 0 -67.5 25.5t-25.5 66.5t25.5 67t67.5 26t67.5 -26t25.5 -67t-25.5 -66.5t-67.5 -25.5z" />
    <glyph glyph-name="cedilla" unicode="&#xb8;" 
d="M196 -216v64h76q24 0 38.5 11.5t14.5 24.5q0 21 -29.5 34t-82.5 13l35 89h67l-20 -57q28 -3 59 -13.5t52.5 -29.5t21.5 -48q0 -35 -36.5 -61.5t-95.5 -26.5h-100z" />
    <glyph glyph-name="uni00B9" unicode="&#xb9;" 
d="M146 382v78h141v295l-138 -87v89l113 73h112v-370h110v-78h-338z" />
    <glyph glyph-name="ordmasculine" unicode="&#xba;" 
d="M300 448q-57 0 -92 32t-35 82v62q0 51 35 82.5t92 31.5t92 -31.5t35 -82.5v-62q0 -50 -35 -82t-92 -32zM300 505q27 0 43 16t16 41v62q0 25 -16 40.5t-43 15.5t-43 -15.5t-16 -40.5v-62q0 -25 16 -41t43 -16z" />
    <glyph glyph-name="guillemotright" unicode="&#xbb;" 
d="M269 40l177 240l-178 240h136l175 -240l-176 -240h-134zM25 40l177 240l-178 240h135l175 -240l-176 -240h-133z" />
    <glyph glyph-name="onequarter" unicode="&#xbc;" 
d="M-4 0l278 404h-240v65h116v208q-6 -8 -16 -20t-21 -21l-61 -50v87l73 56h102v-260h91l180 261h106l-502 -730h-106zM468 0v64h-169v92l126 169h86l-135 -183v-16h92v81h77v-207h-77z" />
    <glyph glyph-name="onehalf" unicode="&#xbd;" 
d="M-4 0l278 405h-240v65h116v208q-6 -9 -16 -20.5t-21 -20.5l-61 -50v86l73 57h102v-260h92l179 260h106l-502 -730h-106zM312 0v79l134 75q50 29 50 64q0 23 -14 36.5t-37 13.5q-25 0 -40 -14t-15 -38h-78q1 51 38 82.5t95 31.5t93.5 -29.5t35.5 -77.5q0 -65 -93 -115
l-72 -40v-10q11 2 30 4.5t36 2.5h104v-65h-267z" />
    <glyph glyph-name="threequarters" unicode="&#xbe;" 
d="M155 400q-61 0 -97.5 29t-36.5 76h77q0 -19 15.5 -31t41.5 -12q24 0 39 12.5t15 33.5t-14.5 33.5t-38.5 12.5h-30v62l69 55h-150v59h226v-59l-80 -63q44 -5 70 -32t26 -68q0 -49 -36.5 -78.5t-95.5 -29.5zM-4 0l502 730h106l-502 -730h-106zM468 0v64h-169v92l126 169h86
l-135 -183v-16h92v81h77v-207h-77z" />
    <glyph glyph-name="questiondown" unicode="&#xbf;" 
d="M341 423q-31 0 -49.5 18.5t-18.5 47.5t19 47.5t50 18.5h29q31 0 50 -18.5t19 -47.5t-19 -47.5t-50 -18.5h-30zM342 -180q-74 0 -128 26.5t-84 75t-30 113.5q0 61 25.5 107.5t70.5 73t105 27.5v80h111l2 -190h-79q-50 0 -80 -27t-30 -71q0 -45 30 -71.5t81 -26.5h149v-117
h-143z" />
    <glyph glyph-name="Agrave" unicode="&#xc0;" 
d="M35 0l184 730h161l185 -730h-128l-40 177h-194l-40 -177h-128zM226 279h148l-44 196q-11 49 -19 88.5t-11 57.5q-3 -18 -11 -57.5t-19 -87.5zM249 810l-116 140h138l107 -140h-129z" />
    <glyph glyph-name="Aacute" unicode="&#xc1;" 
d="M35 0l184 730h161l185 -730h-128l-40 177h-194l-40 -177h-128zM226 279h148l-44 196q-11 49 -19 88.5t-11 57.5q-3 -18 -11 -57.5t-19 -87.5zM224 810l106 140h134l-114 -140h-126z" />
    <glyph glyph-name="Acircumflex" unicode="&#xc2;" 
d="M35 0l184 730h161l185 -730h-128l-40 177h-194l-40 -177h-128zM226 279h148l-44 196q-11 49 -19 88.5t-11 57.5q-3 -18 -11 -57.5t-19 -87.5zM105 810l137 140h116l137 -140h-120l-76 73l-73 -73h-121z" />
    <glyph glyph-name="Atilde" unicode="&#xc3;" 
d="M35 0l184 730h161l185 -730h-128l-40 177h-194l-40 -177h-128zM226 279h148l-44 196q-11 49 -19 88.5t-11 57.5q-3 -18 -11 -57.5t-19 -87.5zM370 806q-31 0 -50.5 10t-32.5 22.5t-24.5 22t-27.5 9.5q-30 0 -30 -33v-26h-77v33q0 49 28 79.5t74 30.5q31 0 50.5 -10
t32.5 -22.5t24.5 -22t27.5 -9.5q30 0 30 31v28h77v-33q0 -49 -28 -79.5t-74 -30.5z" />
    <glyph glyph-name="Adieresis" unicode="&#xc4;" 
d="M35 0l184 730h161l185 -730h-128l-40 177h-194l-40 -177h-128zM226 279h148l-44 196q-11 49 -19 88.5t-11 57.5q-3 -18 -11 -57.5t-19 -87.5zM417 808q-33 0 -53 19.5t-20 52.5q0 34 20 53.5t53 19.5q34 0 54 -19.5t20 -53.5q0 -33 -20 -52.5t-54 -19.5zM183 808
q-34 0 -54 19.5t-20 52.5q0 34 20 53.5t54 19.5q33 0 53 -19.5t20 -53.5q0 -33 -20 -52.5t-53 -19.5z" />
    <glyph glyph-name="Aring" unicode="&#xc5;" 
d="M35 0l184 730h161l185 -730h-128l-40 177h-194l-40 -177h-128zM226 279h148l-44 196q-11 49 -19 88.5t-11 57.5q-3 -18 -11 -57.5t-19 -87.5zM300 758q-59 0 -95.5 33.5t-36.5 88.5t36.5 88.5t95.5 33.5t95.5 -33.5t36.5 -88.5t-36.5 -88.5t-95.5 -33.5zM300 821
q27 0 43.5 16.5t16.5 42.5t-16.5 42.5t-43.5 16.5t-43.5 -16.5t-16.5 -42.5t16.5 -42.5t43.5 -16.5z" />
    <glyph glyph-name="AE" unicode="&#xc6;" 
d="M12 0l141 730h423v-107h-172v-194h147v-110h-147v-211h172v-108h-280v181h-130l-32 -181h-122zM181 273h115v350h-52z" />
    <glyph glyph-name="Ccedilla" unicode="&#xc7;" 
d="M204 -216v64h76q24 0 38.5 11.5t14.5 24.5q0 21 -29.5 34t-82.5 13l26 65q-80 16 -125.5 71t-45.5 139v318q0 66 28.5 114.5t80.5 75t123 26.5q70 0 122 -26.5t81 -75t29 -114.5h-126q0 51 -27.5 78.5t-78.5 27.5t-79 -27.5t-28 -78.5v-318q0 -51 28 -78.5t79 -27.5
t78.5 27.5t27.5 78.5h126q0 -66 -28.5 -114.5t-80 -75t-119.5 -26.5l-9 -27q28 -3 59 -13.5t52 -29.5t21 -48q0 -35 -36 -61.5t-95 -26.5h-100z" />
    <glyph glyph-name="Egrave" unicode="&#xc8;" 
d="M88 0v730h438v-110h-315v-190h280v-106h-280v-214h315v-110h-438zM256 810l-116 140h138l107 -140h-129z" />
    <glyph glyph-name="Eacute" unicode="&#xc9;" 
d="M88 0v730h438v-110h-315v-190h280v-106h-280v-214h315v-110h-438zM231 810l106 140h134l-114 -140h-126z" />
    <glyph glyph-name="Ecircumflex" unicode="&#xca;" 
d="M88 0v730h438v-110h-315v-190h280v-106h-280v-214h315v-110h-438zM112 810l137 140h116l137 -140h-120l-76 73l-73 -73h-121z" />
    <glyph glyph-name="Edieresis" unicode="&#xcb;" 
d="M88 0v730h438v-110h-315v-190h280v-106h-280v-214h315v-110h-438zM424 808q-33 0 -53 19.5t-20 52.5q0 34 20 53.5t53 19.5q34 0 54 -19.5t20 -53.5q0 -33 -20 -52.5t-54 -19.5zM190 808q-34 0 -54 19.5t-20 52.5q0 34 20 53.5t54 19.5q33 0 53 -19.5t20 -53.5
q0 -33 -20 -52.5t-53 -19.5z" />
    <glyph glyph-name="Igrave" unicode="&#xcc;" 
d="M90 0v113h147v504h-147v113h420v-113h-147v-504h147v-113h-420zM249 810l-116 140h138l107 -140h-129z" />
    <glyph glyph-name="Iacute" unicode="&#xcd;" 
d="M90 0v113h147v504h-147v113h420v-113h-147v-504h147v-113h-420zM224 810l106 140h134l-114 -140h-126z" />
    <glyph glyph-name="Icircumflex" unicode="&#xce;" 
d="M90 0v113h147v504h-147v113h420v-113h-147v-504h147v-113h-420zM105 810l137 140h116l137 -140h-120l-76 73l-73 -73h-121z" />
    <glyph glyph-name="Idieresis" unicode="&#xcf;" 
d="M90 0v113h147v504h-147v113h420v-113h-147v-504h147v-113h-420zM417 808q-33 0 -53 19.5t-20 52.5q0 34 20 53.5t53 19.5q34 0 54 -19.5t20 -53.5q0 -33 -20 -52.5t-54 -19.5zM183 808q-34 0 -54 19.5t-20 52.5q0 34 20 53.5t54 19.5q33 0 53 -19.5t20 -53.5
q0 -33 -20 -52.5t-53 -19.5z" />
    <glyph glyph-name="Eth" unicode="&#xd0;" 
d="M75 0v329h-65v87h65v314h217q74 0 128.5 -28.5t84.5 -79.5t30 -120v-273q0 -69 -30 -120.5t-84.5 -80t-128.5 -28.5h-217zM200 112h92q54 0 86 31.5t32 85.5v273q0 53 -32 84.5t-86 31.5h-92v-202h90v-87h-90v-217z" />
    <glyph glyph-name="Ntilde" unicode="&#xd1;" 
d="M72 0v730h153l203 -590q-3 32 -6 75.5t-5.5 88.5t-2.5 80v346h114v-730h-153l-201 590q2 -29 5 -70t5 -84t2 -79v-357h-114zM370 806q-31 0 -50.5 10t-32.5 22.5t-24.5 22t-27.5 9.5q-30 0 -30 -33v-26h-77v33q0 49 28 79.5t74 30.5q31 0 50.5 -10t32.5 -22.5t24.5 -22
t27.5 -9.5q30 0 30 31v28h77v-33q0 -49 -28 -79.5t-74 -30.5z" />
    <glyph glyph-name="Ograve" unicode="&#xd2;" 
d="M300 -10q-105 0 -166.5 60t-61.5 166v298q0 106 61.5 166t166.5 60t166.5 -60t61.5 -165v-299q0 -106 -61.5 -166t-166.5 -60zM300 100q51 0 77 27.5t26 78.5v318q0 51 -26 78.5t-77 27.5t-77 -27.5t-26 -78.5v-318q0 -51 26 -78.5t77 -27.5zM249 810l-116 140h138
l107 -140h-129z" />
    <glyph glyph-name="Oacute" unicode="&#xd3;" 
d="M300 -10q-105 0 -166.5 60t-61.5 166v298q0 106 61.5 166t166.5 60t166.5 -60t61.5 -165v-299q0 -106 -61.5 -166t-166.5 -60zM300 100q51 0 77 27.5t26 78.5v318q0 51 -26 78.5t-77 27.5t-77 -27.5t-26 -78.5v-318q0 -51 26 -78.5t77 -27.5zM224 810l106 140h134
l-114 -140h-126z" />
    <glyph glyph-name="Ocircumflex" unicode="&#xd4;" 
d="M300 -10q-105 0 -166.5 60t-61.5 166v298q0 106 61.5 166t166.5 60t166.5 -60t61.5 -165v-299q0 -106 -61.5 -166t-166.5 -60zM300 100q51 0 77 27.5t26 78.5v318q0 51 -26 78.5t-77 27.5t-77 -27.5t-26 -78.5v-318q0 -51 26 -78.5t77 -27.5zM105 810l137 140h116
l137 -140h-120l-76 73l-73 -73h-121z" />
    <glyph glyph-name="Otilde" unicode="&#xd5;" 
d="M300 -10q-105 0 -166.5 60t-61.5 166v298q0 106 61.5 166t166.5 60t166.5 -60t61.5 -165v-299q0 -106 -61.5 -166t-166.5 -60zM300 100q51 0 77 27.5t26 78.5v318q0 51 -26 78.5t-77 27.5t-77 -27.5t-26 -78.5v-318q0 -51 26 -78.5t77 -27.5zM370 806q-31 0 -50.5 10
t-32.5 22.5t-24.5 22t-27.5 9.5q-30 0 -30 -33v-26h-77v33q0 49 28 79.5t74 30.5q31 0 50.5 -10t32.5 -22.5t24.5 -22t27.5 -9.5q30 0 30 31v28h77v-33q0 -49 -28 -79.5t-74 -30.5z" />
    <glyph glyph-name="Odieresis" unicode="&#xd6;" 
d="M300 -10q-105 0 -166.5 60t-61.5 166v298q0 106 61.5 166t166.5 60t166.5 -60t61.5 -165v-299q0 -106 -61.5 -166t-166.5 -60zM300 100q51 0 77 27.5t26 78.5v318q0 51 -26 78.5t-77 27.5t-77 -27.5t-26 -78.5v-318q0 -51 26 -78.5t77 -27.5zM417 808q-33 0 -53 19.5
t-20 52.5q0 34 20 53.5t53 19.5q34 0 54 -19.5t20 -53.5q0 -33 -20 -52.5t-54 -19.5zM183 808q-34 0 -54 19.5t-20 52.5q0 34 20 53.5t54 19.5q33 0 53 -19.5t20 -53.5q0 -33 -20 -52.5t-53 -19.5z" />
    <glyph glyph-name="multiply" unicode="&#xd7;" 
d="M170 115l-81 82l128 128l-128 130l81 81l129 -129l131 131l81 -82l-131 -131l130 -128l-82 -82l-129 130z" />
    <glyph glyph-name="Oslash" unicode="&#xd8;" 
d="M23 -40l76 133q-27 48 -27 113v318q0 99 61.5 157.5t166.5 58.5q86 0 144 -40l29 50h104l-70 -123q21 -45 21 -102v-319q0 -99 -61.5 -157.5t-166.5 -58.5q-80 0 -136 35l-37 -65h-104zM194 524v-264l191 336q-27 34 -85 34q-51 0 -78.5 -27.5t-27.5 -78.5zM300 100
q51 0 78.5 27.5t27.5 78.5v244l-184 -323q27 -27 78 -27z" />
    <glyph glyph-name="Ugrave" unicode="&#xd9;" 
d="M300 -10q-107 0 -167.5 58.5t-60.5 159.5v522h126v-521q0 -52 26 -81t76 -29q49 0 75.5 29t26.5 81v521h126v-522q0 -101 -60 -159.5t-168 -58.5zM249 810l-116 140h138l107 -140h-129z" />
    <glyph glyph-name="Uacute" unicode="&#xda;" 
d="M300 -10q-107 0 -167.5 58.5t-60.5 159.5v522h126v-521q0 -52 26 -81t76 -29q49 0 75.5 29t26.5 81v521h126v-522q0 -101 -60 -159.5t-168 -58.5zM224 810l106 140h134l-114 -140h-126z" />
    <glyph glyph-name="Ucircumflex" unicode="&#xdb;" 
d="M300 -10q-107 0 -167.5 58.5t-60.5 159.5v522h126v-521q0 -52 26 -81t76 -29q49 0 75.5 29t26.5 81v521h126v-522q0 -101 -60 -159.5t-168 -58.5zM105 810l137 140h116l137 -140h-120l-76 73l-73 -73h-121z" />
    <glyph glyph-name="Udieresis" unicode="&#xdc;" 
d="M300 -10q-107 0 -167.5 58.5t-60.5 159.5v522h126v-521q0 -52 26 -81t76 -29q49 0 75.5 29t26.5 81v521h126v-522q0 -101 -60 -159.5t-168 -58.5zM417 808q-33 0 -53 19.5t-20 52.5q0 34 20 53.5t53 19.5q34 0 54 -19.5t20 -53.5q0 -33 -20 -52.5t-54 -19.5zM183 808
q-34 0 -54 19.5t-20 52.5q0 34 20 53.5t54 19.5q33 0 53 -19.5t20 -53.5q0 -33 -20 -52.5t-53 -19.5z" />
    <glyph glyph-name="Yacute" unicode="&#xdd;" 
d="M237 0v265l-214 465h132l113 -253q13 -30 22 -59t12 -45q4 16 12.5 45t21.5 59l111 253h130l-214 -465v-265h-126zM224 810l106 140h134l-114 -140h-126z" />
    <glyph glyph-name="Thorn" unicode="&#xde;" 
d="M78 0v730h125v-141h134q104 0 164.5 -56t60.5 -153t-60.5 -153t-164.5 -56h-134v-171h-125zM203 278h119q54 0 83.5 27t29.5 75t-29.5 75t-83.5 27h-119v-204z" />
    <glyph glyph-name="germandbls" unicode="&#xdf;" 
d="M73 0v521q0 65 29 114.5t81 77t121 27.5q67 0 118 -24.5t80 -68t29 -100.5q0 -59 -32 -102.5t-84 -54.5v-2q61 -12 99 -63t38 -119q0 -61 -29.5 -107.5t-82.5 -72.5t-123 -26h-52v110h45q51 0 83 31t32 80q0 50 -31 80.5t-80 30.5h-49v98h38q46 0 75 28t29 74
q0 45 -29 73.5t-75 28.5q-47 0 -76 -31.5t-29 -81.5v-521h-125z" />
    <glyph glyph-name="agrave" unicode="&#xe0;" 
d="M239 -10q-84 0 -132.5 47.5t-48.5 124.5q0 80 55 127.5t151 47.5h134v39q0 83 -97 83q-44 0 -70 -17t-29 -48h-120q4 74 62.5 120t157.5 46q105 0 163 -49t58 -138v-373h-122v103q-7 -53 -50 -83t-112 -30zM279 92q55 0 87 27t32 72v65h-128q-41 0 -65 -23t-24 -59
q0 -37 25.5 -59.5t72.5 -22.5zM254 645l-116 140h138l107 -140h-129z" />
    <glyph glyph-name="aacute" unicode="&#xe1;" 
d="M239 -10q-84 0 -132.5 47.5t-48.5 124.5q0 80 55 127.5t151 47.5h134v39q0 83 -97 83q-44 0 -70 -17t-29 -48h-120q4 74 62.5 120t157.5 46q105 0 163 -49t58 -138v-373h-122v103q-7 -53 -50 -83t-112 -30zM279 92q55 0 87 27t32 72v65h-128q-41 0 -65 -23t-24 -59
q0 -37 25.5 -59.5t72.5 -22.5zM229 645l106 140h134l-114 -140h-126z" />
    <glyph glyph-name="acircumflex" unicode="&#xe2;" 
d="M239 -10q-84 0 -132.5 47.5t-48.5 124.5q0 80 55 127.5t151 47.5h134v39q0 83 -97 83q-44 0 -70 -17t-29 -48h-120q4 74 62.5 120t157.5 46q105 0 163 -49t58 -138v-373h-122v103q-7 -53 -50 -83t-112 -30zM279 92q55 0 87 27t32 72v65h-128q-41 0 -65 -23t-24 -59
q0 -37 25.5 -59.5t72.5 -22.5zM110 645l137 140h116l137 -140h-120l-76 73l-73 -73h-121z" />
    <glyph glyph-name="atilde" unicode="&#xe3;" 
d="M239 -10q-84 0 -132.5 47.5t-48.5 124.5q0 80 55 127.5t151 47.5h134v39q0 83 -97 83q-44 0 -70 -17t-29 -48h-120q4 74 62.5 120t157.5 46q105 0 163 -49t58 -138v-373h-122v103q-7 -53 -50 -83t-112 -30zM279 92q55 0 87 27t32 72v65h-128q-41 0 -65 -23t-24 -59
q0 -37 25.5 -59.5t72.5 -22.5zM375 641q-31 0 -50.5 10t-32.5 22.5t-24.5 22t-27.5 9.5q-30 0 -30 -33v-26h-77v33q0 49 28 79.5t74 30.5q31 0 50.5 -10t32.5 -22.5t24.5 -22t27.5 -9.5q30 0 30 31v28h77v-33q0 -49 -28 -79.5t-74 -30.5z" />
    <glyph glyph-name="adieresis" unicode="&#xe4;" 
d="M239 -10q-84 0 -132.5 47.5t-48.5 124.5q0 80 55 127.5t151 47.5h134v39q0 83 -97 83q-44 0 -70 -17t-29 -48h-120q4 74 62.5 120t157.5 46q105 0 163 -49t58 -138v-373h-122v103q-7 -53 -50 -83t-112 -30zM279 92q55 0 87 27t32 72v65h-128q-41 0 -65 -23t-24 -59
q0 -37 25.5 -59.5t72.5 -22.5zM422 642q-33 0 -53 19.5t-20 52.5t20 52.5t53 19.5q34 0 54 -19.5t20 -52.5t-20 -52.5t-54 -19.5zM188 642q-34 0 -54 19.5t-20 52.5t20 52.5t54 19.5q33 0 53 -19.5t20 -52.5t-20 -52.5t-53 -19.5z" />
    <glyph glyph-name="aring" unicode="&#xe5;" 
d="M239 -10q-84 0 -132.5 47.5t-48.5 124.5q0 80 55 127.5t151 47.5h134v39q0 83 -97 83q-44 0 -70 -17t-29 -48h-120q4 74 62.5 120t157.5 46q105 0 163 -49t58 -138v-373h-122v103q-7 -53 -50 -83t-112 -30zM279 92q55 0 87 27t32 72v65h-128q-41 0 -65 -23t-24 -59
q0 -37 25.5 -59.5t72.5 -22.5zM305 603q-59 0 -95.5 33.5t-36.5 87.5q0 55 36.5 88.5t95.5 33.5t95.5 -33.5t36.5 -88.5q0 -54 -36.5 -87.5t-95.5 -33.5zM305 666q27 0 43.5 16t16.5 42q0 27 -16.5 43t-43.5 16t-43.5 -16t-16.5 -43q0 -26 16.5 -42t43.5 -16z" />
    <glyph glyph-name="ae" unicode="&#xe6;" 
d="M178 -10q-66 0 -107.5 47t-41.5 122t45 122t117 47h60v72q0 34 -14.5 53t-39.5 19t-40 -18t-15 -48h-103q0 69 39.5 111.5t102.5 42.5q49 0 82.5 -24.5t38.5 -66.5q5 42 38.5 66.5t80.5 24.5q65 0 106 -44.5t41 -115.5v-148h-214v-102q0 -34 14.5 -53t39.5 -19
q26 0 40.5 18t14.5 49h105q0 -69 -40.5 -112t-105.5 -43q-45 0 -79 25t-41 66q-6 -41 -40.5 -66t-83.5 -25zM354 328h109v72q0 33 -14.5 52.5t-40.5 19.5q-24 0 -39 -19.5t-15 -52.5v-72zM195 78q25 0 40.5 19.5t15.5 52.5v102h-59q-27 0 -42.5 -23.5t-15.5 -63.5
q0 -39 16 -63t45 -24z" />
    <glyph glyph-name="ccedilla" unicode="&#xe7;" 
d="M200 -216v64h75q24 0 38.5 11.5t14.5 24.5q0 21 -29.5 34t-81.5 13l25 66q-77 17 -122 71.5t-45 137.5v138q0 66 29 114.5t81.5 75t123.5 26.5q103 0 165.5 -53.5t65.5 -145.5h-123q-3 43 -32.5 66.5t-75.5 23.5q-51 0 -80 -27.5t-29 -78.5v-139q0 -51 29 -79t80 -28
q47 0 76 23.5t32 66.5h123q-3 -92 -65.5 -145.5t-165.5 -53.5h-1l-10 -27q29 -3 59.5 -13.5t52 -29.5t21.5 -48q0 -35 -36 -61.5t-96 -26.5h-99z" />
    <glyph glyph-name="egrave" unicode="&#xe8;" 
d="M301 -10q-70 0 -122 27t-80.5 76.5t-28.5 116.5v130q0 67 28.5 116.5t80.5 76.5t122 27q69 0 120.5 -27t80 -75.5t28.5 -113.5v-100h-340v-38q0 -56 29 -84.5t82 -28.5q39 0 66.5 13.5t32.5 39.5h124q-13 -71 -74 -113.5t-149 -42.5zM190 344v-19l220 1v19q0 57 -28 88
t-81 31q-55 0 -83 -31.5t-28 -88.5zM249 645l-116 140h138l107 -140h-129z" />
    <glyph glyph-name="eacute" unicode="&#xe9;" 
d="M301 -10q-70 0 -122 27t-80.5 76.5t-28.5 116.5v130q0 67 28.5 116.5t80.5 76.5t122 27q69 0 120.5 -27t80 -75.5t28.5 -113.5v-100h-340v-38q0 -56 29 -84.5t82 -28.5q39 0 66.5 13.5t32.5 39.5h124q-13 -71 -74 -113.5t-149 -42.5zM190 344v-19l220 1v19q0 57 -28 88
t-81 31q-55 0 -83 -31.5t-28 -88.5zM224 645l106 140h134l-114 -140h-126z" />
    <glyph glyph-name="ecircumflex" unicode="&#xea;" 
d="M301 -10q-70 0 -122 27t-80.5 76.5t-28.5 116.5v130q0 67 28.5 116.5t80.5 76.5t122 27q69 0 120.5 -27t80 -75.5t28.5 -113.5v-100h-340v-38q0 -56 29 -84.5t82 -28.5q39 0 66.5 13.5t32.5 39.5h124q-13 -71 -74 -113.5t-149 -42.5zM190 344v-19l220 1v19q0 57 -28 88
t-81 31q-55 0 -83 -31.5t-28 -88.5zM105 645l137 140h116l137 -140h-120l-76 73l-73 -73h-121z" />
    <glyph glyph-name="edieresis" unicode="&#xeb;" 
d="M301 -10q-70 0 -122 27t-80.5 76.5t-28.5 116.5v130q0 67 28.5 116.5t80.5 76.5t122 27q69 0 120.5 -27t80 -75.5t28.5 -113.5v-100h-340v-38q0 -56 29 -84.5t82 -28.5q39 0 66.5 13.5t32.5 39.5h124q-13 -71 -74 -113.5t-149 -42.5zM190 344v-19l220 1v19q0 57 -28 88
t-81 31q-55 0 -83 -31.5t-28 -88.5zM417 642q-33 0 -53 19.5t-20 52.5t20 52.5t53 19.5q34 0 54 -19.5t20 -52.5t-20 -52.5t-54 -19.5zM183 642q-34 0 -54 19.5t-20 52.5t20 52.5t54 19.5q33 0 53 -19.5t20 -52.5t-20 -52.5t-53 -19.5z" />
    <glyph glyph-name="igrave" unicode="&#xec;" 
d="M76 0v113h188v324h-168v113h293v-437h169v-113h-482zM267 645l-116 140h138l107 -140h-129z" />
    <glyph glyph-name="iacute" unicode="&#xed;" 
d="M76 0v113h188v324h-168v113h293v-437h169v-113h-482zM242 645l106 140h134l-114 -140h-126z" />
    <glyph glyph-name="icircumflex" unicode="&#xee;" 
d="M76 0v113h188v324h-168v113h293v-437h169v-113h-482zM123 645l137 140h116l137 -140h-120l-76 73l-73 -73h-121z" />
    <glyph glyph-name="idieresis" unicode="&#xef;" 
d="M76 0v113h188v324h-168v113h293v-437h169v-113h-482zM435 642q-33 0 -53 19.5t-20 52.5t20 52.5t53 19.5q34 0 54 -19.5t20 -52.5t-20 -52.5t-54 -19.5zM201 642q-34 0 -54 19.5t-20 52.5t20 52.5t54 19.5q33 0 53 -19.5t20 -52.5t-20 -52.5t-53 -19.5z" />
    <glyph glyph-name="eth" unicode="&#xf0;" 
d="M300 -4q-75 0 -130.5 29t-86.5 81t-31 121q0 66 26 116t72.5 77.5t108.5 27.5q48 0 82.5 -24t47.5 -47h9q-1 6 -17.5 33t-53.5 75l-58 78l-158 -64v95l103 42l-70 94h141l37 -51l158 63v-95l-103 -41l64 -87q54 -74 80.5 -144.5t26.5 -135.5q0 -74 -31 -128.5
t-86.5 -84.5t-130.5 -30zM300 102q55 0 88.5 34t33.5 91q0 56 -33.5 90t-88.5 34q-56 0 -89 -34t-33 -90q0 -57 33 -91t89 -34z" />
    <glyph glyph-name="ntilde" unicode="&#xf1;" 
d="M77 0v550h122v-103q10 52 49 82.5t99 30.5q81 0 129.5 -54t48.5 -145v-361h-125v346q0 51 -26.5 78.5t-71.5 27.5q-47 0 -73.5 -28t-26.5 -80v-344h-125zM375 641q-31 0 -50.5 10t-32.5 22.5t-24.5 22t-27.5 9.5q-30 0 -30 -33v-26h-77v33q0 49 28 79.5t74 30.5
q31 0 50.5 -10t32.5 -22.5t24.5 -22t27.5 -9.5q30 0 30 31v28h77v-33q0 -49 -28 -79.5t-74 -30.5z" />
    <glyph glyph-name="ograve" unicode="&#xf2;" 
d="M300 -9q-106 0 -168 59.5t-62 160.5v128q0 102 62 161t168 59t168 -59t62 -161v-128q0 -101 -62 -160.5t-168 -59.5zM300 100q50 0 77.5 27.5t27.5 79.5v136q0 52 -27.5 79.5t-77.5 27.5t-77.5 -27.5t-27.5 -79.5v-136q0 -52 27.5 -79.5t77.5 -27.5zM249 645l-116 140
h138l107 -140h-129z" />
    <glyph glyph-name="oacute" unicode="&#xf3;" 
d="M300 -9q-106 0 -168 59.5t-62 160.5v128q0 102 62 161t168 59t168 -59t62 -161v-128q0 -101 -62 -160.5t-168 -59.5zM300 100q50 0 77.5 27.5t27.5 79.5v136q0 52 -27.5 79.5t-77.5 27.5t-77.5 -27.5t-27.5 -79.5v-136q0 -52 27.5 -79.5t77.5 -27.5zM224 645l106 140h134
l-114 -140h-126z" />
    <glyph glyph-name="ocircumflex" unicode="&#xf4;" 
d="M300 -9q-106 0 -168 59.5t-62 160.5v128q0 102 62 161t168 59t168 -59t62 -161v-128q0 -101 -62 -160.5t-168 -59.5zM300 100q50 0 77.5 27.5t27.5 79.5v136q0 52 -27.5 79.5t-77.5 27.5t-77.5 -27.5t-27.5 -79.5v-136q0 -52 27.5 -79.5t77.5 -27.5zM105 645l137 140h116
l137 -140h-120l-76 73l-73 -73h-121z" />
    <glyph glyph-name="otilde" unicode="&#xf5;" 
d="M300 -9q-106 0 -168 59.5t-62 160.5v128q0 102 62 161t168 59t168 -59t62 -161v-128q0 -101 -62 -160.5t-168 -59.5zM300 100q50 0 77.5 27.5t27.5 79.5v136q0 52 -27.5 79.5t-77.5 27.5t-77.5 -27.5t-27.5 -79.5v-136q0 -52 27.5 -79.5t77.5 -27.5zM370 641
q-31 0 -50.5 10t-32.5 22.5t-24.5 22t-27.5 9.5q-30 0 -30 -33v-26h-77v33q0 49 28 79.5t74 30.5q31 0 50.5 -10t32.5 -22.5t24.5 -22t27.5 -9.5q30 0 30 31v28h77v-33q0 -49 -28 -79.5t-74 -30.5z" />
    <glyph glyph-name="odieresis" unicode="&#xf6;" 
d="M300 -9q-106 0 -168 59.5t-62 160.5v128q0 102 62 161t168 59t168 -59t62 -161v-128q0 -101 -62 -160.5t-168 -59.5zM300 100q50 0 77.5 27.5t27.5 79.5v136q0 52 -27.5 79.5t-77.5 27.5t-77.5 -27.5t-27.5 -79.5v-136q0 -52 27.5 -79.5t77.5 -27.5zM417 642
q-33 0 -53 19.5t-20 52.5t20 52.5t53 19.5q34 0 54 -19.5t20 -52.5t-20 -52.5t-54 -19.5zM183 642q-34 0 -54 19.5t-20 52.5t20 52.5t54 19.5q33 0 53 -19.5t20 -52.5t-20 -52.5t-53 -19.5z" />
    <glyph glyph-name="divide" unicode="&#xf7;" 
d="M300 460q-42 0 -67.5 23t-25.5 61q0 37 25.5 60.5t67.5 23.5t67.5 -23.5t25.5 -60.5q0 -38 -25.5 -61t-67.5 -23zM100 275v113h400v-113h-400zM300 35q-42 0 -67.5 23t-25.5 60q0 38 25.5 61t67.5 23t67.5 -23t25.5 -61q0 -37 -25.5 -60t-67.5 -23z" />
    <glyph glyph-name="oslash" unicode="&#xf8;" 
d="M29 -30l78 110q-35 52 -35 126v138q0 99 61.5 157.5t166.5 58.5q72 0 125 -28l41 58h105l-81 -115q38 -54 38 -130v-139q0 -99 -61.5 -157.5t-166.5 -58.5q-75 0 -130 31l-36 -51h-105zM189 206v-1v-8l170 241q-25 13 -59 13q-53 0 -82 -28.5t-29 -78.5v-138zM300 99
q53 0 82 28.5t29 78.5v138q0 10 -1 18l-174 -248q26 -15 64 -15z" />
    <glyph glyph-name="ugrave" unicode="&#xf9;" 
d="M300 -10q-105 0 -165 58.5t-60 159.5v342h125v-341q0 -52 26 -81t74 -29q47 0 73.5 29t26.5 81v341h125v-342q0 -101 -61 -159.5t-164 -58.5zM249 645l-116 140h138l107 -140h-129z" />
    <glyph glyph-name="uacute" unicode="&#xfa;" 
d="M300 -10q-105 0 -165 58.5t-60 159.5v342h125v-341q0 -52 26 -81t74 -29q47 0 73.5 29t26.5 81v341h125v-342q0 -101 -61 -159.5t-164 -58.5zM224 645l106 140h134l-114 -140h-126z" />
    <glyph glyph-name="ucircumflex" unicode="&#xfb;" 
d="M300 -10q-105 0 -165 58.5t-60 159.5v342h125v-341q0 -52 26 -81t74 -29q47 0 73.5 29t26.5 81v341h125v-342q0 -101 -61 -159.5t-164 -58.5zM105 645l137 140h116l137 -140h-120l-76 73l-73 -73h-121z" />
    <glyph glyph-name="udieresis" unicode="&#xfc;" 
d="M300 -10q-105 0 -165 58.5t-60 159.5v342h125v-341q0 -52 26 -81t74 -29q47 0 73.5 29t26.5 81v341h125v-342q0 -101 -61 -159.5t-164 -58.5zM417 642q-33 0 -53 19.5t-20 52.5t20 52.5t53 19.5q34 0 54 -19.5t20 -52.5t-20 -52.5t-54 -19.5zM183 642q-34 0 -54 19.5
t-20 52.5t20 52.5t54 19.5q33 0 53 -19.5t20 -52.5t-20 -52.5t-53 -19.5z" />
    <glyph glyph-name="yacute" unicode="&#xfd;" 
d="M165 -180l78 210l-207 520h132l106 -281q9 -25 18 -54.5t13 -54.5q3 25 11.5 54.5t17.5 54.5l98 281h132l-268 -730h-131zM224 645l106 140h134l-114 -140h-126z" />
    <glyph glyph-name="thorn" unicode="&#xfe;" 
d="M75 -170v900h125v-154l-4 -126q15 52 54.5 81t96.5 29q82 0 131 -57t49 -154v-149q0 -96 -49.5 -153t-130.5 -57q-57 0 -96 29t-54 81v-270h-122zM301 98q48 0 74.5 26t26.5 80v142q0 54 -26.5 80t-74.5 26t-74.5 -29t-26.5 -82v-132q0 -53 26.5 -82t74.5 -29z" />
    <glyph glyph-name="ydieresis" unicode="&#xff;" 
d="M165 -180l78 210l-207 520h132l106 -281q9 -25 18 -54.5t13 -54.5q3 25 11.5 54.5t17.5 54.5l98 281h132l-268 -730h-131zM417 642q-33 0 -53 19.5t-20 52.5t20 52.5t53 19.5q34 0 54 -19.5t20 -52.5t-20 -52.5t-54 -19.5zM183 642q-34 0 -54 19.5t-20 52.5t20 52.5
t54 19.5q33 0 53 -19.5t20 -52.5t-20 -52.5t-53 -19.5z" />
    <glyph glyph-name="Amacron" unicode="&#x100;" 
d="M35 0l184 730h161l185 -730h-128l-40 177h-194l-40 -177h-128zM226 279h148l-44 196q-11 49 -19 88.5t-11 57.5q-3 -18 -11 -57.5t-19 -87.5zM128 828v96h344v-96h-344z" />
    <glyph glyph-name="amacron" unicode="&#x101;" 
d="M239 -10q-84 0 -132.5 47.5t-48.5 124.5q0 80 55 127.5t151 47.5h134v39q0 83 -97 83q-44 0 -70 -17t-29 -48h-120q4 74 62.5 120t157.5 46q105 0 163 -49t58 -138v-373h-122v103q-7 -53 -50 -83t-112 -30zM279 92q55 0 87 27t32 72v65h-128q-41 0 -65 -23t-24 -59
q0 -37 25.5 -59.5t72.5 -22.5zM133 661v96h344v-96h-344z" />
    <glyph glyph-name="Abreve" unicode="&#x102;" 
d="M35 0l184 730h161l185 -730h-128l-40 177h-194l-40 -177h-128zM226 279h148l-44 196q-11 49 -19 88.5t-11 57.5q-3 -18 -11 -57.5t-19 -87.5zM300 802q-78 0 -126 40.5t-48 107.5h97q0 -33 21 -53t56 -20t56.5 20t21.5 53h97q0 -67 -48 -107.5t-127 -40.5z" />
    <glyph glyph-name="abreve" unicode="&#x103;" 
d="M239 -10q-84 0 -132.5 47.5t-48.5 124.5q0 80 55 127.5t151 47.5h134v39q0 83 -97 83q-44 0 -70 -17t-29 -48h-120q4 74 62.5 120t157.5 46q105 0 163 -49t58 -138v-373h-122v103q-7 -53 -50 -83t-112 -30zM279 92q55 0 87 27t32 72v65h-128q-41 0 -65 -23t-24 -59
q0 -37 25.5 -59.5t72.5 -22.5zM305 637q-78 0 -126.5 40.5t-48.5 107.5h97q0 -33 21.5 -53t56.5 -20t56.5 20t21.5 53h97q0 -67 -48 -107.5t-127 -40.5z" />
    <glyph glyph-name="Aogonek" unicode="&#x104;" 
d="M35 0l184 730h161l185 -730h-41l-11 -10q-51 -44 -51 -77q0 -18 13.5 -30.5t36.5 -12.5h65v-86h-95q-59 0 -93 29t-34 74q0 62 82 113l-40 177h-194l-40 -177h-128zM226 279h148l-44 196q-11 49 -19 88.5t-11 57.5q-3 -18 -11 -57.5t-19 -87.5z" />
    <glyph glyph-name="aogonek" unicode="&#x105;" 
d="M239 -10q-84 0 -132.5 47.5t-48.5 124.5q0 80 55 127.5t151 47.5h134v39q0 83 -97 83q-44 0 -70 -17t-29 -48h-120q4 74 62.5 120t157.5 46q105 0 163 -49t58 -138v-373h2q-34 -30 -48 -50.5t-14 -36.5q0 -18 13 -30.5t37 -12.5h65v-86h-96q-58 0 -92.5 29t-34.5 74
q0 62 82 113h-36v103q-7 -53 -50 -83t-112 -30zM279 92q55 0 87 27t32 72v65h-128q-41 0 -65 -23t-24 -59q0 -37 25.5 -59.5t72.5 -22.5z" />
    <glyph glyph-name="Cacute" unicode="&#x106;" 
d="M308 -10q-71 0 -123 26.5t-80.5 75t-28.5 114.5v318q0 66 28.5 114.5t80.5 75t123 26.5q70 0 122 -26.5t81 -75t29 -114.5h-126q0 51 -27.5 78.5t-78.5 27.5t-79 -27.5t-28 -78.5v-318q0 -51 28 -78.5t79 -27.5t78.5 27.5t27.5 78.5h126q0 -66 -29 -114.5t-81 -75
t-122 -26.5zM229 810l106 140h134l-114 -140h-126z" />
    <glyph glyph-name="cacute" unicode="&#x107;" 
d="M309 -10q-71 0 -123.5 26.5t-81.5 75t-29 114.5v138q0 66 29 114.5t81.5 75t123.5 26.5q103 0 165.5 -53.5t65.5 -145.5h-123q-3 43 -32.5 66.5t-75.5 23.5q-51 0 -80 -27.5t-29 -78.5v-139q0 -51 29 -79t80 -28q47 0 76 23.5t32 66.5h123q-3 -92 -65.5 -145.5
t-165.5 -53.5zM233 645l106 140h134l-114 -140h-126z" />
    <glyph glyph-name="Ccircumflex" unicode="&#x108;" 
d="M308 -10q-71 0 -123 26.5t-80.5 75t-28.5 114.5v318q0 66 28.5 114.5t80.5 75t123 26.5q70 0 122 -26.5t81 -75t29 -114.5h-126q0 51 -27.5 78.5t-78.5 27.5t-79 -27.5t-28 -78.5v-318q0 -51 28 -78.5t79 -27.5t78.5 27.5t27.5 78.5h126q0 -66 -29 -114.5t-81 -75
t-122 -26.5zM110 810l137 140h116l137 -140h-120l-76 73l-73 -73h-121z" />
    <glyph glyph-name="ccircumflex" unicode="&#x109;" 
d="M309 -10q-71 0 -123.5 26.5t-81.5 75t-29 114.5v138q0 66 29 114.5t81.5 75t123.5 26.5q103 0 165.5 -53.5t65.5 -145.5h-123q-3 43 -32.5 66.5t-75.5 23.5q-51 0 -80 -27.5t-29 -78.5v-139q0 -51 29 -79t80 -28q47 0 76 23.5t32 66.5h123q-3 -92 -65.5 -145.5
t-165.5 -53.5zM114 645l137 140h116l137 -140h-120l-76 73l-73 -73h-121z" />
    <glyph glyph-name="Cdotaccent" unicode="&#x10a;" 
d="M308 -10q-71 0 -123 26.5t-80.5 75t-28.5 114.5v318q0 66 28.5 114.5t80.5 75t123 26.5q70 0 122 -26.5t81 -75t29 -114.5h-126q0 51 -27.5 78.5t-78.5 27.5t-79 -27.5t-28 -78.5v-318q0 -51 28 -78.5t79 -27.5t78.5 27.5t27.5 78.5h126q0 -66 -29 -114.5t-81 -75
t-122 -26.5zM305 808q-38 0 -60 19.5t-22 52.5t22 52.5t60 19.5t60 -19.5t22 -52.5t-22 -52.5t-60 -19.5z" />
    <glyph glyph-name="cdotaccent" unicode="&#x10b;" 
d="M309 -10q-71 0 -123.5 26.5t-81.5 75t-29 114.5v138q0 66 29 114.5t81.5 75t123.5 26.5q103 0 165.5 -53.5t65.5 -145.5h-123q-3 43 -32.5 66.5t-75.5 23.5q-51 0 -80 -27.5t-29 -78.5v-139q0 -51 29 -79t80 -28q47 0 76 23.5t32 66.5h123q-3 -92 -65.5 -145.5
t-165.5 -53.5zM309 642q-38 0 -60 19.5t-22 52.5t22 52.5t60 19.5t60 -19.5t22 -52.5t-22 -52.5t-60 -19.5z" />
    <glyph glyph-name="Ccaron" unicode="&#x10c;" 
d="M308 -10q-71 0 -123 26.5t-80.5 75t-28.5 114.5v318q0 66 28.5 114.5t80.5 75t123 26.5q70 0 122 -26.5t81 -75t29 -114.5h-126q0 51 -27.5 78.5t-78.5 27.5t-79 -27.5t-28 -78.5v-318q0 -51 28 -78.5t79 -27.5t78.5 27.5t27.5 78.5h126q0 -66 -29 -114.5t-81 -75
t-122 -26.5zM247 810l-137 140h120l76 -73l73 73h121l-137 -140h-116z" />
    <glyph glyph-name="ccaron" unicode="&#x10d;" 
d="M309 -10q-71 0 -123.5 26.5t-81.5 75t-29 114.5v138q0 66 29 114.5t81.5 75t123.5 26.5q103 0 165.5 -53.5t65.5 -145.5h-123q-3 43 -32.5 66.5t-75.5 23.5q-51 0 -80 -27.5t-29 -78.5v-139q0 -51 29 -79t80 -28q47 0 76 23.5t32 66.5h123q-3 -92 -65.5 -145.5
t-165.5 -53.5zM251 645l-137 140h120l76 -73l73 73h121l-137 -140h-116z" />
    <glyph glyph-name="Dcaron" unicode="&#x10e;" 
d="M75 0v730h217q74 0 128.5 -28.5t84.5 -79.5t30 -120v-273q0 -69 -30 -120.5t-84.5 -80t-128.5 -28.5h-217zM200 112h92q54 0 86 31.5t32 85.5v273q0 53 -32 84.5t-86 31.5h-92v-506zM242 810l-137 140h120l76 -73l73 73h121l-137 -140h-116z" />
    <glyph glyph-name="dcaron" unicode="&#x10f;" 
d="M213 -10q-75 0 -119 55.5t-44 149.5v160q0 94 44 149.5t119 55.5q53 0 87 -31t41 -84h3l-4 131v154h119v-730h-116v105h-2q-7 -53 -41 -84t-87 -31zM494 550l14 180h107l-22 -180h-99zM257 93q39 0 61 28.5t22 79.5v149q0 51 -22 79t-61 28q-41 0 -64.5 -28t-23.5 -79
v-149q0 -51 23.5 -79.5t64.5 -28.5z" />
    <glyph glyph-name="Dcroat" unicode="&#x110;" 
d="M75 0v329h-65v87h65v314h217q74 0 128.5 -28.5t84.5 -79.5t30 -120v-273q0 -69 -30 -120.5t-84.5 -80t-128.5 -28.5h-217zM200 112h92q54 0 86 31.5t32 85.5v273q0 53 -32 84.5t-86 31.5h-92v-202h90v-87h-90v-217z" />
    <glyph glyph-name="dcroat" unicode="&#x111;" 
d="M253 -10q-83 0 -132 56.5t-49 153.5v89q0 97 49 154t132 57q61 0 99 -30.5t46 -84.5h3l-4 131v45h-153v84h153v85h125v-85h78v-84h-78v-561h-122v105h-2q-8 -55 -46 -85t-99 -30zM297 98q48 0 74 28.5t26 79.5v78q0 51 -26 79.5t-74 28.5t-73.5 -28t-25.5 -80v-78
q0 -52 25.5 -80t73.5 -28z" />
    <glyph glyph-name="Emacron" unicode="&#x112;" 
d="M88 0v730h438v-110h-315v-190h280v-106h-280v-214h315v-110h-438zM135 828v96h344v-96h-344z" />
    <glyph glyph-name="emacron" unicode="&#x113;" 
d="M301 -10q-70 0 -122 27t-80.5 76.5t-28.5 116.5v130q0 67 28.5 116.5t80.5 76.5t122 27q69 0 120.5 -27t80 -75.5t28.5 -113.5v-100h-340v-38q0 -56 29 -84.5t82 -28.5q39 0 66.5 13.5t32.5 39.5h124q-13 -71 -74 -113.5t-149 -42.5zM190 344v-19l220 1v19q0 57 -28 88
t-81 31q-55 0 -83 -31.5t-28 -88.5zM128 661v96h344v-96h-344z" />
    <glyph glyph-name="Ebreve" unicode="&#x114;" 
d="M88 0v730h438v-110h-315v-190h280v-106h-280v-214h315v-110h-438zM307 802q-78 0 -126 40.5t-48 107.5h97q0 -33 21 -53t56 -20t56.5 20t21.5 53h97q0 -67 -48 -107.5t-127 -40.5z" />
    <glyph glyph-name="ebreve" unicode="&#x115;" 
d="M301 -10q-70 0 -122 27t-80.5 76.5t-28.5 116.5v130q0 67 28.5 116.5t80.5 76.5t122 27q69 0 120.5 -27t80 -75.5t28.5 -113.5v-100h-340v-38q0 -56 29 -84.5t82 -28.5q39 0 66.5 13.5t32.5 39.5h124q-13 -71 -74 -113.5t-149 -42.5zM190 344v-19l220 1v19q0 57 -28 88
t-81 31q-55 0 -83 -31.5t-28 -88.5zM300 637q-78 0 -126.5 40.5t-48.5 107.5h97q0 -33 21.5 -53t56.5 -20t56.5 20t21.5 53h97q0 -67 -48 -107.5t-127 -40.5z" />
    <glyph glyph-name="Edotaccent" unicode="&#x116;" 
d="M88 0v730h438v-110h-315v-190h280v-106h-280v-214h315v-110h-438zM307 808q-38 0 -60 19.5t-22 52.5t22 52.5t60 19.5t60 -19.5t22 -52.5t-22 -52.5t-60 -19.5z" />
    <glyph glyph-name="edotaccent" unicode="&#x117;" 
d="M301 -10q-70 0 -122 27t-80.5 76.5t-28.5 116.5v130q0 67 28.5 116.5t80.5 76.5t122 27q69 0 120.5 -27t80 -75.5t28.5 -113.5v-100h-340v-38q0 -56 29 -84.5t82 -28.5q39 0 66.5 13.5t32.5 39.5h124q-13 -71 -74 -113.5t-149 -42.5zM190 344v-19l220 1v19q0 57 -28 88
t-81 31q-55 0 -83 -31.5t-28 -88.5zM300 642q-38 0 -60 19.5t-22 52.5t22 52.5t60 19.5t60 -19.5t22 -52.5t-22 -52.5t-60 -19.5z" />
    <glyph glyph-name="Eogonek" unicode="&#x118;" 
d="M88 0v730h438v-110h-315v-190h280v-106h-280v-214h315v-110h-49l-11 -10q-51 -44 -51 -77q0 -18 13.5 -30.5t36.5 -12.5h65v-86h-95q-59 0 -93.5 29t-34.5 74q0 62 82 113h-301z" />
    <glyph glyph-name="eogonek" unicode="&#x119;" 
d="M365 -216q-58 0 -92.5 29t-34.5 74q0 51 68 103h-5q-70 0 -121.5 27t-79.5 75.5t-28 113.5v138q0 65 28 113.5t79.5 75.5t121.5 27q69 0 120.5 -27t79 -75.5t27.5 -113.5v-99h-336v-39q0 -117 110 -117q85 0 99 57h124q-8 -40 -32.5 -71.5t-59.5 -51.5l-37 -33
q-50 -44 -50 -77q0 -18 13 -30.5t37 -12.5h65v-86h-96zM192 344v-21l216 1v21q0 57 -26.5 87.5t-80.5 30.5q-55 0 -82 -31t-27 -88z" />
    <glyph glyph-name="Ecaron" unicode="&#x11a;" 
d="M88 0v730h438v-110h-315v-190h280v-106h-280v-214h315v-110h-438zM249 810l-137 140h120l76 -73l73 73h121l-137 -140h-116z" />
    <glyph glyph-name="ecaron" unicode="&#x11b;" 
d="M301 -10q-70 0 -122 27t-80.5 76.5t-28.5 116.5v130q0 67 28.5 116.5t80.5 76.5t122 27q69 0 120.5 -27t80 -75.5t28.5 -113.5v-100h-340v-38q0 -56 29 -84.5t82 -28.5q39 0 66.5 13.5t32.5 39.5h124q-13 -71 -74 -113.5t-149 -42.5zM190 344v-19l220 1v19q0 57 -28 88
t-81 31q-55 0 -83 -31.5t-28 -88.5zM242 645l-137 140h120l76 -73l73 73h121l-137 -140h-116z" />
    <glyph glyph-name="Gcircumflex" unicode="&#x11c;" 
d="M304 -10q-71 0 -123 26.5t-80.5 75t-28.5 114.5v318q0 66 28.5 114.5t80.5 75t123 26.5q70 0 122 -26.5t81 -75t29 -114.5h-126q0 51 -27.5 78.5t-78.5 27.5t-79 -27t-28 -78v-319q0 -51 28 -79t79 -28t78.5 28t27.5 79v81h-124v108h250v-189q0 -66 -29 -114.5t-81 -75
t-122 -26.5zM105 810l137 140h116l137 -140h-120l-76 73l-73 -73h-121z" />
    <glyph glyph-name="gcircumflex" unicode="&#x11d;" 
d="M152 -180v104h155q44 0 68 23.5t24 63.5v33l2 86q-17 -46 -54.5 -71.5t-91.5 -25.5q-84 0 -133.5 56.5t-49.5 153.5v107q0 96 49.5 153t133.5 57q54 0 91.5 -25.5t54.5 -72.5v88h122v-542q0 -87 -57.5 -137.5t-156.5 -50.5h-157zM297 140q48 0 74.5 28.5t26.5 79.5v96
q0 51 -26.5 79.5t-74.5 28.5t-74 -27.5t-26 -76.5v-104q0 -49 26 -76.5t74 -27.5zM102 645l137 140h116l137 -140h-120l-76 73l-73 -73h-121z" />
    <glyph glyph-name="Gbreve" unicode="&#x11e;" 
d="M304 -10q-71 0 -123 26.5t-80.5 75t-28.5 114.5v318q0 66 28.5 114.5t80.5 75t123 26.5q70 0 122 -26.5t81 -75t29 -114.5h-126q0 51 -27.5 78.5t-78.5 27.5t-79 -27t-28 -78v-319q0 -51 28 -79t79 -28t78.5 28t27.5 79v81h-124v108h250v-189q0 -66 -29 -114.5t-81 -75
t-122 -26.5zM300 802q-78 0 -126 40.5t-48 107.5h97q0 -33 21 -53t56 -20t56.5 20t21.5 53h97q0 -67 -48 -107.5t-127 -40.5z" />
    <glyph glyph-name="gbreve" unicode="&#x11f;" 
d="M152 -180v104h155q44 0 68 23.5t24 63.5v33l2 86q-17 -46 -54.5 -71.5t-91.5 -25.5q-84 0 -133.5 56.5t-49.5 153.5v107q0 96 49.5 153t133.5 57q54 0 91.5 -25.5t54.5 -72.5v88h122v-542q0 -87 -57.5 -137.5t-156.5 -50.5h-157zM297 140q48 0 74.5 28.5t26.5 79.5v96
q0 51 -26.5 79.5t-74.5 28.5t-74 -27.5t-26 -76.5v-104q0 -49 26 -76.5t74 -27.5zM297 637q-78 0 -126.5 40.5t-48.5 107.5h97q0 -33 21.5 -53t56.5 -20t56.5 20t21.5 53h97q0 -67 -48 -107.5t-127 -40.5z" />
    <glyph glyph-name="Gdotaccent" unicode="&#x120;" 
d="M304 -10q-71 0 -123 26.5t-80.5 75t-28.5 114.5v318q0 66 28.5 114.5t80.5 75t123 26.5q70 0 122 -26.5t81 -75t29 -114.5h-126q0 51 -27.5 78.5t-78.5 27.5t-79 -27t-28 -78v-319q0 -51 28 -79t79 -28t78.5 28t27.5 79v81h-124v108h250v-189q0 -66 -29 -114.5t-81 -75
t-122 -26.5zM300 808q-38 0 -60 19.5t-22 52.5t22 52.5t60 19.5t60 -19.5t22 -52.5t-22 -52.5t-60 -19.5z" />
    <glyph glyph-name="gdotaccent" unicode="&#x121;" 
d="M152 -180v104h155q44 0 68 23.5t24 63.5v33l2 86q-17 -46 -54.5 -71.5t-91.5 -25.5q-84 0 -133.5 56.5t-49.5 153.5v107q0 96 49.5 153t133.5 57q54 0 91.5 -25.5t54.5 -72.5v88h122v-542q0 -87 -57.5 -137.5t-156.5 -50.5h-157zM297 140q48 0 74.5 28.5t26.5 79.5v96
q0 51 -26.5 79.5t-74.5 28.5t-74 -27.5t-26 -76.5v-104q0 -49 26 -76.5t74 -27.5zM297 642q-38 0 -60 19.5t-22 52.5t22 52.5t60 19.5t60 -19.5t22 -52.5t-22 -52.5t-60 -19.5z" />
    <glyph glyph-name="uni0122" unicode="&#x122;" 
d="M304 -10q-71 0 -123 26.5t-80.5 75t-28.5 114.5v318q0 66 28.5 114.5t80.5 75t123 26.5q70 0 122 -26.5t81 -75t29 -114.5h-126q0 51 -27.5 78.5t-78.5 27.5t-79 -27t-28 -78v-319q0 -51 28 -79t79 -28t78.5 28t27.5 79v81h-124v108h250v-189q0 -66 -29 -114.5t-81 -75
t-122 -26.5zM185 -240l95 145h132l-111 -145h-116z" />
    <glyph glyph-name="uni0123" unicode="&#x123;" 
d="M152 -180v104h155q44 0 68 23.5t24 63.5v33l2 86q-17 -46 -54.5 -71.5t-91.5 -25.5q-84 0 -133.5 56.5t-49.5 153.5v107q0 96 49.5 153t133.5 57q54 0 91.5 -25.5t54.5 -72.5v88h122v-542q0 -87 -57.5 -137.5t-156.5 -50.5h-157zM297 140q48 0 74.5 28.5t26.5 79.5v96
q0 51 -26.5 79.5t-74.5 28.5t-74 -27.5t-26 -76.5v-104q0 -49 26 -76.5t74 -27.5zM427 880l-80 -235h-152l130 235h102z" />
    <glyph glyph-name="Hcircumflex" unicode="&#x124;" 
d="M77 0v730h125v-296h196v296h125v-730h-125v321h-196v-321h-125zM105 810l137 140h116l137 -140h-120l-76 73l-73 -73h-121z" />
    <glyph glyph-name="hcircumflex" unicode="&#x125;" 
d="M77 0v730h125v-180l-3 -102q10 52 49 82t99 30q81 0 129.5 -54t48.5 -145v-361h-125v346q0 51 -26.5 78.5t-71.5 27.5q-47 0 -73.5 -28t-26.5 -80v-344h-125zM-55 825l137 140h116l137 -140h-120l-76 73l-73 -73h-121z" />
    <glyph glyph-name="Hbar" unicode="&#x126;" 
d="M77 0v525h-67v87h67v118h125v-118h196v118h125v-118h67v-87h-67v-525h-125v321h-196v-321h-125zM202 434h196v91h-196v-91z" />
    <glyph glyph-name="hbar" unicode="&#x127;" 
d="M0 561v84h77v85h125v-85h154v-84h-154v-71l-3 -105h2q9 54 47 84.5t99 30.5q81 0 129.5 -54t48.5 -145v-301h-125v288q0 50 -26.5 77t-72.5 27t-72.5 -28t-26.5 -80v-284h-125v561h-77z" />
    <glyph glyph-name="Itilde" unicode="&#x128;" 
d="M90 0v113h147v504h-147v113h420v-113h-147v-504h147v-113h-420zM370 806q-31 0 -50.5 10t-32.5 22.5t-24.5 22t-27.5 9.5q-30 0 -30 -33v-26h-77v33q0 49 28 79.5t74 30.5q31 0 50.5 -10t32.5 -22.5t24.5 -22t27.5 -9.5q30 0 30 31v28h77v-33q0 -49 -28 -79.5t-74 -30.5z
" />
    <glyph glyph-name="itilde" unicode="&#x129;" 
d="M76 0v113h188v324h-168v113h293v-437h169v-113h-482zM388 641q-31 0 -50.5 10t-32.5 22.5t-24.5 22t-27.5 9.5q-30 0 -30 -33v-26h-77v33q0 49 28 79.5t74 30.5q31 0 50.5 -10t32.5 -22.5t24.5 -22t27.5 -9.5q30 0 30 31v28h77v-33q0 -49 -28 -79.5t-74 -30.5z" />
    <glyph glyph-name="Imacron" unicode="&#x12a;" 
d="M90 0v113h147v504h-147v113h420v-113h-147v-504h147v-113h-420zM128 828v96h344v-96h-344z" />
    <glyph glyph-name="imacron" unicode="&#x12b;" 
d="M76 0v113h188v324h-168v113h293v-437h169v-113h-482zM146 661v96h344v-96h-344z" />
    <glyph glyph-name="Ibreve" unicode="&#x12c;" 
d="M90 0v113h147v504h-147v113h420v-113h-147v-504h147v-113h-420zM300 802q-78 0 -126 40.5t-48 107.5h97q0 -33 21 -53t56 -20t56.5 20t21.5 53h97q0 -67 -48 -107.5t-127 -40.5z" />
    <glyph glyph-name="ibreve" unicode="&#x12d;" 
d="M76 0v113h188v324h-168v113h293v-437h169v-113h-482zM318 637q-78 0 -126.5 40.5t-48.5 107.5h97q0 -33 21.5 -53t56.5 -20t56.5 20t21.5 53h97q0 -67 -48 -107.5t-127 -40.5z" />
    <glyph glyph-name="Iogonek" unicode="&#x12e;" 
d="M90 0v113h147v504h-147v113h420v-113h-147v-504h147v-113h-167l-11 -10q-51 -44 -51 -77q0 -18 13.5 -30.5t36.5 -12.5h65v-86h-95q-59 0 -93.5 29t-34.5 74q0 62 82 113h-165z" />
    <glyph glyph-name="iogonek" unicode="&#x12f;" 
d="M318 642q-38 0 -60 19.5t-22 52.5t22 52.5t60 19.5t60 -19.5t22 -52.5t-22 -52.5t-60 -19.5zM76 0v113h188v324h-168v113h293v-437h169v-113h-197l-11 -10q-51 -44 -51 -77q0 -18 13 -30.5t37 -12.5h65v-86h-96q-58 0 -92.5 29t-34.5 74q0 62 82 113h-197z" />
    <glyph glyph-name="Idotaccent" unicode="&#x130;" 
d="M90 0v113h147v504h-147v113h420v-113h-147v-504h147v-113h-420zM300 808q-38 0 -60 19.5t-22 52.5t22 52.5t60 19.5t60 -19.5t22 -52.5t-22 -52.5t-60 -19.5z" />
    <glyph glyph-name="dotlessi" unicode="&#x131;" 
d="M76 0v113h188v324h-168v113h293v-437h169v-113h-482z" />
    <glyph glyph-name="Jcircumflex" unicode="&#x134;" 
d="M270 -10q-111 0 -175.5 61t-64.5 165h125q0 -54 30.5 -85.5t84.5 -31.5q53 0 84 31t31 85v515h125v-515q0 -104 -64.5 -164.5t-175.5 -60.5zM255 810l137 140h116l137 -140h-120l-76 73l-73 -73h-121z" />
    <glyph glyph-name="jcircumflex" unicode="&#x135;" 
d="M81 -180v113h145q48 0 76 28.5t28 77.5v398h-254v113h379v-514q0 -100 -60 -158t-162 -58h-152zM191 645l137 140h116l137 -140h-120l-76 73l-73 -73h-121z" />
    <glyph glyph-name="uni0136" unicode="&#x136;" 
d="M76 0v730h125v-298h86l139 298h135l-164 -348l172 -382h-139l-144 323h-85v-323h-125zM181 -240l95 145h132l-111 -145h-116z" />
    <glyph glyph-name="uni0137" unicode="&#x137;" 
d="M82 0v730h125v-396h88l131 216h139l-163 -266l169 -284h-142l-134 228h-88v-228h-125zM181 -240l95 145h132l-111 -145h-116z" />
    <glyph glyph-name="kgreenlandic" unicode="&#x138;" 
d="M86 0v550h125v-212h88l126 212h141l-160 -266l170 -284h-143l-134 225h-88v-225h-125z" />
    <glyph glyph-name="Lacute" unicode="&#x139;" 
d="M121 0v730h125v-617h310v-113h-435zM108 810l106 140h134l-114 -140h-126z" />
    <glyph glyph-name="lacute" unicode="&#x13a;" 
d="M389 0q-82 0 -131.5 49t-49.5 129v439h-181v113h306v-549q0 -31 17.5 -49.5t47.5 -18.5h161v-113h-170zM182 810l106 140h134l-114 -140h-126z" />
    <glyph glyph-name="uni013B" unicode="&#x13b;" 
d="M121 0v730h125v-617h310v-113h-435zM221 -240l95 145h132l-111 -145h-116z" />
    <glyph glyph-name="uni013C" unicode="&#x13c;" 
d="M389 0q-82 0 -131.5 49t-49.5 129v439h-181v113h306v-549q0 -31 17.5 -49.5t47.5 -18.5h161v-113h-170zM201 -240l95 145h132l-111 -145h-116z" />
    <glyph glyph-name="Lcaron" unicode="&#x13d;" 
d="M121 0v730h125v-617h310v-113h-435zM343 550l14 180h107l-22 -180h-99z" />
    <glyph glyph-name="lcaron" unicode="&#x13e;" 
d="M389 0q-82 0 -131.5 49t-49.5 129v439h-181v113h306v-549q0 -31 17.5 -49.5t47.5 -18.5h161v-113h-170zM417 550l14 180h107l-22 -180h-99z" />
    <glyph glyph-name="Ldot" unicode="&#x13f;" 
d="M121 0v730h125v-617h310v-113h-435zM480 265q-42 0 -67.5 25.5t-25.5 66.5t25.5 67t67.5 26t67.5 -26t25.5 -67t-25.5 -66.5t-67.5 -25.5z" />
    <glyph glyph-name="ldot" unicode="&#x140;" 
d="M369 0q-82 0 -131.5 49t-49.5 129v439h-181v113h306v-549q0 -31 17.5 -49.5t47.5 -18.5h161v-113h-170zM560 265q-42 0 -67.5 25.5t-25.5 66.5t25.5 67t67.5 26t67.5 -26t25.5 -67t-25.5 -66.5t-67.5 -25.5z" />
    <glyph glyph-name="Lslash" unicode="&#x141;" 
d="M127 0v291l-107 -61v115l107 61v324h125v-252l144 82v-115l-144 -82v-250h310v-113h-435z" />
    <glyph glyph-name="lslash" unicode="&#x142;" 
d="M100 230v115l108 62v210h-181v113h306v-251l143 81v-115l-143 -82v-182q0 -31 17.5 -49.5t47.5 -18.5h161v-113h-170q-82 0 -131.5 49t-49.5 129v114z" />
    <glyph glyph-name="Nacute" unicode="&#x143;" 
d="M72 0v730h153l203 -590q-3 32 -6 75.5t-5.5 88.5t-2.5 80v346h114v-730h-153l-201 590q2 -29 5 -70t5 -84t2 -79v-357h-114zM224 810l106 140h134l-114 -140h-126z" />
    <glyph glyph-name="nacute" unicode="&#x144;" 
d="M77 0v550h122v-103q10 52 49 82.5t99 30.5q81 0 129.5 -54t48.5 -145v-361h-125v346q0 51 -26.5 78.5t-71.5 27.5q-47 0 -73.5 -28t-26.5 -80v-344h-125zM229 645l106 140h134l-114 -140h-126z" />
    <glyph glyph-name="uni0145" unicode="&#x145;" 
d="M72 0v730h153l203 -590q-3 32 -6 75.5t-5.5 88.5t-2.5 80v346h114v-730h-153l-201 590q2 -29 5 -70t5 -84t2 -79v-357h-114zM181 -240l95 145h132l-111 -145h-116z" />
    <glyph glyph-name="uni0146" unicode="&#x146;" 
d="M77 0v550h122v-103q10 52 49 82.5t99 30.5q81 0 129.5 -54t48.5 -145v-361h-125v346q0 51 -26.5 78.5t-71.5 27.5q-47 0 -73.5 -28t-26.5 -80v-344h-125zM181 -240l95 145h132l-111 -145h-116z" />
    <glyph glyph-name="Ncaron" unicode="&#x147;" 
d="M72 0v730h153l203 -590q-3 32 -6 75.5t-5.5 88.5t-2.5 80v346h114v-730h-153l-201 590q2 -29 5 -70t5 -84t2 -79v-357h-114zM242 810l-137 140h120l76 -73l73 73h121l-137 -140h-116z" />
    <glyph glyph-name="ncaron" unicode="&#x148;" 
d="M77 0v550h122v-103q10 52 49 82.5t99 30.5q81 0 129.5 -54t48.5 -145v-361h-125v346q0 51 -26.5 78.5t-71.5 27.5q-47 0 -73.5 -28t-26.5 -80v-344h-125zM247 645l-137 140h120l76 -73l73 73h121l-137 -140h-116z" />
    <glyph glyph-name="napostrophe" unicode="&#x149;" 
d="M77 0v550h122v-103q10 52 49 82.5t99 30.5q81 0 129.5 -54t48.5 -145v-361h-125v346q0 51 -26.5 78.5t-71.5 27.5q-47 0 -73.5 -28t-26.5 -80v-344h-125zM-19 645l95 145h132l-111 -145h-116z" />
    <glyph glyph-name="Eng" unicode="&#x14a;" 
d="M246 -180v119h62q44 0 69 24t25 67l-228 560q2 -29 5 -70t5 -84t2 -79v-357h-114v730h153l203 -502q-3 32 -6 75.5t-5.5 88.5t-2.5 80v258h114v-709q0 -60 -28.5 -105t-79.5 -70.5t-118 -25.5h-56z" />
    <glyph glyph-name="eng" unicode="&#x14b;" 
d="M244 -180v119h61q44 0 69 24t25 67v318q0 50 -26 77t-72 27t-72 -28t-26 -80v-344h-125v550h122v-105h2q8 54 46 84.5t99 30.5q81 0 129 -54t48 -145v-340q0 -60 -28.5 -105t-79 -70.5t-117.5 -25.5h-55z" />
    <glyph glyph-name="Omacron" unicode="&#x14c;" 
d="M300 -10q-105 0 -166.5 60t-61.5 166v298q0 106 61.5 166t166.5 60t166.5 -60t61.5 -165v-299q0 -106 -61.5 -166t-166.5 -60zM300 100q51 0 77 27.5t26 78.5v318q0 51 -26 78.5t-77 27.5t-77 -27.5t-26 -78.5v-318q0 -51 26 -78.5t77 -27.5zM128 828v96h344v-96h-344z
" />
    <glyph glyph-name="omacron" unicode="&#x14d;" 
d="M300 -9q-106 0 -168 59.5t-62 160.5v128q0 102 62 161t168 59t168 -59t62 -161v-128q0 -101 -62 -160.5t-168 -59.5zM300 100q50 0 77.5 27.5t27.5 79.5v136q0 52 -27.5 79.5t-77.5 27.5t-77.5 -27.5t-27.5 -79.5v-136q0 -52 27.5 -79.5t77.5 -27.5zM128 661v96h344v-96
h-344z" />
    <glyph glyph-name="Obreve" unicode="&#x14e;" 
d="M300 -10q-105 0 -166.5 60t-61.5 166v298q0 106 61.5 166t166.5 60t166.5 -60t61.5 -165v-299q0 -106 -61.5 -166t-166.5 -60zM300 100q51 0 77 27.5t26 78.5v318q0 51 -26 78.5t-77 27.5t-77 -27.5t-26 -78.5v-318q0 -51 26 -78.5t77 -27.5zM300 802q-78 0 -126 40.5
t-48 107.5h97q0 -33 21 -53t56 -20t56.5 20t21.5 53h97q0 -67 -48 -107.5t-127 -40.5z" />
    <glyph glyph-name="obreve" unicode="&#x14f;" 
d="M300 -9q-106 0 -168 59.5t-62 160.5v128q0 102 62 161t168 59t168 -59t62 -161v-128q0 -101 -62 -160.5t-168 -59.5zM300 100q50 0 77.5 27.5t27.5 79.5v136q0 52 -27.5 79.5t-77.5 27.5t-77.5 -27.5t-27.5 -79.5v-136q0 -52 27.5 -79.5t77.5 -27.5zM300 637
q-78 0 -126.5 40.5t-48.5 107.5h97q0 -33 21.5 -53t56.5 -20t56.5 20t21.5 53h97q0 -67 -48 -107.5t-127 -40.5z" />
    <glyph glyph-name="Ohungarumlaut" unicode="&#x150;" 
d="M300 -10q-105 0 -166.5 60t-61.5 166v298q0 106 61.5 166t166.5 60t166.5 -60t61.5 -165v-299q0 -106 -61.5 -166t-166.5 -60zM300 100q51 0 77 27.5t26 78.5v318q0 51 -26 78.5t-77 27.5t-77 -27.5t-26 -78.5v-318q0 -51 26 -78.5t77 -27.5zM324 810l107 140h122
l-115 -140h-114zM122 810l108 140h121l-115 -140h-114z" />
    <glyph glyph-name="ohungarumlaut" unicode="&#x151;" 
d="M300 -9q-106 0 -168 59.5t-62 160.5v128q0 102 62 161t168 59t168 -59t62 -161v-128q0 -101 -62 -160.5t-168 -59.5zM300 100q50 0 77.5 27.5t27.5 79.5v136q0 52 -27.5 79.5t-77.5 27.5t-77.5 -27.5t-27.5 -79.5v-136q0 -52 27.5 -79.5t77.5 -27.5zM324 645l107 140h122
l-115 -140h-114zM122 645l108 140h121l-115 -140h-114z" />
    <glyph glyph-name="OE" unicode="&#x152;" 
d="M183 -6q-70 0 -109.5 52t-39.5 143v356q0 91 39.5 143t109.5 52q36 0 59.5 -14.5t36 -35t14.5 -40.5h5v80h280v-107h-168v-194h143v-108h-143v-213h168v-108h-280v84h-5q-2 -20 -14.5 -41t-36 -35t-59.5 -14zM224 100q33 0 52 23.5t19 65.5v356q0 42 -19 65.5t-52 23.5
t-52 -24t-19 -65v-356q0 -42 19 -65.5t52 -23.5z" />
    <glyph glyph-name="oe" unicode="&#x153;" 
d="M180 -10q-66 0 -105.5 42t-39.5 112v262q0 70 39.5 112t105.5 42q38 0 63 -12.5t38 -30.5t16 -34h6q2 16 15 34t38 30.5t64 12.5q66 0 105.5 -42t39.5 -112v-156h-214v-106q0 -30 15 -47.5t40 -17.5q24 0 38.5 14.5t16.5 40.5h103q-4 -66 -43.5 -105t-100.5 -39
q-39 0 -64 12.5t-38 30.5t-15 34h-6q-3 -16 -16 -34t-38 -30.5t-63 -12.5zM194 79q26 0 40.5 17t14.5 48v262q0 31 -14.5 48t-40.5 17t-41 -17.5t-15 -47.5v-262q0 -30 15 -47.5t41 -17.5zM351 327h111v79q0 31 -14.5 48t-41.5 17q-25 0 -40 -17.5t-15 -47.5v-79z" />
    <glyph glyph-name="Racute" unicode="&#x154;" 
d="M77 0v730h230q73 0 126.5 -27t83.5 -75.5t30 -114.5q0 -73 -36 -127.5t-97 -77.5l143 -308h-137l-128 290h-91v-290h-124zM201 400h106q53 0 83 29t30 80t-30.5 81t-82.5 30h-106v-220zM224 810l106 140h134l-114 -140h-126z" />
    <glyph glyph-name="racute" unicode="&#x155;" 
d="M97 0v550h122v-107q10 54 49.5 85.5t102.5 31.5q84 0 131 -54t47 -151v-52h-125v46q0 50 -26 76.5t-74 26.5q-50 0 -76 -30t-26 -85v-337h-125zM244 645l106 140h134l-114 -140h-126z" />
    <glyph glyph-name="uni0156" unicode="&#x156;" 
d="M77 0v730h230q73 0 126.5 -27t83.5 -75.5t30 -114.5q0 -73 -36 -127.5t-97 -77.5l143 -308h-137l-128 290h-91v-290h-124zM201 400h106q53 0 83 29t30 80t-30.5 81t-82.5 30h-106v-220zM181 -240l95 145h132l-111 -145h-116z" />
    <glyph glyph-name="uni0157" unicode="&#x157;" 
d="M97 0v550h122v-107q10 54 49.5 85.5t102.5 31.5q84 0 131 -54t47 -151v-52h-125v46q0 50 -26 76.5t-74 26.5q-50 0 -76 -30t-26 -85v-337h-125zM26 -240l95 145h132l-111 -145h-116z" />
    <glyph glyph-name="Rcaron" unicode="&#x158;" 
d="M77 0v730h230q73 0 126.5 -27t83.5 -75.5t30 -114.5q0 -73 -36 -127.5t-97 -77.5l143 -308h-137l-128 290h-91v-290h-124zM201 400h106q53 0 83 29t30 80t-30.5 81t-82.5 30h-106v-220zM242 810l-137 140h120l76 -73l73 73h121l-137 -140h-116z" />
    <glyph glyph-name="rcaron" unicode="&#x159;" 
d="M97 0v550h122v-107q10 54 49.5 85.5t102.5 31.5q84 0 131 -54t47 -151v-52h-125v46q0 50 -26 76.5t-74 26.5q-50 0 -76 -30t-26 -85v-337h-125zM262 645l-137 140h120l76 -73l73 73h121l-137 -140h-116z" />
    <glyph glyph-name="Sacute" unicode="&#x15a;" 
d="M303 -10q-74 0 -129.5 26t-86 74.5t-30.5 115.5h123q0 -49 33.5 -78t89.5 -29q54 0 85.5 28.5t31.5 76.5q0 36 -20.5 63.5t-58.5 37.5l-98 25q-79 20 -125 75t-46 131q0 93 61 148.5t163 55.5q69 0 120.5 -25t79.5 -70.5t28 -106.5h-122q0 42 -29 68t-77 26
q-47 0 -74.5 -25.5t-27.5 -66.5q0 -34 19.5 -56t54.5 -32l101 -25q81 -20 127.5 -80t46.5 -143q0 -65 -29.5 -113t-83.5 -74.5t-127 -26.5zM224 810l106 140h134l-114 -140h-126z" />
    <glyph glyph-name="sacute" unicode="&#x15b;" 
d="M277 -9q-98 0 -155 44.5t-57 120.5h123q0 -32 23.5 -49t65.5 -17h44q45 0 69.5 17t24.5 49q0 30 -17 44.5t-52 19.5l-137 18q-66 9 -101.5 51t-35.5 109q0 78 52 119.5t150 41.5h46q92 0 148 -42t58 -112h-124q-1 26 -23 41.5t-59 15.5h-46q-40 0 -61 -16.5t-21 -44.5
q0 -25 15.5 -37t45.5 -15l129 -18q76 -9 114.5 -53.5t38.5 -119.5q0 -80 -54.5 -123.5t-159.5 -43.5h-44zM224 645l106 140h134l-114 -140h-126z" />
    <glyph glyph-name="Scircumflex" unicode="&#x15c;" 
d="M303 -10q-74 0 -129.5 26t-86 74.5t-30.5 115.5h123q0 -49 33.5 -78t89.5 -29q54 0 85.5 28.5t31.5 76.5q0 36 -20.5 63.5t-58.5 37.5l-98 25q-79 20 -125 75t-46 131q0 93 61 148.5t163 55.5q69 0 120.5 -25t79.5 -70.5t28 -106.5h-122q0 42 -29 68t-77 26
q-47 0 -74.5 -25.5t-27.5 -66.5q0 -34 19.5 -56t54.5 -32l101 -25q81 -20 127.5 -80t46.5 -143q0 -65 -29.5 -113t-83.5 -74.5t-127 -26.5zM105 810l137 140h116l137 -140h-120l-76 73l-73 -73h-121z" />
    <glyph glyph-name="scircumflex" unicode="&#x15d;" 
d="M277 -9q-98 0 -155 44.5t-57 120.5h123q0 -32 23.5 -49t65.5 -17h44q45 0 69.5 17t24.5 49q0 30 -17 44.5t-52 19.5l-137 18q-66 9 -101.5 51t-35.5 109q0 78 52 119.5t150 41.5h46q92 0 148 -42t58 -112h-124q-1 26 -23 41.5t-59 15.5h-46q-40 0 -61 -16.5t-21 -44.5
q0 -25 15.5 -37t45.5 -15l129 -18q76 -9 114.5 -53.5t38.5 -119.5q0 -80 -54.5 -123.5t-159.5 -43.5h-44zM105 645l137 140h116l137 -140h-120l-76 73l-73 -73h-121z" />
    <glyph glyph-name="Scedilla" unicode="&#x15e;" 
d="M199 -216v64h76q24 0 38.5 11.5t14.5 24.5q0 21 -29.5 34t-82.5 13l25 64q-85 15 -134.5 70t-49.5 141h123q0 -49 33.5 -78t89.5 -29q54 0 85.5 28.5t31.5 76.5q0 36 -20.5 63.5t-58.5 37.5l-98 25q-79 20 -125 75t-46 131q0 93 61 148.5t163 55.5q69 0 120.5 -25
t79.5 -70.5t28 -106.5h-122q0 42 -29 68t-77 26q-47 0 -74.5 -25.5t-27.5 -66.5q0 -34 19.5 -56t54.5 -32l101 -25q81 -20 127.5 -80t46.5 -143q0 -65 -29.5 -113t-82.5 -74.5t-124 -26.5l-9 -27q28 -3 59 -13.5t52 -29.5t21 -48q0 -35 -36 -61.5t-95 -26.5h-100z" />
    <glyph glyph-name="scedilla" unicode="&#x15f;" 
d="M206 -216v64h76q24 0 38.5 11.5t14.5 24.5q0 21 -29.5 34t-82.5 13l24 61q-85 7 -133.5 50.5t-48.5 113.5h123q0 -32 23.5 -49t65.5 -17h44q45 0 69.5 17t24.5 49q0 30 -17 44.5t-52 19.5l-137 18q-66 9 -101.5 51t-35.5 109q0 78 52 119.5t150 41.5h46q92 0 148 -42
t58 -112h-124q-1 26 -23 41.5t-59 15.5h-46q-40 0 -61 -16.5t-21 -44.5q0 -25 15.5 -37t45.5 -15l129 -18q76 -9 114.5 -53.5t38.5 -119.5q0 -80 -54.5 -123.5t-159.5 -43.5h-7l-9 -28q28 -3 59 -13.5t52.5 -29.5t21.5 -48q0 -35 -36.5 -61.5t-95.5 -26.5h-100z" />
    <glyph glyph-name="Scaron" unicode="&#x160;" 
d="M303 -10q-74 0 -129.5 26t-86 74.5t-30.5 115.5h123q0 -49 33.5 -78t89.5 -29q54 0 85.5 28.5t31.5 76.5q0 36 -20.5 63.5t-58.5 37.5l-98 25q-79 20 -125 75t-46 131q0 93 61 148.5t163 55.5q69 0 120.5 -25t79.5 -70.5t28 -106.5h-122q0 42 -29 68t-77 26
q-47 0 -74.5 -25.5t-27.5 -66.5q0 -34 19.5 -56t54.5 -32l101 -25q81 -20 127.5 -80t46.5 -143q0 -65 -29.5 -113t-83.5 -74.5t-127 -26.5zM242 810l-137 140h120l76 -73l73 73h121l-137 -140h-116z" />
    <glyph glyph-name="scaron" unicode="&#x161;" 
d="M277 -9q-98 0 -155 44.5t-57 120.5h123q0 -32 23.5 -49t65.5 -17h44q45 0 69.5 17t24.5 49q0 30 -17 44.5t-52 19.5l-137 18q-66 9 -101.5 51t-35.5 109q0 78 52 119.5t150 41.5h46q92 0 148 -42t58 -112h-124q-1 26 -23 41.5t-59 15.5h-46q-40 0 -61 -16.5t-21 -44.5
q0 -25 15.5 -37t45.5 -15l129 -18q76 -9 114.5 -53.5t38.5 -119.5q0 -80 -54.5 -123.5t-159.5 -43.5h-44zM242 645l-137 140h120l76 -73l73 73h121l-137 -140h-116z" />
    <glyph glyph-name="uni0162" unicode="&#x162;" 
d="M237 0v617h-191v113h508v-113h-191v-617l-13 -37q29 -3 59.5 -13.5t52 -29.5t21.5 -48q0 -35 -36.5 -61.5t-95.5 -26.5h-99v64h75q24 0 38.5 11.5t14.5 24.5q0 21 -29.5 34t-82.5 13l28 69h-59z" />
    <glyph glyph-name="uni0163" unicode="&#x163;" 
d="M256 -216v64h76q24 0 38.5 11.5t14.5 24.5q0 21 -29.5 34t-82.5 13l30 75q-54 14 -85 55.5t-31 103.5v272h-152v113h152v155h126v-155h219v-113h-219v-269q0 -24 13.5 -39.5t37.5 -15.5h163v-113h-159l-13 -37q28 -3 59 -13.5t52.5 -29.5t21.5 -48q0 -35 -36.5 -61.5
t-95.5 -26.5h-100z" />
    <glyph glyph-name="Tcaron" unicode="&#x164;" 
d="M237 0v617h-191v113h508v-113h-191v-617h-126zM242 810l-137 140h120l76 -73l73 73h121l-137 -140h-116z" />
    <glyph glyph-name="tcaron" unicode="&#x165;" 
d="M355 0q-77 0 -122.5 44.5t-45.5 120.5v272h-152v113h152v155h126v-155h219v-113h-219v-269q0 -24 13.5 -39.5t37.5 -15.5h163v-113h-172zM382 621l14 180h107l-22 -180h-99z" />
    <glyph glyph-name="Tbar" unicode="&#x166;" 
d="M237 0v277h-133v105h133v235h-191v113h508v-113h-191v-235h133v-105h-133v-277h-126z" />
    <glyph glyph-name="tbar" unicode="&#x167;" 
d="M76 228v98h111v111h-152v113h152v155h126v-155h219v-113h-219v-111h171v-98h-171v-60q0 -24 13.5 -39.5t37.5 -15.5h163v-113h-172q-77 0 -122.5 44.5t-45.5 120.5v63h-111z" />
    <glyph glyph-name="Utilde" unicode="&#x168;" 
d="M300 -10q-107 0 -167.5 58.5t-60.5 159.5v522h126v-521q0 -52 26 -81t76 -29q49 0 75.5 29t26.5 81v521h126v-522q0 -101 -60 -159.5t-168 -58.5zM370 806q-31 0 -50.5 10t-32.5 22.5t-24.5 22t-27.5 9.5q-30 0 -30 -33v-26h-77v33q0 49 28 79.5t74 30.5q31 0 50.5 -10
t32.5 -22.5t24.5 -22t27.5 -9.5q30 0 30 31v28h77v-33q0 -49 -28 -79.5t-74 -30.5z" />
    <glyph glyph-name="utilde" unicode="&#x169;" 
d="M300 -10q-105 0 -165 58.5t-60 159.5v342h125v-341q0 -52 26 -81t74 -29q47 0 73.5 29t26.5 81v341h125v-342q0 -101 -61 -159.5t-164 -58.5zM370 641q-31 0 -50.5 10t-32.5 22.5t-24.5 22t-27.5 9.5q-30 0 -30 -33v-26h-77v33q0 49 28 79.5t74 30.5q31 0 50.5 -10
t32.5 -22.5t24.5 -22t27.5 -9.5q30 0 30 31v28h77v-33q0 -49 -28 -79.5t-74 -30.5z" />
    <glyph glyph-name="Umacron" unicode="&#x16a;" 
d="M300 -10q-107 0 -167.5 58.5t-60.5 159.5v522h126v-521q0 -52 26 -81t76 -29q49 0 75.5 29t26.5 81v521h126v-522q0 -101 -60 -159.5t-168 -58.5zM128 828v96h344v-96h-344z" />
    <glyph glyph-name="umacron" unicode="&#x16b;" 
d="M300 -10q-105 0 -165 58.5t-60 159.5v342h125v-341q0 -52 26 -81t74 -29q47 0 73.5 29t26.5 81v341h125v-342q0 -101 -61 -159.5t-164 -58.5zM128 661v96h344v-96h-344z" />
    <glyph glyph-name="Ubreve" unicode="&#x16c;" 
d="M300 -10q-107 0 -167.5 58.5t-60.5 159.5v522h126v-521q0 -52 26 -81t76 -29q49 0 75.5 29t26.5 81v521h126v-522q0 -101 -60 -159.5t-168 -58.5zM300 802q-78 0 -126 40.5t-48 107.5h97q0 -33 21 -53t56 -20t56.5 20t21.5 53h97q0 -67 -48 -107.5t-127 -40.5z" />
    <glyph glyph-name="ubreve" unicode="&#x16d;" 
d="M300 -10q-105 0 -165 58.5t-60 159.5v342h125v-341q0 -52 26 -81t74 -29q47 0 73.5 29t26.5 81v341h125v-342q0 -101 -61 -159.5t-164 -58.5zM300 637q-78 0 -126.5 40.5t-48.5 107.5h97q0 -33 21.5 -53t56.5 -20t56.5 20t21.5 53h97q0 -67 -48 -107.5t-127 -40.5z" />
    <glyph glyph-name="Uring" unicode="&#x16e;" 
d="M300 -10q-107 0 -167.5 58.5t-60.5 159.5v522h126v-521q0 -52 26 -81t76 -29q49 0 75.5 29t26.5 81v521h126v-522q0 -101 -60 -159.5t-168 -58.5zM300 758q-59 0 -95.5 33.5t-36.5 88.5t36.5 88.5t95.5 33.5t95.5 -33.5t36.5 -88.5t-36.5 -88.5t-95.5 -33.5zM300 821
q27 0 43.5 16.5t16.5 42.5t-16.5 42.5t-43.5 16.5t-43.5 -16.5t-16.5 -42.5t16.5 -42.5t43.5 -16.5z" />
    <glyph glyph-name="uring" unicode="&#x16f;" 
d="M300 -10q-105 0 -165 58.5t-60 159.5v342h125v-341q0 -52 26 -81t74 -29q47 0 73.5 29t26.5 81v341h125v-342q0 -101 -61 -159.5t-164 -58.5zM300 603q-59 0 -95.5 33.5t-36.5 87.5q0 55 36.5 88.5t95.5 33.5t95.5 -33.5t36.5 -88.5q0 -54 -36.5 -87.5t-95.5 -33.5z
M300 666q27 0 43.5 16t16.5 42q0 27 -16.5 43t-43.5 16t-43.5 -16t-16.5 -43q0 -26 16.5 -42t43.5 -16z" />
    <glyph glyph-name="Uhungarumlaut" unicode="&#x170;" 
d="M300 -10q-107 0 -167.5 58.5t-60.5 159.5v522h126v-521q0 -52 26 -81t76 -29q49 0 75.5 29t26.5 81v521h126v-522q0 -101 -60 -159.5t-168 -58.5zM324 810l107 140h122l-115 -140h-114zM122 810l108 140h121l-115 -140h-114z" />
    <glyph glyph-name="uhungarumlaut" unicode="&#x171;" 
d="M300 -10q-105 0 -165 58.5t-60 159.5v342h125v-341q0 -52 26 -81t74 -29q47 0 73.5 29t26.5 81v341h125v-342q0 -101 -61 -159.5t-164 -58.5zM324 645l107 140h122l-115 -140h-114zM122 645l108 140h121l-115 -140h-114z" />
    <glyph glyph-name="Uogonek" unicode="&#x172;" 
d="M364 -216q-58 0 -92.5 29t-34.5 74q0 24 19.5 52t50.5 52l-7 -1q-105 0 -166.5 58.5t-61.5 157.5v524h126v-524q0 -51 25.5 -78.5t76.5 -27.5t76.5 27.5t25.5 78.5v524h126v-524q0 -61 -25.5 -108.5t-70.5 -74.5l-40 -33q-25 -20 -36 -40t-11 -37q0 -18 13 -30.5
t37 -12.5h65v-86h-96z" />
    <glyph glyph-name="uogonek" unicode="&#x173;" 
d="M364 -216q-58 0 -92.5 29t-34.5 74q0 25 17 50.5t53 53.5q-4 -1 -7 -1q-105 0 -165 58.5t-60 157.5v344h125v-344q0 -107 100 -107t100 107v344h125v-344q0 -59 -22.5 -105t-64.5 -74l-43 -37q-50 -42 -50 -77q0 -18 13 -30.5t37 -12.5h65v-86h-96z" />
    <glyph glyph-name="Wcircumflex" unicode="&#x174;" 
d="M90 0l-76 730h104l46 -510q2 -26 4.5 -66.5t2.5 -68.5q3 28 6.5 68.5t6.5 66.5l64 510h107l60 -510q3 -26 7.5 -66.5t7.5 -68.5q1 28 3.5 68.5t4.5 66.5l45 510h103l-80 -730h-138l-56 512q-3 29 -6 70.5t-5 68.5q-2 -27 -5 -68.5t-6 -70.5l-61 -512h-139zM105 810
l137 140h116l137 -140h-120l-76 73l-73 -73h-121z" />
    <glyph glyph-name="wcircumflex" unicode="&#x175;" 
d="M102 0l-86 550h99l49 -337q4 -31 7 -67l5 -60q1 24 4 60t9 67l60 337h104l58 -337q6 -31 9.5 -67.5t5.5 -60.5q2 24 4.5 60.5t7.5 67.5l50 337h96l-88 -550h-129l-52 339q-5 28 -9 64.5t-6 59.5q-1 -23 -6 -59.5t-9 -64.5l-54 -339h-129zM105 645l137 140h116l137 -140
h-120l-76 73l-73 -73h-121z" />
    <glyph glyph-name="Ycircumflex" unicode="&#x176;" 
d="M237 0v265l-214 465h132l113 -253q13 -30 22 -59t12 -45q4 16 12.5 45t21.5 59l111 253h130l-214 -465v-265h-126zM105 810l137 140h116l137 -140h-120l-76 73l-73 -73h-121z" />
    <glyph glyph-name="ycircumflex" unicode="&#x177;" 
d="M165 -180l78 210l-207 520h132l106 -281q9 -25 18 -54.5t13 -54.5q3 25 11.5 54.5t17.5 54.5l98 281h132l-268 -730h-131zM105 645l137 140h116l137 -140h-120l-76 73l-73 -73h-121z" />
    <glyph glyph-name="Ydieresis" unicode="&#x178;" 
d="M237 0v265l-214 465h132l113 -253q13 -30 22 -59t12 -45q4 16 12.5 45t21.5 59l111 253h130l-214 -465v-265h-126zM417 808q-33 0 -53 19.5t-20 52.5q0 34 20 53.5t53 19.5q34 0 54 -19.5t20 -53.5q0 -33 -20 -52.5t-54 -19.5zM183 808q-34 0 -54 19.5t-20 52.5
q0 34 20 53.5t54 19.5q33 0 53 -19.5t20 -53.5q0 -33 -20 -52.5t-53 -19.5z" />
    <glyph glyph-name="Zacute" unicode="&#x179;" 
d="M79 0v116l293 501h-286v113h424v-116l-294 -501h305v-113h-442zM224 810l106 140h134l-114 -140h-126z" />
    <glyph glyph-name="zacute" unicode="&#x17a;" 
d="M78 0v113l287 327h-278v110h424v-113l-290 -327h301v-110h-444zM224 645l106 140h134l-114 -140h-126z" />
    <glyph glyph-name="Zdotaccent" unicode="&#x17b;" 
d="M79 0v116l293 501h-286v113h424v-116l-294 -501h305v-113h-442zM300 808q-38 0 -60 19.5t-22 52.5t22 52.5t60 19.5t60 -19.5t22 -52.5t-22 -52.5t-60 -19.5z" />
    <glyph glyph-name="zdotaccent" unicode="&#x17c;" 
d="M78 0v113l287 327h-278v110h424v-113l-290 -327h301v-110h-444zM300 642q-38 0 -60 19.5t-22 52.5t22 52.5t60 19.5t60 -19.5t22 -52.5t-22 -52.5t-60 -19.5z" />
    <glyph glyph-name="Zcaron" unicode="&#x17d;" 
d="M79 0v116l293 501h-286v113h424v-116l-294 -501h305v-113h-442zM242 810l-137 140h120l76 -73l73 73h121l-137 -140h-116z" />
    <glyph glyph-name="zcaron" unicode="&#x17e;" 
d="M78 0v113l287 327h-278v110h424v-113l-290 -327h301v-110h-444zM242 645l-137 140h120l76 -73l73 73h121l-137 -140h-116z" />
    <glyph glyph-name="longs" unicode="&#x17f;" 
d="M147 0v544q0 85 53.5 135.5t142.5 50.5h182v-109h-176q-34 0 -55 -21.5t-21 -55.5v-544h-126z" />
    <glyph glyph-name="uni018F" unicode="&#x18f;" 
d="M301 -10q-70 0 -121.5 27t-79.5 75.5t-28 113.5v203h330v116q0 51 -25.5 78.5t-75.5 27.5q-51 0 -76.5 -28t-25.5 -79h-125q0 99 61 157.5t166 58.5t166 -58.5t61 -157.5v-318q0 -65 -28 -113.5t-78.5 -75.5t-120.5 -27zM301 88q54 0 77.5 30.5t23.5 87.5v110h-204v-110
q0 -118 103 -118z" />
    <glyph glyph-name="uni0190" unicode="&#x190;" 
d="M309 -10q-76 0 -133.5 27t-90 75t-32.5 112q0 68 38 118.5t99 62.5v3q-51 10 -83.5 54t-32.5 103q0 58 29.5 102t81.5 68.5t120 24.5q70 0 123 -27.5t82.5 -76t29.5 -112.5h-123q0 49 -31 79.5t-80 30.5q-47 0 -77 -27.5t-30 -72.5t30 -73.5t78 -28.5h85v-106h-83
q-58 0 -93.5 -31.5t-35.5 -82.5t35.5 -82.5t93.5 -31.5q56 0 91.5 30t36.5 78h123q0 -64 -32 -112.5t-88.5 -76t-130.5 -27.5z" />
    <glyph glyph-name="florin" unicode="&#x192;" 
d="M0 -180v119h117q44 0 69 24t25 67v267h-157v110h157v163q0 74 45 117t122 43h169v-109h-158q-53 0 -53 -51v-163h214v-110h-214v-276q0 -60 -28.5 -105t-79 -70.5t-117.5 -25.5h-111z" />
    <glyph glyph-name="uni019B" unicode="&#x19b;" 
d="M35 0l203 529l-148 -74v95l126 63l-47 117h132l22 -63l147 73v-95l-118 -58l213 -587h-132l-108 322q-9 28 -15 57.5t-9 47.5q-2 -18 -7.5 -47.5t-14.5 -57.5l-109 -322h-135z" />
    <glyph glyph-name="Ohorn" unicode="&#x1a0;" 
d="M300 -10q-105 0 -166.5 60t-61.5 166v298q0 106 61.5 166t166.5 60q83 0 140 -38q21 7 21 33v75h102v-77q0 -35 -16 -61.5t-44 -41.5q25 -49 25 -115v-299q0 -106 -61.5 -166t-166.5 -60zM300 100q51 0 77 27.5t26 78.5v318q0 51 -26 78.5t-77 27.5t-77 -27.5t-26 -78.5
v-318q0 -51 26 -78.5t77 -27.5z" />
    <glyph glyph-name="ohorn" unicode="&#x1a1;" 
d="M300 -9q-106 0 -168 59.5t-62 160.5v128q0 102 62 161t168 59q73 0 127 -29v0q35 0 35 35v75h101v-77q0 -36 -16.5 -63t-45.5 -42q29 -50 29 -119v-128q0 -101 -62 -160.5t-168 -59.5zM300 100q50 0 77.5 27.5t27.5 79.5v136q0 52 -27.5 79.5t-77.5 27.5t-77.5 -27.5
t-27.5 -79.5v-136q0 -52 27.5 -79.5t77.5 -27.5z" />
    <glyph glyph-name="Uhorn" unicode="&#x1af;" 
d="M300 -10q-107 0 -167.5 58.5t-60.5 159.5v522h126v-521q0 -52 26 -81t76 -29q49 0 75.5 29t26.5 81v521h89q35 0 35 35v75h102v-77q0 -47 -27 -78t-73 -38v-439q0 -101 -60 -159.5t-168 -58.5z" />
    <glyph glyph-name="uhorn" unicode="&#x1b0;" 
d="M75 205v345h125v-346q0 -51 23 -78t65 -27t65.5 27t23.5 78v346h107q35 0 35 35v75h101v-77q0 -53 -30 -85.5t-88 -32.5v-260q0 -100 -57.5 -157.5t-156.5 -57.5t-156 57.5t-57 157.5z" />
    <glyph glyph-name="uni01CD" unicode="&#x1cd;" 
d="M35 0l184 730h161l185 -730h-128l-40 177h-194l-40 -177h-128zM226 279h148l-44 196q-11 49 -19 88.5t-11 57.5q-3 -18 -11 -57.5t-19 -87.5zM242 810l-137 140h120l76 -73l73 73h121l-137 -140h-116z" />
    <glyph glyph-name="uni01CE" unicode="&#x1ce;" 
d="M239 -10q-84 0 -132.5 47.5t-48.5 124.5q0 80 55 127.5t151 47.5h134v39q0 83 -97 83q-44 0 -70 -17t-29 -48h-120q4 74 62.5 120t157.5 46q105 0 163 -49t58 -138v-373h-122v103q-7 -53 -50 -83t-112 -30zM279 92q55 0 87 27t32 72v65h-128q-41 0 -65 -23t-24 -59
q0 -37 25.5 -59.5t72.5 -22.5zM247 645l-137 140h120l76 -73l73 73h121l-137 -140h-116z" />
    <glyph glyph-name="uni01D0" unicode="&#x1d0;" 
d="M76 0v113h188v324h-168v113h293v-437h169v-113h-482zM260 645l-137 140h120l76 -73l73 73h121l-137 -140h-116z" />
    <glyph glyph-name="uni01D2" unicode="&#x1d2;" 
d="M300 -9q-106 0 -168 59.5t-62 160.5v128q0 102 62 161t168 59t168 -59t62 -161v-128q0 -101 -62 -160.5t-168 -59.5zM300 100q50 0 77.5 27.5t27.5 79.5v136q0 52 -27.5 79.5t-77.5 27.5t-77.5 -27.5t-27.5 -79.5v-136q0 -52 27.5 -79.5t77.5 -27.5zM242 645l-137 140
h120l76 -73l73 73h121l-137 -140h-116z" />
    <glyph glyph-name="uni01D4" unicode="&#x1d4;" 
d="M300 -10q-105 0 -165 58.5t-60 159.5v342h125v-341q0 -52 26 -81t74 -29q47 0 73.5 29t26.5 81v341h125v-342q0 -101 -61 -159.5t-164 -58.5zM242 645l-137 140h120l76 -73l73 73h121l-137 -140h-116z" />
    <glyph glyph-name="uni01D6" unicode="&#x1d6;" 
d="M300 -10q-105 0 -165 58.5t-60 159.5v342h125v-341q0 -52 26 -81t74 -29q47 0 73.5 29t26.5 81v341h125v-342q0 -101 -61 -159.5t-164 -58.5zM417 642q-33 0 -53 19.5t-20 52.5t20 52.5t53 19.5q34 0 54 -19.5t20 -52.5t-20 -52.5t-54 -19.5zM183 642q-34 0 -54 19.5
t-20 52.5t20 52.5t54 19.5q33 0 53 -19.5t20 -52.5t-20 -52.5t-53 -19.5zM128 897v96h344v-96h-344z" />
    <glyph glyph-name="uni01D8" unicode="&#x1d8;" 
d="M300 -10q-105 0 -165 58.5t-60 159.5v342h125v-341q0 -52 26 -81t74 -29q47 0 73.5 29t26.5 81v341h125v-342q0 -101 -61 -159.5t-164 -58.5zM417 642q-33 0 -53 19.5t-20 52.5t20 52.5t53 19.5q34 0 54 -19.5t20 -52.5t-20 -52.5t-54 -19.5zM183 642q-34 0 -54 19.5
t-20 52.5t20 52.5t54 19.5q33 0 53 -19.5t20 -52.5t-20 -52.5t-53 -19.5zM224 881l106 140h134l-114 -140h-126z" />
    <glyph glyph-name="uni01DA" unicode="&#x1da;" 
d="M300 -10q-105 0 -165 58.5t-60 159.5v342h125v-341q0 -52 26 -81t74 -29q47 0 73.5 29t26.5 81v341h125v-342q0 -101 -61 -159.5t-164 -58.5zM417 642q-33 0 -53 19.5t-20 52.5t20 52.5t53 19.5q34 0 54 -19.5t20 -52.5t-20 -52.5t-54 -19.5zM183 642q-34 0 -54 19.5
t-20 52.5t20 52.5t54 19.5q33 0 53 -19.5t20 -52.5t-20 -52.5t-53 -19.5zM242 881l-137 140h120l76 -73l73 73h121l-137 -140h-116z" />
    <glyph glyph-name="uni01DC" unicode="&#x1dc;" 
d="M300 -10q-105 0 -165 58.5t-60 159.5v342h125v-341q0 -52 26 -81t74 -29q47 0 73.5 29t26.5 81v341h125v-342q0 -101 -61 -159.5t-164 -58.5zM417 642q-33 0 -53 19.5t-20 52.5t20 52.5t53 19.5q34 0 54 -19.5t20 -52.5t-20 -52.5t-54 -19.5zM183 642q-34 0 -54 19.5
t-20 52.5t20 52.5t54 19.5q33 0 53 -19.5t20 -52.5t-20 -52.5t-53 -19.5zM249 881l-116 140h138l107 -140h-129z" />
    <glyph glyph-name="Gcaron" unicode="&#x1e6;" 
d="M304 -10q-71 0 -123 26.5t-80.5 75t-28.5 114.5v318q0 66 28.5 114.5t80.5 75t123 26.5q70 0 122 -26.5t81 -75t29 -114.5h-126q0 51 -27.5 78.5t-78.5 27.5t-79 -27t-28 -78v-319q0 -51 28 -79t79 -28t78.5 28t27.5 79v81h-124v108h250v-189q0 -66 -29 -114.5t-81 -75
t-122 -26.5zM242 810l-137 140h120l76 -73l73 73h121l-137 -140h-116z" />
    <glyph glyph-name="gcaron" unicode="&#x1e7;" 
d="M152 -180v104h155q44 0 68 23.5t24 63.5v33l2 86q-17 -46 -54.5 -71.5t-91.5 -25.5q-84 0 -133.5 56.5t-49.5 153.5v107q0 96 49.5 153t133.5 57q54 0 91.5 -25.5t54.5 -72.5v88h122v-542q0 -87 -57.5 -137.5t-156.5 -50.5h-157zM297 140q48 0 74.5 28.5t26.5 79.5v96
q0 51 -26.5 79.5t-74.5 28.5t-74 -27.5t-26 -76.5v-104q0 -49 26 -76.5t74 -27.5zM239 645l-137 140h120l76 -73l73 73h121l-137 -140h-116z" />
    <glyph glyph-name="uni01EA" unicode="&#x1ea;" 
d="M364 -216q-58 0 -92.5 29t-34.5 74q0 24 19.5 52t50.5 52l-7 -1q-105 0 -166.5 58.5t-61.5 157.5v318q0 99 61.5 157.5t166.5 58.5t166.5 -58.5t61.5 -156.5v-319q0 -61 -25.5 -108.5t-70.5 -74.5l-40 -33q-25 -20 -36 -40t-11 -37q0 -18 13 -30.5t37 -12.5h65v-86h-96z
M300 100q51 0 77 27.5t26 78.5v318q0 51 -26 78.5t-77 27.5t-77 -27.5t-26 -78.5v-318q0 -51 26 -78.5t77 -27.5z" />
    <glyph glyph-name="uni01EB" unicode="&#x1eb;" 
d="M364 -216q-58 0 -92.5 29t-34.5 74q0 25 17 50.5t53 53.5q-4 -1 -7 -1q-105 0 -166.5 58.5t-61.5 157.5v138q0 99 61.5 157.5t166.5 58.5t166.5 -58.5t61.5 -156.5v-139q0 -59 -24 -105t-66 -74l-43 -37q-50 -42 -50 -77q0 -18 13 -30.5t37 -12.5h65v-86h-96zM300 99
q50 0 76.5 27.5t26.5 79.5v138q0 52 -26.5 79.5t-76.5 27.5t-76.5 -27.5t-26.5 -79.5v-138q0 -52 26.5 -79.5t76.5 -27.5z" />
    <glyph glyph-name="uni01F4" unicode="&#x1f4;" 
d="M304 -10q-71 0 -123 26.5t-80.5 75t-28.5 114.5v318q0 66 28.5 114.5t80.5 75t123 26.5q70 0 122 -26.5t81 -75t29 -114.5h-126q0 51 -27.5 78.5t-78.5 27.5t-79 -27t-28 -78v-319q0 -51 28 -79t79 -28t78.5 28t27.5 79v81h-124v108h250v-189q0 -66 -29 -114.5t-81 -75
t-122 -26.5zM224 810l106 140h134l-114 -140h-126z" />
    <glyph glyph-name="uni01F5" unicode="&#x1f5;" 
d="M152 -180v104h155q44 0 68 23.5t24 63.5v33l2 86q-17 -46 -54.5 -71.5t-91.5 -25.5q-84 0 -133.5 56.5t-49.5 153.5v107q0 96 49.5 153t133.5 57q54 0 91.5 -25.5t54.5 -72.5v88h122v-542q0 -87 -57.5 -137.5t-156.5 -50.5h-157zM297 140q48 0 74.5 28.5t26.5 79.5v96
q0 51 -26.5 79.5t-74.5 28.5t-74 -27.5t-26 -76.5v-104q0 -49 26 -76.5t74 -27.5zM221 645l106 140h134l-114 -140h-126z" />
    <glyph glyph-name="AEacute" unicode="&#x1fc;" 
d="M12 0l141 730h423v-107h-172v-194h147v-110h-147v-211h172v-108h-280v181h-130l-32 -181h-122zM181 273h115v350h-52zM224 810l106 140h134l-114 -140h-126z" />
    <glyph glyph-name="aeacute" unicode="&#x1fd;" 
d="M178 -10q-66 0 -107.5 47t-41.5 122t45 122t117 47h60v72q0 34 -14.5 53t-39.5 19t-40 -18t-15 -48h-103q0 69 39.5 111.5t102.5 42.5q49 0 82.5 -24.5t38.5 -66.5q5 42 38.5 66.5t80.5 24.5q65 0 106 -44.5t41 -115.5v-148h-214v-102q0 -34 14.5 -53t39.5 -19
q26 0 40.5 18t14.5 49h105q0 -69 -40.5 -112t-105.5 -43q-45 0 -79 25t-41 66q-6 -41 -40.5 -66t-83.5 -25zM354 328h109v72q0 33 -14.5 52.5t-40.5 19.5q-24 0 -39 -19.5t-15 -52.5v-72zM195 78q25 0 40.5 19.5t15.5 52.5v102h-59q-27 0 -42.5 -23.5t-15.5 -63.5
q0 -39 16 -63t45 -24zM224 645l106 140h134l-114 -140h-126z" />
    <glyph glyph-name="Oslashacute" unicode="&#x1fe;" 
d="M23 -40l76 133q-27 48 -27 113v318q0 99 61.5 157.5t166.5 58.5q86 0 144 -40l29 50h104l-70 -123q21 -45 21 -102v-319q0 -99 -61.5 -157.5t-166.5 -58.5q-80 0 -136 35l-37 -65h-104zM194 524v-264l191 336q-27 34 -85 34q-51 0 -78.5 -27.5t-27.5 -78.5zM300 100
q51 0 78.5 27.5t27.5 78.5v244l-184 -323q27 -27 78 -27zM224 810l106 140h134l-114 -140h-126z" />
    <glyph glyph-name="oslashacute" unicode="&#x1ff;" 
d="M29 -30l78 110q-35 52 -35 126v138q0 99 61.5 157.5t166.5 58.5q72 0 125 -28l41 58h105l-81 -115q38 -54 38 -130v-139q0 -99 -61.5 -157.5t-166.5 -58.5q-75 0 -130 31l-36 -51h-105zM189 206v-1v-8l170 241q-25 13 -59 13q-53 0 -82 -28.5t-29 -78.5v-138zM300 99
q53 0 82 28.5t29 78.5v138q0 10 -1 18l-174 -248q26 -15 64 -15zM224 645l106 140h134l-114 -140h-126z" />
    <glyph glyph-name="uni0218" unicode="&#x218;" 
d="M303 -10q-74 0 -129.5 26t-86 74.5t-30.5 115.5h123q0 -49 33.5 -78t89.5 -29q54 0 85.5 28.5t31.5 76.5q0 36 -20.5 63.5t-58.5 37.5l-98 25q-79 20 -125 75t-46 131q0 93 61 148.5t163 55.5q69 0 120.5 -25t79.5 -70.5t28 -106.5h-122q0 42 -29 68t-77 26
q-47 0 -74.5 -25.5t-27.5 -66.5q0 -34 19.5 -56t54.5 -32l101 -25q81 -20 127.5 -80t46.5 -143q0 -65 -29.5 -113t-83.5 -74.5t-127 -26.5zM181 -240l95 145h132l-111 -145h-116z" />
    <glyph glyph-name="uni0219" unicode="&#x219;" 
d="M277 -9q-98 0 -155 44.5t-57 120.5h123q0 -32 23.5 -49t65.5 -17h44q45 0 69.5 17t24.5 49q0 30 -17 44.5t-52 19.5l-137 18q-66 9 -101.5 51t-35.5 109q0 78 52 119.5t150 41.5h46q92 0 148 -42t58 -112h-124q-1 26 -23 41.5t-59 15.5h-46q-40 0 -61 -16.5t-21 -44.5
q0 -25 15.5 -37t45.5 -15l129 -18q76 -9 114.5 -53.5t38.5 -119.5q0 -80 -54.5 -123.5t-159.5 -43.5h-44zM181 -240l95 145h132l-111 -145h-116z" />
    <glyph glyph-name="uni021A" unicode="&#x21a;" 
d="M237 0v617h-191v113h508v-113h-191v-617h-126zM181 -240l95 145h132l-111 -145h-116z" />
    <glyph glyph-name="uni021B" unicode="&#x21b;" 
d="M355 0q-77 0 -122.5 44.5t-45.5 120.5v272h-152v113h152v155h126v-155h219v-113h-219v-269q0 -24 13.5 -39.5t37.5 -15.5h163v-113h-172zM241 -240l95 145h132l-111 -145h-116z" />
    <glyph glyph-name="uni0232" unicode="&#x232;" 
d="M237 0v265l-214 465h132l113 -253q13 -30 22 -59t12 -45q4 16 12.5 45t21.5 59l111 253h130l-214 -465v-265h-126zM128 828v96h344v-96h-344z" />
    <glyph glyph-name="uni0233" unicode="&#x233;" 
d="M165 -180l78 210l-207 520h132l106 -281q9 -25 18 -54.5t13 -54.5q3 25 11.5 54.5t17.5 54.5l98 281h132l-268 -730h-131zM128 661v96h344v-96h-344z" />
    <glyph glyph-name="uni0237" unicode="&#x237;" 
d="M81 -180v113h145q48 0 76 28.5t28 77.5v398h-254v113h379v-514q0 -100 -60 -158t-162 -58h-152z" />
    <glyph glyph-name="uni0259" unicode="&#x259;" 
d="M299 -10q-69 0 -120 27t-79 75.5t-28 113.5v99h335v39q0 117 -109 117q-84 0 -98 -57h-124q14 71 74.5 113.5t148.5 42.5q70 0 121.5 -27t79.5 -75.5t28 -113.5v-138q0 -65 -28 -113.5t-79.5 -75.5t-121.5 -27zM299 88q55 0 81.5 30.5t26.5 87.5v21h-214v-21
q0 -57 26 -87.5t80 -30.5z" />
    <glyph glyph-name="uni02B9" unicode="&#x2b9;" 
d="M150 409l80 311h160l-130 -311h-110z" />
    <glyph glyph-name="uni02BA" unicode="&#x2ba;" 
d="M321 409l80 311h159l-130 -311h-109zM46 409l80 311h159l-130 -311h-109z" />
    <glyph glyph-name="uni02BC" unicode="&#x2bc;" 
d="M150 465l80 311h160l-130 -311h-110z" />
    <glyph glyph-name="circumflex" unicode="&#x2c6;" 
d="M105 645l137 140h116l137 -140h-120l-76 73l-73 -73h-121z" />
    <glyph glyph-name="caron" unicode="&#x2c7;" 
d="M242 645l-137 140h120l76 -73l73 73h121l-137 -140h-116z" />
    <glyph glyph-name="uni02C9" unicode="&#x2c9;" 
d="M128 661v96h344v-96h-344z" />
    <glyph glyph-name="breve" unicode="&#x2d8;" 
d="M300 637q-78 0 -126.5 40.5t-48.5 107.5h97q0 -33 21.5 -53t56.5 -20t56.5 20t21.5 53h97q0 -67 -48 -107.5t-127 -40.5z" />
    <glyph glyph-name="dotaccent" unicode="&#x2d9;" 
d="M300 642q-38 0 -60 19.5t-22 52.5t22 52.5t60 19.5t60 -19.5t22 -52.5t-22 -52.5t-60 -19.5z" />
    <glyph glyph-name="ring" unicode="&#x2da;" 
d="M300 603q-59 0 -95.5 33.5t-36.5 87.5q0 55 36.5 88.5t95.5 33.5t95.5 -33.5t36.5 -88.5q0 -54 -36.5 -87.5t-95.5 -33.5zM300 666q27 0 43.5 16t16.5 42q0 27 -16.5 43t-43.5 16t-43.5 -16t-16.5 -43q0 -26 16.5 -42t43.5 -16z" />
    <glyph glyph-name="ogonek" unicode="&#x2db;" 
d="M301 -216q-59 0 -93.5 29t-34.5 74q0 33 25.5 65t75.5 59h81l-23 -21q-51 -44 -51 -77q0 -18 13.5 -30.5t36.5 -12.5h65v-86h-95z" />
    <glyph glyph-name="tilde" unicode="&#x2dc;" 
d="M370 641q-31 0 -50.5 10t-32.5 22.5t-24.5 22t-27.5 9.5q-30 0 -30 -33v-26h-77v33q0 49 28 79.5t74 30.5q31 0 50.5 -10t32.5 -22.5t24.5 -22t27.5 -9.5q30 0 30 31v28h77v-33q0 -49 -28 -79.5t-74 -30.5z" />
    <glyph glyph-name="hungarumlaut" unicode="&#x2dd;" 
d="M324 645l107 140h122l-115 -140h-114zM122 645l108 140h121l-115 -140h-114z" />
    <glyph glyph-name="uni02F3" unicode="&#x2f3;" 
d="M300 -256q-57 0 -91.5 28.5t-34.5 74.5t34.5 74.5t91.5 28.5t91.5 -28.5t34.5 -74.5t-34.5 -74.5t-91.5 -28.5zM299 -203q28 0 44.5 13.5t16.5 36.5q0 24 -16.5 37.5t-44.5 13.5q-27 0 -43 -14t-16 -37t16 -36.5t43 -13.5z" />
    <glyph glyph-name="uni02F7" unicode="&#x2f7;" 
d="M370 -228q-31 0 -50.5 10t-32.5 22.5t-24.5 22.5t-27.5 10q-30 0 -30 -34v-26h-77v33q0 49 28 79.5t74 30.5q31 0 50.5 -9.5t32.5 -22.5t24.5 -22.5t27.5 -9.5q30 0 30 31v28h77v-33q0 -49 -28 -79.5t-74 -30.5z" />
    <glyph glyph-name="gravecomb" unicode="&#x300;" horiz-adv-x="0" 
d="M-341 645l-116 140h138l107 -140h-129z" />
    <glyph glyph-name="acutecomb" unicode="&#x301;" horiz-adv-x="0" 
d="M-386 645l106 140h134l-114 -140h-126z" />
    <glyph glyph-name="uni0302" unicode="&#x302;" horiz-adv-x="0" 
d="M-495 645l137 140h116l137 -140h-120l-76 73l-73 -73h-121z" />
    <glyph glyph-name="tildecomb" unicode="&#x303;" horiz-adv-x="0" 
d="M-230 641q-31 0 -50.5 10t-32.5 22.5t-24.5 22t-27.5 9.5q-30 0 -30 -33v-26h-77v33q0 49 28 79.5t74 30.5q31 0 50.5 -10t32.5 -22.5t24.5 -22t27.5 -9.5q30 0 30 31v28h77v-33q0 -49 -28 -79.5t-74 -30.5z" />
    <glyph glyph-name="uni0304" unicode="&#x304;" horiz-adv-x="0" 
d="M-472 661v96h344v-96h-344z" />
    <glyph glyph-name="uni0306" unicode="&#x306;" horiz-adv-x="0" 
d="M-300 637q-78 0 -126.5 40.5t-48.5 107.5h97q0 -33 21.5 -53t56.5 -20t56.5 20t21.5 53h97q0 -67 -48 -107.5t-127 -40.5z" />
    <glyph glyph-name="uni0307" unicode="&#x307;" horiz-adv-x="0" 
d="M-300 642q-38 0 -60 19.5t-22 52.5t22 52.5t60 19.5t60 -19.5t22 -52.5t-22 -52.5t-60 -19.5z" />
    <glyph glyph-name="uni0308" unicode="&#x308;" horiz-adv-x="0" 
d="M-183 642q-33 0 -53 19.5t-20 52.5t20 52.5t53 19.5q34 0 54 -19.5t20 -52.5t-20 -52.5t-54 -19.5zM-417 642q-34 0 -54 19.5t-20 52.5t20 52.5t54 19.5q33 0 53 -19.5t20 -52.5t-20 -52.5t-53 -19.5z" />
    <glyph glyph-name="hookabovecomb" unicode="&#x309;" horiz-adv-x="0" 
d="M-351 645l50 60q14 18 14 30q0 19 -29 19h-80v76h105q44 0 70.5 -22t26.5 -59q0 -33 -20 -58l-37 -46h-100z" />
    <glyph glyph-name="uni030A" unicode="&#x30a;" horiz-adv-x="0" 
d="M-300 603q-59 0 -95.5 33.5t-36.5 87.5q0 55 36.5 88.5t95.5 33.5t95.5 -33.5t36.5 -88.5q0 -54 -36.5 -87.5t-95.5 -33.5zM-300 666q27 0 43.5 16t16.5 42q0 27 -16.5 43t-43.5 16t-43.5 -16t-16.5 -43q0 -26 16.5 -42t43.5 -16z" />
    <glyph glyph-name="uni030B" unicode="&#x30b;" horiz-adv-x="0" 
d="M-276 645l107 140h122l-115 -140h-114zM-478 645l108 140h121l-115 -140h-114z" />
    <glyph glyph-name="uni030C" unicode="&#x30c;" horiz-adv-x="0" 
d="M-358 645l-137 140h120l76 -73l73 73h121l-137 -140h-116z" />
    <glyph glyph-name="uni030F" unicode="&#x30f;" horiz-adv-x="0" 
d="M-324 645h-114l-115 140h122zM-122 645h-114l-115 140h121z" />
    <glyph glyph-name="uni0312" unicode="&#x312;" horiz-adv-x="0" 
d="M-170 880l-80 -235h-152l130 235h102z" />
    <glyph glyph-name="uni031B" unicode="&#x31b;" horiz-adv-x="0" 
d="M-243 465v85h41q35 0 35 35v75h101v-77q0 -53 -35.5 -85.5t-93.5 -32.5h-48z" />
    <glyph glyph-name="dotbelowcomb" unicode="&#x323;" horiz-adv-x="0" 
d="M-300 -225q-38 0 -60 19.5t-22 52.5q0 34 22 53.5t60 19.5t60 -19.5t22 -53.5q0 -33 -22 -52.5t-60 -19.5z" />
    <glyph glyph-name="uni0325" unicode="&#x325;" horiz-adv-x="0" 
d="M-300 -256q-57 0 -91.5 28.5t-34.5 74.5t34.5 74.5t91.5 28.5t91.5 -28.5t34.5 -74.5t-34.5 -74.5t-91.5 -28.5zM-301 -203q28 0 44.5 13.5t16.5 36.5q0 24 -16.5 37.5t-44.5 13.5q-27 0 -43 -14t-16 -37t16 -36.5t43 -13.5z" />
    <glyph glyph-name="uni0326" unicode="&#x326;" horiz-adv-x="0" 
d="M-419 -240l95 145h132l-111 -145h-116z" />
    <glyph glyph-name="uni0327" unicode="&#x327;" horiz-adv-x="0" 
d="M-404 -216v64h76q24 0 38.5 11.5t14.5 24.5q0 21 -29.5 34t-82.5 13l35 89h67l-20 -57q28 -3 59 -13.5t52.5 -29.5t21.5 -48q0 -35 -36.5 -61.5t-95.5 -26.5h-100z" />
    <glyph glyph-name="uni0328" unicode="&#x328;" horiz-adv-x="0" 
d="M-299 -216q-59 0 -93.5 29t-34.5 74q0 33 25.5 65t75.5 59h81l-23 -21q-51 -44 -51 -77q0 -18 13.5 -30.5t36.5 -12.5h65v-86h-95z" />
    <glyph glyph-name="uni0336" unicode="&#x336;" horiz-adv-x="0" 
d="M-630 272v94h660v-94h-660z" />
    <glyph glyph-name="uni0337" unicode="&#x337;" horiz-adv-x="0" 
d="M-571 -30l437 620h105l-437 -620h-105z" />
    <glyph glyph-name="uni0338" unicode="&#x338;" horiz-adv-x="0" 
d="M-493 -110l307 770h79l-307 -770h-79z" />
    <glyph glyph-name="uni0374" unicode="&#x374;" 
d="M150 409l80 311h160l-130 -311h-110z" />
    <glyph glyph-name="uni0375" unicode="&#x375;" 
d="M190 -160l53 306h143l-76 -306h-120z" />
    <glyph glyph-name="uni037E" unicode="&#x37e;" 
d="M290 392q-37 0 -60.5 24t-23.5 60t24 60t60 24h20q36 0 60 -24t24 -60t-23.5 -60t-60.5 -24h-20zM185 -160l53 306h143l-76 -306h-120z" />
    <glyph glyph-name="tonos" unicode="&#x384;" 
d="M192 645l106 140h138l-115 -140h-129z" />
    <glyph glyph-name="dieresistonos" unicode="&#x385;" 
d="M244 785l77 130h109l-86 -130h-100zM417 642q-33 0 -53 19.5t-20 52.5t20 52.5t53 19.5q34 0 54 -19.5t20 -52.5t-20 -52.5t-54 -19.5zM183 642q-34 0 -54 19.5t-20 52.5t20 52.5t54 19.5q33 0 53 -19.5t20 -52.5t-20 -52.5t-53 -19.5z" />
    <glyph glyph-name="Alphatonos" unicode="&#x386;" 
d="M35 0l184 730h161l185 -730h-128l-40 177h-194l-40 -177h-128zM226 279h148l-44 196q-11 49 -19 88.5t-11 57.5q-3 -18 -11 -57.5t-19 -87.5zM-17 570l57 160h117l-65 -160h-109z" />
    <glyph glyph-name="anoteleia" unicode="&#x387;" 
d="M300 265q-42 0 -67.5 25.5t-25.5 66.5t25.5 67t67.5 26t67.5 -26t25.5 -67t-25.5 -66.5t-67.5 -25.5z" />
    <glyph glyph-name="Epsilontonos" unicode="&#x388;" 
d="M88 0v730h438v-110h-315v-190h280v-106h-280v-214h315v-110h-438zM-133 570l57 160h117l-65 -160h-109z" />
    <glyph glyph-name="Etatonos" unicode="&#x389;" 
d="M-133 570l57 160h117l-65 -160h-109zM77 0v730h125v-296h196v296h125v-730h-125v321h-196v-321h-125z" />
    <glyph glyph-name="Iotatonos" unicode="&#x38a;" 
d="M-133 570l57 160h117l-65 -160h-109zM90 0v113h147v504h-147v113h420v-113h-147v-504h147v-113h-420z" />
    <glyph glyph-name="Omicrontonos" unicode="&#x38c;" 
d="M-101 570l57 160h117l-65 -160h-109zM300 -10q-105 0 -166.5 60t-61.5 166v298q0 106 61.5 166t166.5 60t166.5 -60t61.5 -165v-299q0 -106 -61.5 -166t-166.5 -60zM300 100q51 0 77 27.5t26 78.5v318q0 51 -26 78.5t-77 27.5t-77 -27.5t-26 -78.5v-318q0 -51 26 -78.5
t77 -27.5z" />
    <glyph glyph-name="Upsilontonos" unicode="&#x38e;" 
d="M-160 570l57 160h117l-65 -160h-109zM237 0v265l-214 465h132l113 -253q13 -30 22 -59t12 -45q4 16 12.5 45t21.5 59l111 253h130l-214 -465v-265h-126z" />
    <glyph glyph-name="Omegatonos" unicode="&#x38f;" 
d="M50 0v115h145v5q-29 3 -60 20.5t-52.5 52t-21.5 87.5v240q0 66 29.5 115.5t83.5 77t126 27.5t126 -27.5t83.5 -77t29.5 -115.5v-240q0 -53 -21.5 -87t-52.5 -51.5t-60 -20.5v-6h146v-115h-211v180q33 0 53.5 26.5t20.5 68.5v245q0 50 -31 80.5t-83 30.5t-83 -30.5
t-31 -80.5v-245q0 -42 20.5 -68.5t53.5 -26.5v-180h-210zM-101 570l57 160h117l-65 -160h-109z" />
    <glyph glyph-name="iotadieresistonos" unicode="&#x390;" 
d="M412 0q-81 0 -130.5 49t-49.5 129v259h-186v113h311v-372q0 -29 17.5 -47t46.5 -18h135v-113h-144zM244 785l77 130h109l-86 -130h-100zM417 642q-33 0 -53 19.5t-20 52.5t20 52.5t53 19.5q34 0 54 -19.5t20 -52.5t-20 -52.5t-54 -19.5zM183 642q-34 0 -54 19.5t-20 52.5
t20 52.5t54 19.5q33 0 53 -19.5t20 -52.5t-20 -52.5t-53 -19.5z" />
    <glyph glyph-name="Alpha" unicode="&#x391;" 
d="M35 0l184 730h161l185 -730h-128l-40 177h-194l-40 -177h-128zM226 279h148l-44 196q-11 49 -19 88.5t-11 57.5q-3 -18 -11 -57.5t-19 -87.5z" />
    <glyph glyph-name="Beta" unicode="&#x392;" 
d="M77 0v730h224q105 0 167.5 -51t62.5 -137q0 -60 -34.5 -103t-89.5 -52v-2q41 -5 73 -29.5t50 -63t18 -84.5q0 -63 -29 -110t-82 -72.5t-125 -25.5h-235zM199 429h100q49 0 78 26.5t29 72.5q0 45 -28.5 71.5t-78.5 26.5h-100v-197zM199 104h106q55 0 86.5 29.5t31.5 80.5
t-31.5 82.5t-86.5 31.5h-106v-224z" />
    <glyph glyph-name="Gamma" unicode="&#x393;" 
d="M121 0v730h437v-113h-312v-617h-125z" />
    <glyph glyph-name="uni0394" unicode="&#x394;" 
d="M35 0l184 730h161l185 -730h-530zM270 476l-83 -367h225l-84 366q-9 39 -17 80t-12 64q-4 -23 -12 -63.5t-17 -79.5z" />
    <glyph glyph-name="Epsilon" unicode="&#x395;" 
d="M88 0v730h438v-110h-315v-190h280v-106h-280v-214h315v-110h-438z" />
    <glyph glyph-name="Zeta" unicode="&#x396;" 
d="M79 0v116l293 501h-286v113h424v-116l-294 -501h305v-113h-442z" />
    <glyph glyph-name="Eta" unicode="&#x397;" 
d="M77 0v730h125v-296h196v296h125v-730h-125v321h-196v-321h-125z" />
    <glyph glyph-name="Theta" unicode="&#x398;" 
d="M300 -10q-105 0 -166.5 58.5t-61.5 157.5v318q0 99 61.5 157.5t166.5 58.5t166.5 -58.5t61.5 -156.5v-319q0 -99 -61.5 -157.5t-166.5 -58.5zM300 100q51 0 77 27.5t26 78.5v318q0 51 -26 78.5t-77 27.5t-77 -27.5t-26 -78.5v-318q0 -51 26 -78.5t77 -27.5zM227 313v116
h145v-116h-145z" />
    <glyph glyph-name="Iota" unicode="&#x399;" 
d="M90 0v113h147v504h-147v113h420v-113h-147v-504h147v-113h-420z" />
    <glyph glyph-name="Kappa" unicode="&#x39a;" 
d="M76 0v730h125v-298h86l139 298h135l-164 -348l172 -382h-139l-144 323h-85v-323h-125z" />
    <glyph glyph-name="Lambda" unicode="&#x39b;" 
d="M35 0l184 730h161l185 -730h-128l-109 475q-8 36 -14.5 69t-10.5 54l-4 21l-4 -21t-10.5 -54t-14.5 -68l-108 -476h-127z" />
    <glyph glyph-name="Mu" unicode="&#x39c;" 
d="M54 0v730h163l82 -314l83 314h164v-730h-117v307q0 63 3.5 130.5t8.5 131t11 115.5l-103 -367h-103l-99 358q9 -69 16.5 -164.5t7.5 -203.5v-307h-117z" />
    <glyph glyph-name="Nu" unicode="&#x39d;" 
d="M72 0v730h153l203 -590q-3 32 -6 75.5t-5.5 88.5t-2.5 80v346h114v-730h-153l-201 590q2 -29 5 -70t5 -84t2 -79v-357h-114z" />
    <glyph glyph-name="Xi" unicode="&#x39e;" 
d="M71 614v116h458v-116h-458zM101 312v116h398v-116h-398zM71 0v116h458v-116h-458z" />
    <glyph glyph-name="Omicron" unicode="&#x39f;" 
d="M300 -10q-105 0 -166.5 60t-61.5 166v298q0 106 61.5 166t166.5 60t166.5 -60t61.5 -165v-299q0 -106 -61.5 -166t-166.5 -60zM300 100q51 0 77 27.5t26 78.5v318q0 51 -26 78.5t-77 27.5t-77 -27.5t-26 -78.5v-318q0 -51 26 -78.5t77 -27.5z" />
    <glyph glyph-name="Pi" unicode="&#x3a0;" 
d="M78 0v730h444v-730h-125v617h-194v-617h-125z" />
    <glyph glyph-name="Rho" unicode="&#x3a1;" 
d="M77 0v730h243q73 0 127.5 -28t84.5 -78.5t30 -118.5t-30 -118.5t-84.5 -78.5t-127.5 -28h-118v-280h-125zM202 390h118q53 0 84 32t31 83t-31 83t-84 32h-118v-230z" />
    <glyph glyph-name="Sigma" unicode="&#x3a3;" 
d="M69 0v109l205 263l-205 249v109h481v-112h-330l204 -243l-204 -263h330v-112h-481z" />
    <glyph glyph-name="Tau" unicode="&#x3a4;" 
d="M237 0v617h-191v113h508v-113h-191v-617h-126z" />
    <glyph glyph-name="Upsilon" unicode="&#x3a5;" 
d="M237 0v265l-214 465h132l113 -253q13 -30 22 -59t12 -45q4 16 12.5 45t21.5 59l111 253h130l-214 -465v-265h-126z" />
    <glyph glyph-name="Phi" unicode="&#x3a6;" 
d="M237 -25v80q-60 1 -105.5 28t-71.5 74.5t-26 111.5v209q0 66 26 114t71.5 75t105.5 28v75h126v-75q60 -1 105.5 -28t71.5 -75.5t26 -113.5v-209q0 -64 -26 -111.5t-71.5 -74.5t-105.5 -28v-80h-126zM250 154v442q-49 0 -78.5 -31.5t-29.5 -86.5v-209q0 -53 29.5 -84
t78.5 -31zM350 154q49 0 78.5 31t29.5 84v209q0 55 -29.5 86.5t-78.5 31.5v-442z" />
    <glyph glyph-name="Chi" unicode="&#x3a7;" 
d="M28 0l202 374l-190 356h140l92 -183q10 -20 18 -38.5t12 -28.5q3 10 11 28.5t18 38.5l93 183h136l-190 -353l202 -377h-140l-103 202q-10 19 -18.5 38.5t-12.5 30.5q-4 -11 -12 -30t-18 -39l-104 -202h-136z" />
    <glyph glyph-name="Psi" unicode="&#x3a8;" 
d="M237 0v170q-58 2 -102.5 29.5t-69.5 75t-25 109.5v346h110v-346q0 -52 26 -82.5t73 -30.5v459h102v-459q47 0 73 30.5t26 82.5v346h110v-346q0 -61 -25 -108t-69.5 -75t-102.5 -31v-170h-126z" />
    <glyph glyph-name="uni03A9" unicode="&#x3a9;" 
d="M50 0v115h145v5q-29 3 -60 20.5t-52.5 52t-21.5 87.5v240q0 66 29.5 115.5t83.5 77t126 27.5t126 -27.5t83.5 -77t29.5 -115.5v-240q0 -53 -21.5 -87t-52.5 -51.5t-60 -20.5v-6h146v-115h-211v180q33 0 53.5 26.5t20.5 68.5v245q0 50 -31 80.5t-83 30.5t-83 -30.5
t-31 -80.5v-245q0 -42 20.5 -68.5t53.5 -26.5v-180h-210z" />
    <glyph glyph-name="Iotadieresis" unicode="&#x3aa;" 
d="M417 808q-33 0 -53 19.5t-20 52.5q0 34 20 53.5t53 19.5q34 0 54 -19.5t20 -53.5q0 -33 -20 -52.5t-54 -19.5zM183 808q-34 0 -54 19.5t-20 52.5q0 34 20 53.5t54 19.5q33 0 53 -19.5t20 -53.5q0 -33 -20 -52.5t-53 -19.5zM90 0v113h147v504h-147v113h420v-113h-147v-504
h147v-113h-420z" />
    <glyph glyph-name="Upsilondieresis" unicode="&#x3ab;" 
d="M417 808q-33 0 -53 19.5t-20 52.5q0 34 20 53.5t53 19.5q34 0 54 -19.5t20 -53.5q0 -33 -20 -52.5t-54 -19.5zM183 808q-34 0 -54 19.5t-20 52.5q0 34 20 53.5t54 19.5q33 0 53 -19.5t20 -53.5q0 -33 -20 -52.5t-53 -19.5zM237 0v265l-214 465h132l113 -253
q13 -30 22 -59t12 -45q4 16 12.5 45t21.5 59l111 253h130l-214 -465v-265h-126z" />
    <glyph glyph-name="alphatonos" unicode="&#x3ac;" 
d="M215 645l105 140h138l-114 -140h-129zM250 -10q-80 0 -130 57t-50 153v149q0 97 49.5 154t130.5 57q57 0 96 -28.5t54 -80.5h2l-4 99h125v-550h-122v99h-1q-15 -52 -53.5 -80.5t-96.5 -28.5zM297 98q48 0 74.5 29t26.5 82v132q0 53 -26.5 82t-74.5 29t-75 -28t-27 -80
v-138q0 -52 27 -80t75 -28z" />
    <glyph glyph-name="epsilontonos" unicode="&#x3ad;" 
d="M339 -7h-64q-65 0 -114 21t-76.5 59t-27.5 88q0 58 36.5 95.5t98.5 39.5v6q-53 3 -86 33.5t-33 77.5q0 66 57.5 105t151.5 39h50q94 0 149 -41.5t56 -112.5h-123q0 25 -22.5 39.5t-59.5 14.5h-50q-39 0 -62 -16.5t-23 -46.5q0 -28 22 -45t61 -17h123v-99h-128
q-42 0 -66.5 -18.5t-24.5 -50.5t24.5 -50.5t66.5 -18.5h64q41 0 65 16.5t24 44.5h122q0 -75 -57 -119t-154 -44zM222 645l106 140h138l-115 -140h-129z" />
    <glyph glyph-name="etatonos" unicode="&#x3ae;" 
d="M77 0v550h122v-103q10 52 49 82.5t99 30.5q81 0 129.5 -54t48.5 -145v-361h-125v346q0 51 -26.5 78.5t-71.5 27.5q-47 0 -73.5 -28t-26.5 -80v-344h-125zM227 645l106 140h138l-115 -140h-129z" />
    <glyph glyph-name="iotatonos" unicode="&#x3af;" 
d="M412 0q-81 0 -130.5 49t-49.5 129v259h-186v113h311v-372q0 -29 17.5 -47t46.5 -18h135v-113h-144zM217 645l106 140h138l-115 -140h-129z" />
    <glyph glyph-name="upsilondieresistonos" unicode="&#x3b0;" 
d="M300 -10q-105 0 -165 58.5t-60 159.5v342h125v-341q0 -52 26 -81t74 -29q47 0 73.5 29t26.5 81v341h125v-342q0 -101 -61 -159.5t-164 -58.5zM244 785l77 130h109l-86 -130h-100zM417 642q-33 0 -53 19.5t-20 52.5t20 52.5t53 19.5q34 0 54 -19.5t20 -52.5t-20 -52.5
t-54 -19.5zM183 642q-34 0 -54 19.5t-20 52.5t20 52.5t54 19.5q33 0 53 -19.5t20 -52.5t-20 -52.5t-53 -19.5z" />
    <glyph glyph-name="alpha" unicode="&#x3b1;" 
d="M250 -10q-80 0 -130 57t-50 153v149q0 97 49.5 154t130.5 57q57 0 96 -28.5t54 -80.5h2l-4 99h125v-550h-122v99h-1q-15 -52 -53.5 -80.5t-96.5 -28.5zM297 98q48 0 74.5 29t26.5 82v132q0 53 -26.5 82t-74.5 29t-75 -28t-27 -80v-138q0 -52 27 -80t75 -28z" />
    <glyph glyph-name="beta" unicode="&#x3b2;" 
d="M73 -180v702q0 65 29 114t79.5 76.5t117.5 27.5q65 0 115.5 -24t78.5 -67t28 -99q0 -54 -30 -94t-77 -51v-2q42 -8 74 -35t50 -68.5t18 -91.5q0 -63 -26 -112t-73.5 -77.5t-110.5 -28.5t-101.5 30t-47.5 84h-3l4 -130v-154h-125zM314 106q52 0 83.5 33t31.5 88t-31.5 88
t-83.5 33h-48v92h32q46 0 73 26.5t27 70.5t-27 70.5t-73 26.5q-45 0 -72.5 -30.5t-27.5 -81.5v-295q0 -55 32 -88t84 -33z" />
    <glyph glyph-name="gamma" unicode="&#x3b3;" 
d="M238 -180v180l-197 550h130l108 -332q10 -31 15 -61t9 -49q3 19 8.5 49t14.5 60l106 333h127l-196 -550v-180h-125z" />
    <glyph glyph-name="delta" unicode="&#x3b4;" 
d="M300 -10q-69 1 -120.5 28t-80.5 76t-29 114v93q0 62 25 109.5t69.5 74.5t102.5 27h5q-33 26 -77 55.5t-101 64.5v98h421v-101h-272q139 -70 213 -158t74 -215q0 -138 -59 -202.5t-171 -63.5zM300 99q50 0 77 36t27 121q0 48 -8.5 87t-33.5 76h-62q-48 0 -76.5 -29.5
t-28.5 -79.5v-102q0 -52 28 -80.5t77 -28.5z" />
    <glyph glyph-name="epsilon" unicode="&#x3b5;" 
d="M339 -7h-64q-65 0 -114 21t-76.5 59t-27.5 88q0 58 36.5 95.5t98.5 39.5v6q-53 3 -86 33.5t-33 77.5q0 66 57.5 105t151.5 39h50q94 0 149 -41.5t56 -112.5h-123q0 25 -22.5 39.5t-59.5 14.5h-50q-39 0 -62 -16.5t-23 -46.5q0 -28 22 -45t61 -17h123v-99h-128
q-42 0 -66.5 -18.5t-24.5 -50.5t24.5 -50.5t66.5 -18.5h64q41 0 65 16.5t24 44.5h122q0 -75 -57 -119t-154 -44z" />
    <glyph glyph-name="zeta" unicode="&#x3b6;" 
d="M477 -188l-95 55l45 67q10 14 10 27q0 23 -28 31l-120 34q-96 27 -143 77t-47 129q0 78 49.5 151t153.5 153l104 81h-290v113h445v-114l-184 -158q-77 -66 -112.5 -117.5t-35.5 -98.5q0 -70 101 -99l127 -36q53 -15 80 -45t27 -71q0 -50 -37 -105z" />
    <glyph glyph-name="eta" unicode="&#x3b7;" 
d="M77 0v550h122v-103q10 52 49 82.5t99 30.5q81 0 129.5 -54t48.5 -145v-361h-125v346q0 51 -26.5 78.5t-71.5 27.5q-47 0 -73.5 -28t-26.5 -80v-344h-125z" />
    <glyph glyph-name="theta" unicode="&#x3b8;" 
d="M300 -10q-105 0 -166.5 58.5t-61.5 157.5v308q0 99 61.5 157.5t166.5 58.5t166.5 -58.5t61.5 -156.5v-309q0 -99 -61.5 -157.5t-166.5 -58.5zM197 418h206v96q0 52 -26.5 79.5t-76.5 27.5t-76.5 -27.5t-26.5 -79.5v-96zM300 99q50 0 76.5 27.5t26.5 79.5v107h-206v-107
q0 -52 26.5 -79.5t76.5 -27.5z" />
    <glyph glyph-name="iota" unicode="&#x3b9;" 
d="M412 0q-81 0 -130.5 49t-49.5 129v259h-186v113h311v-372q0 -29 17.5 -47t46.5 -18h135v-113h-144z" />
    <glyph glyph-name="kappa" unicode="&#x3ba;" 
d="M86 0v550h125v-212h88l126 212h141l-160 -266l170 -284h-143l-134 225h-88v-225h-125z" />
    <glyph glyph-name="lambda" unicode="&#x3bb;" 
d="M35 0l208 543l-74 187h132l264 -730h-132l-108 322q-9 28 -15 57.5t-9 47.5q-2 -18 -7.5 -47.5t-14.5 -57.5l-109 -322h-135z" />
    <glyph glyph-name="uni03BC" unicode="&#x3bc;" 
d="M77 -180v730h125v-344q0 -51 26 -79.5t73 -28.5t73.5 28.5t26.5 79.5v344h125v-550h-124l3 105h-2q-5 -54 -30.5 -84.5t-71.5 -30.5q-47 0 -71.5 30.5t-28.5 84.5h-2l3 -131v-154h-125z" />
    <glyph glyph-name="nu" unicode="&#x3bd;" 
d="M221 0l-185 550h131l106 -334q10 -30 17.5 -60.5t10.5 -52.5q4 22 10.5 52.5t15.5 59.5l105 335h132l-184 -550h-159z" />
    <glyph glyph-name="xi" unicode="&#x3be;" 
d="M316 633q-46 0 -74.5 -26.5t-28.5 -66.5t28 -64t75 -24h156v-109h-148q-56 0 -91 -30t-35 -77q0 -70 92 -95l152 -41q80 -21 96 -80.5t-33 -136.5l-46 -71l-94 51l46 71q12 19 7 34.5t-28 21.5l-135 37q-185 50 -185 204q0 67 39 114.5t101 60.5v2q-53 12 -85.5 52.5
t-32.5 97.5q0 53 28 94t78.5 64.5t117.5 23.5t118 -23t80.5 -63.5t32.5 -93.5h-125q-4 32 -32.5 52.5t-73.5 20.5z" />
    <glyph glyph-name="omicron" unicode="&#x3bf;" 
d="M300 -9q-106 0 -168 59.5t-62 160.5v128q0 102 62 161t168 59t168 -59t62 -161v-128q0 -101 -62 -160.5t-168 -59.5zM300 100q50 0 77.5 27.5t27.5 79.5v136q0 52 -27.5 79.5t-77.5 27.5t-77.5 -27.5t-27.5 -79.5v-136q0 -52 27.5 -79.5t77.5 -27.5z" />
    <glyph glyph-name="pi" unicode="&#x3c0;" 
d="M537 -5q-85 0 -134.5 50.5t-49.5 136.5v260h-138v-442h-121v442h-78v108h550v-108h-92v-260q0 -35 18.5 -54t50.5 -19h24v-114h-30z" />
    <glyph glyph-name="rho" unicode="&#x3c1;" 
d="M78 -180v530q0 64 27.5 111t78.5 73t119 26q102 0 163.5 -57t61.5 -153v-149q0 -97 -49 -154t-132 -57q-61 0 -99 30.5t-46 84.5h-3l4 -131v-154h-125zM303 98q48 0 73.5 28t25.5 80v138q0 52 -25.5 80t-73.5 28q-49 0 -74.5 -28t-25.5 -80v-138q0 -51 26 -79.5t74 -28.5
z" />
    <glyph glyph-name="uni03C2" unicode="&#x3c2;" 
d="M332 -137l46 71q13 19 7.5 34t-28.5 22l-114 35q-80 25 -124 79t-44 128v112q0 66 29 114.5t81.5 75t122.5 26.5q104 0 166 -53.5t65 -145.5h-125q-3 43 -31 66.5t-75 23.5q-50 0 -79 -27.5t-29 -78.5v-113q0 -32 21 -56.5t56 -35.5l132 -40q79 -23 95.5 -81.5
t-33.5 -135.5l-45 -71z" />
    <glyph glyph-name="sigma" unicode="&#x3c3;" 
d="M299 -10q-70 0 -121 27t-79.5 75.5t-28.5 113.5v128q0 65 28.5 113.5t79.5 75.5t121 27h262v-107h-147v-3q53 -9 83 -46t30 -95v-93q0 -65 -28 -113.5t-79.5 -75.5t-120.5 -27zM299 99q49 0 76 28.5t27 78.5v128q0 57 -27 82t-76 25t-76.5 -28.5t-27.5 -78.5v-128
q0 -50 27.5 -78.5t76.5 -28.5z" />
    <glyph glyph-name="tau" unicode="&#x3c4;" 
d="M365 0q-77 0 -122.5 44.5t-45.5 120.5v272h-162v113h497v-113h-209v-269q0 -24 13.5 -39.5t37.5 -15.5h153v-113h-162z" />
    <glyph glyph-name="upsilon" unicode="&#x3c5;" 
d="M300 -10q-105 0 -165 58.5t-60 159.5v342h125v-341q0 -52 26 -81t74 -29q47 0 73.5 29t26.5 81v341h125v-342q0 -101 -61 -159.5t-164 -58.5z" />
    <glyph glyph-name="phi" unicode="&#x3c6;" 
d="M237 -180v180q-57 1 -101.5 28t-70 73t-25.5 106v135q0 86 43.5 143.5t114.5 69.5v-121q-22 -6 -34.5 -30.5t-12.5 -58.5l-1 -140q0 -49 28 -78.5t73 -29.5v453h105q60 0 106 -26.5t72 -73t26 -108.5v-135q0 -60 -25.5 -106t-70 -73t-101.5 -28v-180h-126zM349 97
q47 0 74 29.5t27 78.5v140q0 48 -27 78.5t-71 30.5h-3v-357z" />
    <glyph glyph-name="chi" unicode="&#x3c7;" 
d="M36 0l192 284l-179 266h141l85 -135q8 -12 15 -27t10 -24q4 9 10.5 24t14.5 27l85 135h142l-179 -266l191 -284h-142l-95 151q-8 12 -15.5 27.5t-11.5 24.5q-4 -9 -11 -24.5t-15 -27.5l-96 -151h-142z" />
    <glyph glyph-name="psi" unicode="&#x3c8;" 
d="M237 -180v180q-58 1 -102.5 27t-69.5 71.5t-25 106.5v345h110v-345q0 -51 26 -79t73 -28v452h102v-452q47 0 73 28t26 79v345h110v-345q0 -61 -25 -106.5t-69.5 -71.5t-102.5 -27v-180h-126z" />
    <glyph glyph-name="omega" unicode="&#x3c9;" 
d="M177 -10q-61 0 -98 47.5t-37 125.5v177q0 90 44 149t119 71v-121q-25 -6 -38.5 -32t-13.5 -64v-189q0 -30 13 -48t36 -18q22 0 34.5 18t12.5 48v191h102v-191q0 -30 12.5 -48t34.5 -18q23 0 36 18t13 48v189q0 37 -14 62.5t-40 31.5v121q75 -12 120 -70t45 -148v-177
q0 -78 -37.5 -125.5t-99.5 -47.5q-53 0 -86.5 35.5t-34.5 90.5q-3 -57 -36.5 -91.5t-86.5 -34.5z" />
    <glyph glyph-name="iotadieresis" unicode="&#x3ca;" 
d="M412 0q-81 0 -130.5 49t-49.5 129v259h-186v113h311v-372q0 -29 17.5 -47t46.5 -18h135v-113h-144zM412 642q-33 0 -53 19.5t-20 52.5t20 52.5t53 19.5q34 0 54 -19.5t20 -52.5t-20 -52.5t-54 -19.5zM178 642q-34 0 -54 19.5t-20 52.5t20 52.5t54 19.5q33 0 53 -19.5
t20 -52.5t-20 -52.5t-53 -19.5z" />
    <glyph glyph-name="upsilondieresis" unicode="&#x3cb;" 
d="M300 -10q-105 0 -165 58.5t-60 159.5v342h125v-341q0 -52 26 -81t74 -29q47 0 73.5 29t26.5 81v341h125v-342q0 -101 -61 -159.5t-164 -58.5zM417 642q-33 0 -53 19.5t-20 52.5t20 52.5t53 19.5q34 0 54 -19.5t20 -52.5t-20 -52.5t-54 -19.5zM183 642q-34 0 -54 19.5
t-20 52.5t20 52.5t54 19.5q33 0 53 -19.5t20 -52.5t-20 -52.5t-53 -19.5z" />
    <glyph glyph-name="omicrontonos" unicode="&#x3cc;" 
d="M300 -9q-106 0 -168 59.5t-62 160.5v128q0 102 62 161t168 59t168 -59t62 -161v-128q0 -101 -62 -160.5t-168 -59.5zM300 100q50 0 77.5 27.5t27.5 79.5v136q0 52 -27.5 79.5t-77.5 27.5t-77.5 -27.5t-27.5 -79.5v-136q0 -52 27.5 -79.5t77.5 -27.5zM222 645l106 140h138
l-115 -140h-129z" />
    <glyph glyph-name="upsilontonos" unicode="&#x3cd;" 
d="M300 -10q-105 0 -165 58.5t-60 159.5v342h125v-341q0 -52 26 -81t74 -29q47 0 73.5 29t26.5 81v341h125v-342q0 -101 -61 -159.5t-164 -58.5zM222 645l106 140h138l-115 -140h-129z" />
    <glyph glyph-name="omegatonos" unicode="&#x3ce;" 
d="M177 -10q-61 0 -98 47.5t-37 125.5v177q0 90 44 149t119 71v-121q-25 -6 -38.5 -32t-13.5 -64v-189q0 -30 13 -48t36 -18q22 0 34.5 18t12.5 48v191h102v-191q0 -30 12.5 -48t34.5 -18q23 0 36 18t13 48v189q0 37 -14 62.5t-40 31.5v121q75 -12 120 -70t45 -148v-177
q0 -78 -37.5 -125.5t-99.5 -47.5q-53 0 -86.5 35.5t-34.5 90.5q-3 -57 -36.5 -91.5t-86.5 -34.5zM210 645l106 140h138l-115 -140h-129z" />
    <glyph glyph-name="uni03CF" unicode="&#x3cf;" 
d="M76 0v730h125v-298h86l139 298h135l-164 -348l132 -294h51v-94q0 -85 -46.5 -129.5t-134.5 -44.5h-51v106h45q35 0 54.5 19t19.5 55h-37l-144 323h-85v-323h-125z" />
    <glyph glyph-name="uni03D5" unicode="&#x3d5;" 
d="M237 -180v180q-58 2 -102.5 29t-69.5 73.5t-25 106.5v133q0 60 25 106t69.5 73t102.5 29v180h126v-180q58 -2 102.5 -29t69.5 -73t25 -106v-133q0 -60 -25 -106.5t-69.5 -73.5t-102.5 -29v-180h-126zM253 95v361q-48 0 -75.5 -29.5t-27.5 -80.5v-141q0 -50 27.5 -80
t75.5 -30zM347 95q48 0 75.5 30t27.5 80v141q0 51 -27.5 80.5t-75.5 29.5v-361z" />
    <glyph glyph-name="uni03D6" unicode="&#x3d6;" 
d="M178 -10q-60 0 -96 46t-36 123v143q0 49 19.5 85t54.5 54h-108v109h576v-109h-108q35 -18 54.5 -54t19.5 -85v-143q0 -77 -36 -123t-97 -46q-50 0 -82.5 31t-38.5 83q-7 -52 -39.5 -83t-82.5 -31zM203 87q51 0 51 64v182h92v-182q0 -64 51 -64q50 0 50 64v226
q0 64 -50 64h-194q-50 0 -50 -64v-226q0 -64 50 -64z" />
    <glyph glyph-name="uni03D7" unicode="&#x3d7;" 
d="M77 0v550h113v-266q0 -45 -2.5 -95.5t-11.5 -86.5l195 448h152v-462h45v-94q0 -85 -46.5 -129.5t-135.5 -44.5h-51v106h46q34 0 54 19t20 55h-45v267q0 44 2 91t11 79l-194 -437h-152z" />
    <glyph glyph-name="uni0401" unicode="&#x401;" 
d="M88 0v730h438v-110h-315v-190h280v-106h-280v-214h315v-110h-438zM424 808q-33 0 -53 19.5t-20 52.5q0 34 20 53.5t53 19.5q34 0 54 -19.5t20 -53.5q0 -33 -20 -52.5t-54 -19.5zM190 808q-34 0 -54 19.5t-20 52.5q0 34 20 53.5t54 19.5q33 0 53 -19.5t20 -53.5
q0 -33 -20 -52.5t-53 -19.5z" />
    <glyph glyph-name="uni0402" unicode="&#x402;" 
d="M275 -180v119h64q44 0 69 24t25 67v265q0 96 -72 96q-43 0 -91 -50l-41 -42v-299h-125v615h-104v115h343v-115h-114v-200l15 15q67 70 148 70q75 0 120.5 -53t45.5 -141v-285q0 -60 -28.5 -105t-79 -70.5t-117.5 -25.5h-58z" />
    <glyph glyph-name="uni0403" unicode="&#x403;" 
d="M121 0v730h437v-113h-312v-617h-125zM244 810l106 140h134l-114 -140h-126z" />
    <glyph glyph-name="uni0404" unicode="&#x404;" 
d="M308 -10q-71 0 -123 26.5t-80.5 75t-28.5 114.5v318q0 66 28.5 114.5t80.5 75t123 26.5q70 0 122 -26.5t81 -75t29 -114.5h-126q0 51 -27.5 78.5t-78.5 27.5t-79 -27.5t-28 -78.5v-89h210v-113h-210v-116q0 -51 28 -78.5t79 -27.5t78.5 27.5t27.5 78.5h126
q0 -66 -29 -114.5t-81 -75t-122 -26.5z" />
    <glyph glyph-name="uni0405" unicode="&#x405;" 
d="M303 -10q-74 0 -129.5 26t-86 74.5t-30.5 115.5h123q0 -49 33.5 -78t89.5 -29q54 0 85.5 28.5t31.5 76.5q0 36 -20.5 63.5t-58.5 37.5l-98 25q-79 20 -125 75t-46 131q0 93 61 148.5t163 55.5q69 0 120.5 -25t79.5 -70.5t28 -106.5h-122q0 42 -29 68t-77 26
q-47 0 -74.5 -25.5t-27.5 -66.5q0 -34 19.5 -56t54.5 -32l101 -25q81 -20 127.5 -80t46.5 -143q0 -65 -29.5 -113t-83.5 -74.5t-127 -26.5z" />
    <glyph glyph-name="uni0406" unicode="&#x406;" 
d="M90 0v113h147v504h-147v113h420v-113h-147v-504h147v-113h-420z" />
    <glyph glyph-name="uni0407" unicode="&#x407;" 
d="M90 0v113h147v504h-147v113h420v-113h-147v-504h147v-113h-420zM417 808q-33 0 -53 19.5t-20 52.5q0 34 20 53.5t53 19.5q34 0 54 -19.5t20 -53.5q0 -33 -20 -52.5t-54 -19.5zM183 808q-34 0 -54 19.5t-20 52.5q0 34 20 53.5t54 19.5q33 0 53 -19.5t20 -53.5
q0 -33 -20 -52.5t-53 -19.5z" />
    <glyph glyph-name="uni0408" unicode="&#x408;" 
d="M270 -10q-111 0 -175.5 61t-64.5 165h125q0 -54 30.5 -85.5t84.5 -31.5q53 0 84 31t31 85v515h125v-515q0 -104 -64.5 -164.5t-175.5 -60.5z" />
    <glyph glyph-name="uni0409" unicode="&#x409;" 
d="M-8 -5v100h19q57 0 59 105l6 530h298v-291h29q81 0 132 -46.5t51 -126.5v-93q0 -80 -51 -126.5t-132 -46.5h-131v635h-88l-4 -435q-1 -98 -45.5 -151.5t-118.5 -53.5h-24zM374 95h29q34 0 53.5 21t19.5 57v91q0 37 -19.5 58t-53.5 21h-29v-248z" />
    <glyph glyph-name="uni040A" unicode="&#x40a;" 
d="M44 0v730h109v-285h119v285h102v-285h29q82 0 132.5 -46.5t50.5 -127.5v-98q0 -80 -50.5 -126.5t-132.5 -46.5h-131v349h-119v-349h-109zM374 95h29q35 0 54.5 21t19.5 57v97q0 38 -19.5 58.5t-54.5 20.5h-29v-254z" />
    <glyph glyph-name="uni040B" unicode="&#x40b;" 
d="M104 0v615h-104v115h343v-115h-114v-200l15 15q67 70 148 70q75 0 120.5 -53t45.5 -141v-306h-125v295q0 96 -72 96q-43 0 -91 -50l-41 -42v-299h-125z" />
    <glyph glyph-name="uni040C" unicode="&#x40c;" 
d="M76 0v730h125v-298h86l139 298h135l-164 -348l172 -382h-139l-144 323h-85v-323h-125zM224 810l106 140h134l-114 -140h-126z" />
    <glyph glyph-name="uni040E" unicode="&#x40e;" 
d="M173 0l75 187l-213 543h136l110 -322q10 -28 17.5 -58.5t9.5 -49.5q2 19 8.5 49.5t14.5 58.5l101 322h133l-260 -730h-132zM300 802q-78 0 -126 40.5t-48 107.5h97q0 -33 21 -53t56 -20t56.5 20t21.5 53h97q0 -67 -48 -107.5t-127 -40.5z" />
    <glyph glyph-name="uni040F" unicode="&#x40f;" 
d="M237 -125v125h-159v730h125v-614h194v614h125v-730h-159v-125h-126z" />
    <glyph glyph-name="uni0410" unicode="&#x410;" 
d="M35 0l184 730h161l185 -730h-128l-40 177h-194l-40 -177h-128zM226 279h148l-44 196q-11 49 -19 88.5t-11 57.5q-3 -18 -11 -57.5t-19 -87.5z" />
    <glyph glyph-name="uni0411" unicode="&#x411;" 
d="M78 0v730h438v-113h-316v-174h107q73 0 127 -27.5t84 -77t30 -115.5t-30 -116t-83.5 -78.5t-126.5 -28.5h-230zM200 110h108q52 0 82.5 31t30.5 82q0 52 -30.5 82.5t-82.5 30.5h-108v-226z" />
    <glyph glyph-name="uni0412" unicode="&#x412;" 
d="M77 0v730h224q105 0 167.5 -51t62.5 -137q0 -60 -34.5 -103t-89.5 -52v-2q41 -5 73 -29.5t50 -63t18 -84.5q0 -63 -29 -110t-82 -72.5t-125 -25.5h-235zM199 429h100q49 0 78 26.5t29 72.5q0 45 -28.5 71.5t-78.5 26.5h-100v-197zM199 104h106q55 0 86.5 29.5t31.5 80.5
t-31.5 82.5t-86.5 31.5h-106v-224z" />
    <glyph glyph-name="uni0413" unicode="&#x413;" 
d="M121 0v730h437v-113h-312v-617h-125z" />
    <glyph glyph-name="uni0414" unicode="&#x414;" 
d="M23 -140v245h37q17 28 35 87t19 131l6 407h393v-625h64v-245h-115v140h-324v-140h-115zM185 105h208v519h-156l-5 -301q0 -73 -16 -132t-31 -86z" />
    <glyph glyph-name="uni0415" unicode="&#x415;" 
d="M88 0v730h438v-110h-315v-190h280v-106h-280v-214h315v-110h-438z" />
    <glyph glyph-name="uni0416" unicode="&#x416;" 
d="M0 0l118 378l-111 352h110l95 -307h41v307h91v-307h44l94 307h108l-113 -351l123 -379h-108l-106 332h-42l3 -332h-91l-3 332h-43l-101 -332h-109z" />
    <glyph glyph-name="uni0417" unicode="&#x417;" 
d="M291 -10q-74 0 -130.5 27.5t-88.5 76t-32 112.5h123q1 -48 36.5 -78t91.5 -30q58 0 93.5 31.5t35.5 82.5t-35.5 82.5t-93.5 31.5h-83v106h85q48 0 78 28.5t30 73.5t-30 72.5t-77 27.5q-49 0 -80 -30.5t-31 -79.5h-123q0 64 29.5 112.5t82.5 76t123 27.5q68 0 120 -24.5
t81.5 -68.5t29.5 -102q0 -59 -32.5 -103t-83.5 -54v-3q61 -12 99 -62.5t38 -118.5q0 -64 -32.5 -112t-90 -75t-133.5 -27z" />
    <glyph glyph-name="uni0418" unicode="&#x418;" 
d="M72 0v730h114v-357q0 -36 -2 -79t-5 -84t-5 -70l201 590h153v-730h-114v346q0 35 2.5 80t5.5 88.5t6 75.5l-203 -590h-153z" />
    <glyph glyph-name="uni0419" unicode="&#x419;" 
d="M72 0v730h114v-357q0 -36 -2 -79t-5 -84t-5 -70l201 590h153v-730h-114v346q0 35 2.5 80t5.5 88.5t6 75.5l-203 -590h-153zM300 802q-78 0 -126 40.5t-48 107.5h97q0 -33 21 -53t56 -20t56.5 20t21.5 53h97q0 -67 -48 -107.5t-127 -40.5z" />
    <glyph glyph-name="uni041A" unicode="&#x41a;" 
d="M76 0v730h125v-298h86l139 298h135l-164 -348l172 -382h-139l-144 323h-85v-323h-125z" />
    <glyph glyph-name="uni041B" unicode="&#x41b;" 
d="M17 -5v114h25q69 0 71 131l8 490h401v-730h-125v617h-153l-7 -377q-2 -119 -50.5 -182t-136.5 -63h-33z" />
    <glyph glyph-name="uni041C" unicode="&#x41c;" 
d="M54 0v730h163l82 -314l83 314h164v-730h-117v307q0 63 3.5 130.5t8.5 131t11 115.5l-103 -367h-103l-99 358q9 -69 16.5 -164.5t7.5 -203.5v-307h-117z" />
    <glyph glyph-name="uni041D" unicode="&#x41d;" 
d="M77 0v730h125v-296h196v296h125v-730h-125v321h-196v-321h-125z" />
    <glyph glyph-name="uni041E" unicode="&#x41e;" 
d="M300 -10q-105 0 -166.5 60t-61.5 166v298q0 106 61.5 166t166.5 60t166.5 -60t61.5 -165v-299q0 -106 -61.5 -166t-166.5 -60zM300 100q51 0 77 27.5t26 78.5v318q0 51 -26 78.5t-77 27.5t-77 -27.5t-26 -78.5v-318q0 -51 26 -78.5t77 -27.5z" />
    <glyph glyph-name="uni041F" unicode="&#x41f;" 
d="M78 0v730h444v-730h-125v617h-194v-617h-125z" />
    <glyph glyph-name="uni0420" unicode="&#x420;" 
d="M77 0v730h243q73 0 127.5 -28t84.5 -78.5t30 -118.5t-30 -118.5t-84.5 -78.5t-127.5 -28h-118v-280h-125zM202 390h118q53 0 84 32t31 83t-31 83t-84 32h-118v-230z" />
    <glyph glyph-name="uni0421" unicode="&#x421;" 
d="M308 -10q-71 0 -123 26.5t-80.5 75t-28.5 114.5v318q0 66 28.5 114.5t80.5 75t123 26.5q70 0 122 -26.5t81 -75t29 -114.5h-126q0 51 -27.5 78.5t-78.5 27.5t-79 -27.5t-28 -78.5v-318q0 -51 28 -78.5t79 -27.5t78.5 27.5t27.5 78.5h126q0 -66 -29 -114.5t-81 -75
t-122 -26.5z" />
    <glyph glyph-name="uni0422" unicode="&#x422;" 
d="M237 0v617h-191v113h508v-113h-191v-617h-126z" />
    <glyph glyph-name="uni0423" unicode="&#x423;" 
d="M173 0l75 187l-213 543h136l110 -322q10 -28 17.5 -58.5t9.5 -49.5q2 19 8.5 49.5t14.5 58.5l101 322h133l-260 -730h-132z" />
    <glyph glyph-name="uni0424" unicode="&#x424;" 
d="M237 -25v80q-60 1 -105.5 28t-71.5 74.5t-26 111.5v209q0 66 26 114t71.5 75t105.5 28v75h126v-75q60 -1 105.5 -28t71.5 -75.5t26 -113.5v-209q0 -64 -26 -111.5t-71.5 -74.5t-105.5 -28v-80h-126zM250 154v442q-49 0 -78.5 -31.5t-29.5 -86.5v-209q0 -53 29.5 -84
t78.5 -31zM350 154q49 0 78.5 31t29.5 84v209q0 55 -29.5 86.5t-78.5 31.5v-442z" />
    <glyph glyph-name="uni0425" unicode="&#x425;" 
d="M28 0l202 374l-190 356h140l92 -183q10 -20 18 -38.5t12 -28.5q3 10 11 28.5t18 38.5l93 183h136l-190 -353l202 -377h-140l-103 202q-10 19 -18.5 38.5t-12.5 30.5q-4 -11 -12 -30t-18 -39l-104 -202h-136z" />
    <glyph glyph-name="uni0426" unicode="&#x426;" 
d="M458 -140v140h-380v730h125v-618h170v618h125v-618h75v-252h-115z" />
    <glyph glyph-name="uni0427" unicode="&#x427;" 
d="M395 0v259h-123q-100 0 -156 50.5t-56 140.5v280h125v-274q0 -40 27.5 -62.5t74.5 -22.5h108v359h125v-730h-125z" />
    <glyph glyph-name="uni0428" unicode="&#x428;" 
d="M48 0l-1 730h111v-627h93v627h99v-627h93v627h110v-730h-505z" />
    <glyph glyph-name="uni0429" unicode="&#x429;" 
d="M489 -140v140h-442v730h104v-627h94v627h87v-627h94v627h104v-627h68v-243h-109z" />
    <glyph glyph-name="uni042A" unicode="&#x42a;" 
d="M120 0v626h-125v104h250v-291h73q74 0 128.5 -27.5t85 -76.5t30.5 -115t-30.5 -115.5t-85 -77t-128.5 -27.5h-198zM245 110h71q54 0 86.5 30t32.5 79q0 50 -32.5 80t-86.5 30h-71v-219z" />
    <glyph glyph-name="uni042B" unicode="&#x42b;" 
d="M47 0v730h110v-291h37q89 0 141 -51.5t52 -140.5v-57q0 -87 -52 -138.5t-141 -51.5h-147zM443 0v730h110v-730h-110zM157 100h37q41 0 64.5 24t23.5 67v56q0 43 -23.5 67.5t-64.5 24.5h-37v-239z" />
    <glyph glyph-name="uni042C" unicode="&#x42c;" 
d="M78 0v730h125v-285h115q74 0 128.5 -28t85 -78.5t30.5 -116.5t-30.5 -116t-85 -78t-128.5 -28h-240zM203 110h113q54 0 86.5 31t32.5 80q0 50 -32.5 82t-86.5 32h-113v-225z" />
    <glyph glyph-name="uni042D" unicode="&#x42d;" 
d="M60 206h126q0 -51 27.5 -78.5t78.5 -27.5t79 27.5t28 78.5v116h-210v113h210v89q0 51 -28 78.5t-79 27.5t-78.5 -27.5t-27.5 -78.5h-126q0 66 29 114.5t81 75t122 26.5q71 0 123 -26.5t80.5 -75t28.5 -114.5v-318q0 -66 -28.5 -114.5t-80.5 -75t-123 -26.5
q-70 0 -122 26.5t-81 75t-29 114.5z" />
    <glyph glyph-name="uni042E" unicode="&#x42e;" 
d="M405 -10q-75 0 -120.5 50t-45.5 132v156h-82v-328h-110v730h110v-302h82v131q0 82 45.5 131.5t120.5 49.5q77 0 123 -49.5t46 -131.5v-387q0 -82 -46 -132t-123 -50zM402 85q29 0 45.5 21.5t16.5 59.5v398q0 38 -16.5 59.5t-45.5 21.5q-30 0 -46.5 -21.5t-16.5 -59.5
v-398q0 -38 16.5 -59.5t46.5 -21.5z" />
    <glyph glyph-name="uni042F" unicode="&#x42f;" 
d="M45 0l141 308q-62 23 -97.5 77.5t-35.5 127.5q0 66 29.5 114.5t83.5 75.5t126 27h230v-730h-125v290h-89l-126 -290h-137zM292 399h105v222h-105q-52 0 -82.5 -30.5t-30.5 -81.5t30.5 -80.5t82.5 -29.5z" />
    <glyph glyph-name="uni0430" unicode="&#x430;" 
d="M239 -10q-84 0 -132.5 47.5t-48.5 124.5q0 80 55 127.5t151 47.5h134v39q0 83 -97 83q-44 0 -70 -17t-29 -48h-120q4 74 62.5 120t157.5 46q105 0 163 -49t58 -138v-373h-122v103q-7 -53 -50 -83t-112 -30zM279 92q55 0 87 27t32 72v65h-128q-41 0 -65 -23t-24 -59
q0 -37 25.5 -59.5t72.5 -22.5z" />
    <glyph glyph-name="uni0431" unicode="&#x431;" 
d="M300 -10q-106 1 -167.5 59.5t-61.5 158.5v252q0 121 56 188.5t165 75.5l207 16v-121l-190 -14q-134 -10 -134 -145v-56q10 54 51.5 83t105.5 29q96 0 146.5 -57.5t50.5 -156.5v-94q0 -100 -61.5 -159.5t-167.5 -58.5zM300 99q49 0 76.5 29t27.5 80v94q0 51 -27.5 80
t-76.5 29t-76.5 -29t-27.5 -80v-94q0 -51 27.5 -80t76.5 -29z" />
    <glyph glyph-name="uni0432" unicode="&#x432;" 
d="M77 0v550h252q91 0 144.5 -38t53.5 -103q0 -48 -32.5 -78.5t-86.5 -32.5v-6q62 -3 98.5 -39.5t36.5 -95.5q0 -72 -55 -114.5t-147 -42.5h-264zM199 324h127q37 0 57.5 17.5t20.5 48.5t-20.5 48.5t-57.5 17.5h-127v-132zM199 94h134q41 0 64 19.5t23 54.5t-23 54.5
t-64 19.5h-134v-148z" />
    <glyph glyph-name="uni0433" unicode="&#x433;" 
d="M123 0v550h410v-116h-285v-434h-125z" />
    <glyph glyph-name="uni0434" unicode="&#x434;" 
d="M23 -140v247h37q18 18 36 62.5t19 125.5l4 255h389v-443h67v-247h-115v140h-322v-140h-115zM184 107h205v335h-154l-2 -148q-1 -78 -16.5 -123.5t-32.5 -63.5z" />
    <glyph glyph-name="uni0435" unicode="&#x435;" 
d="M301 -10q-70 0 -122 27t-80.5 76.5t-28.5 116.5v130q0 67 28.5 116.5t80.5 76.5t122 27q69 0 120.5 -27t80 -75.5t28.5 -113.5v-100h-340v-38q0 -56 29 -84.5t82 -28.5q39 0 66.5 13.5t32.5 39.5h124q-13 -71 -74 -113.5t-149 -42.5zM190 344v-19l220 1v19q0 57 -28 88
t-81 31q-55 0 -83 -31.5t-28 -88.5z" />
    <glyph glyph-name="uni0436" unicode="&#x436;" 
d="M3 0l117 283l-109 267h112l90 -228h42v228h90v-228h42l95 228h107l-109 -264l117 -286h-111l-97 240h-44v-240h-90v240h-44l-93 -240h-115z" />
    <glyph glyph-name="uni0437" unicode="&#x437;" 
d="M261 -7q-97 0 -154 44t-57 119h122q0 -28 24 -44.5t65 -16.5h64q42 0 66.5 18.5t24.5 50.5t-24.5 50.5t-66.5 18.5h-128v99h123q39 0 61 17t22 45q0 30 -23 46.5t-62 16.5h-50q-37 0 -59.5 -14.5t-22.5 -39.5h-123q1 71 56 112.5t149 41.5h50q94 0 151.5 -39t57.5 -105
q0 -47 -33 -77.5t-86 -33.5v-6q62 -2 98.5 -39.5t36.5 -95.5q0 -50 -27.5 -88t-76.5 -59t-114 -21h-64z" />
    <glyph glyph-name="uni0438" unicode="&#x438;" 
d="M77 0v550h113v-266q0 -45 -2.5 -95.5t-11.5 -86.5l195 448h152v-550h-113v267q0 44 2 91t11 79l-194 -437h-152z" />
    <glyph glyph-name="uni0439" unicode="&#x439;" 
d="M77 0v550h113v-266q0 -45 -2.5 -95.5t-11.5 -86.5l195 448h152v-550h-113v267q0 44 2 91t11 79l-194 -437h-152zM300 637q-78 0 -126.5 40.5t-48.5 107.5h97q0 -33 21.5 -53t56.5 -20t56.5 20t21.5 53h97q0 -67 -48 -107.5t-127 -40.5z" />
    <glyph glyph-name="uni043A" unicode="&#x43a;" 
d="M86 0v550h125v-212h88l126 212h141l-160 -266l170 -284h-143l-134 225h-88v-225h-125z" />
    <glyph glyph-name="uni043B" unicode="&#x43b;" 
d="M22 -7v114h23q34 0 51.5 27.5t18.5 87.5l6 328h402v-550h-125v437h-154l-4 -222q-2 -109 -50.5 -165.5t-136.5 -56.5h-31z" />
    <glyph glyph-name="uni043C" unicode="&#x43c;" 
d="M54 0v550h157l88 -260l88 260h159v-550h-116v94v104t1 110t4 102.5t9 80.5l-96 -294h-100l-94 279q8 -41 11.5 -104.5t4 -136t0.5 -141.5v-94h-116z" />
    <glyph glyph-name="uni043D" unicode="&#x43d;" 
d="M77 0v550h125v-212h196v212h125v-550h-125v225h-196v-225h-125z" />
    <glyph glyph-name="uni043E" unicode="&#x43e;" 
d="M300 -9q-106 0 -168 59.5t-62 160.5v128q0 102 62 161t168 59t168 -59t62 -161v-128q0 -101 -62 -160.5t-168 -59.5zM300 100q50 0 77.5 27.5t27.5 79.5v136q0 52 -27.5 79.5t-77.5 27.5t-77.5 -27.5t-27.5 -79.5v-136q0 -52 27.5 -79.5t77.5 -27.5z" />
    <glyph glyph-name="uni043F" unicode="&#x43f;" 
d="M77 0v550h446v-550h-125v436h-196v-436h-125z" />
    <glyph glyph-name="uni0440" unicode="&#x440;" 
d="M77 -180v730h122v-101q15 52 54 81.5t97 29.5q53 0 93.5 -26t63 -73.5t22.5 -110.5v-149q0 -95 -49 -153t-130 -58q-58 0 -97.5 30t-54.5 84l4 -130v-154h-125zM303 98q48 0 74.5 26t26.5 80v142q0 54 -26.5 80t-74.5 26t-74.5 -29t-26.5 -82v-132q0 -53 26.5 -82
t74.5 -29z" />
    <glyph glyph-name="uni0441" unicode="&#x441;" 
d="M309 -10q-71 0 -123.5 26.5t-81.5 75t-29 114.5v138q0 66 29 114.5t81.5 75t123.5 26.5q103 0 165.5 -53.5t65.5 -145.5h-123q-3 43 -32.5 66.5t-75.5 23.5q-51 0 -80 -27.5t-29 -78.5v-139q0 -51 29 -79t80 -28q47 0 76 23.5t32 66.5h123q-3 -92 -65.5 -145.5
t-165.5 -53.5z" />
    <glyph glyph-name="uni0442" unicode="&#x442;" 
d="M237 0v437h-188v113h502v-113h-188v-437h-126z" />
    <glyph glyph-name="uni0443" unicode="&#x443;" 
d="M165 -180l78 210l-207 520h132l106 -281q9 -25 18 -54.5t13 -54.5q3 25 11.5 54.5t17.5 54.5l98 281h132l-268 -730h-131z" />
    <glyph glyph-name="uni0444" unicode="&#x444;" 
d="M237 -180v180q-58 2 -102.5 29t-69.5 73.5t-25 106.5v133q0 60 25 106t69.5 73t102.5 29v180h126v-180q58 -2 102.5 -29t69.5 -73t25 -106v-133q0 -60 -25 -106.5t-69.5 -73.5t-102.5 -29v-180h-126zM253 95v361q-48 0 -75.5 -29.5t-27.5 -80.5v-141q0 -50 27.5 -80
t75.5 -30zM347 95q48 0 75.5 30t27.5 80v141q0 51 -27.5 80.5t-75.5 29.5v-361z" />
    <glyph glyph-name="uni0445" unicode="&#x445;" 
d="M36 0l192 284l-179 266h141l85 -135q8 -12 15 -27t10 -24q4 9 10.5 24t14.5 27l85 135h142l-179 -266l191 -284h-142l-95 151q-8 12 -15.5 27.5t-11.5 24.5q-4 -9 -11 -24.5t-15 -27.5l-96 -151h-142z" />
    <glyph glyph-name="uni0446" unicode="&#x446;" 
d="M460 -140v140h-383v550h125v-435h173v435h125v-435h75v-255h-115z" />
    <glyph glyph-name="uni0447" unicode="&#x447;" 
d="M392 0v177h-137q-91 0 -142 48.5t-51 134.5v190h125v-184q0 -36 23 -56t64 -20h118v260h126v-550h-126z" />
    <glyph glyph-name="uni0448" unicode="&#x448;" 
d="M48 0l-1 550h111v-451h93v451h99v-451h93v451h110v-550h-505z" />
    <glyph glyph-name="uni0449" unicode="&#x449;" 
d="M489 -140v140h-442v550h104v-451h93v451h87v-451h93v451h104v-451h70v-239h-109z" />
    <glyph glyph-name="uni044A" unicode="&#x44a;" 
d="M150 0v435h-128v115h253v-180h91q100 0 156.5 -49.5t56.5 -136.5q0 -85 -57 -134.5t-155 -49.5h-217zM275 110h86q44 0 67.5 19.5t23.5 55.5t-23.5 55.5t-67.5 19.5h-86v-150z" />
    <glyph glyph-name="uni044B" unicode="&#x44b;" 
d="M47 0v550h110v-186h40q87 0 139.5 -50t52.5 -134q0 -82 -52.5 -131t-139.5 -49h-150zM443 0v550h110v-550h-110zM157 94h40q41 0 65 23.5t24 62.5q0 42 -24 66t-65 24h-40v-176z" />
    <glyph glyph-name="uni044C" unicode="&#x44c;" 
d="M87 0v550h126v-180h137q99 0 156 -49.5t57 -136.5q0 -85 -57.5 -134.5t-154.5 -49.5h-264zM213 109h132q43 0 67 20t24 56t-24 56t-67 20h-132v-152z" />
    <glyph glyph-name="uni044D" unicode="&#x44d;" 
d="M293 -10q-103 0 -165 53t-66 144h126q3 -41 30.5 -64.5t74.5 -23.5q51 0 79.5 27.5t28.5 78.5v23h-164v100h164v16q0 51 -28.5 79t-79.5 28q-46 0 -74 -23.5t-31 -64.5h-126q4 91 66 144t165 53q71 0 123.5 -26.5t81 -75t28.5 -114.5v-138q0 -66 -28.5 -114.5t-81 -75
t-123.5 -26.5z" />
    <glyph glyph-name="uni044E" unicode="&#x44e;" 
d="M395 -10q-75 0 -118.5 45.5t-43.5 122.5v75h-76v-233h-110v550h110v-226h76v69q0 77 43.5 122t118.5 45q79 0 125 -45t46 -122v-235q0 -77 -46 -122.5t-125 -45.5zM395 83q28 0 45 20.5t17 54.5v235q0 34 -16.5 54t-45.5 20q-28 0 -44.5 -20t-16.5 -54v-235
q0 -34 16.5 -54.5t44.5 -20.5z" />
    <glyph glyph-name="uni044F" unicode="&#x44f;" 
d="M55 0l129 202q-55 17 -86.5 60.5t-31.5 103.5q0 86 58 135t160 49h239v-550h-125v190h-87l-112 -190h-144zM289 287h109v161h-109q-45 0 -71.5 -21.5t-26.5 -59.5t26 -59t72 -21z" />
    <glyph glyph-name="uni0451" unicode="&#x451;" 
d="M301 -10q-70 0 -122 27t-80.5 76.5t-28.5 116.5v130q0 67 28.5 116.5t80.5 76.5t122 27q69 0 120.5 -27t80 -75.5t28.5 -113.5v-100h-340v-38q0 -56 29 -84.5t82 -28.5q39 0 66.5 13.5t32.5 39.5h124q-13 -71 -74 -113.5t-149 -42.5zM190 344v-19l220 1v19q0 57 -28 88
t-81 31q-55 0 -83 -31.5t-28 -88.5zM417 642q-33 0 -53 19.5t-20 52.5t20 52.5t53 19.5q34 0 54 -19.5t20 -52.5t-20 -52.5t-54 -19.5zM183 642q-34 0 -54 19.5t-20 52.5t20 52.5t54 19.5q33 0 53 -19.5t20 -52.5t-20 -52.5t-53 -19.5z" />
    <glyph glyph-name="uni0452" unicode="&#x452;" 
d="M250 -180v116h45q50 0 77 27t27 76v249q0 50 -26 77t-72 27t-72 -28t-26 -80v-284h-125v561h-78v84h78v85h125v-85h153v-84h-153v-71l-3 -105h2q8 54 46 84.5t99 30.5q81 0 129 -54t48 -145v-265q0 -100 -60 -158t-162 -58h-52z" />
    <glyph glyph-name="uni0453" unicode="&#x453;" 
d="M123 0v550h410v-116h-285v-434h-125zM254 645l106 140h134l-114 -140h-126z" />
    <glyph glyph-name="uni0454" unicode="&#x454;" 
d="M307 -10q-71 0 -123.5 26.5t-81 75t-28.5 114.5v138q0 66 28.5 114.5t81 75t123.5 26.5q103 0 165 -53t66 -144h-126q-3 41 -31 64.5t-74 23.5q-51 0 -79.5 -28t-28.5 -79v-16h164v-100h-164v-23q0 -51 28.5 -78.5t79.5 -27.5q47 0 74.5 23.5t30.5 64.5h126
q-4 -91 -66 -144t-165 -53z" />
    <glyph glyph-name="uni0455" unicode="&#x455;" 
d="M277 -9q-98 0 -155 44.5t-57 120.5h123q0 -32 23.5 -49t65.5 -17h44q45 0 69.5 17t24.5 49q0 30 -17 44.5t-52 19.5l-137 18q-66 9 -101.5 51t-35.5 109q0 78 52 119.5t150 41.5h46q92 0 148 -42t58 -112h-124q-1 26 -23 41.5t-59 15.5h-46q-40 0 -61 -16.5t-21 -44.5
q0 -25 15.5 -37t45.5 -15l129 -18q76 -9 114.5 -53.5t38.5 -119.5q0 -80 -54.5 -123.5t-159.5 -43.5h-44z" />
    <glyph glyph-name="uni0456" unicode="&#x456;" 
d="M76 0v113h188v324h-168v113h293v-437h169v-113h-482zM318 642q-38 0 -60 19.5t-22 52.5t22 52.5t60 19.5t60 -19.5t22 -52.5t-22 -52.5t-60 -19.5z" />
    <glyph glyph-name="uni0457" unicode="&#x457;" 
d="M76 0v113h188v324h-168v113h293v-437h169v-113h-482zM435 642q-33 0 -53 19.5t-20 52.5t20 52.5t53 19.5q34 0 54 -19.5t20 -52.5t-20 -52.5t-54 -19.5zM201 642q-34 0 -54 19.5t-20 52.5t20 52.5t54 19.5q33 0 53 -19.5t20 -52.5t-20 -52.5t-53 -19.5z" />
    <glyph glyph-name="uni0458" unicode="&#x458;" 
d="M81 -180v113h145q48 0 76 28.5t28 77.5v398h-254v113h379v-514q0 -100 -60 -158t-162 -58h-152zM386 642q-38 0 -60 19.5t-22 52.5t22 52.5t60 19.5t60 -19.5t22 -52.5t-22 -52.5t-60 -19.5z" />
    <glyph glyph-name="uni0459" unicode="&#x459;" 
d="M-1 -5v103h19q26 0 41.5 27.5t16.5 74.5l5 350h296v-185h46q74 0 119.5 -43t45.5 -114v-56q0 -69 -45 -110.5t-119 -41.5h-146v454h-92l-3 -256q-1 -93 -44.5 -148t-116.5 -55h-23zM377 95h46q27 0 42.5 15.5t15.5 41.5v56q0 28 -15.5 44.5t-42.5 16.5h-46v-174z" />
    <glyph glyph-name="uni045A" unicode="&#x45a;" 
d="M49 0v550h107v-188h124v188h97v-188h46q74 0 119.5 -43t45.5 -115v-52q0 -68 -45.5 -110t-118.5 -42h-144v266h-124v-266h-107zM377 95h46q27 0 43 16t16 42v53q0 27 -16 43.5t-43 16.5h-46v-171z" />
    <glyph glyph-name="uni045B" unicode="&#x45b;" 
d="M0 561v84h77v85h125v-85h154v-84h-154v-71l-3 -105h2q9 54 47 84.5t99 30.5q81 0 129.5 -54t48.5 -145v-301h-125v288q0 50 -26.5 77t-72.5 27t-72.5 -28t-26.5 -80v-284h-125v561h-77z" />
    <glyph glyph-name="uni045C" unicode="&#x45c;" 
d="M86 0v550h125v-212h88l126 212h141l-160 -266l170 -284h-143l-134 225h-88v-225h-125zM227 645l106 140h134l-114 -140h-126z" />
    <glyph glyph-name="uni045E" unicode="&#x45e;" 
d="M165 -180l78 210l-207 520h132l106 -281q9 -25 18 -54.5t13 -54.5q3 25 11.5 54.5t17.5 54.5l98 281h132l-268 -730h-131zM300 637q-78 0 -126.5 40.5t-48.5 107.5h97q0 -33 21.5 -53t56.5 -20t56.5 20t21.5 53h97q0 -67 -48 -107.5t-127 -40.5z" />
    <glyph glyph-name="uni045F" unicode="&#x45f;" 
d="M237 -125v125h-160v550h125v-434h196v434h125v-550h-160v-125h-126z" />
    <glyph glyph-name="uni0490" unicode="&#x490;" 
d="M121 0v730h317v95h120v-211h-312v-614h-125z" />
    <glyph glyph-name="uni0491" unicode="&#x491;" 
d="M121 0v550h290v105h120v-221h-285v-434h-125z" />
    <glyph glyph-name="uni0492" unicode="&#x492;" 
d="M121 0v314h-91v106h91v310h437v-113h-312v-197h140v-106h-140v-314h-125z" />
    <glyph glyph-name="uni0493" unicode="&#x493;" 
d="M138 0v209h-100v113h100v228h410v-116h-285v-112h158v-113h-158v-209h-125z" />
    <glyph glyph-name="uni049A" unicode="&#x49a;" 
d="M63 0v730h125v-298h86l138 298h136l-164 -348l120 -267h87v-255h-109v140h-65l-144 323h-85v-323h-125z" />
    <glyph glyph-name="uni049B" unicode="&#x49b;" 
d="M77 0v550h125v-216h86l133 216h141l-167 -266l101 -169h86v-255h-110v140h-50l-135 228h-85v-228h-125z" />
    <glyph glyph-name="uni04A2" unicode="&#x4a2;" 
d="M70 0v730h125v-296h195v296h125v-615h58v-255h-109v140h-74v321h-195v-321h-125z" />
    <glyph glyph-name="uni04A3" unicode="&#x4a3;" 
d="M71 0v550h125v-213h194v213h125v-435h58v-255h-109v140h-74v221h-194v-221h-125z" />
    <glyph glyph-name="uni04AE" unicode="&#x4ae;" 
d="M237 0v265l-214 465h132l113 -253q13 -30 22 -59t12 -45q4 16 12.5 45t21.5 59l111 253h130l-214 -465v-265h-126z" />
    <glyph glyph-name="uni04AF" unicode="&#x4af;" 
d="M238 -180v180l-197 550h130l108 -332q10 -31 15 -61t9 -49q3 19 8.5 49t14.5 60l106 333h127l-196 -550v-180h-125z" />
    <glyph glyph-name="uni04B0" unicode="&#x4b0;" 
d="M122 182v83h115l-214 465h132l113 -253q13 -30 22 -59t12 -45q4 16 12.5 45t21.5 59l111 253h130l-214 -465h115v-83h-115v-182h-126v182h-115z" />
    <glyph glyph-name="uni04B1" unicode="&#x4b1;" 
d="M122 -84v84h116l-197 550h130l108 -332q10 -31 15 -61t9 -49q3 19 8.5 49t14.5 60l106 333h127l-196 -550h115v-84h-115v-96h-125v96h-116z" />
    <glyph glyph-name="uni04B6" unicode="&#x4b6;" 
d="M385 0v259h-123q-100 0 -156 50.5t-56 140.5v280h125v-274q0 -40 27.5 -62.5t74.5 -22.5h108v359h125v-615h51v-255h-109v140h-67z" />
    <glyph glyph-name="uni04B7" unicode="&#x4b7;" 
d="M385 0v177h-138q-91 0 -142 48.5t-51 134.5v190h125v-184q0 -36 23 -56t64 -20h119v260h125v-435h56v-255h-109v140h-72z" />
    <glyph glyph-name="uni04BA" unicode="&#x4ba;" 
d="M205 730v-259h123q100 0 156 -50.5t56 -140.5v-280h-125v274q0 40 -27.5 62.5t-74.5 22.5h-108v-359h-125v730h125z" />
    <glyph glyph-name="uni04BB" unicode="&#x4bb;" 
d="M208 550v-177h137q91 0 142 -48.5t51 -134.5v-190h-125v184q0 36 -23 56t-64 20h-118v-260h-126v550h126z" />
    <glyph glyph-name="uni04D8" unicode="&#x4d8;" 
d="M296 -10q-70 0 -122 26.5t-80.5 75t-28.5 114.5v218h337v101q0 50 -28 78t-78 28t-78 -28.5t-28 -78.5h-125q0 66 28.5 114.5t80.5 75t122 26.5q71 0 122.5 -26.5t80.5 -75t29 -114.5v-318q0 -66 -29 -114.5t-80.5 -75t-122.5 -26.5zM296 99q50 0 78 28.5t28 78.5v105
h-212v-105q0 -50 28 -78.5t78 -28.5z" />
    <glyph glyph-name="uni04D9" unicode="&#x4d9;" 
d="M299 560q70 0 122 -27t80.5 -76.5t28.5 -116.5v-130q0 -67 -28.5 -116.5t-80.5 -76.5t-122 -27q-69 0 -120.5 27t-80 75.5t-28.5 113.5v100h340v38q0 56 -29 84.5t-82 28.5q-39 0 -66.5 -13.5t-32.5 -39.5h-124q13 71 74 113.5t149 42.5zM410 206v19l-220 -1v-19
q0 -57 28 -88t81 -31q55 0 83 31.5t28 88.5z" />
    <glyph glyph-name="uni04DC" unicode="&#x4dc;" 
d="M0 0l118 378l-111 352h110l95 -307h41v307h91v-307h44l94 307h108l-113 -351l123 -379h-108l-106 332h-42l3 -332h-91l-3 332h-43l-101 -332h-109zM417 808q-33 0 -53 19.5t-20 52.5q0 34 20 53.5t53 19.5q34 0 54 -19.5t20 -53.5q0 -33 -20 -52.5t-54 -19.5zM183 808
q-34 0 -54 19.5t-20 52.5q0 34 20 53.5t54 19.5q33 0 53 -19.5t20 -53.5q0 -33 -20 -52.5t-53 -19.5z" />
    <glyph glyph-name="uni04DD" unicode="&#x4dd;" 
d="M3 0l117 283l-109 267h112l90 -228h42v228h90v-228h42l95 228h107l-109 -264l117 -286h-111l-97 240h-44v-240h-90v240h-44l-93 -240h-115zM417 642q-33 0 -53 19.5t-20 52.5t20 52.5t53 19.5q34 0 54 -19.5t20 -52.5t-20 -52.5t-54 -19.5zM183 642q-34 0 -54 19.5
t-20 52.5t20 52.5t54 19.5q33 0 53 -19.5t20 -52.5t-20 -52.5t-53 -19.5z" />
    <glyph glyph-name="uni04DE" unicode="&#x4de;" 
d="M291 -10q-74 0 -130.5 27.5t-88.5 76t-32 112.5h123q1 -48 36.5 -78t91.5 -30q58 0 93.5 31.5t35.5 82.5t-35.5 82.5t-93.5 31.5h-83v106h85q48 0 78 28.5t30 73.5t-30 72.5t-77 27.5q-49 0 -80 -30.5t-31 -79.5h-123q0 64 29.5 112.5t82.5 76t123 27.5q68 0 120 -24.5
t81.5 -68.5t29.5 -102q0 -59 -32.5 -103t-83.5 -54v-3q61 -12 99 -62.5t38 -118.5q0 -64 -32.5 -112t-90 -75t-133.5 -27zM417 808q-33 0 -53 19.5t-20 52.5q0 34 20 53.5t53 19.5q34 0 54 -19.5t20 -53.5q0 -33 -20 -52.5t-54 -19.5zM183 808q-34 0 -54 19.5t-20 52.5
q0 34 20 53.5t54 19.5q33 0 53 -19.5t20 -53.5q0 -33 -20 -52.5t-53 -19.5z" />
    <glyph glyph-name="uni04DF" unicode="&#x4df;" 
d="M261 -7q-97 0 -154 44t-57 119h122q0 -28 24 -44.5t65 -16.5h64q42 0 66.5 18.5t24.5 50.5t-24.5 50.5t-66.5 18.5h-128v99h123q39 0 61 17t22 45q0 30 -23 46.5t-62 16.5h-50q-37 0 -59.5 -14.5t-22.5 -39.5h-123q1 71 56 112.5t149 41.5h50q94 0 151.5 -39t57.5 -105
q0 -47 -33 -77.5t-86 -33.5v-6q62 -2 98.5 -39.5t36.5 -95.5q0 -50 -27.5 -88t-76.5 -59t-114 -21h-64zM417 642q-33 0 -53 19.5t-20 52.5t20 52.5t53 19.5q34 0 54 -19.5t20 -52.5t-20 -52.5t-54 -19.5zM183 642q-34 0 -54 19.5t-20 52.5t20 52.5t54 19.5q33 0 53 -19.5
t20 -52.5t-20 -52.5t-53 -19.5z" />
    <glyph glyph-name="uni04E4" unicode="&#x4e4;" 
d="M72 0v730h114v-357q0 -36 -2 -79t-5 -84t-5 -70l201 590h153v-730h-114v346q0 35 2.5 80t5.5 88.5t6 75.5l-203 -590h-153zM417 808q-33 0 -53 19.5t-20 52.5q0 34 20 53.5t53 19.5q34 0 54 -19.5t20 -53.5q0 -33 -20 -52.5t-54 -19.5zM183 808q-34 0 -54 19.5t-20 52.5
q0 34 20 53.5t54 19.5q33 0 53 -19.5t20 -53.5q0 -33 -20 -52.5t-53 -19.5z" />
    <glyph glyph-name="uni04E5" unicode="&#x4e5;" 
d="M77 0v550h113v-266q0 -45 -2.5 -95.5t-11.5 -86.5l195 448h152v-550h-113v267q0 44 2 91t11 79l-194 -437h-152zM417 642q-33 0 -53 19.5t-20 52.5t20 52.5t53 19.5q34 0 54 -19.5t20 -52.5t-20 -52.5t-54 -19.5zM183 642q-34 0 -54 19.5t-20 52.5t20 52.5t54 19.5
q33 0 53 -19.5t20 -52.5t-20 -52.5t-53 -19.5z" />
    <glyph glyph-name="uni04E6" unicode="&#x4e6;" 
d="M300 -10q-105 0 -166.5 60t-61.5 166v298q0 106 61.5 166t166.5 60t166.5 -60t61.5 -165v-299q0 -106 -61.5 -166t-166.5 -60zM300 100q51 0 77 27.5t26 78.5v318q0 51 -26 78.5t-77 27.5t-77 -27.5t-26 -78.5v-318q0 -51 26 -78.5t77 -27.5zM417 808q-33 0 -53 19.5
t-20 52.5q0 34 20 53.5t53 19.5q34 0 54 -19.5t20 -53.5q0 -33 -20 -52.5t-54 -19.5zM183 808q-34 0 -54 19.5t-20 52.5q0 34 20 53.5t54 19.5q33 0 53 -19.5t20 -53.5q0 -33 -20 -52.5t-53 -19.5z" />
    <glyph glyph-name="uni04E7" unicode="&#x4e7;" 
d="M300 -9q-106 0 -168 59.5t-62 160.5v128q0 102 62 161t168 59t168 -59t62 -161v-128q0 -101 -62 -160.5t-168 -59.5zM300 100q50 0 77.5 27.5t27.5 79.5v136q0 52 -27.5 79.5t-77.5 27.5t-77.5 -27.5t-27.5 -79.5v-136q0 -52 27.5 -79.5t77.5 -27.5zM417 642
q-33 0 -53 19.5t-20 52.5t20 52.5t53 19.5q34 0 54 -19.5t20 -52.5t-20 -52.5t-54 -19.5zM183 642q-34 0 -54 19.5t-20 52.5t20 52.5t54 19.5q33 0 53 -19.5t20 -52.5t-20 -52.5t-53 -19.5z" />
    <glyph glyph-name="uni04E8" unicode="&#x4e8;" 
d="M300 -10q-107 0 -167.5 59.5t-60.5 159.5v313q0 100 60.5 159t167.5 59t167.5 -59t60.5 -159v-313q0 -99 -61 -159t-167 -60zM191 426h218v92q0 53 -27.5 83t-81.5 30t-81.5 -30t-27.5 -83v-92zM300 99q54 0 81.5 30.5t27.5 82.5v108h-218v-108q0 -52 27.5 -82.5
t81.5 -30.5z" />
    <glyph glyph-name="uni04E9" unicode="&#x4e9;" 
d="M300 -10q-69 0 -120 26.5t-79.5 75t-28.5 114.5v139q0 65 28.5 113.5t79.5 75t120 26.5t120 -27t79.5 -75t28.5 -113v-139q0 -65 -28.5 -114t-79.5 -75.5t-120 -26.5zM188 321h224v24q0 53 -29 81.5t-83 28.5t-83 -28.5t-29 -81.5v-24zM300 95q54 0 83 29t29 82v28h-224
v-28q0 -53 29 -82t83 -29z" />
    <glyph glyph-name="uni04F4" unicode="&#x4f4;" 
d="M395 0v259h-123q-100 0 -156 50.5t-56 140.5v280h125v-274q0 -40 27.5 -62.5t74.5 -22.5h108v359h125v-730h-125zM417 808q-33 0 -53 19.5t-20 52.5q0 34 20 53.5t53 19.5q34 0 54 -19.5t20 -53.5q0 -33 -20 -52.5t-54 -19.5zM183 808q-34 0 -54 19.5t-20 52.5
q0 34 20 53.5t54 19.5q33 0 53 -19.5t20 -53.5q0 -33 -20 -52.5t-53 -19.5z" />
    <glyph glyph-name="uni04F5" unicode="&#x4f5;" 
d="M392 0v177h-137q-91 0 -142 48.5t-51 134.5v190h125v-184q0 -36 23 -56t64 -20h118v260h126v-550h-126zM417 642q-33 0 -53 19.5t-20 52.5t20 52.5t53 19.5q34 0 54 -19.5t20 -52.5t-20 -52.5t-54 -19.5zM183 642q-34 0 -54 19.5t-20 52.5t20 52.5t54 19.5q33 0 53 -19.5
t20 -52.5t-20 -52.5t-53 -19.5z" />
    <glyph glyph-name="uni0AEA" unicode="&#xaea;" 
d="M300 -10q-70 0 -122 24.5t-81 67.5t-29 98q0 44 18.5 83.5t52.5 79.5l92 108l-167 199h142l96 -115l96 115h138l-166 -197l96 -114q32 -38 49 -77.5t17 -81.5q0 -55 -29 -98t-81 -67.5t-122 -24.5zM193 198q0 -42 29.5 -70.5t77.5 -28.5t77.5 28.5t29.5 70.5q0 44 -37 87
l-70 84l-71 -85q-36 -42 -36 -86z" />
    <glyph glyph-name="Wgrave" unicode="&#x1e80;" 
d="M90 0l-76 730h104l46 -510q2 -26 4.5 -66.5t2.5 -68.5q3 28 6.5 68.5t6.5 66.5l64 510h107l60 -510q3 -26 7.5 -66.5t7.5 -68.5q1 28 3.5 68.5t4.5 66.5l45 510h103l-80 -730h-138l-56 512q-3 29 -6 70.5t-5 68.5q-2 -27 -5 -68.5t-6 -70.5l-61 -512h-139zM249 810
l-116 140h138l107 -140h-129z" />
    <glyph glyph-name="wgrave" unicode="&#x1e81;" 
d="M102 0l-86 550h99l49 -337q4 -31 7 -67l5 -60q1 24 4 60t9 67l60 337h104l58 -337q6 -31 9.5 -67.5t5.5 -60.5q2 24 4.5 60.5t7.5 67.5l50 337h96l-88 -550h-129l-52 339q-5 28 -9 64.5t-6 59.5q-1 -23 -6 -59.5t-9 -64.5l-54 -339h-129zM249 645l-116 140h138l107 -140
h-129z" />
    <glyph glyph-name="Wacute" unicode="&#x1e82;" 
d="M90 0l-76 730h104l46 -510q2 -26 4.5 -66.5t2.5 -68.5q3 28 6.5 68.5t6.5 66.5l64 510h107l60 -510q3 -26 7.5 -66.5t7.5 -68.5q1 28 3.5 68.5t4.5 66.5l45 510h103l-80 -730h-138l-56 512q-3 29 -6 70.5t-5 68.5q-2 -27 -5 -68.5t-6 -70.5l-61 -512h-139zM224 810
l106 140h134l-114 -140h-126z" />
    <glyph glyph-name="wacute" unicode="&#x1e83;" 
d="M102 0l-86 550h99l49 -337q4 -31 7 -67l5 -60q1 24 4 60t9 67l60 337h104l58 -337q6 -31 9.5 -67.5t5.5 -60.5q2 24 4.5 60.5t7.5 67.5l50 337h96l-88 -550h-129l-52 339q-5 28 -9 64.5t-6 59.5q-1 -23 -6 -59.5t-9 -64.5l-54 -339h-129zM224 645l106 140h134l-114 -140
h-126z" />
    <glyph glyph-name="Wdieresis" unicode="&#x1e84;" 
d="M90 0l-76 730h104l46 -510q2 -26 4.5 -66.5t2.5 -68.5q3 28 6.5 68.5t6.5 66.5l64 510h107l60 -510q3 -26 7.5 -66.5t7.5 -68.5q1 28 3.5 68.5t4.5 66.5l45 510h103l-80 -730h-138l-56 512q-3 29 -6 70.5t-5 68.5q-2 -27 -5 -68.5t-6 -70.5l-61 -512h-139zM417 808
q-33 0 -53 19.5t-20 52.5q0 34 20 53.5t53 19.5q34 0 54 -19.5t20 -53.5q0 -33 -20 -52.5t-54 -19.5zM183 808q-34 0 -54 19.5t-20 52.5q0 34 20 53.5t54 19.5q33 0 53 -19.5t20 -53.5q0 -33 -20 -52.5t-53 -19.5z" />
    <glyph glyph-name="wdieresis" unicode="&#x1e85;" 
d="M102 0l-86 550h99l49 -337q4 -31 7 -67l5 -60q1 24 4 60t9 67l60 337h104l58 -337q6 -31 9.5 -67.5t5.5 -60.5q2 24 4.5 60.5t7.5 67.5l50 337h96l-88 -550h-129l-52 339q-5 28 -9 64.5t-6 59.5q-1 -23 -6 -59.5t-9 -64.5l-54 -339h-129zM417 642q-33 0 -53 19.5
t-20 52.5t20 52.5t53 19.5q34 0 54 -19.5t20 -52.5t-20 -52.5t-54 -19.5zM183 642q-34 0 -54 19.5t-20 52.5t20 52.5t54 19.5q33 0 53 -19.5t20 -52.5t-20 -52.5t-53 -19.5z" />
    <glyph glyph-name="uni1E9E" unicode="&#x1e9e;" 
d="M73 0v516q0 65 28 113t79 74.5t118 26.5h241v-119l-159 -189q79 -10 125 -65.5t46 -141.5q0 -65 -29 -113.5t-81.5 -75t-123.5 -26.5h-58v107h51q53 0 83 31.5t30 83.5q0 51 -30.5 82t-82.5 31h-46v97l157 191h-123q-50 0 -79 -29t-29 -78v-516h-117z" />
    <glyph glyph-name="uni1EA0" unicode="&#x1ea0;" 
d="M35 0l184 730h161l185 -730h-128l-40 177h-194l-40 -177h-128zM226 279h148l-44 196q-11 49 -19 88.5t-11 57.5q-3 -18 -11 -57.5t-19 -87.5zM300 -225q-38 0 -60 19.5t-22 52.5q0 34 22 53.5t60 19.5t60 -19.5t22 -53.5q0 -33 -22 -52.5t-60 -19.5z" />
    <glyph glyph-name="uni1EA1" unicode="&#x1ea1;" 
d="M239 -10q-84 0 -132.5 47.5t-48.5 124.5q0 80 55 127.5t151 47.5h134v39q0 83 -97 83q-44 0 -70 -17t-29 -48h-120q4 74 62.5 120t157.5 46q105 0 163 -49t58 -138v-373h-122v103q-7 -53 -50 -83t-112 -30zM279 92q55 0 87 27t32 72v65h-128q-41 0 -65 -23t-24 -59
q0 -37 25.5 -59.5t72.5 -22.5zM305 -225q-38 0 -60 19.5t-22 52.5q0 34 22 53.5t60 19.5t60 -19.5t22 -53.5q0 -33 -22 -52.5t-60 -19.5z" />
    <glyph glyph-name="uni1EA2" unicode="&#x1ea2;" 
d="M35 0l184 730h161l185 -730h-128l-40 177h-194l-40 -177h-128zM226 279h148l-44 196q-11 49 -19 88.5t-11 57.5q-3 -18 -11 -57.5t-19 -87.5zM249 798l48 60q14 18 14 30q0 18 -29 18h-78v77h95q47 0 76 -22.5t29 -59.5q0 -31 -20 -57l-35 -46h-100z" />
    <glyph glyph-name="uni1EA3" unicode="&#x1ea3;" 
d="M239 -10q-84 0 -132.5 47.5t-48.5 124.5q0 80 55 127.5t151 47.5h134v39q0 83 -97 83q-44 0 -70 -17t-29 -48h-120q4 74 62.5 120t157.5 46q105 0 163 -49t58 -138v-373h-122v103q-7 -53 -50 -83t-112 -30zM279 92q55 0 87 27t32 72v65h-128q-41 0 -65 -23t-24 -59
q0 -37 25.5 -59.5t72.5 -22.5zM254 645l50 60q14 18 14 30q0 19 -29 19h-80v76h105q44 0 70.5 -22t26.5 -59q0 -33 -20 -58l-37 -46h-100z" />
    <glyph glyph-name="uni1EA4" unicode="&#x1ea4;" 
d="M35 0l184 730h161l185 -730h-128l-40 177h-194l-40 -177h-128zM226 279h148l-44 196q-11 49 -19 88.5t-11 57.5q-3 -18 -11 -57.5t-19 -87.5zM415 903l105 117h127l-113 -117h-119zM105 780l137 140h116l137 -140h-121l-74 73l-74 -73h-121z" />
    <glyph glyph-name="uni1EA5" unicode="&#x1ea5;" 
d="M239 -10q-84 0 -132.5 47.5t-48.5 124.5q0 80 55 127.5t151 47.5h134v39q0 83 -97 83q-44 0 -70 -17t-29 -48h-120q4 74 62.5 120t157.5 46q105 0 163 -49t58 -138v-373h-122v103q-7 -53 -50 -83t-112 -30zM279 92q55 0 87 27t32 72v65h-128q-41 0 -65 -23t-24 -59
q0 -37 25.5 -59.5t72.5 -22.5zM421 760l118 140h126l-126 -140h-118zM110 645l137 140h116l137 -140h-121l-74 73l-74 -73h-121z" />
    <glyph glyph-name="uni1EA6" unicode="&#x1ea6;" 
d="M35 0l184 730h161l185 -730h-128l-40 177h-194l-40 -177h-128zM226 279h148l-44 196q-11 49 -19 88.5t-11 57.5q-3 -18 -11 -57.5t-19 -87.5zM451 903l-117 117h126l109 -117h-118zM105 780l137 140h116l137 -140h-121l-74 73l-74 -73h-121z" />
    <glyph glyph-name="uni1EA7" unicode="&#x1ea7;" 
d="M239 -10q-84 0 -132.5 47.5t-48.5 124.5q0 80 55 127.5t151 47.5h134v39q0 83 -97 83q-44 0 -70 -17t-29 -48h-120q4 74 62.5 120t157.5 46q105 0 163 -49t58 -138v-373h-122v103q-7 -53 -50 -83t-112 -30zM279 92q55 0 87 27t32 72v65h-128q-41 0 -65 -23t-24 -59
q0 -37 25.5 -59.5t72.5 -22.5zM470 760l-130 140h126l122 -140h-118zM110 645l137 140h116l137 -140h-121l-74 73l-74 -73h-121z" />
    <glyph glyph-name="uni1EA8" unicode="&#x1ea8;" 
d="M35 0l184 730h161l185 -730h-128l-40 177h-194l-40 -177h-128zM226 279h148l-44 196q-11 49 -19 88.5t-11 57.5q-3 -18 -11 -57.5t-19 -87.5zM431 874l39 40q11 10 11 21q0 16 -21 16h-68v69h91q41 0 66 -19.5t25 -54.5q0 -30 -21 -48l-26 -24h-96zM105 780l137 140h116
l137 -140h-121l-74 73l-74 -73h-121z" />
    <glyph glyph-name="uni1EA9" unicode="&#x1ea9;" 
d="M239 -10q-84 0 -132.5 47.5t-48.5 124.5q0 80 55 127.5t151 47.5h134v39q0 83 -97 83q-44 0 -70 -17t-29 -48h-120q4 74 62.5 120t157.5 46q105 0 163 -49t58 -138v-373h-122v103q-7 -53 -50 -83t-112 -30zM279 92q55 0 87 27t32 72v65h-128q-41 0 -65 -23t-24 -59
q0 -37 25.5 -59.5t72.5 -22.5zM428 760l47 59q13 16 13 27q0 20 -29 20h-68v75h84q47 0 75 -22t28 -59q0 -29 -20 -55l-35 -45h-95zM110 645l137 140h116l137 -140h-121l-74 73l-74 -73h-121z" />
    <glyph glyph-name="uni1EAA" unicode="&#x1eaa;" 
d="M35 0l184 730h161l185 -730h-128l-40 177h-194l-40 -177h-128zM226 279h148l-44 196q-11 49 -19 88.5t-11 57.5q-3 -18 -11 -57.5t-19 -87.5zM379 914q-40 0 -65 10t-44 20t-40 10q-27 0 -27 -27v-6h-77v6q0 43 26 68t70 25q40 0 64.5 -10t43.5 -20t40 -10q27 0 27 27v6
h77v-6q0 -43 -26 -68t-69 -25zM105 780l104 106h182l104 -106h-122l-73 74l-74 -74h-121z" />
    <glyph glyph-name="uni1EAB" unicode="&#x1eab;" 
d="M239 -10q-84 0 -132.5 47.5t-48.5 124.5q0 80 55 127.5t151 47.5h134v39q0 83 -97 83q-44 0 -70 -17t-29 -48h-120q4 74 62.5 120t157.5 46q105 0 163 -49t58 -138v-373h-122v103q-7 -53 -50 -83t-112 -30zM279 92q55 0 87 27t32 72v65h-128q-41 0 -65 -23t-24 -59
q0 -37 25.5 -59.5t72.5 -22.5zM373 820q-31 0 -50.5 9.5t-32 21.5t-23.5 21t-27 9q-30 0 -30 -32v-23h-77v23q0 47 28.5 75.5t75.5 28.5q32 0 51 -9.5t31.5 -21.5t23.5 -21t27 -9q30 0 30 29v25h77v-22q0 -47 -28.5 -75.5t-75.5 -28.5zM110 645l137 140h116l137 -140h-121
l-74 73l-74 -73h-121z" />
    <glyph glyph-name="uni1EAC" unicode="&#x1eac;" 
d="M105 810l137 140h116l137 -140h-120l-76 73l-73 -73h-121zM35 0l184 730h161l185 -730h-128l-40 177h-194l-40 -177h-128zM226 279h148l-44 196q-11 49 -19 88.5t-11 57.5q-3 -18 -11 -57.5t-19 -87.5zM300 -225q-38 0 -60 19.5t-22 52.5q0 34 22 53.5t60 19.5t60 -19.5
t22 -53.5q0 -33 -22 -52.5t-60 -19.5z" />
    <glyph glyph-name="uni1EAD" unicode="&#x1ead;" 
d="M239 -10q-84 0 -132.5 47.5t-48.5 124.5q0 80 55 127.5t151 47.5h134v39q0 83 -97 83q-44 0 -70 -17t-29 -48h-120q4 74 62.5 120t157.5 46q105 0 163 -49t58 -138v-373h-122v103q-7 -53 -50 -83t-112 -30zM279 92q55 0 87 27t32 72v65h-128q-41 0 -65 -23t-24 -59
q0 -37 25.5 -59.5t72.5 -22.5zM305 -225q-38 0 -60 19.5t-22 52.5q0 34 22 53.5t60 19.5t60 -19.5t22 -53.5q0 -33 -22 -52.5t-60 -19.5zM110 645l137 140h116l137 -140h-120l-76 73l-73 -73h-121z" />
    <glyph glyph-name="uni1EAE" unicode="&#x1eae;" 
d="M233 903l104 117h116l-112 -117h-108zM269 780q-72 0 -113.5 36t-41.5 97h85q0 -28 18 -44.5t52 -16.5h61q33 0 52 16.5t19 44.5h84q0 -61 -41.5 -97t-113.5 -36h-61zM35 0l184 730h161l185 -730h-128l-40 177h-194l-40 -177h-128zM226 279h148l-44 196q-11 49 -19 88.5
t-11 57.5q-3 -18 -11 -57.5t-19 -87.5z" />
    <glyph glyph-name="uni1EAF" unicode="&#x1eaf;" 
d="M239 -10q-84 0 -132.5 47.5t-48.5 124.5q0 80 55 127.5t151 47.5h134v39q0 83 -97 83q-44 0 -70 -17t-29 -48h-120q4 74 62.5 120t157.5 46q105 0 163 -49t58 -138v-373h-122v103q-7 -53 -50 -83t-112 -30zM279 92q55 0 87 27t32 72v65h-128q-41 0 -65 -23t-24 -59
q0 -37 25.5 -59.5t72.5 -22.5zM241 778l115 135h116l-123 -135h-108zM305 640q-79 0 -129 37.5t-50 98.5h94q0 -27 22.5 -42.5t61.5 -15.5q41 0 63.5 15.5t22.5 42.5h94q0 -61 -50 -98.5t-129 -37.5z" />
    <glyph glyph-name="uni1EB0" unicode="&#x1eb0;" 
d="M35 0l184 730h161l185 -730h-128l-40 177h-194l-40 -177h-128zM226 279h148l-44 196q-11 49 -19 88.5t-11 57.5q-3 -18 -11 -57.5t-19 -87.5zM263 903l-97 117h110l89 -117h-102zM269 780q-72 0 -113.5 36t-41.5 97h85q0 -28 18 -44.5t52 -16.5h61q33 0 52 16.5t19 44.5
h84q0 -61 -41.5 -97t-113.5 -36h-61z" />
    <glyph glyph-name="uni1EB1" unicode="&#x1eb1;" 
d="M239 -10q-84 0 -132.5 47.5t-48.5 124.5q0 80 55 127.5t151 47.5h134v39q0 83 -97 83q-44 0 -70 -17t-29 -48h-120q4 74 62.5 120t157.5 46q105 0 163 -49t58 -138v-373h-122v103q-7 -53 -50 -83t-112 -30zM279 92q55 0 87 27t32 72v65h-128q-41 0 -65 -23t-24 -59
q0 -37 25.5 -59.5t72.5 -22.5zM261 778l-123 135h116l115 -135h-108zM305 640q-79 0 -129 37.5t-50 98.5h94q0 -27 22.5 -42.5t61.5 -15.5q41 0 63.5 15.5t22.5 42.5h94q0 -61 -50 -98.5t-129 -37.5z" />
    <glyph glyph-name="uni1EB2" unicode="&#x1eb2;" 
d="M35 0l184 730h161l185 -730h-128l-40 177h-194l-40 -177h-128zM226 279h148l-44 196q-11 49 -19 88.5t-11 57.5q-3 -18 -11 -57.5t-19 -87.5zM251 886l34 41q8 9 8 17q0 10 -12 10h-71v66h99q35 0 54 -15.5t19 -43.5q0 -15 -6 -28t-14 -24l-18 -23h-93zM269 780
q-72 0 -113.5 36t-41.5 97h85q0 -28 18 -44.5t52 -16.5h61q33 0 52 16.5t19 44.5h84q0 -61 -41.5 -97t-113.5 -36h-61z" />
    <glyph glyph-name="uni1EB3" unicode="&#x1eb3;" 
d="M239 -10q-84 0 -132.5 47.5t-48.5 124.5q0 80 55 127.5t151 47.5h134v39q0 83 -97 83q-44 0 -70 -17t-29 -48h-120q4 74 62.5 120t157.5 46q105 0 163 -49t58 -138v-373h-122v103q-7 -53 -50 -83t-112 -30zM279 92q55 0 87 27t32 72v65h-128q-41 0 -65 -23t-24 -59
q0 -37 25.5 -59.5t72.5 -22.5zM250 778l45 56q13 15 13 27q0 21 -27 21h-66v74h85q45 0 73 -22t28 -57q0 -31 -21 -57l-33 -42h-97zM305 640q-79 0 -129 37.5t-50 98.5h94q0 -27 22.5 -42.5t61.5 -15.5q41 0 63.5 15.5t22.5 42.5h94q0 -61 -50 -98.5t-129 -37.5z" />
    <glyph glyph-name="uni1EB4" unicode="&#x1eb4;" 
d="M35 0l184 730h161l185 -730h-128l-40 177h-194l-40 -177h-128zM226 279h148l-44 196q-11 49 -19 88.5t-11 57.5q-3 -18 -11 -57.5t-19 -87.5zM379 914q-40 0 -65 10t-44 20t-40 10q-27 0 -27 -27v-6h-77v6q0 43 26 68t70 25q40 0 64.5 -10t43.5 -20t40 -10q27 0 27 27v6
h77v-6q0 -43 -26 -68t-69 -25zM264 780q-63 0 -100.5 29.5t-37.5 84.5h85q0 -21 13.5 -31.5t36.5 -10.5h78q23 0 36.5 10.5t13.5 31.5h85q0 -55 -37.5 -84.5t-100.5 -29.5h-72z" />
    <glyph glyph-name="uni1EB5" unicode="&#x1eb5;" 
d="M239 -10q-84 0 -132.5 47.5t-48.5 124.5q0 80 55 127.5t151 47.5h134v39q0 83 -97 83q-44 0 -70 -17t-29 -48h-120q4 74 62.5 120t157.5 46q105 0 163 -49t58 -138v-373h-122v103q-7 -53 -50 -83t-112 -30zM279 92q55 0 87 27t32 72v65h-128q-41 0 -65 -23t-24 -59
q0 -37 25.5 -59.5t72.5 -22.5zM373 808q-31 0 -50.5 10t-32 23.5t-23.5 23.5t-27 10q-30 0 -30 -32v-29h-77v29q0 47 28.5 75.5t75.5 28.5q32 0 51 -10.5t31.5 -23.5t23.5 -23t27 -10q30 0 30 28v32h77v-28q0 -47 -28.5 -75.5t-75.5 -28.5zM305 642q-77 0 -126 37.5
t-49 98.5h92q0 -27 22 -43t60 -16q39 0 61.5 16t22.5 43h92q0 -61 -49 -98.5t-126 -37.5z" />
    <glyph glyph-name="uni1EB6" unicode="&#x1eb6;" 
d="M300 802q-78 0 -126 40.5t-48 107.5h97q0 -33 21 -53t56 -20t56.5 20t21.5 53h97q0 -67 -48 -107.5t-127 -40.5zM35 0l184 730h161l185 -730h-128l-40 177h-194l-40 -177h-128zM226 279h148l-44 196q-11 49 -19 88.5t-11 57.5q-3 -18 -11 -57.5t-19 -87.5zM300 -225
q-38 0 -60 19.5t-22 52.5q0 34 22 53.5t60 19.5t60 -19.5t22 -53.5q0 -33 -22 -52.5t-60 -19.5z" />
    <glyph glyph-name="uni1EB7" unicode="&#x1eb7;" 
d="M239 -10q-84 0 -132.5 47.5t-48.5 124.5q0 80 55 127.5t151 47.5h134v39q0 83 -97 83q-44 0 -70 -17t-29 -48h-120q4 74 62.5 120t157.5 46q105 0 163 -49t58 -138v-373h-122v103q-7 -53 -50 -83t-112 -30zM279 92q55 0 87 27t32 72v65h-128q-41 0 -65 -23t-24 -59
q0 -37 25.5 -59.5t72.5 -22.5zM305 -225q-38 0 -60 19.5t-22 52.5q0 34 22 53.5t60 19.5t60 -19.5t22 -53.5q0 -33 -22 -52.5t-60 -19.5zM305 637q-78 0 -126.5 40.5t-48.5 107.5h97q0 -33 21.5 -53t56.5 -20t56.5 20t21.5 53h97q0 -67 -48 -107.5t-127 -40.5z" />
    <glyph glyph-name="uni1EB8" unicode="&#x1eb8;" 
d="M88 0v730h438v-110h-315v-190h280v-106h-280v-214h315v-110h-438zM307 -225q-38 0 -60 19.5t-22 52.5q0 34 22 53.5t60 19.5t60 -19.5t22 -53.5q0 -33 -22 -52.5t-60 -19.5z" />
    <glyph glyph-name="uni1EB9" unicode="&#x1eb9;" 
d="M301 -10q-70 0 -122 27t-80.5 76.5t-28.5 116.5v130q0 67 28.5 116.5t80.5 76.5t122 27q69 0 120.5 -27t80 -75.5t28.5 -113.5v-100h-340v-38q0 -56 29 -84.5t82 -28.5q39 0 66.5 13.5t32.5 39.5h124q-13 -71 -74 -113.5t-149 -42.5zM190 344v-19l220 1v19q0 57 -28 88
t-81 31q-55 0 -83 -31.5t-28 -88.5zM300 -225q-38 0 -60 19.5t-22 52.5q0 34 22 53.5t60 19.5t60 -19.5t22 -53.5q0 -33 -22 -52.5t-60 -19.5z" />
    <glyph glyph-name="uni1EBA" unicode="&#x1eba;" 
d="M88 0v730h438v-110h-315v-190h280v-106h-280v-214h315v-110h-438zM256 798l48 60q14 18 14 30q0 18 -29 18h-78v77h95q47 0 76 -22.5t29 -59.5q0 -31 -20 -57l-35 -46h-100z" />
    <glyph glyph-name="uni1EBB" unicode="&#x1ebb;" 
d="M301 -10q-70 0 -122 27t-80.5 76.5t-28.5 116.5v130q0 67 28.5 116.5t80.5 76.5t122 27q69 0 120.5 -27t80 -75.5t28.5 -113.5v-100h-340v-38q0 -56 29 -84.5t82 -28.5q39 0 66.5 13.5t32.5 39.5h124q-13 -71 -74 -113.5t-149 -42.5zM190 344v-19l220 1v19q0 57 -28 88
t-81 31q-55 0 -83 -31.5t-28 -88.5zM249 645l50 60q14 18 14 30q0 19 -29 19h-80v76h105q44 0 70.5 -22t26.5 -59q0 -33 -20 -58l-37 -46h-100z" />
    <glyph glyph-name="uni1EBC" unicode="&#x1ebc;" 
d="M88 0v730h438v-110h-315v-190h280v-106h-280v-214h315v-110h-438zM377 806q-31 0 -50.5 10t-32.5 22.5t-24.5 22t-27.5 9.5q-30 0 -30 -33v-26h-77v33q0 49 28 79.5t74 30.5q31 0 50.5 -10t32.5 -22.5t24.5 -22t27.5 -9.5q30 0 30 31v28h77v-33q0 -49 -28 -79.5
t-74 -30.5z" />
    <glyph glyph-name="uni1EBD" unicode="&#x1ebd;" 
d="M301 -10q-70 0 -122 27t-80.5 76.5t-28.5 116.5v130q0 67 28.5 116.5t80.5 76.5t122 27q69 0 120.5 -27t80 -75.5t28.5 -113.5v-100h-340v-38q0 -56 29 -84.5t82 -28.5q39 0 66.5 13.5t32.5 39.5h124q-13 -71 -74 -113.5t-149 -42.5zM190 344v-19l220 1v19q0 57 -28 88
t-81 31q-55 0 -83 -31.5t-28 -88.5zM370 641q-31 0 -50.5 10t-32.5 22.5t-24.5 22t-27.5 9.5q-30 0 -30 -33v-26h-77v33q0 49 28 79.5t74 30.5q31 0 50.5 -10t32.5 -22.5t24.5 -22t27.5 -9.5q30 0 30 31v28h77v-33q0 -49 -28 -79.5t-74 -30.5z" />
    <glyph glyph-name="uni1EBE" unicode="&#x1ebe;" 
d="M88 0v730h438v-110h-315v-190h280v-106h-280v-214h315v-110h-438zM422 903l105 117h127l-113 -117h-119zM112 780l137 140h116l137 -140h-121l-74 73l-74 -73h-121z" />
    <glyph glyph-name="uni1EBF" unicode="&#x1ebf;" 
d="M301 -10q-70 0 -122 27t-80.5 76.5t-28.5 116.5v130q0 67 28.5 116.5t80.5 76.5t122 27q69 0 120.5 -27t80 -75.5t28.5 -113.5v-100h-340v-38q0 -56 29 -84.5t82 -28.5q39 0 66.5 13.5t32.5 39.5h124q-13 -71 -74 -113.5t-149 -42.5zM190 344v-19l220 1v19q0 57 -28 88
t-81 31q-55 0 -83 -31.5t-28 -88.5zM416 760l118 140h126l-126 -140h-118zM105 645l137 140h116l137 -140h-121l-74 73l-74 -73h-121z" />
    <glyph glyph-name="uni1EC0" unicode="&#x1ec0;" 
d="M88 0v730h438v-110h-315v-190h280v-106h-280v-214h315v-110h-438zM458 903l-117 117h126l109 -117h-118zM112 780l137 140h116l137 -140h-121l-74 73l-74 -73h-121z" />
    <glyph glyph-name="uni1EC1" unicode="&#x1ec1;" 
d="M301 -10q-70 0 -122 27t-80.5 76.5t-28.5 116.5v130q0 67 28.5 116.5t80.5 76.5t122 27q69 0 120.5 -27t80 -75.5t28.5 -113.5v-100h-340v-38q0 -56 29 -84.5t82 -28.5q39 0 66.5 13.5t32.5 39.5h124q-13 -71 -74 -113.5t-149 -42.5zM190 344v-19l220 1v19q0 57 -28 88
t-81 31q-55 0 -83 -31.5t-28 -88.5zM465 760l-130 140h126l122 -140h-118zM105 645l137 140h116l137 -140h-121l-74 73l-74 -73h-121z" />
    <glyph glyph-name="uni1EC2" unicode="&#x1ec2;" 
d="M88 0v730h438v-110h-315v-190h280v-106h-280v-214h315v-110h-438zM438 874l39 40q11 10 11 21q0 16 -21 16h-68v69h91q41 0 66 -19.5t25 -54.5q0 -30 -21 -48l-26 -24h-96zM112 780l137 140h116l137 -140h-121l-74 73l-74 -73h-121z" />
    <glyph glyph-name="uni1EC3" unicode="&#x1ec3;" 
d="M301 -10q-70 0 -122 27t-80.5 76.5t-28.5 116.5v130q0 67 28.5 116.5t80.5 76.5t122 27q69 0 120.5 -27t80 -75.5t28.5 -113.5v-100h-340v-38q0 -56 29 -84.5t82 -28.5q39 0 66.5 13.5t32.5 39.5h124q-13 -71 -74 -113.5t-149 -42.5zM190 344v-19l220 1v19q0 57 -28 88
t-81 31q-55 0 -83 -31.5t-28 -88.5zM423 760l47 59q13 16 13 27q0 20 -29 20h-68v75h84q47 0 75 -22t28 -59q0 -29 -20 -55l-35 -45h-95zM105 645l137 140h116l137 -140h-121l-74 73l-74 -73h-121z" />
    <glyph glyph-name="uni1EC4" unicode="&#x1ec4;" 
d="M88 0v730h438v-110h-315v-190h280v-106h-280v-214h315v-110h-438zM386 914q-40 0 -65 10t-44 20t-40 10q-27 0 -27 -27v-6h-77v6q0 43 26 68t70 25q40 0 64.5 -10t43.5 -20t40 -10q27 0 27 27v6h77v-6q0 -43 -26 -68t-69 -25zM112 780l104 106h182l104 -106h-122l-73 74
l-74 -74h-121z" />
    <glyph glyph-name="uni1EC5" unicode="&#x1ec5;" 
d="M301 -10q-70 0 -122 27t-80.5 76.5t-28.5 116.5v130q0 67 28.5 116.5t80.5 76.5t122 27q69 0 120.5 -27t80 -75.5t28.5 -113.5v-100h-340v-38q0 -56 29 -84.5t82 -28.5q39 0 66.5 13.5t32.5 39.5h124q-13 -71 -74 -113.5t-149 -42.5zM190 344v-19l220 1v19q0 57 -28 88
t-81 31q-55 0 -83 -31.5t-28 -88.5zM368 820q-31 0 -50.5 9.5t-32 21.5t-23.5 21t-27 9q-30 0 -30 -32v-23h-77v23q0 47 28.5 75.5t75.5 28.5q32 0 51 -9.5t31.5 -21.5t23.5 -21t27 -9q30 0 30 29v25h77v-22q0 -47 -28.5 -75.5t-75.5 -28.5zM105 645l137 140h116l137 -140
h-121l-74 73l-74 -73h-121z" />
    <glyph glyph-name="uni1EC6" unicode="&#x1ec6;" 
d="M88 0v730h438v-110h-315v-190h280v-106h-280v-214h315v-110h-438zM307 -225q-38 0 -60 19.5t-22 52.5q0 34 22 53.5t60 19.5t60 -19.5t22 -53.5q0 -33 -22 -52.5t-60 -19.5zM112 810l137 140h116l137 -140h-120l-76 73l-73 -73h-121z" />
    <glyph glyph-name="uni1EC7" unicode="&#x1ec7;" 
d="M301 -10q-70 0 -122 27t-80.5 76.5t-28.5 116.5v130q0 67 28.5 116.5t80.5 76.5t122 27q69 0 120.5 -27t80 -75.5t28.5 -113.5v-100h-340v-38q0 -56 29 -84.5t82 -28.5q39 0 66.5 13.5t32.5 39.5h124q-13 -71 -74 -113.5t-149 -42.5zM190 344v-19l220 1v19q0 57 -28 88
t-81 31q-55 0 -83 -31.5t-28 -88.5zM300 -225q-38 0 -60 19.5t-22 52.5q0 34 22 53.5t60 19.5t60 -19.5t22 -53.5q0 -33 -22 -52.5t-60 -19.5zM105 645l137 140h116l137 -140h-120l-76 73l-73 -73h-121z" />
    <glyph glyph-name="uni1EC8" unicode="&#x1ec8;" 
d="M90 0v113h147v504h-147v113h420v-113h-147v-504h147v-113h-420zM249 798l48 60q14 18 14 30q0 18 -29 18h-78v77h95q47 0 76 -22.5t29 -59.5q0 -31 -20 -57l-35 -46h-100z" />
    <glyph glyph-name="uni1EC9" unicode="&#x1ec9;" 
d="M76 0v113h188v324h-168v113h293v-437h169v-113h-482zM267 645l50 60q14 18 14 30q0 19 -29 19h-80v76h105q44 0 70.5 -22t26.5 -59q0 -33 -20 -58l-37 -46h-100z" />
    <glyph glyph-name="uni1ECA" unicode="&#x1eca;" 
d="M90 0v113h147v504h-147v113h420v-113h-147v-504h147v-113h-420zM300 -225q-38 0 -60 19.5t-22 52.5q0 34 22 53.5t60 19.5t60 -19.5t22 -53.5q0 -33 -22 -52.5t-60 -19.5z" />
    <glyph glyph-name="uni1ECB" unicode="&#x1ecb;" 
d="M76 0v113h188v324h-168v113h293v-437h169v-113h-482zM318 642q-38 0 -60 19.5t-22 52.5t22 52.5t60 19.5t60 -19.5t22 -52.5t-22 -52.5t-60 -19.5zM318 -225q-38 0 -60 19.5t-22 52.5q0 34 22 53.5t60 19.5t60 -19.5t22 -53.5q0 -33 -22 -52.5t-60 -19.5z" />
    <glyph glyph-name="uni1ECC" unicode="&#x1ecc;" 
d="M300 -10q-105 0 -166.5 60t-61.5 166v298q0 106 61.5 166t166.5 60t166.5 -60t61.5 -165v-299q0 -106 -61.5 -166t-166.5 -60zM300 100q51 0 77 27.5t26 78.5v318q0 51 -26 78.5t-77 27.5t-77 -27.5t-26 -78.5v-318q0 -51 26 -78.5t77 -27.5zM300 -225q-38 0 -60 19.5
t-22 52.5q0 34 22 53.5t60 19.5t60 -19.5t22 -53.5q0 -33 -22 -52.5t-60 -19.5z" />
    <glyph glyph-name="uni1ECD" unicode="&#x1ecd;" 
d="M300 -9q-106 0 -168 59.5t-62 160.5v128q0 102 62 161t168 59t168 -59t62 -161v-128q0 -101 -62 -160.5t-168 -59.5zM300 100q50 0 77.5 27.5t27.5 79.5v136q0 52 -27.5 79.5t-77.5 27.5t-77.5 -27.5t-27.5 -79.5v-136q0 -52 27.5 -79.5t77.5 -27.5zM300 -225
q-38 0 -60 19.5t-22 52.5q0 34 22 53.5t60 19.5t60 -19.5t22 -53.5q0 -33 -22 -52.5t-60 -19.5z" />
    <glyph glyph-name="uni1ECE" unicode="&#x1ece;" 
d="M300 -10q-105 0 -166.5 60t-61.5 166v298q0 106 61.5 166t166.5 60t166.5 -60t61.5 -165v-299q0 -106 -61.5 -166t-166.5 -60zM300 100q51 0 77 27.5t26 78.5v318q0 51 -26 78.5t-77 27.5t-77 -27.5t-26 -78.5v-318q0 -51 26 -78.5t77 -27.5zM249 798l48 60q14 18 14 30
q0 18 -29 18h-78v77h95q47 0 76 -22.5t29 -59.5q0 -31 -20 -57l-35 -46h-100z" />
    <glyph glyph-name="uni1ECF" unicode="&#x1ecf;" 
d="M300 -9q-106 0 -168 59.5t-62 160.5v128q0 102 62 161t168 59t168 -59t62 -161v-128q0 -101 -62 -160.5t-168 -59.5zM300 100q50 0 77.5 27.5t27.5 79.5v136q0 52 -27.5 79.5t-77.5 27.5t-77.5 -27.5t-27.5 -79.5v-136q0 -52 27.5 -79.5t77.5 -27.5zM249 645l50 60
q14 18 14 30q0 19 -29 19h-80v76h105q44 0 70.5 -22t26.5 -59q0 -33 -20 -58l-37 -46h-100z" />
    <glyph glyph-name="uni1ED0" unicode="&#x1ed0;" 
d="M300 -10q-105 0 -166.5 60t-61.5 166v298q0 106 61.5 166t166.5 60t166.5 -60t61.5 -165v-299q0 -106 -61.5 -166t-166.5 -60zM300 100q51 0 77 27.5t26 78.5v318q0 51 -26 78.5t-77 27.5t-77 -27.5t-26 -78.5v-318q0 -51 26 -78.5t77 -27.5zM415 903l105 117h127
l-113 -117h-119zM105 780l137 140h116l137 -140h-121l-74 73l-74 -73h-121z" />
    <glyph glyph-name="uni1ED1" unicode="&#x1ed1;" 
d="M300 -9q-106 0 -168 59.5t-62 160.5v128q0 102 62 161t168 59t168 -59t62 -161v-128q0 -101 -62 -160.5t-168 -59.5zM300 100q50 0 77.5 27.5t27.5 79.5v136q0 52 -27.5 79.5t-77.5 27.5t-77.5 -27.5t-27.5 -79.5v-136q0 -52 27.5 -79.5t77.5 -27.5zM416 760l118 140h126
l-126 -140h-118zM105 645l137 140h116l137 -140h-121l-74 73l-74 -73h-121z" />
    <glyph glyph-name="uni1ED2" unicode="&#x1ed2;" 
d="M300 -10q-105 0 -166.5 60t-61.5 166v298q0 106 61.5 166t166.5 60t166.5 -60t61.5 -165v-299q0 -106 -61.5 -166t-166.5 -60zM300 100q51 0 77 27.5t26 78.5v318q0 51 -26 78.5t-77 27.5t-77 -27.5t-26 -78.5v-318q0 -51 26 -78.5t77 -27.5zM451 903l-117 117h126
l109 -117h-118zM105 780l137 140h116l137 -140h-121l-74 73l-74 -73h-121z" />
    <glyph glyph-name="uni1ED3" unicode="&#x1ed3;" 
d="M300 -9q-106 0 -168 59.5t-62 160.5v128q0 102 62 161t168 59t168 -59t62 -161v-128q0 -101 -62 -160.5t-168 -59.5zM300 100q50 0 77.5 27.5t27.5 79.5v136q0 52 -27.5 79.5t-77.5 27.5t-77.5 -27.5t-27.5 -79.5v-136q0 -52 27.5 -79.5t77.5 -27.5zM465 760l-130 140
h126l122 -140h-118zM105 645l137 140h116l137 -140h-121l-74 73l-74 -73h-121z" />
    <glyph glyph-name="uni1ED4" unicode="&#x1ed4;" 
d="M300 -10q-105 0 -166.5 60t-61.5 166v298q0 106 61.5 166t166.5 60t166.5 -60t61.5 -165v-299q0 -106 -61.5 -166t-166.5 -60zM300 100q51 0 77 27.5t26 78.5v318q0 51 -26 78.5t-77 27.5t-77 -27.5t-26 -78.5v-318q0 -51 26 -78.5t77 -27.5zM431 874l39 40q11 10 11 21
q0 16 -21 16h-68v69h91q41 0 66 -19.5t25 -54.5q0 -30 -21 -48l-26 -24h-96zM105 780l137 140h116l137 -140h-121l-74 73l-74 -73h-121z" />
    <glyph glyph-name="uni1ED5" unicode="&#x1ed5;" 
d="M300 -9q-106 0 -168 59.5t-62 160.5v128q0 102 62 161t168 59t168 -59t62 -161v-128q0 -101 -62 -160.5t-168 -59.5zM300 100q50 0 77.5 27.5t27.5 79.5v136q0 52 -27.5 79.5t-77.5 27.5t-77.5 -27.5t-27.5 -79.5v-136q0 -52 27.5 -79.5t77.5 -27.5zM423 760l47 59
q13 16 13 27q0 20 -29 20h-68v75h84q47 0 75 -22t28 -59q0 -29 -20 -55l-35 -45h-95zM105 645l137 140h116l137 -140h-121l-74 73l-74 -73h-121z" />
    <glyph glyph-name="uni1ED6" unicode="&#x1ed6;" 
d="M300 -10q-105 0 -166.5 60t-61.5 166v298q0 106 61.5 166t166.5 60t166.5 -60t61.5 -165v-299q0 -106 -61.5 -166t-166.5 -60zM300 100q51 0 77 27.5t26 78.5v318q0 51 -26 78.5t-77 27.5t-77 -27.5t-26 -78.5v-318q0 -51 26 -78.5t77 -27.5zM379 914q-40 0 -65 10
t-44 20t-40 10q-27 0 -27 -27v-6h-77v6q0 43 26 68t70 25q40 0 64.5 -10t43.5 -20t40 -10q27 0 27 27v6h77v-6q0 -43 -26 -68t-69 -25zM105 780l104 106h182l104 -106h-122l-73 74l-74 -74h-121z" />
    <glyph glyph-name="uni1ED7" unicode="&#x1ed7;" 
d="M300 -9q-106 0 -168 59.5t-62 160.5v128q0 102 62 161t168 59t168 -59t62 -161v-128q0 -101 -62 -160.5t-168 -59.5zM300 100q50 0 77.5 27.5t27.5 79.5v136q0 52 -27.5 79.5t-77.5 27.5t-77.5 -27.5t-27.5 -79.5v-136q0 -52 27.5 -79.5t77.5 -27.5zM368 820
q-31 0 -50.5 9.5t-32 21.5t-23.5 21t-27 9q-30 0 -30 -32v-23h-77v23q0 47 28.5 75.5t75.5 28.5q32 0 51 -9.5t31.5 -21.5t23.5 -21t27 -9q30 0 30 29v25h77v-22q0 -47 -28.5 -75.5t-75.5 -28.5zM105 645l137 140h116l137 -140h-121l-74 73l-74 -73h-121z" />
    <glyph glyph-name="uni1ED8" unicode="&#x1ed8;" 
d="M300 -10q-105 0 -166.5 60t-61.5 166v298q0 106 61.5 166t166.5 60t166.5 -60t61.5 -165v-299q0 -106 -61.5 -166t-166.5 -60zM300 100q51 0 77 27.5t26 78.5v318q0 51 -26 78.5t-77 27.5t-77 -27.5t-26 -78.5v-318q0 -51 26 -78.5t77 -27.5zM300 -225q-38 0 -60 19.5
t-22 52.5q0 34 22 53.5t60 19.5t60 -19.5t22 -53.5q0 -33 -22 -52.5t-60 -19.5zM105 810l137 140h116l137 -140h-120l-76 73l-73 -73h-121z" />
    <glyph glyph-name="uni1ED9" unicode="&#x1ed9;" 
d="M300 -9q-106 0 -168 59.5t-62 160.5v128q0 102 62 161t168 59t168 -59t62 -161v-128q0 -101 -62 -160.5t-168 -59.5zM300 100q50 0 77.5 27.5t27.5 79.5v136q0 52 -27.5 79.5t-77.5 27.5t-77.5 -27.5t-27.5 -79.5v-136q0 -52 27.5 -79.5t77.5 -27.5zM300 -225
q-38 0 -60 19.5t-22 52.5q0 34 22 53.5t60 19.5t60 -19.5t22 -53.5q0 -33 -22 -52.5t-60 -19.5zM105 645l137 140h116l137 -140h-120l-76 73l-73 -73h-121z" />
    <glyph glyph-name="uni1EDA" unicode="&#x1eda;" 
d="M300 -10q-105 0 -166.5 60t-61.5 166v298q0 106 61.5 166t166.5 60q83 0 140 -38q21 7 21 33v75h102v-77q0 -35 -16 -61.5t-44 -41.5q25 -49 25 -115v-299q0 -106 -61.5 -166t-166.5 -60zM300 100q51 0 77 27.5t26 78.5v318q0 51 -26 78.5t-77 27.5t-77 -27.5t-26 -78.5
v-318q0 -51 26 -78.5t77 -27.5zM214 810l106 140h134l-114 -140h-126z" />
    <glyph glyph-name="uni1EDB" unicode="&#x1edb;" 
d="M300 -9q-106 0 -168 59.5t-62 160.5v128q0 102 62 161t168 59q73 0 127 -29v0q35 0 35 35v75h101v-77q0 -36 -16.5 -63t-45.5 -42q29 -50 29 -119v-128q0 -101 -62 -160.5t-168 -59.5zM300 100q50 0 77.5 27.5t27.5 79.5v136q0 52 -27.5 79.5t-77.5 27.5t-77.5 -27.5
t-27.5 -79.5v-136q0 -52 27.5 -79.5t77.5 -27.5zM214 645l106 140h134l-114 -140h-126z" />
    <glyph glyph-name="uni1EDC" unicode="&#x1edc;" 
d="M300 -10q-105 0 -166.5 60t-61.5 166v298q0 106 61.5 166t166.5 60q83 0 140 -38q21 7 21 33v75h102v-77q0 -35 -16 -61.5t-44 -41.5q25 -49 25 -115v-299q0 -106 -61.5 -166t-166.5 -60zM300 100q51 0 77 27.5t26 78.5v318q0 51 -26 78.5t-77 27.5t-77 -27.5t-26 -78.5
v-318q0 -51 26 -78.5t77 -27.5zM239 810l-116 140h138l107 -140h-129z" />
    <glyph glyph-name="uni1EDD" unicode="&#x1edd;" 
d="M300 -9q-106 0 -168 59.5t-62 160.5v128q0 102 62 161t168 59q73 0 127 -29v0q35 0 35 35v75h101v-77q0 -36 -16.5 -63t-45.5 -42q29 -50 29 -119v-128q0 -101 -62 -160.5t-168 -59.5zM300 100q50 0 77.5 27.5t27.5 79.5v136q0 52 -27.5 79.5t-77.5 27.5t-77.5 -27.5
t-27.5 -79.5v-136q0 -52 27.5 -79.5t77.5 -27.5zM239 645l-116 140h138l107 -140h-129z" />
    <glyph glyph-name="uni1EDE" unicode="&#x1ede;" 
d="M300 -10q-105 0 -166.5 60t-61.5 166v298q0 106 61.5 166t166.5 60q83 0 140 -38q21 7 21 33v75h102v-77q0 -35 -16 -61.5t-44 -41.5q25 -49 25 -115v-299q0 -106 -61.5 -166t-166.5 -60zM300 100q51 0 77 27.5t26 78.5v318q0 51 -26 78.5t-77 27.5t-77 -27.5t-26 -78.5
v-318q0 -51 26 -78.5t77 -27.5zM239 798l48 60q14 18 14 30q0 18 -29 18h-78v77h95q47 0 76 -22.5t29 -59.5q0 -31 -20 -57l-35 -46h-100z" />
    <glyph glyph-name="uni1EDF" unicode="&#x1edf;" 
d="M300 -9q-106 0 -168 59.5t-62 160.5v128q0 102 62 161t168 59q73 0 127 -29v0q35 0 35 35v75h101v-77q0 -36 -16.5 -63t-45.5 -42q29 -50 29 -119v-128q0 -101 -62 -160.5t-168 -59.5zM300 100q50 0 77.5 27.5t27.5 79.5v136q0 52 -27.5 79.5t-77.5 27.5t-77.5 -27.5
t-27.5 -79.5v-136q0 -52 27.5 -79.5t77.5 -27.5zM239 645l50 60q14 18 14 30q0 19 -29 19h-80v76h105q44 0 70.5 -22t26.5 -59q0 -33 -20 -58l-37 -46h-100z" />
    <glyph glyph-name="uni1EE0" unicode="&#x1ee0;" 
d="M300 -10q-105 0 -166.5 60t-61.5 166v298q0 106 61.5 166t166.5 60q83 0 140 -38q21 7 21 33v75h102v-77q0 -35 -16 -61.5t-44 -41.5q25 -49 25 -115v-299q0 -106 -61.5 -166t-166.5 -60zM300 100q51 0 77 27.5t26 78.5v318q0 51 -26 78.5t-77 27.5t-77 -27.5t-26 -78.5
v-318q0 -51 26 -78.5t77 -27.5zM360 806q-31 0 -50.5 10t-32.5 22.5t-24.5 22t-27.5 9.5q-30 0 -30 -33v-26h-77v33q0 49 28 79.5t74 30.5q31 0 50.5 -10t32.5 -22.5t24.5 -22t27.5 -9.5q30 0 30 31v28h77v-33q0 -49 -28 -79.5t-74 -30.5z" />
    <glyph glyph-name="uni1EE1" unicode="&#x1ee1;" 
d="M300 -9q-106 0 -168 59.5t-62 160.5v128q0 102 62 161t168 59q73 0 127 -29v0q35 0 35 35v75h101v-77q0 -36 -16.5 -63t-45.5 -42q29 -50 29 -119v-128q0 -101 -62 -160.5t-168 -59.5zM300 100q50 0 77.5 27.5t27.5 79.5v136q0 52 -27.5 79.5t-77.5 27.5t-77.5 -27.5
t-27.5 -79.5v-136q0 -52 27.5 -79.5t77.5 -27.5zM360 641q-31 0 -50.5 10t-32.5 22.5t-24.5 22t-27.5 9.5q-30 0 -30 -33v-26h-77v33q0 49 28 79.5t74 30.5q31 0 50.5 -10t32.5 -22.5t24.5 -22t27.5 -9.5q30 0 30 31v28h77v-33q0 -49 -28 -79.5t-74 -30.5z" />
    <glyph glyph-name="uni1EE2" unicode="&#x1ee2;" 
d="M300 -10q-105 0 -166.5 60t-61.5 166v298q0 106 61.5 166t166.5 60q83 0 140 -38q21 7 21 33v75h102v-77q0 -35 -16 -61.5t-44 -41.5q25 -49 25 -115v-299q0 -106 -61.5 -166t-166.5 -60zM300 100q51 0 77 27.5t26 78.5v318q0 51 -26 78.5t-77 27.5t-77 -27.5t-26 -78.5
v-318q0 -51 26 -78.5t77 -27.5zM300 -225q-38 0 -60 19.5t-22 52.5q0 34 22 53.5t60 19.5t60 -19.5t22 -53.5q0 -33 -22 -52.5t-60 -19.5z" />
    <glyph glyph-name="uni1EE3" unicode="&#x1ee3;" 
d="M300 -9q-106 0 -168 59.5t-62 160.5v128q0 102 62 161t168 59q73 0 127 -29v0q35 0 35 35v75h101v-77q0 -36 -16.5 -63t-45.5 -42q29 -50 29 -119v-128q0 -101 -62 -160.5t-168 -59.5zM300 100q50 0 77.5 27.5t27.5 79.5v136q0 52 -27.5 79.5t-77.5 27.5t-77.5 -27.5
t-27.5 -79.5v-136q0 -52 27.5 -79.5t77.5 -27.5zM300 -225q-38 0 -60 19.5t-22 52.5q0 34 22 53.5t60 19.5t60 -19.5t22 -53.5q0 -33 -22 -52.5t-60 -19.5z" />
    <glyph glyph-name="uni1EE4" unicode="&#x1ee4;" 
d="M300 -10q-107 0 -167.5 58.5t-60.5 159.5v522h126v-521q0 -52 26 -81t76 -29q49 0 75.5 29t26.5 81v521h126v-522q0 -101 -60 -159.5t-168 -58.5zM300 -225q-38 0 -60 19.5t-22 52.5q0 34 22 53.5t60 19.5t60 -19.5t22 -53.5q0 -33 -22 -52.5t-60 -19.5z" />
    <glyph glyph-name="uni1EE5" unicode="&#x1ee5;" 
d="M300 -10q-105 0 -165 58.5t-60 159.5v342h125v-341q0 -52 26 -81t74 -29q47 0 73.5 29t26.5 81v341h125v-342q0 -101 -61 -159.5t-164 -58.5zM300 -225q-38 0 -60 19.5t-22 52.5q0 34 22 53.5t60 19.5t60 -19.5t22 -53.5q0 -33 -22 -52.5t-60 -19.5z" />
    <glyph glyph-name="uni1EE6" unicode="&#x1ee6;" 
d="M300 -10q-107 0 -167.5 58.5t-60.5 159.5v522h126v-521q0 -52 26 -81t76 -29q49 0 75.5 29t26.5 81v521h126v-522q0 -101 -60 -159.5t-168 -58.5zM249 798l48 60q14 18 14 30q0 18 -29 18h-78v77h95q47 0 76 -22.5t29 -59.5q0 -31 -20 -57l-35 -46h-100z" />
    <glyph glyph-name="uni1EE7" unicode="&#x1ee7;" 
d="M300 -10q-105 0 -165 58.5t-60 159.5v342h125v-341q0 -52 26 -81t74 -29q47 0 73.5 29t26.5 81v341h125v-342q0 -101 -61 -159.5t-164 -58.5zM249 645l50 60q14 18 14 30q0 19 -29 19h-80v76h105q44 0 70.5 -22t26.5 -59q0 -33 -20 -58l-37 -46h-100z" />
    <glyph glyph-name="uni1EE8" unicode="&#x1ee8;" 
d="M300 -10q-107 0 -167.5 58.5t-60.5 159.5v522h126v-521q0 -52 26 -81t76 -29q49 0 75.5 29t26.5 81v521h89q35 0 35 35v75h102v-77q0 -47 -27 -78t-73 -38v-439q0 -101 -60 -159.5t-168 -58.5zM224 810l106 140h134l-114 -140h-126z" />
    <glyph glyph-name="uni1EE9" unicode="&#x1ee9;" 
d="M75 205v345h125v-346q0 -51 23 -78t65 -27t65.5 27t23.5 78v346h107q35 0 35 35v75h101v-77q0 -53 -30 -85.5t-88 -32.5v-260q0 -100 -57.5 -157.5t-156.5 -57.5t-156 57.5t-57 157.5zM212 645l106 140h134l-114 -140h-126z" />
    <glyph glyph-name="uni1EEA" unicode="&#x1eea;" 
d="M300 -10q-107 0 -167.5 58.5t-60.5 159.5v522h126v-521q0 -52 26 -81t76 -29q49 0 75.5 29t26.5 81v521h89q35 0 35 35v75h102v-77q0 -47 -27 -78t-73 -38v-439q0 -101 -60 -159.5t-168 -58.5zM249 810l-116 140h138l107 -140h-129z" />
    <glyph glyph-name="uni1EEB" unicode="&#x1eeb;" 
d="M75 205v345h125v-346q0 -51 23 -78t65 -27t65.5 27t23.5 78v346h107q35 0 35 35v75h101v-77q0 -53 -30 -85.5t-88 -32.5v-260q0 -100 -57.5 -157.5t-156.5 -57.5t-156 57.5t-57 157.5zM237 645l-116 140h138l107 -140h-129z" />
    <glyph glyph-name="uni1EEC" unicode="&#x1eec;" 
d="M300 -10q-107 0 -167.5 58.5t-60.5 159.5v522h126v-521q0 -52 26 -81t76 -29q49 0 75.5 29t26.5 81v521h89q35 0 35 35v75h102v-77q0 -47 -27 -78t-73 -38v-439q0 -101 -60 -159.5t-168 -58.5zM249 798l48 60q14 18 14 30q0 18 -29 18h-78v77h95q47 0 76 -22.5t29 -59.5
q0 -31 -20 -57l-35 -46h-100z" />
    <glyph glyph-name="uni1EED" unicode="&#x1eed;" 
d="M75 205v345h125v-346q0 -51 23 -78t65 -27t65.5 27t23.5 78v346h107q35 0 35 35v75h101v-77q0 -53 -30 -85.5t-88 -32.5v-260q0 -100 -57.5 -157.5t-156.5 -57.5t-156 57.5t-57 157.5zM237 645l50 60q14 18 14 30q0 19 -29 19h-80v76h105q44 0 70.5 -22t26.5 -59
q0 -33 -20 -58l-37 -46h-100z" />
    <glyph glyph-name="uni1EEE" unicode="&#x1eee;" 
d="M300 -10q-107 0 -167.5 58.5t-60.5 159.5v522h126v-521q0 -52 26 -81t76 -29q49 0 75.5 29t26.5 81v521h89q35 0 35 35v75h102v-77q0 -47 -27 -78t-73 -38v-439q0 -101 -60 -159.5t-168 -58.5zM370 806q-31 0 -50.5 10t-32.5 22.5t-24.5 22t-27.5 9.5q-30 0 -30 -33v-26
h-77v33q0 49 28 79.5t74 30.5q31 0 50.5 -10t32.5 -22.5t24.5 -22t27.5 -9.5q30 0 30 31v28h77v-33q0 -49 -28 -79.5t-74 -30.5z" />
    <glyph glyph-name="uni1EEF" unicode="&#x1eef;" 
d="M75 205v345h125v-346q0 -51 23 -78t65 -27t65.5 27t23.5 78v346h107q35 0 35 35v75h101v-77q0 -53 -30 -85.5t-88 -32.5v-260q0 -100 -57.5 -157.5t-156.5 -57.5t-156 57.5t-57 157.5zM358 641q-31 0 -50.5 10t-32.5 22.5t-24.5 22t-27.5 9.5q-30 0 -30 -33v-26h-77v33
q0 49 28 79.5t74 30.5q31 0 50.5 -10t32.5 -22.5t24.5 -22t27.5 -9.5q30 0 30 31v28h77v-33q0 -49 -28 -79.5t-74 -30.5z" />
    <glyph glyph-name="uni1EF0" unicode="&#x1ef0;" 
d="M300 -10q-107 0 -167.5 58.5t-60.5 159.5v522h126v-521q0 -52 26 -81t76 -29q49 0 75.5 29t26.5 81v521h89q35 0 35 35v75h102v-77q0 -47 -27 -78t-73 -38v-439q0 -101 -60 -159.5t-168 -58.5zM300 -225q-38 0 -60 19.5t-22 52.5q0 34 22 53.5t60 19.5t60 -19.5t22 -53.5
q0 -33 -22 -52.5t-60 -19.5z" />
    <glyph glyph-name="uni1EF1" unicode="&#x1ef1;" 
d="M75 205v345h125v-346q0 -51 23 -78t65 -27t65.5 27t23.5 78v346h107q35 0 35 35v75h101v-77q0 -53 -30 -85.5t-88 -32.5v-260q0 -100 -57.5 -157.5t-156.5 -57.5t-156 57.5t-57 157.5zM288 -225q-38 0 -60 19.5t-22 52.5q0 34 22 53.5t60 19.5t60 -19.5t22 -53.5
q0 -33 -22 -52.5t-60 -19.5z" />
    <glyph glyph-name="Ygrave" unicode="&#x1ef2;" 
d="M237 0v265l-214 465h132l113 -253q13 -30 22 -59t12 -45q4 16 12.5 45t21.5 59l111 253h130l-214 -465v-265h-126zM249 810l-116 140h138l107 -140h-129z" />
    <glyph glyph-name="ygrave" unicode="&#x1ef3;" 
d="M165 -180l78 210l-207 520h132l106 -281q9 -25 18 -54.5t13 -54.5q3 25 11.5 54.5t17.5 54.5l98 281h132l-268 -730h-131zM249 645l-116 140h138l107 -140h-129z" />
    <glyph glyph-name="uni1EF4" unicode="&#x1ef4;" 
d="M237 0v265l-214 465h132l113 -253q13 -30 22 -59t12 -45q4 16 12.5 45t21.5 59l111 253h130l-214 -465v-265h-126zM300 -225q-38 0 -60 19.5t-22 52.5q0 34 22 53.5t60 19.5t60 -19.5t22 -53.5q0 -33 -22 -52.5t-60 -19.5z" />
    <glyph glyph-name="uni1EF5" unicode="&#x1ef5;" 
d="M165 -180l78 210l-207 520h132l106 -281q9 -25 18 -54.5t13 -54.5q3 25 11.5 54.5t17.5 54.5l98 281h132l-268 -730h-131zM483 -225q-38 0 -60 19.5t-22 52.5q0 34 22 53.5t60 19.5t60 -19.5t22 -53.5q0 -33 -22 -52.5t-60 -19.5z" />
    <glyph glyph-name="uni1EF6" unicode="&#x1ef6;" 
d="M237 0v265l-214 465h132l113 -253q13 -30 22 -59t12 -45q4 16 12.5 45t21.5 59l111 253h130l-214 -465v-265h-126zM249 798l48 60q14 18 14 30q0 18 -29 18h-78v77h95q47 0 76 -22.5t29 -59.5q0 -31 -20 -57l-35 -46h-100z" />
    <glyph glyph-name="uni1EF7" unicode="&#x1ef7;" 
d="M165 -180l78 210l-207 520h132l106 -281q9 -25 18 -54.5t13 -54.5q3 25 11.5 54.5t17.5 54.5l98 281h132l-268 -730h-131zM249 645l50 60q14 18 14 30q0 19 -29 19h-80v76h105q44 0 70.5 -22t26.5 -59q0 -33 -20 -58l-37 -46h-100z" />
    <glyph glyph-name="uni1EF8" unicode="&#x1ef8;" 
d="M237 0v265l-214 465h132l113 -253q13 -30 22 -59t12 -45q4 16 12.5 45t21.5 59l111 253h130l-214 -465v-265h-126zM370 806q-31 0 -50.5 10t-32.5 22.5t-24.5 22t-27.5 9.5q-30 0 -30 -33v-26h-77v33q0 49 28 79.5t74 30.5q31 0 50.5 -10t32.5 -22.5t24.5 -22t27.5 -9.5
q30 0 30 31v28h77v-33q0 -49 -28 -79.5t-74 -30.5z" />
    <glyph glyph-name="uni1EF9" unicode="&#x1ef9;" 
d="M165 -180l78 210l-207 520h132l106 -281q9 -25 18 -54.5t13 -54.5q3 25 11.5 54.5t17.5 54.5l98 281h132l-268 -730h-131zM370 641q-31 0 -50.5 10t-32.5 22.5t-24.5 22t-27.5 9.5q-30 0 -30 -33v-26h-77v33q0 49 28 79.5t74 30.5q31 0 50.5 -10t32.5 -22.5t24.5 -22
t27.5 -9.5q30 0 30 31v28h77v-33q0 -49 -28 -79.5t-74 -30.5z" />
    <glyph glyph-name="EMquad" unicode="&#x2001;" 
 />
    <glyph glyph-name="ZEROWIDTHSPACE" unicode="&#x200b;" 
 />
    <glyph glyph-name="uni2010" unicode="&#x2010;" 
d="M140 272v116h320v-116h-320z" />
    <glyph glyph-name="endash" unicode="&#x2013;" 
d="M77 272v116h446v-116h-446z" />
    <glyph glyph-name="emdash" unicode="&#x2014;" 
d="M0 272v116h600v-116h-600z" />
    <glyph glyph-name="uni2016" unicode="&#x2016;" 
d="M102 -110v940h125v-940h-125zM373 -110v940h125v-940h-125z" />
    <glyph glyph-name="quoteleft" unicode="&#x2018;" 
d="M393 730l-54 -124q-8 -18 -13.5 -39t-5.5 -36q0 -30 14.5 -59t41.5 -47h-130q-24 18 -37.5 47.5t-13.5 58.5q0 20 7.5 48t17.5 51l44 100h129z" />
    <glyph glyph-name="quoteright" unicode="&#x2019;" 
d="M207 425l54 124q8 18 13.5 39t5.5 36q0 30 -14.5 59t-41.5 47h130q24 -18 37.5 -47.5t13.5 -58.5q0 -20 -7.5 -48t-17.5 -51l-44 -100h-129z" />
    <glyph glyph-name="quotesinglbase" unicode="&#x201a;" 
d="M207 -160l54 124q8 18 13.5 39t5.5 36q0 30 -14.5 59t-41.5 47h130q24 -18 37.5 -47.5t13.5 -58.5q0 -20 -7.5 -48t-17.5 -51l-44 -100h-129z" />
    <glyph glyph-name="quotereversed" unicode="&#x201b;" 
d="M393 425h-129l-44 100q-10 23 -17.5 51t-7.5 48q0 29 13.5 58.5t37.5 47.5h130q-27 -18 -41.5 -47t-14.5 -59q0 -15 5.5 -36t13.5 -39z" />
    <glyph glyph-name="quotedblleft" unicode="&#x201c;" 
d="M512 730l-55 -124q-8 -18 -13.5 -39t-5.5 -36q0 -30 15 -59t41 -47h-129q-25 18 -38 47.5t-13 58.5q0 20 7.5 48t17.5 51l43 100h130zM282 730l-54 -124q-8 -18 -13.5 -39t-5.5 -36q0 -30 15 -59t41 -47h-130q-24 18 -37 47.5t-13 58.5q0 20 7 48t18 51l43 100h129z" />
    <glyph glyph-name="quotedblright" unicode="&#x201d;" 
d="M84 431l54 124q8 18 13.5 39t5.5 36q0 30 -14.5 59t-41.5 47h130q24 -18 37.5 -47.5t13.5 -58.5q0 -20 -7.5 -48t-17.5 -51l-44 -100h-129zM318 431l54 124q8 18 13.5 39t5.5 36q0 30 -14.5 59t-41.5 47h130q24 -18 37.5 -47.5t13.5 -58.5q0 -20 -7.5 -48t-17.5 -51
l-44 -100h-129z" />
    <glyph glyph-name="quotedblbase" unicode="&#x201e;" 
d="M83 -160l54 124q8 18 13.5 39t5.5 36q0 30 -14.5 59t-41.5 47h130q24 -18 37.5 -47.5t13.5 -58.5q0 -20 -7.5 -48t-17.5 -51l-44 -100h-129zM333 -160l54 124q8 18 13.5 39t5.5 36q0 30 -14.5 59t-41.5 47h130q24 -18 37.5 -47.5t13.5 -58.5q0 -20 -7.5 -48t-17.5 -51
l-44 -100h-129z" />
    <glyph glyph-name="uni201F" unicode="&#x201f;" 
d="M515 425h-129l-43 100q-10 23 -17.5 51t-7.5 48q0 29 13 58.5t37 47.5h130q-26 -18 -41 -47t-15 -59q0 -15 5.5 -36t13.5 -39zM282 425h-129l-43 100q-11 23 -18 51t-7 48q0 29 13 58.5t37 47.5h130q-26 -18 -41 -47t-15 -59q0 -15 5.5 -36t13.5 -39z" />
    <glyph glyph-name="dagger" unicode="&#x2020;" 
d="M237 -110v607h-163v115h163v218h126v-218h163v-115h-163v-607h-126z" />
    <glyph glyph-name="daggerdbl" unicode="&#x2021;" 
d="M237 -110v232h-163v116h163v254h-163v116h163v222h126v-222h163v-116h-163v-254h163v-116h-163v-232h-126z" />
    <glyph glyph-name="bullet" unicode="&#x2022;" 
d="M300 236q-57 0 -93 36t-36 93t36 93t93 36t93 -36t36 -93t-36 -93t-93 -36z" />
    <glyph glyph-name="onedotenleader" unicode="&#x2024;" 
d="M300 -10q-42 0 -67.5 25.5t-25.5 66.5t25.5 67t67.5 26t67.5 -26t25.5 -67t-25.5 -66.5t-67.5 -25.5z" />
    <glyph glyph-name="ellipsis" unicode="&#x2026;" 
d="M489 -10q-26 0 -42 16.5t-16 44.5v64q0 27 16 44t42 17q27 0 43.5 -17t16.5 -44v-64q0 -28 -16.5 -44.5t-43.5 -16.5zM109 -10q-26 0 -42 16.5t-16 44.5v64q0 27 16 44t42 17q27 0 43.5 -17t16.5 -44v-64q0 -28 -16.5 -44.5t-43.5 -16.5zM299 -10q-26 0 -42 16.5
t-16 44.5v64q0 27 16 44t42 17q27 0 43.5 -17t16.5 -44v-64q0 -28 -16.5 -44.5t-43.5 -16.5z" />
    <glyph glyph-name="perthousand" unicode="&#x2030;" 
d="M126 440q-56 0 -89.5 31.5t-33.5 83.5v65q-1 54 31.5 84.5t90.5 30.5q55 0 89 -31.5t35 -83.5v-65q-1 -54 -33.5 -84.5t-89.5 -30.5zM-14 0l443 730h80l-442 -730h-81zM126 505q23 0 36.5 13.5t13.5 36.5v65q-1 22 -15 36t-36 14q-24 0 -37 -13.5t-12 -36.5v-65
q0 -22 13.5 -36t36.5 -14zM344 -5q-48 0 -77.5 32t-28.5 85v60q0 56 27.5 87t78.5 31q36 0 60.5 -18t28.5 -48q4 30 28.5 48t60.5 18q48 0 77 -32t29 -86v-60q0 -55 -28 -86t-78 -31q-37 0 -61.5 18t-27.5 48q-4 -30 -28.5 -48t-60.5 -18zM354 56q19 0 31.5 15t12.5 40v63
q0 25 -12.5 40t-32.5 15q-21 0 -32.5 -14.5t-11.5 -40.5v-63q0 -25 12 -40t33 -15zM512 56q44 0 45 55v63q0 25 -12.5 40t-32.5 15t-32.5 -15t-11.5 -40v-63q0 -25 12 -40t32 -15z" />
    <glyph glyph-name="minute" unicode="&#x2032;" 
d="M190 420l53 306h143l-76 -306h-120z" />
    <glyph glyph-name="second" unicode="&#x2033;" 
d="M85 420l53 306h143l-76 -306h-120zM320 420l53 306h143l-76 -306h-120z" />
    <glyph glyph-name="uni2034" unicode="&#x2034;" 
d="M3 419l53 306h143l-76 -306h-120zM202 419l53 306h143l-76 -306h-120zM401 419l53 306h143l-76 -306h-120z" />
    <glyph glyph-name="guilsinglleft" unicode="&#x2039;" 
d="M326 40l-186 240l186 240h130l-184 -239l188 -241h-134z" />
    <glyph glyph-name="guilsinglright" unicode="&#x203a;" 
d="M144 40l185 239l-189 241h134l186 -240l-186 -240h-130z" />
    <glyph glyph-name="exclamdbl" unicode="&#x203c;" 
d="M120 227l-14 503h136l-14 -503h-108zM159 -5q-31 0 -50 18.5t-19 47.5t19 47.5t50 18.5h30q32 0 50.5 -18.5t18.5 -47.5t-19.5 -47.5t-50.5 -18.5h-29zM372 227l-14 503h136l-14 -503h-108zM411 -5q-31 0 -50 18.5t-19 47.5t19 47.5t50 18.5h30q32 0 50.5 -18.5
t18.5 -47.5t-19.5 -47.5t-50.5 -18.5h-29z" />
    <glyph glyph-name="uni203D" unicode="&#x203d;" 
d="M203 217l-10 245v70h110v-70l-2 -43q39 7 61.5 33t22.5 66q0 46 -29.5 73.5t-80.5 27.5h-155v111h143q74 0 128 -26.5t84 -74.5t30 -114q0 -92 -56 -148t-152 -60l-4 -90h-90zM234 -5q-31 0 -50 18.5t-19 47.5t19 47.5t50 18.5h30q31 0 49.5 -18.5t18.5 -47.5t-19 -47.5
t-50 -18.5h-29z" />
    <glyph glyph-name="uni203E" unicode="&#x203e;" 
d="M-10 715v115h620v-115h-620z" />
    <glyph glyph-name="uni203F" unicode="&#x203f;" 
d="M174 -180q-78 0 -124 48.5t-46 131.5h125q0 -37 19 -58.5t51 -21.5h202q32 0 51 21.5t19 58.5h125q0 -83 -46 -131.5t-124 -48.5h-252z" />
    <glyph glyph-name="fraction" unicode="&#x2044;" 
d="M-4 0l502 730h106l-502 -730h-106z" />
    <glyph glyph-name="uni2045" unicode="&#x2045;" 
d="M185 -110v940h280v-115h-155v-282h155v-116h-155v-312h153v-115h-278z" />
    <glyph glyph-name="uni2046" unicode="&#x2046;" 
d="M415 -110h-278v115h153v312h-155v116h155v282h-155v115h280v-940z" />
    <glyph glyph-name="uni2070" unicode="&#x2070;" 
d="M300 377q-76 0 -123 44.5t-47 115.5v138q0 71 47 115.5t123 44.5t123 -44.5t47 -115.5v-138q0 -71 -47 -115.5t-123 -44.5zM300 454q38 0 60.5 23t22.5 60v138q0 37 -22.5 60t-60.5 23t-60.5 -23t-22.5 -60v-138q0 -37 22.5 -60t60.5 -23z" />
    <glyph glyph-name="uni2074" unicode="&#x2074;" 
d="M365 382v99h-227v108l168 241h96l-179 -259v-12h142v103h86v-280h-86z" />
    <glyph glyph-name="uni2075" unicode="&#x2075;" 
d="M303 377q-76 0 -123 39.5t-47 103.5h87q0 -31 22.5 -48.5t60.5 -17.5q36 0 58.5 21t22.5 53q0 34 -22 54t-57 20h-149v228h299v-76h-218v-83h68q77 0 122 -38.5t45 -104.5t-46.5 -108.5t-122.5 -42.5z" />
    <glyph glyph-name="uni2076" unicode="&#x2076;" 
d="M301 377q-78 0 -125.5 42.5t-47.5 109.5q0 49 35 105l128 196h91l-125 -192h5q27 33 73 33q60 0 98.5 -39.5t38.5 -102.5q0 -67 -47.5 -109.5t-123.5 -42.5zM300 452q39 0 63.5 21t24.5 56t-24.5 56t-63.5 21t-63.5 -21t-24.5 -56t24.5 -56t63.5 -21z" />
    <glyph glyph-name="uni2077" unicode="&#x2077;" 
d="M205 382l176 370h-157v-75h-85v153h330v-88l-169 -360h-95z" />
    <glyph glyph-name="uni2078" unicode="&#x2078;" 
d="M300 377q-77 0 -125 37t-48 95q0 45 27.5 74.5t75.5 36.5v4q-43 8 -67.5 33t-24.5 61q0 52 45 84.5t117 32.5q73 0 118 -32.5t45 -84.5q0 -36 -25 -61t-69 -33v-4q48 -7 76 -36.5t28 -74.5q0 -58 -48 -95t-125 -37zM300 648q36 0 58 16.5t22 42.5q0 27 -22 43.5t-58 16.5
t-57.5 -16.5t-21.5 -43.5q0 -26 21.5 -42.5t57.5 -16.5zM300 447q39 0 63 18.5t24 49.5t-24 49.5t-63 18.5t-63 -18.5t-24 -49.5t24 -49.5t63 -18.5z" />
    <glyph glyph-name="uni2079" unicode="&#x2079;" 
d="M219 382l123 192h-4q-12 -15 -30 -24t-43 -9q-60 0 -97 39.5t-37 102.5q0 68 46.5 110t121.5 42q76 0 123 -42t47 -110q0 -26 -10 -55.5t-29 -57.5l-119 -188h-92zM300 606q37 0 61 21t24 56t-23 56t-62 21t-62 -21t-23 -56t23 -56t62 -21z" />
    <glyph glyph-name="uni207A" unicode="&#x207a;" 
d="M260 305v105h-100v70h100v105h80v-105h100v-70h-100v-105h-80z" />
    <glyph glyph-name="uni207C" unicode="&#x207c;" 
d="M148 624v80h306v-80h-306zM148 452v80h306v-80h-306z" />
    <glyph glyph-name="uni2080" unicode="&#x2080;" 
d="M300 -138q-76 0 -123 44.5t-47 115.5v138q0 71 47 115.5t123 44.5t123 -44.5t47 -115.5v-138q0 -71 -47 -115.5t-123 -44.5zM300 -61q38 0 60.5 23t22.5 60v138q0 37 -22.5 60t-60.5 23t-60.5 -23t-22.5 -60v-138q0 -37 22.5 -60t60.5 -23z" />
    <glyph glyph-name="uni2081" unicode="&#x2081;" 
d="M146 -133v78h141v295l-138 -87v89l113 73h112v-370h110v-78h-338z" />
    <glyph glyph-name="uni2082" unicode="&#x2082;" 
d="M151 -133v90l181 143q19 16 30.5 34.5t11.5 39.5q0 31 -20 50t-52 19q-31 0 -51.5 -19.5t-20.5 -50.5h-87q1 65 46 106t113 41q70 0 114.5 -40t44.5 -105q0 -37 -22.5 -70.5t-60.5 -62.5l-126 -98h210v-77h-311z" />
    <glyph glyph-name="uni2083" unicode="&#x2083;" 
d="M302 -138q-75 0 -122.5 41t-47.5 107h87q0 -31 23 -51t60 -20q36 0 59 21.5t23 55.5t-23 55t-59 21h-40v67l106 79h-214v77h301v-81l-105 -82q55 -9 88 -45.5t33 -90.5q0 -69 -47 -111.5t-122 -42.5z" />
    <glyph glyph-name="uni2084" unicode="&#x2084;" 
d="M365 -133v99h-227v108l168 241h96l-179 -259v-12h142v103h86v-280h-86z" />
    <glyph glyph-name="uni2085" unicode="&#x2085;" 
d="M303 -138q-76 0 -123 39.5t-47 103.5h87q0 -31 22.5 -48.5t60.5 -17.5q36 0 58.5 21t22.5 53q0 34 -22 54t-57 20h-149v228h299v-76h-218v-83h68q77 0 122 -38.5t45 -104.5t-46.5 -108.5t-122.5 -42.5z" />
    </font>
</defs>
</svg>
