<?xml version="1.0" standalone="no"?>
<!DOCTYPE svg PUBLIC "-//W3C//DTD SVG 1.1//EN" "http://www.w3.org/Graphics/SVG/1.1/DTD/svg11.dtd" >
<svg xmlns="http://www.w3.org/2000/svg" xmlns:xlink="http://www.w3.org/1999/xlink" version="1.1">
<metadata>
Created by FontForge 20170731 at Sat Jan 14 17:11:20 2023
 By Aleksey,,,
Copyright 2020 The JetBrains Mono Project Authors (https://github.com/JetBrains/JetBrainsMono)
</metadata>
<defs>
<font id="JetBrainsMono-Medium" horiz-adv-x="600" >
  <font-face 
    font-family="JetBrains Mono Medium"
    font-weight="500"
    font-stretch="normal"
    units-per-em="1000"
    panose-1="2 0 0 9 0 0 0 0 0 0"
    ascent="800"
    descent="-200"
    x-height="550"
    cap-height="730"
    bbox="-1732 -400 765 1120"
    underline-thickness="50"
    underline-position="-230"
    unicode-range="U+000D-1D56B"
  />
<missing-glyph 
d="M90 0v730h420v-730h-420zM140 109l300 571h-300v-571zM160 50h300v571z" />
    <glyph glyph-name=".notdef" 
d="M90 0v730h420v-730h-420zM140 109l300 571h-300v-571zM160 50h300v571z" />
    <glyph glyph-name=".null" horiz-adv-x="0" 
 />
    <glyph glyph-name="nonmarkingreturn" horiz-adv-x="333" 
 />
    <glyph glyph-name="CR" unicode="&#xd;" 
 />
    <glyph glyph-name="space" unicode=" " 
 />
    <glyph glyph-name="exclam" unicode="!" 
d="M256 218l-13 512h114l-13 -512h-88zM285 -5q-27 0 -44.5 17t-17.5 45q0 27 17.5 44t44.5 17h30q29 0 45.5 -17t16.5 -44t-17.5 -44.5t-44.5 -17.5h-30z" />
    <glyph glyph-name="quotedbl" unicode="&#x22;" 
d="M144 430l-8 300h110l-7 -300h-95zM362 430l-8 300h110l-7 -300h-95z" />
    <glyph glyph-name="numbersign" unicode="#" 
d="M82 0l37 205h-84v70h96l33 180h-94v70h106l38 205h75l-38 -205h155l38 205h75l-38 -205h84v-70h-96l-33 -180h94v-70h-106l-38 -205h-74l37 205h-155l-38 -205h-74zM206 275h155l33 180h-155z" />
    <glyph glyph-name="dollar" unicode="$" 
d="M273 -140v131q-95 8 -149 61t-56 140h99q0 -47 28 -76t78 -36v249l-24 7q-78 22 -120 77t-42 130q0 82 50.5 134.5t135.5 60.5v132h61v-131q86 -8 136.5 -60.5t51.5 -134.5h-99q0 43 -23 71t-66 35v-236l38 -12q76 -23 118 -78t42 -132q0 -83 -54 -137.5t-144 -63.5v-131
h-61zM186 551q0 -43 22.5 -73.5t64.5 -44.5v217q-41 -6 -64 -32t-23 -67zM334 80q47 7 73 35.5t26 74.5q0 43 -25.5 74.5t-72.5 43.5l-1 13v-241z" />
    <glyph glyph-name="percent" unicode="%" 
d="M152 400q-65 0 -102.5 36.5t-36.5 98.5v65q-1 62 36.5 98.5t102.5 36.5t103 -36.5t39 -98.5v-65q0 -62 -38 -98.5t-104 -36.5zM10 0l501 730h79l-501 -730h-79zM153 470q29 0 46 17.5t17 47.5v65q0 30 -17 47.5t-46 17.5q-28 0 -45 -17.5t-17 -47.5v-65q0 -30 16.5 -47.5
t45.5 -17.5zM447 -5q-65 0 -103 36.5t-38 98.5v65q-1 62 37 98.5t104 36.5q64 0 102 -36.5t38 -98.5v-65q0 -62 -38 -98.5t-102 -36.5zM447 66q29 0 46 17t17 47v65q0 30 -17.5 47.5t-46.5 17.5q-28 0 -45 -17.5t-17 -47.5v-65q-1 -30 16 -47t47 -17z" />
    <glyph glyph-name="ampersand" unicode="&#x26;" 
d="M217 -9q-90 0 -142 51.5t-52 139.5v60q0 79 43.5 127t117.5 53l-26 34q-52 68 -52 124q0 71 49 115.5t127 44.5q56 0 98 -24t65.5 -67.5t23.5 -99.5h-95q0 48 -25.5 78t-66.5 30q-36 0 -58 -22t-22 -58q0 -37 27 -72l192 -249l88 109h107l-143 -177l144 -188h-108
l-91 121l-37 -47q-33 -41 -75.5 -62t-88.5 -21zM223 78q56 0 96 51l46 59l-123 158h-26q-45 0 -71 -28t-26 -76v-60q0 -48 28 -76t76 -28z" />
    <glyph glyph-name="quotesingle" unicode="'" 
d="M253 430l-8 300h110l-7 -300h-95z" />
    <glyph glyph-name="parenleft" unicode="(" 
d="M485 -120q-145 33 -224.5 135t-79.5 255v180q0 153 79.5 255t224.5 135v-96q-63 -15 -109 -55.5t-71 -101.5t-25 -137v-180q0 -75 25 -136t71 -101.5t109 -55.5v-97z" />
    <glyph glyph-name="parenright" unicode=")" 
d="M115 -120v97q63 15 109 55.5t71.5 101.5t25.5 136v180q0 76 -25.5 137t-71.5 101.5t-109 55.5v96q145 -33 225 -135t80 -255v-180q0 -153 -80 -255t-225 -135z" />
    <glyph glyph-name="asterisk" unicode="*" 
d="M179 102l-73 51l66 95q14 18 35 42.5t41 43.5q-27 4 -56.5 11t-47.5 14l-109 40l30 84l109 -41q18 -6 44 -18.5t49 -26.5q-5 25 -8 51.5t-3 47.5v124h88v-124q0 -21 -3 -47.5t-9 -51.5q23 14 49.5 26.5t44.5 18.5l109 41l30 -84l-109 -40q-18 -7 -47.5 -14t-56.5 -11
q20 -20 41.5 -44t34.5 -42l66 -95l-73 -51l-66 95q-13 18 -28.5 46t-26.5 54q-11 -26 -26.5 -54t-28.5 -46z" />
    <glyph glyph-name="plus" unicode="+" 
d="M251 94v192h-187v89h187v191h98v-191h188v-89h-188v-192h-98z" />
    <glyph glyph-name="comma" unicode="," 
d="M205 -160l54 306h117l-71 -306h-100z" />
    <glyph glyph-name="hyphen" unicode="-" 
d="M140 286v89h320v-89h-320z" />
    <glyph glyph-name="period" unicode="." 
d="M300 -10q-38 0 -61.5 23t-23.5 59q0 38 23.5 62t61.5 24t61.5 -24t23.5 -62q0 -36 -23.5 -59t-61.5 -23z" />
    <glyph glyph-name="slash" unicode="/" 
d="M71 -110l354 940h104l-354 -940h-104z" />
    <glyph glyph-name="zero" unicode="0" 
d="M300 -10q-103 0 -163 58.5t-60 157.5v318q0 99 60 157.5t163 58.5t163 -58.5t60 -157.5v-318q0 -65 -27.5 -113.5t-77.5 -75.5t-118 -27zM300 75q58 0 93 36.5t35 94.5v318q0 58 -35 94.5t-93 36.5t-93 -36.5t-35 -94.5v-318q0 -58 35 -94.5t93 -36.5zM300 309
q-28 0 -44.5 15.5t-16.5 43.5t16.5 42.5t44.5 14.5t45 -14.5t17 -42.5t-17 -43.5t-45 -15.5z" />
    <glyph glyph-name="one" unicode="1" 
d="M89 0v90h195v551l-196 -146v112l166 123h129v-640h160v-90h-454z" />
    <glyph glyph-name="two" unicode="2" 
d="M83 0v91l248 262q48 50 68.5 91.5t20.5 81.5q0 57 -33 91.5t-89 34.5q-58 0 -92 -35t-34 -95h-99q2 100 63.5 159t161.5 59q102 0 162.5 -58t60.5 -155q0 -53 -28 -110.5t-95 -126.5l-194 -200h326v-90h-447z" />
    <glyph glyph-name="three" unicode="3" 
d="M290 -10q-103 0 -163 56.5t-60 153.5h99q0 -57 33.5 -89.5t91.5 -32.5q57 0 91 32.5t34 89.5v51q0 57 -33.5 90.5t-91.5 33.5h-82v83l176 183h-296v89h407v-90l-174 -180q89 -8 141 -63.5t52 -145.5v-51q0 -97 -60.5 -153.5t-164.5 -56.5z" />
    <glyph glyph-name="four" unicode="4" 
d="M396 0v156h-329v151l267 423h112l-281 -446v-39h231v175h99v-420h-99z" />
    <glyph glyph-name="five" unicode="5" 
d="M295 -10q-103 0 -163 56.5t-60 153.5h99q0 -57 33.5 -89.5t90.5 -32.5q58 0 91.5 33t33.5 90v46q0 57 -32.5 90t-88.5 33h-202v360h396v-90h-304l2 -181h113q102 0 158.5 -55.5t56.5 -156.5v-46q0 -98 -60.5 -154.5t-163.5 -56.5z" />
    <glyph glyph-name="six" unicode="6" 
d="M301 -10q-72 0 -126 29.5t-84 82.5t-30 123q0 47 18.5 99t49.5 107l166 299h111l-182 -315l3 -2q13 17 39.5 27t59.5 10q63 0 111 -28t75 -78t27 -117q0 -71 -30 -124t-83.5 -83t-124.5 -30zM300 77q63 0 101.5 41t38.5 107q0 67 -38.5 108t-101.5 41t-101.5 -41
t-38.5 -108q0 -66 38.5 -107t101.5 -41z" />
    <glyph glyph-name="seven" unicode="7" 
d="M182 0l262 641h-267v-118h-99v207h472v-91l-260 -639h-108z" />
    <glyph glyph-name="eight" unicode="8" 
d="M300 -10q-70 0 -123.5 27t-83.5 75.5t-30 112.5q0 68 39 118t104 61v3q-56 12 -89.5 56.5t-33.5 102.5q0 57 27.5 101t76.5 68.5t113 24.5t113 -24.5t76.5 -68.5t27.5 -101q0 -58 -33.5 -102.5t-89.5 -56.5v-3q65 -11 104 -61t39 -118q0 -64 -30 -112.5t-83.5 -75.5
t-123.5 -27zM300 424q53 0 86 32t33 83t-33 83t-86 32t-86 -32t-33 -83t33 -83t86 -32zM300 77q62 0 100.5 36.5t38.5 94.5t-38.5 94.5t-100.5 36.5t-100.5 -36.5t-38.5 -94.5t38.5 -94.5t100.5 -36.5z" />
    <glyph glyph-name="nine" unicode="9" 
d="M190 0l179 311h-3q-11 -15 -35 -24t-56 -9q-63 0 -111 28.5t-75.5 79t-27.5 117.5q0 71 30 124t83.5 83t124.5 30q72 0 126 -29.5t84 -82.5t30 -123q0 -47 -18.5 -99t-49.5 -107l-166 -299h-115zM300 356q63 0 101.5 41t38.5 108q0 66 -38.5 107t-101.5 41t-101.5 -41
t-38.5 -107q0 -67 38.5 -108t101.5 -41z" />
    <glyph glyph-name="colon" unicode=":" 
d="M300 407q-42 0 -64 21t-22 56q0 34 22 55t64 21t64 -21t22 -55q0 -35 -22 -56t-64 -21zM300 -10q-42 0 -64 21t-22 55q0 35 22 56t64 21t64 -21t22 -56q0 -34 -22 -55t-64 -21z" />
    <glyph glyph-name="semicolon" unicode=";" 
d="M290 406q-34 0 -55.5 21.5t-21.5 55.5q0 33 22 55t55 22h20q33 0 55 -22t22 -55q0 -34 -21.5 -55.5t-55.5 -21.5h-20zM200 -160l54 306h117l-71 -306h-100z" />
    <glyph glyph-name="less" unicode="&#x3c;" 
d="M517 63l-434 214v106l434 214v-94l-305 -148q-19 -9 -36 -15t-26 -8l27 -9t35 -15l305 -148v-97z" />
    <glyph glyph-name="equal" unicode="=" 
d="M84 406v89h432v-89h-432zM84 165v89h432v-89h-432z" />
    <glyph glyph-name="greater" unicode="&#x3e;" 
d="M83 63v94l305 147q19 9 36 15.5t26 8.5q-9 2 -27 8.5t-35 15.5l-305 148v97l434 -214v-106z" />
    <glyph glyph-name="question" unicode="?" 
d="M202 218l-1 175h57q61 0 96.5 33.5t35.5 88.5q0 56 -36 89t-97 33h-131v93h130q71 0 123 -26.5t81 -74.5t29 -114q0 -58 -24.5 -103.5t-67.5 -72.5t-100 -30v-91h-95zM233 -5q-27 0 -44.5 17t-17.5 45q0 27 17.5 44t44.5 17h30q30 0 46.5 -17t16.5 -44t-17.5 -44.5
t-45.5 -17.5h-30z" />
    <glyph glyph-name="at" unicode="@" 
d="M325 -180q-87 0 -150.5 35.5t-98 100.5t-34.5 154v340q0 90 33 155t94 100t146 35q116 0 182 -66t66 -178v-271q0 -79 -44 -124.5t-119 -45.5t-118.5 44.5t-43.5 116.5v114q0 74 35 115.5t98 41.5q41 0 68 -16.5t36 -44.5h2v70q0 81 -42 125t-121 44q-88 0 -137 -56.5
t-49 -158.5v-340q0 -98 52.5 -154t144.5 -56h110v-80h-110zM400 126q37 0 57 24t20 66v115q0 43 -20 66t-57 23t-57 -23.5t-20 -66.5v-114q0 -42 20 -66t57 -24z" />
    <glyph glyph-name="A" unicode="A" 
d="M46 0l189 730h131l188 -730h-101l-46 190h-214l-46 -190h-101zM213 272h174l-52 218q-15 60 -24 102t-11 57q-2 -15 -11 -57t-23 -101z" />
    <glyph glyph-name="B" unicode="B" 
d="M89 0v730h211q101 0 159.5 -50.5t58.5 -138.5q0 -57 -35.5 -101.5t-91.5 -54.5v-3q42 -5 74.5 -30t51 -63.5t18.5 -84.5q0 -94 -59.5 -149t-161.5 -55h-225zM186 422h113q56 0 88 29.5t32 80.5q0 52 -32 81.5t-87 29.5h-114v-221zM186 87h119q61 0 96 32.5t35 88.5
q0 58 -35 94t-96 36h-119v-251z" />
    <glyph glyph-name="C" unicode="C" 
d="M308 -10q-101 0 -160.5 56.5t-59.5 155.5v327q0 98 59.5 154.5t160.5 56.5q100 0 159.5 -57t59.5 -154h-99q0 59 -32 91t-88 32q-57 0 -89 -32t-32 -91v-327q0 -60 32 -92t89 -32q56 0 88 32t32 92h99q0 -98 -59.5 -155t-159.5 -57z" />
    <glyph glyph-name="D" unicode="D" 
d="M88 0v730h196q71 0 123.5 -27.5t81.5 -77t29 -116.5v-287q0 -67 -29 -117t-81.5 -77.5t-123.5 -27.5h-196zM187 88h97q63 0 99 36t36 98v287q0 62 -36 97.5t-99 35.5h-97v-554z" />
    <glyph glyph-name="E" unicode="E" 
d="M97 0v730h425v-89h-327v-217h292v-86h-292v-249h327v-89h-425z" />
    <glyph glyph-name="F" unicode="F" 
d="M91 0v730h436v-91h-339v-230h313v-90h-311v-319h-99z" />
    <glyph glyph-name="G" unicode="G" 
d="M304 -10q-101 0 -160.5 56.5t-59.5 155.5v327q0 98 59.5 154.5t160.5 56.5q100 0 159.5 -57t59.5 -154h-99q0 59 -32 91t-88 32q-57 0 -89 -32t-32 -91v-327q0 -60 32 -92t89 -32q56 0 88 32t32 92v95h-142v88h241v-183q0 -98 -59.5 -155t-159.5 -57z" />
    <glyph glyph-name="H" unicode="H" 
d="M89 0v730h99v-308h224v308h99v-730h-99v332h-224v-332h-99z" />
    <glyph glyph-name="I" unicode="I" 
d="M101 0v90h149v550h-149v90h398v-90h-149v-550h149v-90h-398z" />
    <glyph glyph-name="J" unicode="J" 
d="M270 -10q-107 0 -168 59.5t-61 162.5h99q0 -64 34.5 -99t95.5 -35t95.5 35t34.5 98v519h99v-519q0 -102 -61.5 -161.5t-167.5 -59.5z" />
    <glyph glyph-name="K" unicode="K" 
d="M88 0v730h99v-310h102l156 310h108l-177 -351l186 -379h-112l-163 333h-100v-333h-99z" />
    <glyph glyph-name="L" unicode="L" 
d="M128 0v730h99v-640h325v-90h-424z" />
    <glyph glyph-name="M" unicode="M" 
d="M68 0v730h140l90 -315l94 315h141v-730h-95v335q0 53 2 117.5t5.5 129t7.5 116.5l-114 -374h-84l-110 365q9 -73 13 -162.5t4 -191.5v-335h-94z" />
    <glyph glyph-name="N" unicode="N" 
d="M86 0v730h128l218 -616q-3 26 -5.5 64.5t-4 80t-1.5 78.5v393h94v-730h-129l-216 616q2 -26 4 -63.5t3.5 -78.5t1.5 -77v-397h-93z" />
    <glyph glyph-name="O" unicode="O" 
d="M300 -10q-100 0 -158 58t-58 164v307q0 105 58 163t158 58t158 -57.5t58 -163.5v-307q0 -106 -58 -164t-158 -58zM300 78q56 0 86.5 32t30.5 92v327q0 59 -30 91t-87 32t-87 -32t-30 -91v-327q0 -60 30.5 -92t86.5 -32z" />
    <glyph glyph-name="P" unicode="P" 
d="M88 0v730h237q70 0 121 -27t79 -75.5t28 -115.5q0 -66 -28 -114.5t-79.5 -75.5t-120.5 -27h-138v-295h-99zM187 383h138q58 0 92 35.5t34 93.5q0 59 -34 94.5t-92 35.5h-138v-259z" />
    <glyph glyph-name="Q" unicode="Q" 
d="M419 -180l-104 171q-3 -1 -7 -1h-8q-102 0 -162.5 59t-60.5 157v318q0 99 60.5 157.5t162.5 58.5t162.5 -58.5t60.5 -157.5v-318q0 -67 -29 -117t-81 -75l118 -194h-112zM300 78q57 0 90.5 34.5t33.5 93.5v318q0 59 -33.5 94t-90.5 35t-90.5 -35t-33.5 -94v-318
q0 -59 33.5 -93.5t90.5 -34.5z" />
    <glyph glyph-name="R" unicode="R" 
d="M89 0v730h226q67 0 117 -26.5t78 -74t28 -111.5q0 -74 -37.5 -127t-99.5 -75l147 -316h-109l-139 305h-113v-305h-98zM187 393h128q56 0 88.5 34t32.5 90q0 57 -33 91t-88 34h-128v-249z" />
    <glyph glyph-name="S" unicode="S" 
d="M304 -10q-108 0 -172 56.5t-64 155.5h99q0 -58 37 -91t100 -33q60 0 95.5 33.5t35.5 89.5q0 42 -23 73.5t-65 42.5l-108 29q-71 20 -112.5 72.5t-41.5 124.5q0 59 26.5 103.5t74.5 69t111 24.5q64 0 112.5 -24.5t75.5 -68.5t27 -102h-98q0 48 -32.5 78t-84.5 30
t-83.5 -30t-31.5 -78q0 -39 21 -65.5t59 -37.5l111 -30q75 -20 117 -76.5t42 -134.5q0 -64 -28 -111.5t-79.5 -73.5t-120.5 -26z" />
    <glyph glyph-name="T" unicode="T" 
d="M251 0v640h-198v90h494v-90h-197v-640h-99z" />
    <glyph glyph-name="U" unicode="U" 
d="M300 -10q-103 0 -158.5 57t-55.5 155v528h99v-528q0 -58 28.5 -91t86.5 -33q57 0 86.5 33t29.5 91v528h99v-528q0 -99 -55.5 -155.5t-159.5 -56.5z" />
    <glyph glyph-name="V" unicode="V" 
d="M233 0l-187 730h102l121 -492q12 -47 20.5 -90.5t12.5 -66.5q3 23 12.5 67t20.5 91l117 491h102l-188 -730h-133z" />
    <glyph glyph-name="W" unicode="W" 
d="M103 0l-84 730h88l54 -532q3 -32 5.5 -68.5t3.5 -59.5q2 23 5 59.5t8 68.5l70 532h99l65 -532q3 -32 7 -68.5t7 -59.5q1 23 4 59.5t6 68.5l55 532h86l-87 -730h-120l-63 540q-4 33 -6.5 67.5t-3.5 55.5q-3 -21 -5 -55.5t-6 -67.5l-69 -540h-119z" />
    <glyph glyph-name="X" unicode="X" 
d="M37 0l208 371l-197 359h113l108 -208l18.5 -37l14.5 -29q5 10 14 29t18 37l109 208h109l-197 -354l208 -376h-112l-120 224q-9 18 -18 37.5t-14 31.5q-5 -12 -14 -31.5t-19 -36.5l-120 -225h-109z" />
    <glyph glyph-name="Y" unicode="Y" 
d="M251 0v271l-219 459h105l135 -288q12 -26 19.5 -47t9.5 -30q3 9 10.5 30t20.5 47l134 288h102l-218 -459v-271h-99z" />
    <glyph glyph-name="Z" unicode="Z" 
d="M84 0v97l319 543h-314v90h417v-97l-320 -543h331v-90h-433z" />
    <glyph glyph-name="bracketleft" unicode="[" 
d="M200 -110v940h254v-89h-155v-762h155v-89h-254z" />
    <glyph glyph-name="backslash" unicode="\" 
d="M425 -110l-354 940h104l354 -940h-104z" />
    <glyph glyph-name="bracketright" unicode="]" 
d="M146 -110v89h155v762h-155v89h254v-940h-254z" />
    <glyph glyph-name="asciicircum" unicode="^" 
d="M77 340l177 390h94l175 -390h-90l-107 251q-8 20 -14.5 38.5t-8.5 29.5q-4 -11 -10.5 -29.5t-15.5 -38.5l-110 -251h-90z" />
    <glyph glyph-name="underscore" unicode="_" 
d="M60 -110v85h480v-85h-480z" />
    <glyph glyph-name="grave" unicode="`" 
d="M273 645l-116 140h110l109 -140h-103z" />
    <glyph glyph-name="a" unicode="a" 
d="M249 -10q-85 0 -134.5 47.5t-49.5 124.5t51.5 124t135.5 47h161v42q0 101 -112 101q-50 0 -80.5 -18.5t-32.5 -51.5h-98q5 67 61 110.5t150 43.5q101 0 156 -48t55 -135v-377h-97v101h-2q-7 -51 -50.5 -81t-113.5 -30zM275 73q63 0 100.5 30.5t37.5 83.5v73h-152
q-43 0 -69.5 -25.5t-26.5 -67.5q0 -43 29 -68.5t81 -25.5z" />
    <glyph glyph-name="b" unicode="b" 
d="M337 -10q-62 0 -102 31t-49 86v0v-107h-98v730h99v-158l-2 -128v0q9 54 49.5 85t102.5 31q82 0 131 -55.5t49 -150.5v-158q0 -95 -49 -150.5t-131 -55.5zM302 76q55 0 85.5 28.5t30.5 92.5v156q0 64 -30.5 92.5t-85.5 28.5q-53 0 -84 -33t-31 -93v-146q0 -60 31 -93
t84 -33z" />
    <glyph glyph-name="c" unicode="c" 
d="M308 -10q-101 0 -162 56.5t-61 155.5v147q0 98 61 154.5t162 56.5q97 0 156.5 -51.5t62.5 -140.5h-98q-3 50 -35.5 77.5t-85.5 27.5q-57 0 -90.5 -32.5t-33.5 -91.5v-147q0 -60 33.5 -92t90.5 -32q54 0 86 27t35 77h98q-3 -89 -62.5 -140.5t-156.5 -51.5z" />
    <glyph glyph-name="d" unicode="d" 
d="M264 -10q-83 0 -132 55.5t-49 150.5v158q0 95 49 150.5t132 55.5q61 0 101.5 -31t49.5 -85v0l-2 128v158h99v-730h-98v107v0q-9 -55 -49 -86t-101 -31zM298 76q53 0 84 33t31 93v146q0 60 -31 93t-84 33q-55 0 -85.5 -28.5t-30.5 -92.5v-156q0 -64 30.5 -92.5t85.5 -28.5
z" />
    <glyph glyph-name="e" unicode="e" 
d="M300 -10q-99 0 -159.5 59t-60.5 161v130q0 102 60.5 161t159.5 59q66 0 115.5 -26.5t77 -74t27.5 -110.5v-99h-343v-48q0 -60 33 -94t90 -34q48 0 79 18t37 50h99q-10 -70 -69 -111t-146 -41zM177 349v-26h246v26q0 63 -32 97t-91 34t-91 -34t-32 -97z" />
    <glyph glyph-name="f" unicode="f" 
d="M211 0v385h-158v90h158v111q0 66 43 105t117 39h161v-89h-161q-61 0 -61 -56v-110h222v-90h-222v-385h-99z" />
    <glyph glyph-name="g" unicode="g" 
d="M159 -180v88h155q45 0 72 25.5t27 69.5v46l2 95h-1q-10 -51 -48.5 -79t-98.5 -28q-85 0 -134 54.5t-49 149.5v113q0 95 49 150.5t134 55.5q58 0 96.5 -28t49.5 -77h1v95h97v-548q0 -84 -53 -133t-144 -49h-155zM298 120q53 0 84 33t31 93v103q0 59 -31 92t-84 33
q-55 0 -85 -31.5t-30 -85.5v-120q0 -54 30 -85.5t85 -31.5z" />
    <glyph glyph-name="h" unicode="h" 
d="M88 0v730h99v-180l-1 -105h1q7 54 45.5 84.5t101.5 30.5q82 0 131 -52t49 -140v-368h-99v353q0 59 -30 91t-82 32q-54 0 -85 -33.5t-31 -93.5v-349h-99z" />
    <glyph glyph-name="i" unicode="i" 
d="M83 0v90h193v370h-173v90h272v-460h181v-90h-473zM316 647q-34 0 -54 17.5t-20 47.5q0 31 20 49t54 18t54 -18t20 -49q0 -30 -20 -47.5t-54 -17.5z" />
    <glyph glyph-name="j" unicode="j" 
d="M88 -180v90h129q59 0 91.5 32.5t32.5 90.5v427h-258v90h357v-518q0 -97 -60 -154.5t-161 -57.5h-131zM382 647q-34 0 -54 17.5t-20 47.5q0 31 20 49t54 18t54 -18t20 -49q0 -30 -20 -47.5t-54 -17.5z" />
    <glyph glyph-name="k" unicode="k" 
d="M93 0v730h99v-404h101l148 224h112l-173 -263l182 -287h-114l-154 241h-102v-241h-99z" />
    <glyph glyph-name="l" unicode="l" 
d="M382 0q-75 0 -120 44t-45 117v479h-188v90h287v-568q0 -33 18.5 -52.5t50.5 -19.5h167v-90h-170z" />
    <glyph glyph-name="m" unicode="m" 
d="M57 0v550h84v-75h3q4 38 28.5 61.5t62.5 23.5q37 0 62 -22t36 -59v0q6 38 31 59.5t63 21.5q52 0 84 -39.5t32 -102.5v-418h-90v417q0 31 -15.5 49.5t-41.5 18.5t-41 -18t-15 -50v-417h-80v417q0 31 -15 49.5t-41 18.5t-41.5 -18t-15.5 -50v-417h-90z" />
    <glyph glyph-name="n" unicode="n" 
d="M88 0v550h98v-105h1q7 54 45.5 84.5t101.5 30.5q82 0 131 -52t49 -140v-368h-99v352q0 60 -30 92t-82 32q-54 0 -85 -33.5t-31 -93.5v-349h-99z" />
    <glyph glyph-name="o" unicode="o" 
d="M300 -8q-101 0 -160.5 58t-59.5 162v126q0 104 59.5 162t160.5 58t160.5 -58t59.5 -162v-126q0 -104 -59.5 -162t-160.5 -58zM300 79q56 0 88.5 31.5t32.5 92.5v144q0 61 -32.5 92.5t-88.5 31.5t-88.5 -31.5t-32.5 -92.5v-144q0 -61 32.5 -92.5t88.5 -31.5z" />
    <glyph glyph-name="p" unicode="p" 
d="M88 -180v730h98v-106h1q8 54 48 85t102 31q82 0 131 -55.5t49 -150.5v-157q0 -96 -49 -151.5t-131 -55.5q-61 0 -101 31t-49 85h-2l2 -127v-159h-99zM302 76q55 0 85.5 28.5t30.5 92.5v156q0 64 -30.5 92.5t-85.5 28.5q-53 0 -84 -33t-31 -93v-146q0 -60 31 -93t84 -33z
" />
    <glyph glyph-name="q" unicode="q" 
d="M413 -180v159l2 125h-2q-10 -53 -49.5 -83.5t-99.5 -30.5q-83 0 -132 55.5t-49 151.5v157q0 95 49 150.5t132 55.5q61 0 101 -31t49 -85v0v106h98v-730h-99zM298 76q53 0 84 33t31 93v146q0 60 -31 93t-84 33q-55 0 -85.5 -28t-30.5 -89v-164q0 -61 30.5 -89t85.5 -28z
" />
    <glyph glyph-name="r" unicode="r" 
d="M108 0v550h98v-106h1q8 54 46.5 85t102.5 31q85 0 132 -52.5t47 -147.5v-48h-99v47q0 115 -113 115q-57 0 -86.5 -33t-29.5 -94v-347h-99z" />
    <glyph glyph-name="s" unicode="s" 
d="M278 -8q-94 0 -146 42t-52 118h98q0 -36 26.5 -56.5t73.5 -20.5h44q49 0 75.5 21t26.5 59q0 67 -66 75l-148 21q-59 9 -91 48.5t-32 102.5q0 74 50 115t140 41h44q84 0 136 -40t55 -106h-100q-2 28 -26 46.5t-65 18.5h-44q-45 0 -69.5 -20t-24.5 -54q0 -55 55 -62
l139 -20q143 -19 143 -166q0 -78 -51.5 -120.5t-146.5 -42.5h-44z" />
    <glyph glyph-name="t" unicode="t" 
d="M355 0q-71 0 -112.5 41t-41.5 109v310h-157v90h157v155h99v-155h223v-90h-223v-309q0 -27 15.5 -44t41.5 -17h161v-90h-163z" />
    <glyph glyph-name="u" unicode="u" 
d="M299 -10q-97 0 -155 57t-58 155v348h99v-348q0 -58 30.5 -91.5t83.5 -33.5q54 0 85 33.5t31 91.5v348h99v-348q0 -98 -58.5 -155t-156.5 -57z" />
    <glyph glyph-name="v" unicode="v" 
d="M236 0l-186 550h105l117 -361q10 -32 18 -62.5t12 -48.5q4 18 11 48.5t17 62.5l116 361h105l-187 -550h-128z" />
    <glyph glyph-name="w" unicode="w" 
d="M116 0l-89 550h84l54 -375q3 -25 6 -54t4 -47q2 18 5 47t7 54l66 375h94l66 -375q4 -25 7.5 -53.5t5.5 -47.5l5 47.5t6 53.5l56 375h80l-93 -550h-106l-61 370q-4 27 -7.5 60t-5.5 52q-1 -19 -5.5 -52t-8.5 -60l-63 -370h-107z" />
    <glyph glyph-name="x" unicode="x" 
d="M46 0l195 283l-182 267h115l103 -161q7 -12 13.5 -25l10.5 -21q3 8 9.5 21t13.5 25l103 161h115l-182 -268l194 -282h-116l-112 173q-7 11 -14 25.5t-11 23.5q-5 -9 -12 -23.5t-15 -25.5l-112 -173h-116z" />
    <glyph glyph-name="y" unicode="y" 
d="M175 -180l80 213l-205 517h105l124 -325q8 -21 16 -45t11 -42q3 18 10 42t15 45l115 325h105l-273 -730h-103z" />
    <glyph glyph-name="z" unicode="z" 
d="M87 0v96l303 365h-295v89h407v-96l-308 -365h319v-89h-426z" />
    <glyph glyph-name="braceleft" unicode="{" 
d="M456 -110q-89 0 -140.5 44.5t-44.5 124.5l15 161q5 50 -14.5 72.5t-79.5 22.5h-118v89h118q60 0 79.5 23t14.5 73l-15 162q-7 79 44.5 123.5t140.5 44.5h51v-89h-47q-45 0 -69 -21t-21 -61l15 -162q6 -57 -27 -92t-104 -42q71 -8 104 -46t27 -94l-15 -162q-3 -40 21 -61
t69 -21h47v-89h-51z" />
    <glyph glyph-name="bar" unicode="|" 
d="M251 -110v940h99v-940h-99z" />
    <glyph glyph-name="braceright" unicode="}" 
d="M94 -110v89h46q45 0 70.5 21t19.5 61l-24 162q-8 55 21.5 93.5t80.5 47.5q-52 9 -81 43t-21 90l24 162q6 40 -19.5 61t-70.5 21h-46v89h51q58 0 102.5 -20t66.5 -57.5t15 -90.5l-24 -162q-7 -50 13.5 -73t80.5 -23h128v-89h-128q-59 0 -80 -22.5t-14 -72.5l24 -161
q7 -53 -15 -91t-66 -58t-103 -20h-51z" />
    <glyph glyph-name="asciitilde" unicode="~" 
d="M66 255v72q0 60 36.5 96t96.5 36q39 0 64 -13.5t42.5 -33t31 -39t28 -33t35.5 -13.5q44 0 44 52v71h91v-72q0 -59 -37 -95.5t-97 -36.5q-39 0 -64 13.5t-42.5 33t-31 39t-28 33t-34.5 13.5q-45 0 -45 -52v-71h-90z" />
    <glyph glyph-name="uni00A0" unicode="&#xa0;" 
 />
    <glyph glyph-name="exclamdown" unicode="&#xa1;" 
d="M285 432q-27 0 -44.5 17t-17.5 45q0 27 17.5 44t44.5 17h30q27 0 44.5 -17.5t17.5 -44.5t-16.5 -44t-45.5 -17h-30zM243 -180l13 512h88l13 -512h-114z" />
    <glyph glyph-name="cent" unicode="&#xa2;" 
d="M273 -140v132q-86 9 -137 64.5t-51 145.5v147q0 89 51 144.5t137 64.5v132h61v-131q86 -7 138 -57.5t55 -133.5h-98q-3 43 -28 69.5t-67 33.5v-392q42 7 67 33.5t28 69.5h98q-3 -83 -55 -133.5t-138 -57.5v-131h-61zM184 202q0 -50 24 -81t65 -40v388q-41 -9 -65 -39.5
t-24 -80.5v-147z" />
    <glyph glyph-name="sterling" unicode="&#xa3;" 
d="M75 0v109q24 17 49 42.5t42.5 53t17.5 52.5q0 24 -4 45h-106v86h73q-15 25 -30 48.5t-25.5 51t-10.5 65.5q0 84 59.5 135.5t159.5 51.5t158.5 -51.5t60.5 -141.5h-103q-1 48 -33 77t-84 29q-57 0 -87.5 -28t-30.5 -78q0 -33 12 -57.5t29.5 -48t32.5 -53.5h180v-86h-156
q2 -17 2 -36q0 -43 -18.5 -78.5t-45.5 -60.5t-52 -38h370v-89h-460z" />
    <glyph glyph-name="currency" unicode="&#xa4;" 
d="M495 113l-87 87q-46 -29 -107 -29t-108 29l-86 -86l-63 63l84 85q-33 48 -33 111t33 112l-86 86l64 64l88 -88q48 28 107 28q62 0 110 -31l84 85l63 -63l-83 -83q30 -49 30 -110q0 -31 -8.5 -59t-22.5 -52l85 -85zM301 244q54 0 90 37t36 92t-36 92t-90 37
q-55 0 -91.5 -37t-36.5 -92t36.5 -92t91.5 -37z" />
    <glyph glyph-name="yen" unicode="&#xa5;" 
d="M60 117v80h191v72h-191v79h154l-182 382h105l135 -288q12 -26 19.5 -47t9.5 -30q3 9 10.5 30t20.5 47l134 288h102l-182 -382h154v-79h-190v-72h190v-80h-190v-117h-99v117h-191z" />
    <glyph glyph-name="brokenbar" unicode="&#xa6;" 
d="M251 450v380h99v-380h-99zM251 -110v380h99v-380h-99z" />
    <glyph glyph-name="section" unicode="&#xa7;" 
d="M276 -154q-93 0 -147.5 41t-56.5 113h103q1 -31 28.5 -50t72.5 -19h47q49 0 77.5 22t28.5 61q0 34 -24.5 58t-73.5 32l-92 16q-48 8 -83 33.5t-54.5 62t-19.5 76.5q0 58 30.5 94t85.5 43v2q-52 12 -82.5 50t-30.5 96q0 75 52.5 119t142.5 44h47q82 0 134.5 -39t59.5 -107
h-103q-4 28 -28.5 44.5t-62.5 16.5h-47q-45 0 -71 -21t-26 -57q0 -32 17.5 -54t50.5 -28l117 -23q74 -14 115.5 -62.5t41.5 -109.5q0 -57 -34 -92t-85 -38v-3q22 -2 50.5 -18.5t50 -49.5t21.5 -83q0 -79 -55 -124.5t-150 -45.5h-47zM328 190q44 -8 71.5 23.5t27.5 83.5
q0 35 -21.5 61.5t-56.5 32.5l-71 13q-43 8 -70.5 -22.5t-27.5 -80.5q0 -38 20.5 -65t54.5 -33z" />
    <glyph glyph-name="dieresis" unicode="&#xa8;" 
d="M413 647q-31 0 -49 17.5t-18 47.5q0 31 18 49t49 18q30 0 48 -18t18 -49q0 -30 -18 -47.5t-48 -17.5zM187 647q-30 0 -48 17.5t-18 47.5q0 31 18 49t48 18q31 0 49 -18t18 -49q0 -30 -18 -47.5t-49 -17.5z" />
    <glyph glyph-name="copyright" unicode="&#xa9;" 
d="M300 110q-76 0 -133.5 30t-89.5 84t-32 126v150q0 72 32 126t89.5 84t133.5 30q77 0 134 -30t89 -84t32 -126v-150q0 -72 -32 -126t-89 -84t-134 -30zM300 160q60 0 105 23.5t70 66.5t25 100v150q0 57 -25 99.5t-70 66.5t-105 24t-105 -24t-70 -66.5t-25 -99.5v-150
q0 -57 25 -100t70 -66.5t105 -23.5zM305 245q-57 0 -91.5 32t-34.5 85v127q0 52 34.5 84t91.5 32q56 0 91 -32t35 -84h-68q0 26 -16 42t-42 16t-42 -16t-16 -42v-127q0 -27 16 -43t42 -16t42 16t16 43h68q0 -53 -35 -85t-91 -32z" />
    <glyph glyph-name="ordfeminine" unicode="&#xaa;" 
d="M273 450q-45 0 -72 23.5t-27 62.5t28.5 62.5t77.5 23.5h87v28q0 22 -16.5 34.5t-45.5 12.5q-25 0 -42 -10.5t-20 -27.5h-54q5 39 36 60t80 21q54 0 85.5 -24t31.5 -66v-195h-52v55h-3q-11 -28 -36 -44t-58 -16zM287 491q37 0 58.5 17t21.5 47v25h-87q-52 0 -52 -43
q0 -22 16 -34t43 -12z" />
    <glyph glyph-name="guillemotleft" unicode="&#xab;" 
d="M455 40l-187 240l187 240h111l-191 -238l191 -242h-111zM215 40l-187 240l187 240h113l-192 -238l192 -242h-113z" />
    <glyph glyph-name="logicalnot" unicode="&#xac;" 
d="M405 180v131h-305v89h400v-220h-95z" />
    <glyph glyph-name="uni00AD" unicode="&#xad;" 
d="M140 286v89h320v-89h-320z" />
    <glyph glyph-name="registered" unicode="&#xae;" 
d="M300 110q-76 0 -133.5 30t-89.5 84t-32 126v150q0 72 32 126t89.5 84t133.5 30q77 0 134 -30t89 -84t32 -126v-150q0 -72 -32 -126t-89 -84t-134 -30zM100 350q0 -57 25 -100t70 -66.5t105 -23.5t105 23.5t70 66.5t25 100v150q0 57 -25 99.5t-70 66.5t-105 24t-105 -24
t-70 -66.5t-25 -99.5v-150zM189 250v350h115q54 0 86.5 -29t32.5 -77q0 -68 -60 -94l66 -150h-67l-59 139h-51v-139h-63zM252 442h52q25 0 40 14t15 39t-15 39.5t-40 14.5h-52v-107z" />
    <glyph glyph-name="macron" unicode="&#xaf;" 
d="M137 668v80h326v-80h-326z" />
    <glyph glyph-name="degree" unicode="&#xb0;" 
d="M300 444q-68 0 -110.5 41t-42.5 107t42.5 107t110.5 41t110.5 -41t42.5 -107t-42.5 -107t-110.5 -41zM300 505q37 0 60 24t23 63t-23 63.5t-60 24.5t-60 -24.5t-23 -63.5t23 -63t60 -24z" />
    <glyph glyph-name="plusminus" unicode="&#xb1;" 
d="M69 0v76h183v214h-188v89h188v191h97v-191h188v-89h-188v-214h182v-76h-462z" />
    <glyph glyph-name="uni00B2" unicode="&#xb2;" 
d="M155 382v80l182 155q20 16 32 34.5t12 40.5q0 34 -23 55t-57 21q-33 0 -56.5 -21.5t-23.5 -56.5h-75q2 43 23 75.5t55.5 51t76.5 18.5q45 0 80 -18t55.5 -49.5t20.5 -73.5q0 -36 -21.5 -68t-58.5 -62l-136 -114h217v-68h-303z" />
    <glyph glyph-name="uni00B3" unicode="&#xb3;" 
d="M300 377q-72 0 -117.5 41t-45.5 107h75q0 -35 24.5 -58t63.5 -23t63.5 23.5t24.5 59.5q0 35 -24.5 58t-62.5 23h-41v68l112 86h-213v68h289v-74l-114 -89q59 -8 94.5 -46t35.5 -94q0 -67 -45.5 -108.5t-118.5 -41.5z" />
    <glyph glyph-name="acute" unicode="&#xb4;" 
d="M228 645l105 140h107l-112 -140h-100z" />
    <glyph glyph-name="uni00B5" unicode="&#xb5;" 
d="M89 -180v730h99v-348q0 -60 28.5 -93t82.5 -33q53 0 83.5 33t30.5 93v348h99v-550h-97v105h-2q-4 -53 -30.5 -84t-84.5 -31t-82.5 31t-27.5 84h-2l2 -126v-159h-99z" />
    <glyph glyph-name="paragraph" unicode="&#xb6;" 
d="M253 -180v490q-86 0 -138 47t-52 123v80q0 77 52 123.5t138 46.5h84v-910h-84zM424 -180v910h85v-910h-85z" />
    <glyph glyph-name="periodcentered" unicode="&#xb7;" 
d="M300 259q-38 0 -61.5 23t-23.5 59q0 38 23.5 62t61.5 24t61.5 -24t23.5 -62q0 -36 -23.5 -59t-61.5 -23z" />
    <glyph glyph-name="cedilla" unicode="&#xb8;" 
d="M203 -206v57h71q22 0 36 11.5t14 24.5q0 18 -28 31t-78 13l35 94h59l-21 -61q27 -2 55.5 -12.5t48.5 -28.5t20 -45q0 -35 -34 -59.5t-89 -24.5h-89z" />
    <glyph glyph-name="uni00B9" unicode="&#xb9;" 
d="M149 382v68h143v317l-140 -86v78l115 71h100v-380h114v-68h-332z" />
    <glyph glyph-name="ordmasculine" unicode="&#xba;" 
d="M300 446q-53 0 -85.5 29.5t-32.5 77.5v76q0 48 32.5 77.5t85.5 29.5t85.5 -29.5t32.5 -77.5v-76q0 -48 -32.5 -77.5t-85.5 -29.5zM300 490q29 0 46.5 17.5t17.5 45.5v76q0 28 -17.5 45t-46.5 17t-46 -17t-17 -45v-76q0 -28 17 -45.5t46 -17.5z" />
    <glyph glyph-name="guillemotright" unicode="&#xbb;" 
d="M273 40l188 241l-189 239h113l187 -240l-187 -240h-112zM35 40l188 241l-189 239h111l187 -240l-187 -240h-110z" />
    <glyph glyph-name="onequarter" unicode="&#xbc;" 
d="M3 0l279 405h-251v54h117v228q-4 -7 -13 -18t-20 -20l-62 -53v74l70 60h90v-271h96v-16l198 287h90l-504 -730h-90zM477 0v69h-174v83l126 173h74l-135 -187v-16h109v86h64v-208h-64z" />
    <glyph glyph-name="onehalf" unicode="&#xbd;" 
d="M3 0l279 405h-251v54h117v229q-4 -8 -13 -19t-20 -20l-62 -53v74l70 60h90v-271h104v-3l190 274h90l-504 -730h-90zM314 0v68l124 70q65 38 65 78q0 28 -17 44.5t-45 16.5t-45 -16.5t-17 -44.5h-65q2 52 37 83t90 31q57 0 91.5 -30.5t34.5 -80.5q0 -65 -87 -114l-88 -49
v-10q11 2 31.5 5t41.5 3h107v-54h-258z" />
    <glyph glyph-name="threequarters" unicode="&#xbe;" 
d="M154 400q-58 0 -93.5 29t-35.5 76h64q0 -23 18 -37.5t47 -14.5t46.5 14.5t17.5 38.5q0 23 -17.5 38t-45.5 15h-30v58l78 61h-154v52h218v-56l-84 -65q45 -6 72.5 -33.5t27.5 -69.5q0 -48 -35.5 -77t-93.5 -29zM3 0l504 730h90l-504 -730h-90zM477 0v69h-174v83l126 173
h74l-135 -187v-16h109v86h64v-208h-64z" />
    <glyph glyph-name="questiondown" unicode="&#xbf;" 
d="M337 432q-30 0 -46.5 17t-16.5 44t17.5 44.5t45.5 17.5h30q27 0 44.5 -17t17.5 -44q0 -28 -17.5 -45t-44.5 -17h-30zM344 -180q-71 0 -123 26.5t-81 75t-29 113.5q0 58 24.5 103.5t67.5 72.5t100 30v91h96v-175h-57q-61 0 -96.5 -33.5t-35.5 -88.5q0 -56 36 -89t97 -33
h131v-93h-130z" />
    <glyph glyph-name="Agrave" unicode="&#xc0;" 
d="M46 0l189 730h131l188 -730h-101l-46 190h-214l-46 -190h-101zM213 272h174l-52 218q-15 60 -24 102t-11 57q-2 -15 -11 -57t-23 -101zM263 810l-116 140h110l109 -140h-103z" />
    <glyph glyph-name="Aacute" unicode="&#xc1;" 
d="M46 0l189 730h131l188 -730h-101l-46 190h-214l-46 -190h-101zM213 272h174l-52 218q-15 60 -24 102t-11 57q-2 -15 -11 -57t-23 -101zM238 810l105 140h107l-112 -140h-100z" />
    <glyph glyph-name="Acircumflex" unicode="&#xc2;" 
d="M46 0l189 730h131l188 -730h-101l-46 190h-214l-46 -190h-101zM213 272h174l-52 218q-15 60 -24 102t-11 57q-2 -15 -11 -57t-23 -101zM115 810l139 140h91l140 -140h-105l-80 77l-78 -77h-107z" />
    <glyph glyph-name="Atilde" unicode="&#xc3;" 
d="M46 0l189 730h131l188 -730h-101l-46 190h-214l-46 -190h-101zM213 272h174l-52 218q-15 60 -24 102t-11 57q-2 -15 -11 -57t-23 -101zM370 813q-30 0 -49 10t-32 24t-25 24t-29 10q-30 0 -30 -34v-29h-68v31q0 46 25.5 72t67.5 26q30 0 49 -10t32 -24t25 -24t29 -10
q30 0 30 34v29h68v-30q0 -47 -25.5 -73t-67.5 -26z" />
    <glyph glyph-name="Adieresis" unicode="&#xc4;" 
d="M46 0l189 730h131l188 -730h-101l-46 190h-214l-46 -190h-101zM213 272h174l-52 218q-15 60 -24 102t-11 57q-2 -15 -11 -57t-23 -101zM413 815q-31 0 -49 17.5t-18 47.5q0 31 18 49t49 18q30 0 48 -18t18 -49q0 -30 -18 -47.5t-48 -17.5zM187 815q-30 0 -48 17.5
t-18 47.5q0 31 18 49t48 18q31 0 49 -18t18 -49q0 -30 -18 -47.5t-49 -17.5z" />
    <glyph glyph-name="Aring" unicode="&#xc5;" 
d="M46 0l189 730h131l188 -730h-101l-46 190h-214l-46 -190h-101zM213 272h174l-52 218q-15 60 -24 102t-11 57q-2 -15 -11 -57t-23 -101zM300 764q-55 0 -89 32t-34 84t34 84t89 32t89 -32t34 -84t-34 -84t-89 -32zM300 820q27 0 43.5 16.5t16.5 43.5t-16.5 44t-43.5 17
t-43.5 -17t-16.5 -44t16.5 -43.5t43.5 -16.5z" />
    <glyph glyph-name="AE" unicode="&#xc6;" 
d="M26 0l143 730h403v-88h-180v-220h155v-89h-155v-244h180v-89h-272v197h-138l-38 -197h-98zM177 277h123v365h-55z" />
    <glyph glyph-name="Ccedilla" unicode="&#xc7;" 
d="M209 -206v57h71q22 0 36 11.5t14 24.5q0 18 -28 31t-79 13l25 65q-75 16 -117.5 69.5t-42.5 136.5v327q0 98 59.5 154.5t160.5 56.5q100 0 159.5 -57t59.5 -154h-99q0 59 -32 91t-88 32q-57 0 -89 -32t-32 -91v-327q0 -60 32 -92t89 -32q56 0 88 32t32 92h99
q0 -98 -59.5 -155t-159.5 -57h-2l-9 -26q27 -2 55.5 -12.5t48 -28.5t19.5 -45q0 -35 -33.5 -59.5t-89.5 -24.5h-88z" />
    <glyph glyph-name="Egrave" unicode="&#xc8;" 
d="M97 0v730h425v-89h-327v-217h292v-86h-292v-249h327v-89h-425zM272 810l-116 140h110l109 -140h-103z" />
    <glyph glyph-name="Eacute" unicode="&#xc9;" 
d="M97 0v730h425v-89h-327v-217h292v-86h-292v-249h327v-89h-425zM247 810l105 140h107l-112 -140h-100z" />
    <glyph glyph-name="Ecircumflex" unicode="&#xca;" 
d="M97 0v730h425v-89h-327v-217h292v-86h-292v-249h327v-89h-425zM124 810l139 140h91l140 -140h-105l-80 77l-78 -77h-107z" />
    <glyph glyph-name="Edieresis" unicode="&#xcb;" 
d="M97 0v730h425v-89h-327v-217h292v-86h-292v-249h327v-89h-425zM422 815q-31 0 -49 17.5t-18 47.5q0 31 18 49t49 18q30 0 48 -18t18 -49q0 -30 -18 -47.5t-48 -17.5zM196 815q-30 0 -48 17.5t-18 47.5q0 31 18 49t48 18q31 0 49 -18t18 -49q0 -30 -18 -47.5t-49 -17.5z
" />
    <glyph glyph-name="Igrave" unicode="&#xcc;" 
d="M101 0v90h149v550h-149v90h398v-90h-149v-550h149v-90h-398zM263 810l-116 140h110l109 -140h-103z" />
    <glyph glyph-name="Iacute" unicode="&#xcd;" 
d="M101 0v90h149v550h-149v90h398v-90h-149v-550h149v-90h-398zM238 810l105 140h107l-112 -140h-100z" />
    <glyph glyph-name="Icircumflex" unicode="&#xce;" 
d="M101 0v90h149v550h-149v90h398v-90h-149v-550h149v-90h-398zM115 810l139 140h91l140 -140h-105l-80 77l-78 -77h-107z" />
    <glyph glyph-name="Idieresis" unicode="&#xcf;" 
d="M101 0v90h149v550h-149v90h398v-90h-149v-550h149v-90h-398zM413 815q-31 0 -49 17.5t-18 47.5q0 31 18 49t49 18q30 0 48 -18t18 -49q0 -30 -18 -47.5t-48 -17.5zM187 815q-30 0 -48 17.5t-18 47.5q0 31 18 49t48 18q31 0 49 -18t18 -49q0 -30 -18 -47.5t-49 -17.5z" />
    <glyph glyph-name="Eth" unicode="&#xd0;" 
d="M88 0v334h-78v78h78v318h196q71 0 123.5 -27.5t81.5 -77t29 -116.5v-287q0 -67 -29 -117t-81.5 -77.5t-123.5 -27.5h-196zM187 88h97q63 0 99 36t36 98v287q0 62 -36 97.5t-99 35.5h-97v-230h103v-78h-103v-246z" />
    <glyph glyph-name="Ntilde" unicode="&#xd1;" 
d="M86 0v730h128l218 -616q-3 26 -5.5 64.5t-4 80t-1.5 78.5v393h94v-730h-129l-216 616q2 -26 4 -63.5t3.5 -78.5t1.5 -77v-397h-93zM370 813q-30 0 -49 10t-32 24t-25 24t-29 10q-30 0 -30 -34v-29h-68v31q0 46 25.5 72t67.5 26q30 0 49 -10t32 -24t25 -24t29 -10
q30 0 30 34v29h68v-30q0 -47 -25.5 -73t-67.5 -26z" />
    <glyph glyph-name="Ograve" unicode="&#xd2;" 
d="M300 -10q-100 0 -158 58t-58 164v307q0 105 58 163t158 58t158 -57.5t58 -163.5v-307q0 -106 -58 -164t-158 -58zM300 78q56 0 86.5 32t30.5 92v327q0 59 -30 91t-87 32t-87 -32t-30 -91v-327q0 -60 30.5 -92t86.5 -32zM263 810l-116 140h110l109 -140h-103z" />
    <glyph glyph-name="Oacute" unicode="&#xd3;" 
d="M300 -10q-100 0 -158 58t-58 164v307q0 105 58 163t158 58t158 -57.5t58 -163.5v-307q0 -106 -58 -164t-158 -58zM300 78q56 0 86.5 32t30.5 92v327q0 59 -30 91t-87 32t-87 -32t-30 -91v-327q0 -60 30.5 -92t86.5 -32zM238 810l105 140h107l-112 -140h-100z" />
    <glyph glyph-name="Ocircumflex" unicode="&#xd4;" 
d="M300 -10q-100 0 -158 58t-58 164v307q0 105 58 163t158 58t158 -57.5t58 -163.5v-307q0 -106 -58 -164t-158 -58zM300 78q56 0 86.5 32t30.5 92v327q0 59 -30 91t-87 32t-87 -32t-30 -91v-327q0 -60 30.5 -92t86.5 -32zM115 810l139 140h91l140 -140h-105l-80 77l-78 -77
h-107z" />
    <glyph glyph-name="Otilde" unicode="&#xd5;" 
d="M300 -10q-100 0 -158 58t-58 164v307q0 105 58 163t158 58t158 -57.5t58 -163.5v-307q0 -106 -58 -164t-158 -58zM300 78q56 0 86.5 32t30.5 92v327q0 59 -30 91t-87 32t-87 -32t-30 -91v-327q0 -60 30.5 -92t86.5 -32zM370 813q-30 0 -49 10t-32 24t-25 24t-29 10
q-30 0 -30 -34v-29h-68v31q0 46 25.5 72t67.5 26q30 0 49 -10t32 -24t25 -24t29 -10q30 0 30 34v29h68v-30q0 -47 -25.5 -73t-67.5 -26z" />
    <glyph glyph-name="Odieresis" unicode="&#xd6;" 
d="M300 -10q-100 0 -158 58t-58 164v307q0 105 58 163t158 58t158 -57.5t58 -163.5v-307q0 -106 -58 -164t-158 -58zM300 78q56 0 86.5 32t30.5 92v327q0 59 -30 91t-87 32t-87 -32t-30 -91v-327q0 -60 30.5 -92t86.5 -32zM413 815q-31 0 -49 17.5t-18 47.5q0 31 18 49
t49 18q30 0 48 -18t18 -49q0 -30 -18 -47.5t-48 -17.5zM187 815q-30 0 -48 17.5t-18 47.5q0 31 18 49t48 18q31 0 49 -18t18 -49q0 -30 -18 -47.5t-49 -17.5z" />
    <glyph glyph-name="multiply" unicode="&#xd7;" 
d="M160 131l-59 59l138 138l-138 139l59 59l138 -138l142 141l58 -60l-141 -141l139 -138l-60 -59l-138 138z" />
    <glyph glyph-name="Oslash" unicode="&#xd8;" 
d="M32 -40l76 133q-24 47 -24 109v327q0 98 58 154.5t158 56.5q90 0 147 -46l32 56h89l-70 -124q18 -43 18 -97v-327q0 -99 -58 -155.5t-158 -56.5q-84 0 -139 40l-40 -70h-89zM182 529v-304l216 382q-30 45 -98 45q-57 0 -87.5 -32t-30.5 -91zM300 78q57 0 87.5 32t30.5 92
v283l-209 -370q30 -37 91 -37z" />
    <glyph glyph-name="Ugrave" unicode="&#xd9;" 
d="M300 -10q-103 0 -158.5 57t-55.5 155v528h99v-528q0 -58 28.5 -91t86.5 -33q57 0 86.5 33t29.5 91v528h99v-528q0 -99 -55.5 -155.5t-159.5 -56.5zM263 810l-116 140h110l109 -140h-103z" />
    <glyph glyph-name="Uacute" unicode="&#xda;" 
d="M300 -10q-103 0 -158.5 57t-55.5 155v528h99v-528q0 -58 28.5 -91t86.5 -33q57 0 86.5 33t29.5 91v528h99v-528q0 -99 -55.5 -155.5t-159.5 -56.5zM238 810l105 140h107l-112 -140h-100z" />
    <glyph glyph-name="Ucircumflex" unicode="&#xdb;" 
d="M300 -10q-103 0 -158.5 57t-55.5 155v528h99v-528q0 -58 28.5 -91t86.5 -33q57 0 86.5 33t29.5 91v528h99v-528q0 -99 -55.5 -155.5t-159.5 -56.5zM115 810l139 140h91l140 -140h-105l-80 77l-78 -77h-107z" />
    <glyph glyph-name="Udieresis" unicode="&#xdc;" 
d="M300 -10q-103 0 -158.5 57t-55.5 155v528h99v-528q0 -58 28.5 -91t86.5 -33q57 0 86.5 33t29.5 91v528h99v-528q0 -99 -55.5 -155.5t-159.5 -56.5zM413 815q-31 0 -49 17.5t-18 47.5q0 31 18 49t49 18q30 0 48 -18t18 -49q0 -30 -18 -47.5t-48 -17.5zM187 815
q-30 0 -48 17.5t-18 47.5q0 31 18 49t48 18q31 0 49 -18t18 -49q0 -30 -18 -47.5t-49 -17.5z" />
    <glyph glyph-name="Yacute" unicode="&#xdd;" 
d="M251 0v271l-219 459h105l135 -288q12 -26 19.5 -47t9.5 -30q3 9 10.5 30t20.5 47l134 288h102l-218 -459v-271h-99zM238 810l105 140h107l-112 -140h-100z" />
    <glyph glyph-name="Thorn" unicode="&#xde;" 
d="M87 0v730h99v-148h148q67 0 116 -25t76 -70.5t27 -106.5q0 -93 -59.5 -147.5t-159.5 -54.5h-148v-178h-99zM186 265h144q57 0 89 30.5t32 84.5t-32.5 85t-88.5 31h-144v-231z" />
    <glyph glyph-name="germandbls" unicode="&#xdf;" 
d="M87 0v531q0 62 27.5 109t76 73.5t112.5 26.5t112 -23.5t75.5 -65.5t27.5 -97q0 -59 -32.5 -104t-84.5 -57v-3q62 -11 100.5 -62.5t38.5 -123.5q0 -60 -28.5 -106t-79 -72t-116.5 -26h-57v89h47q59 0 96 35t37 90q0 56 -34.5 90.5t-90.5 34.5h-55v85h44q51 0 83.5 31.5
t32.5 83.5q0 51 -32.5 82.5t-83.5 31.5q-52 0 -84.5 -34t-32.5 -88v-531h-99z" />
    <glyph glyph-name="agrave" unicode="&#xe0;" 
d="M249 -10q-85 0 -134.5 47.5t-49.5 124.5t51.5 124t135.5 47h161v42q0 101 -112 101q-50 0 -80.5 -18.5t-32.5 -51.5h-98q5 67 61 110.5t150 43.5q101 0 156 -48t55 -135v-377h-97v101h-2q-7 -51 -50.5 -81t-113.5 -30zM275 73q63 0 100.5 30.5t37.5 83.5v73h-152
q-43 0 -69.5 -25.5t-26.5 -67.5q0 -43 29 -68.5t81 -25.5zM268 645l-116 140h110l109 -140h-103z" />
    <glyph glyph-name="aacute" unicode="&#xe1;" 
d="M249 -10q-85 0 -134.5 47.5t-49.5 124.5t51.5 124t135.5 47h161v42q0 101 -112 101q-50 0 -80.5 -18.5t-32.5 -51.5h-98q5 67 61 110.5t150 43.5q101 0 156 -48t55 -135v-377h-97v101h-2q-7 -51 -50.5 -81t-113.5 -30zM275 73q63 0 100.5 30.5t37.5 83.5v73h-152
q-43 0 -69.5 -25.5t-26.5 -67.5q0 -43 29 -68.5t81 -25.5zM243 645l105 140h107l-112 -140h-100z" />
    <glyph glyph-name="acircumflex" unicode="&#xe2;" 
d="M249 -10q-85 0 -134.5 47.5t-49.5 124.5t51.5 124t135.5 47h161v42q0 101 -112 101q-50 0 -80.5 -18.5t-32.5 -51.5h-98q5 67 61 110.5t150 43.5q101 0 156 -48t55 -135v-377h-97v101h-2q-7 -51 -50.5 -81t-113.5 -30zM275 73q63 0 100.5 30.5t37.5 83.5v73h-152
q-43 0 -69.5 -25.5t-26.5 -67.5q0 -43 29 -68.5t81 -25.5zM120 645l139 140h91l140 -140h-105l-80 77l-78 -77h-107z" />
    <glyph glyph-name="atilde" unicode="&#xe3;" 
d="M249 -10q-85 0 -134.5 47.5t-49.5 124.5t51.5 124t135.5 47h161v42q0 101 -112 101q-50 0 -80.5 -18.5t-32.5 -51.5h-98q5 67 61 110.5t150 43.5q101 0 156 -48t55 -135v-377h-97v101h-2q-7 -51 -50.5 -81t-113.5 -30zM275 73q63 0 100.5 30.5t37.5 83.5v73h-152
q-43 0 -69.5 -25.5t-26.5 -67.5q0 -43 29 -68.5t81 -25.5zM375 648q-30 0 -49 10t-32 24t-25 24t-29 10q-30 0 -30 -34v-29h-68v31q0 46 25.5 72t67.5 26q30 0 49 -10t32 -24t25 -24t29 -10q30 0 30 34v29h68v-30q0 -47 -25.5 -73t-67.5 -26z" />
    <glyph glyph-name="adieresis" unicode="&#xe4;" 
d="M249 -10q-85 0 -134.5 47.5t-49.5 124.5t51.5 124t135.5 47h161v42q0 101 -112 101q-50 0 -80.5 -18.5t-32.5 -51.5h-98q5 67 61 110.5t150 43.5q101 0 156 -48t55 -135v-377h-97v101h-2q-7 -51 -50.5 -81t-113.5 -30zM275 73q63 0 100.5 30.5t37.5 83.5v73h-152
q-43 0 -69.5 -25.5t-26.5 -67.5q0 -43 29 -68.5t81 -25.5zM418 647q-31 0 -49 17.5t-18 47.5q0 31 18 49t49 18q30 0 48 -18t18 -49q0 -30 -18 -47.5t-48 -17.5zM192 647q-30 0 -48 17.5t-18 47.5q0 31 18 49t48 18q31 0 49 -18t18 -49q0 -30 -18 -47.5t-49 -17.5z" />
    <glyph glyph-name="aring" unicode="&#xe5;" 
d="M249 -10q-85 0 -134.5 47.5t-49.5 124.5t51.5 124t135.5 47h161v42q0 101 -112 101q-50 0 -80.5 -18.5t-32.5 -51.5h-98q5 67 61 110.5t150 43.5q101 0 156 -48t55 -135v-377h-97v101h-2q-7 -51 -50.5 -81t-113.5 -30zM275 73q63 0 100.5 30.5t37.5 83.5v73h-152
q-43 0 -69.5 -25.5t-26.5 -67.5q0 -43 29 -68.5t81 -25.5zM305 607q-55 0 -89 32t-34 84t34 84t89 32t89 -32t34 -84t-34 -84t-89 -32zM305 662q27 0 43.5 16.5t16.5 44.5q0 27 -16.5 44t-43.5 17t-43.5 -17t-16.5 -44q0 -28 16.5 -44.5t43.5 -16.5z" />
    <glyph glyph-name="ae" unicode="&#xe6;" 
d="M178 -10q-65 0 -106 47t-41 122q0 74 42.5 120t110.5 46h76v74q0 40 -17 61.5t-48 21.5q-29 0 -47 -19.5t-18 -50.5h-85q0 66 38 107t99 41q48 0 82 -24.5t40 -64.5q5 40 37.5 64.5t78.5 24.5q65 0 105.5 -44.5t40.5 -115.5v-145h-220v-105q0 -39 17.5 -60.5t47.5 -21.5
t48 19.5t18 51.5h89q0 -66 -40.5 -107.5t-104.5 -41.5q-44 0 -77 25t-40 65q-8 -40 -43 -65t-83 -25zM346 325h131v75q0 38 -18 60t-48 22t-47.5 -22t-17.5 -60v-75zM192 68q31 0 49.5 22t18.5 60v105h-74q-30 0 -48 -25.5t-18 -68.5q0 -42 19 -67.5t53 -25.5z" />
    <glyph glyph-name="ccedilla" unicode="&#xe7;" 
d="M207 -206v57h71q22 0 36 11.5t14 24.5q0 18 -28 31t-79 13l25 65q-75 16 -118 69.5t-43 136.5v147q0 98 61 154.5t162 56.5q97 0 156.5 -51.5t62.5 -140.5h-98q-3 50 -35.5 77.5t-85.5 27.5q-57 0 -90.5 -32.5t-33.5 -91.5v-147q0 -60 33.5 -92t90.5 -32q54 0 86 27
t35 77h98q-3 -89 -62.5 -140.5t-156.5 -51.5h-4l-9 -26q27 -2 55.5 -12.5t48 -28.5t19.5 -45q0 -35 -33.5 -59.5t-89.5 -24.5h-88z" />
    <glyph glyph-name="egrave" unicode="&#xe8;" 
d="M300 -10q-99 0 -159.5 59t-60.5 161v130q0 102 60.5 161t159.5 59q66 0 115.5 -26.5t77 -74t27.5 -110.5v-99h-343v-48q0 -60 33 -94t90 -34q48 0 79 18t37 50h99q-10 -70 -69 -111t-146 -41zM177 349v-26h246v26q0 63 -32 97t-91 34t-91 -34t-32 -97zM263 645l-116 140
h110l109 -140h-103z" />
    <glyph glyph-name="eacute" unicode="&#xe9;" 
d="M300 -10q-99 0 -159.5 59t-60.5 161v130q0 102 60.5 161t159.5 59q66 0 115.5 -26.5t77 -74t27.5 -110.5v-99h-343v-48q0 -60 33 -94t90 -34q48 0 79 18t37 50h99q-10 -70 -69 -111t-146 -41zM177 349v-26h246v26q0 63 -32 97t-91 34t-91 -34t-32 -97zM238 645l105 140
h107l-112 -140h-100z" />
    <glyph glyph-name="ecircumflex" unicode="&#xea;" 
d="M300 -10q-99 0 -159.5 59t-60.5 161v130q0 102 60.5 161t159.5 59q66 0 115.5 -26.5t77 -74t27.5 -110.5v-99h-343v-48q0 -60 33 -94t90 -34q48 0 79 18t37 50h99q-10 -70 -69 -111t-146 -41zM177 349v-26h246v26q0 63 -32 97t-91 34t-91 -34t-32 -97zM115 645l139 140
h91l140 -140h-105l-80 77l-78 -77h-107z" />
    <glyph glyph-name="edieresis" unicode="&#xeb;" 
d="M300 -10q-99 0 -159.5 59t-60.5 161v130q0 102 60.5 161t159.5 59q66 0 115.5 -26.5t77 -74t27.5 -110.5v-99h-343v-48q0 -60 33 -94t90 -34q48 0 79 18t37 50h99q-10 -70 -69 -111t-146 -41zM177 349v-26h246v26q0 63 -32 97t-91 34t-91 -34t-32 -97zM413 647
q-31 0 -49 17.5t-18 47.5q0 31 18 49t49 18q30 0 48 -18t18 -49q0 -30 -18 -47.5t-48 -17.5zM187 647q-30 0 -48 17.5t-18 47.5q0 31 18 49t48 18q31 0 49 -18t18 -49q0 -30 -18 -47.5t-49 -17.5z" />
    <glyph glyph-name="igrave" unicode="&#xec;" 
d="M83 0v90h193v370h-173v90h272v-460h181v-90h-473zM279 645l-116 140h110l109 -140h-103z" />
    <glyph glyph-name="iacute" unicode="&#xed;" 
d="M83 0v90h193v370h-173v90h272v-460h181v-90h-473zM254 645l105 140h107l-112 -140h-100z" />
    <glyph glyph-name="icircumflex" unicode="&#xee;" 
d="M83 0v90h193v370h-173v90h272v-460h181v-90h-473zM131 645l139 140h91l140 -140h-105l-80 77l-78 -77h-107z" />
    <glyph glyph-name="idieresis" unicode="&#xef;" 
d="M83 0v90h193v370h-173v90h272v-460h181v-90h-473zM429 647q-31 0 -49 17.5t-18 47.5q0 31 18 49t49 18q30 0 48 -18t18 -49q0 -30 -18 -47.5t-48 -17.5zM203 647q-30 0 -48 17.5t-18 47.5q0 31 18 49t48 18q31 0 49 -18t18 -49q0 -30 -18 -47.5t-49 -17.5z" />
    <glyph glyph-name="eth" unicode="&#xf0;" 
d="M299 -8q-70 0 -122.5 28t-81.5 79t-29 119q0 67 26 116.5t73 77t110 27.5q45 0 76 -20.5t43 -39.5h12q-3 9 -19.5 35.5t-46.5 66.5l-63 88l-162 -73v84l116 52l-71 98h113l42 -61l151 68v-84l-105 -47l74 -106q47 -67 73.5 -138t26.5 -135q0 -71 -29.5 -124t-82.5 -82
t-124 -29zM299 78q62 0 99.5 38.5t37.5 101.5t-37.5 101.5t-99.5 38.5q-60 0 -97 -38.5t-37 -101.5t37 -101.5t97 -38.5z" />
    <glyph glyph-name="ntilde" unicode="&#xf1;" 
d="M88 0v550h98v-105h1q7 54 45.5 84.5t101.5 30.5q82 0 131 -52t49 -140v-368h-99v352q0 60 -30 92t-82 32q-54 0 -85 -33.5t-31 -93.5v-349h-99zM375 648q-30 0 -49 10t-32 24t-25 24t-29 10q-30 0 -30 -34v-29h-68v31q0 46 25.5 72t67.5 26q30 0 49 -10t32 -24t25 -24
t29 -10q30 0 30 34v29h68v-30q0 -47 -25.5 -73t-67.5 -26z" />
    <glyph glyph-name="ograve" unicode="&#xf2;" 
d="M300 -8q-101 0 -160.5 58t-59.5 162v126q0 104 59.5 162t160.5 58t160.5 -58t59.5 -162v-126q0 -104 -59.5 -162t-160.5 -58zM300 79q56 0 88.5 31.5t32.5 92.5v144q0 61 -32.5 92.5t-88.5 31.5t-88.5 -31.5t-32.5 -92.5v-144q0 -61 32.5 -92.5t88.5 -31.5zM263 645
l-116 140h110l109 -140h-103z" />
    <glyph glyph-name="oacute" unicode="&#xf3;" 
d="M300 -8q-101 0 -160.5 58t-59.5 162v126q0 104 59.5 162t160.5 58t160.5 -58t59.5 -162v-126q0 -104 -59.5 -162t-160.5 -58zM300 79q56 0 88.5 31.5t32.5 92.5v144q0 61 -32.5 92.5t-88.5 31.5t-88.5 -31.5t-32.5 -92.5v-144q0 -61 32.5 -92.5t88.5 -31.5zM238 645
l105 140h107l-112 -140h-100z" />
    <glyph glyph-name="ocircumflex" unicode="&#xf4;" 
d="M300 -8q-101 0 -160.5 58t-59.5 162v126q0 104 59.5 162t160.5 58t160.5 -58t59.5 -162v-126q0 -104 -59.5 -162t-160.5 -58zM300 79q56 0 88.5 31.5t32.5 92.5v144q0 61 -32.5 92.5t-88.5 31.5t-88.5 -31.5t-32.5 -92.5v-144q0 -61 32.5 -92.5t88.5 -31.5zM115 645
l139 140h91l140 -140h-105l-80 77l-78 -77h-107z" />
    <glyph glyph-name="otilde" unicode="&#xf5;" 
d="M300 -8q-101 0 -160.5 58t-59.5 162v126q0 104 59.5 162t160.5 58t160.5 -58t59.5 -162v-126q0 -104 -59.5 -162t-160.5 -58zM300 79q56 0 88.5 31.5t32.5 92.5v144q0 61 -32.5 92.5t-88.5 31.5t-88.5 -31.5t-32.5 -92.5v-144q0 -61 32.5 -92.5t88.5 -31.5zM370 648
q-30 0 -49 10t-32 24t-25 24t-29 10q-30 0 -30 -34v-29h-68v31q0 46 25.5 72t67.5 26q30 0 49 -10t32 -24t25 -24t29 -10q30 0 30 34v29h68v-30q0 -47 -25.5 -73t-67.5 -26z" />
    <glyph glyph-name="odieresis" unicode="&#xf6;" 
d="M300 -8q-101 0 -160.5 58t-59.5 162v126q0 104 59.5 162t160.5 58t160.5 -58t59.5 -162v-126q0 -104 -59.5 -162t-160.5 -58zM300 79q56 0 88.5 31.5t32.5 92.5v144q0 61 -32.5 92.5t-88.5 31.5t-88.5 -31.5t-32.5 -92.5v-144q0 -61 32.5 -92.5t88.5 -31.5zM413 647
q-31 0 -49 17.5t-18 47.5q0 31 18 49t49 18q30 0 48 -18t18 -49q0 -30 -18 -47.5t-48 -17.5zM187 647q-30 0 -48 17.5t-18 47.5q0 31 18 49t48 18q31 0 49 -18t18 -49q0 -30 -18 -47.5t-49 -17.5z" />
    <glyph glyph-name="divide" unicode="&#xf7;" 
d="M300 460q-39 0 -62.5 21t-23.5 56t23.5 56.5t62.5 21.5t62.5 -21.5t23.5 -56.5t-23.5 -56t-62.5 -21zM100 290v85h400v-85h-400zM300 50q-39 0 -62.5 21t-23.5 56t23.5 56t62.5 21t62.5 -21t23.5 -56t-23.5 -56t-62.5 -21z" />
    <glyph glyph-name="oslash" unicode="&#xf8;" 
d="M34 -30l79 113q-29 50 -29 119v147q0 98 58 154.5t158 56.5q75 0 128 -33l44 63h95l-84 -117q33 -51 33 -124v-147q0 -99 -58 -155.5t-158 -56.5q-79 0 -133 36l-40 -56h-93zM177 202q0 -14 2 -26l196 277q-30 20 -75 20q-58 0 -90.5 -33t-32.5 -91v-147zM300 78
q58 0 90.5 32.5t32.5 91.5v146q0 19 -3 35l-200 -282q31 -23 80 -23z" />
    <glyph glyph-name="ugrave" unicode="&#xf9;" 
d="M299 -10q-97 0 -155 57t-58 155v348h99v-348q0 -58 30.5 -91.5t83.5 -33.5q54 0 85 33.5t31 91.5v348h99v-348q0 -98 -58.5 -155t-156.5 -57zM263 645l-116 140h110l109 -140h-103z" />
    <glyph glyph-name="uacute" unicode="&#xfa;" 
d="M299 -10q-97 0 -155 57t-58 155v348h99v-348q0 -58 30.5 -91.5t83.5 -33.5q54 0 85 33.5t31 91.5v348h99v-348q0 -98 -58.5 -155t-156.5 -57zM238 645l105 140h107l-112 -140h-100z" />
    <glyph glyph-name="ucircumflex" unicode="&#xfb;" 
d="M299 -10q-97 0 -155 57t-58 155v348h99v-348q0 -58 30.5 -91.5t83.5 -33.5q54 0 85 33.5t31 91.5v348h99v-348q0 -98 -58.5 -155t-156.5 -57zM115 645l139 140h91l140 -140h-105l-80 77l-78 -77h-107z" />
    <glyph glyph-name="udieresis" unicode="&#xfc;" 
d="M299 -10q-97 0 -155 57t-58 155v348h99v-348q0 -58 30.5 -91.5t83.5 -33.5q54 0 85 33.5t31 91.5v348h99v-348q0 -98 -58.5 -155t-156.5 -57zM413 647q-31 0 -49 17.5t-18 47.5q0 31 18 49t49 18q30 0 48 -18t18 -49q0 -30 -18 -47.5t-48 -17.5zM187 647q-30 0 -48 17.5
t-18 47.5q0 31 18 49t48 18q31 0 49 -18t18 -49q0 -30 -18 -47.5t-49 -17.5z" />
    <glyph glyph-name="yacute" unicode="&#xfd;" 
d="M175 -180l80 213l-205 517h105l124 -325q8 -21 16 -45t11 -42q3 18 10 42t15 45l115 325h105l-273 -730h-103zM238 645l105 140h107l-112 -140h-100z" />
    <glyph glyph-name="thorn" unicode="&#xfe;" 
d="M84 -170v900h99v-158l-3 -128h1q9 54 49.5 85t101.5 31q83 0 132 -55.5t49 -150.5v-158q0 -95 -49.5 -150.5t-131.5 -55.5q-61 0 -101 31t-49 86v0v-277h-98zM298 76q55 0 85.5 28.5t30.5 92.5v156q0 64 -30.5 92.5t-85.5 28.5q-54 0 -84.5 -33t-30.5 -93v-146
q0 -60 30.5 -93t84.5 -33z" />
    <glyph glyph-name="ydieresis" unicode="&#xff;" 
d="M175 -180l80 213l-205 517h105l124 -325q8 -21 16 -45t11 -42q3 18 10 42t15 45l115 325h105l-273 -730h-103zM413 647q-31 0 -49 17.5t-18 47.5q0 31 18 49t49 18q30 0 48 -18t18 -49q0 -30 -18 -47.5t-48 -17.5zM187 647q-30 0 -48 17.5t-18 47.5q0 31 18 49t48 18
q31 0 49 -18t18 -49q0 -30 -18 -47.5t-49 -17.5z" />
    <glyph glyph-name="Amacron" unicode="&#x100;" 
d="M46 0l189 730h131l188 -730h-101l-46 190h-214l-46 -190h-101zM213 272h174l-52 218q-15 60 -24 102t-11 57q-2 -15 -11 -57t-23 -101zM137 837v80h326v-80h-326z" />
    <glyph glyph-name="amacron" unicode="&#x101;" 
d="M249 -10q-85 0 -134.5 47.5t-49.5 124.5t51.5 124t135.5 47h161v42q0 101 -112 101q-50 0 -80.5 -18.5t-32.5 -51.5h-98q5 67 61 110.5t150 43.5q101 0 156 -48t55 -135v-377h-97v101h-2q-7 -51 -50.5 -81t-113.5 -30zM275 73q63 0 100.5 30.5t37.5 83.5v73h-152
q-43 0 -69.5 -25.5t-26.5 -67.5q0 -43 29 -68.5t81 -25.5zM142 668v80h326v-80h-326z" />
    <glyph glyph-name="Abreve" unicode="&#x102;" 
d="M46 0l189 730h131l188 -730h-101l-46 190h-214l-46 -190h-101zM213 272h174l-52 218q-15 60 -24 102t-11 57q-2 -15 -11 -57t-23 -101zM300 804q-74 0 -119 40t-45 106h78q0 -37 23.5 -60t61.5 -23q39 0 63 23t24 60h78q0 -66 -45 -106t-119 -40z" />
    <glyph glyph-name="abreve" unicode="&#x103;" 
d="M249 -10q-85 0 -134.5 47.5t-49.5 124.5t51.5 124t135.5 47h161v42q0 101 -112 101q-50 0 -80.5 -18.5t-32.5 -51.5h-98q5 67 61 110.5t150 43.5q101 0 156 -48t55 -135v-377h-97v101h-2q-7 -51 -50.5 -81t-113.5 -30zM275 73q63 0 100.5 30.5t37.5 83.5v73h-152
q-43 0 -69.5 -25.5t-26.5 -67.5q0 -43 29 -68.5t81 -25.5zM305 639q-74 0 -119 40t-45 106h78q0 -37 23.5 -60t61.5 -23q39 0 63 23t24 60h78q0 -66 -45 -106t-119 -40z" />
    <glyph glyph-name="Aogonek" unicode="&#x104;" 
d="M46 0l189 730h131l188 -730h-23l-2 -2q-32 -26 -46.5 -48t-14.5 -41q0 -21 14.5 -35t39.5 -14h61v-66h-82q-57 0 -90.5 27t-33.5 68q0 28 17.5 55.5t58.5 56.5l-46 189h-214l-46 -190h-101zM213 272h174l-52 218q-15 60 -24 102t-11 57q-2 -15 -11 -57t-23 -101z" />
    <glyph glyph-name="aogonek" unicode="&#x105;" 
d="M249 -10q-85 0 -134.5 47.5t-49.5 124.5t51.5 124t135.5 47h161v42q0 101 -112 101q-50 0 -80.5 -18.5t-32.5 -51.5h-98q5 67 61 110.5t150 43.5q101 0 156 -48t55 -135v-377h2q-34 -28 -49 -50t-15 -41q0 -21 14.5 -35t39.5 -14h61v-66h-82q-56 0 -89.5 27t-33.5 68
q0 27 17 54.5t57 56.5h-19v101h-2q-7 -51 -50.5 -81t-113.5 -30zM275 73q63 0 100.5 30.5t37.5 83.5v73h-152q-43 0 -69.5 -25.5t-26.5 -67.5q0 -43 29 -68.5t81 -25.5z" />
    <glyph glyph-name="Cacute" unicode="&#x106;" 
d="M308 -10q-101 0 -160.5 56.5t-59.5 155.5v327q0 98 59.5 154.5t160.5 56.5q100 0 159.5 -57t59.5 -154h-99q0 59 -32 91t-88 32q-57 0 -89 -32t-32 -91v-327q0 -60 32 -92t89 -32q56 0 88 32t32 92h99q0 -98 -59.5 -155t-159.5 -57zM243 810l105 140h107l-112 -140h-100z
" />
    <glyph glyph-name="cacute" unicode="&#x107;" 
d="M308 -10q-101 0 -162 56.5t-61 155.5v147q0 98 61 154.5t162 56.5q97 0 156.5 -51.5t62.5 -140.5h-98q-3 50 -35.5 77.5t-85.5 27.5q-57 0 -90.5 -32.5t-33.5 -91.5v-147q0 -60 33.5 -92t90.5 -32q54 0 86 27t35 77h98q-3 -89 -62.5 -140.5t-156.5 -51.5zM246 645
l105 140h107l-112 -140h-100z" />
    <glyph glyph-name="Ccircumflex" unicode="&#x108;" 
d="M308 -10q-101 0 -160.5 56.5t-59.5 155.5v327q0 98 59.5 154.5t160.5 56.5q100 0 159.5 -57t59.5 -154h-99q0 59 -32 91t-88 32q-57 0 -89 -32t-32 -91v-327q0 -60 32 -92t89 -32q56 0 88 32t32 92h99q0 -98 -59.5 -155t-159.5 -57zM120 810l139 140h91l140 -140h-105
l-80 77l-78 -77h-107z" />
    <glyph glyph-name="ccircumflex" unicode="&#x109;" 
d="M308 -10q-101 0 -162 56.5t-61 155.5v147q0 98 61 154.5t162 56.5q97 0 156.5 -51.5t62.5 -140.5h-98q-3 50 -35.5 77.5t-85.5 27.5q-57 0 -90.5 -32.5t-33.5 -91.5v-147q0 -60 33.5 -92t90.5 -32q54 0 86 27t35 77h98q-3 -89 -62.5 -140.5t-156.5 -51.5zM123 645
l139 140h91l140 -140h-105l-80 77l-78 -77h-107z" />
    <glyph glyph-name="Cdotaccent" unicode="&#x10a;" 
d="M308 -10q-101 0 -160.5 56.5t-59.5 155.5v327q0 98 59.5 154.5t160.5 56.5q100 0 159.5 -57t59.5 -154h-99q0 59 -32 91t-88 32q-57 0 -89 -32t-32 -91v-327q0 -60 32 -92t89 -32q56 0 88 32t32 92h99q0 -98 -59.5 -155t-159.5 -57zM305 814q-34 0 -54 18t-20 48t20 48
t54 18t54 -18t20 -48t-20 -48t-54 -18z" />
    <glyph glyph-name="cdotaccent" unicode="&#x10b;" 
d="M308 -10q-101 0 -162 56.5t-61 155.5v147q0 98 61 154.5t162 56.5q97 0 156.5 -51.5t62.5 -140.5h-98q-3 50 -35.5 77.5t-85.5 27.5q-57 0 -90.5 -32.5t-33.5 -91.5v-147q0 -60 33.5 -92t90.5 -32q54 0 86 27t35 77h98q-3 -89 -62.5 -140.5t-156.5 -51.5zM308 647
q-34 0 -54 17.5t-20 47.5q0 31 20 49t54 18t54 -18t20 -49q0 -30 -20 -47.5t-54 -17.5z" />
    <glyph glyph-name="Ccaron" unicode="&#x10c;" 
d="M308 -10q-101 0 -160.5 56.5t-59.5 155.5v327q0 98 59.5 154.5t160.5 56.5q100 0 159.5 -57t59.5 -154h-99q0 59 -32 91t-88 32q-57 0 -89 -32t-32 -91v-327q0 -60 32 -92t89 -32q56 0 88 32t32 92h99q0 -98 -59.5 -155t-159.5 -57zM260 810l-140 140h105l80 -77l78 77
h107l-139 -140h-91z" />
    <glyph glyph-name="ccaron" unicode="&#x10d;" 
d="M308 -10q-101 0 -162 56.5t-61 155.5v147q0 98 61 154.5t162 56.5q97 0 156.5 -51.5t62.5 -140.5h-98q-3 50 -35.5 77.5t-85.5 27.5q-57 0 -90.5 -32.5t-33.5 -91.5v-147q0 -60 33.5 -92t90.5 -32q54 0 86 27t35 77h98q-3 -89 -62.5 -140.5t-156.5 -51.5zM263 645
l-140 140h105l80 -77l78 77h107l-139 -140h-91z" />
    <glyph glyph-name="Dcaron" unicode="&#x10e;" 
d="M88 0v730h196q71 0 123.5 -27.5t81.5 -77t29 -116.5v-287q0 -67 -29 -117t-81.5 -77.5t-123.5 -27.5h-196zM187 88h97q63 0 99 36t36 98v287q0 62 -36 97.5t-99 35.5h-97v-554zM255 810l-140 140h105l80 -77l78 77h107l-139 -140h-91z" />
    <glyph glyph-name="dcaron" unicode="&#x10f;" 
d="M224 -10q-75 0 -119.5 54t-44.5 147v168q0 92 44.5 146.5t119.5 54.5q56 0 91 -31t42 -84h3l-3 127v158h98v-730h-97v105h-1q-7 -53 -42 -84t-91 -31zM502 550l15 180h90l-24 -180h-81zM258 74q47 0 73 32.5t26 90.5v157q0 57 -26 89.5t-73 32.5q-48 0 -74.5 -32.5
t-26.5 -89.5v-157q0 -58 26.5 -90.5t74.5 -32.5z" />
    <glyph glyph-name="Dcroat" unicode="&#x110;" 
d="M88 0v334h-78v78h78v318h196q71 0 123.5 -27.5t81.5 -77t29 -116.5v-287q0 -67 -29 -117t-81.5 -77.5t-123.5 -27.5h-196zM187 88h97q63 0 99 36t36 98v287q0 62 -36 97.5t-99 35.5h-97v-230h103v-78h-103v-246z" />
    <glyph glyph-name="dcroat" unicode="&#x111;" 
d="M264 -10q-82 0 -130 55t-48 151v98q0 95 47.5 150.5t130.5 55.5q61 0 100 -31t46 -84h4l-3 127v56h-162v77h162v85h99v-85h90v-77h-90v-568h-98v105h-2q-7 -54 -45.5 -84.5t-100.5 -30.5zM298 76q53 0 83 33t30 93v87q0 59 -30 92t-83 33q-55 0 -84 -32.5t-29 -92.5v-87
q0 -61 29 -93.5t84 -32.5z" />
    <glyph glyph-name="Emacron" unicode="&#x112;" 
d="M97 0v730h425v-89h-327v-217h292v-86h-292v-249h327v-89h-425zM146 837v80h326v-80h-326z" />
    <glyph glyph-name="emacron" unicode="&#x113;" 
d="M300 -10q-99 0 -159.5 59t-60.5 161v130q0 102 60.5 161t159.5 59q66 0 115.5 -26.5t77 -74t27.5 -110.5v-99h-343v-48q0 -60 33 -94t90 -34q48 0 79 18t37 50h99q-10 -70 -69 -111t-146 -41zM177 349v-26h246v26q0 63 -32 97t-91 34t-91 -34t-32 -97zM137 668v80h326
v-80h-326z" />
    <glyph glyph-name="Ebreve" unicode="&#x114;" 
d="M97 0v730h425v-89h-327v-217h292v-86h-292v-249h327v-89h-425zM309 804q-74 0 -119 40t-45 106h78q0 -37 23.5 -60t61.5 -23q39 0 63 23t24 60h78q0 -66 -45 -106t-119 -40z" />
    <glyph glyph-name="ebreve" unicode="&#x115;" 
d="M300 -10q-99 0 -159.5 59t-60.5 161v130q0 102 60.5 161t159.5 59q66 0 115.5 -26.5t77 -74t27.5 -110.5v-99h-343v-48q0 -60 33 -94t90 -34q48 0 79 18t37 50h99q-10 -70 -69 -111t-146 -41zM177 349v-26h246v26q0 63 -32 97t-91 34t-91 -34t-32 -97zM300 639
q-74 0 -119 40t-45 106h78q0 -37 23.5 -60t61.5 -23q39 0 63 23t24 60h78q0 -66 -45 -106t-119 -40z" />
    <glyph glyph-name="Edotaccent" unicode="&#x116;" 
d="M97 0v730h425v-89h-327v-217h292v-86h-292v-249h327v-89h-425zM309 814q-34 0 -54 18t-20 48t20 48t54 18t54 -18t20 -48t-20 -48t-54 -18z" />
    <glyph glyph-name="edotaccent" unicode="&#x117;" 
d="M300 -10q-99 0 -159.5 59t-60.5 161v130q0 102 60.5 161t159.5 59q66 0 115.5 -26.5t77 -74t27.5 -110.5v-99h-343v-48q0 -60 33 -94t90 -34q48 0 79 18t37 50h99q-10 -70 -69 -111t-146 -41zM177 349v-26h246v26q0 63 -32 97t-91 34t-91 -34t-32 -97zM300 647
q-34 0 -54 17.5t-20 47.5q0 31 20 49t54 18t54 -18t20 -49q0 -30 -20 -47.5t-54 -17.5z" />
    <glyph glyph-name="Eogonek" unicode="&#x118;" 
d="M97 0v730h425v-89h-327v-217h292v-86h-292v-249h327v-89h-48l-2 -2q-32 -26 -46.5 -48t-14.5 -41q0 -21 14.5 -35t39.5 -14h61v-66h-82q-56 0 -89.5 27t-33.5 68q0 27 17 54.5t57 56.5h-298z" />
    <glyph glyph-name="eogonek" unicode="&#x119;" 
d="M371 -206q-56 0 -89.5 27t-33.5 68q0 51 67 105q-6 -4 -15 -4q-99 0 -157.5 58t-58.5 154v147q0 95 58.5 153t157.5 58t157.5 -58t58.5 -153v-98h-336v-49q0 -130 120 -130q100 0 115 70h99q-6 -43 -31 -75t-63 -51l-21 -18q-32 -26 -46 -48t-14 -41q0 -21 14 -35t39 -14
h62v-66h-83zM180 349v-27h240v27q0 63 -30 96.5t-90 33.5t-90 -33.5t-30 -96.5z" />
    <glyph glyph-name="Ecaron" unicode="&#x11a;" 
d="M97 0v730h425v-89h-327v-217h292v-86h-292v-249h327v-89h-425zM264 810l-140 140h105l80 -77l78 77h107l-139 -140h-91z" />
    <glyph glyph-name="ecaron" unicode="&#x11b;" 
d="M300 -10q-99 0 -159.5 59t-60.5 161v130q0 102 60.5 161t159.5 59q66 0 115.5 -26.5t77 -74t27.5 -110.5v-99h-343v-48q0 -60 33 -94t90 -34q48 0 79 18t37 50h99q-10 -70 -69 -111t-146 -41zM177 349v-26h246v26q0 63 -32 97t-91 34t-91 -34t-32 -97zM255 645l-140 140
h105l80 -77l78 77h107l-139 -140h-91z" />
    <glyph glyph-name="Gcircumflex" unicode="&#x11c;" 
d="M304 -10q-101 0 -160.5 56.5t-59.5 155.5v327q0 98 59.5 154.5t160.5 56.5q100 0 159.5 -57t59.5 -154h-99q0 59 -32 91t-88 32q-57 0 -89 -32t-32 -91v-327q0 -60 32 -92t89 -32q56 0 88 32t32 92v95h-142v88h241v-183q0 -98 -59.5 -155t-159.5 -57zM115 810l139 140h91
l140 -140h-105l-80 77l-78 -77h-107z" />
    <glyph glyph-name="gcircumflex" unicode="&#x11d;" 
d="M159 -180v88h155q45 0 72 25.5t27 69.5v46l2 95h-1q-10 -51 -48.5 -79t-98.5 -28q-85 0 -134 54.5t-49 149.5v113q0 95 49 150.5t134 55.5q58 0 96.5 -28t49.5 -77h1v95h97v-548q0 -84 -53 -133t-144 -49h-155zM298 120q53 0 84 33t31 93v103q0 59 -31 92t-84 33
q-55 0 -85 -31.5t-30 -85.5v-120q0 -54 30 -85.5t85 -31.5zM112 645l139 140h91l140 -140h-105l-80 77l-78 -77h-107z" />
    <glyph glyph-name="Gbreve" unicode="&#x11e;" 
d="M304 -10q-101 0 -160.5 56.5t-59.5 155.5v327q0 98 59.5 154.5t160.5 56.5q100 0 159.5 -57t59.5 -154h-99q0 59 -32 91t-88 32q-57 0 -89 -32t-32 -91v-327q0 -60 32 -92t89 -32q56 0 88 32t32 92v95h-142v88h241v-183q0 -98 -59.5 -155t-159.5 -57zM300 804
q-74 0 -119 40t-45 106h78q0 -37 23.5 -60t61.5 -23q39 0 63 23t24 60h78q0 -66 -45 -106t-119 -40z" />
    <glyph glyph-name="gbreve" unicode="&#x11f;" 
d="M159 -180v88h155q45 0 72 25.5t27 69.5v46l2 95h-1q-10 -51 -48.5 -79t-98.5 -28q-85 0 -134 54.5t-49 149.5v113q0 95 49 150.5t134 55.5q58 0 96.5 -28t49.5 -77h1v95h97v-548q0 -84 -53 -133t-144 -49h-155zM298 120q53 0 84 33t31 93v103q0 59 -31 92t-84 33
q-55 0 -85 -31.5t-30 -85.5v-120q0 -54 30 -85.5t85 -31.5zM297 639q-74 0 -119 40t-45 106h78q0 -37 23.5 -60t61.5 -23q39 0 63 23t24 60h78q0 -66 -45 -106t-119 -40z" />
    <glyph glyph-name="Gdotaccent" unicode="&#x120;" 
d="M304 -10q-101 0 -160.5 56.5t-59.5 155.5v327q0 98 59.5 154.5t160.5 56.5q100 0 159.5 -57t59.5 -154h-99q0 59 -32 91t-88 32q-57 0 -89 -32t-32 -91v-327q0 -60 32 -92t89 -32q56 0 88 32t32 92v95h-142v88h241v-183q0 -98 -59.5 -155t-159.5 -57zM300 814
q-34 0 -54 18t-20 48t20 48t54 18t54 -18t20 -48t-20 -48t-54 -18z" />
    <glyph glyph-name="gdotaccent" unicode="&#x121;" 
d="M159 -180v88h155q45 0 72 25.5t27 69.5v46l2 95h-1q-10 -51 -48.5 -79t-98.5 -28q-85 0 -134 54.5t-49 149.5v113q0 95 49 150.5t134 55.5q58 0 96.5 -28t49.5 -77h1v95h97v-548q0 -84 -53 -133t-144 -49h-155zM298 120q53 0 84 33t31 93v103q0 59 -31 92t-84 33
q-55 0 -85 -31.5t-30 -85.5v-120q0 -54 30 -85.5t85 -31.5zM297 647q-34 0 -54 17.5t-20 47.5q0 31 20 49t54 18t54 -18t20 -49q0 -30 -20 -47.5t-54 -17.5z" />
    <glyph glyph-name="uni0122" unicode="&#x122;" 
d="M304 -10q-101 0 -160.5 56.5t-59.5 155.5v327q0 98 59.5 154.5t160.5 56.5q100 0 159.5 -57t59.5 -154h-99q0 59 -32 91t-88 32q-57 0 -89 -32t-32 -91v-327q0 -60 32 -92t89 -32q56 0 88 32t32 92v95h-142v88h241v-183q0 -98 -59.5 -155t-159.5 -57zM192 -240l95 145
h112l-107 -145h-100z" />
    <glyph glyph-name="uni0123" unicode="&#x123;" 
d="M159 -180v88h155q45 0 72 25.5t27 69.5v46l2 95h-1q-10 -51 -48.5 -79t-98.5 -28q-85 0 -134 54.5t-49 149.5v113q0 95 49 150.5t134 55.5q58 0 96.5 -28t49.5 -77h1v95h97v-548q0 -84 -53 -133t-144 -49h-155zM298 120q53 0 84 33t31 93v103q0 59 -31 92t-84 33
q-55 0 -85 -31.5t-30 -85.5v-120q0 -54 30 -85.5t85 -31.5zM416 880l-80 -235h-132l130 235h82z" />
    <glyph glyph-name="Hcircumflex" unicode="&#x124;" 
d="M89 0v730h99v-308h224v308h99v-730h-99v332h-224v-332h-99zM115 810l139 140h91l140 -140h-105l-80 77l-78 -77h-107z" />
    <glyph glyph-name="hcircumflex" unicode="&#x125;" 
d="M88 0v730h99v-180l-1 -105h1q7 54 45.5 84.5t101.5 30.5q82 0 131 -52t49 -140v-368h-99v353q0 59 -30 91t-82 32q-54 0 -85 -33.5t-31 -93.5v-349h-99zM-47 825l139 140h91l140 -140h-105l-80 77l-78 -77h-107z" />
    <glyph glyph-name="Hbar" unicode="&#x126;" 
d="M89 0v525h-79v78h79v127h99v-127h224v127h99v-127h79v-78h-79v-525h-99v332h-224v-332h-99zM188 422h224v103h-224v-103z" />
    <glyph glyph-name="hbar" unicode="&#x127;" 
d="M0 568v77h88v85h99v-85h165v-77h-165v-78l-1 -105h2q7 55 45 85t101 30q82 0 131 -52t49 -140v-308h-99v297q0 56 -30 87.5t-82 31.5q-54 0 -85 -33.5t-31 -93.5v-289h-99v568h-88z" />
    <glyph glyph-name="Itilde" unicode="&#x128;" 
d="M101 0v90h149v550h-149v90h398v-90h-149v-550h149v-90h-398zM370 813q-30 0 -49 10t-32 24t-25 24t-29 10q-30 0 -30 -34v-29h-68v31q0 46 25.5 72t67.5 26q30 0 49 -10t32 -24t25 -24t29 -10q30 0 30 34v29h68v-30q0 -47 -25.5 -73t-67.5 -26z" />
    <glyph glyph-name="itilde" unicode="&#x129;" 
d="M83 0v90h193v370h-173v90h272v-460h181v-90h-473zM386 648q-30 0 -49 10t-32 24t-25 24t-29 10q-30 0 -30 -34v-29h-68v31q0 46 25.5 72t67.5 26q30 0 49 -10t32 -24t25 -24t29 -10q30 0 30 34v29h68v-30q0 -47 -25.5 -73t-67.5 -26z" />
    <glyph glyph-name="Imacron" unicode="&#x12a;" 
d="M101 0v90h149v550h-149v90h398v-90h-149v-550h149v-90h-398zM137 837v80h326v-80h-326z" />
    <glyph glyph-name="imacron" unicode="&#x12b;" 
d="M83 0v90h193v370h-173v90h272v-460h181v-90h-473zM153 668v80h326v-80h-326z" />
    <glyph glyph-name="Ibreve" unicode="&#x12c;" 
d="M101 0v90h149v550h-149v90h398v-90h-149v-550h149v-90h-398zM300 804q-74 0 -119 40t-45 106h78q0 -37 23.5 -60t61.5 -23q39 0 63 23t24 60h78q0 -66 -45 -106t-119 -40z" />
    <glyph glyph-name="ibreve" unicode="&#x12d;" 
d="M83 0v90h193v370h-173v90h272v-460h181v-90h-473zM316 639q-74 0 -119 40t-45 106h78q0 -37 23.5 -60t61.5 -23q39 0 63 23t24 60h78q0 -66 -45 -106t-119 -40z" />
    <glyph glyph-name="Iogonek" unicode="&#x12e;" 
d="M101 0v90h149v550h-149v90h398v-90h-149v-550h149v-90h-163l-3 -2q-31 -26 -45.5 -48t-14.5 -41q0 -21 14.5 -35t39.5 -14h61v-66h-83q-56 0 -89.5 27t-33.5 68q0 27 17 54.5t57 56.5h-155z" />
    <glyph glyph-name="iogonek" unicode="&#x12f;" 
d="M316 647q-34 0 -54 17.5t-20 47.5q0 31 20 49t54 18t54 -18t20 -49q0 -30 -20 -47.5t-54 -17.5zM83 0v90h193v370h-173v90h272v-460h181v-90h-205l-2 -2q-31 -26 -45.5 -48t-14.5 -41q0 -21 14 -35t39 -14h62v-66h-83q-56 0 -89.5 27t-33.5 68q0 27 17 54.5t57 56.5h-189
z" />
    <glyph glyph-name="Idotaccent" unicode="&#x130;" 
d="M101 0v90h149v550h-149v90h398v-90h-149v-550h149v-90h-398zM300 814q-34 0 -54 18t-20 48t20 48t54 18t54 -18t20 -48t-20 -48t-54 -18z" />
    <glyph glyph-name="dotlessi" unicode="&#x131;" 
d="M83 0v90h193v370h-173v90h272v-460h181v-90h-473z" />
    <glyph glyph-name="Jcircumflex" unicode="&#x134;" 
d="M270 -10q-107 0 -168 59.5t-61 162.5h99q0 -64 34.5 -99t95.5 -35t95.5 35t34.5 98v519h99v-519q0 -102 -61.5 -161.5t-167.5 -59.5zM265 810l139 140h91l140 -140h-105l-80 77l-78 -77h-107z" />
    <glyph glyph-name="jcircumflex" unicode="&#x135;" 
d="M88 -180v90h129q59 0 91.5 32.5t32.5 90.5v427h-258v90h357v-518q0 -97 -60 -154.5t-161 -57.5h-131zM197 645l139 140h91l140 -140h-105l-80 77l-78 -77h-107z" />
    <glyph glyph-name="uni0136" unicode="&#x136;" 
d="M88 0v730h99v-310h102l156 310h108l-177 -351l186 -379h-112l-163 333h-100v-333h-99zM188 -240l95 145h112l-107 -145h-100z" />
    <glyph glyph-name="uni0137" unicode="&#x137;" 
d="M93 0v730h99v-404h101l148 224h112l-173 -263l182 -287h-114l-154 241h-102v-241h-99zM188 -240l95 145h112l-107 -145h-100z" />
    <glyph glyph-name="kgreenlandic" unicode="&#x138;" 
d="M99 0v550h99v-223h102l145 223h113l-173 -264l183 -286h-115l-152 237h-103v-237h-99z" />
    <glyph glyph-name="Lacute" unicode="&#x139;" 
d="M128 0v730h99v-640h325v-90h-424zM115 810l105 140h107l-112 -140h-100z" />
    <glyph glyph-name="lacute" unicode="&#x13a;" 
d="M382 0q-75 0 -120 44t-45 117v479h-188v90h287v-568q0 -33 18.5 -52.5t50.5 -19.5h167v-90h-170zM183 810l105 140h107l-112 -140h-100z" />
    <glyph glyph-name="uni013B" unicode="&#x13b;" 
d="M128 0v730h99v-640h325v-90h-424zM228 -240l95 145h112l-107 -145h-100z" />
    <glyph glyph-name="uni013C" unicode="&#x13c;" 
d="M382 0q-75 0 -120 44t-45 117v479h-188v90h287v-568q0 -33 18.5 -52.5t50.5 -19.5h167v-90h-170zM208 -240l95 145h112l-107 -145h-100z" />
    <glyph glyph-name="Lcaron" unicode="&#x13d;" 
d="M128 0v730h99v-640h325v-90h-424zM344 550l15 180h90l-24 -180h-81z" />
    <glyph glyph-name="lcaron" unicode="&#x13e;" 
d="M382 0q-75 0 -120 44t-45 117v479h-188v90h287v-568q0 -33 18.5 -52.5t50.5 -19.5h167v-90h-170zM412 550l15 180h90l-24 -180h-81z" />
    <glyph glyph-name="Ldot" unicode="&#x13f;" 
d="M128 0v730h99v-640h325v-90h-424zM469 265q-38 0 -61.5 23t-23.5 59q0 38 23.5 62t61.5 24t61.5 -24t23.5 -62q0 -36 -23.5 -59t-61.5 -23z" />
    <glyph glyph-name="ldot" unicode="&#x140;" 
d="M362 0q-75 0 -120 44t-45 117v479h-188v90h287v-568q0 -33 18.5 -52.5t50.5 -19.5h167v-90h-170zM550 265q-38 0 -61.5 23t-23.5 59q0 38 23.5 62t61.5 24t61.5 -24t23.5 -62q0 -36 -23.5 -59t-61.5 -23z" />
    <glyph glyph-name="Lslash" unicode="&#x141;" 
d="M129 0v301l-109 -71v89l109 71v340h99v-276l164 106v-89l-164 -106v-275h325v-90h-424z" />
    <glyph glyph-name="lslash" unicode="&#x142;" 
d="M100 230v89l117 76v245h-188v90h287v-271l156 101v-89l-156 -101v-208q0 -33 18.5 -52.5t50.5 -19.5h167v-90h-170q-75 0 -120 44t-45 117v145z" />
    <glyph glyph-name="Nacute" unicode="&#x143;" 
d="M86 0v730h128l218 -616q-3 26 -5.5 64.5t-4 80t-1.5 78.5v393h94v-730h-129l-216 616q2 -26 4 -63.5t3.5 -78.5t1.5 -77v-397h-93zM238 810l105 140h107l-112 -140h-100z" />
    <glyph glyph-name="nacute" unicode="&#x144;" 
d="M88 0v550h98v-105h1q7 54 45.5 84.5t101.5 30.5q82 0 131 -52t49 -140v-368h-99v352q0 60 -30 92t-82 32q-54 0 -85 -33.5t-31 -93.5v-349h-99zM243 645l105 140h107l-112 -140h-100z" />
    <glyph glyph-name="uni0145" unicode="&#x145;" 
d="M86 0v730h128l218 -616q-3 26 -5.5 64.5t-4 80t-1.5 78.5v393h94v-730h-129l-216 616q2 -26 4 -63.5t3.5 -78.5t1.5 -77v-397h-93zM188 -240l95 145h112l-107 -145h-100z" />
    <glyph glyph-name="uni0146" unicode="&#x146;" 
d="M88 0v550h98v-105h1q7 54 45.5 84.5t101.5 30.5q82 0 131 -52t49 -140v-368h-99v352q0 60 -30 92t-82 32q-54 0 -85 -33.5t-31 -93.5v-349h-99zM188 -240l95 145h112l-107 -145h-100z" />
    <glyph glyph-name="Ncaron" unicode="&#x147;" 
d="M86 0v730h128l218 -616q-3 26 -5.5 64.5t-4 80t-1.5 78.5v393h94v-730h-129l-216 616q2 -26 4 -63.5t3.5 -78.5t1.5 -77v-397h-93zM255 810l-140 140h105l80 -77l78 77h107l-139 -140h-91z" />
    <glyph glyph-name="ncaron" unicode="&#x148;" 
d="M88 0v550h98v-105h1q7 54 45.5 84.5t101.5 30.5q82 0 131 -52t49 -140v-368h-99v352q0 60 -30 92t-82 32q-54 0 -85 -33.5t-31 -93.5v-349h-99zM260 645l-140 140h105l80 -77l78 77h107l-139 -140h-91z" />
    <glyph glyph-name="napostrophe" unicode="&#x149;" 
d="M88 0v550h98v-105h1q7 54 45.5 84.5t101.5 30.5q82 0 131 -52t49 -140v-368h-99v352q0 60 -30 92t-82 32q-54 0 -85 -33.5t-31 -93.5v-349h-99zM-12 645l95 145h112l-107 -145h-100z" />
    <glyph glyph-name="Eng" unicode="&#x14a;" 
d="M242 -180v91h64q51 0 80.5 29t29.5 79l-246 597q2 -26 4 -63.5t3.5 -78.5t1.5 -77v-397h-93v730h128l218 -537q-3 27 -5.5 65.5t-4 80t-1.5 77.5v314h94v-713q0 -60 -26.5 -104t-73.5 -68.5t-111 -24.5h-62z" />
    <glyph glyph-name="eng" unicode="&#x14b;" 
d="M241 -180v91h62q51 0 80.5 29t29.5 79v338q0 56 -29 87.5t-81 31.5q-54 0 -84 -33.5t-30 -93.5v-349h-99v550h98v-105h1q7 55 44.5 85t100.5 30q82 0 130 -52t48 -140v-351q0 -60 -26 -104t-73.5 -68.5t-110.5 -24.5h-61z" />
    <glyph glyph-name="Omacron" unicode="&#x14c;" 
d="M300 -10q-100 0 -158 58t-58 164v307q0 105 58 163t158 58t158 -57.5t58 -163.5v-307q0 -106 -58 -164t-158 -58zM300 78q56 0 86.5 32t30.5 92v327q0 59 -30 91t-87 32t-87 -32t-30 -91v-327q0 -60 30.5 -92t86.5 -32zM137 837v80h326v-80h-326z" />
    <glyph glyph-name="omacron" unicode="&#x14d;" 
d="M300 -8q-101 0 -160.5 58t-59.5 162v126q0 104 59.5 162t160.5 58t160.5 -58t59.5 -162v-126q0 -104 -59.5 -162t-160.5 -58zM300 79q56 0 88.5 31.5t32.5 92.5v144q0 61 -32.5 92.5t-88.5 31.5t-88.5 -31.5t-32.5 -92.5v-144q0 -61 32.5 -92.5t88.5 -31.5zM137 668v80
h326v-80h-326z" />
    <glyph glyph-name="Obreve" unicode="&#x14e;" 
d="M300 -10q-100 0 -158 58t-58 164v307q0 105 58 163t158 58t158 -57.5t58 -163.5v-307q0 -106 -58 -164t-158 -58zM300 78q56 0 86.5 32t30.5 92v327q0 59 -30 91t-87 32t-87 -32t-30 -91v-327q0 -60 30.5 -92t86.5 -32zM300 804q-74 0 -119 40t-45 106h78q0 -37 23.5 -60
t61.5 -23q39 0 63 23t24 60h78q0 -66 -45 -106t-119 -40z" />
    <glyph glyph-name="obreve" unicode="&#x14f;" 
d="M300 -8q-101 0 -160.5 58t-59.5 162v126q0 104 59.5 162t160.5 58t160.5 -58t59.5 -162v-126q0 -104 -59.5 -162t-160.5 -58zM300 79q56 0 88.5 31.5t32.5 92.5v144q0 61 -32.5 92.5t-88.5 31.5t-88.5 -31.5t-32.5 -92.5v-144q0 -61 32.5 -92.5t88.5 -31.5zM300 639
q-74 0 -119 40t-45 106h78q0 -37 23.5 -60t61.5 -23q39 0 63 23t24 60h78q0 -66 -45 -106t-119 -40z" />
    <glyph glyph-name="Ohungarumlaut" unicode="&#x150;" 
d="M300 -10q-100 0 -158 58t-58 164v307q0 105 58 163t158 58t158 -57.5t58 -163.5v-307q0 -106 -58 -164t-158 -58zM300 78q56 0 86.5 32t30.5 92v327q0 59 -30 91t-87 32t-87 -32t-30 -91v-327q0 -60 30.5 -92t86.5 -32zM325 810l110 140h99l-115 -140h-94zM141 810
l109 140h100l-115 -140h-94z" />
    <glyph glyph-name="ohungarumlaut" unicode="&#x151;" 
d="M300 -8q-101 0 -160.5 58t-59.5 162v126q0 104 59.5 162t160.5 58t160.5 -58t59.5 -162v-126q0 -104 -59.5 -162t-160.5 -58zM300 79q56 0 88.5 31.5t32.5 92.5v144q0 61 -32.5 92.5t-88.5 31.5t-88.5 -31.5t-32.5 -92.5v-144q0 -61 32.5 -92.5t88.5 -31.5zM325 645
l110 140h99l-115 -140h-94zM141 645l109 140h100l-115 -140h-94z" />
    <glyph glyph-name="OE" unicode="&#x152;" 
d="M192 -9q-71 0 -112 51.5t-41 139.5v367q0 88 41 139.5t112 51.5q35 0 58 -14.5t36 -35t16 -40.5h5v80h269v-88h-175v-221h150v-89h-150v-243h175v-89h-269v81h-5q-3 -20 -16 -40.5t-36 -35t-58 -14.5zM221 78q40 0 62.5 28t22.5 76v367q0 48 -22.5 76t-62.5 28t-62.5 -28
t-22.5 -76v-367q0 -48 22.5 -76t62.5 -28z" />
    <glyph glyph-name="oe" unicode="&#x153;" 
d="M180 -10q-67 0 -106 43t-39 116v253q0 72 39 115t106 43q40 0 65 -13t38 -31t15 -35h4q2 17 14.5 35t38 31t65.5 13q67 0 106 -43t39 -115v-152h-220v-101q0 -37 17.5 -58t46.5 -21q25 0 42.5 15.5t21.5 41.5h89q-8 -63 -46.5 -100t-95.5 -37q-40 0 -65.5 13t-38 31
t-14.5 35h-4q-2 -17 -15 -35t-38 -31t-65 -13zM191 70q29 0 46.5 21t17.5 58v253q0 36 -17.5 57t-46.5 21q-31 0 -48.5 -21t-17.5 -57v-253q0 -37 17.5 -58t48.5 -21zM345 324h131v78q0 36 -18 57t-49 21q-29 0 -46.5 -21t-17.5 -57v-78z" />
    <glyph glyph-name="Racute" unicode="&#x154;" 
d="M89 0v730h226q67 0 117 -26.5t78 -74t28 -111.5q0 -74 -37.5 -127t-99.5 -75l147 -316h-109l-139 305h-113v-305h-98zM187 393h128q56 0 88.5 34t32.5 90q0 57 -33 91t-88 34h-128v-249zM238 810l105 140h107l-112 -140h-100z" />
    <glyph glyph-name="racute" unicode="&#x155;" 
d="M108 0v550h98v-106h1q8 54 46.5 85t102.5 31q85 0 132 -52.5t47 -147.5v-48h-99v47q0 115 -113 115q-57 0 -86.5 -33t-29.5 -94v-347h-99zM258 645l105 140h107l-112 -140h-100z" />
    <glyph glyph-name="uni0156" unicode="&#x156;" 
d="M89 0v730h226q67 0 117 -26.5t78 -74t28 -111.5q0 -74 -37.5 -127t-99.5 -75l147 -316h-109l-139 305h-113v-305h-98zM187 393h128q56 0 88.5 34t32.5 90q0 57 -33 91t-88 34h-128v-249zM188 -240l95 145h112l-107 -145h-100z" />
    <glyph glyph-name="uni0157" unicode="&#x157;" 
d="M108 0v550h98v-106h1q8 54 46.5 85t102.5 31q85 0 132 -52.5t47 -147.5v-48h-99v47q0 115 -113 115q-57 0 -86.5 -33t-29.5 -94v-347h-99zM33 -240l95 145h112l-107 -145h-100z" />
    <glyph glyph-name="Rcaron" unicode="&#x158;" 
d="M89 0v730h226q67 0 117 -26.5t78 -74t28 -111.5q0 -74 -37.5 -127t-99.5 -75l147 -316h-109l-139 305h-113v-305h-98zM187 393h128q56 0 88.5 34t32.5 90q0 57 -33 91t-88 34h-128v-249zM255 810l-140 140h105l80 -77l78 77h107l-139 -140h-91z" />
    <glyph glyph-name="rcaron" unicode="&#x159;" 
d="M108 0v550h98v-106h1q8 54 46.5 85t102.5 31q85 0 132 -52.5t47 -147.5v-48h-99v47q0 115 -113 115q-57 0 -86.5 -33t-29.5 -94v-347h-99zM275 645l-140 140h105l80 -77l78 77h107l-139 -140h-91z" />
    <glyph glyph-name="Sacute" unicode="&#x15a;" 
d="M304 -10q-108 0 -172 56.5t-64 155.5h99q0 -58 37 -91t100 -33q60 0 95.5 33.5t35.5 89.5q0 42 -23 73.5t-65 42.5l-108 29q-71 20 -112.5 72.5t-41.5 124.5q0 59 26.5 103.5t74.5 69t111 24.5q64 0 112.5 -24.5t75.5 -68.5t27 -102h-98q0 48 -32.5 78t-84.5 30
t-83.5 -30t-31.5 -78q0 -39 21 -65.5t59 -37.5l111 -30q75 -20 117 -76.5t42 -134.5q0 -64 -28 -111.5t-79.5 -73.5t-120.5 -26zM238 810l105 140h107l-112 -140h-100z" />
    <glyph glyph-name="sacute" unicode="&#x15b;" 
d="M278 -8q-94 0 -146 42t-52 118h98q0 -36 26.5 -56.5t73.5 -20.5h44q49 0 75.5 21t26.5 59q0 67 -66 75l-148 21q-59 9 -91 48.5t-32 102.5q0 74 50 115t140 41h44q84 0 136 -40t55 -106h-100q-2 28 -26 46.5t-65 18.5h-44q-45 0 -69.5 -20t-24.5 -54q0 -55 55 -62
l139 -20q143 -19 143 -166q0 -78 -51.5 -120.5t-146.5 -42.5h-44zM238 645l105 140h107l-112 -140h-100z" />
    <glyph glyph-name="Scircumflex" unicode="&#x15c;" 
d="M304 -10q-108 0 -172 56.5t-64 155.5h99q0 -58 37 -91t100 -33q60 0 95.5 33.5t35.5 89.5q0 42 -23 73.5t-65 42.5l-108 29q-71 20 -112.5 72.5t-41.5 124.5q0 59 26.5 103.5t74.5 69t111 24.5q64 0 112.5 -24.5t75.5 -68.5t27 -102h-98q0 48 -32.5 78t-84.5 30
t-83.5 -30t-31.5 -78q0 -39 21 -65.5t59 -37.5l111 -30q75 -20 117 -76.5t42 -134.5q0 -64 -28 -111.5t-79.5 -73.5t-120.5 -26zM115 810l139 140h91l140 -140h-105l-80 77l-78 -77h-107z" />
    <glyph glyph-name="scircumflex" unicode="&#x15d;" 
d="M278 -8q-94 0 -146 42t-52 118h98q0 -36 26.5 -56.5t73.5 -20.5h44q49 0 75.5 21t26.5 59q0 67 -66 75l-148 21q-59 9 -91 48.5t-32 102.5q0 74 50 115t140 41h44q84 0 136 -40t55 -106h-100q-2 28 -26 46.5t-65 18.5h-44q-45 0 -69.5 -20t-24.5 -54q0 -55 55 -62
l139 -20q143 -19 143 -166q0 -78 -51.5 -120.5t-146.5 -42.5h-44zM115 645l139 140h91l140 -140h-105l-80 77l-78 -77h-107z" />
    <glyph glyph-name="Scedilla" unicode="&#x15e;" 
d="M204 -206v57h71q22 0 36 11.5t14 24.5q0 18 -28 31t-79 13l24 64q-80 15 -127 69t-47 138h99q0 -58 37 -91t100 -33q60 0 95.5 33.5t35.5 89.5q0 42 -23 73.5t-65 42.5l-108 29q-71 20 -112.5 72.5t-41.5 124.5q0 59 26.5 103.5t74.5 69t111 24.5q64 0 112.5 -24.5
t75.5 -68.5t27 -102h-98q0 48 -32.5 78t-84.5 30t-83.5 -30t-31.5 -78q0 -39 21 -65.5t59 -37.5l111 -30q75 -20 117 -76.5t42 -134.5q0 -64 -28 -111.5t-79.5 -73.5t-120.5 -26h-3l-9 -26q27 -2 55.5 -12.5t48 -28.5t19.5 -45q0 -35 -33.5 -59.5t-89.5 -24.5h-88z" />
    <glyph glyph-name="scedilla" unicode="&#x15f;" 
d="M213 -206v57h71q22 0 36 11.5t14 24.5q0 18 -28 31t-78 13l23 62q-82 6 -126.5 47.5t-44.5 111.5h98q0 -36 26.5 -56.5t73.5 -20.5h44q49 0 75.5 21t26.5 59q0 67 -66 75l-148 21q-59 9 -91 48.5t-32 102.5q0 74 50 115t140 41h44q84 0 136 -40t55 -106h-100
q-2 28 -26 46.5t-65 18.5h-44q-45 0 -69.5 -20t-24.5 -54q0 -55 55 -62l139 -20q143 -19 143 -166q0 -78 -51.5 -120.5t-146.5 -42.5h-11l-10 -28q27 -2 55.5 -12.5t48.5 -28.5t20 -45q0 -35 -34 -59.5t-89 -24.5h-89z" />
    <glyph glyph-name="Scaron" unicode="&#x160;" 
d="M304 -10q-108 0 -172 56.5t-64 155.5h99q0 -58 37 -91t100 -33q60 0 95.5 33.5t35.5 89.5q0 42 -23 73.5t-65 42.5l-108 29q-71 20 -112.5 72.5t-41.5 124.5q0 59 26.5 103.5t74.5 69t111 24.5q64 0 112.5 -24.5t75.5 -68.5t27 -102h-98q0 48 -32.5 78t-84.5 30
t-83.5 -30t-31.5 -78q0 -39 21 -65.5t59 -37.5l111 -30q75 -20 117 -76.5t42 -134.5q0 -64 -28 -111.5t-79.5 -73.5t-120.5 -26zM255 810l-140 140h105l80 -77l78 77h107l-139 -140h-91z" />
    <glyph glyph-name="scaron" unicode="&#x161;" 
d="M278 -8q-94 0 -146 42t-52 118h98q0 -36 26.5 -56.5t73.5 -20.5h44q49 0 75.5 21t26.5 59q0 67 -66 75l-148 21q-59 9 -91 48.5t-32 102.5q0 74 50 115t140 41h44q84 0 136 -40t55 -106h-100q-2 28 -26 46.5t-65 18.5h-44q-45 0 -69.5 -20t-24.5 -54q0 -55 55 -62
l139 -20q143 -19 143 -166q0 -78 -51.5 -120.5t-146.5 -42.5h-44zM255 645l-140 140h105l80 -77l78 77h107l-139 -140h-91z" />
    <glyph glyph-name="uni0162" unicode="&#x162;" 
d="M251 0v640h-198v90h494v-90h-197v-640l-13 -36q27 -2 55.5 -12.5t48.5 -28.5t20 -45q0 -35 -34 -59.5t-89 -24.5h-89v57h71q23 0 36.5 11.5t13.5 24.5q0 18 -27.5 31t-78.5 13l25 69h-38z" />
    <glyph glyph-name="uni0163" unicode="&#x163;" 
d="M263 -206v57h71q22 0 36 11.5t14 24.5q0 18 -28 31t-78 13l28 75q-49 13 -77 50.5t-28 93.5v310h-157v90h157v155h99v-155h223v-90h-223v-309q0 -27 15.5 -44t41.5 -17h161v-90h-155l-12 -36q27 -2 55.5 -12.5t48.5 -28.5t20 -45q0 -35 -34 -59.5t-89 -24.5h-89z" />
    <glyph glyph-name="Tcaron" unicode="&#x164;" 
d="M251 0v640h-198v90h494v-90h-197v-640h-99zM255 810l-140 140h105l80 -77l78 77h107l-139 -140h-91z" />
    <glyph glyph-name="tcaron" unicode="&#x165;" 
d="M355 0q-71 0 -112.5 41t-41.5 109v310h-157v90h157v155h99v-155h223v-90h-223v-309q0 -27 15.5 -44t41.5 -17h161v-90h-163zM373 621l15 180h90l-24 -180h-81z" />
    <glyph glyph-name="Tbar" unicode="&#x166;" 
d="M251 0v291h-142v82h142v267h-198v90h494v-90h-197v-267h142v-82h-142v-291h-99z" />
    <glyph glyph-name="tbar" unicode="&#x167;" 
d="M83 236v81h118v143h-157v90h157v155h99v-155h223v-90h-223v-143h177v-81h-177v-85q0 -27 15.5 -44t41.5 -17h161v-90h-163q-71 0 -112.5 41t-41.5 109v86h-118z" />
    <glyph glyph-name="Utilde" unicode="&#x168;" 
d="M300 -10q-103 0 -158.5 57t-55.5 155v528h99v-528q0 -58 28.5 -91t86.5 -33q57 0 86.5 33t29.5 91v528h99v-528q0 -99 -55.5 -155.5t-159.5 -56.5zM370 813q-30 0 -49 10t-32 24t-25 24t-29 10q-30 0 -30 -34v-29h-68v31q0 46 25.5 72t67.5 26q30 0 49 -10t32 -24t25 -24
t29 -10q30 0 30 34v29h68v-30q0 -47 -25.5 -73t-67.5 -26z" />
    <glyph glyph-name="utilde" unicode="&#x169;" 
d="M299 -10q-97 0 -155 57t-58 155v348h99v-348q0 -58 30.5 -91.5t83.5 -33.5q54 0 85 33.5t31 91.5v348h99v-348q0 -98 -58.5 -155t-156.5 -57zM370 648q-30 0 -49 10t-32 24t-25 24t-29 10q-30 0 -30 -34v-29h-68v31q0 46 25.5 72t67.5 26q30 0 49 -10t32 -24t25 -24
t29 -10q30 0 30 34v29h68v-30q0 -47 -25.5 -73t-67.5 -26z" />
    <glyph glyph-name="Umacron" unicode="&#x16a;" 
d="M300 -10q-103 0 -158.5 57t-55.5 155v528h99v-528q0 -58 28.5 -91t86.5 -33q57 0 86.5 33t29.5 91v528h99v-528q0 -99 -55.5 -155.5t-159.5 -56.5zM137 837v80h326v-80h-326z" />
    <glyph glyph-name="umacron" unicode="&#x16b;" 
d="M299 -10q-97 0 -155 57t-58 155v348h99v-348q0 -58 30.5 -91.5t83.5 -33.5q54 0 85 33.5t31 91.5v348h99v-348q0 -98 -58.5 -155t-156.5 -57zM137 668v80h326v-80h-326z" />
    <glyph glyph-name="Ubreve" unicode="&#x16c;" 
d="M300 -10q-103 0 -158.5 57t-55.5 155v528h99v-528q0 -58 28.5 -91t86.5 -33q57 0 86.5 33t29.5 91v528h99v-528q0 -99 -55.5 -155.5t-159.5 -56.5zM300 804q-74 0 -119 40t-45 106h78q0 -37 23.5 -60t61.5 -23q39 0 63 23t24 60h78q0 -66 -45 -106t-119 -40z" />
    <glyph glyph-name="ubreve" unicode="&#x16d;" 
d="M299 -10q-97 0 -155 57t-58 155v348h99v-348q0 -58 30.5 -91.5t83.5 -33.5q54 0 85 33.5t31 91.5v348h99v-348q0 -98 -58.5 -155t-156.5 -57zM300 639q-74 0 -119 40t-45 106h78q0 -37 23.5 -60t61.5 -23q39 0 63 23t24 60h78q0 -66 -45 -106t-119 -40z" />
    <glyph glyph-name="Uring" unicode="&#x16e;" 
d="M300 -10q-103 0 -158.5 57t-55.5 155v528h99v-528q0 -58 28.5 -91t86.5 -33q57 0 86.5 33t29.5 91v528h99v-528q0 -99 -55.5 -155.5t-159.5 -56.5zM300 764q-55 0 -89 32t-34 84t34 84t89 32t89 -32t34 -84t-34 -84t-89 -32zM300 820q27 0 43.5 16.5t16.5 43.5t-16.5 44
t-43.5 17t-43.5 -17t-16.5 -44t16.5 -43.5t43.5 -16.5z" />
    <glyph glyph-name="uring" unicode="&#x16f;" 
d="M299 -10q-97 0 -155 57t-58 155v348h99v-348q0 -58 30.5 -91.5t83.5 -33.5q54 0 85 33.5t31 91.5v348h99v-348q0 -98 -58.5 -155t-156.5 -57zM300 607q-55 0 -89 32t-34 84t34 84t89 32t89 -32t34 -84t-34 -84t-89 -32zM300 662q27 0 43.5 16.5t16.5 44.5q0 27 -16.5 44
t-43.5 17t-43.5 -17t-16.5 -44q0 -28 16.5 -44.5t43.5 -16.5z" />
    <glyph glyph-name="Uhungarumlaut" unicode="&#x170;" 
d="M300 -10q-103 0 -158.5 57t-55.5 155v528h99v-528q0 -58 28.5 -91t86.5 -33q57 0 86.5 33t29.5 91v528h99v-528q0 -99 -55.5 -155.5t-159.5 -56.5zM325 810l110 140h99l-115 -140h-94zM141 810l109 140h100l-115 -140h-94z" />
    <glyph glyph-name="uhungarumlaut" unicode="&#x171;" 
d="M299 -10q-97 0 -155 57t-58 155v348h99v-348q0 -58 30.5 -91.5t83.5 -33.5q54 0 85 33.5t31 91.5v348h99v-348q0 -98 -58.5 -155t-156.5 -57zM325 645l110 140h99l-115 -140h-94zM141 645l109 140h100l-115 -140h-94z" />
    <glyph glyph-name="Uogonek" unicode="&#x172;" 
d="M375 -206q-56 0 -89.5 27t-33.5 68q0 23 18 51.5t48 54.5q-2 -1 -7 -3t-11 -2q-100 0 -157 56.5t-57 155.5v528h99v-528q0 -60 29.5 -92t85.5 -32t86 32t30 92v528h99v-528q0 -123 -84 -178l-32 -26q-31 -26 -43.5 -48t-12.5 -41q0 -21 14 -35t39 -14h62v-66h-83z" />
    <glyph glyph-name="uogonek" unicode="&#x173;" 
d="M370 -206q-56 0 -89.5 27t-33.5 68q0 24 15 49.5t53 56.5q-7 -5 -15 -5q-100 0 -157 56.5t-57 155.5v348h99v-348q0 -124 115 -124t115 124v348h99v-348q0 -126 -87 -179l-29 -25q-32 -26 -46 -48t-14 -41q0 -21 14 -35t39 -14h62v-66h-83z" />
    <glyph glyph-name="Wcircumflex" unicode="&#x174;" 
d="M103 0l-84 730h88l54 -532q3 -32 5.5 -68.5t3.5 -59.5q2 23 5 59.5t8 68.5l70 532h99l65 -532q3 -32 7 -68.5t7 -59.5q1 23 4 59.5t6 68.5l55 532h86l-87 -730h-120l-63 540q-4 33 -6.5 67.5t-3.5 55.5q-3 -21 -5 -55.5t-6 -67.5l-69 -540h-119zM115 810l139 140h91
l140 -140h-105l-80 77l-78 -77h-107z" />
    <glyph glyph-name="wcircumflex" unicode="&#x175;" 
d="M116 0l-89 550h84l54 -375q3 -25 6 -54t4 -47q2 18 5 47t7 54l66 375h94l66 -375q4 -25 7.5 -53.5t5.5 -47.5l5 47.5t6 53.5l56 375h80l-93 -550h-106l-61 370q-4 27 -7.5 60t-5.5 52q-1 -19 -5.5 -52t-8.5 -60l-63 -370h-107zM115 645l139 140h91l140 -140h-105l-80 77
l-78 -77h-107z" />
    <glyph glyph-name="Ycircumflex" unicode="&#x176;" 
d="M251 0v271l-219 459h105l135 -288q12 -26 19.5 -47t9.5 -30q3 9 10.5 30t20.5 47l134 288h102l-218 -459v-271h-99zM115 810l139 140h91l140 -140h-105l-80 77l-78 -77h-107z" />
    <glyph glyph-name="ycircumflex" unicode="&#x177;" 
d="M175 -180l80 213l-205 517h105l124 -325q8 -21 16 -45t11 -42q3 18 10 42t15 45l115 325h105l-273 -730h-103zM115 645l139 140h91l140 -140h-105l-80 77l-78 -77h-107z" />
    <glyph glyph-name="Ydieresis" unicode="&#x178;" 
d="M251 0v271l-219 459h105l135 -288q12 -26 19.5 -47t9.5 -30q3 9 10.5 30t20.5 47l134 288h102l-218 -459v-271h-99zM413 815q-31 0 -49 17.5t-18 47.5q0 31 18 49t49 18q30 0 48 -18t18 -49q0 -30 -18 -47.5t-48 -17.5zM187 815q-30 0 -48 17.5t-18 47.5q0 31 18 49
t48 18q31 0 49 -18t18 -49q0 -30 -18 -47.5t-49 -17.5z" />
    <glyph glyph-name="Zacute" unicode="&#x179;" 
d="M84 0v97l319 543h-314v90h417v-97l-320 -543h331v-90h-433zM238 810l105 140h107l-112 -140h-100z" />
    <glyph glyph-name="zacute" unicode="&#x17a;" 
d="M87 0v96l303 365h-295v89h407v-96l-308 -365h319v-89h-426zM238 645l105 140h107l-112 -140h-100z" />
    <glyph glyph-name="Zdotaccent" unicode="&#x17b;" 
d="M84 0v97l319 543h-314v90h417v-97l-320 -543h331v-90h-433zM300 814q-34 0 -54 18t-20 48t20 48t54 18t54 -18t20 -48t-20 -48t-54 -18z" />
    <glyph glyph-name="zdotaccent" unicode="&#x17c;" 
d="M87 0v96l303 365h-295v89h407v-96l-308 -365h319v-89h-426zM300 647q-34 0 -54 17.5t-20 47.5q0 31 20 49t54 18t54 -18t20 -49q0 -30 -20 -47.5t-54 -17.5z" />
    <glyph glyph-name="Zcaron" unicode="&#x17d;" 
d="M84 0v97l319 543h-314v90h417v-97l-320 -543h331v-90h-433zM255 810l-140 140h105l80 -77l78 77h107l-139 -140h-91z" />
    <glyph glyph-name="zcaron" unicode="&#x17e;" 
d="M87 0v96l303 365h-295v89h407v-96l-308 -365h319v-89h-426zM255 645l-140 140h105l80 -77l78 77h107l-139 -140h-91z" />
    <glyph glyph-name="longs" unicode="&#x17f;" 
d="M161 0v564q0 75 48 120.5t127 45.5h178v-87h-176q-35 0 -56.5 -22t-21.5 -58v-563h-99z" />
    <glyph glyph-name="uni018F" unicode="&#x18f;" 
d="M300 -10q-99 0 -156.5 58t-57.5 154v200h330v127q0 59 -29.5 91.5t-86.5 32.5q-56 0 -85.5 -32.5t-29.5 -91.5h-99q0 97 57 154t157 57q101 0 158 -56.5t57 -154.5v-327q0 -96 -57.5 -154t-157.5 -58zM300 71q60 0 88 33.5t28 97.5v124h-231v-124q0 -64 28 -97.5
t87 -33.5z" />
    <glyph glyph-name="uni0190" unicode="&#x190;" 
d="M309 -10q-73 0 -128.5 26.5t-86.5 74t-31 109.5q0 71 38.5 122t100.5 62v3q-52 12 -84.5 57.5t-32.5 105.5q0 56 28 99t77.5 67t114.5 24q67 0 118 -26.5t79.5 -74.5t28.5 -110h-98q0 55 -35.5 89.5t-92.5 34.5q-54 0 -87.5 -31t-33.5 -82q0 -52 34 -84.5t89 -32.5h87
v-87h-86q-64 0 -104 -36t-40 -93q0 -58 40 -94t104 -36q63 0 103 34.5t42 90.5h98q-1 -63 -31.5 -111t-85 -74.5t-125.5 -26.5z" />
    <glyph glyph-name="florin" unicode="&#x192;" 
d="M0 -180v91h108q51 0 80.5 29t29.5 79v290h-159v89h159v188q0 68 41.5 106t115.5 38h163v-87h-160q-61 0 -61 -58v-187h222v-89h-222v-292q0 -60 -26.5 -104t-73.5 -68.5t-110 -24.5h-107z" />
    <glyph glyph-name="uni019B" unicode="&#x19b;" 
d="M46 0l205 542l-1 4l-160 -80v84l132 66l-45 114h105l27 -71l161 81v-84l-135 -67l219 -589h-105l-125 348q-12 33 -18.5 61t-10.5 43q0 -15 -4.5 -43t-15.5 -61l-122 -348h-107z" />
    <glyph glyph-name="Ohorn" unicode="&#x1a0;" 
d="M300 -10q-100 0 -158 58t-58 164v307q0 105 58 163t158 58q81 0 135 -38q22 7 22 33v75h81v-79q0 -62 -50 -88q28 -51 28 -124v-307q0 -106 -58 -164t-158 -58zM300 78q56 0 86.5 32t30.5 92v327q0 59 -30 91t-87 32t-87 -32t-30 -91v-327q0 -60 30.5 -92t86.5 -32z" />
    <glyph glyph-name="ohorn" unicode="&#x1a1;" 
d="M300 -8q-101 0 -160.5 58t-59.5 162v126q0 104 59.5 162t160.5 58q70 0 121 -28h8q35 0 35 35v75h82v-79q0 -33 -16 -57t-44 -35q34 -53 34 -131v-126q0 -104 -59.5 -162t-160.5 -58zM300 79q56 0 88.5 31.5t32.5 92.5v144q0 61 -32.5 92.5t-88.5 31.5t-88.5 -31.5
t-32.5 -92.5v-144q0 -61 32.5 -92.5t88.5 -31.5z" />
    <glyph glyph-name="Uhorn" unicode="&#x1af;" 
d="M300 -10q-103 0 -158.5 57t-55.5 155v528h99v-528q0 -58 28.5 -91t86.5 -33q57 0 86.5 33t29.5 91v528h71q16 0 25.5 9.5t9.5 25.5v75h81v-79q0 -41 -23.5 -67.5t-64.5 -32.5v-459q0 -99 -55.5 -155.5t-159.5 -56.5z" />
    <glyph glyph-name="uhorn" unicode="&#x1b0;" 
d="M86 201v349h99v-349q0 -59 29.5 -91.5t81.5 -32.5q53 0 83 32.5t30 91.5v349h80q35 0 35 35v75h81v-79q0 -46 -23.5 -73.5t-73.5 -27.5v-279q0 -97 -58 -154t-154 -57t-153 57t-57 154z" />
    <glyph glyph-name="uni01CD" unicode="&#x1cd;" 
d="M46 0l189 730h131l188 -730h-101l-46 190h-214l-46 -190h-101zM213 272h174l-52 218q-15 60 -24 102t-11 57q-2 -15 -11 -57t-23 -101zM255 810l-140 140h105l80 -77l78 77h107l-139 -140h-91z" />
    <glyph glyph-name="uni01CE" unicode="&#x1ce;" 
d="M249 -10q-85 0 -134.5 47.5t-49.5 124.5t51.5 124t135.5 47h161v42q0 101 -112 101q-50 0 -80.5 -18.5t-32.5 -51.5h-98q5 67 61 110.5t150 43.5q101 0 156 -48t55 -135v-377h-97v101h-2q-7 -51 -50.5 -81t-113.5 -30zM275 73q63 0 100.5 30.5t37.5 83.5v73h-152
q-43 0 -69.5 -25.5t-26.5 -67.5q0 -43 29 -68.5t81 -25.5zM260 645l-140 140h105l80 -77l78 77h107l-139 -140h-91z" />
    <glyph glyph-name="uni01D0" unicode="&#x1d0;" 
d="M83 0v90h193v370h-173v90h272v-460h181v-90h-473zM271 645l-140 140h105l80 -77l78 77h107l-139 -140h-91z" />
    <glyph glyph-name="uni01D2" unicode="&#x1d2;" 
d="M300 -8q-101 0 -160.5 58t-59.5 162v126q0 104 59.5 162t160.5 58t160.5 -58t59.5 -162v-126q0 -104 -59.5 -162t-160.5 -58zM300 79q56 0 88.5 31.5t32.5 92.5v144q0 61 -32.5 92.5t-88.5 31.5t-88.5 -31.5t-32.5 -92.5v-144q0 -61 32.5 -92.5t88.5 -31.5zM255 645
l-140 140h105l80 -77l78 77h107l-139 -140h-91z" />
    <glyph glyph-name="uni01D4" unicode="&#x1d4;" 
d="M299 -10q-97 0 -155 57t-58 155v348h99v-348q0 -58 30.5 -91.5t83.5 -33.5q54 0 85 33.5t31 91.5v348h99v-348q0 -98 -58.5 -155t-156.5 -57zM255 645l-140 140h105l80 -77l78 77h107l-139 -140h-91z" />
    <glyph glyph-name="uni01D6" unicode="&#x1d6;" 
d="M299 -10q-97 0 -155 57t-58 155v348h99v-348q0 -58 30.5 -91.5t83.5 -33.5q54 0 85 33.5t31 91.5v348h99v-348q0 -98 -58.5 -155t-156.5 -57zM413 647q-31 0 -49 17.5t-18 47.5q0 31 18 49t49 18q30 0 48 -18t18 -49q0 -30 -18 -47.5t-48 -17.5zM187 647q-30 0 -48 17.5
t-18 47.5q0 31 18 49t48 18q31 0 49 -18t18 -49q0 -30 -18 -47.5t-49 -17.5zM137 897v80h326v-80h-326z" />
    <glyph glyph-name="uni01D8" unicode="&#x1d8;" 
d="M299 -10q-97 0 -155 57t-58 155v348h99v-348q0 -58 30.5 -91.5t83.5 -33.5q54 0 85 33.5t31 91.5v348h99v-348q0 -98 -58.5 -155t-156.5 -57zM413 647q-31 0 -49 17.5t-18 47.5q0 31 18 49t49 18q30 0 48 -18t18 -49q0 -30 -18 -47.5t-48 -17.5zM187 647q-30 0 -48 17.5
t-18 47.5q0 31 18 49t48 18q31 0 49 -18t18 -49q0 -30 -18 -47.5t-49 -17.5zM238 874l105 140h107l-112 -140h-100z" />
    <glyph glyph-name="uni01DA" unicode="&#x1da;" 
d="M299 -10q-97 0 -155 57t-58 155v348h99v-348q0 -58 30.5 -91.5t83.5 -33.5q54 0 85 33.5t31 91.5v348h99v-348q0 -98 -58.5 -155t-156.5 -57zM413 647q-31 0 -49 17.5t-18 47.5q0 31 18 49t49 18q30 0 48 -18t18 -49q0 -30 -18 -47.5t-48 -17.5zM187 647q-30 0 -48 17.5
t-18 47.5q0 31 18 49t48 18q31 0 49 -18t18 -49q0 -30 -18 -47.5t-49 -17.5zM255 874l-140 140h105l80 -77l78 77h107l-139 -140h-91z" />
    <glyph glyph-name="uni01DC" unicode="&#x1dc;" 
d="M299 -10q-97 0 -155 57t-58 155v348h99v-348q0 -58 30.5 -91.5t83.5 -33.5q54 0 85 33.5t31 91.5v348h99v-348q0 -98 -58.5 -155t-156.5 -57zM413 647q-31 0 -49 17.5t-18 47.5q0 31 18 49t49 18q30 0 48 -18t18 -49q0 -30 -18 -47.5t-48 -17.5zM187 647q-30 0 -48 17.5
t-18 47.5q0 31 18 49t48 18q31 0 49 -18t18 -49q0 -30 -18 -47.5t-49 -17.5zM263 874l-116 140h110l109 -140h-103z" />
    <glyph glyph-name="Gcaron" unicode="&#x1e6;" 
d="M304 -10q-101 0 -160.5 56.5t-59.5 155.5v327q0 98 59.5 154.5t160.5 56.5q100 0 159.5 -57t59.5 -154h-99q0 59 -32 91t-88 32q-57 0 -89 -32t-32 -91v-327q0 -60 32 -92t89 -32q56 0 88 32t32 92v95h-142v88h241v-183q0 -98 -59.5 -155t-159.5 -57zM255 810l-140 140
h105l80 -77l78 77h107l-139 -140h-91z" />
    <glyph glyph-name="gcaron" unicode="&#x1e7;" 
d="M159 -180v88h155q45 0 72 25.5t27 69.5v46l2 95h-1q-10 -51 -48.5 -79t-98.5 -28q-85 0 -134 54.5t-49 149.5v113q0 95 49 150.5t134 55.5q58 0 96.5 -28t49.5 -77h1v95h97v-548q0 -84 -53 -133t-144 -49h-155zM298 120q53 0 84 33t31 93v103q0 59 -31 92t-84 33
q-55 0 -85 -31.5t-30 -85.5v-120q0 -54 30 -85.5t85 -31.5zM252 645l-140 140h105l80 -77l78 77h107l-139 -140h-91z" />
    <glyph glyph-name="uni01EA" unicode="&#x1ea;" 
d="M375 -206q-56 0 -89.5 27t-33.5 68q0 23 18 51.5t48 54.5q-2 -1 -7 -3t-11 -2q-100 0 -158 56.5t-58 155.5v327q0 98 58 154.5t158 56.5t158 -56.5t58 -154.5v-327q0 -60 -22.5 -105.5t-62.5 -72.5l-32 -26q-31 -26 -43.5 -48t-12.5 -41q0 -21 14 -35t39 -14h62v-66h-83z
M300 78q56 0 86.5 32t30.5 92v327q0 59 -30 91t-87 32t-87 -32t-30 -91v-327q0 -60 30.5 -92t86.5 -32z" />
    <glyph glyph-name="uni01EB" unicode="&#x1eb;" 
d="M370 -206q-56 0 -89.5 27t-33.5 68q0 24 15 49.5t53 56.5q-7 -5 -15 -5q-100 0 -158 56.5t-58 155.5v147q0 98 58 154.5t158 56.5t158 -56.5t58 -154.5v-147q0 -62 -23.5 -107.5t-65.5 -71.5l-29 -25q-32 -26 -46 -48t-14 -41q0 -21 14 -35t39 -14h62v-66h-83zM300 78
q56 0 86.5 31.5t30.5 92.5v147q0 60 -30.5 92t-86.5 32t-86.5 -32t-30.5 -92v-147q0 -61 30.5 -92.5t86.5 -31.5z" />
    <glyph glyph-name="uni01F4" unicode="&#x1f4;" 
d="M304 -10q-101 0 -160.5 56.5t-59.5 155.5v327q0 98 59.5 154.5t160.5 56.5q100 0 159.5 -57t59.5 -154h-99q0 59 -32 91t-88 32q-57 0 -89 -32t-32 -91v-327q0 -60 32 -92t89 -32q56 0 88 32t32 92v95h-142v88h241v-183q0 -98 -59.5 -155t-159.5 -57zM238 810l105 140
h107l-112 -140h-100z" />
    <glyph glyph-name="uni01F5" unicode="&#x1f5;" 
d="M159 -180v88h155q45 0 72 25.5t27 69.5v46l2 95h-1q-10 -51 -48.5 -79t-98.5 -28q-85 0 -134 54.5t-49 149.5v113q0 95 49 150.5t134 55.5q58 0 96.5 -28t49.5 -77h1v95h97v-548q0 -84 -53 -133t-144 -49h-155zM298 120q53 0 84 33t31 93v103q0 59 -31 92t-84 33
q-55 0 -85 -31.5t-30 -85.5v-120q0 -54 30 -85.5t85 -31.5zM235 645l105 140h107l-112 -140h-100z" />
    <glyph glyph-name="AEacute" unicode="&#x1fc;" 
d="M26 0l143 730h403v-88h-180v-220h155v-89h-155v-244h180v-89h-272v197h-138l-38 -197h-98zM177 277h123v365h-55zM238 810l105 140h107l-112 -140h-100z" />
    <glyph glyph-name="aeacute" unicode="&#x1fd;" 
d="M178 -10q-65 0 -106 47t-41 122q0 74 42.5 120t110.5 46h76v74q0 40 -17 61.5t-48 21.5q-29 0 -47 -19.5t-18 -50.5h-85q0 66 38 107t99 41q48 0 82 -24.5t40 -64.5q5 40 37.5 64.5t78.5 24.5q65 0 105.5 -44.5t40.5 -115.5v-145h-220v-105q0 -39 17.5 -60.5t47.5 -21.5
t48 19.5t18 51.5h89q0 -66 -40.5 -107.5t-104.5 -41.5q-44 0 -77 25t-40 65q-8 -40 -43 -65t-83 -25zM346 325h131v75q0 38 -18 60t-48 22t-47.5 -22t-17.5 -60v-75zM192 68q31 0 49.5 22t18.5 60v105h-74q-30 0 -48 -25.5t-18 -68.5q0 -42 19 -67.5t53 -25.5zM238 645
l105 140h107l-112 -140h-100z" />
    <glyph glyph-name="Oslashacute" unicode="&#x1fe;" 
d="M32 -40l76 133q-24 47 -24 109v327q0 98 58 154.5t158 56.5q90 0 147 -46l32 56h89l-70 -124q18 -43 18 -97v-327q0 -99 -58 -155.5t-158 -56.5q-84 0 -139 40l-40 -70h-89zM182 529v-304l216 382q-30 45 -98 45q-57 0 -87.5 -32t-30.5 -91zM300 78q57 0 87.5 32t30.5 92
v283l-209 -370q30 -37 91 -37zM238 810l105 140h107l-112 -140h-100z" />
    <glyph glyph-name="oslashacute" unicode="&#x1ff;" 
d="M34 -30l79 113q-29 50 -29 119v147q0 98 58 154.5t158 56.5q75 0 128 -33l44 63h95l-84 -117q33 -51 33 -124v-147q0 -99 -58 -155.5t-158 -56.5q-79 0 -133 36l-40 -56h-93zM177 202q0 -14 2 -26l196 277q-30 20 -75 20q-58 0 -90.5 -33t-32.5 -91v-147zM300 78
q58 0 90.5 32.5t32.5 91.5v146q0 19 -3 35l-200 -282q31 -23 80 -23zM238 645l105 140h107l-112 -140h-100z" />
    <glyph glyph-name="uni0218" unicode="&#x218;" 
d="M304 -10q-108 0 -172 56.5t-64 155.5h99q0 -58 37 -91t100 -33q60 0 95.5 33.5t35.5 89.5q0 42 -23 73.5t-65 42.5l-108 29q-71 20 -112.5 72.5t-41.5 124.5q0 59 26.5 103.5t74.5 69t111 24.5q64 0 112.5 -24.5t75.5 -68.5t27 -102h-98q0 48 -32.5 78t-84.5 30
t-83.5 -30t-31.5 -78q0 -39 21 -65.5t59 -37.5l111 -30q75 -20 117 -76.5t42 -134.5q0 -64 -28 -111.5t-79.5 -73.5t-120.5 -26zM188 -240l95 145h112l-107 -145h-100z" />
    <glyph glyph-name="uni0219" unicode="&#x219;" 
d="M278 -8q-94 0 -146 42t-52 118h98q0 -36 26.5 -56.5t73.5 -20.5h44q49 0 75.5 21t26.5 59q0 67 -66 75l-148 21q-59 9 -91 48.5t-32 102.5q0 74 50 115t140 41h44q84 0 136 -40t55 -106h-100q-2 28 -26 46.5t-65 18.5h-44q-45 0 -69.5 -20t-24.5 -54q0 -55 55 -62
l139 -20q143 -19 143 -166q0 -78 -51.5 -120.5t-146.5 -42.5h-44zM188 -240l95 145h112l-107 -145h-100z" />
    <glyph glyph-name="uni021A" unicode="&#x21a;" 
d="M251 0v640h-198v90h494v-90h-197v-640h-99zM188 -240l95 145h112l-107 -145h-100z" />
    <glyph glyph-name="uni021B" unicode="&#x21b;" 
d="M355 0q-71 0 -112.5 41t-41.5 109v310h-157v90h157v155h99v-155h223v-90h-223v-309q0 -27 15.5 -44t41.5 -17h161v-90h-163zM248 -240l95 145h112l-107 -145h-100z" />
    <glyph glyph-name="uni0232" unicode="&#x232;" 
d="M251 0v271l-219 459h105l135 -288q12 -26 19.5 -47t9.5 -30q3 9 10.5 30t20.5 47l134 288h102l-218 -459v-271h-99zM137 837v80h326v-80h-326z" />
    <glyph glyph-name="uni0233" unicode="&#x233;" 
d="M175 -180l80 213l-205 517h105l124 -325q8 -21 16 -45t11 -42q3 18 10 42t15 45l115 325h105l-273 -730h-103zM137 668v80h326v-80h-326z" />
    <glyph glyph-name="uni0237" unicode="&#x237;" 
d="M88 -180v90h129q59 0 91.5 32.5t32.5 90.5v427h-258v90h357v-518q0 -97 -60 -154.5t-161 -57.5h-131z" />
    <glyph glyph-name="uni0259" unicode="&#x259;" 
d="M300 -10q-99 0 -156.5 58t-57.5 154v97h332v50q0 129 -118 129q-99 0 -113 -69h-99q10 69 67.5 110t144.5 41q99 0 157 -58t58 -153v-147q0 -96 -58 -154t-157 -58zM300 71q60 0 89 33.5t29 97.5v26h-236v-26q0 -64 29 -97.5t89 -33.5z" />
    <glyph glyph-name="uni02B9" unicode="&#x2b9;" 
d="M161 410l80 311h138l-130 -311h-88z" />
    <glyph glyph-name="uni02BA" unicode="&#x2ba;" 
d="M328 409l80 311h137l-130 -311h-87zM53 409l80 311h137l-130 -311h-87z" />
    <glyph glyph-name="uni02BC" unicode="&#x2bc;" 
d="M161 465l80 311h138l-130 -311h-88z" />
    <glyph glyph-name="circumflex" unicode="&#x2c6;" 
d="M115 645l139 140h91l140 -140h-105l-80 77l-78 -77h-107z" />
    <glyph glyph-name="caron" unicode="&#x2c7;" 
d="M255 645l-140 140h105l80 -77l78 77h107l-139 -140h-91z" />
    <glyph glyph-name="uni02C9" unicode="&#x2c9;" 
d="M137 668v80h326v-80h-326z" />
    <glyph glyph-name="breve" unicode="&#x2d8;" 
d="M300 639q-74 0 -119 40t-45 106h78q0 -37 23.5 -60t61.5 -23q39 0 63 23t24 60h78q0 -66 -45 -106t-119 -40z" />
    <glyph glyph-name="dotaccent" unicode="&#x2d9;" 
d="M300 647q-34 0 -54 17.5t-20 47.5q0 31 20 49t54 18t54 -18t20 -49q0 -30 -20 -47.5t-54 -17.5z" />
    <glyph glyph-name="ring" unicode="&#x2da;" 
d="M300 607q-55 0 -89 32t-34 84t34 84t89 32t89 -32t34 -84t-34 -84t-89 -32zM300 662q27 0 43.5 16.5t16.5 44.5q0 27 -16.5 44t-43.5 17t-43.5 -17t-16.5 -44q0 -28 16.5 -44.5t43.5 -16.5z" />
    <glyph glyph-name="ogonek" unicode="&#x2db;" 
d="M305 -206q-56 0 -89.5 27t-33.5 68q0 30 20.5 60t68.5 61h77l-15 -12q-31 -26 -45.5 -48t-14.5 -41q0 -21 14.5 -35t39.5 -14h61v-66h-83z" />
    <glyph glyph-name="tilde" unicode="&#x2dc;" 
d="M370 648q-30 0 -49 10t-32 24t-25 24t-29 10q-30 0 -30 -34v-29h-68v31q0 46 25.5 72t67.5 26q30 0 49 -10t32 -24t25 -24t29 -10q30 0 30 34v29h68v-30q0 -47 -25.5 -73t-67.5 -26z" />
    <glyph glyph-name="hungarumlaut" unicode="&#x2dd;" 
d="M325 645l110 140h99l-115 -140h-94zM141 645l109 140h100l-115 -140h-94z" />
    <glyph glyph-name="uni02F3" unicode="&#x2f3;" 
d="M300 -251q-55 0 -88 27.5t-33 72.5q0 46 33 73.5t88 27.5t88.5 -27.5t33.5 -73.5q0 -45 -33.5 -72.5t-88.5 -27.5zM299 -200q28 0 44.5 13.5t16.5 35.5q0 25 -16.5 37.5t-44.5 12.5q-26 0 -42.5 -13.5t-16.5 -36.5q0 -22 16.5 -35.5t42.5 -13.5z" />
    <glyph glyph-name="uni02F7" unicode="&#x2f7;" 
d="M370 -214q-30 0 -49 10t-32 23.5t-25 24t-29 10.5q-30 0 -30 -35v-28h-68v30q0 46 25.5 72.5t67.5 26.5q30 0 49 -10.5t32 -24t25 -23.5t29 -10q30 0 30 33v30h68v-31q0 -46 -25.5 -72t-67.5 -26z" />
    <glyph glyph-name="gravecomb" unicode="&#x300;" horiz-adv-x="0" 
d="M-327 645l-116 140h110l109 -140h-103z" />
    <glyph glyph-name="acutecomb" unicode="&#x301;" horiz-adv-x="0" 
d="M-372 645l105 140h107l-112 -140h-100z" />
    <glyph glyph-name="uni0302" unicode="&#x302;" horiz-adv-x="0" 
d="M-485 645l139 140h91l140 -140h-105l-80 77l-78 -77h-107z" />
    <glyph glyph-name="tildecomb" unicode="&#x303;" horiz-adv-x="0" 
d="M-230 648q-30 0 -49 10t-32 24t-25 24t-29 10q-30 0 -30 -34v-29h-68v31q0 46 25.5 72t67.5 26q30 0 49 -10t32 -24t25 -24t29 -10q30 0 30 34v29h68v-30q0 -47 -25.5 -73t-67.5 -26z" />
    <glyph glyph-name="uni0304" unicode="&#x304;" horiz-adv-x="0" 
d="M-463 668v80h326v-80h-326z" />
    <glyph glyph-name="uni0306" unicode="&#x306;" horiz-adv-x="0" 
d="M-300 639q-74 0 -119 40t-45 106h78q0 -37 23.5 -60t61.5 -23q39 0 63 23t24 60h78q0 -66 -45 -106t-119 -40z" />
    <glyph glyph-name="uni0307" unicode="&#x307;" horiz-adv-x="0" 
d="M-300 647q-34 0 -54 17.5t-20 47.5q0 31 20 49t54 18t54 -18t20 -49q0 -30 -20 -47.5t-54 -17.5z" />
    <glyph glyph-name="uni0308" unicode="&#x308;" horiz-adv-x="0" 
d="M-187 647q-31 0 -49 17.5t-18 47.5q0 31 18 49t49 18q30 0 48 -18t18 -49q0 -30 -18 -47.5t-48 -17.5zM-413 647q-30 0 -48 17.5t-18 47.5q0 31 18 49t48 18q31 0 49 -18t18 -49q0 -30 -18 -47.5t-49 -17.5z" />
    <glyph glyph-name="hookabovecomb" unicode="&#x309;" horiz-adv-x="0" 
d="M-344 645l50 62q14 19 14 32q0 19 -31 19h-80v68h105q39 0 63.5 -20t24.5 -55q0 -33 -18 -55l-39 -51h-89z" />
    <glyph glyph-name="uni030A" unicode="&#x30a;" horiz-adv-x="0" 
d="M-300 607q-55 0 -89 32t-34 84t34 84t89 32t89 -32t34 -84t-34 -84t-89 -32zM-300 662q27 0 43.5 16.5t16.5 44.5q0 27 -16.5 44t-43.5 17t-43.5 -17t-16.5 -44q0 -28 16.5 -44.5t43.5 -16.5z" />
    <glyph glyph-name="uni030B" unicode="&#x30b;" horiz-adv-x="0" 
d="M-275 645l110 140h99l-115 -140h-94zM-459 645l109 140h100l-115 -140h-94z" />
    <glyph glyph-name="uni030C" unicode="&#x30c;" horiz-adv-x="0" 
d="M-345 645l-140 140h105l80 -77l78 77h107l-139 -140h-91z" />
    <glyph glyph-name="uni030F" unicode="&#x30f;" horiz-adv-x="0" 
d="M-325 645h-94l-115 140h99zM-141 645h-94l-115 140h100z" />
    <glyph glyph-name="uni0312" unicode="&#x312;" horiz-adv-x="0" 
d="M-181 880l-80 -235h-132l130 235h82z" />
    <glyph glyph-name="uni031B" unicode="&#x31b;" horiz-adv-x="0" 
d="M-235 480v70h30q35 0 35 35v75h82v-79q0 -46 -30.5 -73.5t-80.5 -27.5h-36z" />
    <glyph glyph-name="dotbelowcomb" unicode="&#x323;" horiz-adv-x="0" 
d="M-300 -216q-34 0 -54 17.5t-20 47.5q0 31 20 49t54 18t54 -18t20 -49q0 -30 -20 -47.5t-54 -17.5z" />
    <glyph glyph-name="uni0325" unicode="&#x325;" horiz-adv-x="0" 
d="M-300 -251q-55 0 -88 27.5t-33 72.5q0 46 33 73.5t88 27.5t88.5 -27.5t33.5 -73.5q0 -45 -33.5 -72.5t-88.5 -27.5zM-301 -200q28 0 44.5 13.5t16.5 35.5q0 25 -16.5 37.5t-44.5 12.5q-26 0 -42.5 -13.5t-16.5 -36.5q0 -22 16.5 -35.5t42.5 -13.5z" />
    <glyph glyph-name="uni0326" unicode="&#x326;" horiz-adv-x="0" 
d="M-412 -240l95 145h112l-107 -145h-100z" />
    <glyph glyph-name="uni0327" unicode="&#x327;" horiz-adv-x="0" 
d="M-397 -206v57h71q22 0 36 11.5t14 24.5q0 18 -28 31t-78 13l35 94h59l-21 -61q27 -2 55.5 -12.5t48.5 -28.5t20 -45q0 -35 -34 -59.5t-89 -24.5h-89z" />
    <glyph glyph-name="uni0328" unicode="&#x328;" horiz-adv-x="0" 
d="M-295 -206q-56 0 -89.5 27t-33.5 68q0 30 20.5 60t68.5 61h77l-15 -12q-31 -26 -45.5 -48t-14.5 -41q0 -21 14.5 -35t39.5 -14h61v-66h-83z" />
    <glyph glyph-name="uni0336" unicode="&#x336;" horiz-adv-x="0" 
d="M-630 286v76h660v-76h-660z" />
    <glyph glyph-name="uni0337" unicode="&#x337;" horiz-adv-x="0" 
d="M-566 -30l438 620h95l-440 -620h-93z" />
    <glyph glyph-name="uni0338" unicode="&#x338;" horiz-adv-x="0" 
d="M-491 -110l315 770h67l-315 -770h-67z" />
    <glyph glyph-name="uni0374" unicode="&#x374;" 
d="M161 410l80 311h138l-130 -311h-88z" />
    <glyph glyph-name="uni0375" unicode="&#x375;" 
d="M205 -160l54 306h117l-71 -306h-100z" />
    <glyph glyph-name="uni037E" unicode="&#x37e;" 
d="M290 406q-34 0 -55.5 21.5t-21.5 55.5q0 33 22 55t55 22h20q33 0 55 -22t22 -55q0 -34 -21.5 -55.5t-55.5 -21.5h-20zM200 -160l54 306h117l-71 -306h-100z" />
    <glyph glyph-name="tonos" unicode="&#x384;" 
d="M206 645l105 140h110l-112 -140h-103z" />
    <glyph glyph-name="dieresistonos" unicode="&#x385;" 
d="M255 773l78 131h87l-87 -131h-78zM413 647q-31 0 -49 17.5t-18 47.5q0 31 18 49t49 18q30 0 48 -18t18 -49q0 -30 -18 -47.5t-48 -17.5zM187 647q-30 0 -48 17.5t-18 47.5q0 31 18 49t48 18q31 0 49 -18t18 -49q0 -30 -18 -47.5t-49 -17.5z" />
    <glyph glyph-name="Alphatonos" unicode="&#x386;" 
d="M46 0l189 730h131l188 -730h-101l-46 190h-214l-46 -190h-101zM213 272h174l-52 218q-15 60 -24 102t-11 57q-2 -15 -11 -57t-23 -101zM3 570l56 160h100l-64 -160h-92z" />
    <glyph glyph-name="anoteleia" unicode="&#x387;" 
d="M300 265q-38 0 -61.5 23t-23.5 59q0 38 23.5 62t61.5 24t61.5 -24t23.5 -62q0 -36 -23.5 -59t-61.5 -23z" />
    <glyph glyph-name="Epsilontonos" unicode="&#x388;" 
d="M97 0v730h425v-89h-327v-217h292v-86h-292v-249h327v-89h-425zM-119 570l56 160h100l-64 -160h-92z" />
    <glyph glyph-name="Etatonos" unicode="&#x389;" 
d="M-119 570l56 160h100l-64 -160h-92zM89 0v730h99v-308h224v308h99v-730h-99v332h-224v-332h-99z" />
    <glyph glyph-name="Iotatonos" unicode="&#x38a;" 
d="M-119 570l56 160h100l-64 -160h-92zM101 0v90h149v550h-149v90h398v-90h-149v-550h149v-90h-398z" />
    <glyph glyph-name="Omicrontonos" unicode="&#x38c;" 
d="M-85 570l56 160h100l-64 -160h-92zM300 -10q-100 0 -158 58t-58 164v307q0 105 58 163t158 58t158 -57.5t58 -163.5v-307q0 -106 -58 -164t-158 -58zM300 78q56 0 86.5 32t30.5 92v327q0 59 -30 91t-87 32t-87 -32t-30 -91v-327q0 -60 30.5 -92t86.5 -32z" />
    <glyph glyph-name="Upsilontonos" unicode="&#x38e;" 
d="M-134 570l56 160h100l-64 -160h-92zM251 0v271l-219 459h105l135 -288q12 -26 19.5 -47t9.5 -30q3 9 10.5 30t20.5 47l134 288h102l-218 -459v-271h-99z" />
    <glyph glyph-name="Omegatonos" unicode="&#x38f;" 
d="M50 0v89h145v5q-26 3 -53.5 20.5t-47 52t-19.5 87.5v270q0 98 61 157t164 59t164 -59t61 -157v-270q0 -53 -19.5 -87t-47 -51.5t-53.5 -20.5v-6h146v-89h-211v128q38 0 62 34t24 87v275q0 58 -34.5 93.5t-91.5 35.5t-91.5 -35.5t-34.5 -93.5v-275q0 -53 24 -87t62 -34
v-128h-210zM-85 570l56 160h100l-64 -160h-92z" />
    <glyph glyph-name="iotadieresistonos" unicode="&#x390;" 
d="M411 0q-75 0 -120.5 44t-45.5 117v299h-192v90h291v-389q0 -33 18.5 -52t50.5 -19h139v-90h-141zM255 773l78 131h87l-87 -131h-78zM413 647q-31 0 -49 17.5t-18 47.5q0 31 18 49t49 18q30 0 48 -18t18 -49q0 -30 -18 -47.5t-48 -17.5zM187 647q-30 0 -48 17.5t-18 47.5
q0 31 18 49t48 18q31 0 49 -18t18 -49q0 -30 -18 -47.5t-49 -17.5z" />
    <glyph glyph-name="Alpha" unicode="&#x391;" 
d="M46 0l189 730h131l188 -730h-101l-46 190h-214l-46 -190h-101zM213 272h174l-52 218q-15 60 -24 102t-11 57q-2 -15 -11 -57t-23 -101z" />
    <glyph glyph-name="Beta" unicode="&#x392;" 
d="M89 0v730h211q101 0 159.5 -50.5t58.5 -138.5q0 -57 -35.5 -101.5t-91.5 -54.5v-3q42 -5 74.5 -30t51 -63.5t18.5 -84.5q0 -94 -59.5 -149t-161.5 -55h-225zM186 422h113q56 0 88 29.5t32 80.5q0 52 -32 81.5t-87 29.5h-114v-221zM186 87h119q61 0 96 32.5t35 88.5
q0 58 -35 94t-96 36h-119v-251z" />
    <glyph glyph-name="Gamma" unicode="&#x393;" 
d="M128 0v730h428v-90h-329v-640h-99z" />
    <glyph glyph-name="uni0394" unicode="&#x394;" 
d="M46 0l189 730h131l188 -730h-508zM266 491l-98 -403h264l-98 402q-12 48 -21 92.5t-13 67.5q-5 -23 -14 -67t-20 -92z" />
    <glyph glyph-name="Epsilon" unicode="&#x395;" 
d="M97 0v730h425v-89h-327v-217h292v-86h-292v-249h327v-89h-425z" />
    <glyph glyph-name="Zeta" unicode="&#x396;" 
d="M84 0v97l319 543h-314v90h417v-97l-320 -543h331v-90h-433z" />
    <glyph glyph-name="Eta" unicode="&#x397;" 
d="M89 0v730h99v-308h224v308h99v-730h-99v332h-224v-332h-99z" />
    <glyph glyph-name="Theta" unicode="&#x398;" 
d="M300 -10q-100 0 -158 56.5t-58 155.5v327q0 98 58 154.5t158 56.5t158 -56.5t58 -154.5v-327q0 -99 -58 -155.5t-158 -56.5zM300 78q56 0 86.5 32t30.5 92v327q0 59 -30 91t-87 32t-87 -32t-30 -91v-327q0 -60 30.5 -92t86.5 -32zM214 322v91h172v-91h-172z" />
    <glyph glyph-name="Iota" unicode="&#x399;" 
d="M101 0v90h149v550h-149v90h398v-90h-149v-550h149v-90h-398z" />
    <glyph glyph-name="Kappa" unicode="&#x39a;" 
d="M88 0v730h99v-310h102l156 310h108l-177 -351l186 -379h-112l-163 333h-100v-333h-99z" />
    <glyph glyph-name="Lambda" unicode="&#x39b;" 
d="M46 0l189 730h131l188 -730h-101l-119 490q-16 67 -25 113.5l-9 46.5l-9 -46.5t-25 -112.5l-119 -491h-101z" />
    <glyph glyph-name="Mu" unicode="&#x39c;" 
d="M68 0v730h140l90 -315l94 315h141v-730h-95v335q0 53 2 117.5t5.5 129t7.5 116.5l-114 -374h-84l-110 365q9 -73 13 -162.5t4 -191.5v-335h-94z" />
    <glyph glyph-name="Nu" unicode="&#x39d;" 
d="M86 0v730h128l218 -616q-3 26 -5.5 64.5t-4 80t-1.5 78.5v393h94v-730h-129l-216 616q2 -26 4 -63.5t3.5 -78.5t1.5 -77v-397h-93z" />
    <glyph glyph-name="Xi" unicode="&#x39e;" 
d="M78 639v91h444v-91h-444zM108 325v90h384v-90h-384zM78 0v91h444v-91h-444z" />
    <glyph glyph-name="Omicron" unicode="&#x39f;" 
d="M300 -10q-100 0 -158 58t-58 164v307q0 105 58 163t158 58t158 -57.5t58 -163.5v-307q0 -106 -58 -164t-158 -58zM300 78q56 0 86.5 32t30.5 92v327q0 59 -30 91t-87 32t-87 -32t-30 -91v-327q0 -60 30.5 -92t86.5 -32z" />
    <glyph glyph-name="Pi" unicode="&#x3a0;" 
d="M90 0v730h420v-730h-99v640h-222v-640h-99z" />
    <glyph glyph-name="Rho" unicode="&#x3a1;" 
d="M88 0v730h237q70 0 121 -27t79 -75.5t28 -115.5q0 -66 -28 -114.5t-79.5 -75.5t-120.5 -27h-138v-295h-99zM187 383h138q58 0 92 35.5t34 93.5q0 59 -34 94.5t-92 35.5h-138v-259z" />
    <glyph glyph-name="Sigma" unicode="&#x3a3;" 
d="M74 0v88l225 283l-225 272v87h476v-88h-359l227 -267l-228 -287h360v-88h-476z" />
    <glyph glyph-name="Tau" unicode="&#x3a4;" 
d="M251 0v640h-198v90h494v-90h-197v-640h-99z" />
    <glyph glyph-name="Upsilon" unicode="&#x3a5;" 
d="M251 0v271l-219 459h105l135 -288q12 -26 19.5 -47t9.5 -30q3 9 10.5 30t20.5 47l134 288h102l-218 -459v-271h-99z" />
    <glyph glyph-name="Phi" unicode="&#x3a6;" 
d="M251 -25v80q-60 0 -107 26t-74 73t-27 111v216q0 65 26.5 113t73.5 74.5t108 26.5v75h99v-75q60 0 107 -26.5t73.5 -74.5t26.5 -113v-216q0 -64 -27 -111t-73.5 -73t-106.5 -26v-80h-99zM257 137v476q-55 0 -89.5 -35.5t-34.5 -96.5v-216q0 -60 34.5 -94t89.5 -34z
M343 137q55 0 89.5 34t34.5 94v216q0 61 -34.5 96.5t-89.5 35.5v-476z" />
    <glyph glyph-name="Chi" unicode="&#x3a7;" 
d="M37 0l208 371l-197 359h113l108 -208l18.5 -37l14.5 -29q5 10 14 29t18 37l109 208h109l-197 -354l208 -376h-112l-120 224q-9 18 -18 37.5t-14 31.5q-5 -12 -14 -31.5t-19 -36.5l-120 -225h-109z" />
    <glyph glyph-name="Psi" unicode="&#x3a8;" 
d="M251 0v170q-60 1 -105 27t-70.5 73t-25.5 110v350h91v-350q0 -60 31.5 -93t85.5 -33v476h84v-476q54 0 85.5 33t31.5 93v350h91v-350q0 -63 -25.5 -110t-70.5 -73t-104 -27v-170h-99z" />
    <glyph glyph-name="uni03A9" unicode="&#x3a9;" 
d="M50 0v89h145v5q-26 3 -53.5 20.5t-47 52t-19.5 87.5v270q0 98 61 157t164 59t164 -59t61 -157v-270q0 -53 -19.5 -87t-47 -51.5t-53.5 -20.5v-6h146v-89h-211v128q38 0 62 34t24 87v275q0 58 -34.5 93.5t-91.5 35.5t-91.5 -35.5t-34.5 -93.5v-275q0 -53 24 -87t62 -34
v-128h-210z" />
    <glyph glyph-name="Iotadieresis" unicode="&#x3aa;" 
d="M413 815q-31 0 -49 17.5t-18 47.5q0 31 18 49t49 18q30 0 48 -18t18 -49q0 -30 -18 -47.5t-48 -17.5zM187 815q-30 0 -48 17.5t-18 47.5q0 31 18 49t48 18q31 0 49 -18t18 -49q0 -30 -18 -47.5t-49 -17.5zM101 0v90h149v550h-149v90h398v-90h-149v-550h149v-90h-398z" />
    <glyph glyph-name="Upsilondieresis" unicode="&#x3ab;" 
d="M413 815q-31 0 -49 17.5t-18 47.5q0 31 18 49t49 18q30 0 48 -18t18 -49q0 -30 -18 -47.5t-48 -17.5zM187 815q-30 0 -48 17.5t-18 47.5q0 31 18 49t48 18q31 0 49 -18t18 -49q0 -30 -18 -47.5t-49 -17.5zM251 0v271l-219 459h105l135 -288q12 -26 19.5 -47t9.5 -30
q3 9 10.5 30t20.5 47l134 288h102l-218 -459v-271h-99z" />
    <glyph glyph-name="alphatonos" unicode="&#x3ac;" 
d="M229 645l106 140h110l-112 -140h-104zM264 -10q-83 0 -133 55.5t-50 150.5v158q0 95 50 150.5t133 55.5q60 0 99.5 -30.5t49.5 -82.5h2l-2 103h99v-550h-98v104h-1q-10 -54 -49.5 -84t-99.5 -30zM298 76q53 0 84 33t31 93v146q0 60 -31 93t-84 33q-55 0 -86.5 -32.5
t-31.5 -92.5v-147q0 -61 31.5 -93.5t86.5 -32.5z" />
    <glyph glyph-name="epsilontonos" unicode="&#x3ad;" 
d="M335 -7h-55q-97 0 -153 45t-56 120q0 60 33.5 97.5t94.5 41.5v4q-51 4 -83 35t-32 78q0 68 54 105.5t145 37.5h47q88 0 140 -39t54 -106h-99q-1 28 -26.5 44.5t-68.5 16.5h-47q-45 0 -71 -19.5t-26 -53.5t26 -54t71 -20h119v-83h-122q-50 0 -78.5 -22.5t-28.5 -60.5
t28.5 -59.5t78.5 -21.5h55q47 0 74.5 20t27.5 53h98q0 -73 -54 -116t-146 -43zM236 645l105 140h110l-112 -140h-103z" />
    <glyph glyph-name="etatonos" unicode="&#x3ae;" 
d="M88 0v550h98v-105h1q7 54 45.5 84.5t101.5 30.5q82 0 131 -52t49 -140v-368h-99v352q0 60 -30 92t-82 32q-54 0 -85 -33.5t-31 -93.5v-349h-99zM241 645l105 140h110l-112 -140h-103z" />
    <glyph glyph-name="iotatonos" unicode="&#x3af;" 
d="M411 0q-75 0 -120.5 44t-45.5 117v299h-192v90h291v-389q0 -33 18.5 -52t50.5 -19h139v-90h-141zM231 645l105 140h110l-112 -140h-103z" />
    <glyph glyph-name="upsilondieresistonos" unicode="&#x3b0;" 
d="M299 -10q-97 0 -155 57t-58 155v348h99v-348q0 -58 30.5 -91.5t83.5 -33.5q54 0 85 33.5t31 91.5v348h99v-348q0 -98 -58.5 -155t-156.5 -57zM255 773l78 131h87l-87 -131h-78zM413 647q-31 0 -49 17.5t-18 47.5q0 31 18 49t49 18q30 0 48 -18t18 -49q0 -30 -18 -47.5
t-48 -17.5zM187 647q-30 0 -48 17.5t-18 47.5q0 31 18 49t48 18q31 0 49 -18t18 -49q0 -30 -18 -47.5t-49 -17.5z" />
    <glyph glyph-name="alpha" unicode="&#x3b1;" 
d="M264 -10q-83 0 -133 55.5t-50 150.5v158q0 95 50 150.5t133 55.5q60 0 99.5 -30.5t49.5 -82.5h2l-2 103h99v-550h-98v104h-1q-10 -54 -49.5 -84t-99.5 -30zM298 76q53 0 84 33t31 93v146q0 60 -31 93t-84 33q-55 0 -86.5 -32.5t-31.5 -92.5v-147q0 -61 31.5 -93.5
t86.5 -32.5z" />
    <glyph glyph-name="beta" unicode="&#x3b2;" 
d="M87 -180v707q0 63 27 111t74.5 75t110.5 27q62 0 109 -23t73.5 -64t26.5 -95q0 -56 -31.5 -98t-81.5 -54v-3q43 -7 76.5 -34t52.5 -68.5t19 -91.5q0 -65 -27 -114t-74.5 -77t-110.5 -28q-61 0 -99.5 30t-45.5 82h-3l3 -123v-159h-99zM316 81q56 0 91 37.5t35 98.5t-35 99
t-92 38h-53v80h37q50 0 81 30t31 80q0 49 -31 79t-81 30t-81.5 -34.5t-31.5 -91.5v-310q0 -61 36 -98.5t94 -37.5z" />
    <glyph glyph-name="gamma" unicode="&#x3b3;" 
d="M251 -180v180l-196 550h104l120 -357q12 -33 16.5 -60.5t8.5 -44.5q3 17 7.5 44.5t15.5 60.5l117 357h101l-195 -550v-180h-99z" />
    <glyph glyph-name="delta" unicode="&#x3b4;" 
d="M300 -10q-66 0 -115.5 26.5t-77 75t-27.5 114.5v96q0 62 25 109.5t69 74t102 26.5h6q-34 28 -78 60t-100 72v86h401v-82h-287q96 -62 163.5 -120.5t103 -125.5t35.5 -154q0 -133 -59 -195.5t-161 -62.5zM300 78q55 0 87 39t32 131q0 58 -12.5 101t-43.5 83h-64
q-53 0 -86.5 -35t-33.5 -93v-98q0 -61 33 -94.5t88 -33.5z" />
    <glyph glyph-name="epsilon" unicode="&#x3b5;" 
d="M335 -7h-55q-97 0 -153 45t-56 120q0 60 33.5 97.5t94.5 41.5v4q-51 4 -83 35t-32 78q0 68 54 105.5t145 37.5h47q88 0 140 -39t54 -106h-99q-1 28 -26.5 44.5t-68.5 16.5h-47q-45 0 -71 -19.5t-26 -53.5t26 -54t71 -20h119v-83h-122q-50 0 -78.5 -22.5t-28.5 -60.5
t28.5 -59.5t78.5 -21.5h55q47 0 74.5 20t27.5 53h98q0 -73 -54 -116t-146 -43z" />
    <glyph glyph-name="zeta" unicode="&#x3b6;" 
d="M482 -186l-76 46l45 71q10 15 10 29q0 26 -32 36l-129 37q-100 28 -148 77.5t-48 123.5q0 70 49 141t156 160l127 105h-317v90h438v-96l-186 -164q-87 -77 -126.5 -131.5t-39.5 -100.5q0 -76 128 -113l129 -37q48 -14 73.5 -43.5t25.5 -68.5q0 -42 -30 -86z" />
    <glyph glyph-name="eta" unicode="&#x3b7;" 
d="M88 0v550h98v-105h1q7 54 45.5 84.5t101.5 30.5q82 0 131 -52t49 -140v-368h-99v352q0 60 -30 92t-82 32q-54 0 -85 -33.5t-31 -93.5v-349h-99z" />
    <glyph glyph-name="theta" unicode="&#x3b8;" 
d="M300 -10q-100 0 -158 56.5t-58 155.5v317q0 98 58 154.5t158 56.5t158 -56.5t58 -154.5v-317q0 -99 -58 -155.5t-158 -56.5zM183 407h234v112q0 60 -30.5 92t-86.5 32t-86.5 -32t-30.5 -92v-112zM300 78q56 0 86.5 31.5t30.5 92.5v120h-234v-120q0 -61 30.5 -92.5
t86.5 -31.5z" />
    <glyph glyph-name="iota" unicode="&#x3b9;" 
d="M411 0q-75 0 -120.5 44t-45.5 117v299h-192v90h291v-389q0 -33 18.5 -52t50.5 -19h139v-90h-141z" />
    <glyph glyph-name="kappa" unicode="&#x3ba;" 
d="M99 0v550h99v-223h102l145 223h113l-173 -264l183 -286h-115l-152 237h-103v-237h-99z" />
    <glyph glyph-name="lambda" unicode="&#x3bb;" 
d="M46 0l205 542l-74 188h105l272 -730h-105l-125 348q-12 33 -18.5 61t-10.5 43q0 -15 -4.5 -43t-15.5 -61l-122 -348h-107z" />
    <glyph glyph-name="uni03BC" unicode="&#x3bc;" 
d="M89 -180v730h99v-348q0 -60 28.5 -93t82.5 -33q53 0 83.5 33t30.5 93v348h99v-550h-97v105h-2q-4 -53 -30.5 -84t-84.5 -31t-82.5 31t-27.5 84h-2l2 -126v-159h-99z" />
    <glyph glyph-name="nu" unicode="&#x3bd;" 
d="M236 0l-186 550h105l117 -361q10 -32 18 -62.5t12 -48.5q4 18 11 48.5t17 62.5l116 361h105l-187 -550h-128z" />
    <glyph glyph-name="xi" unicode="&#x3be;" 
d="M323 652q-53 0 -85.5 -31.5t-32.5 -79.5q0 -47 32.5 -74t85.5 -27h148v-87h-143q-64 0 -103.5 -33.5t-39.5 -87.5q0 -76 110 -109l145 -43q75 -23 90.5 -75.5t-28.5 -122.5l-42 -68l-76 42l43 71q14 22 9 39.5t-32 25.5l-138 42q-185 57 -185 196q0 67 39 114.5t101 59.5
v3q-52 12 -84.5 52.5t-32.5 97.5q0 53 27.5 94.5t77 65t114.5 23.5q64 0 112 -22.5t75.5 -62t30.5 -91.5h-99q-4 39 -35.5 63.5t-83.5 24.5z" />
    <glyph glyph-name="omicron" unicode="&#x3bf;" 
d="M300 -8q-101 0 -160.5 58t-59.5 162v126q0 104 59.5 162t160.5 58t160.5 -58t59.5 -162v-126q0 -104 -59.5 -162t-160.5 -58zM300 79q56 0 88.5 31.5t32.5 92.5v144q0 61 -32.5 92.5t-88.5 31.5t-88.5 -31.5t-32.5 -92.5v-144q0 -61 32.5 -92.5t88.5 -31.5z" />
    <glyph glyph-name="pi" unicode="&#x3c0;" 
d="M536 -5q-78 0 -124.5 48.5t-46.5 129.5v290h-164v-463h-96v463h-82v87h534v-87h-97v-294q0 -40 20 -61t54 -21h24v-92h-22z" />
    <glyph glyph-name="rho" unicode="&#x3c1;" 
d="M90 -180v534q0 95 57.5 150.5t155.5 55.5t155 -55t57 -151v-157q0 -96 -48 -151.5t-131 -55.5q-61 0 -100 31t-46 84h-4l3 -126v-159h-99zM302 76q55 0 84.5 32.5t29.5 93.5v147q0 60 -29.5 92.5t-84.5 32.5t-84 -32.5t-29 -92.5v-147q0 -60 30 -93t83 -33z" />
    <glyph glyph-name="uni03C2" unicode="&#x3c2;" 
d="M342 -144l43 71q14 22 9 39.5t-32 25.5l-117 37q-75 23 -117 73.5t-42 120.5v126q0 98 61 154.5t162 56.5q97 0 156 -51.5t62 -140.5h-99q-3 50 -34.5 77.5t-84.5 27.5q-57 0 -90.5 -32.5t-33.5 -91.5v-126q0 -36 23.5 -64t64.5 -41l125 -38q75 -23 90.5 -75.5
t-28.5 -122.5l-42 -68z" />
    <glyph glyph-name="sigma" unicode="&#x3c3;" 
d="M297 -10q-65 0 -113.5 26.5t-75.5 74t-27 111.5v137q0 63 27 110.5t75.5 74t113.5 26.5h271v-88h-164v-3q51 -6 80.5 -40.5t29.5 -88.5v-128q0 -64 -27 -111.5t-75.5 -74t-114.5 -26.5zM297 78q55 0 86.5 33t31.5 91v137q0 59 -31.5 91.5t-86.5 32.5t-86 -33.5t-31 -90.5
v-137q0 -58 31 -91t86 -33z" />
    <glyph glyph-name="tau" unicode="&#x3c4;" 
d="M365 0q-71 0 -112.5 41t-41.5 109v310h-167v90h479v-90h-213v-309q0 -27 15.5 -44t41.5 -17h151v-90h-153z" />
    <glyph glyph-name="upsilon" unicode="&#x3c5;" 
d="M299 -10q-97 0 -155 57t-58 155v348h99v-348q0 -58 30.5 -91.5t83.5 -33.5q54 0 85 33.5t31 91.5v348h99v-348q0 -98 -58.5 -155t-156.5 -57z" />
    <glyph glyph-name="phi" unicode="&#x3c6;" 
d="M251 -180v180q-59 0 -104.5 26.5t-71 73t-25.5 107.5v143q0 53 18 97t50 72.5t74 35.5v-102q-22 -5 -36 -33.5t-14 -64.5l-1 -152q0 -56 33 -90.5t86 -34.5v472h86q60 0 106 -25t72 -70t26 -105v-143q0 -61 -25.5 -107.5t-71 -73t-103.5 -26.5v-180h-99zM340 78
q53 0 86 34.5t33 90.5v152q0 52 -31.5 85t-82.5 33h-5v-395z" />
    <glyph glyph-name="chi" unicode="&#x3c7;" 
d="M46 0l195 283l-182 267h115l103 -161q7 -12 13.5 -25l10.5 -21q3 8 9.5 21t13.5 25l103 161h115l-182 -268l194 -282h-116l-112 173q-7 11 -14 25.5t-11 23.5q-5 -9 -12 -23.5t-15 -25.5l-112 -173h-116z" />
    <glyph glyph-name="psi" unicode="&#x3c8;" 
d="M251 -180v180q-92 1 -146.5 55.5t-54.5 147.5v347h91v-347q0 -59 30 -91.5t87 -32.5v471h84v-471q57 0 87 32.5t30 91.5v347h91v-347q0 -93 -54.5 -147.5t-145.5 -55.5v-180h-99z" />
    <glyph glyph-name="omega" unicode="&#x3c9;" 
d="M180 -10q-59 0 -94 46.5t-35 125.5v184q0 88 39.5 145.5t107.5 68.5v-102q-26 -5 -40.5 -34t-14.5 -73v-196q0 -39 15.5 -61t42.5 -22t42 22t15 61v190h84v-190q0 -39 15 -61t42 -22t42.5 22t15.5 61v196q0 41 -16 69t-43 34v102q70 -11 110.5 -67.5t40.5 -142.5v-184
q0 -79 -35 -125.5t-94 -46.5q-50 0 -83 32.5t-37 87.5h-2q-3 -55 -35.5 -87.5t-82.5 -32.5z" />
    <glyph glyph-name="iotadieresis" unicode="&#x3ca;" 
d="M411 0q-75 0 -120.5 44t-45.5 117v299h-192v90h291v-389q0 -33 18.5 -52t50.5 -19h139v-90h-141zM408 647q-31 0 -49 17.5t-18 47.5q0 31 18 49t49 18q30 0 48 -18t18 -49q0 -30 -18 -47.5t-48 -17.5zM182 647q-30 0 -48 17.5t-18 47.5q0 31 18 49t48 18q31 0 49 -18
t18 -49q0 -30 -18 -47.5t-49 -17.5z" />
    <glyph glyph-name="upsilondieresis" unicode="&#x3cb;" 
d="M299 -10q-97 0 -155 57t-58 155v348h99v-348q0 -58 30.5 -91.5t83.5 -33.5q54 0 85 33.5t31 91.5v348h99v-348q0 -98 -58.5 -155t-156.5 -57zM413 647q-31 0 -49 17.5t-18 47.5q0 31 18 49t49 18q30 0 48 -18t18 -49q0 -30 -18 -47.5t-48 -17.5zM187 647q-30 0 -48 17.5
t-18 47.5q0 31 18 49t48 18q31 0 49 -18t18 -49q0 -30 -18 -47.5t-49 -17.5z" />
    <glyph glyph-name="omicrontonos" unicode="&#x3cc;" 
d="M300 -8q-101 0 -160.5 58t-59.5 162v126q0 104 59.5 162t160.5 58t160.5 -58t59.5 -162v-126q0 -104 -59.5 -162t-160.5 -58zM300 79q56 0 88.5 31.5t32.5 92.5v144q0 61 -32.5 92.5t-88.5 31.5t-88.5 -31.5t-32.5 -92.5v-144q0 -61 32.5 -92.5t88.5 -31.5zM236 645
l105 140h110l-112 -140h-103z" />
    <glyph glyph-name="upsilontonos" unicode="&#x3cd;" 
d="M299 -10q-97 0 -155 57t-58 155v348h99v-348q0 -58 30.5 -91.5t83.5 -33.5q54 0 85 33.5t31 91.5v348h99v-348q0 -98 -58.5 -155t-156.5 -57zM236 645l105 140h110l-112 -140h-103z" />
    <glyph glyph-name="omegatonos" unicode="&#x3ce;" 
d="M180 -10q-59 0 -94 46.5t-35 125.5v184q0 88 39.5 145.5t107.5 68.5v-102q-26 -5 -40.5 -34t-14.5 -73v-196q0 -39 15.5 -61t42.5 -22t42 22t15 61v190h84v-190q0 -39 15 -61t42 -22t42.5 22t15.5 61v196q0 41 -16 69t-43 34v102q70 -11 110.5 -67.5t40.5 -142.5v-184
q0 -79 -35 -125.5t-94 -46.5q-50 0 -83 32.5t-37 87.5h-2q-3 -55 -35.5 -87.5t-82.5 -32.5zM226 645l105 140h110l-112 -140h-103z" />
    <glyph glyph-name="uni03CF" unicode="&#x3cf;" 
d="M88 0v730h99v-310h102l156 310h108l-177 -351l149 -304h55v-76q0 -87 -47.5 -133t-137.5 -46h-35v86h33q42 0 68 25t26 69h-37l-163 333h-100v-333h-99z" />
    <glyph glyph-name="uni03D5" unicode="&#x3d5;" 
d="M251 -180v180q-61 2 -107 29t-72 74t-26 108v130q0 60 26 106.5t72 73.5t107 29v180h99v-180q60 -2 106 -29t72 -73.5t26 -106.5v-130q0 -61 -26 -108t-72 -74t-106 -29v-180h-99zM260 77v396q-57 0 -90 -33.5t-33 -90.5v-146q0 -58 33 -92t90 -34zM340 77q57 0 90 34
t33 92v146q0 57 -33 90.5t-90 33.5v-396z" />
    <glyph glyph-name="uni03D6" unicode="&#x3d6;" 
d="M180 -10q-59 0 -93 44t-34 119v176q0 47 19.5 81t55.5 51h-114v89h572v-89h-113q35 -17 54.5 -51t19.5 -81v-176q0 -75 -34 -119t-94 -44q-49 0 -80.5 29t-38.5 80q-7 -51 -38.5 -80t-81.5 -29zM201 71q28 0 44 20.5t16 58.5v192h78v-192q0 -38 16 -58.5t44 -20.5
q58 0 58 79v232q0 79 -58 79h-198q-58 0 -58 -79v-232q0 -79 58 -79z" />
    <glyph glyph-name="uni03D7" unicode="&#x3d7;" 
d="M88 0v550h93v-288q0 -44 -1.5 -91t-10.5 -78l221 457h122v-475h43v-76q0 -87 -47.5 -133t-138.5 -46h-35v86h34q42 0 68 25t26 69h-43v289q0 44 1.5 90.5t9.5 76.5l-220 -456h-122z" />
    <glyph glyph-name="uni0401" unicode="&#x401;" 
d="M97 0v730h425v-89h-327v-217h292v-86h-292v-249h327v-89h-425zM422 815q-31 0 -49 17.5t-18 47.5q0 31 18 49t49 18q30 0 48 -18t18 -49q0 -30 -18 -47.5t-48 -17.5zM196 815q-30 0 -48 17.5t-18 47.5q0 31 18 49t48 18q31 0 49 -18t18 -49q0 -30 -18 -47.5t-49 -17.5z
" />
    <glyph glyph-name="uni0402" unicode="&#x402;" 
d="M264 -180v91h68q51 0 80.5 29t29.5 79v280q0 114 -83 114q-48 0 -103 -59l-48 -50v-304h-99v642h-109v88h326v-88h-118v-237l15 16q74 79 159 79q72 0 115.5 -49.5t43.5 -133.5v-300q0 -60 -26 -104t-73.5 -68.5t-110.5 -24.5h-67z" />
    <glyph glyph-name="uni0403" unicode="&#x403;" 
d="M128 0v730h428v-90h-329v-640h-99zM258 810l105 140h107l-112 -140h-100z" />
    <glyph glyph-name="uni0404" unicode="&#x404;" 
d="M308 -10q-101 0 -160.5 56.5t-59.5 155.5v327q0 98 59.5 154.5t160.5 56.5q100 0 159.5 -57t59.5 -154h-99q0 59 -32 91t-88 32q-57 0 -89 -32t-32 -91v-106h220v-90h-220v-131q0 -60 32 -92t89 -32q56 0 88 32t32 92h99q0 -98 -59.5 -155t-159.5 -57z" />
    <glyph glyph-name="uni0405" unicode="&#x405;" 
d="M304 -10q-108 0 -172 56.5t-64 155.5h99q0 -58 37 -91t100 -33q60 0 95.5 33.5t35.5 89.5q0 42 -23 73.5t-65 42.5l-108 29q-71 20 -112.5 72.5t-41.5 124.5q0 59 26.5 103.5t74.5 69t111 24.5q64 0 112.5 -24.5t75.5 -68.5t27 -102h-98q0 48 -32.5 78t-84.5 30
t-83.5 -30t-31.5 -78q0 -39 21 -65.5t59 -37.5l111 -30q75 -20 117 -76.5t42 -134.5q0 -64 -28 -111.5t-79.5 -73.5t-120.5 -26z" />
    <glyph glyph-name="uni0406" unicode="&#x406;" 
d="M101 0v90h149v550h-149v90h398v-90h-149v-550h149v-90h-398z" />
    <glyph glyph-name="uni0407" unicode="&#x407;" 
d="M101 0v90h149v550h-149v90h398v-90h-149v-550h149v-90h-398zM413 815q-31 0 -49 17.5t-18 47.5q0 31 18 49t49 18q30 0 48 -18t18 -49q0 -30 -18 -47.5t-48 -17.5zM187 815q-30 0 -48 17.5t-18 47.5q0 31 18 49t48 18q31 0 49 -18t18 -49q0 -30 -18 -47.5t-49 -17.5z" />
    <glyph glyph-name="uni0408" unicode="&#x408;" 
d="M270 -10q-107 0 -168 59.5t-61 162.5h99q0 -64 34.5 -99t95.5 -35t95.5 35t34.5 98v519h99v-519q0 -102 -61.5 -161.5t-167.5 -59.5z" />
    <glyph glyph-name="uni0409" unicode="&#x409;" 
d="M-6 -5v85h19q28 0 41.5 28t14.5 88l5 534h290v-298h52q74 0 120 -43.5t46 -115.5v-113q0 -73 -46 -116.5t-120 -43.5h-138v650h-114l-4 -454q-1 -103 -38.5 -152t-109.5 -49h-18zM364 80h52q35 0 55 22t20 58v112q0 37 -20 58.5t-55 21.5h-52v-272z" />
    <glyph glyph-name="uni040A" unicode="&#x40a;" 
d="M51 0v730h87v-296h140v296h86v-296h52q75 0 120.5 -43t45.5 -117v-114q0 -74 -45.5 -117t-120.5 -43h-138v354h-140v-354h-87zM364 80h52q37 0 57.5 21t20.5 59v114q0 37 -21 58.5t-57 21.5h-52v-274z" />
    <glyph glyph-name="uni040B" unicode="&#x40b;" 
d="M109 0v642h-109v88h326v-88h-118v-237l15 16q74 79 159 79q72 0 115.5 -49.5t43.5 -133.5v-317h-99v299q0 114 -83 114q-48 0 -103 -59l-48 -50v-304h-99z" />
    <glyph glyph-name="uni040C" unicode="&#x40c;" 
d="M88 0v730h99v-310h102l156 310h108l-177 -351l186 -379h-112l-163 333h-100v-333h-99zM238 810l105 140h107l-112 -140h-100z" />
    <glyph glyph-name="uni040E" unicode="&#x40e;" 
d="M187 0l74 188l-215 542h108l126 -348q12 -33 19.5 -63.5t10.5 -45.5q2 15 8.5 45.5t17.5 63.5l111 348h107l-262 -730h-105zM300 804q-74 0 -119 40t-45 106h78q0 -37 23.5 -60t61.5 -23q39 0 63 23t24 60h78q0 -66 -45 -106t-119 -40z" />
    <glyph glyph-name="uni040F" unicode="&#x40f;" 
d="M251 -125v125h-161v730h99v-639h222v639h99v-730h-160v-125h-99z" />
    <glyph glyph-name="uni0410" unicode="&#x410;" 
d="M46 0l189 730h131l188 -730h-101l-46 190h-214l-46 -190h-101zM213 272h174l-52 218q-15 60 -24 102t-11 57q-2 -15 -11 -57t-23 -101z" />
    <glyph glyph-name="uni0411" unicode="&#x411;" 
d="M90 0v730h414v-90h-316v-205h118q70 0 121.5 -27t79.5 -76t28 -114t-28 -114t-79.5 -76.5t-121.5 -27.5h-216zM188 89h118q59 0 93 35t34 94t-34 93.5t-93 34.5h-118v-257z" />
    <glyph glyph-name="uni0412" unicode="&#x412;" 
d="M89 0v730h211q101 0 159.5 -50.5t58.5 -138.5q0 -57 -35.5 -101.5t-91.5 -54.5v-3q42 -5 74.5 -30t51 -63.5t18.5 -84.5q0 -94 -59.5 -149t-161.5 -55h-225zM186 422h113q56 0 88 29.5t32 80.5q0 52 -32 81.5t-87 29.5h-114v-221zM186 87h119q61 0 96 32.5t35 88.5
q0 58 -35 94t-96 36h-119v-251z" />
    <glyph glyph-name="uni0413" unicode="&#x413;" 
d="M128 0v730h428v-90h-329v-640h-99z" />
    <glyph glyph-name="uni0414" unicode="&#x414;" 
d="M25 -140v224h42q17 30 35 90t19 130l7 426h379v-646h68v-224h-89v140h-372v-140h-89zM169 84h240v559h-187l-5 -339q0 -76 -16.5 -135t-31.5 -85z" />
    <glyph glyph-name="uni0415" unicode="&#x415;" 
d="M97 0v730h425v-89h-327v-217h292v-86h-292v-249h327v-89h-425z" />
    <glyph glyph-name="uni0416" unicode="&#x416;" 
d="M4 0l130 379l-120 351h98l103 -316h45v316h80v-316h46l102 316h98l-122 -352l132 -378h-97l-115 340h-44v-340h-79l-1 340h-47l-112 -340h-97z" />
    <glyph glyph-name="uni0417" unicode="&#x417;" 
d="M291 -10q-71 0 -125.5 26.5t-85 74.5t-31.5 111h98q2 -56 42 -90.5t103 -34.5q64 0 104 36t40 94q0 57 -40 93t-104 36h-86v87h87q55 0 89 32.5t34 84.5q0 51 -33.5 82t-87.5 31q-57 0 -92.5 -34.5t-35.5 -89.5h-98q0 62 28.5 110t79.5 74.5t118 26.5q65 0 114.5 -24
t77.5 -67t28 -99q0 -60 -32.5 -105.5t-84.5 -57.5v-3q62 -11 100.5 -62t38.5 -122q0 -62 -31 -109.5t-86.5 -74t-128.5 -26.5z" />
    <glyph glyph-name="uni0418" unicode="&#x418;" 
d="M86 0v730h93v-396q0 -37 -1.5 -78t-3.5 -78.5t-4 -63.5l216 616h129v-730h-94v394q0 36 1.5 77.5t4 80t5.5 64.5l-218 -616h-128z" />
    <glyph glyph-name="uni0419" unicode="&#x419;" 
d="M86 0v730h93v-396q0 -37 -1.5 -78t-3.5 -78.5t-4 -63.5l216 616h129v-730h-94v394q0 36 1.5 77.5t4 80t5.5 64.5l-218 -616h-128zM300 804q-74 0 -119 40t-45 106h78q0 -37 23.5 -60t61.5 -23q39 0 63 23t24 60h78q0 -66 -45 -106t-119 -40z" />
    <glyph glyph-name="uni041A" unicode="&#x41a;" 
d="M88 0v730h99v-310h102l156 310h108l-177 -351l186 -379h-112l-163 333h-100v-333h-99z" />
    <glyph glyph-name="uni041B" unicode="&#x41b;" 
d="M19 -5v92h20q42 0 60.5 37.5t20.5 125.5l8 480h382v-730h-99v640h-186l-7 -390q-2 -130 -44 -192.5t-129 -62.5h-26z" />
    <glyph glyph-name="uni041C" unicode="&#x41c;" 
d="M68 0v730h140l90 -315l94 315h141v-730h-95v335q0 53 2 117.5t5.5 129t7.5 116.5l-114 -374h-84l-110 365q9 -73 13 -162.5t4 -191.5v-335h-94z" />
    <glyph glyph-name="uni041D" unicode="&#x41d;" 
d="M89 0v730h99v-308h224v308h99v-730h-99v332h-224v-332h-99z" />
    <glyph glyph-name="uni041E" unicode="&#x41e;" 
d="M300 -10q-100 0 -158 58t-58 164v307q0 105 58 163t158 58t158 -57.5t58 -163.5v-307q0 -106 -58 -164t-158 -58zM300 78q56 0 86.5 32t30.5 92v327q0 59 -30 91t-87 32t-87 -32t-30 -91v-327q0 -60 30.5 -92t86.5 -32z" />
    <glyph glyph-name="uni041F" unicode="&#x41f;" 
d="M90 0v730h420v-730h-99v640h-222v-640h-99z" />
    <glyph glyph-name="uni0420" unicode="&#x420;" 
d="M88 0v730h237q70 0 121 -27t79 -75.5t28 -115.5q0 -66 -28 -114.5t-79.5 -75.5t-120.5 -27h-138v-295h-99zM187 383h138q58 0 92 35.5t34 93.5q0 59 -34 94.5t-92 35.5h-138v-259z" />
    <glyph glyph-name="uni0421" unicode="&#x421;" 
d="M308 -10q-101 0 -160.5 56.5t-59.5 155.5v327q0 98 59.5 154.5t160.5 56.5q100 0 159.5 -57t59.5 -154h-99q0 59 -32 91t-88 32q-57 0 -89 -32t-32 -91v-327q0 -60 32 -92t89 -32q56 0 88 32t32 92h99q0 -98 -59.5 -155t-159.5 -57z" />
    <glyph glyph-name="uni0422" unicode="&#x422;" 
d="M251 0v640h-198v90h494v-90h-197v-640h-99z" />
    <glyph glyph-name="uni0423" unicode="&#x423;" 
d="M187 0l74 188l-215 542h108l126 -348q12 -33 19.5 -63.5t10.5 -45.5q2 15 8.5 45.5t17.5 63.5l111 348h107l-262 -730h-105z" />
    <glyph glyph-name="uni0424" unicode="&#x424;" 
d="M251 -25v80q-60 0 -107 26t-74 73t-27 111v216q0 65 26.5 113t73.5 74.5t108 26.5v75h99v-75q60 0 107 -26.5t73.5 -74.5t26.5 -113v-216q0 -64 -27 -111t-73.5 -73t-106.5 -26v-80h-99zM257 137v476q-55 0 -89.5 -35.5t-34.5 -96.5v-216q0 -60 34.5 -94t89.5 -34z
M343 137q55 0 89.5 34t34.5 94v216q0 61 -34.5 96.5t-89.5 35.5v-476z" />
    <glyph glyph-name="uni0425" unicode="&#x425;" 
d="M37 0l208 371l-197 359h113l108 -208l18.5 -37l14.5 -29q5 10 14 29t18 37l109 208h109l-197 -354l208 -376h-112l-120 224q-9 18 -18 37.5t-14 31.5q-5 -12 -14 -31.5t-19 -36.5l-120 -225h-109z" />
    <glyph glyph-name="uni0426" unicode="&#x426;" 
d="M478 -140v140h-388v730h99v-642h204v642h99v-642h75v-228h-89z" />
    <glyph glyph-name="uni0427" unicode="&#x427;" 
d="M410 0v268h-136q-95 0 -149 48.5t-54 134.5v279h99v-278q0 -46 30.5 -71t85.5 -25h124v374h99v-730h-99z" />
    <glyph glyph-name="uni0428" unicode="&#x428;" 
d="M58 0l-1 730h91v-646h113v646h80v-646h112v646h90v-730h-485z" />
    <glyph glyph-name="uni0429" unicode="&#x429;" 
d="M508 -140v140h-451v730h87v-646h113v646h74v-646h114v646h86v-646h65v-224h-88z" />
    <glyph glyph-name="uni042A" unicode="&#x42a;" 
d="M131 0v642h-136v88h235v-298h97q68 0 118.5 -27t79 -75.5t28.5 -113.5q0 -64 -28.5 -113t-79 -76t-118.5 -27h-196zM230 89h93q58 0 93 35t35 92t-35 92t-93 35h-93v-254z" />
    <glyph glyph-name="uni042B" unicode="&#x42b;" 
d="M57 0v730h90v-298h44q90 0 142.5 -51t52.5 -139v-53q0 -87 -52.5 -138t-142.5 -51h-134zM453 0v730h90v-730h-90zM147 84h44q48 0 77 28.5t29 77.5v52q0 49 -29 77.5t-77 28.5h-44v-264z" />
    <glyph glyph-name="uni042C" unicode="&#x42c;" 
d="M90 0v730h99v-296h138q68 0 118.5 -27.5t79 -76t28.5 -113.5t-28.5 -113.5t-79 -76t-118.5 -27.5h-237zM189 89h134q58 0 93 35t35 93q0 57 -35 92.5t-93 35.5h-134v-256z" />
    <glyph glyph-name="uni042D" unicode="&#x42d;" 
d="M74 202h99q0 -60 31.5 -92t87.5 -32q57 0 89 32t32 92v131h-219v90h219v106q0 59 -32 91t-89 32q-56 0 -87.5 -32t-31.5 -91h-99q0 97 59 154t159 57q101 0 160.5 -56.5t59.5 -154.5v-327q0 -99 -59.5 -155.5t-160.5 -56.5q-100 0 -159 57t-59 155z" />
    <glyph glyph-name="uni042E" unicode="&#x42e;" 
d="M401 -10q-75 0 -119 50t-44 134v161h-91v-335h-90v730h90v-310h91v136q0 85 44 134.5t119 49.5q78 0 124 -49.5t46 -134.5v-382q0 -84 -46 -134t-124 -50zM400 69q39 0 60 27t21 77v384q0 50 -21 77t-60 27q-38 0 -59 -27t-21 -77v-384q0 -50 21 -77t59 -27z" />
    <glyph glyph-name="uni042F" unicode="&#x42f;" 
d="M53 0l148 317q-65 21 -102.5 74t-37.5 127q0 64 28 111.5t78 74t117 26.5h225v-730h-98v305h-110l-135 -305h-113zM284 392h127v251h-127q-55 0 -88 -34.5t-33 -91.5q0 -56 33 -90.5t88 -34.5z" />
    <glyph glyph-name="uni0430" unicode="&#x430;" 
d="M249 -10q-85 0 -134.5 47.5t-49.5 124.5t51.5 124t135.5 47h161v42q0 101 -112 101q-50 0 -80.5 -18.5t-32.5 -51.5h-98q5 67 61 110.5t150 43.5q101 0 156 -48t55 -135v-377h-97v101h-2q-7 -51 -50.5 -81t-113.5 -30zM275 73q63 0 100.5 30.5t37.5 83.5v73h-152
q-43 0 -69.5 -25.5t-26.5 -67.5q0 -43 29 -68.5t81 -25.5z" />
    <glyph glyph-name="uni0431" unicode="&#x431;" 
d="M300 -10q-101 0 -159.5 58t-58.5 158v252q0 121 55 188.5t162 76.5l188 17v-97l-173 -15q-149 -13 -149 -170v-47q12 49 52.5 77t102.5 28q95 0 146.5 -58t51.5 -155v-97q0 -100 -58.5 -158t-159.5 -58zM300 78q56 0 87.5 34t31.5 94v97q0 59 -31.5 93.5t-87.5 34.5
q-55 0 -87 -34.5t-32 -93.5v-97q0 -60 32 -94t87 -34z" />
    <glyph glyph-name="uni0432" unicode="&#x432;" 
d="M88 0v550h244q85 0 134.5 -37.5t49.5 -101.5q0 -47 -32 -78t-83 -34v-5q61 -4 95 -41.5t34 -97.5q0 -71 -52 -113t-141 -42h-249zM185 321h146q41 0 64 19.5t23 54.5q0 34 -23 53t-64 19h-146v-146zM185 83h150q46 0 71.5 21.5t25.5 59.5t-25.5 59.5t-71.5 21.5h-150
v-162z" />
    <glyph glyph-name="uni0433" unicode="&#x433;" 
d="M132 0v550h399v-91h-300v-459h-99z" />
    <glyph glyph-name="uni0434" unicode="&#x434;" 
d="M26 -140v227h41q12 12 24.5 36t21.5 66.5t10 109.5l4 251h371v-463h73v-227h-89v140h-367v-140h-89zM165 87h236v377h-181l-2 -166q-1 -99 -17 -146.5t-36 -64.5z" />
    <glyph glyph-name="uni0435" unicode="&#x435;" 
d="M300 -10q-99 0 -159.5 59t-60.5 161v130q0 102 60.5 161t159.5 59q66 0 115.5 -26.5t77 -74t27.5 -110.5v-99h-343v-48q0 -60 33 -94t90 -34q48 0 79 18t37 50h99q-10 -70 -69 -111t-146 -41zM177 349v-26h246v26q0 63 -32 97t-91 34t-91 -34t-32 -97z" />
    <glyph glyph-name="uni0436" unicode="&#x436;" 
d="M12 0l122 284l-114 266h93l98 -235h50v235h78v-235h49l101 235h91l-113 -263l121 -287h-95l-103 248h-51v-248h-78v248h-51l-103 -248h-95z" />
    <glyph glyph-name="uni0437" unicode="&#x437;" 
d="M265 -7q-92 0 -146 43t-54 116h98q0 -33 27.5 -53t74.5 -20h56q49 0 77.5 21.5t28.5 59.5t-28.5 60.5t-77.5 22.5h-123v83h119q45 0 71 20t26 54t-26 53.5t-71 19.5h-47q-43 0 -68.5 -16.5t-26.5 -44.5h-98q1 67 53 106t140 39h47q91 0 145 -37.5t54 -105.5
q0 -47 -32 -78t-83 -35v-4q61 -4 95 -41.5t34 -97.5q0 -75 -56.5 -120t-152.5 -45h-56z" />
    <glyph glyph-name="uni0438" unicode="&#x438;" 
d="M88 0v550h93v-288q0 -44 -1.5 -91t-10.5 -78l221 457h122v-550h-93v289q0 44 1.5 90.5t9.5 76.5l-220 -456h-122z" />
    <glyph glyph-name="uni0439" unicode="&#x439;" 
d="M88 0v550h93v-288q0 -44 -1.5 -91t-10.5 -78l221 457h122v-550h-93v289q0 44 1.5 90.5t9.5 76.5l-220 -456h-122zM300 639q-74 0 -119 40t-45 106h78q0 -37 23.5 -60t61.5 -23q39 0 63 23t24 60h78q0 -66 -45 -106t-119 -40z" />
    <glyph glyph-name="uni043A" unicode="&#x43a;" 
d="M99 0v550h99v-223h102l145 223h113l-173 -264l183 -286h-115l-152 237h-103v-237h-99z" />
    <glyph glyph-name="uni043B" unicode="&#x43b;" 
d="M24 -7v92h17q43 0 61 33.5t20 118.5l6 313h384v-550h-99v460h-188l-4 -228q-3 -125 -44.5 -182t-129.5 -57h-23z" />
    <glyph glyph-name="uni043C" unicode="&#x43c;" 
d="M68 0v550h127l103 -267l104 267h131v-550h-94v87q0 131 1.5 238.5t11.5 176.5l-111 -291h-87l-106 275q10 -62 11.5 -161t1.5 -238v-87h-93z" />
    <glyph glyph-name="uni043D" unicode="&#x43d;" 
d="M88 0v550h99v-223h226v223h99v-550h-99v237h-226v-237h-99z" />
    <glyph glyph-name="uni043E" unicode="&#x43e;" 
d="M300 -8q-101 0 -160.5 58t-59.5 162v126q0 104 59.5 162t160.5 58t160.5 -58t59.5 -162v-126q0 -104 -59.5 -162t-160.5 -58zM300 79q56 0 88.5 31.5t32.5 92.5v144q0 61 -32.5 92.5t-88.5 31.5t-88.5 -31.5t-32.5 -92.5v-144q0 -61 32.5 -92.5t88.5 -31.5z" />
    <glyph glyph-name="uni043F" unicode="&#x43f;" 
d="M88 0v550h424v-550h-99v460h-226v-460h-99z" />
    <glyph glyph-name="uni0440" unicode="&#x440;" 
d="M88 -180v730h98v-106h1q8 54 48 85t102 31q82 0 131 -55.5t49 -150.5v-157q0 -96 -49 -151.5t-131 -55.5q-61 0 -101 31t-49 85h-2l2 -127v-159h-99zM302 76q55 0 85.5 28.5t30.5 92.5v156q0 64 -30.5 92.5t-85.5 28.5q-53 0 -84 -33t-31 -93v-146q0 -60 31 -93t84 -33z
" />
    <glyph glyph-name="uni0441" unicode="&#x441;" 
d="M308 -10q-101 0 -162 56.5t-61 155.5v147q0 98 61 154.5t162 56.5q97 0 156.5 -51.5t62.5 -140.5h-98q-3 50 -35.5 77.5t-85.5 27.5q-57 0 -90.5 -32.5t-33.5 -91.5v-147q0 -60 33.5 -92t90.5 -32q54 0 86 27t35 77h98q-3 -89 -62.5 -140.5t-156.5 -51.5z" />
    <glyph glyph-name="uni0442" unicode="&#x442;" 
d="M251 0v460h-197v90h493v-90h-197v-460h-99z" />
    <glyph glyph-name="uni0443" unicode="&#x443;" 
d="M175 -180l80 213l-205 517h105l124 -325q8 -21 16 -45t11 -42q3 18 10 42t15 45l115 325h105l-273 -730h-103z" />
    <glyph glyph-name="uni0444" unicode="&#x444;" 
d="M251 -180v180q-61 2 -107 29t-72 74t-26 108v130q0 60 26 106.5t72 73.5t107 29v180h99v-180q60 -2 106 -29t72 -73.5t26 -106.5v-130q0 -61 -26 -108t-72 -74t-106 -29v-180h-99zM260 77v396q-57 0 -90 -33.5t-33 -90.5v-146q0 -58 33 -92t90 -34zM340 77q57 0 90 34
t33 92v146q0 57 -33 90.5t-90 33.5v-396z" />
    <glyph glyph-name="uni0445" unicode="&#x445;" 
d="M46 0l195 283l-182 267h115l103 -161q7 -12 13.5 -25l10.5 -21q3 8 9.5 21t13.5 25l103 161h115l-182 -268l194 -282h-116l-112 173q-7 11 -14 25.5t-11 23.5q-5 -9 -12 -23.5t-15 -25.5l-112 -173h-116z" />
    <glyph glyph-name="uni0446" unicode="&#x446;" 
d="M482 -140v140h-394v550h99v-461h210v461h99v-461h75v-229h-89z" />
    <glyph glyph-name="uni0447" unicode="&#x447;" 
d="M406 0v187h-145q-87 0 -137 46t-50 125v192h99v-191q0 -38 25.5 -60t69.5 -22h138v273h99v-550h-99z" />
    <glyph glyph-name="uni0448" unicode="&#x448;" 
d="M58 0l-1 550h91v-468h113v468h80v-468h112v468h90v-550h-485z" />
    <glyph glyph-name="uni0449" unicode="&#x449;" 
d="M508 -140v140h-451v550h87v-468h111v468h75v-468h111v468h87v-468h68v-222h-88z" />
    <glyph glyph-name="uni044A" unicode="&#x44a;" 
d="M161 0v461h-137v89h236v-196h109q95 0 149 -47.5t54 -129.5t-54.5 -129.5t-148.5 -47.5h-208zM260 89h108q49 0 76 22.5t27 65.5q0 42 -27 64.5t-76 22.5h-108v-175z" />
    <glyph glyph-name="uni044B" unicode="&#x44b;" 
d="M57 0v550h90v-198h51q89 0 141 -47.5t52 -128.5t-52 -128.5t-141 -47.5h-141zM453 0v550h90v-550h-90zM147 78h51q50 0 78.5 26t28.5 72q0 45 -28.5 71.5t-78.5 26.5h-51v-196z" />
    <glyph glyph-name="uni044C" unicode="&#x44c;" 
d="M101 0v550h99v-196h152q94 0 148.5 -47.5t54.5 -129.5t-55 -129.5t-148 -47.5h-251zM200 89h150q50 0 76.5 22.5t26.5 65.5q0 42 -26.5 65t-76.5 23h-150v-176z" />
    <glyph glyph-name="uni044D" unicode="&#x44d;" 
d="M294 -10q-97 0 -156 51.5t-62 137.5h99q3 -48 34 -74.5t85 -26.5q57 0 90 32t33 91v36h-178v85h178v27q0 59 -33 91.5t-90 32.5q-53 0 -84.5 -27t-34.5 -74h-99q3 86 62 137t156 51q101 0 161.5 -56.5t60.5 -154.5v-147q0 -99 -60.5 -155.5t-161.5 -56.5z" />
    <glyph glyph-name="uni044E" unicode="&#x44e;" 
d="M395 -10q-72 0 -114 46t-42 123v81h-92v-240h-90v550h90v-233h92v74q0 77 42 123t114 46q77 0 122 -46t45 -123v-232q0 -77 -45 -123t-122 -46zM396 66q35 0 55.5 25.5t20.5 67.5v232q0 42 -20.5 67.5t-55.5 25.5t-55 -25.5t-20 -67.5v-232q0 -42 20 -67.5t55 -25.5z" />
    <glyph glyph-name="uni044F" unicode="&#x44f;" 
d="M61 0l138 211q-58 15 -92 59t-34 105q0 81 55 128t150 47h234v-550h-99v204h-109l-125 -204h-118zM279 286h134v179h-134q-48 0 -76.5 -24t-28.5 -66q0 -41 28.5 -65t76.5 -24z" />
    <glyph glyph-name="uni0451" unicode="&#x451;" 
d="M300 -10q-99 0 -159.5 59t-60.5 161v130q0 102 60.5 161t159.5 59q66 0 115.5 -26.5t77 -74t27.5 -110.5v-99h-343v-48q0 -60 33 -94t90 -34q48 0 79 18t37 50h99q-10 -70 -69 -111t-146 -41zM177 349v-26h246v26q0 63 -32 97t-91 34t-91 -34t-32 -97zM413 647
q-31 0 -49 17.5t-18 47.5q0 31 18 49t49 18q30 0 48 -18t18 -49q0 -30 -18 -47.5t-48 -17.5zM187 647q-30 0 -48 17.5t-18 47.5q0 31 18 49t48 18q31 0 49 -18t18 -49q0 -30 -18 -47.5t-49 -17.5z" />
    <glyph glyph-name="uni0452" unicode="&#x452;" 
d="M250 -180v92h39q59 0 91.5 31.5t32.5 89.5v264q0 56 -29 87.5t-81 31.5q-54 0 -84 -33.5t-30 -93.5v-289h-99v568h-90v77h90v85h99v-85h163v-77h-163v-78l-1 -105h1q7 55 44.5 85t100.5 30q82 0 130 -52t48 -140v-276q0 -97 -60 -154.5t-161 -57.5h-41z" />
    <glyph glyph-name="uni0453" unicode="&#x453;" 
d="M132 0v550h399v-91h-300v-459h-99zM268 645l105 140h107l-112 -140h-100z" />
    <glyph glyph-name="uni0454" unicode="&#x454;" 
d="M306 -10q-101 0 -161.5 56.5t-60.5 155.5v147q0 98 60.5 154.5t161.5 56.5q97 0 156 -51t63 -137h-99q-3 47 -35 74t-85 27q-57 0 -90 -32.5t-33 -91.5v-27h178v-85h-178v-36q0 -59 33 -91t90 -32q54 0 85.5 26.5t34.5 74.5h99q-4 -86 -63 -137.5t-156 -51.5z" />
    <glyph glyph-name="uni0455" unicode="&#x455;" 
d="M278 -8q-94 0 -146 42t-52 118h98q0 -36 26.5 -56.5t73.5 -20.5h44q49 0 75.5 21t26.5 59q0 67 -66 75l-148 21q-59 9 -91 48.5t-32 102.5q0 74 50 115t140 41h44q84 0 136 -40t55 -106h-100q-2 28 -26 46.5t-65 18.5h-44q-45 0 -69.5 -20t-24.5 -54q0 -55 55 -62
l139 -20q143 -19 143 -166q0 -78 -51.5 -120.5t-146.5 -42.5h-44z" />
    <glyph glyph-name="uni0456" unicode="&#x456;" 
d="M83 0v90h193v370h-173v90h272v-460h181v-90h-473zM316 647q-34 0 -54 17.5t-20 47.5q0 31 20 49t54 18t54 -18t20 -49q0 -30 -20 -47.5t-54 -17.5z" />
    <glyph glyph-name="uni0457" unicode="&#x457;" 
d="M83 0v90h193v370h-173v90h272v-460h181v-90h-473zM429 647q-31 0 -49 17.5t-18 47.5q0 31 18 49t49 18q30 0 48 -18t18 -49q0 -30 -18 -47.5t-48 -17.5zM203 647q-30 0 -48 17.5t-18 47.5q0 31 18 49t48 18q31 0 49 -18t18 -49q0 -30 -18 -47.5t-49 -17.5z" />
    <glyph glyph-name="uni0458" unicode="&#x458;" 
d="M88 -180v90h129q59 0 91.5 32.5t32.5 90.5v427h-258v90h357v-518q0 -97 -60 -154.5t-161 -57.5h-131zM382 647q-34 0 -54 17.5t-20 47.5q0 31 20 49t54 18t54 -18t20 -49q0 -30 -20 -47.5t-54 -17.5z" />
    <glyph glyph-name="uni0459" unicode="&#x459;" 
d="M3 -5v90h19q25 0 40.5 30t15.5 81l4 354h279v-196h58q73 0 117.5 -42.5t44.5 -112.5v-46q0 -68 -44.5 -110.5t-116.5 -42.5h-141v468h-108l-3 -273q-1 -91 -41 -145.5t-106 -54.5h-18zM361 79h58q34 0 52.5 20.5t18.5 54.5v45q0 34 -18.5 54.5t-52.5 20.5h-58v-195z" />
    <glyph glyph-name="uni045A" unicode="&#x45a;" 
d="M59 0v550h89v-197h135v197h79v-197h57q73 0 117.5 -42.5t44.5 -113.5v-43q0 -69 -44.5 -111.5t-116.5 -42.5h-137v273h-135v-273h-89zM362 80h57q34 0 53.5 20.5t19.5 53.5v44q0 33 -19.5 54t-53.5 21h-57v-193z" />
    <glyph glyph-name="uni045B" unicode="&#x45b;" 
d="M0 568v77h88v85h99v-85h165v-77h-165v-78l-1 -105h2q7 55 45 85t101 30q82 0 131 -52t49 -140v-308h-99v297q0 56 -30 87.5t-82 31.5q-54 0 -85 -33.5t-31 -93.5v-289h-99v568h-88z" />
    <glyph glyph-name="uni045C" unicode="&#x45c;" 
d="M99 0v550h99v-223h102l145 223h113l-173 -264l183 -286h-115l-152 237h-103v-237h-99zM241 645l105 140h107l-112 -140h-100z" />
    <glyph glyph-name="uni045E" unicode="&#x45e;" 
d="M175 -180l80 213l-205 517h105l124 -325q8 -21 16 -45t11 -42q3 18 10 42t15 45l115 325h105l-273 -730h-103zM300 639q-74 0 -119 40t-45 106h78q0 -37 23.5 -60t61.5 -23q39 0 63 23t24 60h78q0 -66 -45 -106t-119 -40z" />
    <glyph glyph-name="uni045F" unicode="&#x45f;" 
d="M251 -125v125h-163v550h99v-459h226v459h99v-550h-162v-125h-99z" />
    <glyph glyph-name="uni0490" unicode="&#x490;" 
d="M128 0v730h334v95h94v-186h-329v-639h-99z" />
    <glyph glyph-name="uni0491" unicode="&#x491;" 
d="M128 0v550h305v105h94v-196h-300v-459h-99z" />
    <glyph glyph-name="uni0492" unicode="&#x492;" 
d="M128 0v323h-98v87h98v320h428v-90h-329v-230h155v-87h-155v-323h-99z" />
    <glyph glyph-name="uni0493" unicode="&#x493;" 
d="M147 0v228h-100v90h100v232h399v-91h-300v-141h171v-90h-171v-228h-99z" />
    <glyph glyph-name="uni049A" unicode="&#x49a;" 
d="M76 0v730h99v-310h103l156 310h107l-176 -351l142 -290h80v-229h-88v140h-60l-164 333h-100v-333h-99z" />
    <glyph glyph-name="uni049B" unicode="&#x49b;" 
d="M88 0v550h99v-224h95l153 224h113l-180 -263l126 -198h79v-229h-87v140h-50l-153 241h-96v-241h-99z" />
    <glyph glyph-name="uni04A2" unicode="&#x4a2;" 
d="M84 0v730h99v-308h224v308h99v-641h50v-229h-87v140h-62v332h-224v-332h-99z" />
    <glyph glyph-name="uni04A3" unicode="&#x4a3;" 
d="M86 0v550h99v-225h222v225h99v-461h50v-229h-88v140h-61v235h-222v-235h-99z" />
    <glyph glyph-name="uni04AE" unicode="&#x4ae;" 
d="M251 0v271l-219 459h105l135 -288q12 -26 19.5 -47t9.5 -30q3 9 10.5 30t20.5 47l134 288h102l-218 -459v-271h-99z" />
    <glyph glyph-name="uni04AF" unicode="&#x4af;" 
d="M251 -180v180l-196 550h104l120 -357q12 -33 16.5 -60.5t8.5 -44.5q3 17 7.5 44.5t15.5 60.5l117 357h101l-195 -550v-180h-99z" />
    <glyph glyph-name="uni04B0" unicode="&#x4b0;" 
d="M124 194v77h127l-219 459h105l135 -288q12 -26 19.5 -47t9.5 -30q3 9 10.5 30t20.5 47l134 288h102l-218 -459h126v-77h-126v-194h-99v194h-127z" />
    <glyph glyph-name="uni04B1" unicode="&#x4b1;" 
d="M124 -77v77h127l-196 550h104l120 -357q12 -33 16.5 -60.5t8.5 -44.5q3 17 7.5 44.5t15.5 60.5l117 357h101l-195 -550h126v-77h-126v-103h-99v103h-127z" />
    <glyph glyph-name="uni04B6" unicode="&#x4b6;" 
d="M400 0v268h-136q-95 0 -149 48.5t-54 134.5v279h99v-278q0 -46 30.5 -71t85.5 -25h124v374h99v-641h48v-229h-88v140h-59z" />
    <glyph glyph-name="uni04B7" unicode="&#x4b7;" 
d="M400 0v187h-145q-87 0 -137 46t-50 125v192h99v-191q0 -38 25.5 -60t69.5 -22h138v273h99v-461h48v-229h-88v140h-59z" />
    <glyph glyph-name="uni04BA" unicode="&#x4ba;" 
d="M190 730v-268h136q95 0 149 -48.5t54 -134.5v-279h-99v278q0 46 -30.5 71t-85.5 25h-124v-374h-99v730h99z" />
    <glyph glyph-name="uni04BB" unicode="&#x4bb;" 
d="M195 550v-187h144q87 0 137 -46t50 -125v-192h-99v191q0 38 -25.5 60.5t-69.5 22.5h-137v-274h-99v550h99z" />
    <glyph glyph-name="uni04D8" unicode="&#x4d8;" 
d="M297 -10q-100 0 -159 57t-59 155v211h337v116q0 57 -32 90.5t-87 33.5t-87 -33.5t-32 -90.5h-99q0 97 59 154t159 57t159 -57t59 -154v-327q0 -98 -59 -155t-159 -57zM297 78q55 0 87 33t32 91v121h-238v-121q0 -58 32 -91t87 -33z" />
    <glyph glyph-name="uni04D9" unicode="&#x4d9;" 
d="M300 560q99 0 159.5 -59t60.5 -161v-130q0 -102 -60.5 -161t-159.5 -59q-66 0 -115.5 26.5t-77 74t-27.5 111.5v98h343v49q0 59 -33 93t-90 34q-48 0 -79 -18t-37 -49h-99q10 69 69 110t146 41zM423 202v25h-246v-26q0 -63 32 -97t91 -34t91 34t32 98z" />
    <glyph glyph-name="uni04DC" unicode="&#x4dc;" 
d="M4 0l130 379l-120 351h98l103 -316h45v316h80v-316h46l102 316h98l-122 -352l132 -378h-97l-115 340h-44v-340h-79l-1 340h-47l-112 -340h-97zM413 815q-31 0 -49 17.5t-18 47.5q0 31 18 49t49 18q30 0 48 -18t18 -49q0 -30 -18 -47.5t-48 -17.5zM187 815q-30 0 -48 17.5
t-18 47.5q0 31 18 49t48 18q31 0 49 -18t18 -49q0 -30 -18 -47.5t-49 -17.5z" />
    <glyph glyph-name="uni04DD" unicode="&#x4dd;" 
d="M12 0l122 284l-114 266h93l98 -235h50v235h78v-235h49l101 235h91l-113 -263l121 -287h-95l-103 248h-51v-248h-78v248h-51l-103 -248h-95zM413 647q-31 0 -49 17.5t-18 47.5q0 31 18 49t49 18q30 0 48 -18t18 -49q0 -30 -18 -47.5t-48 -17.5zM187 647q-30 0 -48 17.5
t-18 47.5q0 31 18 49t48 18q31 0 49 -18t18 -49q0 -30 -18 -47.5t-49 -17.5z" />
    <glyph glyph-name="uni04DE" unicode="&#x4de;" 
d="M291 -10q-71 0 -125.5 26.5t-85 74.5t-31.5 111h98q2 -56 42 -90.5t103 -34.5q64 0 104 36t40 94q0 57 -40 93t-104 36h-86v87h87q55 0 89 32.5t34 84.5q0 51 -33.5 82t-87.5 31q-57 0 -92.5 -34.5t-35.5 -89.5h-98q0 62 28.5 110t79.5 74.5t118 26.5q65 0 114.5 -24
t77.5 -67t28 -99q0 -60 -32.5 -105.5t-84.5 -57.5v-3q62 -11 100.5 -62t38.5 -122q0 -62 -31 -109.5t-86.5 -74t-128.5 -26.5zM413 815q-31 0 -49 17.5t-18 47.5q0 31 18 49t49 18q30 0 48 -18t18 -49q0 -30 -18 -47.5t-48 -17.5zM187 815q-30 0 -48 17.5t-18 47.5
q0 31 18 49t48 18q31 0 49 -18t18 -49q0 -30 -18 -47.5t-49 -17.5z" />
    <glyph glyph-name="uni04DF" unicode="&#x4df;" 
d="M265 -7q-92 0 -146 43t-54 116h98q0 -33 27.5 -53t74.5 -20h56q49 0 77.5 21.5t28.5 59.5t-28.5 60.5t-77.5 22.5h-123v83h119q45 0 71 20t26 54t-26 53.5t-71 19.5h-47q-43 0 -68.5 -16.5t-26.5 -44.5h-98q1 67 53 106t140 39h47q91 0 145 -37.5t54 -105.5
q0 -47 -32 -78t-83 -35v-4q61 -4 95 -41.5t34 -97.5q0 -75 -56.5 -120t-152.5 -45h-56zM413 647q-31 0 -49 17.5t-18 47.5q0 31 18 49t49 18q30 0 48 -18t18 -49q0 -30 -18 -47.5t-48 -17.5zM187 647q-30 0 -48 17.5t-18 47.5q0 31 18 49t48 18q31 0 49 -18t18 -49
q0 -30 -18 -47.5t-49 -17.5z" />
    <glyph glyph-name="uni04E4" unicode="&#x4e4;" 
d="M86 0v730h93v-396q0 -37 -1.5 -78t-3.5 -78.5t-4 -63.5l216 616h129v-730h-94v394q0 36 1.5 77.5t4 80t5.5 64.5l-218 -616h-128zM413 815q-31 0 -49 17.5t-18 47.5q0 31 18 49t49 18q30 0 48 -18t18 -49q0 -30 -18 -47.5t-48 -17.5zM187 815q-30 0 -48 17.5t-18 47.5
q0 31 18 49t48 18q31 0 49 -18t18 -49q0 -30 -18 -47.5t-49 -17.5z" />
    <glyph glyph-name="uni04E5" unicode="&#x4e5;" 
d="M88 0v550h93v-288q0 -44 -1.5 -91t-10.5 -78l221 457h122v-550h-93v289q0 44 1.5 90.5t9.5 76.5l-220 -456h-122zM413 647q-31 0 -49 17.5t-18 47.5q0 31 18 49t49 18q30 0 48 -18t18 -49q0 -30 -18 -47.5t-48 -17.5zM187 647q-30 0 -48 17.5t-18 47.5q0 31 18 49t48 18
q31 0 49 -18t18 -49q0 -30 -18 -47.5t-49 -17.5z" />
    <glyph glyph-name="uni04E6" unicode="&#x4e6;" 
d="M300 -10q-100 0 -158 58t-58 164v307q0 105 58 163t158 58t158 -57.5t58 -163.5v-307q0 -106 -58 -164t-158 -58zM300 78q56 0 86.5 32t30.5 92v327q0 59 -30 91t-87 32t-87 -32t-30 -91v-327q0 -60 30.5 -92t86.5 -32zM413 815q-31 0 -49 17.5t-18 47.5q0 31 18 49
t49 18q30 0 48 -18t18 -49q0 -30 -18 -47.5t-48 -17.5zM187 815q-30 0 -48 17.5t-18 47.5q0 31 18 49t48 18q31 0 49 -18t18 -49q0 -30 -18 -47.5t-49 -17.5z" />
    <glyph glyph-name="uni04E7" unicode="&#x4e7;" 
d="M300 -8q-101 0 -160.5 58t-59.5 162v126q0 104 59.5 162t160.5 58t160.5 -58t59.5 -162v-126q0 -104 -59.5 -162t-160.5 -58zM300 79q56 0 88.5 31.5t32.5 92.5v144q0 61 -32.5 92.5t-88.5 31.5t-88.5 -31.5t-32.5 -92.5v-144q0 -61 32.5 -92.5t88.5 -31.5zM413 647
q-31 0 -49 17.5t-18 47.5q0 31 18 49t49 18q30 0 48 -18t18 -49q0 -30 -18 -47.5t-48 -17.5zM187 647q-30 0 -48 17.5t-18 47.5q0 31 18 49t48 18q31 0 49 -18t18 -49q0 -30 -18 -47.5t-49 -17.5z" />
    <glyph glyph-name="uni04E8" unicode="&#x4e8;" 
d="M300 -10q-101 0 -157.5 57t-56.5 156v325q0 99 56.5 155.5t157.5 56.5t158 -56.5t57 -155.5v-325q0 -98 -57.5 -155.5t-157.5 -57.5zM182 417h236v110q0 61 -30 93.5t-88 32.5t-88 -32.5t-30 -93.5v-110zM300 77q57 0 87.5 33t30.5 94v126h-236v-126q0 -61 30.5 -94
t87.5 -33z" />
    <glyph glyph-name="uni04E9" unicode="&#x4e9;" 
d="M300 -10q-99 0 -156.5 57.5t-57.5 154.5v147q0 97 58 154t156 57t156.5 -57.5t58.5 -152.5v-148q0 -97 -58.5 -154.5t-156.5 -57.5zM181 317h238v32q0 60 -31 92.5t-88 32.5t-88 -32.5t-31 -92.5v-32zM300 76q57 0 88 32.5t31 93.5v37h-238v-37q0 -61 31 -93.5t88 -32.5z
" />
    <glyph glyph-name="uni04F4" unicode="&#x4f4;" 
d="M410 0v268h-136q-95 0 -149 48.5t-54 134.5v279h99v-278q0 -46 30.5 -71t85.5 -25h124v374h99v-730h-99zM413 815q-31 0 -49 17.5t-18 47.5q0 31 18 49t49 18q30 0 48 -18t18 -49q0 -30 -18 -47.5t-48 -17.5zM187 815q-30 0 -48 17.5t-18 47.5q0 31 18 49t48 18
q31 0 49 -18t18 -49q0 -30 -18 -47.5t-49 -17.5z" />
    <glyph glyph-name="uni04F5" unicode="&#x4f5;" 
d="M406 0v187h-145q-87 0 -137 46t-50 125v192h99v-191q0 -38 25.5 -60t69.5 -22h138v273h99v-550h-99zM413 647q-31 0 -49 17.5t-18 47.5q0 31 18 49t49 18q30 0 48 -18t18 -49q0 -30 -18 -47.5t-48 -17.5zM187 647q-30 0 -48 17.5t-18 47.5q0 31 18 49t48 18q31 0 49 -18
t18 -49q0 -30 -18 -47.5t-49 -17.5z" />
    <glyph glyph-name="uni0AEA" unicode="&#xaea;" 
d="M300 -10q-68 0 -118 25t-77.5 67.5t-27.5 96.5q0 45 20.5 85.5t55.5 80.5l91 105l-171 200h114l114 -133l115 133h111l-170 -198l93 -109q35 -41 54 -81t19 -83q0 -54 -27.5 -96.5t-77.5 -67.5t-118 -25zM176 189q0 -46 33.5 -78.5t90.5 -32.5t90.5 32.5t33.5 78.5
q0 52 -45 103l-79 93l-80 -93q-21 -24 -32.5 -50t-11.5 -53z" />
    <glyph glyph-name="Wgrave" unicode="&#x1e80;" 
d="M103 0l-84 730h88l54 -532q3 -32 5.5 -68.5t3.5 -59.5q2 23 5 59.5t8 68.5l70 532h99l65 -532q3 -32 7 -68.5t7 -59.5q1 23 4 59.5t6 68.5l55 532h86l-87 -730h-120l-63 540q-4 33 -6.5 67.5t-3.5 55.5q-3 -21 -5 -55.5t-6 -67.5l-69 -540h-119zM263 810l-116 140h110
l109 -140h-103z" />
    <glyph glyph-name="wgrave" unicode="&#x1e81;" 
d="M116 0l-89 550h84l54 -375q3 -25 6 -54t4 -47q2 18 5 47t7 54l66 375h94l66 -375q4 -25 7.5 -53.5t5.5 -47.5l5 47.5t6 53.5l56 375h80l-93 -550h-106l-61 370q-4 27 -7.5 60t-5.5 52q-1 -19 -5.5 -52t-8.5 -60l-63 -370h-107zM263 645l-116 140h110l109 -140h-103z" />
    <glyph glyph-name="Wacute" unicode="&#x1e82;" 
d="M103 0l-84 730h88l54 -532q3 -32 5.5 -68.5t3.5 -59.5q2 23 5 59.5t8 68.5l70 532h99l65 -532q3 -32 7 -68.5t7 -59.5q1 23 4 59.5t6 68.5l55 532h86l-87 -730h-120l-63 540q-4 33 -6.5 67.5t-3.5 55.5q-3 -21 -5 -55.5t-6 -67.5l-69 -540h-119zM238 810l105 140h107
l-112 -140h-100z" />
    <glyph glyph-name="wacute" unicode="&#x1e83;" 
d="M116 0l-89 550h84l54 -375q3 -25 6 -54t4 -47q2 18 5 47t7 54l66 375h94l66 -375q4 -25 7.5 -53.5t5.5 -47.5l5 47.5t6 53.5l56 375h80l-93 -550h-106l-61 370q-4 27 -7.5 60t-5.5 52q-1 -19 -5.5 -52t-8.5 -60l-63 -370h-107zM238 645l105 140h107l-112 -140h-100z" />
    <glyph glyph-name="Wdieresis" unicode="&#x1e84;" 
d="M103 0l-84 730h88l54 -532q3 -32 5.5 -68.5t3.5 -59.5q2 23 5 59.5t8 68.5l70 532h99l65 -532q3 -32 7 -68.5t7 -59.5q1 23 4 59.5t6 68.5l55 532h86l-87 -730h-120l-63 540q-4 33 -6.5 67.5t-3.5 55.5q-3 -21 -5 -55.5t-6 -67.5l-69 -540h-119zM413 815q-31 0 -49 17.5
t-18 47.5q0 31 18 49t49 18q30 0 48 -18t18 -49q0 -30 -18 -47.5t-48 -17.5zM187 815q-30 0 -48 17.5t-18 47.5q0 31 18 49t48 18q31 0 49 -18t18 -49q0 -30 -18 -47.5t-49 -17.5z" />
    <glyph glyph-name="wdieresis" unicode="&#x1e85;" 
d="M116 0l-89 550h84l54 -375q3 -25 6 -54t4 -47q2 18 5 47t7 54l66 375h94l66 -375q4 -25 7.5 -53.5t5.5 -47.5l5 47.5t6 53.5l56 375h80l-93 -550h-106l-61 370q-4 27 -7.5 60t-5.5 52q-1 -19 -5.5 -52t-8.5 -60l-63 -370h-107zM413 647q-31 0 -49 17.5t-18 47.5
q0 31 18 49t49 18q30 0 48 -18t18 -49q0 -30 -18 -47.5t-48 -17.5zM187 647q-30 0 -48 17.5t-18 47.5q0 31 18 49t48 18q31 0 49 -18t18 -49q0 -30 -18 -47.5t-49 -17.5z" />
    <glyph glyph-name="uni1E9E" unicode="&#x1e9e;" 
d="M87 0v522q0 63 27 109.5t75 72.5t112 26h231v-96l-162 -211q79 -7 126 -63t47 -145q0 -65 -27.5 -113t-77 -75t-115.5 -27h-65v88h56q58 0 91.5 35t33.5 94q0 58 -33.5 91.5t-91.5 33.5h-46v83l163 217h-130q-54 0 -85.5 -32t-31.5 -88v-522h-97z" />
    <glyph glyph-name="uni1EA0" unicode="&#x1ea0;" 
d="M46 0l189 730h131l188 -730h-101l-46 190h-214l-46 -190h-101zM213 272h174l-52 218q-15 60 -24 102t-11 57q-2 -15 -11 -57t-23 -101zM300 -216q-34 0 -54 17.5t-20 47.5q0 31 20 49t54 18t54 -18t20 -49q0 -30 -20 -47.5t-54 -17.5z" />
    <glyph glyph-name="uni1EA1" unicode="&#x1ea1;" 
d="M249 -10q-85 0 -134.5 47.5t-49.5 124.5t51.5 124t135.5 47h161v42q0 101 -112 101q-50 0 -80.5 -18.5t-32.5 -51.5h-98q5 67 61 110.5t150 43.5q101 0 156 -48t55 -135v-377h-97v101h-2q-7 -51 -50.5 -81t-113.5 -30zM275 73q63 0 100.5 30.5t37.5 83.5v73h-152
q-43 0 -69.5 -25.5t-26.5 -67.5q0 -43 29 -68.5t81 -25.5zM305 -216q-34 0 -54 17.5t-20 47.5q0 31 20 49t54 18t54 -18t20 -49q0 -30 -20 -47.5t-54 -17.5z" />
    <glyph glyph-name="uni1EA2" unicode="&#x1ea2;" 
d="M46 0l189 730h131l188 -730h-101l-46 190h-214l-46 -190h-101zM213 272h174l-52 218q-15 60 -24 102t-11 57q-2 -15 -11 -57t-23 -101zM256 799l45 63q15 19 15 31q0 20 -32 20h-75v68h83q48 0 76.5 -21t28.5 -56q0 -29 -17 -54l-35 -51h-89z" />
    <glyph glyph-name="uni1EA3" unicode="&#x1ea3;" 
d="M249 -10q-85 0 -134.5 47.5t-49.5 124.5t51.5 124t135.5 47h161v42q0 101 -112 101q-50 0 -80.5 -18.5t-32.5 -51.5h-98q5 67 61 110.5t150 43.5q101 0 156 -48t55 -135v-377h-97v101h-2q-7 -51 -50.5 -81t-113.5 -30zM275 73q63 0 100.5 30.5t37.5 83.5v73h-152
q-43 0 -69.5 -25.5t-26.5 -67.5q0 -43 29 -68.5t81 -25.5zM261 645l50 62q14 19 14 32q0 19 -31 19h-80v68h105q39 0 63.5 -20t24.5 -55q0 -33 -18 -55l-39 -51h-89z" />
    <glyph glyph-name="uni1EA4" unicode="&#x1ea4;" 
d="M46 0l189 730h131l188 -730h-101l-46 190h-214l-46 -190h-101zM213 272h174l-52 218q-15 60 -24 102t-11 57q-2 -15 -11 -57t-23 -101zM410 901l105 119h108l-110 -119h-103zM116 780l138 140h92l139 -140h-107l-78 77l-79 -77h-105z" />
    <glyph glyph-name="uni1EA5" unicode="&#x1ea5;" 
d="M249 -10q-85 0 -134.5 47.5t-49.5 124.5t51.5 124t135.5 47h161v42q0 101 -112 101q-50 0 -80.5 -18.5t-32.5 -51.5h-98q5 67 61 110.5t150 43.5q101 0 156 -48t55 -135v-377h-97v101h-2q-7 -51 -50.5 -81t-113.5 -30zM275 73q63 0 100.5 30.5t37.5 83.5v73h-152
q-43 0 -69.5 -25.5t-26.5 -67.5q0 -43 29 -68.5t81 -25.5zM417 760l115 140h107l-121 -140h-101zM121 645l138 140h92l139 -140h-107l-78 77l-79 -77h-105z" />
    <glyph glyph-name="uni1EA6" unicode="&#x1ea6;" 
d="M46 0l189 730h131l188 -730h-101l-46 190h-214l-46 -190h-101zM213 272h174l-52 218q-15 60 -24 102t-11 57q-2 -15 -11 -57t-23 -101zM447 901l-120 119h107l114 -119h-101zM116 780l138 140h92l139 -140h-107l-78 77l-79 -77h-105z" />
    <glyph glyph-name="uni1EA7" unicode="&#x1ea7;" 
d="M249 -10q-85 0 -134.5 47.5t-49.5 124.5t51.5 124t135.5 47h161v42q0 101 -112 101q-50 0 -80.5 -18.5t-32.5 -51.5h-98q5 67 61 110.5t150 43.5q101 0 156 -48t55 -135v-377h-97v101h-2q-7 -51 -50.5 -81t-113.5 -30zM275 73q63 0 100.5 30.5t37.5 83.5v73h-152
q-43 0 -69.5 -25.5t-26.5 -67.5q0 -43 29 -68.5t81 -25.5zM459 760l-130 140h107l124 -140h-101zM121 645l138 140h92l139 -140h-107l-78 77l-79 -77h-105z" />
    <glyph glyph-name="uni1EA8" unicode="&#x1ea8;" 
d="M46 0l189 730h131l188 -730h-101l-46 190h-214l-46 -190h-101zM213 272h174l-52 218q-15 60 -24 102t-11 57q-2 -15 -11 -57t-23 -101zM423 879l46 45q8 8 8 19q0 16 -16 16h-67v61h87q34 0 54.5 -17.5t20.5 -47.5q0 -28 -17 -45l-33 -31h-83zM116 780l138 140h92
l139 -140h-107l-78 77l-79 -77h-105z" />
    <glyph glyph-name="uni1EA9" unicode="&#x1ea9;" 
d="M249 -10q-85 0 -134.5 47.5t-49.5 124.5t51.5 124t135.5 47h161v42q0 101 -112 101q-50 0 -80.5 -18.5t-32.5 -51.5h-98q5 67 61 110.5t150 43.5q101 0 156 -48t55 -135v-377h-97v101h-2q-7 -51 -50.5 -81t-113.5 -30zM275 73q63 0 100.5 30.5t37.5 83.5v73h-152
q-43 0 -69.5 -25.5t-26.5 -67.5q0 -43 29 -68.5t81 -25.5zM428 760l46 61q10 14 10 24q0 24 -32 24h-54v64h62q46 0 73.5 -21t27.5 -56q0 -23 -18 -47l-35 -49h-80zM121 645l138 140h92l139 -140h-107l-78 77l-79 -77h-105z" />
    <glyph glyph-name="uni1EAA" unicode="&#x1eaa;" 
d="M46 0l189 730h131l188 -730h-101l-46 190h-214l-46 -190h-101zM213 272h174l-52 218q-15 60 -24 102t-11 57q-2 -15 -11 -57t-23 -101zM377 919q-41 0 -65 11t-42 22.5t-40 11.5q-13 0 -21 -8t-8 -22v-6h-68v6q0 40 24.5 63t66.5 23q32 0 52.5 -7t35.5 -16t28 -15.5
t30 -6.5q13 0 21 8t8 21v7h68v-7q0 -39 -24 -62t-66 -23zM116 780l113 109h142l113 -109h-106l-78 73l-79 -73h-105z" />
    <glyph glyph-name="uni1EAB" unicode="&#x1eab;" 
d="M249 -10q-85 0 -134.5 47.5t-49.5 124.5t51.5 124t135.5 47h161v42q0 101 -112 101q-50 0 -80.5 -18.5t-32.5 -51.5h-98q5 67 61 110.5t150 43.5q101 0 156 -48t55 -135v-377h-97v101h-2q-7 -51 -50.5 -81t-113.5 -30zM275 73q63 0 100.5 30.5t37.5 83.5v73h-152
q-43 0 -69.5 -25.5t-26.5 -67.5q0 -43 29 -68.5t81 -25.5zM372 814q-32 0 -50.5 9.5t-30.5 22t-23 22t-28 9.5q-30 0 -30 -31v-24h-68v20q0 42 26.5 67t69.5 25q32 0 51 -9.5t30.5 -21.5t22.5 -21.5t28 -9.5q30 0 30 30v25h68v-21q0 -41 -26.5 -66.5t-69.5 -25.5zM121 645
l138 140h92l139 -140h-107l-78 77l-79 -77h-105z" />
    <glyph glyph-name="uni1EAC" unicode="&#x1eac;" 
d="M115 810l139 140h91l140 -140h-105l-80 77l-78 -77h-107zM46 0l189 730h131l188 -730h-101l-46 190h-214l-46 -190h-101zM213 272h174l-52 218q-15 60 -24 102t-11 57q-2 -15 -11 -57t-23 -101zM300 -216q-34 0 -54 17.5t-20 47.5q0 31 20 49t54 18t54 -18t20 -49
q0 -30 -20 -47.5t-54 -17.5z" />
    <glyph glyph-name="uni1EAD" unicode="&#x1ead;" 
d="M249 -10q-85 0 -134.5 47.5t-49.5 124.5t51.5 124t135.5 47h161v42q0 101 -112 101q-50 0 -80.5 -18.5t-32.5 -51.5h-98q5 67 61 110.5t150 43.5q101 0 156 -48t55 -135v-377h-97v101h-2q-7 -51 -50.5 -81t-113.5 -30zM275 73q63 0 100.5 30.5t37.5 83.5v73h-152
q-43 0 -69.5 -25.5t-26.5 -67.5q0 -43 29 -68.5t81 -25.5zM305 -216q-34 0 -54 17.5t-20 47.5q0 31 20 49t54 18t54 -18t20 -49q0 -30 -20 -47.5t-54 -17.5zM120 645l139 140h91l140 -140h-105l-80 77l-78 -77h-107z" />
    <glyph glyph-name="uni1EAE" unicode="&#x1eae;" 
d="M236 901l105 119h101l-111 -119h-95zM273 780q-66 0 -104.5 35t-38.5 96h73q0 -31 19 -49.5t51 -18.5h53q33 0 52 18.5t19 49.5h73q0 -61 -39 -96t-105 -35h-53zM46 0l189 730h131l188 -730h-101l-46 190h-214l-46 -190h-101zM213 272h174l-52 218q-15 60 -24 102t-11 57
q-2 -15 -11 -57t-23 -101z" />
    <glyph glyph-name="uni1EAF" unicode="&#x1eaf;" 
d="M249 -10q-85 0 -134.5 47.5t-49.5 124.5t51.5 124t135.5 47h161v42q0 101 -112 101q-50 0 -80.5 -18.5t-32.5 -51.5h-98q5 67 61 110.5t150 43.5q101 0 156 -48t55 -135v-377h-97v101h-2q-7 -51 -50.5 -81t-113.5 -30zM275 73q63 0 100.5 30.5t37.5 83.5v73h-152
q-43 0 -69.5 -25.5t-26.5 -67.5q0 -43 29 -68.5t81 -25.5zM242 765l115 131h101l-121 -131h-95zM305 640q-77 0 -124.5 36t-47.5 96h76q0 -31 26 -49t70 -18t70 18t26 49h76q0 -60 -47.5 -96t-124.5 -36z" />
    <glyph glyph-name="uni1EB0" unicode="&#x1eb0;" 
d="M46 0l189 730h131l188 -730h-101l-46 190h-214l-46 -190h-101zM213 272h174l-52 218q-15 60 -24 102t-11 57q-2 -15 -11 -57t-23 -101zM270 901l-99 119h99l94 -119h-94zM273 780q-66 0 -104.5 35t-38.5 96h73q0 -31 19 -49.5t51 -18.5h53q33 0 52 18.5t19 49.5h73
q0 -61 -39 -96t-105 -35h-53z" />
    <glyph glyph-name="uni1EB1" unicode="&#x1eb1;" 
d="M249 -10q-85 0 -134.5 47.5t-49.5 124.5t51.5 124t135.5 47h161v42q0 101 -112 101q-50 0 -80.5 -18.5t-32.5 -51.5h-98q5 67 61 110.5t150 43.5q101 0 156 -48t55 -135v-377h-97v101h-2q-7 -51 -50.5 -81t-113.5 -30zM275 73q63 0 100.5 30.5t37.5 83.5v73h-152
q-43 0 -69.5 -25.5t-26.5 -67.5q0 -43 29 -68.5t81 -25.5zM273 765l-121 131h101l115 -131h-95zM305 640q-77 0 -124.5 36t-47.5 96h76q0 -31 26 -49t70 -18t70 18t26 49h76q0 -60 -47.5 -96t-124.5 -36z" />
    <glyph glyph-name="uni1EB2" unicode="&#x1eb2;" 
d="M46 0l189 730h131l188 -730h-101l-46 190h-214l-46 -190h-101zM213 272h174l-52 218q-15 60 -24 102t-11 57q-2 -15 -11 -57t-23 -101zM253 882l44 52q7 8 7 16t-10 8h-73v62h98q28 0 43.5 -13t15.5 -38q0 -30 -17 -52l-28 -35h-80zM273 780q-66 0 -104.5 35t-38.5 96h73
q0 -31 19 -49.5t51 -18.5h53q33 0 52 18.5t19 49.5h73q0 -61 -39 -96t-105 -35h-53z" />
    <glyph glyph-name="uni1EB3" unicode="&#x1eb3;" 
d="M249 -10q-85 0 -134.5 47.5t-49.5 124.5t51.5 124t135.5 47h161v42q0 101 -112 101q-50 0 -80.5 -18.5t-32.5 -51.5h-98q5 67 61 110.5t150 43.5q101 0 156 -48t55 -135v-377h-97v101h-2q-7 -51 -50.5 -81t-113.5 -30zM275 73q63 0 100.5 30.5t37.5 83.5v73h-152
q-43 0 -69.5 -25.5t-26.5 -67.5q0 -43 29 -68.5t81 -25.5zM256 765l45 59q10 13 10 26q0 23 -27 23h-58v64h70q44 0 70 -20.5t26 -52.5q0 -14 -5 -27t-13 -24l-34 -48h-84zM305 640q-77 0 -124.5 36t-47.5 96h76q0 -31 26 -49t70 -18t70 18t26 49h76q0 -60 -47.5 -96
t-124.5 -36z" />
    <glyph glyph-name="uni1EB4" unicode="&#x1eb4;" 
d="M46 0l189 730h131l188 -730h-101l-46 190h-214l-46 -190h-101zM213 272h174l-52 218q-15 60 -24 102t-11 57q-2 -15 -11 -57t-23 -101zM377 919q-41 0 -65 11t-42 22.5t-40 11.5q-13 0 -21 -8t-8 -22v-6h-68v6q0 40 24.5 63t66.5 23q32 0 52.5 -7t35.5 -16t28 -15.5
t30 -6.5q13 0 21 8t8 21v7h68v-7q0 -39 -24 -62t-66 -23zM272 780q-64 0 -101.5 30t-37.5 89h74q0 -30 17.5 -43t46.5 -13h57q30 0 48 13t18 43h73q0 -59 -38 -89t-102 -30h-55z" />
    <glyph glyph-name="uni1EB5" unicode="&#x1eb5;" 
d="M249 -10q-85 0 -134.5 47.5t-49.5 124.5t51.5 124t135.5 47h161v42q0 101 -112 101q-50 0 -80.5 -18.5t-32.5 -51.5h-98q5 67 61 110.5t150 43.5q101 0 156 -48t55 -135v-377h-97v101h-2q-7 -51 -50.5 -81t-113.5 -30zM275 73q63 0 100.5 30.5t37.5 83.5v73h-152
q-43 0 -69.5 -25.5t-26.5 -67.5q0 -43 29 -68.5t81 -25.5zM372 811q-32 0 -50.5 9.5t-30.5 22.5t-23 22.5t-28 9.5q-30 0 -30 -30v-26h-68v22q0 41 26.5 66.5t69.5 25.5q32 0 51 -10t30.5 -22.5t22.5 -22t28 -9.5q30 0 30 29v27h68v-22q0 -42 -26.5 -67t-69.5 -25zM305 644
q-73 0 -118.5 36.5t-45.5 95.5h72q0 -31 25 -49.5t66 -18.5q42 0 67.5 18.5t25.5 49.5h72q0 -59 -45.5 -95.5t-118.5 -36.5z" />
    <glyph glyph-name="uni1EB6" unicode="&#x1eb6;" 
d="M300 804q-74 0 -119 40t-45 106h78q0 -37 23.5 -60t61.5 -23q39 0 63 23t24 60h78q0 -66 -45 -106t-119 -40zM46 0l189 730h131l188 -730h-101l-46 190h-214l-46 -190h-101zM213 272h174l-52 218q-15 60 -24 102t-11 57q-2 -15 -11 -57t-23 -101zM300 -216
q-34 0 -54 17.5t-20 47.5q0 31 20 49t54 18t54 -18t20 -49q0 -30 -20 -47.5t-54 -17.5z" />
    <glyph glyph-name="uni1EB7" unicode="&#x1eb7;" 
d="M249 -10q-85 0 -134.5 47.5t-49.5 124.5t51.5 124t135.5 47h161v42q0 101 -112 101q-50 0 -80.5 -18.5t-32.5 -51.5h-98q5 67 61 110.5t150 43.5q101 0 156 -48t55 -135v-377h-97v101h-2q-7 -51 -50.5 -81t-113.5 -30zM275 73q63 0 100.5 30.5t37.5 83.5v73h-152
q-43 0 -69.5 -25.5t-26.5 -67.5q0 -43 29 -68.5t81 -25.5zM305 -216q-34 0 -54 17.5t-20 47.5q0 31 20 49t54 18t54 -18t20 -49q0 -30 -20 -47.5t-54 -17.5zM305 639q-74 0 -119 40t-45 106h78q0 -37 23.5 -60t61.5 -23q39 0 63 23t24 60h78q0 -66 -45 -106t-119 -40z" />
    <glyph glyph-name="uni1EB8" unicode="&#x1eb8;" 
d="M97 0v730h425v-89h-327v-217h292v-86h-292v-249h327v-89h-425zM309 -216q-34 0 -54 17.5t-20 47.5q0 31 20 49t54 18t54 -18t20 -49q0 -30 -20 -47.5t-54 -17.5z" />
    <glyph glyph-name="uni1EB9" unicode="&#x1eb9;" 
d="M300 -10q-99 0 -159.5 59t-60.5 161v130q0 102 60.5 161t159.5 59q66 0 115.5 -26.5t77 -74t27.5 -110.5v-99h-343v-48q0 -60 33 -94t90 -34q48 0 79 18t37 50h99q-10 -70 -69 -111t-146 -41zM177 349v-26h246v26q0 63 -32 97t-91 34t-91 -34t-32 -97zM300 -216
q-34 0 -54 17.5t-20 47.5q0 31 20 49t54 18t54 -18t20 -49q0 -30 -20 -47.5t-54 -17.5z" />
    <glyph glyph-name="uni1EBA" unicode="&#x1eba;" 
d="M97 0v730h425v-89h-327v-217h292v-86h-292v-249h327v-89h-425zM265 799l45 63q15 19 15 31q0 20 -32 20h-75v68h83q48 0 76.5 -21t28.5 -56q0 -29 -17 -54l-35 -51h-89z" />
    <glyph glyph-name="uni1EBB" unicode="&#x1ebb;" 
d="M300 -10q-99 0 -159.5 59t-60.5 161v130q0 102 60.5 161t159.5 59q66 0 115.5 -26.5t77 -74t27.5 -110.5v-99h-343v-48q0 -60 33 -94t90 -34q48 0 79 18t37 50h99q-10 -70 -69 -111t-146 -41zM177 349v-26h246v26q0 63 -32 97t-91 34t-91 -34t-32 -97zM256 645l50 62
q14 19 14 32q0 19 -31 19h-80v68h105q39 0 63.5 -20t24.5 -55q0 -33 -18 -55l-39 -51h-89z" />
    <glyph glyph-name="uni1EBC" unicode="&#x1ebc;" 
d="M97 0v730h425v-89h-327v-217h292v-86h-292v-249h327v-89h-425zM379 813q-30 0 -49 10t-32 24t-25 24t-29 10q-30 0 -30 -34v-29h-68v31q0 46 25.5 72t67.5 26q30 0 49 -10t32 -24t25 -24t29 -10q30 0 30 34v29h68v-30q0 -47 -25.5 -73t-67.5 -26z" />
    <glyph glyph-name="uni1EBD" unicode="&#x1ebd;" 
d="M300 -10q-99 0 -159.5 59t-60.5 161v130q0 102 60.5 161t159.5 59q66 0 115.5 -26.5t77 -74t27.5 -110.5v-99h-343v-48q0 -60 33 -94t90 -34q48 0 79 18t37 50h99q-10 -70 -69 -111t-146 -41zM177 349v-26h246v26q0 63 -32 97t-91 34t-91 -34t-32 -97zM370 648
q-30 0 -49 10t-32 24t-25 24t-29 10q-30 0 -30 -34v-29h-68v31q0 46 25.5 72t67.5 26q30 0 49 -10t32 -24t25 -24t29 -10q30 0 30 34v29h68v-30q0 -47 -25.5 -73t-67.5 -26z" />
    <glyph glyph-name="uni1EBE" unicode="&#x1ebe;" 
d="M97 0v730h425v-89h-327v-217h292v-86h-292v-249h327v-89h-425zM419 901l105 119h108l-110 -119h-103zM125 780l138 140h92l139 -140h-107l-78 77l-79 -77h-105z" />
    <glyph glyph-name="uni1EBF" unicode="&#x1ebf;" 
d="M300 -10q-99 0 -159.5 59t-60.5 161v130q0 102 60.5 161t159.5 59q66 0 115.5 -26.5t77 -74t27.5 -110.5v-99h-343v-48q0 -60 33 -94t90 -34q48 0 79 18t37 50h99q-10 -70 -69 -111t-146 -41zM177 349v-26h246v26q0 63 -32 97t-91 34t-91 -34t-32 -97zM412 760l115 140
h107l-121 -140h-101zM116 645l138 140h92l139 -140h-107l-78 77l-79 -77h-105z" />
    <glyph glyph-name="uni1EC0" unicode="&#x1ec0;" 
d="M97 0v730h425v-89h-327v-217h292v-86h-292v-249h327v-89h-425zM456 901l-120 119h107l114 -119h-101zM125 780l138 140h92l139 -140h-107l-78 77l-79 -77h-105z" />
    <glyph glyph-name="uni1EC1" unicode="&#x1ec1;" 
d="M300 -10q-99 0 -159.5 59t-60.5 161v130q0 102 60.5 161t159.5 59q66 0 115.5 -26.5t77 -74t27.5 -110.5v-99h-343v-48q0 -60 33 -94t90 -34q48 0 79 18t37 50h99q-10 -70 -69 -111t-146 -41zM177 349v-26h246v26q0 63 -32 97t-91 34t-91 -34t-32 -97zM454 760l-130 140
h107l124 -140h-101zM116 645l138 140h92l139 -140h-107l-78 77l-79 -77h-105z" />
    <glyph glyph-name="uni1EC2" unicode="&#x1ec2;" 
d="M97 0v730h425v-89h-327v-217h292v-86h-292v-249h327v-89h-425zM432 879l46 45q8 8 8 19q0 16 -16 16h-67v61h87q34 0 54.5 -17.5t20.5 -47.5q0 -28 -17 -45l-33 -31h-83zM125 780l138 140h92l139 -140h-107l-78 77l-79 -77h-105z" />
    <glyph glyph-name="uni1EC3" unicode="&#x1ec3;" 
d="M300 -10q-99 0 -159.5 59t-60.5 161v130q0 102 60.5 161t159.5 59q66 0 115.5 -26.5t77 -74t27.5 -110.5v-99h-343v-48q0 -60 33 -94t90 -34q48 0 79 18t37 50h99q-10 -70 -69 -111t-146 -41zM177 349v-26h246v26q0 63 -32 97t-91 34t-91 -34t-32 -97zM423 760l46 61
q10 14 10 24q0 24 -32 24h-54v64h62q46 0 73.5 -21t27.5 -56q0 -23 -18 -47l-35 -49h-80zM116 645l138 140h92l139 -140h-107l-78 77l-79 -77h-105z" />
    <glyph glyph-name="uni1EC4" unicode="&#x1ec4;" 
d="M97 0v730h425v-89h-327v-217h292v-86h-292v-249h327v-89h-425zM386 919q-41 0 -65 11t-42 22.5t-40 11.5q-13 0 -21 -8t-8 -22v-6h-68v6q0 40 24.5 63t66.5 23q32 0 52.5 -7t35.5 -16t28 -15.5t30 -6.5q13 0 21 8t8 21v7h68v-7q0 -39 -24 -62t-66 -23zM125 780l113 109
h142l113 -109h-106l-78 73l-79 -73h-105z" />
    <glyph glyph-name="uni1EC5" unicode="&#x1ec5;" 
d="M300 -10q-99 0 -159.5 59t-60.5 161v130q0 102 60.5 161t159.5 59q66 0 115.5 -26.5t77 -74t27.5 -110.5v-99h-343v-48q0 -60 33 -94t90 -34q48 0 79 18t37 50h99q-10 -70 -69 -111t-146 -41zM177 349v-26h246v26q0 63 -32 97t-91 34t-91 -34t-32 -97zM367 814
q-32 0 -50.5 9.5t-30.5 22t-23 22t-28 9.5q-30 0 -30 -31v-24h-68v20q0 42 26.5 67t69.5 25q32 0 51 -9.5t30.5 -21.5t22.5 -21.5t28 -9.5q30 0 30 30v25h68v-21q0 -41 -26.5 -66.5t-69.5 -25.5zM116 645l138 140h92l139 -140h-107l-78 77l-79 -77h-105z" />
    <glyph glyph-name="uni1EC6" unicode="&#x1ec6;" 
d="M97 0v730h425v-89h-327v-217h292v-86h-292v-249h327v-89h-425zM309 -216q-34 0 -54 17.5t-20 47.5q0 31 20 49t54 18t54 -18t20 -49q0 -30 -20 -47.5t-54 -17.5zM124 810l139 140h91l140 -140h-105l-80 77l-78 -77h-107z" />
    <glyph glyph-name="uni1EC7" unicode="&#x1ec7;" 
d="M300 -10q-99 0 -159.5 59t-60.5 161v130q0 102 60.5 161t159.5 59q66 0 115.5 -26.5t77 -74t27.5 -110.5v-99h-343v-48q0 -60 33 -94t90 -34q48 0 79 18t37 50h99q-10 -70 -69 -111t-146 -41zM177 349v-26h246v26q0 63 -32 97t-91 34t-91 -34t-32 -97zM300 -216
q-34 0 -54 17.5t-20 47.5q0 31 20 49t54 18t54 -18t20 -49q0 -30 -20 -47.5t-54 -17.5zM115 645l139 140h91l140 -140h-105l-80 77l-78 -77h-107z" />
    <glyph glyph-name="uni1EC8" unicode="&#x1ec8;" 
d="M101 0v90h149v550h-149v90h398v-90h-149v-550h149v-90h-398zM256 799l45 63q15 19 15 31q0 20 -32 20h-75v68h83q48 0 76.5 -21t28.5 -56q0 -29 -17 -54l-35 -51h-89z" />
    <glyph glyph-name="uni1EC9" unicode="&#x1ec9;" 
d="M83 0v90h193v370h-173v90h272v-460h181v-90h-473zM272 645l50 62q14 19 14 32q0 19 -31 19h-80v68h105q39 0 63.5 -20t24.5 -55q0 -33 -18 -55l-39 -51h-89z" />
    <glyph glyph-name="uni1ECA" unicode="&#x1eca;" 
d="M101 0v90h149v550h-149v90h398v-90h-149v-550h149v-90h-398zM300 -216q-34 0 -54 17.5t-20 47.5q0 31 20 49t54 18t54 -18t20 -49q0 -30 -20 -47.5t-54 -17.5z" />
    <glyph glyph-name="uni1ECB" unicode="&#x1ecb;" 
d="M83 0v90h193v370h-173v90h272v-460h181v-90h-473zM316 647q-34 0 -54 17.5t-20 47.5q0 31 20 49t54 18t54 -18t20 -49q0 -30 -20 -47.5t-54 -17.5zM316 -216q-34 0 -54 17.5t-20 47.5q0 31 20 49t54 18t54 -18t20 -49q0 -30 -20 -47.5t-54 -17.5z" />
    <glyph glyph-name="uni1ECC" unicode="&#x1ecc;" 
d="M300 -10q-100 0 -158 58t-58 164v307q0 105 58 163t158 58t158 -57.5t58 -163.5v-307q0 -106 -58 -164t-158 -58zM300 78q56 0 86.5 32t30.5 92v327q0 59 -30 91t-87 32t-87 -32t-30 -91v-327q0 -60 30.5 -92t86.5 -32zM300 -216q-34 0 -54 17.5t-20 47.5q0 31 20 49
t54 18t54 -18t20 -49q0 -30 -20 -47.5t-54 -17.5z" />
    <glyph glyph-name="uni1ECD" unicode="&#x1ecd;" 
d="M300 -8q-101 0 -160.5 58t-59.5 162v126q0 104 59.5 162t160.5 58t160.5 -58t59.5 -162v-126q0 -104 -59.5 -162t-160.5 -58zM300 79q56 0 88.5 31.5t32.5 92.5v144q0 61 -32.5 92.5t-88.5 31.5t-88.5 -31.5t-32.5 -92.5v-144q0 -61 32.5 -92.5t88.5 -31.5zM300 -216
q-34 0 -54 17.5t-20 47.5q0 31 20 49t54 18t54 -18t20 -49q0 -30 -20 -47.5t-54 -17.5z" />
    <glyph glyph-name="uni1ECE" unicode="&#x1ece;" 
d="M300 -10q-100 0 -158 58t-58 164v307q0 105 58 163t158 58t158 -57.5t58 -163.5v-307q0 -106 -58 -164t-158 -58zM300 78q56 0 86.5 32t30.5 92v327q0 59 -30 91t-87 32t-87 -32t-30 -91v-327q0 -60 30.5 -92t86.5 -32zM256 799l45 63q15 19 15 31q0 20 -32 20h-75v68h83
q48 0 76.5 -21t28.5 -56q0 -29 -17 -54l-35 -51h-89z" />
    <glyph glyph-name="uni1ECF" unicode="&#x1ecf;" 
d="M300 -8q-101 0 -160.5 58t-59.5 162v126q0 104 59.5 162t160.5 58t160.5 -58t59.5 -162v-126q0 -104 -59.5 -162t-160.5 -58zM300 79q56 0 88.5 31.5t32.5 92.5v144q0 61 -32.5 92.5t-88.5 31.5t-88.5 -31.5t-32.5 -92.5v-144q0 -61 32.5 -92.5t88.5 -31.5zM256 645
l50 62q14 19 14 32q0 19 -31 19h-80v68h105q39 0 63.5 -20t24.5 -55q0 -33 -18 -55l-39 -51h-89z" />
    <glyph glyph-name="uni1ED0" unicode="&#x1ed0;" 
d="M300 -10q-100 0 -158 58t-58 164v307q0 105 58 163t158 58t158 -57.5t58 -163.5v-307q0 -106 -58 -164t-158 -58zM300 78q56 0 86.5 32t30.5 92v327q0 59 -30 91t-87 32t-87 -32t-30 -91v-327q0 -60 30.5 -92t86.5 -32zM410 901l105 119h108l-110 -119h-103zM116 780
l138 140h92l139 -140h-107l-78 77l-79 -77h-105z" />
    <glyph glyph-name="uni1ED1" unicode="&#x1ed1;" 
d="M300 -8q-101 0 -160.5 58t-59.5 162v126q0 104 59.5 162t160.5 58t160.5 -58t59.5 -162v-126q0 -104 -59.5 -162t-160.5 -58zM300 79q56 0 88.5 31.5t32.5 92.5v144q0 61 -32.5 92.5t-88.5 31.5t-88.5 -31.5t-32.5 -92.5v-144q0 -61 32.5 -92.5t88.5 -31.5zM412 760
l115 140h107l-121 -140h-101zM116 645l138 140h92l139 -140h-107l-78 77l-79 -77h-105z" />
    <glyph glyph-name="uni1ED2" unicode="&#x1ed2;" 
d="M300 -10q-100 0 -158 58t-58 164v307q0 105 58 163t158 58t158 -57.5t58 -163.5v-307q0 -106 -58 -164t-158 -58zM300 78q56 0 86.5 32t30.5 92v327q0 59 -30 91t-87 32t-87 -32t-30 -91v-327q0 -60 30.5 -92t86.5 -32zM447 901l-120 119h107l114 -119h-101zM116 780
l138 140h92l139 -140h-107l-78 77l-79 -77h-105z" />
    <glyph glyph-name="uni1ED3" unicode="&#x1ed3;" 
d="M300 -8q-101 0 -160.5 58t-59.5 162v126q0 104 59.5 162t160.5 58t160.5 -58t59.5 -162v-126q0 -104 -59.5 -162t-160.5 -58zM300 79q56 0 88.5 31.5t32.5 92.5v144q0 61 -32.5 92.5t-88.5 31.5t-88.5 -31.5t-32.5 -92.5v-144q0 -61 32.5 -92.5t88.5 -31.5zM454 760
l-130 140h107l124 -140h-101zM116 645l138 140h92l139 -140h-107l-78 77l-79 -77h-105z" />
    <glyph glyph-name="uni1ED4" unicode="&#x1ed4;" 
d="M300 -10q-100 0 -158 58t-58 164v307q0 105 58 163t158 58t158 -57.5t58 -163.5v-307q0 -106 -58 -164t-158 -58zM300 78q56 0 86.5 32t30.5 92v327q0 59 -30 91t-87 32t-87 -32t-30 -91v-327q0 -60 30.5 -92t86.5 -32zM423 879l46 45q8 8 8 19q0 16 -16 16h-67v61h87
q34 0 54.5 -17.5t20.5 -47.5q0 -28 -17 -45l-33 -31h-83zM116 780l138 140h92l139 -140h-107l-78 77l-79 -77h-105z" />
    <glyph glyph-name="uni1ED5" unicode="&#x1ed5;" 
d="M300 -8q-101 0 -160.5 58t-59.5 162v126q0 104 59.5 162t160.5 58t160.5 -58t59.5 -162v-126q0 -104 -59.5 -162t-160.5 -58zM300 79q56 0 88.5 31.5t32.5 92.5v144q0 61 -32.5 92.5t-88.5 31.5t-88.5 -31.5t-32.5 -92.5v-144q0 -61 32.5 -92.5t88.5 -31.5zM423 760
l46 61q10 14 10 24q0 24 -32 24h-54v64h62q46 0 73.5 -21t27.5 -56q0 -23 -18 -47l-35 -49h-80zM116 645l138 140h92l139 -140h-107l-78 77l-79 -77h-105z" />
    <glyph glyph-name="uni1ED6" unicode="&#x1ed6;" 
d="M300 -10q-100 0 -158 58t-58 164v307q0 105 58 163t158 58t158 -57.5t58 -163.5v-307q0 -106 -58 -164t-158 -58zM300 78q56 0 86.5 32t30.5 92v327q0 59 -30 91t-87 32t-87 -32t-30 -91v-327q0 -60 30.5 -92t86.5 -32zM377 919q-41 0 -65 11t-42 22.5t-40 11.5
q-13 0 -21 -8t-8 -22v-6h-68v6q0 40 24.5 63t66.5 23q32 0 52.5 -7t35.5 -16t28 -15.5t30 -6.5q13 0 21 8t8 21v7h68v-7q0 -39 -24 -62t-66 -23zM116 780l113 109h142l113 -109h-106l-78 73l-79 -73h-105z" />
    <glyph glyph-name="uni1ED7" unicode="&#x1ed7;" 
d="M300 -8q-101 0 -160.5 58t-59.5 162v126q0 104 59.5 162t160.5 58t160.5 -58t59.5 -162v-126q0 -104 -59.5 -162t-160.5 -58zM300 79q56 0 88.5 31.5t32.5 92.5v144q0 61 -32.5 92.5t-88.5 31.5t-88.5 -31.5t-32.5 -92.5v-144q0 -61 32.5 -92.5t88.5 -31.5zM367 814
q-32 0 -50.5 9.5t-30.5 22t-23 22t-28 9.5q-30 0 -30 -31v-24h-68v20q0 42 26.5 67t69.5 25q32 0 51 -9.5t30.5 -21.5t22.5 -21.5t28 -9.5q30 0 30 30v25h68v-21q0 -41 -26.5 -66.5t-69.5 -25.5zM116 645l138 140h92l139 -140h-107l-78 77l-79 -77h-105z" />
    <glyph glyph-name="uni1ED8" unicode="&#x1ed8;" 
d="M300 -10q-100 0 -158 58t-58 164v307q0 105 58 163t158 58t158 -57.5t58 -163.5v-307q0 -106 -58 -164t-158 -58zM300 78q56 0 86.5 32t30.5 92v327q0 59 -30 91t-87 32t-87 -32t-30 -91v-327q0 -60 30.5 -92t86.5 -32zM300 -216q-34 0 -54 17.5t-20 47.5q0 31 20 49
t54 18t54 -18t20 -49q0 -30 -20 -47.5t-54 -17.5zM115 810l139 140h91l140 -140h-105l-80 77l-78 -77h-107z" />
    <glyph glyph-name="uni1ED9" unicode="&#x1ed9;" 
d="M300 -8q-101 0 -160.5 58t-59.5 162v126q0 104 59.5 162t160.5 58t160.5 -58t59.5 -162v-126q0 -104 -59.5 -162t-160.5 -58zM300 79q56 0 88.5 31.5t32.5 92.5v144q0 61 -32.5 92.5t-88.5 31.5t-88.5 -31.5t-32.5 -92.5v-144q0 -61 32.5 -92.5t88.5 -31.5zM300 -216
q-34 0 -54 17.5t-20 47.5q0 31 20 49t54 18t54 -18t20 -49q0 -30 -20 -47.5t-54 -17.5zM115 645l139 140h91l140 -140h-105l-80 77l-78 -77h-107z" />
    <glyph glyph-name="uni1EDA" unicode="&#x1eda;" 
d="M300 -10q-100 0 -158 58t-58 164v307q0 105 58 163t158 58q81 0 135 -38q22 7 22 33v75h81v-79q0 -62 -50 -88q28 -51 28 -124v-307q0 -106 -58 -164t-158 -58zM300 78q56 0 86.5 32t30.5 92v327q0 59 -30 91t-87 32t-87 -32t-30 -91v-327q0 -60 30.5 -92t86.5 -32z
M228 810l105 140h107l-112 -140h-100z" />
    <glyph glyph-name="uni1EDB" unicode="&#x1edb;" 
d="M300 -8q-101 0 -160.5 58t-59.5 162v126q0 104 59.5 162t160.5 58q70 0 121 -28h8q35 0 35 35v75h82v-79q0 -33 -16 -57t-44 -35q34 -53 34 -131v-126q0 -104 -59.5 -162t-160.5 -58zM300 79q56 0 88.5 31.5t32.5 92.5v144q0 61 -32.5 92.5t-88.5 31.5t-88.5 -31.5
t-32.5 -92.5v-144q0 -61 32.5 -92.5t88.5 -31.5zM228 645l105 140h107l-112 -140h-100z" />
    <glyph glyph-name="uni1EDC" unicode="&#x1edc;" 
d="M300 -10q-100 0 -158 58t-58 164v307q0 105 58 163t158 58q81 0 135 -38q22 7 22 33v75h81v-79q0 -62 -50 -88q28 -51 28 -124v-307q0 -106 -58 -164t-158 -58zM300 78q56 0 86.5 32t30.5 92v327q0 59 -30 91t-87 32t-87 -32t-30 -91v-327q0 -60 30.5 -92t86.5 -32z
M253 810l-116 140h110l109 -140h-103z" />
    <glyph glyph-name="uni1EDD" unicode="&#x1edd;" 
d="M300 -8q-101 0 -160.5 58t-59.5 162v126q0 104 59.5 162t160.5 58q70 0 121 -28h8q35 0 35 35v75h82v-79q0 -33 -16 -57t-44 -35q34 -53 34 -131v-126q0 -104 -59.5 -162t-160.5 -58zM300 79q56 0 88.5 31.5t32.5 92.5v144q0 61 -32.5 92.5t-88.5 31.5t-88.5 -31.5
t-32.5 -92.5v-144q0 -61 32.5 -92.5t88.5 -31.5zM253 645l-116 140h110l109 -140h-103z" />
    <glyph glyph-name="uni1EDE" unicode="&#x1ede;" 
d="M300 -10q-100 0 -158 58t-58 164v307q0 105 58 163t158 58q81 0 135 -38q22 7 22 33v75h81v-79q0 -62 -50 -88q28 -51 28 -124v-307q0 -106 -58 -164t-158 -58zM300 78q56 0 86.5 32t30.5 92v327q0 59 -30 91t-87 32t-87 -32t-30 -91v-327q0 -60 30.5 -92t86.5 -32z
M246 799l45 63q15 19 15 31q0 20 -32 20h-75v68h83q48 0 76.5 -21t28.5 -56q0 -29 -17 -54l-35 -51h-89z" />
    <glyph glyph-name="uni1EDF" unicode="&#x1edf;" 
d="M300 -8q-101 0 -160.5 58t-59.5 162v126q0 104 59.5 162t160.5 58q70 0 121 -28h8q35 0 35 35v75h82v-79q0 -33 -16 -57t-44 -35q34 -53 34 -131v-126q0 -104 -59.5 -162t-160.5 -58zM300 79q56 0 88.5 31.5t32.5 92.5v144q0 61 -32.5 92.5t-88.5 31.5t-88.5 -31.5
t-32.5 -92.5v-144q0 -61 32.5 -92.5t88.5 -31.5zM246 645l50 62q14 19 14 32q0 19 -31 19h-80v68h105q39 0 63.5 -20t24.5 -55q0 -33 -18 -55l-39 -51h-89z" />
    <glyph glyph-name="uni1EE0" unicode="&#x1ee0;" 
d="M300 -10q-100 0 -158 58t-58 164v307q0 105 58 163t158 58q81 0 135 -38q22 7 22 33v75h81v-79q0 -62 -50 -88q28 -51 28 -124v-307q0 -106 -58 -164t-158 -58zM300 78q56 0 86.5 32t30.5 92v327q0 59 -30 91t-87 32t-87 -32t-30 -91v-327q0 -60 30.5 -92t86.5 -32z
M360 813q-30 0 -49 10t-32 24t-25 24t-29 10q-30 0 -30 -34v-29h-68v31q0 46 25.5 72t67.5 26q30 0 49 -10t32 -24t25 -24t29 -10q30 0 30 34v29h68v-30q0 -47 -25.5 -73t-67.5 -26z" />
    <glyph glyph-name="uni1EE1" unicode="&#x1ee1;" 
d="M300 -8q-101 0 -160.5 58t-59.5 162v126q0 104 59.5 162t160.5 58q70 0 121 -28h8q35 0 35 35v75h82v-79q0 -33 -16 -57t-44 -35q34 -53 34 -131v-126q0 -104 -59.5 -162t-160.5 -58zM300 79q56 0 88.5 31.5t32.5 92.5v144q0 61 -32.5 92.5t-88.5 31.5t-88.5 -31.5
t-32.5 -92.5v-144q0 -61 32.5 -92.5t88.5 -31.5zM360 648q-30 0 -49 10t-32 24t-25 24t-29 10q-30 0 -30 -34v-29h-68v31q0 46 25.5 72t67.5 26q30 0 49 -10t32 -24t25 -24t29 -10q30 0 30 34v29h68v-30q0 -47 -25.5 -73t-67.5 -26z" />
    <glyph glyph-name="uni1EE2" unicode="&#x1ee2;" 
d="M300 -10q-100 0 -158 58t-58 164v307q0 105 58 163t158 58q81 0 135 -38q22 7 22 33v75h81v-79q0 -62 -50 -88q28 -51 28 -124v-307q0 -106 -58 -164t-158 -58zM300 78q56 0 86.5 32t30.5 92v327q0 59 -30 91t-87 32t-87 -32t-30 -91v-327q0 -60 30.5 -92t86.5 -32z
M300 -216q-34 0 -54 17.5t-20 47.5q0 31 20 49t54 18t54 -18t20 -49q0 -30 -20 -47.5t-54 -17.5z" />
    <glyph glyph-name="uni1EE3" unicode="&#x1ee3;" 
d="M300 -8q-101 0 -160.5 58t-59.5 162v126q0 104 59.5 162t160.5 58q70 0 121 -28h8q35 0 35 35v75h82v-79q0 -33 -16 -57t-44 -35q34 -53 34 -131v-126q0 -104 -59.5 -162t-160.5 -58zM300 79q56 0 88.5 31.5t32.5 92.5v144q0 61 -32.5 92.5t-88.5 31.5t-88.5 -31.5
t-32.5 -92.5v-144q0 -61 32.5 -92.5t88.5 -31.5zM300 -216q-34 0 -54 17.5t-20 47.5q0 31 20 49t54 18t54 -18t20 -49q0 -30 -20 -47.5t-54 -17.5z" />
    <glyph glyph-name="uni1EE4" unicode="&#x1ee4;" 
d="M300 -10q-103 0 -158.5 57t-55.5 155v528h99v-528q0 -58 28.5 -91t86.5 -33q57 0 86.5 33t29.5 91v528h99v-528q0 -99 -55.5 -155.5t-159.5 -56.5zM300 -216q-34 0 -54 17.5t-20 47.5q0 31 20 49t54 18t54 -18t20 -49q0 -30 -20 -47.5t-54 -17.5z" />
    <glyph glyph-name="uni1EE5" unicode="&#x1ee5;" 
d="M299 -10q-97 0 -155 57t-58 155v348h99v-348q0 -58 30.5 -91.5t83.5 -33.5q54 0 85 33.5t31 91.5v348h99v-348q0 -98 -58.5 -155t-156.5 -57zM300 -216q-34 0 -54 17.5t-20 47.5q0 31 20 49t54 18t54 -18t20 -49q0 -30 -20 -47.5t-54 -17.5z" />
    <glyph glyph-name="uni1EE6" unicode="&#x1ee6;" 
d="M300 -10q-103 0 -158.5 57t-55.5 155v528h99v-528q0 -58 28.5 -91t86.5 -33q57 0 86.5 33t29.5 91v528h99v-528q0 -99 -55.5 -155.5t-159.5 -56.5zM256 799l45 63q15 19 15 31q0 20 -32 20h-75v68h83q48 0 76.5 -21t28.5 -56q0 -29 -17 -54l-35 -51h-89z" />
    <glyph glyph-name="uni1EE7" unicode="&#x1ee7;" 
d="M299 -10q-97 0 -155 57t-58 155v348h99v-348q0 -58 30.5 -91.5t83.5 -33.5q54 0 85 33.5t31 91.5v348h99v-348q0 -98 -58.5 -155t-156.5 -57zM256 645l50 62q14 19 14 32q0 19 -31 19h-80v68h105q39 0 63.5 -20t24.5 -55q0 -33 -18 -55l-39 -51h-89z" />
    <glyph glyph-name="uni1EE8" unicode="&#x1ee8;" 
d="M300 -10q-103 0 -158.5 57t-55.5 155v528h99v-528q0 -58 28.5 -91t86.5 -33q57 0 86.5 33t29.5 91v528h71q16 0 25.5 9.5t9.5 25.5v75h81v-79q0 -41 -23.5 -67.5t-64.5 -32.5v-459q0 -99 -55.5 -155.5t-159.5 -56.5zM238 810l105 140h107l-112 -140h-100z" />
    <glyph glyph-name="uni1EE9" unicode="&#x1ee9;" 
d="M86 201v349h99v-349q0 -59 29.5 -91.5t81.5 -32.5q53 0 83 32.5t30 91.5v349h80q35 0 35 35v75h81v-79q0 -46 -23.5 -73.5t-73.5 -27.5v-279q0 -97 -58 -154t-154 -57t-153 57t-57 154zM235 645l105 140h107l-112 -140h-100z" />
    <glyph glyph-name="uni1EEA" unicode="&#x1eea;" 
d="M300 -10q-103 0 -158.5 57t-55.5 155v528h99v-528q0 -58 28.5 -91t86.5 -33q57 0 86.5 33t29.5 91v528h71q16 0 25.5 9.5t9.5 25.5v75h81v-79q0 -41 -23.5 -67.5t-64.5 -32.5v-459q0 -99 -55.5 -155.5t-159.5 -56.5zM263 810l-116 140h110l109 -140h-103z" />
    <glyph glyph-name="uni1EEB" unicode="&#x1eeb;" 
d="M86 201v349h99v-349q0 -59 29.5 -91.5t81.5 -32.5q53 0 83 32.5t30 91.5v349h80q35 0 35 35v75h81v-79q0 -46 -23.5 -73.5t-73.5 -27.5v-279q0 -97 -58 -154t-154 -57t-153 57t-57 154zM260 645l-116 140h110l109 -140h-103z" />
    <glyph glyph-name="uni1EEC" unicode="&#x1eec;" 
d="M300 -10q-103 0 -158.5 57t-55.5 155v528h99v-528q0 -58 28.5 -91t86.5 -33q57 0 86.5 33t29.5 91v528h71q16 0 25.5 9.5t9.5 25.5v75h81v-79q0 -41 -23.5 -67.5t-64.5 -32.5v-459q0 -99 -55.5 -155.5t-159.5 -56.5zM256 799l45 63q15 19 15 31q0 20 -32 20h-75v68h83
q48 0 76.5 -21t28.5 -56q0 -29 -17 -54l-35 -51h-89z" />
    <glyph glyph-name="uni1EED" unicode="&#x1eed;" 
d="M86 201v349h99v-349q0 -59 29.5 -91.5t81.5 -32.5q53 0 83 32.5t30 91.5v349h80q35 0 35 35v75h81v-79q0 -46 -23.5 -73.5t-73.5 -27.5v-279q0 -97 -58 -154t-154 -57t-153 57t-57 154zM253 645l50 62q14 19 14 32q0 19 -31 19h-80v68h105q39 0 63.5 -20t24.5 -55
q0 -33 -18 -55l-39 -51h-89z" />
    <glyph glyph-name="uni1EEE" unicode="&#x1eee;" 
d="M300 -10q-103 0 -158.5 57t-55.5 155v528h99v-528q0 -58 28.5 -91t86.5 -33q57 0 86.5 33t29.5 91v528h71q16 0 25.5 9.5t9.5 25.5v75h81v-79q0 -41 -23.5 -67.5t-64.5 -32.5v-459q0 -99 -55.5 -155.5t-159.5 -56.5zM370 813q-30 0 -49 10t-32 24t-25 24t-29 10
q-30 0 -30 -34v-29h-68v31q0 46 25.5 72t67.5 26q30 0 49 -10t32 -24t25 -24t29 -10q30 0 30 34v29h68v-30q0 -47 -25.5 -73t-67.5 -26z" />
    <glyph glyph-name="uni1EEF" unicode="&#x1eef;" 
d="M86 201v349h99v-349q0 -59 29.5 -91.5t81.5 -32.5q53 0 83 32.5t30 91.5v349h80q35 0 35 35v75h81v-79q0 -46 -23.5 -73.5t-73.5 -27.5v-279q0 -97 -58 -154t-154 -57t-153 57t-57 154zM367 648q-30 0 -49 10t-32 24t-25 24t-29 10q-30 0 -30 -34v-29h-68v31
q0 46 25.5 72t67.5 26q30 0 49 -10t32 -24t25 -24t29 -10q30 0 30 34v29h68v-30q0 -47 -25.5 -73t-67.5 -26z" />
    <glyph glyph-name="uni1EF0" unicode="&#x1ef0;" 
d="M300 -10q-103 0 -158.5 57t-55.5 155v528h99v-528q0 -58 28.5 -91t86.5 -33q57 0 86.5 33t29.5 91v528h71q16 0 25.5 9.5t9.5 25.5v75h81v-79q0 -41 -23.5 -67.5t-64.5 -32.5v-459q0 -99 -55.5 -155.5t-159.5 -56.5zM300 -216q-34 0 -54 17.5t-20 47.5q0 31 20 49t54 18
t54 -18t20 -49q0 -30 -20 -47.5t-54 -17.5z" />
    <glyph glyph-name="uni1EF1" unicode="&#x1ef1;" 
d="M86 201v349h99v-349q0 -59 29.5 -91.5t81.5 -32.5q53 0 83 32.5t30 91.5v349h80q35 0 35 35v75h81v-79q0 -46 -23.5 -73.5t-73.5 -27.5v-279q0 -97 -58 -154t-154 -57t-153 57t-57 154zM296 -216q-34 0 -54 17.5t-20 47.5q0 31 20 49t54 18t54 -18t20 -49
q0 -30 -20 -47.5t-54 -17.5z" />
    <glyph glyph-name="Ygrave" unicode="&#x1ef2;" 
d="M251 0v271l-219 459h105l135 -288q12 -26 19.5 -47t9.5 -30q3 9 10.5 30t20.5 47l134 288h102l-218 -459v-271h-99zM263 810l-116 140h110l109 -140h-103z" />
    <glyph glyph-name="ygrave" unicode="&#x1ef3;" 
d="M175 -180l80 213l-205 517h105l124 -325q8 -21 16 -45t11 -42q3 18 10 42t15 45l115 325h105l-273 -730h-103zM263 645l-116 140h110l109 -140h-103z" />
    <glyph glyph-name="uni1EF4" unicode="&#x1ef4;" 
d="M251 0v271l-219 459h105l135 -288q12 -26 19.5 -47t9.5 -30q3 9 10.5 30t20.5 47l134 288h102l-218 -459v-271h-99zM300 -216q-34 0 -54 17.5t-20 47.5q0 31 20 49t54 18t54 -18t20 -49q0 -30 -20 -47.5t-54 -17.5z" />
    <glyph glyph-name="uni1EF5" unicode="&#x1ef5;" 
d="M175 -180l80 213l-205 517h105l124 -325q8 -21 16 -45t11 -42q3 18 10 42t15 45l115 325h105l-273 -730h-103zM466 -216q-34 0 -54 17.5t-20 47.5q0 31 20 49t54 18t54 -18t20 -49q0 -30 -20 -47.5t-54 -17.5z" />
    <glyph glyph-name="uni1EF6" unicode="&#x1ef6;" 
d="M251 0v271l-219 459h105l135 -288q12 -26 19.5 -47t9.5 -30q3 9 10.5 30t20.5 47l134 288h102l-218 -459v-271h-99zM256 799l45 63q15 19 15 31q0 20 -32 20h-75v68h83q48 0 76.5 -21t28.5 -56q0 -29 -17 -54l-35 -51h-89z" />
    <glyph glyph-name="uni1EF7" unicode="&#x1ef7;" 
d="M175 -180l80 213l-205 517h105l124 -325q8 -21 16 -45t11 -42q3 18 10 42t15 45l115 325h105l-273 -730h-103zM256 645l50 62q14 19 14 32q0 19 -31 19h-80v68h105q39 0 63.5 -20t24.5 -55q0 -33 -18 -55l-39 -51h-89z" />
    <glyph glyph-name="uni1EF8" unicode="&#x1ef8;" 
d="M251 0v271l-219 459h105l135 -288q12 -26 19.5 -47t9.5 -30q3 9 10.5 30t20.5 47l134 288h102l-218 -459v-271h-99zM370 813q-30 0 -49 10t-32 24t-25 24t-29 10q-30 0 -30 -34v-29h-68v31q0 46 25.5 72t67.5 26q30 0 49 -10t32 -24t25 -24t29 -10q30 0 30 34v29h68v-30
q0 -47 -25.5 -73t-67.5 -26z" />
    <glyph glyph-name="uni1EF9" unicode="&#x1ef9;" 
d="M175 -180l80 213l-205 517h105l124 -325q8 -21 16 -45t11 -42q3 18 10 42t15 45l115 325h105l-273 -730h-103zM370 648q-30 0 -49 10t-32 24t-25 24t-29 10q-30 0 -30 -34v-29h-68v31q0 46 25.5 72t67.5 26q30 0 49 -10t32 -24t25 -24t29 -10q30 0 30 34v29h68v-30
q0 -47 -25.5 -73t-67.5 -26z" />
    <glyph glyph-name="EMquad" unicode="&#x2001;" 
 />
    <glyph glyph-name="ZEROWIDTHSPACE" unicode="&#x200b;" 
 />
    <glyph glyph-name="uni2010" unicode="&#x2010;" 
d="M140 286v89h320v-89h-320z" />
    <glyph glyph-name="endash" unicode="&#x2013;" 
d="M79 286v89h442v-89h-442z" />
    <glyph glyph-name="emdash" unicode="&#x2014;" 
d="M0 286v89h600v-89h-600z" />
    <glyph glyph-name="uni2016" unicode="&#x2016;" 
d="M119 -110v940h99v-940h-99zM382 -110v940h99v-940h-99z" />
    <glyph glyph-name="quoteleft" unicode="&#x2018;" 
d="M383 730l-55 -123q-9 -19 -14 -40.5t-5 -36.5q0 -29 14 -57.5t40 -47.5h-109q-22 20 -35 48.5t-13 56.5q0 21 7 48.5t18 52.5l45 99h107z" />
    <glyph glyph-name="quoteright" unicode="&#x2019;" 
d="M217 425l55 123q9 19 14 40.5t5 36.5q0 29 -14 57.5t-39 47.5h108q22 -20 35 -48.5t13 -56.5q0 -21 -7 -48.5t-18 -52.5l-45 -99h-107z" />
    <glyph glyph-name="quotesinglbase" unicode="&#x201a;" 
d="M217 -160l55 123q9 19 14 40.5t5 36.5q0 29 -14 57.5t-39 47.5h108q22 -20 35 -48.5t13 -56.5q0 -21 -7 -48.5t-18 -52.5l-45 -99h-107z" />
    <glyph glyph-name="quotereversed" unicode="&#x201b;" 
d="M383 425h-107l-45 99q-11 25 -18 52.5t-7 48.5q0 28 13 56.5t35 48.5h109q-26 -19 -40 -47.5t-14 -57.5q0 -15 5 -36.5t14 -40.5z" />
    <glyph glyph-name="quotedblleft" unicode="&#x201c;" 
d="M498 730l-56 -123q-9 -19 -14 -40.5t-5 -36.5q0 -29 14.5 -57.5t39.5 -47.5h-108q-23 20 -35.5 48.5t-12.5 56.5q0 21 7 48.5t18 52.5l44 99h108zM277 730l-56 -123q-9 -19 -14 -40.5t-5 -36.5q0 -29 14.5 -57.5t39.5 -47.5h-108q-23 20 -35.5 48.5t-12.5 56.5
q0 21 7 48.5t18 52.5l44 99h108z" />
    <glyph glyph-name="quotedblright" unicode="&#x201d;" 
d="M100 431l55 123q9 19 14 40.5t5 36.5q0 29 -14 57.5t-39 47.5h108q22 -20 35 -48.5t13 -56.5q0 -21 -7 -48.5t-18 -52.5l-45 -99h-107zM324 431l55 123q9 19 14 40.5t5 36.5q0 29 -14 57.5t-39 47.5h108q22 -20 35 -48.5t13 -56.5q0 -21 -7 -48.5t-18 -52.5l-45 -99h-107
z" />
    <glyph glyph-name="quotedblbase" unicode="&#x201e;" 
d="M100 -160l55 123q9 19 14 40.5t5 36.5q0 29 -14 57.5t-39 47.5h108q22 -20 35 -48.5t13 -56.5q0 -21 -7 -48.5t-18 -52.5l-45 -99h-107zM344 -160l55 123q9 19 14 40.5t5 36.5q0 29 -14 57.5t-39 47.5h108q22 -20 35 -48.5t13 -56.5q0 -21 -7 -48.5t-18 -52.5l-45 -99
h-107z" />
    <glyph glyph-name="uni201F" unicode="&#x201f;" 
d="M500 425h-107l-45 99q-11 25 -18 52.5t-7 48.5q0 28 13 56.5t35 48.5h108q-25 -19 -39 -47.5t-14 -57.5q0 -15 5 -36.5t14 -40.5zM277 425h-108l-44 99q-11 25 -18 52.5t-7 48.5q0 28 12.5 56.5t35.5 48.5h108q-25 -19 -39.5 -47.5t-14.5 -57.5q0 -15 5 -36.5t14 -40.5z
" />
    <glyph glyph-name="dagger" unicode="&#x2020;" 
d="M251 -110v624h-172v89h172v227h99v-227h172v-89h-172v-624h-99z" />
    <glyph glyph-name="daggerdbl" unicode="&#x2021;" 
d="M251 -110v246h-172v89h172v281h-172v89h172v235h99v-235h172v-89h-172v-281h172v-89h-172v-246h-99z" />
    <glyph glyph-name="bullet" unicode="&#x2022;" 
d="M300 243q-54 0 -88 34t-34 88t34 88t88 34t88 -34t34 -88t-34 -88t-88 -34z" />
    <glyph glyph-name="onedotenleader" unicode="&#x2024;" 
d="M300 -10q-38 0 -61.5 23t-23.5 59q0 38 23.5 62t61.5 24t61.5 -24t23.5 -62q0 -36 -23.5 -59t-61.5 -23z" />
    <glyph glyph-name="ellipsis" unicode="&#x2026;" 
d="M490 -10q-24 0 -38 15.5t-14 41.5v68q0 25 14 41t38 16q23 0 37.5 -16t14.5 -41v-68q0 -26 -14.5 -41.5t-37.5 -15.5zM110 -10q-24 0 -38 15.5t-14 41.5v68q0 25 14 41t38 16q23 0 37.5 -16t14.5 -41v-68q0 -26 -14.5 -41.5t-37.5 -15.5zM300 -10q-24 0 -38 15.5
t-14 41.5v68q0 25 14 41t38 16q23 0 37.5 -16t14.5 -41v-68q0 -26 -14.5 -41.5t-37.5 -15.5z" />
    <glyph glyph-name="perthousand" unicode="&#x2030;" 
d="M125 440q-55 0 -87.5 31t-33.5 84v65q0 53 32 84t88 31q55 0 88 -31t34 -84v-65q0 -53 -32.5 -84t-88.5 -31zM-7 0l439 730h70l-439 -730h-70zM125 501q26 0 40.5 14.5t14.5 39.5v65q0 25 -15 40t-40 15q-26 0 -40.5 -15t-14.5 -40v-65q0 -25 15 -39.5t40 -14.5zM345 -5
q-50 0 -79 32t-29 87v57q0 55 29 87t79 32q37 0 60.5 -18.5t25.5 -50.5q4 32 27.5 50.5t60.5 18.5q49 0 78 -32t30 -87v-57q0 -55 -29 -87t-79 -32q-38 0 -61.5 18.5t-25.5 50.5q-4 -32 -27.5 -50.5t-59.5 -18.5zM351 50q22 0 35.5 17t13.5 46v58q0 29 -13.5 46.5
t-35.5 17.5q-23 0 -36.5 -17t-12.5 -47v-58q-1 -29 12.5 -46t36.5 -17zM513 50q22 0 35.5 17t13.5 46v58q0 29 -13.5 46.5t-35.5 17.5q-23 0 -36.5 -17.5t-12.5 -46.5v-58q-1 -29 12.5 -46t36.5 -17z" />
    <glyph glyph-name="minute" unicode="&#x2032;" 
d="M205 419l54 306h117l-71 -306h-100z" />
    <glyph glyph-name="second" unicode="&#x2033;" 
d="M100 420l54 306h117l-71 -306h-100zM329 420l54 306h117l-71 -306h-100z" />
    <glyph glyph-name="uni2034" unicode="&#x2034;" 
d="M16 419l54 306h117l-71 -306h-100zM215 419l54 306h117l-71 -306h-100zM413 419l54 306h117l-71 -306h-100z" />
    <glyph glyph-name="guilsinglleft" unicode="&#x2039;" 
d="M343 40l-198 240l198 240h109l-199 -238l203 -242h-113z" />
    <glyph glyph-name="guilsinglright" unicode="&#x203a;" 
d="M149 40l199 238l-203 242h113l198 -240l-198 -240h-109z" />
    <glyph glyph-name="exclamdbl" unicode="&#x203c;" 
d="M135 218l-13 512h114l-13 -512h-88zM164 -5q-27 0 -44.5 17t-17.5 45q0 27 17.5 44t44.5 17h30q29 0 45.5 -17t16.5 -44t-17.5 -44.5t-44.5 -17.5h-30zM378 218l-13 512h114l-13 -512h-88zM407 -5q-27 0 -44.5 17t-17.5 45q0 27 17.5 44t44.5 17h30q29 0 45.5 -17
t16.5 -44t-17.5 -44.5t-44.5 -17.5h-30z" />
    <glyph glyph-name="uni203D" unicode="&#x203d;" 
d="M218 208l-12 245v93h95v-93l-3 -57q46 9 72 40.5t26 79.5q0 56 -35.5 89t-96.5 33h-133v92h130q71 0 123 -26.5t81 -74.5t29 -114q0 -88 -54 -143t-146 -62l-5 -102h-71zM238 -5q-27 0 -44.5 17t-17.5 45q0 27 17.5 44t44.5 17h30q30 0 46.5 -17t16.5 -44t-17.5 -44.5
t-45.5 -17.5h-30z" />
    <glyph glyph-name="uni203E" unicode="&#x203e;" 
d="M-10 741v89h620v-89h-620z" />
    <glyph glyph-name="uni203F" unicode="&#x203f;" 
d="M179 -180q-78 0 -124 48.5t-46 131.5h99q0 -43 22.5 -69t61.5 -26h216q39 0 62 26t23 69h99q0 -83 -46 -131.5t-124 -48.5h-243z" />
    <glyph glyph-name="fraction" unicode="&#x2044;" 
d="M3 0l504 730h90l-504 -730h-90z" />
    <glyph glyph-name="uni2045" unicode="&#x2045;" 
d="M200 -110v940h254v-89h-155v-321h155v-89h-155v-352h151v-89h-250z" />
    <glyph glyph-name="uni2046" unicode="&#x2046;" 
d="M400 -110h-249v89h150v352h-155v89h155v321h-155v89h254v-940z" />
    <glyph glyph-name="uni2070" unicode="&#x2070;" 
d="M300 377q-74 0 -119.5 45.5t-45.5 118.5v131q0 72 45.5 117.5t119.5 45.5t119.5 -45.5t45.5 -117.5v-131q0 -73 -45.5 -118.5t-119.5 -45.5zM300 444q40 0 65 27t25 70v131q0 42 -25 69t-65 27t-65 -27t-25 -69v-131q0 -43 25 -70t65 -27z" />
    <glyph glyph-name="uni2074" unicode="&#x2074;" 
d="M372 382v103h-230v97l172 248h84l-182 -264v-13h156v111h75v-282h-75z" />
    <glyph glyph-name="uni2075" unicode="&#x2075;" 
d="M303 377q-74 0 -119 39.5t-45 107.5h74q0 -38 24.5 -59t65.5 -21q39 0 62.5 23t23.5 59t-23.5 58.5t-62.5 22.5h-141v223h286v-66h-215v-94h70q75 0 118.5 -39t43.5 -105t-44.5 -107.5t-117.5 -41.5z" />
    <glyph glyph-name="uni2076" unicode="&#x2076;" 
d="M301 377q-76 0 -122.5 42.5t-46.5 109.5q0 50 36 106l127 195h80l-128 -196h5q26 36 75 36q63 0 102 -39t39 -102q0 -67 -46.5 -109.5t-120.5 -42.5zM300 444q41 0 67 23.5t26 61.5t-26 61.5t-67 23.5t-66.5 -23.5t-25.5 -61.5t25.5 -61.5t66.5 -23.5z" />
    <glyph glyph-name="uni2077" unicode="&#x2077;" 
d="M213 382l177 380h-170v-77h-74v145h318v-79l-168 -369h-83z" />
    <glyph glyph-name="uni2078" unicode="&#x2078;" 
d="M300 377q-74 0 -120.5 36.5t-46.5 94.5q0 46 28.5 76.5t75.5 34.5v4q-42 8 -67.5 33.5t-25.5 60.5q0 53 43 85.5t113 32.5q71 0 114.5 -32.5t43.5 -85.5q0 -35 -26 -60.5t-70 -33.5v-4q47 -4 76 -34.5t29 -76.5q0 -58 -46.5 -94.5t-120.5 -36.5zM300 645q38 0 61.5 17.5
t23.5 46.5q0 28 -23.5 46t-61.5 18t-60.5 -18t-22.5 -46q0 -29 22.5 -46.5t60.5 -17.5zM300 440q41 0 67.5 20t26.5 53q0 32 -26.5 52t-67.5 20t-67.5 -20t-26.5 -52q0 -33 26.5 -53t67.5 -20z" />
    <glyph glyph-name="uni2079" unicode="&#x2079;" 
d="M228 382l125 196h-4q-11 -16 -29.5 -26t-46.5 -10q-62 0 -99 39.5t-37 101.5q0 68 44.5 110t117.5 42q74 0 119 -42t45 -110q0 -31 -11 -61t-32 -63l-111 -177h-81zM300 598q38 0 63 23.5t25 61.5t-23.5 61.5t-64.5 23.5t-64.5 -23.5t-23.5 -61.5t23.5 -61.5t64.5 -23.5z
" />
    <glyph glyph-name="uni207A" unicode="&#x207a;" 
d="M260 305v105h-100v70h100v105h80v-105h100v-70h-100v-105h-80z" />
    <glyph glyph-name="uni207C" unicode="&#x207c;" 
d="M150 631v63h302v-63h-302zM150 462v63h302v-63h-302z" />
    <glyph glyph-name="uni2080" unicode="&#x2080;" 
d="M300 -138q-74 0 -119.5 45.5t-45.5 118.5v131q0 72 45.5 117.5t119.5 45.5t119.5 -45.5t45.5 -117.5v-131q0 -73 -45.5 -118.5t-119.5 -45.5zM300 -71q40 0 65 27t25 70v131q0 42 -25 69t-65 27t-65 -27t-25 -69v-131q0 -43 25 -70t65 -27z" />
    <glyph glyph-name="uni2081" unicode="&#x2081;" 
d="M149 -133v68h143v317l-140 -86v78l115 71h100v-380h114v-68h-332z" />
    <glyph glyph-name="uni2082" unicode="&#x2082;" 
d="M155 -133v80l182 155q20 16 32 34.5t12 40.5q0 34 -23 55t-57 21q-33 0 -56.5 -21.5t-23.5 -56.5h-75q2 43 23 75.5t55.5 51t76.5 18.5q45 0 80 -18t55.5 -49.5t20.5 -73.5q0 -36 -21.5 -68t-58.5 -62l-136 -114h217v-68h-303z" />
    <glyph glyph-name="uni2083" unicode="&#x2083;" 
d="M300 -138q-72 0 -117.5 41t-45.5 107h75q0 -35 24.5 -58t63.5 -23t63.5 23.5t24.5 59.5q0 35 -24.5 58t-62.5 23h-41v68l112 86h-213v68h289v-74l-114 -89q59 -8 94.5 -46t35.5 -94q0 -67 -45.5 -108.5t-118.5 -41.5z" />
    <glyph glyph-name="uni2084" unicode="&#x2084;" 
d="M372 -133v103h-230v97l172 248h84l-182 -264v-13h156v111h75v-282h-75z" />
    <glyph glyph-name="uni2085" unicode="&#x2085;" 
d="M303 -138q-74 0 -119 39.5t-45 107.5h74q0 -38 24.5 -59t65.5 -21q39 0 62.5 23t23.5 59t-23.5 58.5t-62.5 22.5h-141v223h286v-66h-215v-94h70q75 0 118.5 -39t43.5 -105t-44.5 -107.5t-117.5 -41.5z" />
    <glyph glyph-name="uni2086" unicode="&#x2086;" 
d="M301 -138q-76 0 -122.5 42.5t-46.5 109.5q0 50 36 106l127 195h80l-128 -196h5q26 36 75 36q63 0 102 -39t39 -102q0 -67 -46.5 -109.5t-120.5 -42.5zM300 -71q41 0 67 23.5t26 61.5t-26 61.5t-67 23.5t-66.5 -23.5t-25.5 -61.5t25.5 -61.5t66.5 -23.5z" />
    <glyph glyph-name="uni2087" unicode="&#x2087;" 
d="M213 -133l177 380h-170v-77h-74v145h318v-79l-168 -369h-83z" />
    <glyph glyph-name="uni2088" unicode="&#x2088;" 
d="M300 -148q-74 0 -120.5 36.5t-46.5 94.5q0 46 28.5 76.5t75.5 34.5v4q-42 8 -67.5 33.5t-25.5 60.5q0 53 43 85.5t113 32.5q71 0 114.5 -32.5t43.5 -85.5q0 -35 -26 -60.5t-70 -33.5v-4q47 -4 76 -34.5t29 -76.5q0 -58 -46.5 -94.5t-120.5 -36.5zM300 120q38 0 61.5 17.5
t23.5 46.5q0 28 -23.5 46t-61.5 18t-60.5 -18t-22.5 -46q0 -29 22.5 -46.5t60.5 -17.5zM300 -85q41 0 67.5 20t26.5 53q0 32 -26.5 52t-67.5 20t-67.5 -20t-26.5 -52q0 -33 26.5 -53t67.5 -20z" />
    <glyph glyph-name="uni2089" unicode="&#x2089;" 
d="M228 -133l125 196h-4q-11 -16 -29.5 -26t-46.5 -10q-62 0 -99 39.5t-37 101.5q0 68 44.5 110t117.5 42q74 0 119 -42t45 -110q0 -31 -11 -61t-32 -63l-111 -177h-81zM300 83q38 0 63 23.5t25 61.5t-23.5 61.5t-64.5 23.5t-64.5 -23.5t-23.5 -61.5t23.5 -61.5t64.5 -23.5z
" />
    <glyph glyph-name="dong" unicode="&#x20ab;" 
d="M264 50q-82 0 -130 55t-48 150v39q0 96 47.5 151t130.5 55q61 0 100 -31t46 -84h4l-3 127v56h-112v77h112v85h99v-85h90v-77h-90v-508h-98v105h-2q-7 -54 -45.5 -84.5t-100.5 -30.5zM298 136q53 0 83 33t30 92v28q0 59 -30 92t-83 33q-55 0 -84 -32t-29 -93v-28
q0 -61 29 -93t84 -32zM86 -83v83h429v-83h-429z" />
    <glyph glyph-name="Euro" unicode="&#x20ac;" 
d="M308 -10q-101 0 -160.5 56.5t-59.5 155.5v40h-70v70h70v97h-70v69h70v51q0 98 59.5 154.5t160.5 56.5q100 0 159.5 -57t59.5 -154h-99q0 59 -32 91t-88 32q-57 0 -89 -32t-32 -91v-51h170v-69h-170v-97h170v-70h-170v-40q0 -60 32 -92t89 -32q56 0 88 32t32 92h99
q0 -98 -59.5 -155t-159.5 -57z" />
    <glyph glyph-name="uni20AE" unicode="&#x20ae;" 
d="M252 0v176l-173 -47v81l173 47v96l-173 -47v81l173 47v208h-208v88h513v-88h-209v-183l174 48v-81l-174 -48v-95l174 47v-81l-174 -47v-202h-96z" />
    <glyph glyph-name="uni20B4" unicode="&#x20b4;" 
d="M49 397v73h281l32 27q21 18 34.5 38.5t13.5 44.5q0 37 -27 56.5t-74 19.5q-53 0 -84 -25.5t-31 -71.5h-97q2 85 58.5 133t153.5 48q90 0 143.5 -40t53.5 -113q0 -34 -19 -61.5t-49 -52.5l-4 -3h118v-73h-503zM49 250v74h503v-74h-304l-12 -9q-22 -16 -35 -37.5t-13 -45.5
q0 -36 28.5 -60t75.5 -24q53 0 85.5 29.5t32.5 75.5h97q-2 -84 -60 -136.5t-155 -52.5q-90 0 -145 44t-55 117q0 57 48 99h-91z" />
    <glyph glyph-name="uni20BD" unicode="&#x20bd;" 
d="M107 0v151h-79v85h79v81h-79v86h79v327h223q68 0 118 -25.5t77.5 -72t27.5 -108.5q0 -63 -27.5 -109.5t-77.5 -72t-118 -25.5h-124v-81h226v-85h-226v-151h-99zM206 403h124q56 0 88.5 32.5t32.5 88.5q0 55 -32.5 87.5t-88.5 32.5h-124v-241z" />
    <glyph glyph-name="uni20BF" unicode="&#x20bf;" 
d="M179 -140v140h-90v730h90v141h60v-141h70v141h61v-148q70 -16 109 -63t39 -119q0 -61 -32 -102t-86 -54q61 -14 98 -61t37 -120q0 -80 -44 -132.5t-121 -66.5v-145h-61v140h-70v-140h-60zM186 422h113q56 0 88 29.5t32 80.5q0 52 -32 81.5t-87 29.5h-114v-221zM186 87
h119q61 0 96 32.5t35 88.5q0 58 -35 94t-96 36h-119v-251z" />
    <glyph glyph-name="uni2102" unicode="&#x2102;" 
d="M300 -10q-103 0 -164.5 59.5t-61.5 160.5v310q0 101 61.5 160.5t164.5 59.5q105 0 165.5 -59.5t60.5 -160.5h-42q0 83 -49 131.5t-135 48.5q-46 0 -82 -15v-640q36 -15 82 -15q86 0 135 48.5t49 131.5h42q0 -101 -60.5 -160.5t-165.5 -59.5zM176 69v592
q-28 -24 -44 -59.5t-16 -81.5v-310q0 -46 16 -81.5t44 -59.5z" />
    <glyph glyph-name="uni210D" unicode="&#x210d;" 
d="M75 0v730h144v-331h162v331h144v-730h-144v359h-162v-359h-144zM117 40h60v650h-60v-650zM423 40h60v650h-60v-650z" />
    <glyph glyph-name="uni2113" unicode="&#x2113;" 
d="M338 -1q-79 0 -125.5 44t-46.5 120v66l-69 -26l-32 86l101 37v255q0 71 45 115t120 44q74 0 119 -43.5t45 -115.5v-82q0 -68 -40.5 -121.5t-111.5 -80.5l-78 -30v-104q0 -35 19.5 -55t53.5 -20q32 0 56 20t35 39l75 -47q-10 -22 -32.5 -45.5t-56 -39.5t-77.5 -16z
M265 581v-218l47 17q85 32 85 119v82q0 70 -66 70q-32 0 -49 -18.5t-17 -51.5z" />
    <glyph glyph-name="uni2115" unicode="&#x2115;" 
d="M95 0v730h124l249 -569q-3 32 -4 72t-1 67v430h42v-730h-126l-247 570q2 -33 3 -72.5t1 -67.5v-430h-41zM408 39h67l-284 652h-66z" />
    <glyph glyph-name="uni2116" unicode="&#x2116;" 
d="M505 300q-41 0 -68 28.5t-27 75.5v233q0 46 27 74.5t68 28.5t68 -28.5t27 -74.5v-233q0 -47 -27 -75.5t-68 -28.5zM29 0v730h101l112 -444q6 -22 14 -57t16.5 -73.5t15.5 -68.5q-4 36 -8 82t-6.5 89.5t-2.5 72.5v399h77v-730h-101l-110 445q-6 23 -14 59t-17 73.5
t-15 66.5q3 -35 6.5 -80.5t6 -90t2.5 -73.5v-400h-77zM505 357q13 0 23 8.5t10 28.5v252q0 16 -10 26.5t-23 10.5t-23 -10.5t-10 -26.5v-252q0 -20 10 -28.5t23 -8.5z" />
    </font>
</defs>
</svg>
