<?xml version="1.0" standalone="no"?>
<!DOCTYPE svg PUBLIC "-//W3C//DTD SVG 1.1//EN" "http://www.w3.org/Graphics/SVG/1.1/DTD/svg11.dtd" >
<svg xmlns="http://www.w3.org/2000/svg" xmlns:xlink="http://www.w3.org/1999/xlink" version="1.1">
<metadata>
Created by FontForge 20170731 at Sat Jan 14 17:11:18 2023
 By Aleksey,,,
Copyright 2020 The JetBrains Mono Project Authors (https://github.com/JetBrains/JetBrainsMono)
</metadata>
<defs>
<font id="JetBrainsMono-SemiBold" horiz-adv-x="600" >
  <font-face 
    font-family="JetBrains Mono SemiBold"
    font-weight="600"
    font-stretch="normal"
    units-per-em="1000"
    panose-1="2 0 0 9 0 0 0 0 0 0"
    ascent="800"
    descent="-200"
    x-height="550"
    cap-height="730"
    bbox="-1729 -400 765 1120"
    underline-thickness="50"
    underline-position="-230"
    unicode-range="U+000D-1D56B"
  />
<missing-glyph 
d="M90 0v730h420v-730h-420zM140 109l300 571h-300v-571zM160 50h300v571z" />
    <glyph glyph-name=".notdef" 
d="M90 0v730h420v-730h-420zM140 109l300 571h-300v-571zM160 50h300v571z" />
    <glyph glyph-name=".null" horiz-adv-x="0" 
 />
    <glyph glyph-name="nonmarkingreturn" horiz-adv-x="333" 
 />
    <glyph glyph-name="CR" unicode="&#xd;" 
 />
    <glyph glyph-name="space" unicode=" " 
 />
    <glyph glyph-name="exclam" unicode="!" 
d="M252 221l-13 509h122l-13 -509h-96zM285 -5q-28 0 -46 17.5t-18 45.5t18 45.5t46 17.5h30q30 0 47.5 -17.5t17.5 -44.5q0 -28 -18.5 -46t-46.5 -18h-30z" />
    <glyph glyph-name="quotedbl" unicode="&#x22;" 
d="M137 430l-8 300h118l-7 -300h-103zM361 430l-8 300h118l-7 -300h-103z" />
    <glyph glyph-name="numbersign" unicode="#" 
d="M80 0l36 200h-81v75h94l33 180h-92v76h104l37 199h79l-37 -199h151l37 199h79l-37 -199h82v-76h-94l-33 -180h92v-75h-105l-36 -200h-79l36 200h-151l-36 -200h-79zM208 275h151l33 180h-151z" />
    <glyph glyph-name="dollar" unicode="$" 
d="M272 -140v131q-96 8 -151 61.5t-56 140.5h108q0 -43 25.5 -70.5t73.5 -34.5v236l-22 6q-81 22 -124.5 78t-43.5 133q0 83 51 136t139 61v132h61v-131q88 -8 140 -61t53 -136h-108q0 41 -22 67t-63 34v-225l36 -10q80 -24 123.5 -79.5t43.5 -133.5q0 -85 -55.5 -140
t-147.5 -64v-131h-61zM190 548q0 -40 21 -69t61 -42v206q-40 -7 -61 -31.5t-21 -63.5zM333 87q45 7 70 34t25 70q0 41 -25 71t-70 41v-216z" />
    <glyph glyph-name="percent" unicode="%" 
d="M152 400q-66 0 -104 36.5t-37 98.5v65q-1 62 37 98.5t104 36.5q65 0 103.5 -36.5t39.5 -98.5v-65q0 -62 -38.5 -98.5t-104.5 -36.5zM7 0l504 730h82l-504 -730h-82zM153 473q27 0 43.5 16.5t17.5 45.5v65q0 29 -16.5 46t-44.5 17t-44.5 -17t-16.5 -46v-65
q0 -29 16.5 -45.5t44.5 -16.5zM447 -5q-65 0 -103.5 36.5t-38.5 98.5v65q-1 62 37.5 98.5t104.5 36.5t104.5 -36.5t38.5 -98.5v-65q0 -62 -38.5 -98.5t-104.5 -36.5zM447 69q28 0 44.5 16.5t16.5 44.5v65q0 29 -16.5 46t-44.5 17t-44 -17t-17 -46v-65q0 -28 16.5 -44.5
t44.5 -16.5z" />
    <glyph glyph-name="ampersand" unicode="&#x26;" 
d="M219 -9q-91 0 -144.5 51.5t-53.5 140.5v61q0 79 42 127t115 54l-25 33q-49 64 -49 120q0 72 49.5 117t128.5 45q56 0 99 -24.5t67 -68t24 -100.5h-102q0 46 -24.5 75t-63.5 29q-34 0 -55 -21t-21 -55t26 -67l189 -248l83 105h115l-143 -178l142 -187h-115l-86 114
l-31 -39q-31 -41 -75 -62.5t-92 -21.5zM224 83q29 0 53 14t44 39l39 50l-120 157h-22q-43 0 -68 -26.5t-25 -72.5v-61q0 -46 26.5 -73t72.5 -27z" />
    <glyph glyph-name="quotesingle" unicode="'" 
d="M249 430l-8 300h118l-7 -300h-103z" />
    <glyph glyph-name="parenleft" unicode="(" 
d="M485 -120q-148 34 -228.5 136t-80.5 255v179q0 152 80.5 254t228.5 136v-106q-93 -21 -147 -97.5t-54 -186.5v-179q0 -110 54 -186.5t147 -97.5v-107z" />
    <glyph glyph-name="parenright" unicode=")" 
d="M115 -120v107q93 21 147 97.5t54 186.5v179q0 110 -54 186.5t-147 97.5v106q148 -34 228.5 -136t80.5 -254v-179q0 -153 -80.5 -255t-228.5 -136z" />
    <glyph glyph-name="asterisk" unicode="*" 
d="M180 101l-76 53l68 96q29 42 73 82q-27 4 -54 10.5t-47 13.5l-110 41l32 87l110 -41q19 -6 43.5 -18t46.5 -26q-12 52 -12 98v123h93l-1 -123q1 -47 -12 -98q22 14 46.5 25.5t43.5 18.5l111 41l31 -87l-110 -41q-20 -7 -47 -13.5t-54 -10.5q20 -18 40 -40.5t34 -41.5
l67 -96l-76 -53l-68 96q-13 19 -27 45t-25 51q-11 -25 -25 -51t-27 -45z" />
    <glyph glyph-name="plus" unicode="+" 
d="M247 94v187h-185v98h185v188h106v-188h185v-98h-185v-187h-106z" />
    <glyph glyph-name="comma" unicode="," 
d="M200 -160l54 306h126l-73 -306h-107z" />
    <glyph glyph-name="hyphen" unicode="-" 
d="M140 281v98h320v-98h-320z" />
    <glyph glyph-name="period" unicode="." 
d="M300 -10q-39 0 -63.5 23.5t-24.5 62.5t24.5 63.5t63.5 24.5t63.5 -24.5t24.5 -63.5t-24.5 -62.5t-63.5 -23.5z" />
    <glyph glyph-name="slash" unicode="/" 
d="M68 -110l352 940h113l-352 -940h-113z" />
    <glyph glyph-name="zero" unicode="0" 
d="M300 -10q-104 0 -165 59t-61 158v317q0 98 61 157t165 59t165 -59t61 -157v-317q0 -66 -28 -114.5t-78.5 -75.5t-119.5 -27zM300 83q56 0 89.5 34t33.5 90v317q0 55 -33.5 89t-89.5 34t-89.5 -34t-33.5 -89v-317q0 -56 33.5 -90t89.5 -34zM300 307q-28 0 -45.5 16
t-17.5 45q0 28 17.5 43.5t45.5 15.5t45.5 -15.5t17.5 -43.5q0 -29 -17.5 -45t-45.5 -16z" />
    <glyph glyph-name="one" unicode="1" 
d="M87 0v98h194v532l-195 -144v122l167 122h136v-632h157v-98h-459z" />
    <glyph glyph-name="two" unicode="2" 
d="M80 0v98l253 265q42 45 61 84t19 76q0 55 -31 88t-85 33q-55 0 -87.5 -34t-32.5 -91h-108q2 67 30.5 116.5t80 77t119.5 27.5t118.5 -26.5t78.5 -74.5t28 -113q0 -54 -27.5 -111t-92.5 -123l-190 -194h318v-98h-452z" />
    <glyph glyph-name="three" unicode="3" 
d="M291 -10q-105 0 -165.5 56.5t-60.5 153.5h108q0 -53 32 -84t87 -31t87 31t32 84v52q0 55 -32 86t-87 31h-85v90l173 175h-292v96h412v-95l-172 -174q89 -9 140 -64.5t51 -143.5v-53q0 -97 -61.5 -153.5t-166.5 -56.5z" />
    <glyph glyph-name="four" unicode="4" 
d="M391 0v152h-326v162l267 416h121l-283 -443v-38h221v171h108v-420h-108z" />
    <glyph glyph-name="five" unicode="5" 
d="M295 -10q-104 0 -165.5 56.5t-61.5 153.5h108q0 -53 32.5 -84t87.5 -31t87 31t32 86v46q0 54 -31 85.5t-85 31.5h-206v365h403v-98h-301l1 -171h108q104 0 161.5 -55.5t57.5 -157.5v-46q0 -98 -61 -155t-167 -57z" />
    <glyph glyph-name="six" unicode="6" 
d="M301 -10q-73 0 -127.5 30t-85 83t-30.5 125q0 45 18.5 98t50.5 109l163 295h121l-184 -317l4 -3q14 19 41 30t61 11q62 0 109 -28t73.5 -78.5t26.5 -116.5q0 -72 -30.5 -125.5t-84.5 -83t-126 -29.5zM300 84q61 0 98 39t37 103t-37 103t-98 39t-98 -39t-37 -103t37 -103
t98 -39z" />
    <glyph glyph-name="seven" unicode="7" 
d="M174 0l263 634h-254v-119h-108v215h478v-97l-261 -633h-118z" />
    <glyph glyph-name="eight" unicode="8" 
d="M300 -10q-71 0 -125.5 27t-85 75.5t-30.5 112.5q0 68 39 118t103 62v3q-55 11 -88 55t-33 103q0 57 27.5 101t77.5 68.5t115 24.5t115 -24.5t78 -68.5t28 -101q0 -59 -33.5 -103t-88.5 -55v-3q64 -12 103 -62t39 -118q0 -64 -30.5 -112.5t-85 -75.5t-125.5 -27zM300 427
q51 0 82.5 30.5t31.5 79.5q0 50 -31.5 80.5t-82.5 30.5t-82.5 -30.5t-31.5 -80.5q0 -49 31.5 -79.5t82.5 -30.5zM300 84q59 0 96.5 34.5t37.5 90.5q0 57 -37.5 92t-96.5 35t-96.5 -35t-37.5 -92q0 -56 37.5 -90.5t96.5 -34.5z" />
    <glyph glyph-name="nine" unicode="9" 
d="M185 0l178 309l-2 -3q-12 -12 -33 -21t-55 -9q-62 0 -110.5 29t-76.5 80t-28 117q0 72 30.5 125.5t84.5 83t126 29.5q73 0 127.5 -29.5t85 -83t30.5 -124.5q0 -46 -18.5 -99t-49.5 -109l-164 -295h-125zM300 362q61 0 98 39t37 103t-37 103.5t-98 39.5t-98 -39.5
t-37 -103.5t37 -103t98 -39z" />
    <glyph glyph-name="colon" unicode=":" 
d="M300 402q-42 0 -65 21.5t-23 57.5t23 57.5t65 21.5t65 -21.5t23 -57.5t-23 -57.5t-65 -21.5zM300 -10q-42 0 -65 21.5t-23 57.5t23 57.5t65 21.5t65 -21.5t23 -57.5t-23 -57.5t-65 -21.5z" />
    <glyph glyph-name="semicolon" unicode=";" 
d="M290 401q-35 0 -57 22.5t-22 57.5q0 34 22.5 56.5t56.5 22.5h20q34 0 57 -22.5t23 -56.5q0 -35 -22.5 -57.5t-57.5 -22.5h-20zM195 -160l54 306h126l-73 -306h-107z" />
    <glyph glyph-name="less" unicode="&#x3c;" 
d="M520 60l-439 213v113l439 213v-101l-300 -143q-20 -9 -38 -15.5t-27 -8.5q10 -2 28.5 -8t36.5 -15l300 -144v-104z" />
    <glyph glyph-name="equal" unicode="=" 
d="M84 403v98h433v-98h-433zM84 160v98h433v-98h-433z" />
    <glyph glyph-name="greater" unicode="&#x3e;" 
d="M81 60v102l299 143q20 9 38 15t27 8q-10 3 -28.5 9t-36.5 15l-299 143v104l439 -213v-113z" />
    <glyph glyph-name="question" unicode="?" 
d="M197 221l-1 181h65q56 0 90 30.5t34 82.5t-34 83t-91 31h-137v101h134q71 0 124 -26.5t82.5 -74.5t29.5 -114q0 -59 -25 -105t-68.5 -72.5t-101.5 -28.5v-88h-101zM232 -5q-29 0 -47 17.5t-18 45.5t18 45.5t47 17.5h30q30 0 47 -17.5t17 -44.5q0 -28 -18 -46t-47 -18h-29
z" />
    <glyph glyph-name="at" unicode="@" 
d="M325 -180q-88 0 -152 35.5t-99 100.5t-35 154v340q0 90 33.5 155t95 100t147.5 35q78 0 134.5 -30t86.5 -85t30 -128v-271q0 -79 -45 -125t-121 -46t-120 45t-44 119v111q0 75 35 116.5t97 41.5q41 0 68 -16.5t36 -45.5h2v71q0 78 -41.5 120.5t-119.5 42.5
q-86 0 -134 -55t-48 -155v-340q0 -96 51.5 -150t142.5 -54h110v-86h-110zM400 130q35 0 54.5 23.5t19.5 65.5v112q0 42 -19.5 64.5t-54.5 22.5t-54.5 -23t-19.5 -65v-111q0 -42 19.5 -65.5t54.5 -23.5z" />
    <glyph glyph-name="A" unicode="A" 
d="M43 0l186 730h142l187 -730h-110l-44 185h-207l-44 -185h-110zM217 275h166l-50 210q-13 56 -21.5 97t-11.5 57q-3 -16 -11 -57t-22 -96z" />
    <glyph glyph-name="B" unicode="B" 
d="M85 0v730h215q103 0 162.5 -50.5t59.5 -138.5q0 -58 -35 -101.5t-91 -53.5v-3q42 -5 74.5 -30t50.5 -63t18 -85q0 -94 -61 -149.5t-164 -55.5h-229zM190 424h109q53 0 84.5 28.5t31.5 78.5q0 49 -31 77.5t-84 28.5h-110v-213zM190 93h115q59 0 93 31.5t34 85.5
q0 56 -34 90t-93 34h-115v-241z" />
    <glyph glyph-name="C" unicode="C" 
d="M308 -10q-103 0 -163.5 57.5t-60.5 155.5v324q0 99 60.5 156t163.5 57q102 0 162.5 -57.5t60.5 -155.5h-108q0 57 -30.5 87t-84.5 30q-55 0 -85.5 -30t-30.5 -87v-324q0 -57 30.5 -87t85.5 -30q54 0 84.5 30t30.5 87h108q0 -98 -60.5 -155.5t-162.5 -57.5z" />
    <glyph glyph-name="D" unicode="D" 
d="M83 0v730h204q72 0 125 -27.5t82.5 -78t29.5 -117.5v-282q0 -69 -29.5 -119t-82.5 -78t-125 -28h-204zM191 97h96q59 0 94 34t35 94v282q0 58 -35 92.5t-94 34.5h-96v-537z" />
    <glyph glyph-name="E" unicode="E" 
d="M94 0v730h429v-96h-323v-208h288v-93h-288v-237h323v-96h-429z" />
    <glyph glyph-name="F" unicode="F" 
d="M88 0v730h442v-99h-336v-218h310v-100h-308v-313h-108z" />
    <glyph glyph-name="G" unicode="G" 
d="M304 -10q-103 0 -163.5 57.5t-60.5 155.5v324q0 99 60.5 156t163.5 57q102 0 162.5 -57.5t60.5 -155.5h-108q0 57 -30.5 87t-84.5 30q-55 0 -85.5 -30t-30.5 -86v-325q0 -57 30.5 -87.5t85.5 -30.5q54 0 84.5 30.5t30.5 87.5v90h-136v96h244v-186q0 -98 -60.5 -155.5
t-162.5 -57.5z" />
    <glyph glyph-name="H" unicode="H" 
d="M85 0v730h108v-304h214v304h108v-730h-108v329h-214v-329h-108z" />
    <glyph glyph-name="I" unicode="I" 
d="M98 0v98h147v534h-147v98h405v-98h-148v-534h148v-98h-405z" />
    <glyph glyph-name="J" unicode="J" 
d="M270 -10q-108 0 -170 60t-62 163h108q0 -60 32.5 -94t91.5 -34q58 0 91.5 33.5t33.5 94.5v517h108v-517q0 -103 -62.5 -163t-170.5 -60z" />
    <glyph glyph-name="K" unicode="K" 
d="M84 0v730h108v-306h97l150 306h117l-173 -350l182 -380h-122l-156 330h-95v-330h-108z" />
    <glyph glyph-name="L" unicode="L" 
d="M126 0v730h108v-632h319v-98h-427z" />
    <glyph glyph-name="M" unicode="M" 
d="M63 0v730h148l87 -315l90 315h149v-730h-102v326q0 56 2.5 121.5t6.5 129.5t9 116l-110 -372h-91l-106 363q9 -71 14 -163t5 -195v-326h-102z" />
    <glyph glyph-name="N" unicode="N" 
d="M81 0v730h137l212 -607q-2 28 -5 68t-4.5 83t-1.5 79v377h100v-730h-136l-212 607q2 -27 4.5 -65.5t4.5 -80.5t2 -78v-383h-101z" />
    <glyph glyph-name="O" unicode="O" 
d="M300 -10q-102 0 -161 58.5t-59 164.5v304q0 106 59 164.5t161 58.5t161 -58.5t59 -163.5v-305q0 -106 -59 -164.5t-161 -58.5zM300 86q54 0 83 30t29 87v324q0 57 -28.5 87t-83.5 30t-83.5 -30t-28.5 -87v-324q0 -57 29 -87t83 -30z" />
    <glyph glyph-name="P" unicode="P" 
d="M84 0v730h239q71 0 123.5 -27t81 -76.5t28.5 -116.5t-29 -116.5t-81 -76.5t-123 -27h-131v-290h-108zM192 386h131q56 0 89.5 34t33.5 90t-33.5 90t-89.5 34h-131v-248z" />
    <glyph glyph-name="Q" unicode="Q" 
d="M415 -180l-103 170h-12q-69 0 -119.5 27t-78.5 75.5t-28 114.5v317q0 98 61.5 157t164.5 59q69 0 119.5 -27t78.5 -75.5t28 -113.5v-317q0 -67 -29 -117t-81 -75l119 -195h-120zM300 85q55 0 86.5 33t31.5 89v317q0 56 -31.5 88.5t-86.5 32.5t-86.5 -32.5t-31.5 -88.5
v-317q0 -56 31.5 -89t86.5 -33z" />
    <glyph glyph-name="R" unicode="R" 
d="M85 0v730h228q68 0 119.5 -26.5t80 -74.5t28.5 -113q0 -73 -37 -127t-99 -76l146 -313h-118l-136 300h-105v-300h-107zM192 396h121q54 0 86 32t32 86q0 55 -32.5 87.5t-85.5 32.5h-121v-238z" />
    <glyph glyph-name="S" unicode="S" 
d="M303 -10q-108 0 -173 57t-65 156h106q0 -55 36 -86.5t96 -31.5q59 0 93 32t34 85q0 40 -22 70t-63 41l-105 28q-74 20 -116.5 73t-42.5 127q0 60 26.5 104.5t75.5 69.5t114 25t114.5 -25t77 -69.5t27.5 -103.5h-106q0 47 -31.5 75.5t-81.5 28.5t-80.5 -28.5t-30.5 -74.5
q0 -37 20.5 -62t57.5 -35l108 -29q76 -20 120 -78t44 -137q0 -65 -29 -112.5t-81 -73.5t-123 -26z" />
    <glyph glyph-name="T" unicode="T" 
d="M246 0v632h-195v98h499v-98h-196v-632h-108z" />
    <glyph glyph-name="U" unicode="U" 
d="M300 -10q-105 0 -162 57.5t-57 156.5v526h108v-525q0 -56 28 -88t83 -32t83 32t28 88v525h108v-526q0 -100 -57 -157t-162 -57z" />
    <glyph glyph-name="V" unicode="V" 
d="M228 0l-185 730h110l118 -486q11 -44 19 -86t12 -65q4 23 12.5 65.5t19.5 86.5l113 485h111l-186 -730h-144z" />
    <glyph glyph-name="W" unicode="W" 
d="M98 0l-81 730h94l51 -524q3 -30 5 -68t3 -62q3 24 6 62t7 68l68 524h102l63 -524q3 -30 7.5 -68t6.5 -62q2 24 4.5 62t5.5 68l52 524h91l-84 -730h-126l-61 531q-3 31 -6 68t-5 60q-2 -23 -4.5 -60t-6.5 -68l-65 -531h-127z" />
    <glyph glyph-name="X" unicode="X" 
d="M34 0l206 372l-194 358h122l102 -199l18 -38t14 -29q4 10 12.5 29t18.5 38l104 199h117l-194 -354l206 -376h-122l-113 216q-10 19 -19 38.5t-14 30.5q-4 -11 -13 -30.5t-18 -37.5l-115 -217h-118z" />
    <glyph glyph-name="Y" unicode="Y" 
d="M246 0v269l-217 461h114l127 -276q13 -27 21 -51t11 -36q3 12 11 36t20 51l126 276h112l-217 -461v-269h-108z" />
    <glyph glyph-name="Z" unicode="Z" 
d="M82 0v104l311 528h-305v98h420v-103l-311 -529h321v-98h-436z" />
    <glyph glyph-name="bracketleft" unicode="[" 
d="M195 -110v940h263v-98h-155v-744h155v-98h-263z" />
    <glyph glyph-name="backslash" unicode="\" 
d="M419 -110l-352 940h113l352 -940h-113z" />
    <glyph glyph-name="bracketright" unicode="]" 
d="M143 -110v98h155v744h-155v98h263v-940h-263z" />
    <glyph glyph-name="asciicircum" unicode="^" 
d="M74 340l176 390h102l174 -390h-99l-102 244q-8 20 -14 39t-9 29q-3 -10 -9.5 -29t-14.5 -39l-105 -244h-99z" />
    <glyph glyph-name="underscore" unicode="_" 
d="M60 -119v94h480v-94h-480z" />
    <glyph glyph-name="grave" unicode="`" 
d="M268 645l-116 140h120l108 -140h-112z" />
    <glyph glyph-name="a" unicode="a" 
d="M245 -10q-84 0 -133.5 47.5t-49.5 124.5q0 78 53 125.5t141 47.5h152v40q0 95 -107 95q-48 0 -77 -18t-31 -50h-106q5 69 62 113.5t153 44.5q102 0 158 -48.5t56 -135.5v-376h-106v103h-1q-7 -53 -50 -83t-114 -30zM276 79q61 0 96.5 29.5t35.5 79.5v71h-144
q-43 0 -68.5 -25t-25.5 -64q0 -42 28 -66.5t78 -24.5z" />
    <glyph glyph-name="b" unicode="b" 
d="M341 -10q-60 0 -99.5 30t-50.5 84v-104h-107v730h108v-157l-3 -127q12 53 52.5 83.5t99.5 30.5q82 0 131 -56t49 -152v-155q0 -95 -49 -151t-131 -56zM303 84q52 0 81 27.5t29 88.5v151q0 60 -29 87.5t-81 27.5t-81.5 -31.5t-29.5 -88.5v-141q0 -58 29.5 -89.5
t81.5 -31.5z" />
    <glyph glyph-name="c" unicode="c" 
d="M308 -10q-103 0 -165 57t-62 156v144q0 99 62 156t165 57q100 0 160 -52t64 -142h-107q-3 47 -34.5 73t-82.5 26q-55 0 -87 -30.5t-32 -86.5v-145q0 -57 32 -87.5t87 -30.5q52 0 83 26t34 74h107q-4 -90 -64 -142.5t-160 -52.5z" />
    <glyph glyph-name="d" unicode="d" 
d="M259 -10q-82 0 -131 56t-49 151v155q0 96 49 152t131 56q59 0 99.5 -30t52.5 -84l-3 127v157h108v-730h-107v104q-11 -54 -50.5 -84t-99.5 -30zM297 84q52 0 81.5 31.5t29.5 89.5v141q0 57 -29.5 88.5t-81.5 31.5t-81 -27.5t-29 -87.5v-151q0 -61 29 -88.5t81 -27.5z" />
    <glyph glyph-name="e" unicode="e" 
d="M300 -10q-101 0 -162 59t-61 161v130q0 102 61 161t162 59q68 0 118 -26.5t77.5 -74.5t27.5 -112v-99h-342v-45q0 -58 32 -90t87 -32q45 0 75 16.5t36 45.5h107q-11 -70 -70.5 -111.5t-147.5 -41.5zM181 347v-23h238v24q0 61 -31 94t-88 33t-88 -33.5t-31 -94.5z" />
    <glyph glyph-name="f" unicode="f" 
d="M208 0v377h-156v98h156v106q0 69 44 109t120 40h161v-96h-159q-58 0 -58 -54v-105h217v-98h-217v-377h-108z" />
    <glyph glyph-name="g" unicode="g" 
d="M156 -180v93h155q45 0 71 25t26 68v41l2 92q-13 -49 -51.5 -76t-95.5 -27q-85 0 -134 55t-49 151v111q0 95 49 151t134 56q57 0 95 -27t51 -76v93h106v-546q0 -85 -54.5 -134.5t-148.5 -49.5h-156zM298 127q51 0 80.5 31.5t29.5 88.5v100q0 56 -29.5 87.5t-80.5 31.5
q-53 0 -81.5 -30t-28.5 -82v-114q0 -53 28.5 -83t81.5 -30z" />
    <glyph glyph-name="h" unicode="h" 
d="M84 0v730h108v-180l-1 -105v0q8 54 46.5 84.5t100.5 30.5q82 0 131 -52.5t49 -141.5v-366h-108v351q0 56 -29 86.5t-79 30.5q-51 0 -80.5 -32t-29.5 -89v-347h-108z" />
    <glyph glyph-name="i" unicode="i" 
d="M81 0v98h191v354h-171v98h279v-452h177v-98h-476zM317 645q-35 0 -56 18.5t-21 49.5q0 32 21 50.5t56 18.5t56 -18.5t21 -50.5q0 -31 -21 -49.5t-56 -18.5z" />
    <glyph glyph-name="j" unicode="j" 
d="M86 -180v98h134q55 0 86.5 31t31.5 86v417h-257v98h365v-516q0 -99 -60 -156.5t-162 -57.5h-138zM383 645q-35 0 -56 18.5t-21 49.5q0 32 21 50.5t56 18.5t56 -18.5t21 -50.5q0 -31 -21 -49.5t-56 -18.5z" />
    <glyph glyph-name="k" unicode="k" 
d="M89 0v730h108v-401h97l142 221h121l-169 -264l177 -286h-124l-146 236h-98v-236h-108z" />
    <glyph glyph-name="l" unicode="l" 
d="M385 0q-78 0 -124.5 45.5t-46.5 121.5v465h-185v98h293v-561q0 -33 18 -52t49 -19h166v-98h-170z" />
    <glyph glyph-name="m" unicode="m" 
d="M53 0v550h92v-77h2q4 39 29 63t63 24q36 0 61.5 -22.5t35.5 -60.5v0q6 38 31 60.5t64 22.5q51 0 83.5 -39.5t32.5 -101.5v-419h-98v414q0 30 -14 47.5t-39 17.5t-38.5 -17t-13.5 -47v-415h-88v414q0 30 -13.5 47.5t-38.5 17.5t-39 -17t-14 -47v-415h-98z" />
    <glyph glyph-name="n" unicode="n" 
d="M84 0v550h107v-105v0q8 54 46.5 84.5t100.5 30.5q82 0 131 -52.5t49 -141.5v-366h-108v350q0 57 -29 87.5t-79 30.5q-51 0 -80.5 -32t-29.5 -89v-347h-108z" />
    <glyph glyph-name="o" unicode="o" 
d="M300 -9q-102 0 -162.5 59t-60.5 161v128q0 103 60 161.5t163 58.5t163 -58.5t60 -161.5v-128q0 -102 -60.5 -161t-162.5 -59zM300 86q54 0 84.5 30.5t30.5 87.5v142q0 57 -30.5 87.5t-84.5 30.5t-84.5 -30.5t-30.5 -87.5v-142q0 -57 30.5 -87.5t84.5 -30.5z" />
    <glyph glyph-name="p" unicode="p" 
d="M84 -180v730h107v-104q11 54 50.5 84t99.5 30q82 0 131 -56.5t49 -150.5v-155q0 -95 -49 -151.5t-131 -56.5q-60 0 -100 31.5t-51 86.5h-1l3 -131v-157h-108zM303 84q52 0 81 27.5t29 88.5v151q0 60 -29 87.5t-81 27.5t-81.5 -31.5t-29.5 -88.5v-141q0 -58 29.5 -89.5
t81.5 -31.5z" />
    <glyph glyph-name="q" unicode="q" 
d="M408 -180v157l3 125h-2q-12 -52 -51.5 -82t-98.5 -30q-82 0 -131 56t-49 152v155q0 95 49 151t131 56q60 0 99.5 -30t50.5 -84v104h107v-730h-108zM297 84q52 0 81.5 31.5t29.5 89.5v141q0 57 -29.5 88.5t-81.5 31.5t-81 -27t-29 -85v-158q0 -58 29 -85t81 -27z" />
    <glyph glyph-name="r" unicode="r" 
d="M104 0v550h107v-108v0q8 55 47 86.5t103 31.5q85 0 132 -53t47 -149v-49h-108v46q0 111 -109 111q-54 0 -82.5 -31.5t-28.5 -91.5v-343h-108z" />
    <glyph glyph-name="s" unicode="s" 
d="M278 -9q-95 0 -149 43t-54 120h107q0 -35 25 -54.5t71 -19.5h44q47 0 73 19.5t26 55.5q0 63 -67 72l-145 20q-61 8 -94 48.5t-33 105.5q0 75 50.5 116.5t143.5 41.5h45q86 0 139.5 -41t56.5 -108h-108q-2 27 -25.5 44.5t-62.5 17.5h-45q-43 0 -66.5 -19t-23.5 -50
q0 -52 57 -60l136 -18q147 -20 147 -169q0 -79 -53 -122t-151 -43h-44z" />
    <glyph glyph-name="t" unicode="t" 
d="M355 0q-73 0 -116 42t-43 114v296h-155v98h155v155h108v-155h222v-98h-222v-295q0 -26 15 -42.5t41 -16.5h161v-98h-166z" />
    <glyph glyph-name="u" unicode="u" 
d="M299 -10q-100 0 -158.5 57.5t-58.5 156.5v346h108v-345q0 -56 29 -88.5t80 -32.5q52 0 81.5 32.5t29.5 88.5v345h108v-346q0 -99 -59.5 -156.5t-159.5 -57.5z" />
    <glyph glyph-name="v" unicode="v" 
d="M231 0l-186 550h114l113 -352q10 -31 18 -61.5t12 -50.5q4 20 10.5 50.5t16.5 61.5l112 352h114l-185 -550h-139z" />
    <glyph glyph-name="w" unicode="w" 
d="M111 0l-88 550h89l52 -362q4 -27 7 -58.5t4 -51.5q2 20 5 51.5t8 58.5l64 362h97l64 -362q4 -27 7.5 -58.5t5.5 -51.5q2 20 4.5 51.5t6.5 58.5l54 362h86l-91 -550h-114l-58 359q-5 28 -8.5 62t-5.5 54q-1 -20 -5.5 -54t-8.5 -62l-60 -359h-115z" />
    <glyph glyph-name="x" unicode="x" 
d="M43 0l193 284l-181 266h124l97 -152q7 -12 14 -25.5t11 -22.5q3 9 9.5 22.5t14.5 25.5l96 152h125l-181 -267l192 -283h-124l-107 165q-7 12 -14 27t-11 24q-5 -9 -12 -24t-15 -27l-107 -165h-124z" />
    <glyph glyph-name="y" unicode="y" 
d="M171 -180l80 212l-206 518h115l117 -310q9 -22 17 -48t11 -46q4 20 11.5 46t15.5 48l109 310h114l-271 -730h-113z" />
    <glyph glyph-name="z" unicode="z" 
d="M84 0v102l297 352h-288v96h412v-102l-301 -352h312v-96h-432z" />
    <glyph glyph-name="braceleft" unicode="{" 
d="M451 -110q-89 0 -140 46t-43 125l15 159q4 46 -15 68.5t-73 22.5h-123v98h123q54 0 73 22t15 69l-15 160q-8 79 43.5 124.5t139.5 45.5h57v-98h-48q-42 0 -65 -20t-19 -58l15 -160q5 -55 -27.5 -89.5t-100.5 -42.5q68 -8 100.5 -45t27.5 -91l-15 -160q-4 -38 19 -58
t65 -20h48v-98h-57z" />
    <glyph glyph-name="bar" unicode="|" 
d="M246 -110v940h108v-940h-108z" />
    <glyph glyph-name="braceright" unicode="}" 
d="M92 -110v98h48q42 0 66 20t19 58l-22 160q-8 53 21.5 90.5t81.5 47.5q-52 8 -81.5 42t-21.5 88l22 160q5 38 -19 58t-66 20h-48v98h57q59 0 103 -20.5t66 -58.5t15 -91l-22 -160q-7 -47 13 -69t75 -22h129v-98h-129q-55 0 -75 -22.5t-13 -68.5l22 -159q7 -53 -15 -91.5
t-66 -59t-103 -20.5h-57z" />
    <glyph glyph-name="asciitilde" unicode="~" 
d="M61 255v75q0 60 37.5 96.5t100.5 36.5q39 0 64.5 -13.5t43 -33.5t31.5 -40t28.5 -33t34.5 -13q43 0 43 49v71h95v-74q0 -60 -37.5 -96.5t-99.5 -36.5q-40 0 -65.5 13t-43 33t-31.5 40t-28.5 33.5t-34.5 13.5q-42 0 -42 -49v-72h-96z" />
    <glyph glyph-name="uni00A0" unicode="&#xa0;" 
 />
    <glyph glyph-name="exclamdown" unicode="&#xa1;" 
d="M285 429q-28 0 -46 17.5t-18 45.5t18 45.5t46 17.5h30q28 0 46.5 -18t18.5 -46q0 -27 -17.5 -44.5t-47.5 -17.5h-30zM239 -180l13 509h96l13 -509h-122z" />
    <glyph glyph-name="cent" unicode="&#xa2;" 
d="M274 -140v132q-88 9 -140.5 65t-52.5 146v144q0 90 52.5 146t140.5 65v132h61v-131q88 -7 141 -58.5t56 -134.5l-107 -1q-3 41 -26.5 66.5t-63.5 31.5v-376q40 6 63.5 31t26.5 67h107q-3 -84 -56 -135.5t-141 -58.5v-131h-61zM189 203q0 -47 22.5 -76.5t62.5 -37.5v372
q-40 -8 -62.5 -37.5t-22.5 -75.5v-145z" />
    <glyph glyph-name="sterling" unicode="&#xa3;" 
d="M75 0v118q24 16 49 39.5t42.5 50.5t17.5 52q0 21 -3 39h-109v92h71q-15 24 -30.5 46.5t-26 49.5t-10.5 64q0 56 27.5 98.5t78 66.5t118.5 24q101 0 160.5 -53t62.5 -143h-111q-1 45 -32 73t-82 28q-54 0 -83.5 -27t-29.5 -73q0 -33 12.5 -56.5t30 -46t32.5 -51.5h175v-92
h-149q1 -14 1 -30q0 -43 -19.5 -77.5t-48 -58.5t-54.5 -35h370v-98h-460z" />
    <glyph glyph-name="currency" unicode="&#xa4;" 
d="M494 112l-87 87q-46 -28 -106 -28q-61 0 -107 28l-86 -85l-64 64l83 84q-32 49 -32 111t33 111l-86 86l65 65l88 -88q48 28 106 28q62 0 110 -30l84 84l64 -63l-84 -84q30 -49 30 -109q0 -31 -8 -58.5t-23 -51.5l86 -86zM301 248q52 0 87 35.5t35 89.5t-35 89.5t-87 35.5
q-53 0 -88.5 -35.5t-35.5 -89.5t35.5 -89.5t88.5 -35.5z" />
    <glyph glyph-name="yen" unicode="&#xa5;" 
d="M60 114v84h186v69h-186v84h147l-178 379h114l127 -276q13 -27 21 -51t11 -36q3 12 11 36t20 51l126 276h112l-178 -379h147v-84h-186v-69h186v-84h-186v-114h-108v114h-186z" />
    <glyph glyph-name="brokenbar" unicode="&#xa6;" 
d="M246 450v380h108v-380h-108zM246 -110v380h108v-380h-108z" />
    <glyph glyph-name="section" unicode="&#xa7;" 
d="M278 -154q-96 0 -152 41t-59 114h112q2 -30 28.5 -48t70.5 -18h44q48 0 75.5 22t27.5 58q0 33 -23.5 55.5t-70.5 30.5l-93 17q-74 13 -117.5 61.5t-43.5 109.5q0 57 31.5 92.5t88.5 42.5v4q-50 11 -83.5 49t-33.5 98q0 76 53.5 120.5t147.5 44.5h44q85 0 139 -39.5
t62 -107.5h-112q-4 26 -28 41.5t-61 15.5h-44q-45 0 -70 -20t-25 -54q0 -30 17.5 -51t50.5 -28l115 -22q76 -16 119 -63.5t43 -108.5q0 -58 -35 -92.5t-89 -38.5v-3q24 -3 53.5 -20t51 -49.5t21.5 -83.5q0 -78 -56.5 -124t-154.5 -46h-44zM325 193q44 -8 71.5 22t27.5 81
q0 34 -21 60t-55 32l-69 13q-42 8 -68.5 -21t-26.5 -79q0 -37 19.5 -63.5t52.5 -32.5z" />
    <glyph glyph-name="dieresis" unicode="&#xa8;" 
d="M414 645q-31 0 -49.5 18.5t-18.5 49.5q0 32 18.5 50.5t49.5 18.5q32 0 50.5 -18.5t18.5 -50.5q0 -31 -18.5 -49.5t-50.5 -18.5zM186 645q-32 0 -50.5 18.5t-18.5 49.5q0 32 18.5 50.5t50.5 18.5q31 0 50 -18.5t19 -50.5q0 -31 -19 -49.5t-50 -18.5z" />
    <glyph glyph-name="copyright" unicode="&#xa9;" 
d="M300 110q-76 0 -133.5 30t-89.5 84t-32 126v150q0 72 32 126t89.5 84t133.5 30q77 0 134 -30t89 -84t32 -126v-150q0 -72 -32 -126t-89 -84t-134 -30zM300 160q60 0 105 23.5t70 66.5t25 100v150q0 57 -25 99.5t-70 66.5t-105 24t-105 -24t-70 -66.5t-25 -99.5v-150
q0 -57 25 -100t70 -66.5t105 -23.5zM305 245q-58 0 -93 32.5t-35 85.5v124q0 53 35 85.5t93 32.5q57 0 92 -32.5t35 -85.5h-71q0 26 -15.5 41.5t-40.5 15.5q-26 0 -41.5 -15.5t-15.5 -41.5v-124q0 -26 15.5 -41.5t41.5 -15.5q25 0 40.5 15.5t15.5 41.5h71q0 -53 -35 -85.5
t-92 -32.5z" />
    <glyph glyph-name="ordfeminine" unicode="&#xaa;" 
d="M271 450q-45 0 -72 23.5t-27 63.5q0 39 29 62t79 23h84v28q0 20 -16 32t-43 12q-24 0 -40 -10t-19 -25h-59q6 38 37.5 59.5t80.5 21.5q54 0 86 -24t32 -66v-195h-56v55h-3q-11 -28 -35.5 -44t-57.5 -16zM287 493q36 0 56.5 16.5t20.5 45.5v24h-84q-49 0 -49 -42
q0 -20 15.5 -32t40.5 -12z" />
    <glyph glyph-name="guillemotleft" unicode="&#xab;" 
d="M450 40l-183 240l183 240h120l-188 -238l188 -242h-120zM209 40l-183 240l183 240h120l-187 -238l187 -242h-120z" />
    <glyph glyph-name="logicalnot" unicode="&#xac;" 
d="M396 175v131h-296v98h400v-229h-104z" />
    <glyph glyph-name="uni00AD" unicode="&#xad;" 
d="M140 281v98h320v-98h-320z" />
    <glyph glyph-name="registered" unicode="&#xae;" 
d="M300 110q-76 0 -133.5 30t-89.5 84t-32 126v150q0 72 32 126t89.5 84t133.5 30q77 0 134 -30t89 -84t32 -126v-150q0 -72 -32 -126t-89 -84t-134 -30zM100 350q0 -57 25 -100t70 -66.5t105 -23.5t105 23.5t70 66.5t25 100v150q0 57 -25 99.5t-70 66.5t-105 24t-105 -24
t-70 -66.5t-25 -99.5v-150zM187 250v350h117q55 0 87.5 -29t32.5 -77q0 -68 -59 -94l65 -150h-70l-57 139h-50v-139h-66zM253 443h51q25 0 39 14t14 38t-14 38t-39 14h-51v-104z" />
    <glyph glyph-name="macron" unicode="&#xaf;" 
d="M134 666v85h332v-85h-332z" />
    <glyph glyph-name="degree" unicode="&#xb0;" 
d="M300 438q-69 0 -112.5 42t-43.5 109t43.5 109t112.5 42t112.5 -42t43.5 -109t-43.5 -109t-112.5 -42zM300 503q36 0 58.5 24t22.5 62t-22.5 62t-58.5 24t-58.5 -24t-22.5 -62t22.5 -62t58.5 -24z" />
    <glyph glyph-name="plusminus" unicode="&#xb1;" 
d="M69 0v82h179v203h-184v98h184v187h107v-187h185v-98h-185v-203h177v-82h-463z" />
    <glyph glyph-name="uni00B2" unicode="&#xb2;" 
d="M154 382v84l181 150q20 16 32 34.5t12 40.5q0 33 -22 53t-55 20t-55.5 -20.5t-22.5 -53.5h-79q1 42 22 75t56 51.5t79 18.5q67 0 111.5 -39.5t44.5 -102.5q0 -37 -21.5 -69.5t-59.5 -62.5l-132 -108h215v-71h-306z" />
    <glyph glyph-name="uni00B3" unicode="&#xb3;" 
d="M301 377q-73 0 -119.5 41t-46.5 107h80q0 -34 24 -55.5t62 -21.5t62 22.5t24 57.5t-24 57t-62 22h-40v69l110 83h-214v71h294v-76l-111 -87q57 -9 92 -46t35 -93q0 -67 -46.5 -109t-119.5 -42z" />
    <glyph glyph-name="acute" unicode="&#xb4;" 
d="M223 645l106 140h116l-113 -140h-109z" />
    <glyph glyph-name="uni00B5" unicode="&#xb5;" 
d="M85 -180v730h108v-347q0 -56 27.5 -87.5t79.5 -31.5q51 0 80 31.5t29 87.5v347h108v-550h-107l2 105h-3q-4 -53 -30 -84t-80 -31t-78.5 31t-28.5 84h-2l3 -128v-157h-108z" />
    <glyph glyph-name="paragraph" unicode="&#xb6;" 
d="M251 -180v490q-86 0 -138 47t-52 123v80q0 77 52 123.5t138 46.5h89v-910h-89zM424 -180v910h89v-910h-89z" />
    <glyph glyph-name="periodcentered" unicode="&#xb7;" 
d="M300 258q-39 0 -63.5 23.5t-24.5 62.5t24.5 63.5t63.5 24.5t63.5 -24.5t24.5 -63.5t-24.5 -62.5t-63.5 -23.5z" />
    <glyph glyph-name="cedilla" unicode="&#xb8;" 
d="M201 -210v60h73q22 0 36 11.5t14 24.5q0 19 -28 32t-80 13l35 92h62l-21 -59q28 -3 57 -13.5t49.5 -29t20.5 -45.5q0 -35 -34.5 -60.5t-91.5 -25.5h-92z" />
    <glyph glyph-name="uni00B9" unicode="&#xb9;" 
d="M148 382v72h142v309l-139 -86v81l114 72h105v-376h112v-72h-334z" />
    <glyph glyph-name="ordmasculine" unicode="&#xba;" 
d="M300 447q-54 0 -87.5 30.5t-33.5 78.5v71q0 49 33.5 79.5t87.5 30.5t87.5 -30.5t33.5 -79.5v-71q0 -48 -33.5 -78.5t-87.5 -30.5zM300 496q28 0 45 16.5t17 43.5v71q0 27 -17 44t-45 17t-45 -17t-17 -44v-71q0 -27 17 -43.5t45 -16.5z" />
    <glyph glyph-name="guillemotright" unicode="&#xbb;" 
d="M271 40l185 241l-185 239h120l184 -240l-184 -240h-120zM31 40l185 241l-186 239h120l183 -240l-183 -240h-119z" />
    <glyph glyph-name="onequarter" unicode="&#xbc;" 
d="M1 0l278 405h-247v57h117v222q-5 -8 -14.5 -19t-20.5 -21l-62 -52v79l72 59h94v-268h95v-9l191 277h96l-504 -730h-95zM474 0v67h-172v86l126 172h78l-135 -186v-16h103v85h69v-208h-69z" />
    <glyph glyph-name="onehalf" unicode="&#xbd;" 
d="M1 0l279 405h-248v58h117v221q-5 -7 -14.5 -18.5t-20.5 -20.5l-62 -52v78l72 59h94v-267h101l185 267h96l-504 -730h-95zM314 0v72l126 72q61 34 61 73q0 26 -16.5 41.5t-42.5 15.5q-27 0 -43 -16t-16 -42h-69q1 51 36.5 82.5t91.5 31.5q58 0 93 -30t35 -79
q0 -66 -90 -115l-82 -46v-10q11 2 31 5t39 3h107v-58h-261z" />
    <glyph glyph-name="threequarters" unicode="&#xbe;" 
d="M154 400q-59 0 -95 29t-36 76h69q0 -22 17 -35.5t45 -13.5t44.5 14t16.5 37q0 22 -16.5 36t-43.5 14h-30v60l76 59h-154v54h221v-57l-82 -64q44 -6 71 -33.5t27 -68.5q0 -48 -35.5 -77.5t-94.5 -29.5zM1 0l503 730h96l-504 -730h-95zM474 0v67h-172v86l126 172h78
l-135 -186v-16h103v85h69v-208h-69z" />
    <glyph glyph-name="questiondown" unicode="&#xbf;" 
d="M338 429q-30 0 -47 17.5t-17 44.5q0 28 18 46t47 18h29q29 0 47 -17.5t18 -45.5t-18 -45.5t-47 -17.5h-30zM344 -180q-72 0 -125 26.5t-82 75t-29 113.5q0 59 24.5 105t68 72.5t102.5 29.5v87h100l2 -180h-65q-57 0 -90.5 -31t-33.5 -83t33.5 -82.5t91.5 -30.5h137v-102
h-134z" />
    <glyph glyph-name="Agrave" unicode="&#xc0;" 
d="M43 0l186 730h142l187 -730h-110l-44 185h-207l-44 -185h-110zM217 275h166l-50 210q-13 56 -21.5 97t-11.5 57q-3 -16 -11 -57t-22 -96zM258 810l-116 140h120l108 -140h-112z" />
    <glyph glyph-name="Aacute" unicode="&#xc1;" 
d="M43 0l186 730h142l187 -730h-110l-44 185h-207l-44 -185h-110zM217 275h166l-50 210q-13 56 -21.5 97t-11.5 57q-3 -16 -11 -57t-22 -96zM233 810l106 140h116l-113 -140h-109z" />
    <glyph glyph-name="Acircumflex" unicode="&#xc2;" 
d="M43 0l186 730h142l187 -730h-110l-44 185h-207l-44 -185h-110zM217 275h166l-50 210q-13 56 -21.5 97t-11.5 57q-3 -16 -11 -57t-22 -96zM112 810l138 140h100l138 -140h-110l-79 76l-76 -76h-111z" />
    <glyph glyph-name="Atilde" unicode="&#xc3;" 
d="M43 0l186 730h142l187 -730h-110l-44 185h-207l-44 -185h-110zM217 275h166l-50 210q-13 56 -21.5 97t-11.5 57q-3 -16 -11 -57t-22 -96zM370 811q-31 0 -50 10t-32 23t-25 23.5t-28 10.5q-30 0 -30 -35v-27h-71v31q0 47 26.5 75t69.5 28q31 0 50 -10.5t32 -23.5t25 -23
t28 -10q30 0 30 32v30h71v-32q0 -47 -26.5 -74.5t-69.5 -27.5z" />
    <glyph glyph-name="Adieresis" unicode="&#xc4;" 
d="M43 0l186 730h142l187 -730h-110l-44 185h-207l-44 -185h-110zM217 275h166l-50 210q-13 56 -21.5 97t-11.5 57q-3 -16 -11 -57t-22 -96zM414 813q-31 0 -49.5 18t-18.5 49q0 32 18.5 50.5t49.5 18.5q32 0 50.5 -18.5t18.5 -50.5q0 -31 -18.5 -49t-50.5 -18zM186 813
q-32 0 -50.5 18t-18.5 49q0 32 18.5 50.5t50.5 18.5q31 0 50 -18.5t19 -50.5q0 -31 -19 -49t-50 -18z" />
    <glyph glyph-name="Aring" unicode="&#xc5;" 
d="M43 0l186 730h142l187 -730h-110l-44 185h-207l-44 -185h-110zM217 275h166l-50 210q-13 56 -21.5 97t-11.5 57q-3 -16 -11 -57t-22 -96zM300 762q-57 0 -91.5 32.5t-34.5 85.5t34.5 85.5t91.5 32.5t91.5 -32.5t34.5 -85.5t-34.5 -85.5t-91.5 -32.5zM300 820
q27 0 43.5 16.5t16.5 43.5t-16.5 44t-43.5 17t-43.5 -17t-16.5 -44t16.5 -43.5t43.5 -16.5z" />
    <glyph glyph-name="AE" unicode="&#xc6;" 
d="M21 0l143 730h409v-95h-177v-210h152v-97h-152v-233h177v-95h-274v192h-136l-35 -192h-107zM178 276h121v359h-54z" />
    <glyph glyph-name="Ccedilla" unicode="&#xc7;" 
d="M207 -210v60h73q23 0 37 11.5t14 24.5q0 19 -28.5 32t-79.5 13l24 65q-76 16 -119.5 70t-43.5 137v324q0 99 60.5 156t163.5 57q102 0 162.5 -57.5t60.5 -155.5h-108q0 57 -30.5 87t-84.5 30q-55 0 -85.5 -30t-30.5 -87v-324q0 -57 30.5 -87t85.5 -30q54 0 84.5 30
t30.5 87h108q0 -98 -60.5 -155.5t-162.5 -57.5v0l-9 -26q27 -3 56.5 -13.5t50 -29t20.5 -45.5q0 -35 -35 -60.5t-91 -25.5h-93z" />
    <glyph glyph-name="Egrave" unicode="&#xc8;" 
d="M94 0v730h429v-96h-323v-208h288v-93h-288v-237h323v-96h-429zM267 810l-116 140h120l108 -140h-112z" />
    <glyph glyph-name="Eacute" unicode="&#xc9;" 
d="M94 0v730h429v-96h-323v-208h288v-93h-288v-237h323v-96h-429zM242 810l106 140h116l-113 -140h-109z" />
    <glyph glyph-name="Ecircumflex" unicode="&#xca;" 
d="M94 0v730h429v-96h-323v-208h288v-93h-288v-237h323v-96h-429zM121 810l138 140h100l138 -140h-110l-79 76l-76 -76h-111z" />
    <glyph glyph-name="Edieresis" unicode="&#xcb;" 
d="M94 0v730h429v-96h-323v-208h288v-93h-288v-237h323v-96h-429zM423 813q-31 0 -49.5 18t-18.5 49q0 32 18.5 50.5t49.5 18.5q32 0 50.5 -18.5t18.5 -50.5q0 -31 -18.5 -49t-50.5 -18zM195 813q-32 0 -50.5 18t-18.5 49q0 32 18.5 50.5t50.5 18.5q31 0 50 -18.5t19 -50.5
q0 -31 -19 -49t-50 -18z" />
    <glyph glyph-name="Igrave" unicode="&#xcc;" 
d="M98 0v98h147v534h-147v98h405v-98h-148v-534h148v-98h-405zM258 810l-116 140h120l108 -140h-112z" />
    <glyph glyph-name="Iacute" unicode="&#xcd;" 
d="M98 0v98h147v534h-147v98h405v-98h-148v-534h148v-98h-405zM233 810l106 140h116l-113 -140h-109z" />
    <glyph glyph-name="Icircumflex" unicode="&#xce;" 
d="M98 0v98h147v534h-147v98h405v-98h-148v-534h148v-98h-405zM112 810l138 140h100l138 -140h-110l-79 76l-76 -76h-111z" />
    <glyph glyph-name="Idieresis" unicode="&#xcf;" 
d="M98 0v98h147v534h-147v98h405v-98h-148v-534h148v-98h-405zM414 813q-31 0 -49.5 18t-18.5 49q0 32 18.5 50.5t49.5 18.5q32 0 50.5 -18.5t18.5 -50.5q0 -31 -18.5 -49t-50.5 -18zM186 813q-32 0 -50.5 18t-18.5 49q0 32 18.5 50.5t50.5 18.5q31 0 50 -18.5t19 -50.5
q0 -31 -19 -49t-50 -18z" />
    <glyph glyph-name="Eth" unicode="&#xd0;" 
d="M83 0v332h-73v81h73v317h204q72 0 125 -27.5t82.5 -78t29.5 -117.5v-282q0 -69 -29.5 -119t-82.5 -78t-125 -28h-204zM191 97h96q59 0 94 34t35 94v282q0 58 -35 92.5t-94 34.5h-96v-221h99v-81h-99v-235z" />
    <glyph glyph-name="Ntilde" unicode="&#xd1;" 
d="M81 0v730h137l212 -607q-2 28 -5 68t-4.5 83t-1.5 79v377h100v-730h-136l-212 607q2 -27 4.5 -65.5t4.5 -80.5t2 -78v-383h-101zM370 811q-31 0 -50 10t-32 23t-25 23.5t-28 10.5q-30 0 -30 -35v-27h-71v31q0 47 26.5 75t69.5 28q31 0 50 -10.5t32 -23.5t25 -23t28 -10
q30 0 30 32v30h71v-32q0 -47 -26.5 -74.5t-69.5 -27.5z" />
    <glyph glyph-name="Ograve" unicode="&#xd2;" 
d="M300 -10q-102 0 -161 58.5t-59 164.5v304q0 106 59 164.5t161 58.5t161 -58.5t59 -163.5v-305q0 -106 -59 -164.5t-161 -58.5zM300 86q54 0 83 30t29 87v324q0 57 -28.5 87t-83.5 30t-83.5 -30t-28.5 -87v-324q0 -57 29 -87t83 -30zM258 810l-116 140h120l108 -140h-112z
" />
    <glyph glyph-name="Oacute" unicode="&#xd3;" 
d="M300 -10q-102 0 -161 58.5t-59 164.5v304q0 106 59 164.5t161 58.5t161 -58.5t59 -163.5v-305q0 -106 -59 -164.5t-161 -58.5zM300 86q54 0 83 30t29 87v324q0 57 -28.5 87t-83.5 30t-83.5 -30t-28.5 -87v-324q0 -57 29 -87t83 -30zM233 810l106 140h116l-113 -140h-109z
" />
    <glyph glyph-name="Ocircumflex" unicode="&#xd4;" 
d="M300 -10q-102 0 -161 58.5t-59 164.5v304q0 106 59 164.5t161 58.5t161 -58.5t59 -163.5v-305q0 -106 -59 -164.5t-161 -58.5zM300 86q54 0 83 30t29 87v324q0 57 -28.5 87t-83.5 30t-83.5 -30t-28.5 -87v-324q0 -57 29 -87t83 -30zM112 810l138 140h100l138 -140h-110
l-79 76l-76 -76h-111z" />
    <glyph glyph-name="Otilde" unicode="&#xd5;" 
d="M300 -10q-102 0 -161 58.5t-59 164.5v304q0 106 59 164.5t161 58.5t161 -58.5t59 -163.5v-305q0 -106 -59 -164.5t-161 -58.5zM300 86q54 0 83 30t29 87v324q0 57 -28.5 87t-83.5 30t-83.5 -30t-28.5 -87v-324q0 -57 29 -87t83 -30zM370 811q-31 0 -50 10t-32 23
t-25 23.5t-28 10.5q-30 0 -30 -35v-27h-71v31q0 47 26.5 75t69.5 28q31 0 50 -10.5t32 -23.5t25 -23t28 -10q30 0 30 32v30h71v-32q0 -47 -26.5 -74.5t-69.5 -27.5z" />
    <glyph glyph-name="Odieresis" unicode="&#xd6;" 
d="M300 -10q-102 0 -161 58.5t-59 164.5v304q0 106 59 164.5t161 58.5t161 -58.5t59 -163.5v-305q0 -106 -59 -164.5t-161 -58.5zM300 86q54 0 83 30t29 87v324q0 57 -28.5 87t-83.5 30t-83.5 -30t-28.5 -87v-324q0 -57 29 -87t83 -30zM414 813q-31 0 -49.5 18t-18.5 49
q0 32 18.5 50.5t49.5 18.5q32 0 50.5 -18.5t18.5 -50.5q0 -31 -18.5 -49t-50.5 -18zM186 813q-32 0 -50.5 18t-18.5 49q0 32 18.5 50.5t50.5 18.5q31 0 50 -18.5t19 -50.5q0 -31 -19 -49t-50 -18z" />
    <glyph glyph-name="multiply" unicode="&#xd7;" 
d="M163 125l-66 68l134 134l-134 136l66 66l136 -134l137 137l67 -67l-138 -138l136 -134l-68 -68l-134 136z" />
    <glyph glyph-name="Oslash" unicode="&#xd8;" 
d="M29 -40l76 133q-25 47 -25 110v324q0 98 59 155.5t161 57.5q89 0 146 -44l31 54h94l-70 -124q19 -43 19 -98v-325q0 -98 -59 -155.5t-161 -57.5q-82 0 -138 38l-39 -68h-94zM186 527v-290l207 366q-29 41 -93 41q-55 0 -84.5 -30t-29.5 -87zM300 86q55 0 84.5 30t29.5 87
v270l-201 -354q30 -33 87 -33z" />
    <glyph glyph-name="Ugrave" unicode="&#xd9;" 
d="M300 -10q-105 0 -162 57.5t-57 156.5v526h108v-525q0 -56 28 -88t83 -32t83 32t28 88v525h108v-526q0 -100 -57 -157t-162 -57zM258 810l-116 140h120l108 -140h-112z" />
    <glyph glyph-name="Uacute" unicode="&#xda;" 
d="M300 -10q-105 0 -162 57.5t-57 156.5v526h108v-525q0 -56 28 -88t83 -32t83 32t28 88v525h108v-526q0 -100 -57 -157t-162 -57zM233 810l106 140h116l-113 -140h-109z" />
    <glyph glyph-name="Ucircumflex" unicode="&#xdb;" 
d="M300 -10q-105 0 -162 57.5t-57 156.5v526h108v-525q0 -56 28 -88t83 -32t83 32t28 88v525h108v-526q0 -100 -57 -157t-162 -57zM112 810l138 140h100l138 -140h-110l-79 76l-76 -76h-111z" />
    <glyph glyph-name="Udieresis" unicode="&#xdc;" 
d="M300 -10q-105 0 -162 57.5t-57 156.5v526h108v-525q0 -56 28 -88t83 -32t83 32t28 88v525h108v-526q0 -100 -57 -157t-162 -57zM414 813q-31 0 -49.5 18t-18.5 49q0 32 18.5 50.5t49.5 18.5q32 0 50.5 -18.5t18.5 -50.5q0 -31 -18.5 -49t-50.5 -18zM186 813
q-32 0 -50.5 18t-18.5 49q0 32 18.5 50.5t50.5 18.5q31 0 50 -18.5t19 -50.5q0 -31 -19 -49t-50 -18z" />
    <glyph glyph-name="Yacute" unicode="&#xdd;" 
d="M246 0v269l-217 461h114l127 -276q13 -27 21 -51t11 -36q3 12 11 36t20 51l126 276h112l-217 -461v-269h-108zM233 810l106 140h116l-113 -140h-109z" />
    <glyph glyph-name="Thorn" unicode="&#xde;" 
d="M84 0v730h108v-145h143q101 0 161 -56t60 -149q0 -94 -59.5 -149t-161.5 -55h-143v-176h-108zM192 269h136q55 0 86.5 29.5t31.5 81.5t-31.5 81.5t-86.5 29.5h-136v-222z" />
    <glyph glyph-name="germandbls" unicode="&#xdf;" 
d="M82 0v527q0 63 28 111t78 75t115 27t114.5 -24t77 -66.5t27.5 -97.5q0 -60 -32.5 -104t-83.5 -56v-2q61 -12 99.5 -63.5t38.5 -121.5q0 -61 -28.5 -107t-80 -72t-119.5 -26h-55v96h47q56 0 91 33.5t35 87.5q0 53 -33.5 86.5t-86.5 33.5h-53v89h42q49 0 80.5 30.5
t31.5 79.5t-31.5 80t-80.5 31q-50 0 -81.5 -33t-31.5 -87v-527h-108z" />
    <glyph glyph-name="agrave" unicode="&#xe0;" 
d="M245 -10q-84 0 -133.5 47.5t-49.5 124.5q0 78 53 125.5t141 47.5h152v40q0 95 -107 95q-48 0 -77 -18t-31 -50h-106q5 69 62 113.5t153 44.5q102 0 158 -48.5t56 -135.5v-376h-106v103h-1q-7 -53 -50 -83t-114 -30zM276 79q61 0 96.5 29.5t35.5 79.5v71h-144
q-43 0 -68.5 -25t-25.5 -64q0 -42 28 -66.5t78 -24.5zM263 645l-116 140h120l108 -140h-112z" />
    <glyph glyph-name="aacute" unicode="&#xe1;" 
d="M245 -10q-84 0 -133.5 47.5t-49.5 124.5q0 78 53 125.5t141 47.5h152v40q0 95 -107 95q-48 0 -77 -18t-31 -50h-106q5 69 62 113.5t153 44.5q102 0 158 -48.5t56 -135.5v-376h-106v103h-1q-7 -53 -50 -83t-114 -30zM276 79q61 0 96.5 29.5t35.5 79.5v71h-144
q-43 0 -68.5 -25t-25.5 -64q0 -42 28 -66.5t78 -24.5zM238 645l106 140h116l-113 -140h-109z" />
    <glyph glyph-name="acircumflex" unicode="&#xe2;" 
d="M245 -10q-84 0 -133.5 47.5t-49.5 124.5q0 78 53 125.5t141 47.5h152v40q0 95 -107 95q-48 0 -77 -18t-31 -50h-106q5 69 62 113.5t153 44.5q102 0 158 -48.5t56 -135.5v-376h-106v103h-1q-7 -53 -50 -83t-114 -30zM276 79q61 0 96.5 29.5t35.5 79.5v71h-144
q-43 0 -68.5 -25t-25.5 -64q0 -42 28 -66.5t78 -24.5zM117 645l138 140h100l138 -140h-110l-79 76l-76 -76h-111z" />
    <glyph glyph-name="atilde" unicode="&#xe3;" 
d="M245 -10q-84 0 -133.5 47.5t-49.5 124.5q0 78 53 125.5t141 47.5h152v40q0 95 -107 95q-48 0 -77 -18t-31 -50h-106q5 69 62 113.5t153 44.5q102 0 158 -48.5t56 -135.5v-376h-106v103h-1q-7 -53 -50 -83t-114 -30zM276 79q61 0 96.5 29.5t35.5 79.5v71h-144
q-43 0 -68.5 -25t-25.5 -64q0 -42 28 -66.5t78 -24.5zM375 646q-31 0 -50 10t-32 23t-25 23.5t-28 10.5q-30 0 -30 -35v-27h-71v31q0 47 26.5 75t69.5 28q31 0 50 -10.5t32 -23.5t25 -23t28 -10q30 0 30 32v30h71v-32q0 -47 -26.5 -74.5t-69.5 -27.5z" />
    <glyph glyph-name="adieresis" unicode="&#xe4;" 
d="M245 -10q-84 0 -133.5 47.5t-49.5 124.5q0 78 53 125.5t141 47.5h152v40q0 95 -107 95q-48 0 -77 -18t-31 -50h-106q5 69 62 113.5t153 44.5q102 0 158 -48.5t56 -135.5v-376h-106v103h-1q-7 -53 -50 -83t-114 -30zM276 79q61 0 96.5 29.5t35.5 79.5v71h-144
q-43 0 -68.5 -25t-25.5 -64q0 -42 28 -66.5t78 -24.5zM419 645q-31 0 -49.5 18.5t-18.5 49.5q0 32 18.5 50.5t49.5 18.5q32 0 50.5 -18.5t18.5 -50.5q0 -31 -18.5 -49.5t-50.5 -18.5zM191 645q-32 0 -50.5 18.5t-18.5 49.5q0 32 18.5 50.5t50.5 18.5q31 0 50 -18.5t19 -50.5
q0 -31 -19 -49.5t-50 -18.5z" />
    <glyph glyph-name="aring" unicode="&#xe5;" 
d="M245 -10q-84 0 -133.5 47.5t-49.5 124.5q0 78 53 125.5t141 47.5h152v40q0 95 -107 95q-48 0 -77 -18t-31 -50h-106q5 69 62 113.5t153 44.5q102 0 158 -48.5t56 -135.5v-376h-106v103h-1q-7 -53 -50 -83t-114 -30zM276 79q61 0 96.5 29.5t35.5 79.5v71h-144
q-43 0 -68.5 -25t-25.5 -64q0 -42 28 -66.5t78 -24.5zM305 605q-57 0 -91.5 32.5t-34.5 85.5t34.5 85.5t91.5 32.5t91.5 -32.5t34.5 -85.5t-34.5 -85.5t-91.5 -32.5zM305 663q27 0 43.5 16.5t16.5 43.5t-16.5 44t-43.5 17t-43.5 -17t-16.5 -44t16.5 -43.5t43.5 -16.5z" />
    <glyph glyph-name="ae" unicode="&#xe6;" 
d="M178 -10q-66 0 -107 47t-41 122q0 74 43.5 120.5t113.5 46.5h70v73q0 38 -16 58.5t-45 20.5q-28 0 -45 -18.5t-17 -49.5h-91q0 67 38.5 108.5t100.5 41.5q48 0 82 -24.5t39 -65.5q5 41 38 65.5t79 24.5q65 0 106 -44.5t41 -115.5v-146h-219v-104q0 -37 16.5 -57.5
t45.5 -20.5t45.5 19t16.5 50h95q0 -67 -40.5 -109t-105.5 -42q-44 0 -77.5 25t-40.5 65q-7 -40 -42 -65t-83 -25zM348 326h124v74q0 36 -16.5 57t-45.5 21q-28 0 -45 -21t-17 -57v-74zM193 72q29 0 46.5 21t17.5 57v104h-69q-29 0 -46 -25t-17 -67q0 -41 18 -65.5t50 -24.5z
" />
    <glyph glyph-name="ccedilla" unicode="&#xe7;" 
d="M204 -210v60h73q23 0 37 11.5t14 24.5q0 19 -28.5 32t-79.5 13l25 65q-76 17 -120 71t-44 136v144q0 99 62 156t165 57q100 0 160 -52t64 -142h-107q-3 47 -34.5 73t-82.5 26q-55 0 -87 -30.5t-32 -86.5v-145q0 -57 32 -87.5t87 -30.5q52 0 83 26t34 74h107
q-4 -90 -64 -142.5t-160 -52.5h-3l-9 -26q27 -3 56.5 -13.5t50 -29t20.5 -45.5q0 -35 -35 -60.5t-91 -25.5h-93z" />
    <glyph glyph-name="egrave" unicode="&#xe8;" 
d="M300 -10q-101 0 -162 59t-61 161v130q0 102 61 161t162 59q68 0 118 -26.5t77.5 -74.5t27.5 -112v-99h-342v-45q0 -58 32 -90t87 -32q45 0 75 16.5t36 45.5h107q-11 -70 -70.5 -111.5t-147.5 -41.5zM181 347v-23h238v24q0 61 -31 94t-88 33t-88 -33.5t-31 -94.5zM258 645
l-116 140h120l108 -140h-112z" />
    <glyph glyph-name="eacute" unicode="&#xe9;" 
d="M300 -10q-101 0 -162 59t-61 161v130q0 102 61 161t162 59q68 0 118 -26.5t77.5 -74.5t27.5 -112v-99h-342v-45q0 -58 32 -90t87 -32q45 0 75 16.5t36 45.5h107q-11 -70 -70.5 -111.5t-147.5 -41.5zM181 347v-23h238v24q0 61 -31 94t-88 33t-88 -33.5t-31 -94.5zM233 645
l106 140h116l-113 -140h-109z" />
    <glyph glyph-name="ecircumflex" unicode="&#xea;" 
d="M300 -10q-101 0 -162 59t-61 161v130q0 102 61 161t162 59q68 0 118 -26.5t77.5 -74.5t27.5 -112v-99h-342v-45q0 -58 32 -90t87 -32q45 0 75 16.5t36 45.5h107q-11 -70 -70.5 -111.5t-147.5 -41.5zM181 347v-23h238v24q0 61 -31 94t-88 33t-88 -33.5t-31 -94.5zM112 645
l138 140h100l138 -140h-110l-79 76l-76 -76h-111z" />
    <glyph glyph-name="edieresis" unicode="&#xeb;" 
d="M300 -10q-101 0 -162 59t-61 161v130q0 102 61 161t162 59q68 0 118 -26.5t77.5 -74.5t27.5 -112v-99h-342v-45q0 -58 32 -90t87 -32q45 0 75 16.5t36 45.5h107q-11 -70 -70.5 -111.5t-147.5 -41.5zM181 347v-23h238v24q0 61 -31 94t-88 33t-88 -33.5t-31 -94.5zM414 645
q-31 0 -49.5 18.5t-18.5 49.5q0 32 18.5 50.5t49.5 18.5q32 0 50.5 -18.5t18.5 -50.5q0 -31 -18.5 -49.5t-50.5 -18.5zM186 645q-32 0 -50.5 18.5t-18.5 49.5q0 32 18.5 50.5t50.5 18.5q31 0 50 -18.5t19 -50.5q0 -31 -19 -49.5t-50 -18.5z" />
    <glyph glyph-name="igrave" unicode="&#xec;" 
d="M81 0v98h191v354h-171v98h279v-452h177v-98h-476zM275 645l-116 140h120l108 -140h-112z" />
    <glyph glyph-name="iacute" unicode="&#xed;" 
d="M81 0v98h191v354h-171v98h279v-452h177v-98h-476zM250 645l106 140h116l-113 -140h-109z" />
    <glyph glyph-name="icircumflex" unicode="&#xee;" 
d="M81 0v98h191v354h-171v98h279v-452h177v-98h-476zM129 645l138 140h100l138 -140h-110l-79 76l-76 -76h-111z" />
    <glyph glyph-name="idieresis" unicode="&#xef;" 
d="M81 0v98h191v354h-171v98h279v-452h177v-98h-476zM431 645q-31 0 -49.5 18.5t-18.5 49.5q0 32 18.5 50.5t49.5 18.5q32 0 50.5 -18.5t18.5 -50.5q0 -31 -18.5 -49.5t-50.5 -18.5zM203 645q-32 0 -50.5 18.5t-18.5 49.5q0 32 18.5 50.5t50.5 18.5q31 0 50 -18.5t19 -50.5
q0 -31 -19 -49.5t-50 -18.5z" />
    <glyph glyph-name="eth" unicode="&#xf0;" 
d="M299 -7q-71 0 -124.5 28.5t-83.5 80t-30 119.5q0 67 26 116.5t73 77t110 27.5q46 0 78 -21.5t44 -41.5h12q-3 7 -19.5 34t-48.5 70l-62 84l-160 -70v88l111 49l-71 96h123l41 -57l153 66v-88l-105 -45l71 -100q50 -68 76 -139.5t26 -135.5q0 -72 -29.5 -125.5t-83.5 -83
t-127 -29.5zM299 87q60 0 96 36.5t36 97.5t-36 98t-96 37q-58 0 -94 -37t-36 -98t36 -97.5t94 -36.5z" />
    <glyph glyph-name="ntilde" unicode="&#xf1;" 
d="M84 0v550h107v-105v0q8 54 46.5 84.5t100.5 30.5q82 0 131 -52.5t49 -141.5v-366h-108v350q0 57 -29 87.5t-79 30.5q-51 0 -80.5 -32t-29.5 -89v-347h-108zM375 646q-31 0 -50 10t-32 23t-25 23.5t-28 10.5q-30 0 -30 -35v-27h-71v31q0 47 26.5 75t69.5 28q31 0 50 -10.5
t32 -23.5t25 -23t28 -10q30 0 30 32v30h71v-32q0 -47 -26.5 -74.5t-69.5 -27.5z" />
    <glyph glyph-name="ograve" unicode="&#xf2;" 
d="M300 -9q-102 0 -162.5 59t-60.5 161v128q0 103 60 161.5t163 58.5t163 -58.5t60 -161.5v-128q0 -102 -60.5 -161t-162.5 -59zM300 86q54 0 84.5 30.5t30.5 87.5v142q0 57 -30.5 87.5t-84.5 30.5t-84.5 -30.5t-30.5 -87.5v-142q0 -57 30.5 -87.5t84.5 -30.5zM258 645
l-116 140h120l108 -140h-112z" />
    <glyph glyph-name="oacute" unicode="&#xf3;" 
d="M300 -9q-102 0 -162.5 59t-60.5 161v128q0 103 60 161.5t163 58.5t163 -58.5t60 -161.5v-128q0 -102 -60.5 -161t-162.5 -59zM300 86q54 0 84.5 30.5t30.5 87.5v142q0 57 -30.5 87.5t-84.5 30.5t-84.5 -30.5t-30.5 -87.5v-142q0 -57 30.5 -87.5t84.5 -30.5zM233 645
l106 140h116l-113 -140h-109z" />
    <glyph glyph-name="ocircumflex" unicode="&#xf4;" 
d="M300 -9q-102 0 -162.5 59t-60.5 161v128q0 103 60 161.5t163 58.5t163 -58.5t60 -161.5v-128q0 -102 -60.5 -161t-162.5 -59zM300 86q54 0 84.5 30.5t30.5 87.5v142q0 57 -30.5 87.5t-84.5 30.5t-84.5 -30.5t-30.5 -87.5v-142q0 -57 30.5 -87.5t84.5 -30.5zM112 645
l138 140h100l138 -140h-110l-79 76l-76 -76h-111z" />
    <glyph glyph-name="otilde" unicode="&#xf5;" 
d="M300 -9q-102 0 -162.5 59t-60.5 161v128q0 103 60 161.5t163 58.5t163 -58.5t60 -161.5v-128q0 -102 -60.5 -161t-162.5 -59zM300 86q54 0 84.5 30.5t30.5 87.5v142q0 57 -30.5 87.5t-84.5 30.5t-84.5 -30.5t-30.5 -87.5v-142q0 -57 30.5 -87.5t84.5 -30.5zM370 646
q-31 0 -50 10t-32 23t-25 23.5t-28 10.5q-30 0 -30 -35v-27h-71v31q0 47 26.5 75t69.5 28q31 0 50 -10.5t32 -23.5t25 -23t28 -10q30 0 30 32v30h71v-32q0 -47 -26.5 -74.5t-69.5 -27.5z" />
    <glyph glyph-name="odieresis" unicode="&#xf6;" 
d="M300 -9q-102 0 -162.5 59t-60.5 161v128q0 103 60 161.5t163 58.5t163 -58.5t60 -161.5v-128q0 -102 -60.5 -161t-162.5 -59zM300 86q54 0 84.5 30.5t30.5 87.5v142q0 57 -30.5 87.5t-84.5 30.5t-84.5 -30.5t-30.5 -87.5v-142q0 -57 30.5 -87.5t84.5 -30.5zM414 645
q-31 0 -49.5 18.5t-18.5 49.5q0 32 18.5 50.5t49.5 18.5q32 0 50.5 -18.5t18.5 -50.5q0 -31 -18.5 -49.5t-50.5 -18.5zM186 645q-32 0 -50.5 18.5t-18.5 49.5q0 32 18.5 50.5t50.5 18.5q31 0 50 -18.5t19 -50.5q0 -31 -19 -49.5t-50 -18.5z" />
    <glyph glyph-name="divide" unicode="&#xf7;" 
d="M300 460q-40 0 -64 22t-24 58q0 35 24 57t64 22t64 -22t24 -57q0 -36 -24 -58t-64 -22zM100 285v94h400v-94h-400zM300 45q-40 0 -64 21.5t-24 57.5t24 58t64 22t64 -22t24 -58t-24 -57.5t-64 -21.5z" />
    <glyph glyph-name="oslash" unicode="&#xf8;" 
d="M32 -30l79 112q-31 51 -31 121v144q0 98 59 155.5t161 57.5q74 0 127 -31l43 61h98l-82 -116q34 -52 34 -126v-145q0 -98 -59 -155.5t-161 -57.5q-78 0 -132 34l-38 -54h-98zM181 203q0 -11 1 -20l187 265q-28 17 -69 17q-56 0 -87.5 -31t-31.5 -87v-144zM300 85
q56 0 87.5 31t31.5 87v144q0 15 -3 29l-191 -270q30 -21 75 -21z" />
    <glyph glyph-name="ugrave" unicode="&#xf9;" 
d="M299 -10q-100 0 -158.5 57.5t-58.5 156.5v346h108v-345q0 -56 29 -88.5t80 -32.5q52 0 81.5 32.5t29.5 88.5v345h108v-346q0 -99 -59.5 -156.5t-159.5 -57.5zM258 645l-116 140h120l108 -140h-112z" />
    <glyph glyph-name="uacute" unicode="&#xfa;" 
d="M299 -10q-100 0 -158.5 57.5t-58.5 156.5v346h108v-345q0 -56 29 -88.5t80 -32.5q52 0 81.5 32.5t29.5 88.5v345h108v-346q0 -99 -59.5 -156.5t-159.5 -57.5zM233 645l106 140h116l-113 -140h-109z" />
    <glyph glyph-name="ucircumflex" unicode="&#xfb;" 
d="M299 -10q-100 0 -158.5 57.5t-58.5 156.5v346h108v-345q0 -56 29 -88.5t80 -32.5q52 0 81.5 32.5t29.5 88.5v345h108v-346q0 -99 -59.5 -156.5t-159.5 -57.5zM112 645l138 140h100l138 -140h-110l-79 76l-76 -76h-111z" />
    <glyph glyph-name="udieresis" unicode="&#xfc;" 
d="M299 -10q-100 0 -158.5 57.5t-58.5 156.5v346h108v-345q0 -56 29 -88.5t80 -32.5q52 0 81.5 32.5t29.5 88.5v345h108v-346q0 -99 -59.5 -156.5t-159.5 -57.5zM414 645q-31 0 -49.5 18.5t-18.5 49.5q0 32 18.5 50.5t49.5 18.5q32 0 50.5 -18.5t18.5 -50.5
q0 -31 -18.5 -49.5t-50.5 -18.5zM186 645q-32 0 -50.5 18.5t-18.5 49.5q0 32 18.5 50.5t50.5 18.5q31 0 50 -18.5t19 -50.5q0 -31 -19 -49.5t-50 -18.5z" />
    <glyph glyph-name="yacute" unicode="&#xfd;" 
d="M171 -180l80 212l-206 518h115l117 -310q9 -22 17 -48t11 -46q4 20 11.5 46t15.5 48l109 310h114l-271 -730h-113zM233 645l106 140h116l-113 -140h-109z" />
    <glyph glyph-name="thorn" unicode="&#xfe;" 
d="M81 -170v900h108v-157l-3 -127q12 53 52 83.5t100 30.5q82 0 131 -56t49 -152v-155q0 -95 -49.5 -151t-130.5 -56q-60 0 -99.5 30t-51.5 84v-274h-106zM299 84q52 0 81.5 27.5t29.5 88.5v151q0 60 -29.5 87.5t-81.5 27.5t-81 -31.5t-29 -88.5v-141q0 -58 29 -89.5
t81 -31.5z" />
    <glyph glyph-name="ydieresis" unicode="&#xff;" 
d="M171 -180l80 212l-206 518h115l117 -310q9 -22 17 -48t11 -46q4 20 11.5 46t15.5 48l109 310h114l-271 -730h-113zM414 645q-31 0 -49.5 18.5t-18.5 49.5q0 32 18.5 50.5t49.5 18.5q32 0 50.5 -18.5t18.5 -50.5q0 -31 -18.5 -49.5t-50.5 -18.5zM186 645q-32 0 -50.5 18.5
t-18.5 49.5q0 32 18.5 50.5t50.5 18.5q31 0 50 -18.5t19 -50.5q0 -31 -19 -49.5t-50 -18.5z" />
    <glyph glyph-name="Amacron" unicode="&#x100;" 
d="M43 0l186 730h142l187 -730h-110l-44 185h-207l-44 -185h-110zM217 275h166l-50 210q-13 56 -21.5 97t-11.5 57q-3 -16 -11 -57t-22 -96zM134 834v86h332v-86h-332z" />
    <glyph glyph-name="amacron" unicode="&#x101;" 
d="M245 -10q-84 0 -133.5 47.5t-49.5 124.5q0 78 53 125.5t141 47.5h152v40q0 95 -107 95q-48 0 -77 -18t-31 -50h-106q5 69 62 113.5t153 44.5q102 0 158 -48.5t56 -135.5v-376h-106v103h-1q-7 -53 -50 -83t-114 -30zM276 79q61 0 96.5 29.5t35.5 79.5v71h-144
q-43 0 -68.5 -25t-25.5 -64q0 -42 28 -66.5t78 -24.5zM139 666v85h332v-85h-332z" />
    <glyph glyph-name="Abreve" unicode="&#x102;" 
d="M43 0l186 730h142l187 -730h-110l-44 185h-207l-44 -185h-110zM217 275h166l-50 210q-13 56 -21.5 97t-11.5 57q-3 -16 -11 -57t-22 -96zM300 804q-75 0 -121 40t-46 106h84q0 -36 22.5 -58t59.5 -22q38 0 61 22t23 58h85q0 -66 -46.5 -106t-121.5 -40z" />
    <glyph glyph-name="abreve" unicode="&#x103;" 
d="M245 -10q-84 0 -133.5 47.5t-49.5 124.5q0 78 53 125.5t141 47.5h152v40q0 95 -107 95q-48 0 -77 -18t-31 -50h-106q5 69 62 113.5t153 44.5q102 0 158 -48.5t56 -135.5v-376h-106v103h-1q-7 -53 -50 -83t-114 -30zM276 79q61 0 96.5 29.5t35.5 79.5v71h-144
q-43 0 -68.5 -25t-25.5 -64q0 -42 28 -66.5t78 -24.5zM305 639q-75 0 -121 40t-46 106h84q0 -36 22.5 -58t59.5 -22q38 0 61 22t23 58h85q0 -66 -46.5 -106t-121.5 -40z" />
    <glyph glyph-name="Aogonek" unicode="&#x104;" 
d="M43 0l186 730h142l187 -730h-29l-6 -5q-57 -48 -57 -85q0 -20 14 -33t38 -13h63v-74h-87q-57 0 -91 28t-34 70q0 29 19 57t60 56l-44 184h-207l-44 -185h-110zM217 275h166l-50 210q-13 56 -21.5 97t-11.5 57q-3 -16 -11 -57t-22 -96z" />
    <glyph glyph-name="aogonek" unicode="&#x105;" 
d="M245 -10q-84 0 -133.5 47.5t-49.5 124.5q0 78 53 125.5t141 47.5h152v40q0 95 -107 95q-48 0 -77 -18t-31 -50h-106q5 69 62 113.5t153 44.5q102 0 158 -48.5t56 -135.5v-376h2q-34 -29 -48.5 -50t-14.5 -40q0 -20 14 -33t38 -13h63v-74h-87q-57 0 -91 28t-34 71
q0 27 18.5 55.5t58.5 55.5h-25v103h-1q-7 -53 -50 -83t-114 -30zM276 79q61 0 96.5 29.5t35.5 79.5v71h-144q-43 0 -68.5 -25t-25.5 -64q0 -42 28 -66.5t78 -24.5z" />
    <glyph glyph-name="Cacute" unicode="&#x106;" 
d="M308 -10q-103 0 -163.5 57.5t-60.5 155.5v324q0 99 60.5 156t163.5 57q102 0 162.5 -57.5t60.5 -155.5h-108q0 57 -30.5 87t-84.5 30q-55 0 -85.5 -30t-30.5 -87v-324q0 -57 30.5 -87t85.5 -30q54 0 84.5 30t30.5 87h108q0 -98 -60.5 -155.5t-162.5 -57.5zM238 810
l106 140h116l-113 -140h-109z" />
    <glyph glyph-name="cacute" unicode="&#x107;" 
d="M308 -10q-103 0 -165 57t-62 156v144q0 99 62 156t165 57q100 0 160 -52t64 -142h-107q-3 47 -34.5 73t-82.5 26q-55 0 -87 -30.5t-32 -86.5v-145q0 -57 32 -87.5t87 -30.5q52 0 83 26t34 74h107q-4 -90 -64 -142.5t-160 -52.5zM241 645l106 140h116l-113 -140h-109z" />
    <glyph glyph-name="Ccircumflex" unicode="&#x108;" 
d="M308 -10q-103 0 -163.5 57.5t-60.5 155.5v324q0 99 60.5 156t163.5 57q102 0 162.5 -57.5t60.5 -155.5h-108q0 57 -30.5 87t-84.5 30q-55 0 -85.5 -30t-30.5 -87v-324q0 -57 30.5 -87t85.5 -30q54 0 84.5 30t30.5 87h108q0 -98 -60.5 -155.5t-162.5 -57.5zM117 810
l138 140h100l138 -140h-110l-79 76l-76 -76h-111z" />
    <glyph glyph-name="ccircumflex" unicode="&#x109;" 
d="M308 -10q-103 0 -165 57t-62 156v144q0 99 62 156t165 57q100 0 160 -52t64 -142h-107q-3 47 -34.5 73t-82.5 26q-55 0 -87 -30.5t-32 -86.5v-145q0 -57 32 -87.5t87 -30.5q52 0 83 26t34 74h107q-4 -90 -64 -142.5t-160 -52.5zM120 645l138 140h100l138 -140h-110
l-79 76l-76 -76h-111z" />
    <glyph glyph-name="Cdotaccent" unicode="&#x10a;" 
d="M308 -10q-103 0 -163.5 57.5t-60.5 155.5v324q0 99 60.5 156t163.5 57q102 0 162.5 -57.5t60.5 -155.5h-108q0 57 -30.5 87t-84.5 30q-55 0 -85.5 -30t-30.5 -87v-324q0 -57 30.5 -87t85.5 -30q54 0 84.5 30t30.5 87h108q0 -98 -60.5 -155.5t-162.5 -57.5zM305 812
q-35 0 -56 18.5t-21 49.5t21 49.5t56 18.5t56 -18.5t21 -49.5t-21 -49.5t-56 -18.5z" />
    <glyph glyph-name="cdotaccent" unicode="&#x10b;" 
d="M308 -10q-103 0 -165 57t-62 156v144q0 99 62 156t165 57q100 0 160 -52t64 -142h-107q-3 47 -34.5 73t-82.5 26q-55 0 -87 -30.5t-32 -86.5v-145q0 -57 32 -87.5t87 -30.5q52 0 83 26t34 74h107q-4 -90 -64 -142.5t-160 -52.5zM308 645q-35 0 -56 18.5t-21 49.5
q0 32 21 50.5t56 18.5t56 -18.5t21 -50.5q0 -31 -21 -49.5t-56 -18.5z" />
    <glyph glyph-name="Ccaron" unicode="&#x10c;" 
d="M308 -10q-103 0 -163.5 57.5t-60.5 155.5v324q0 99 60.5 156t163.5 57q102 0 162.5 -57.5t60.5 -155.5h-108q0 57 -30.5 87t-84.5 30q-55 0 -85.5 -30t-30.5 -87v-324q0 -57 30.5 -87t85.5 -30q54 0 84.5 30t30.5 87h108q0 -98 -60.5 -155.5t-162.5 -57.5zM255 810
l-138 140h110l79 -76l76 76h111l-138 -140h-100z" />
    <glyph glyph-name="ccaron" unicode="&#x10d;" 
d="M308 -10q-103 0 -165 57t-62 156v144q0 99 62 156t165 57q100 0 160 -52t64 -142h-107q-3 47 -34.5 73t-82.5 26q-55 0 -87 -30.5t-32 -86.5v-145q0 -57 32 -87.5t87 -30.5q52 0 83 26t34 74h107q-4 -90 -64 -142.5t-160 -52.5zM258 645l-138 140h110l79 -76l76 76h111
l-138 -140h-100z" />
    <glyph glyph-name="Dcaron" unicode="&#x10e;" 
d="M83 0v730h204q72 0 125 -27.5t82.5 -78t29.5 -117.5v-282q0 -69 -29.5 -119t-82.5 -78t-125 -28h-204zM191 97h96q59 0 94 34t35 94v282q0 58 -35 92.5t-94 34.5h-96v-537zM250 810l-138 140h110l79 -76l76 76h111l-138 -140h-100z" />
    <glyph glyph-name="dcaron" unicode="&#x10f;" 
d="M221 -10q-76 0 -120.5 54.5t-44.5 147.5v165q0 94 44.5 148.5t120.5 54.5q54 0 88.5 -31t41.5 -84h3l-3 128v157h105v-730h-103v105h-2q-7 -53 -41.5 -84t-88.5 -31zM500 550l14 180h96l-23 -180h-87zM258 81q44 0 68.5 31t24.5 86v154q0 56 -24.5 86.5t-68.5 30.5
q-46 0 -71.5 -30.5t-25.5 -86.5v-154q0 -55 25.5 -86t71.5 -31z" />
    <glyph glyph-name="Dcroat" unicode="&#x110;" 
d="M83 0v332h-73v81h73v317h204q72 0 125 -27.5t82.5 -78t29.5 -117.5v-282q0 -69 -29.5 -119t-82.5 -78t-125 -28h-204zM191 97h96q59 0 94 34t35 94v282q0 58 -35 92.5t-94 34.5h-96v-221h99v-81h-99v-235z" />
    <glyph glyph-name="dcroat" unicode="&#x111;" 
d="M261 -10q-83 0 -131.5 55.5t-48.5 151.5v95q0 96 48 152t132 56q60 0 99 -30.5t46 -84.5h3l-3 128v53h-159v79h159v85h108v-85h86v-79h-86v-566h-106v105h-2q-7 -54 -45.5 -84.5t-99.5 -30.5zM298 84q51 0 79.5 31t28.5 88v84q0 56 -28.5 87.5t-79.5 31.5q-53 0 -81 -31
t-28 -88v-84q0 -58 28 -88.5t81 -30.5z" />
    <glyph glyph-name="Emacron" unicode="&#x112;" 
d="M94 0v730h429v-96h-323v-208h288v-93h-288v-237h323v-96h-429zM143 834v86h332v-86h-332z" />
    <glyph glyph-name="emacron" unicode="&#x113;" 
d="M300 -10q-101 0 -162 59t-61 161v130q0 102 61 161t162 59q68 0 118 -26.5t77.5 -74.5t27.5 -112v-99h-342v-45q0 -58 32 -90t87 -32q45 0 75 16.5t36 45.5h107q-11 -70 -70.5 -111.5t-147.5 -41.5zM181 347v-23h238v24q0 61 -31 94t-88 33t-88 -33.5t-31 -94.5zM134 666
v85h332v-85h-332z" />
    <glyph glyph-name="Ebreve" unicode="&#x114;" 
d="M94 0v730h429v-96h-323v-208h288v-93h-288v-237h323v-96h-429zM309 804q-75 0 -121 40t-46 106h84q0 -36 22.5 -58t59.5 -22q38 0 61 22t23 58h85q0 -66 -46.5 -106t-121.5 -40z" />
    <glyph glyph-name="ebreve" unicode="&#x115;" 
d="M300 -10q-101 0 -162 59t-61 161v130q0 102 61 161t162 59q68 0 118 -26.5t77.5 -74.5t27.5 -112v-99h-342v-45q0 -58 32 -90t87 -32q45 0 75 16.5t36 45.5h107q-11 -70 -70.5 -111.5t-147.5 -41.5zM181 347v-23h238v24q0 61 -31 94t-88 33t-88 -33.5t-31 -94.5zM300 639
q-75 0 -121 40t-46 106h84q0 -36 22.5 -58t59.5 -22q38 0 61 22t23 58h85q0 -66 -46.5 -106t-121.5 -40z" />
    <glyph glyph-name="Edotaccent" unicode="&#x116;" 
d="M94 0v730h429v-96h-323v-208h288v-93h-288v-237h323v-96h-429zM309 812q-35 0 -56 18.5t-21 49.5t21 49.5t56 18.5t56 -18.5t21 -49.5t-21 -49.5t-56 -18.5z" />
    <glyph glyph-name="edotaccent" unicode="&#x117;" 
d="M300 -10q-101 0 -162 59t-61 161v130q0 102 61 161t162 59q68 0 118 -26.5t77.5 -74.5t27.5 -112v-99h-342v-45q0 -58 32 -90t87 -32q45 0 75 16.5t36 45.5h107q-11 -70 -70.5 -111.5t-147.5 -41.5zM181 347v-23h238v24q0 61 -31 94t-88 33t-88 -33.5t-31 -94.5zM300 645
q-35 0 -56 18.5t-21 49.5q0 32 21 50.5t56 18.5t56 -18.5t21 -50.5q0 -31 -21 -49.5t-56 -18.5z" />
    <glyph glyph-name="Eogonek" unicode="&#x118;" 
d="M94 0v730h429v-96h-323v-208h288v-93h-288v-237h323v-96h-48l-5 -5q-57 -48 -57 -85q0 -20 14 -33t38 -13h63v-74h-87q-57 0 -91 28t-34 71q0 27 18.5 55.5t58.5 55.5h-299z" />
    <glyph glyph-name="eogonek" unicode="&#x119;" 
d="M369 -210q-57 0 -91 28t-34 70q0 50 68 104q-6 -2 -12 -2q-67 0 -116.5 26.5t-76.5 74.5t-27 112v144q0 64 27 112t76.5 74.5t116.5 26.5q68 0 117.5 -26.5t76 -74.5t26.5 -112v-98h-336v-46q0 -125 117 -125q95 0 109 65h108q-7 -41 -31.5 -73t-61.5 -51l-27 -24
q-57 -48 -57 -85q0 -20 14 -33t38 -13h63v-74h-87zM184 347v-25l232 1v25q0 61 -29 93.5t-87 32.5t-87 -33t-29 -94z" />
    <glyph glyph-name="Ecaron" unicode="&#x11a;" 
d="M94 0v730h429v-96h-323v-208h288v-93h-288v-237h323v-96h-429zM259 810l-138 140h110l79 -76l76 76h111l-138 -140h-100z" />
    <glyph glyph-name="ecaron" unicode="&#x11b;" 
d="M300 -10q-101 0 -162 59t-61 161v130q0 102 61 161t162 59q68 0 118 -26.5t77.5 -74.5t27.5 -112v-99h-342v-45q0 -58 32 -90t87 -32q45 0 75 16.5t36 45.5h107q-11 -70 -70.5 -111.5t-147.5 -41.5zM181 347v-23h238v24q0 61 -31 94t-88 33t-88 -33.5t-31 -94.5zM250 645
l-138 140h110l79 -76l76 76h111l-138 -140h-100z" />
    <glyph glyph-name="Gcircumflex" unicode="&#x11c;" 
d="M304 -10q-103 0 -163.5 57.5t-60.5 155.5v324q0 99 60.5 156t163.5 57q102 0 162.5 -57.5t60.5 -155.5h-108q0 57 -30.5 87t-84.5 30q-55 0 -85.5 -30t-30.5 -86v-325q0 -57 30.5 -87.5t85.5 -30.5q54 0 84.5 30.5t30.5 87.5v90h-136v96h244v-186q0 -98 -60.5 -155.5
t-162.5 -57.5zM112 810l138 140h100l138 -140h-110l-79 76l-76 -76h-111z" />
    <glyph glyph-name="gcircumflex" unicode="&#x11d;" 
d="M156 -180v93h155q45 0 71 25t26 68v41l2 92q-13 -49 -51.5 -76t-95.5 -27q-85 0 -134 55t-49 151v111q0 95 49 151t134 56q57 0 95 -27t51 -76v93h106v-546q0 -85 -54.5 -134.5t-148.5 -49.5h-156zM298 127q51 0 80.5 31.5t29.5 88.5v100q0 56 -29.5 87.5t-80.5 31.5
q-53 0 -81.5 -30t-28.5 -82v-114q0 -53 28.5 -83t81.5 -30zM109 645l138 140h100l138 -140h-110l-79 76l-76 -76h-111z" />
    <glyph glyph-name="Gbreve" unicode="&#x11e;" 
d="M304 -10q-103 0 -163.5 57.5t-60.5 155.5v324q0 99 60.5 156t163.5 57q102 0 162.5 -57.5t60.5 -155.5h-108q0 57 -30.5 87t-84.5 30q-55 0 -85.5 -30t-30.5 -86v-325q0 -57 30.5 -87.5t85.5 -30.5q54 0 84.5 30.5t30.5 87.5v90h-136v96h244v-186q0 -98 -60.5 -155.5
t-162.5 -57.5zM300 804q-75 0 -121 40t-46 106h84q0 -36 22.5 -58t59.5 -22q38 0 61 22t23 58h85q0 -66 -46.5 -106t-121.5 -40z" />
    <glyph glyph-name="gbreve" unicode="&#x11f;" 
d="M156 -180v93h155q45 0 71 25t26 68v41l2 92q-13 -49 -51.5 -76t-95.5 -27q-85 0 -134 55t-49 151v111q0 95 49 151t134 56q57 0 95 -27t51 -76v93h106v-546q0 -85 -54.5 -134.5t-148.5 -49.5h-156zM298 127q51 0 80.5 31.5t29.5 88.5v100q0 56 -29.5 87.5t-80.5 31.5
q-53 0 -81.5 -30t-28.5 -82v-114q0 -53 28.5 -83t81.5 -30zM297 639q-75 0 -121 40t-46 106h84q0 -36 22.5 -58t59.5 -22q38 0 61 22t23 58h85q0 -66 -46.5 -106t-121.5 -40z" />
    <glyph glyph-name="Gdotaccent" unicode="&#x120;" 
d="M304 -10q-103 0 -163.5 57.5t-60.5 155.5v324q0 99 60.5 156t163.5 57q102 0 162.5 -57.5t60.5 -155.5h-108q0 57 -30.5 87t-84.5 30q-55 0 -85.5 -30t-30.5 -86v-325q0 -57 30.5 -87.5t85.5 -30.5q54 0 84.5 30.5t30.5 87.5v90h-136v96h244v-186q0 -98 -60.5 -155.5
t-162.5 -57.5zM300 812q-35 0 -56 18.5t-21 49.5t21 49.5t56 18.5t56 -18.5t21 -49.5t-21 -49.5t-56 -18.5z" />
    <glyph glyph-name="gdotaccent" unicode="&#x121;" 
d="M156 -180v93h155q45 0 71 25t26 68v41l2 92q-13 -49 -51.5 -76t-95.5 -27q-85 0 -134 55t-49 151v111q0 95 49 151t134 56q57 0 95 -27t51 -76v93h106v-546q0 -85 -54.5 -134.5t-148.5 -49.5h-156zM298 127q51 0 80.5 31.5t29.5 88.5v100q0 56 -29.5 87.5t-80.5 31.5
q-53 0 -81.5 -30t-28.5 -82v-114q0 -53 28.5 -83t81.5 -30zM297 645q-35 0 -56 18.5t-21 49.5q0 32 21 50.5t56 18.5t56 -18.5t21 -50.5q0 -31 -21 -49.5t-56 -18.5z" />
    <glyph glyph-name="uni0122" unicode="&#x122;" 
d="M304 -10q-103 0 -163.5 57.5t-60.5 155.5v324q0 99 60.5 156t163.5 57q102 0 162.5 -57.5t60.5 -155.5h-108q0 57 -30.5 87t-84.5 30q-55 0 -85.5 -30t-30.5 -86v-325q0 -57 30.5 -87.5t85.5 -30.5q54 0 84.5 30.5t30.5 87.5v90h-136v96h244v-186q0 -98 -60.5 -155.5
t-162.5 -57.5zM190 -240l95 145h118l-108 -145h-105z" />
    <glyph glyph-name="uni0123" unicode="&#x123;" 
d="M156 -180v93h155q45 0 71 25t26 68v41l2 92q-13 -49 -51.5 -76t-95.5 -27q-85 0 -134 55t-49 151v111q0 95 49 151t134 56q57 0 95 -27t51 -76v93h106v-546q0 -85 -54.5 -134.5t-148.5 -49.5h-156zM298 127q51 0 80.5 31.5t29.5 88.5v100q0 56 -29.5 87.5t-80.5 31.5
q-53 0 -81.5 -30t-28.5 -82v-114q0 -53 28.5 -83t81.5 -30zM420 880l-80 -235h-139l130 235h89z" />
    <glyph glyph-name="Hcircumflex" unicode="&#x124;" 
d="M85 0v730h108v-304h214v304h108v-730h-108v329h-214v-329h-108zM112 810l138 140h100l138 -140h-110l-79 76l-76 -76h-111z" />
    <glyph glyph-name="hcircumflex" unicode="&#x125;" 
d="M84 0v730h108v-180l-1 -105v0q8 54 46.5 84.5t100.5 30.5q82 0 131 -52.5t49 -141.5v-366h-108v351q0 56 -29 86.5t-79 30.5q-51 0 -80.5 -32t-29.5 -89v-347h-108zM-49 825l138 140h100l138 -140h-110l-79 76l-76 -76h-111z" />
    <glyph glyph-name="Hbar" unicode="&#x126;" 
d="M85 0v525h-75v81h75v124h108v-124h214v124h108v-124h75v-81h-75v-525h-108v329h-214v-329h-108zM193 426h214v99h-214v-99z" />
    <glyph glyph-name="hbar" unicode="&#x127;" 
d="M0 566v79h84v85h108v-85h161v-79h-161v-76l-1 -105h1q8 55 46 85t100 30q82 0 131 -52.5t49 -141.5v-306h-108v294q0 54 -29 84t-79 30q-51 0 -80.5 -32t-29.5 -89v-287h-108v566h-84z" />
    <glyph glyph-name="Itilde" unicode="&#x128;" 
d="M98 0v98h147v534h-147v98h405v-98h-148v-534h148v-98h-405zM370 811q-31 0 -50 10t-32 23t-25 23.5t-28 10.5q-30 0 -30 -35v-27h-71v31q0 47 26.5 75t69.5 28q31 0 50 -10.5t32 -23.5t25 -23t28 -10q30 0 30 32v30h71v-32q0 -47 -26.5 -74.5t-69.5 -27.5z" />
    <glyph glyph-name="itilde" unicode="&#x129;" 
d="M81 0v98h191v354h-171v98h279v-452h177v-98h-476zM387 646q-31 0 -50 10t-32 23t-25 23.5t-28 10.5q-30 0 -30 -35v-27h-71v31q0 47 26.5 75t69.5 28q31 0 50 -10.5t32 -23.5t25 -23t28 -10q30 0 30 32v30h71v-32q0 -47 -26.5 -74.5t-69.5 -27.5z" />
    <glyph glyph-name="Imacron" unicode="&#x12a;" 
d="M98 0v98h147v534h-147v98h405v-98h-148v-534h148v-98h-405zM134 834v86h332v-86h-332z" />
    <glyph glyph-name="imacron" unicode="&#x12b;" 
d="M81 0v98h191v354h-171v98h279v-452h177v-98h-476zM151 666v85h332v-85h-332z" />
    <glyph glyph-name="Ibreve" unicode="&#x12c;" 
d="M98 0v98h147v534h-147v98h405v-98h-148v-534h148v-98h-405zM300 804q-75 0 -121 40t-46 106h84q0 -36 22.5 -58t59.5 -22q38 0 61 22t23 58h85q0 -66 -46.5 -106t-121.5 -40z" />
    <glyph glyph-name="ibreve" unicode="&#x12d;" 
d="M81 0v98h191v354h-171v98h279v-452h177v-98h-476zM317 639q-75 0 -121 40t-46 106h84q0 -36 22.5 -58t59.5 -22q38 0 61 22t23 58h85q0 -66 -46.5 -106t-121.5 -40z" />
    <glyph glyph-name="Iogonek" unicode="&#x12e;" 
d="M98 0v98h147v534h-147v98h405v-98h-148v-534h148v-98h-165l-5 -5q-57 -48 -57 -85q0 -20 14 -33t38 -13h63v-74h-87q-57 0 -91 28t-34 71q0 27 18.5 55.5t58.5 55.5h-158z" />
    <glyph glyph-name="iogonek" unicode="&#x12f;" 
d="M317 645q-36 0 -56.5 18.5t-20.5 49.5q0 32 20.5 50.5t56.5 18.5q35 0 55.5 -18.5t20.5 -50.5q0 -31 -20.5 -49.5t-55.5 -18.5zM81 0v98h191v354h-171v98h279v-452h177v-98h-202l-6 -5q-57 -48 -57 -85q0 -20 14 -33t39 -13h62v-74h-87q-57 0 -90.5 28t-33.5 71
q0 27 18 55.5t58 55.5h-191z" />
    <glyph glyph-name="Idotaccent" unicode="&#x130;" 
d="M98 0v98h147v534h-147v98h405v-98h-148v-534h148v-98h-405zM300 812q-35 0 -56 18.5t-21 49.5t21 49.5t56 18.5t56 -18.5t21 -49.5t-21 -49.5t-56 -18.5z" />
    <glyph glyph-name="dotlessi" unicode="&#x131;" 
d="M81 0v98h191v354h-171v98h279v-452h177v-98h-476z" />
    <glyph glyph-name="Jcircumflex" unicode="&#x134;" 
d="M270 -10q-108 0 -170 60t-62 163h108q0 -60 32.5 -94t91.5 -34q58 0 91.5 33.5t33.5 94.5v517h108v-517q0 -103 -62.5 -163t-170.5 -60zM262 810l138 140h100l138 -140h-110l-79 76l-76 -76h-111z" />
    <glyph glyph-name="jcircumflex" unicode="&#x135;" 
d="M86 -180v98h134q55 0 86.5 31t31.5 86v417h-257v98h365v-516q0 -99 -60 -156.5t-162 -57.5h-138zM195 645l138 140h100l138 -140h-110l-79 76l-76 -76h-111z" />
    <glyph glyph-name="uni0136" unicode="&#x136;" 
d="M84 0v730h108v-306h97l150 306h117l-173 -350l182 -380h-122l-156 330h-95v-330h-108zM186 -240l95 145h118l-108 -145h-105z" />
    <glyph glyph-name="uni0137" unicode="&#x137;" 
d="M89 0v730h108v-401h97l142 221h121l-169 -264l177 -286h-124l-146 236h-98v-236h-108zM186 -240l95 145h118l-108 -145h-105z" />
    <glyph glyph-name="kgreenlandic" unicode="&#x138;" 
d="M94 0v550h108v-219h98l138 219h122l-168 -265l178 -285h-124l-146 233h-98v-233h-108z" />
    <glyph glyph-name="Lacute" unicode="&#x139;" 
d="M126 0v730h108v-632h319v-98h-427zM113 810l106 140h116l-113 -140h-109z" />
    <glyph glyph-name="lacute" unicode="&#x13a;" 
d="M385 0q-78 0 -124.5 45.5t-46.5 121.5v465h-185v98h293v-561q0 -33 18 -52t49 -19h166v-98h-170zM182 810l106 140h116l-113 -140h-109z" />
    <glyph glyph-name="uni013B" unicode="&#x13b;" 
d="M126 0v730h108v-632h319v-98h-427zM226 -240l95 145h118l-108 -145h-105z" />
    <glyph glyph-name="uni013C" unicode="&#x13c;" 
d="M385 0q-78 0 -124.5 45.5t-46.5 121.5v465h-185v98h293v-561q0 -33 18 -52t49 -19h166v-98h-170zM206 -240l95 145h118l-108 -145h-105z" />
    <glyph glyph-name="Lcaron" unicode="&#x13d;" 
d="M126 0v730h108v-632h319v-98h-427zM345 550l14 180h96l-23 -180h-87z" />
    <glyph glyph-name="lcaron" unicode="&#x13e;" 
d="M385 0q-78 0 -124.5 45.5t-46.5 121.5v465h-185v98h293v-561q0 -33 18 -52t49 -19h166v-98h-170zM414 550l14 180h96l-23 -180h-87z" />
    <glyph glyph-name="Ldot" unicode="&#x13f;" 
d="M126 0v730h108v-632h319v-98h-427zM473 265q-39 0 -63.5 23.5t-24.5 62.5t24.5 63.5t63.5 24.5t63.5 -24.5t24.5 -63.5t-24.5 -62.5t-63.5 -23.5z" />
    <glyph glyph-name="ldot" unicode="&#x140;" 
d="M365 0q-78 0 -124.5 45.5t-46.5 121.5v465h-185v98h293v-561q0 -33 18 -52t49 -19h166v-98h-170zM554 265q-39 0 -63.5 23.5t-24.5 62.5t24.5 63.5t63.5 24.5t63.5 -24.5t24.5 -63.5t-24.5 -62.5t-63.5 -23.5z" />
    <glyph glyph-name="Lslash" unicode="&#x141;" 
d="M129 0v297l-109 -67v98l109 67v335h108v-267l156 97v-98l-156 -97v-267h319v-98h-427z" />
    <glyph glyph-name="lslash" unicode="&#x142;" 
d="M100 230v98l114 71v233h-185v98h293v-264l151 94v-98l-151 -94v-199q0 -33 18 -52t49 -19h166v-98h-170q-78 0 -124.5 45.5t-46.5 121.5v134z" />
    <glyph glyph-name="Nacute" unicode="&#x143;" 
d="M81 0v730h137l212 -607q-2 28 -5 68t-4.5 83t-1.5 79v377h100v-730h-136l-212 607q2 -27 4.5 -65.5t4.5 -80.5t2 -78v-383h-101zM233 810l106 140h116l-113 -140h-109z" />
    <glyph glyph-name="nacute" unicode="&#x144;" 
d="M84 0v550h107v-105v0q8 54 46.5 84.5t100.5 30.5q82 0 131 -52.5t49 -141.5v-366h-108v350q0 57 -29 87.5t-79 30.5q-51 0 -80.5 -32t-29.5 -89v-347h-108zM238 645l106 140h116l-113 -140h-109z" />
    <glyph glyph-name="uni0145" unicode="&#x145;" 
d="M81 0v730h137l212 -607q-2 28 -5 68t-4.5 83t-1.5 79v377h100v-730h-136l-212 607q2 -27 4.5 -65.5t4.5 -80.5t2 -78v-383h-101zM186 -240l95 145h118l-108 -145h-105z" />
    <glyph glyph-name="uni0146" unicode="&#x146;" 
d="M84 0v550h107v-105v0q8 54 46.5 84.5t100.5 30.5q82 0 131 -52.5t49 -141.5v-366h-108v350q0 57 -29 87.5t-79 30.5q-51 0 -80.5 -32t-29.5 -89v-347h-108zM186 -240l95 145h118l-108 -145h-105z" />
    <glyph glyph-name="Ncaron" unicode="&#x147;" 
d="M81 0v730h137l212 -607q-2 28 -5 68t-4.5 83t-1.5 79v377h100v-730h-136l-212 607q2 -27 4.5 -65.5t4.5 -80.5t2 -78v-383h-101zM250 810l-138 140h110l79 -76l76 76h111l-138 -140h-100z" />
    <glyph glyph-name="ncaron" unicode="&#x148;" 
d="M84 0v550h107v-105v0q8 54 46.5 84.5t100.5 30.5q82 0 131 -52.5t49 -141.5v-366h-108v350q0 57 -29 87.5t-79 30.5q-51 0 -80.5 -32t-29.5 -89v-347h-108zM255 645l-138 140h110l79 -76l76 76h111l-138 -140h-100z" />
    <glyph glyph-name="napostrophe" unicode="&#x149;" 
d="M84 0v550h107v-105v0q8 54 46.5 84.5t100.5 30.5q82 0 131 -52.5t49 -141.5v-366h-108v350q0 57 -29 87.5t-79 30.5q-51 0 -80.5 -32t-29.5 -89v-347h-108zM-14 645l95 145h118l-108 -145h-105z" />
    <glyph glyph-name="Eng" unicode="&#x14a;" 
d="M243 -180v101h64q48 0 76 27t28 75l-240 584q2 -27 4.5 -65.5t4.5 -80.5t2 -78v-383h-101v730h137l212 -525q-2 28 -5 68.5t-4.5 83.5t-1.5 79v294h100v-712q0 -59 -27 -104t-75.5 -69.5t-112.5 -24.5h-61z" />
    <glyph glyph-name="eng" unicode="&#x14b;" 
d="M242 -180v101h62q49 0 76.5 27t27.5 75v331q0 54 -28 84t-78 30q-51 0 -79.5 -32t-28.5 -89v-347h-108v550h106v-105h2q7 55 44.5 85t99.5 30q82 0 130 -52.5t48 -141.5v-348q0 -59 -27 -104t-75.5 -69.5t-112.5 -24.5h-59z" />
    <glyph glyph-name="Omacron" unicode="&#x14c;" 
d="M300 -10q-102 0 -161 58.5t-59 164.5v304q0 106 59 164.5t161 58.5t161 -58.5t59 -163.5v-305q0 -106 -59 -164.5t-161 -58.5zM300 86q54 0 83 30t29 87v324q0 57 -28.5 87t-83.5 30t-83.5 -30t-28.5 -87v-324q0 -57 29 -87t83 -30zM134 834v86h332v-86h-332z" />
    <glyph glyph-name="omacron" unicode="&#x14d;" 
d="M300 -9q-102 0 -162.5 59t-60.5 161v128q0 103 60 161.5t163 58.5t163 -58.5t60 -161.5v-128q0 -102 -60.5 -161t-162.5 -59zM300 86q54 0 84.5 30.5t30.5 87.5v142q0 57 -30.5 87.5t-84.5 30.5t-84.5 -30.5t-30.5 -87.5v-142q0 -57 30.5 -87.5t84.5 -30.5zM134 666v85
h332v-85h-332z" />
    <glyph glyph-name="Obreve" unicode="&#x14e;" 
d="M300 -10q-102 0 -161 58.5t-59 164.5v304q0 106 59 164.5t161 58.5t161 -58.5t59 -163.5v-305q0 -106 -59 -164.5t-161 -58.5zM300 86q54 0 83 30t29 87v324q0 57 -28.5 87t-83.5 30t-83.5 -30t-28.5 -87v-324q0 -57 29 -87t83 -30zM300 804q-75 0 -121 40t-46 106h84
q0 -36 22.5 -58t59.5 -22q38 0 61 22t23 58h85q0 -66 -46.5 -106t-121.5 -40z" />
    <glyph glyph-name="obreve" unicode="&#x14f;" 
d="M300 -9q-102 0 -162.5 59t-60.5 161v128q0 103 60 161.5t163 58.5t163 -58.5t60 -161.5v-128q0 -102 -60.5 -161t-162.5 -59zM300 86q54 0 84.5 30.5t30.5 87.5v142q0 57 -30.5 87.5t-84.5 30.5t-84.5 -30.5t-30.5 -87.5v-142q0 -57 30.5 -87.5t84.5 -30.5zM300 639
q-75 0 -121 40t-46 106h84q0 -36 22.5 -58t59.5 -22q38 0 61 22t23 58h85q0 -66 -46.5 -106t-121.5 -40z" />
    <glyph glyph-name="Ohungarumlaut" unicode="&#x150;" 
d="M300 -10q-102 0 -161 58.5t-59 164.5v304q0 106 59 164.5t161 58.5t161 -58.5t59 -163.5v-305q0 -106 -59 -164.5t-161 -58.5zM300 86q54 0 83 30t29 87v324q0 57 -28.5 87t-83.5 30t-83.5 -30t-28.5 -87v-324q0 -57 29 -87t83 -30zM325 810l108 140h108l-115 -140h-101z
M134 810l109 140h107l-115 -140h-101z" />
    <glyph glyph-name="ohungarumlaut" unicode="&#x151;" 
d="M300 -9q-102 0 -162.5 59t-60.5 161v128q0 103 60 161.5t163 58.5t163 -58.5t60 -161.5v-128q0 -102 -60.5 -161t-162.5 -59zM300 86q54 0 84.5 30.5t30.5 87.5v142q0 57 -30.5 87.5t-84.5 30.5t-84.5 -30.5t-30.5 -87.5v-142q0 -57 30.5 -87.5t84.5 -30.5zM325 645
l108 140h108l-115 -140h-101zM134 645l109 140h107l-115 -140h-101z" />
    <glyph glyph-name="OE" unicode="&#x152;" 
d="M189 -8q-71 0 -111.5 51.5t-40.5 141.5v362q0 90 40.5 141.5t111.5 51.5q35 0 58.5 -14.5t36 -35t15.5 -40.5h5v80h273v-95h-173v-211h148v-95h-148v-234h173v-95h-273v82h-5q-3 -20 -15.5 -40.5t-36 -35t-58.5 -14.5zM222 85q38 0 59 26.5t21 73.5v362q0 47 -21 73.5
t-59 26.5q-37 0 -58.5 -27t-21.5 -73v-362q0 -47 21.5 -73.5t58.5 -26.5z" />
    <glyph glyph-name="oe" unicode="&#x153;" 
d="M180 -10q-66 0 -105.5 42.5t-39.5 114.5v256q0 72 39.5 114.5t105.5 42.5q39 0 64.5 -12.5t38 -31t14.5 -34.5h6q1 16 14 34.5t38 31t65 12.5q66 0 105.5 -42.5t39.5 -114.5v-153h-218v-103q0 -34 16.5 -54t44.5 -20q25 0 41.5 15t19.5 42h94q-7 -64 -46 -102t-97 -38
q-40 0 -65 12.5t-38 31t-14 35.5h-6q-2 -17 -14.5 -35.5t-38 -31t-64.5 -12.5zM192 73q28 0 44.5 20t16.5 54v256q0 34 -16.5 54t-44.5 20q-29 0 -46 -20t-17 -54v-256q0 -34 17 -54t46 -20zM347 325h124v78q0 34 -17 54t-46 20q-28 0 -44.5 -20t-16.5 -54v-78z" />
    <glyph glyph-name="Racute" unicode="&#x154;" 
d="M85 0v730h228q68 0 119.5 -26.5t80 -74.5t28.5 -113q0 -73 -37 -127t-99 -76l146 -313h-118l-136 300h-105v-300h-107zM192 396h121q54 0 86 32t32 86q0 55 -32.5 87.5t-85.5 32.5h-121v-238zM233 810l106 140h116l-113 -140h-109z" />
    <glyph glyph-name="racute" unicode="&#x155;" 
d="M104 0v550h107v-108v0q8 55 47 86.5t103 31.5q85 0 132 -53t47 -149v-49h-108v46q0 111 -109 111q-54 0 -82.5 -31.5t-28.5 -91.5v-343h-108zM253 645l106 140h116l-113 -140h-109z" />
    <glyph glyph-name="uni0156" unicode="&#x156;" 
d="M85 0v730h228q68 0 119.5 -26.5t80 -74.5t28.5 -113q0 -73 -37 -127t-99 -76l146 -313h-118l-136 300h-105v-300h-107zM192 396h121q54 0 86 32t32 86q0 55 -32.5 87.5t-85.5 32.5h-121v-238zM186 -240l95 145h118l-108 -145h-105z" />
    <glyph glyph-name="uni0157" unicode="&#x157;" 
d="M104 0v550h107v-108v0q8 55 47 86.5t103 31.5q85 0 132 -53t47 -149v-49h-108v46q0 111 -109 111q-54 0 -82.5 -31.5t-28.5 -91.5v-343h-108zM31 -240l95 145h118l-108 -145h-105z" />
    <glyph glyph-name="Rcaron" unicode="&#x158;" 
d="M85 0v730h228q68 0 119.5 -26.5t80 -74.5t28.5 -113q0 -73 -37 -127t-99 -76l146 -313h-118l-136 300h-105v-300h-107zM192 396h121q54 0 86 32t32 86q0 55 -32.5 87.5t-85.5 32.5h-121v-238zM250 810l-138 140h110l79 -76l76 76h111l-138 -140h-100z" />
    <glyph glyph-name="rcaron" unicode="&#x159;" 
d="M104 0v550h107v-108v0q8 55 47 86.5t103 31.5q85 0 132 -53t47 -149v-49h-108v46q0 111 -109 111q-54 0 -82.5 -31.5t-28.5 -91.5v-343h-108zM270 645l-138 140h110l79 -76l76 76h111l-138 -140h-100z" />
    <glyph glyph-name="Sacute" unicode="&#x15a;" 
d="M303 -10q-108 0 -173 57t-65 156h106q0 -55 36 -86.5t96 -31.5q59 0 93 32t34 85q0 40 -22 70t-63 41l-105 28q-74 20 -116.5 73t-42.5 127q0 60 26.5 104.5t75.5 69.5t114 25t114.5 -25t77 -69.5t27.5 -103.5h-106q0 47 -31.5 75.5t-81.5 28.5t-80.5 -28.5t-30.5 -74.5
q0 -37 20.5 -62t57.5 -35l108 -29q76 -20 120 -78t44 -137q0 -65 -29 -112.5t-81 -73.5t-123 -26zM233 810l106 140h116l-113 -140h-109z" />
    <glyph glyph-name="sacute" unicode="&#x15b;" 
d="M278 -9q-95 0 -149 43t-54 120h107q0 -35 25 -54.5t71 -19.5h44q47 0 73 19.5t26 55.5q0 63 -67 72l-145 20q-61 8 -94 48.5t-33 105.5q0 75 50.5 116.5t143.5 41.5h45q86 0 139.5 -41t56.5 -108h-108q-2 27 -25.5 44.5t-62.5 17.5h-45q-43 0 -66.5 -19t-23.5 -50
q0 -52 57 -60l136 -18q147 -20 147 -169q0 -79 -53 -122t-151 -43h-44zM233 645l106 140h116l-113 -140h-109z" />
    <glyph glyph-name="Scircumflex" unicode="&#x15c;" 
d="M303 -10q-108 0 -173 57t-65 156h106q0 -55 36 -86.5t96 -31.5q59 0 93 32t34 85q0 40 -22 70t-63 41l-105 28q-74 20 -116.5 73t-42.5 127q0 60 26.5 104.5t75.5 69.5t114 25t114.5 -25t77 -69.5t27.5 -103.5h-106q0 47 -31.5 75.5t-81.5 28.5t-80.5 -28.5t-30.5 -74.5
q0 -37 20.5 -62t57.5 -35l108 -29q76 -20 120 -78t44 -137q0 -65 -29 -112.5t-81 -73.5t-123 -26zM112 810l138 140h100l138 -140h-110l-79 76l-76 -76h-111z" />
    <glyph glyph-name="scircumflex" unicode="&#x15d;" 
d="M278 -9q-95 0 -149 43t-54 120h107q0 -35 25 -54.5t71 -19.5h44q47 0 73 19.5t26 55.5q0 63 -67 72l-145 20q-61 8 -94 48.5t-33 105.5q0 75 50.5 116.5t143.5 41.5h45q86 0 139.5 -41t56.5 -108h-108q-2 27 -25.5 44.5t-62.5 17.5h-45q-43 0 -66.5 -19t-23.5 -50
q0 -52 57 -60l136 -18q147 -20 147 -169q0 -79 -53 -122t-151 -43h-44zM112 645l138 140h100l138 -140h-110l-79 76l-76 -76h-111z" />
    <glyph glyph-name="Scedilla" unicode="&#x15e;" 
d="M202 -210v60h73q23 0 37 11.5t14 24.5q0 19 -28.5 32t-79.5 13l24 64q-82 15 -129.5 69.5t-47.5 138.5h106q0 -55 36 -86.5t96 -31.5q59 0 93 32t34 85q0 40 -22 70t-63 41l-105 28q-74 20 -116.5 73t-42.5 127q0 60 26.5 104.5t75.5 69.5t114 25t114.5 -25t77 -69.5
t27.5 -103.5h-106q0 47 -31.5 75.5t-81.5 28.5t-80.5 -28.5t-30.5 -74.5q0 -37 20.5 -62t57.5 -35l108 -29q76 -20 120 -78t44 -137q0 -65 -29 -112.5t-81 -73.5t-123 -26v0l-9 -26q27 -3 56.5 -13.5t50 -29t20.5 -45.5q0 -35 -35 -60.5t-91 -25.5h-93z" />
    <glyph glyph-name="scedilla" unicode="&#x15f;" 
d="M211 -210v60h73q22 0 36 11.5t14 24.5q0 19 -28 32t-80 13l23 61q-82 7 -128 49t-46 113h107q0 -35 25 -54.5t71 -19.5h44q47 0 73 19.5t26 55.5q0 63 -67 72l-145 20q-61 8 -94 48.5t-33 105.5q0 75 50.5 116.5t143.5 41.5h45q86 0 139.5 -41t56.5 -108h-108
q-2 27 -25.5 44.5t-62.5 17.5h-45q-43 0 -66.5 -19t-23.5 -50q0 -52 57 -60l136 -18q147 -20 147 -169q0 -79 -53 -122t-151 -43h-10l-10 -27q28 -3 57 -13.5t49.5 -29t20.5 -45.5q0 -35 -34.5 -60.5t-91.5 -25.5h-92z" />
    <glyph glyph-name="Scaron" unicode="&#x160;" 
d="M303 -10q-108 0 -173 57t-65 156h106q0 -55 36 -86.5t96 -31.5q59 0 93 32t34 85q0 40 -22 70t-63 41l-105 28q-74 20 -116.5 73t-42.5 127q0 60 26.5 104.5t75.5 69.5t114 25t114.5 -25t77 -69.5t27.5 -103.5h-106q0 47 -31.5 75.5t-81.5 28.5t-80.5 -28.5t-30.5 -74.5
q0 -37 20.5 -62t57.5 -35l108 -29q76 -20 120 -78t44 -137q0 -65 -29 -112.5t-81 -73.5t-123 -26zM250 810l-138 140h110l79 -76l76 76h111l-138 -140h-100z" />
    <glyph glyph-name="scaron" unicode="&#x161;" 
d="M278 -9q-95 0 -149 43t-54 120h107q0 -35 25 -54.5t71 -19.5h44q47 0 73 19.5t26 55.5q0 63 -67 72l-145 20q-61 8 -94 48.5t-33 105.5q0 75 50.5 116.5t143.5 41.5h45q86 0 139.5 -41t56.5 -108h-108q-2 27 -25.5 44.5t-62.5 17.5h-45q-43 0 -66.5 -19t-23.5 -50
q0 -52 57 -60l136 -18q147 -20 147 -169q0 -79 -53 -122t-151 -43h-44zM250 645l-138 140h110l79 -76l76 76h111l-138 -140h-100z" />
    <glyph glyph-name="uni0162" unicode="&#x162;" 
d="M246 0v632h-195v98h499v-98h-196v-632l-12 -36q27 -3 56.5 -13.5t49.5 -29t20 -45.5q0 -35 -34.5 -60.5t-91.5 -25.5h-92v60h73q22 0 36.5 11.5t14.5 24.5q0 19 -28.5 32t-80.5 13l27 69h-46z" />
    <glyph glyph-name="uni0163" unicode="&#x163;" 
d="M261 -210v60h73q22 0 36 11.5t14 24.5q0 19 -28 32t-80 13l29 75q-51 13 -80 52t-29 98v296h-155v98h155v155h108v-155h222v-98h-222v-295q0 -26 15 -42.5t41 -16.5h161v-98h-156l-13 -36q28 -3 57 -13.5t49.5 -29t20.5 -45.5q0 -35 -34.5 -60.5t-91.5 -25.5h-92z" />
    <glyph glyph-name="Tcaron" unicode="&#x164;" 
d="M246 0v632h-195v98h499v-98h-196v-632h-108zM250 810l-138 140h110l79 -76l76 76h111l-138 -140h-100z" />
    <glyph glyph-name="tcaron" unicode="&#x165;" 
d="M355 0q-73 0 -116 42t-43 114v296h-155v98h155v155h108v-155h222v-98h-222v-295q0 -26 15 -42.5t41 -16.5h161v-98h-166zM377 621l14 180h96l-23 -180h-87z" />
    <glyph glyph-name="Tbar" unicode="&#x166;" 
d="M246 0v286h-139v90h139v256h-195v98h499v-98h-196v-256h139v-90h-139v-286h-108z" />
    <glyph glyph-name="tbar" unicode="&#x167;" 
d="M81 233v87h115v132h-155v98h155v155h108v-155h222v-98h-222v-132h176v-87h-176v-76q0 -26 15 -42.5t41 -16.5h161v-98h-166q-73 0 -116 42t-43 114v77h-115z" />
    <glyph glyph-name="Utilde" unicode="&#x168;" 
d="M300 -10q-105 0 -162 57.5t-57 156.5v526h108v-525q0 -56 28 -88t83 -32t83 32t28 88v525h108v-526q0 -100 -57 -157t-162 -57zM370 811q-31 0 -50 10t-32 23t-25 23.5t-28 10.5q-30 0 -30 -35v-27h-71v31q0 47 26.5 75t69.5 28q31 0 50 -10.5t32 -23.5t25 -23t28 -10
q30 0 30 32v30h71v-32q0 -47 -26.5 -74.5t-69.5 -27.5z" />
    <glyph glyph-name="utilde" unicode="&#x169;" 
d="M299 -10q-100 0 -158.5 57.5t-58.5 156.5v346h108v-345q0 -56 29 -88.5t80 -32.5q52 0 81.5 32.5t29.5 88.5v345h108v-346q0 -99 -59.5 -156.5t-159.5 -57.5zM370 646q-31 0 -50 10t-32 23t-25 23.5t-28 10.5q-30 0 -30 -35v-27h-71v31q0 47 26.5 75t69.5 28
q31 0 50 -10.5t32 -23.5t25 -23t28 -10q30 0 30 32v30h71v-32q0 -47 -26.5 -74.5t-69.5 -27.5z" />
    <glyph glyph-name="Umacron" unicode="&#x16a;" 
d="M300 -10q-105 0 -162 57.5t-57 156.5v526h108v-525q0 -56 28 -88t83 -32t83 32t28 88v525h108v-526q0 -100 -57 -157t-162 -57zM134 834v86h332v-86h-332z" />
    <glyph glyph-name="umacron" unicode="&#x16b;" 
d="M299 -10q-100 0 -158.5 57.5t-58.5 156.5v346h108v-345q0 -56 29 -88.5t80 -32.5q52 0 81.5 32.5t29.5 88.5v345h108v-346q0 -99 -59.5 -156.5t-159.5 -57.5zM134 666v85h332v-85h-332z" />
    <glyph glyph-name="Ubreve" unicode="&#x16c;" 
d="M300 -10q-105 0 -162 57.5t-57 156.5v526h108v-525q0 -56 28 -88t83 -32t83 32t28 88v525h108v-526q0 -100 -57 -157t-162 -57zM300 804q-75 0 -121 40t-46 106h84q0 -36 22.5 -58t59.5 -22q38 0 61 22t23 58h85q0 -66 -46.5 -106t-121.5 -40z" />
    <glyph glyph-name="ubreve" unicode="&#x16d;" 
d="M299 -10q-100 0 -158.5 57.5t-58.5 156.5v346h108v-345q0 -56 29 -88.5t80 -32.5q52 0 81.5 32.5t29.5 88.5v345h108v-346q0 -99 -59.5 -156.5t-159.5 -57.5zM300 639q-75 0 -121 40t-46 106h84q0 -36 22.5 -58t59.5 -22q38 0 61 22t23 58h85q0 -66 -46.5 -106
t-121.5 -40z" />
    <glyph glyph-name="Uring" unicode="&#x16e;" 
d="M300 -10q-105 0 -162 57.5t-57 156.5v526h108v-525q0 -56 28 -88t83 -32t83 32t28 88v525h108v-526q0 -100 -57 -157t-162 -57zM300 762q-57 0 -91.5 32.5t-34.5 85.5t34.5 85.5t91.5 32.5t91.5 -32.5t34.5 -85.5t-34.5 -85.5t-91.5 -32.5zM300 820q27 0 43.5 16.5
t16.5 43.5t-16.5 44t-43.5 17t-43.5 -17t-16.5 -44t16.5 -43.5t43.5 -16.5z" />
    <glyph glyph-name="uring" unicode="&#x16f;" 
d="M299 -10q-100 0 -158.5 57.5t-58.5 156.5v346h108v-345q0 -56 29 -88.5t80 -32.5q52 0 81.5 32.5t29.5 88.5v345h108v-346q0 -99 -59.5 -156.5t-159.5 -57.5zM300 605q-57 0 -91.5 32.5t-34.5 85.5t34.5 85.5t91.5 32.5t91.5 -32.5t34.5 -85.5t-34.5 -85.5t-91.5 -32.5z
M300 663q27 0 43.5 16.5t16.5 43.5t-16.5 44t-43.5 17t-43.5 -17t-16.5 -44t16.5 -43.5t43.5 -16.5z" />
    <glyph glyph-name="Uhungarumlaut" unicode="&#x170;" 
d="M300 -10q-105 0 -162 57.5t-57 156.5v526h108v-525q0 -56 28 -88t83 -32t83 32t28 88v525h108v-526q0 -100 -57 -157t-162 -57zM325 810l108 140h108l-115 -140h-101zM134 810l109 140h107l-115 -140h-101z" />
    <glyph glyph-name="uhungarumlaut" unicode="&#x171;" 
d="M299 -10q-100 0 -158.5 57.5t-58.5 156.5v346h108v-345q0 -56 29 -88.5t80 -32.5q52 0 81.5 32.5t29.5 88.5v345h108v-346q0 -99 -59.5 -156.5t-159.5 -57.5zM325 645l108 140h108l-115 -140h-101zM134 645l109 140h107l-115 -140h-101z" />
    <glyph glyph-name="Uogonek" unicode="&#x172;" 
d="M372 -210q-58 0 -91.5 28t-33.5 71q0 24 19.5 52.5t50.5 53.5q-7 -5 -17 -5q-102 0 -160.5 57.5t-58.5 155.5v527h108v-527q0 -57 28.5 -87t82.5 -30t82.5 30t28.5 87v527h108v-527q0 -60 -23 -106t-65 -73l-34 -28q-30 -25 -41.5 -46t-11.5 -40q0 -20 13.5 -33t38.5 -13
h63v-74h-87z" />
    <glyph glyph-name="uogonek" unicode="&#x173;" 
d="M368 -210q-57 0 -91 28t-34 71q0 24 16 49.5t54 54.5q-7 -3 -13 -3q-102 0 -160 57.5t-58 155.5v347h108v-347q0 -118 110 -118t110 118v347h108v-347q0 -124 -87 -179l-34 -29q-57 -47 -57 -85q0 -20 14 -33t38 -13h63v-74h-87z" />
    <glyph glyph-name="Wcircumflex" unicode="&#x174;" 
d="M98 0l-81 730h94l51 -524q3 -30 5 -68t3 -62q3 24 6 62t7 68l68 524h102l63 -524q3 -30 7.5 -68t6.5 -62q2 24 4.5 62t5.5 68l52 524h91l-84 -730h-126l-61 531q-3 31 -6 68t-5 60q-2 -23 -4.5 -60t-6.5 -68l-65 -531h-127zM112 810l138 140h100l138 -140h-110l-79 76
l-76 -76h-111z" />
    <glyph glyph-name="wcircumflex" unicode="&#x175;" 
d="M111 0l-88 550h89l52 -362q4 -27 7 -58.5t4 -51.5q2 20 5 51.5t8 58.5l64 362h97l64 -362q4 -27 7.5 -58.5t5.5 -51.5q2 20 4.5 51.5t6.5 58.5l54 362h86l-91 -550h-114l-58 359q-5 28 -8.5 62t-5.5 54q-1 -20 -5.5 -54t-8.5 -62l-60 -359h-115zM112 645l138 140h100
l138 -140h-110l-79 76l-76 -76h-111z" />
    <glyph glyph-name="Ycircumflex" unicode="&#x176;" 
d="M246 0v269l-217 461h114l127 -276q13 -27 21 -51t11 -36q3 12 11 36t20 51l126 276h112l-217 -461v-269h-108zM112 810l138 140h100l138 -140h-110l-79 76l-76 -76h-111z" />
    <glyph glyph-name="ycircumflex" unicode="&#x177;" 
d="M171 -180l80 212l-206 518h115l117 -310q9 -22 17 -48t11 -46q4 20 11.5 46t15.5 48l109 310h114l-271 -730h-113zM112 645l138 140h100l138 -140h-110l-79 76l-76 -76h-111z" />
    <glyph glyph-name="Ydieresis" unicode="&#x178;" 
d="M246 0v269l-217 461h114l127 -276q13 -27 21 -51t11 -36q3 12 11 36t20 51l126 276h112l-217 -461v-269h-108zM414 813q-31 0 -49.5 18t-18.5 49q0 32 18.5 50.5t49.5 18.5q32 0 50.5 -18.5t18.5 -50.5q0 -31 -18.5 -49t-50.5 -18zM186 813q-32 0 -50.5 18t-18.5 49
q0 32 18.5 50.5t50.5 18.5q31 0 50 -18.5t19 -50.5q0 -31 -19 -49t-50 -18z" />
    <glyph glyph-name="Zacute" unicode="&#x179;" 
d="M82 0v104l311 528h-305v98h420v-103l-311 -529h321v-98h-436zM233 810l106 140h116l-113 -140h-109z" />
    <glyph glyph-name="zacute" unicode="&#x17a;" 
d="M84 0v102l297 352h-288v96h412v-102l-301 -352h312v-96h-432zM233 645l106 140h116l-113 -140h-109z" />
    <glyph glyph-name="Zdotaccent" unicode="&#x17b;" 
d="M82 0v104l311 528h-305v98h420v-103l-311 -529h321v-98h-436zM300 812q-35 0 -56 18.5t-21 49.5t21 49.5t56 18.5t56 -18.5t21 -49.5t-21 -49.5t-56 -18.5z" />
    <glyph glyph-name="zdotaccent" unicode="&#x17c;" 
d="M84 0v102l297 352h-288v96h412v-102l-301 -352h312v-96h-432zM300 645q-35 0 -56 18.5t-21 49.5q0 32 21 50.5t56 18.5t56 -18.5t21 -50.5q0 -31 -21 -49.5t-56 -18.5z" />
    <glyph glyph-name="Zcaron" unicode="&#x17d;" 
d="M82 0v104l311 528h-305v98h420v-103l-311 -529h321v-98h-436zM250 810l-138 140h110l79 -76l76 76h111l-138 -140h-100z" />
    <glyph glyph-name="zcaron" unicode="&#x17e;" 
d="M84 0v102l297 352h-288v96h412v-102l-301 -352h312v-96h-432zM250 645l-138 140h110l79 -76l76 76h111l-138 -140h-100z" />
    <glyph glyph-name="longs" unicode="&#x17f;" 
d="M156 0v557q0 78 50 125.5t133 47.5h179v-95h-176q-35 0 -56.5 -21.5t-21.5 -56.5v-557h-108z" />
    <glyph glyph-name="uni018F" unicode="&#x18f;" 
d="M300 -10q-101 0 -160 58.5t-59 154.5v202h330v123q0 56 -28 86.5t-83 30.5q-54 0 -82 -30.5t-28 -87.5h-108q0 98 58.5 155.5t159.5 57.5q103 0 161 -57t58 -156v-324q0 -96 -58.5 -154.5t-160.5 -58.5zM300 77q58 0 84.5 32.5t26.5 93.5v120h-222v-120q0 -126 111 -126z
" />
    <glyph glyph-name="uni0190" unicode="&#x190;" 
d="M309 -10q-74 0 -130 26.5t-88 74.5t-32 110q0 70 38.5 121t100.5 63v2q-52 12 -84 56.5t-32 104.5q0 57 28 100t78.5 67.5t116.5 24.5q68 0 119.5 -27t80.5 -75t29 -111h-107q0 53 -33.5 86.5t-87.5 33.5q-52 0 -84 -30t-32 -79q0 -50 32.5 -81t84.5 -31h86v-93h-85
q-61 0 -100 -34.5t-39 -89.5q0 -56 39 -90.5t100 -34.5t99.5 33t39.5 86h107q0 -63 -31.5 -111t-86.5 -75t-127 -27z" />
    <glyph glyph-name="florin" unicode="&#x192;" 
d="M0 -180v101h111q49 0 77 27t28 75v282h-159v96h159v179q0 70 42.5 110t117.5 40h165v-95h-159q-58 0 -58 -55v-179h219v-96h-219v-287q0 -59 -27 -104t-75.5 -69.5t-113.5 -24.5h-108z" />
    <glyph glyph-name="uni019B" unicode="&#x19b;" 
d="M43 0l205 542l-158 -79v87l130 65l-46 115h115l25 -68l156 78v-87l-129 -65l217 -588h-115l-119 339q-11 31 -17 59.5t-10 45.5q-1 -17 -5.5 -45.5t-15.5 -59.5l-117 -339h-116z" />
    <glyph glyph-name="Ohorn" unicode="&#x1a0;" 
d="M300 -10q-102 0 -161 58.5t-59 164.5v304q0 106 59 164.5t161 58.5q82 0 136 -38q22 7 22 33v75h89v-78q0 -66 -54 -93q27 -51 27 -121v-305q0 -106 -59 -164.5t-161 -58.5zM300 86q54 0 83 30t29 87v324q0 57 -28.5 87t-83.5 30t-83.5 -30t-28.5 -87v-324q0 -57 29 -87
t83 -30z" />
    <glyph glyph-name="ohorn" unicode="&#x1a1;" 
d="M300 -9q-102 0 -162.5 59t-60.5 161v128q0 103 60 161.5t163 58.5q71 0 123 -29h6q35 0 35 35v75h88v-78q0 -34 -16.5 -59t-44.5 -38q32 -52 32 -126v-128q0 -102 -60.5 -161t-162.5 -59zM300 86q54 0 84.5 30.5t30.5 87.5v142q0 57 -30.5 87.5t-84.5 30.5t-84.5 -30.5
t-30.5 -87.5v-142q0 -57 30.5 -87.5t84.5 -30.5z" />
    <glyph glyph-name="Uhorn" unicode="&#x1af;" 
d="M300 -10q-105 0 -162 57.5t-57 156.5v526h108v-525q0 -56 28 -88t83 -32t83 32t28 88v525h77q16 0 25.5 9.5t9.5 25.5v75h89v-78q0 -43 -25 -71t-68 -35v-452q0 -100 -57 -157t-162 -57z" />
    <glyph glyph-name="uhorn" unicode="&#x1b0;" 
d="M82 203v347h108v-348q0 -56 27.5 -87t75.5 -31q49 0 77 31t28 87v348h89q35 0 35 35v75h89v-78q0 -49 -26.5 -78t-78.5 -29v-272q0 -99 -58 -156t-155 -57t-154 57t-57 156z" />
    <glyph glyph-name="uni01CD" unicode="&#x1cd;" 
d="M43 0l186 730h142l187 -730h-110l-44 185h-207l-44 -185h-110zM217 275h166l-50 210q-13 56 -21.5 97t-11.5 57q-3 -16 -11 -57t-22 -96zM250 810l-138 140h110l79 -76l76 76h111l-138 -140h-100z" />
    <glyph glyph-name="uni01CE" unicode="&#x1ce;" 
d="M245 -10q-84 0 -133.5 47.5t-49.5 124.5q0 78 53 125.5t141 47.5h152v40q0 95 -107 95q-48 0 -77 -18t-31 -50h-106q5 69 62 113.5t153 44.5q102 0 158 -48.5t56 -135.5v-376h-106v103h-1q-7 -53 -50 -83t-114 -30zM276 79q61 0 96.5 29.5t35.5 79.5v71h-144
q-43 0 -68.5 -25t-25.5 -64q0 -42 28 -66.5t78 -24.5zM255 645l-138 140h110l79 -76l76 76h111l-138 -140h-100z" />
    <glyph glyph-name="uni01D0" unicode="&#x1d0;" 
d="M81 0v98h191v354h-171v98h279v-452h177v-98h-476zM267 645l-138 140h110l79 -76l76 76h111l-138 -140h-100z" />
    <glyph glyph-name="uni01D2" unicode="&#x1d2;" 
d="M300 -9q-102 0 -162.5 59t-60.5 161v128q0 103 60 161.5t163 58.5t163 -58.5t60 -161.5v-128q0 -102 -60.5 -161t-162.5 -59zM300 86q54 0 84.5 30.5t30.5 87.5v142q0 57 -30.5 87.5t-84.5 30.5t-84.5 -30.5t-30.5 -87.5v-142q0 -57 30.5 -87.5t84.5 -30.5zM250 645
l-138 140h110l79 -76l76 76h111l-138 -140h-100z" />
    <glyph glyph-name="uni01D4" unicode="&#x1d4;" 
d="M299 -10q-100 0 -158.5 57.5t-58.5 156.5v346h108v-345q0 -56 29 -88.5t80 -32.5q52 0 81.5 32.5t29.5 88.5v345h108v-346q0 -99 -59.5 -156.5t-159.5 -57.5zM250 645l-138 140h110l79 -76l76 76h111l-138 -140h-100z" />
    <glyph glyph-name="uni01D6" unicode="&#x1d6;" 
d="M299 -10q-100 0 -158.5 57.5t-58.5 156.5v346h108v-345q0 -56 29 -88.5t80 -32.5q52 0 81.5 32.5t29.5 88.5v345h108v-346q0 -99 -59.5 -156.5t-159.5 -57.5zM414 645q-31 0 -49.5 18.5t-18.5 49.5q0 32 18.5 50.5t49.5 18.5q32 0 50.5 -18.5t18.5 -50.5
q0 -31 -18.5 -49.5t-50.5 -18.5zM186 645q-32 0 -50.5 18.5t-18.5 49.5q0 32 18.5 50.5t50.5 18.5q31 0 50 -18.5t19 -50.5q0 -31 -19 -49.5t-50 -18.5zM134 898v85h332v-85h-332z" />
    <glyph glyph-name="uni01D8" unicode="&#x1d8;" 
d="M299 -10q-100 0 -158.5 57.5t-58.5 156.5v346h108v-345q0 -56 29 -88.5t80 -32.5q52 0 81.5 32.5t29.5 88.5v345h108v-346q0 -99 -59.5 -156.5t-159.5 -57.5zM414 645q-31 0 -49.5 18.5t-18.5 49.5q0 32 18.5 50.5t49.5 18.5q32 0 50.5 -18.5t18.5 -50.5
q0 -31 -18.5 -49.5t-50.5 -18.5zM186 645q-32 0 -50.5 18.5t-18.5 49.5q0 32 18.5 50.5t50.5 18.5q31 0 50 -18.5t19 -50.5q0 -31 -19 -49.5t-50 -18.5zM233 877l106 140h116l-113 -140h-109z" />
    <glyph glyph-name="uni01DA" unicode="&#x1da;" 
d="M299 -10q-100 0 -158.5 57.5t-58.5 156.5v346h108v-345q0 -56 29 -88.5t80 -32.5q52 0 81.5 32.5t29.5 88.5v345h108v-346q0 -99 -59.5 -156.5t-159.5 -57.5zM414 645q-31 0 -49.5 18.5t-18.5 49.5q0 32 18.5 50.5t49.5 18.5q32 0 50.5 -18.5t18.5 -50.5
q0 -31 -18.5 -49.5t-50.5 -18.5zM186 645q-32 0 -50.5 18.5t-18.5 49.5q0 32 18.5 50.5t50.5 18.5q31 0 50 -18.5t19 -50.5q0 -31 -19 -49.5t-50 -18.5zM250 877l-138 140h110l79 -76l76 76h111l-138 -140h-100z" />
    <glyph glyph-name="uni01DC" unicode="&#x1dc;" 
d="M299 -10q-100 0 -158.5 57.5t-58.5 156.5v346h108v-345q0 -56 29 -88.5t80 -32.5q52 0 81.5 32.5t29.5 88.5v345h108v-346q0 -99 -59.5 -156.5t-159.5 -57.5zM414 645q-31 0 -49.5 18.5t-18.5 49.5q0 32 18.5 50.5t49.5 18.5q32 0 50.5 -18.5t18.5 -50.5
q0 -31 -18.5 -49.5t-50.5 -18.5zM186 645q-32 0 -50.5 18.5t-18.5 49.5q0 32 18.5 50.5t50.5 18.5q31 0 50 -18.5t19 -50.5q0 -31 -19 -49.5t-50 -18.5zM258 877l-116 140h120l108 -140h-112z" />
    <glyph glyph-name="Gcaron" unicode="&#x1e6;" 
d="M304 -10q-103 0 -163.5 57.5t-60.5 155.5v324q0 99 60.5 156t163.5 57q102 0 162.5 -57.5t60.5 -155.5h-108q0 57 -30.5 87t-84.5 30q-55 0 -85.5 -30t-30.5 -86v-325q0 -57 30.5 -87.5t85.5 -30.5q54 0 84.5 30.5t30.5 87.5v90h-136v96h244v-186q0 -98 -60.5 -155.5
t-162.5 -57.5zM250 810l-138 140h110l79 -76l76 76h111l-138 -140h-100z" />
    <glyph glyph-name="gcaron" unicode="&#x1e7;" 
d="M156 -180v93h155q45 0 71 25t26 68v41l2 92q-13 -49 -51.5 -76t-95.5 -27q-85 0 -134 55t-49 151v111q0 95 49 151t134 56q57 0 95 -27t51 -76v93h106v-546q0 -85 -54.5 -134.5t-148.5 -49.5h-156zM298 127q51 0 80.5 31.5t29.5 88.5v100q0 56 -29.5 87.5t-80.5 31.5
q-53 0 -81.5 -30t-28.5 -82v-114q0 -53 28.5 -83t81.5 -30zM247 645l-138 140h110l79 -76l76 76h111l-138 -140h-100z" />
    <glyph glyph-name="uni01EA" unicode="&#x1ea;" 
d="M372 -210q-58 0 -91.5 28t-33.5 71q0 24 19.5 52.5t50.5 53.5q-7 -5 -17 -5q-102 0 -161 57.5t-59 155.5v324q0 98 59 155.5t161 57.5t161 -57t59 -155v-325q0 -60 -23.5 -106t-65.5 -73l-34 -28q-30 -25 -41.5 -46t-11.5 -40q0 -20 13.5 -33t38.5 -13h63v-74h-87z
M300 86q54 0 83 30t29 87v324q0 57 -28.5 87t-83.5 30t-83.5 -30t-28.5 -87v-324q0 -57 29 -87t83 -30z" />
    <glyph glyph-name="uni01EB" unicode="&#x1eb;" 
d="M368 -210q-57 0 -91 28t-34 71q0 24 16 49.5t54 54.5q-7 -3 -13 -3q-102 0 -161 57.5t-59 155.5v144q0 98 59 155.5t161 57.5t161 -57t59 -155v-145q0 -60 -23.5 -106t-65.5 -73l-34 -29q-57 -47 -57 -85q0 -20 14 -33t38 -13h63v-74h-87zM300 85q54 0 83 30t29 88v144
q0 58 -29 88t-83 30t-83 -30t-29 -88v-144q0 -58 29 -88t83 -30z" />
    <glyph glyph-name="uni01F4" unicode="&#x1f4;" 
d="M304 -10q-103 0 -163.5 57.5t-60.5 155.5v324q0 99 60.5 156t163.5 57q102 0 162.5 -57.5t60.5 -155.5h-108q0 57 -30.5 87t-84.5 30q-55 0 -85.5 -30t-30.5 -86v-325q0 -57 30.5 -87.5t85.5 -30.5q54 0 84.5 30.5t30.5 87.5v90h-136v96h244v-186q0 -98 -60.5 -155.5
t-162.5 -57.5zM233 810l106 140h116l-113 -140h-109z" />
    <glyph glyph-name="uni01F5" unicode="&#x1f5;" 
d="M156 -180v93h155q45 0 71 25t26 68v41l2 92q-13 -49 -51.5 -76t-95.5 -27q-85 0 -134 55t-49 151v111q0 95 49 151t134 56q57 0 95 -27t51 -76v93h106v-546q0 -85 -54.5 -134.5t-148.5 -49.5h-156zM298 127q51 0 80.5 31.5t29.5 88.5v100q0 56 -29.5 87.5t-80.5 31.5
q-53 0 -81.5 -30t-28.5 -82v-114q0 -53 28.5 -83t81.5 -30zM230 645l106 140h116l-113 -140h-109z" />
    <glyph glyph-name="AEacute" unicode="&#x1fc;" 
d="M21 0l143 730h409v-95h-177v-210h152v-97h-152v-233h177v-95h-274v192h-136l-35 -192h-107zM178 276h121v359h-54zM233 810l106 140h116l-113 -140h-109z" />
    <glyph glyph-name="aeacute" unicode="&#x1fd;" 
d="M178 -10q-66 0 -107 47t-41 122q0 74 43.5 120.5t113.5 46.5h70v73q0 38 -16 58.5t-45 20.5q-28 0 -45 -18.5t-17 -49.5h-91q0 67 38.5 108.5t100.5 41.5q48 0 82 -24.5t39 -65.5q5 41 38 65.5t79 24.5q65 0 106 -44.5t41 -115.5v-146h-219v-104q0 -37 16.5 -57.5
t45.5 -20.5t45.5 19t16.5 50h95q0 -67 -40.5 -109t-105.5 -42q-44 0 -77.5 25t-40.5 65q-7 -40 -42 -65t-83 -25zM348 326h124v74q0 36 -16.5 57t-45.5 21q-28 0 -45 -21t-17 -57v-74zM193 72q29 0 46.5 21t17.5 57v104h-69q-29 0 -46 -25t-17 -67q0 -41 18 -65.5t50 -24.5z
M233 645l106 140h116l-113 -140h-109z" />
    <glyph glyph-name="Oslashacute" unicode="&#x1fe;" 
d="M29 -40l76 133q-25 47 -25 110v324q0 98 59 155.5t161 57.5q89 0 146 -44l31 54h94l-70 -124q19 -43 19 -98v-325q0 -98 -59 -155.5t-161 -57.5q-82 0 -138 38l-39 -68h-94zM186 527v-290l207 366q-29 41 -93 41q-55 0 -84.5 -30t-29.5 -87zM300 86q55 0 84.5 30t29.5 87
v270l-201 -354q30 -33 87 -33zM233 810l106 140h116l-113 -140h-109z" />
    <glyph glyph-name="oslashacute" unicode="&#x1ff;" 
d="M32 -30l79 112q-31 51 -31 121v144q0 98 59 155.5t161 57.5q74 0 127 -31l43 61h98l-82 -116q34 -52 34 -126v-145q0 -98 -59 -155.5t-161 -57.5q-78 0 -132 34l-38 -54h-98zM181 203q0 -11 1 -20l187 265q-28 17 -69 17q-56 0 -87.5 -31t-31.5 -87v-144zM300 85
q56 0 87.5 31t31.5 87v144q0 15 -3 29l-191 -270q30 -21 75 -21zM233 645l106 140h116l-113 -140h-109z" />
    <glyph glyph-name="uni0218" unicode="&#x218;" 
d="M303 -10q-108 0 -173 57t-65 156h106q0 -55 36 -86.5t96 -31.5q59 0 93 32t34 85q0 40 -22 70t-63 41l-105 28q-74 20 -116.5 73t-42.5 127q0 60 26.5 104.5t75.5 69.5t114 25t114.5 -25t77 -69.5t27.5 -103.5h-106q0 47 -31.5 75.5t-81.5 28.5t-80.5 -28.5t-30.5 -74.5
q0 -37 20.5 -62t57.5 -35l108 -29q76 -20 120 -78t44 -137q0 -65 -29 -112.5t-81 -73.5t-123 -26zM186 -240l95 145h118l-108 -145h-105z" />
    <glyph glyph-name="uni0219" unicode="&#x219;" 
d="M278 -9q-95 0 -149 43t-54 120h107q0 -35 25 -54.5t71 -19.5h44q47 0 73 19.5t26 55.5q0 63 -67 72l-145 20q-61 8 -94 48.5t-33 105.5q0 75 50.5 116.5t143.5 41.5h45q86 0 139.5 -41t56.5 -108h-108q-2 27 -25.5 44.5t-62.5 17.5h-45q-43 0 -66.5 -19t-23.5 -50
q0 -52 57 -60l136 -18q147 -20 147 -169q0 -79 -53 -122t-151 -43h-44zM186 -240l95 145h118l-108 -145h-105z" />
    <glyph glyph-name="uni021A" unicode="&#x21a;" 
d="M246 0v632h-195v98h499v-98h-196v-632h-108zM186 -240l95 145h118l-108 -145h-105z" />
    <glyph glyph-name="uni021B" unicode="&#x21b;" 
d="M355 0q-73 0 -116 42t-43 114v296h-155v98h155v155h108v-155h222v-98h-222v-295q0 -26 15 -42.5t41 -16.5h161v-98h-166zM246 -240l95 145h118l-108 -145h-105z" />
    <glyph glyph-name="uni0232" unicode="&#x232;" 
d="M246 0v269l-217 461h114l127 -276q13 -27 21 -51t11 -36q3 12 11 36t20 51l126 276h112l-217 -461v-269h-108zM134 834v86h332v-86h-332z" />
    <glyph glyph-name="uni0233" unicode="&#x233;" 
d="M171 -180l80 212l-206 518h115l117 -310q9 -22 17 -48t11 -46q4 20 11.5 46t15.5 48l109 310h114l-271 -730h-113zM134 666v85h332v-85h-332z" />
    <glyph glyph-name="uni0237" unicode="&#x237;" 
d="M86 -180v98h134q55 0 86.5 31t31.5 86v417h-257v98h365v-516q0 -99 -60 -156.5t-162 -57.5h-138z" />
    <glyph glyph-name="uni0259" unicode="&#x259;" 
d="M300 -10q-101 0 -160 58.5t-59 154.5v98h334v46q0 125 -116 125q-93 0 -108 -65h-107q12 70 70 111.5t146 41.5q101 0 160 -58.5t59 -154.5v-144q0 -96 -59 -154.5t-160 -58.5zM300 77q58 0 86.5 32.5t28.5 93.5v25h-229v-25q0 -61 28 -93.5t86 -32.5z" />
    <glyph glyph-name="uni02B9" unicode="&#x2b9;" 
d="M158 410l80 311h145l-130 -311h-95z" />
    <glyph glyph-name="uni02BA" unicode="&#x2ba;" 
d="M326 409l80 311h145l-130 -311h-95zM51 409l80 311h145l-130 -311h-95z" />
    <glyph glyph-name="uni02BC" unicode="&#x2bc;" 
d="M158 465l80 311h145l-130 -311h-95z" />
    <glyph glyph-name="circumflex" unicode="&#x2c6;" 
d="M112 645l138 140h100l138 -140h-110l-79 76l-76 -76h-111z" />
    <glyph glyph-name="caron" unicode="&#x2c7;" 
d="M250 645l-138 140h110l79 -76l76 76h111l-138 -140h-100z" />
    <glyph glyph-name="uni02C9" unicode="&#x2c9;" 
d="M134 666v85h332v-85h-332z" />
    <glyph glyph-name="breve" unicode="&#x2d8;" 
d="M300 639q-75 0 -121 40t-46 106h84q0 -36 22.5 -58t59.5 -22q38 0 61 22t23 58h85q0 -66 -46.5 -106t-121.5 -40z" />
    <glyph glyph-name="dotaccent" unicode="&#x2d9;" 
d="M300 645q-35 0 -56 18.5t-21 49.5q0 32 21 50.5t56 18.5t56 -18.5t21 -50.5q0 -31 -21 -49.5t-56 -18.5z" />
    <glyph glyph-name="ring" unicode="&#x2da;" 
d="M300 605q-57 0 -91.5 32.5t-34.5 85.5t34.5 85.5t91.5 32.5t91.5 -32.5t34.5 -85.5t-34.5 -85.5t-91.5 -32.5zM300 663q27 0 43.5 16.5t16.5 43.5t-16.5 44t-43.5 17t-43.5 -17t-16.5 -44t16.5 -43.5t43.5 -16.5z" />
    <glyph glyph-name="ogonek" unicode="&#x2db;" 
d="M304 -210q-57 0 -91 28t-34 71q0 30 22 60.5t71 60.5h78l-17 -15q-57 -48 -57 -85q0 -20 14 -33t38 -13h63v-74h-87z" />
    <glyph glyph-name="tilde" unicode="&#x2dc;" 
d="M370 646q-31 0 -50 10t-32 23t-25 23.5t-28 10.5q-30 0 -30 -35v-27h-71v31q0 47 26.5 75t69.5 28q31 0 50 -10.5t32 -23.5t25 -23t28 -10q30 0 30 32v30h71v-32q0 -47 -26.5 -74.5t-69.5 -27.5z" />
    <glyph glyph-name="hungarumlaut" unicode="&#x2dd;" 
d="M325 645l108 140h108l-115 -140h-101zM134 645l109 140h107l-115 -140h-101z" />
    <glyph glyph-name="uni02F3" unicode="&#x2f3;" 
d="M300 -253q-55 0 -89 28t-34 74q0 45 34 73t89 28t89 -28t34 -73q0 -46 -34 -74t-89 -28zM299 -201q28 0 44.5 13.5t16.5 36.5q0 24 -16.5 37t-44.5 13q-26 0 -42.5 -14t-16.5 -36q0 -23 16.5 -36.5t42.5 -13.5z" />
    <glyph glyph-name="uni02F7" unicode="&#x2f7;" 
d="M370 -219q-31 0 -50 10t-32 23.5t-25 23.5t-28 10q-30 0 -30 -34v-28h-71v32q0 47 26.5 74.5t69.5 27.5q31 0 50 -10t32 -23.5t25 -23.5t28 -10q30 0 30 33v29h71v-31q0 -48 -26.5 -75.5t-69.5 -27.5z" />
    <glyph glyph-name="gravecomb" unicode="&#x300;" horiz-adv-x="0" 
d="M-332 645l-116 140h120l108 -140h-112z" />
    <glyph glyph-name="acutecomb" unicode="&#x301;" horiz-adv-x="0" 
d="M-377 645l106 140h116l-113 -140h-109z" />
    <glyph glyph-name="uni0302" unicode="&#x302;" horiz-adv-x="0" 
d="M-488 645l138 140h100l138 -140h-110l-79 76l-76 -76h-111z" />
    <glyph glyph-name="tildecomb" unicode="&#x303;" horiz-adv-x="0" 
d="M-230 646q-31 0 -50 10t-32 23t-25 23.5t-28 10.5q-30 0 -30 -35v-27h-71v31q0 47 26.5 75t69.5 28q31 0 50 -10.5t32 -23.5t25 -23t28 -10q30 0 30 32v30h71v-32q0 -47 -26.5 -74.5t-69.5 -27.5z" />
    <glyph glyph-name="uni0304" unicode="&#x304;" horiz-adv-x="0" 
d="M-466 666v85h332v-85h-332z" />
    <glyph glyph-name="uni0306" unicode="&#x306;" horiz-adv-x="0" 
d="M-300 639q-75 0 -121 40t-46 106h84q0 -36 22.5 -58t59.5 -22q38 0 61 22t23 58h85q0 -66 -46.5 -106t-121.5 -40z" />
    <glyph glyph-name="uni0307" unicode="&#x307;" horiz-adv-x="0" 
d="M-300 645q-35 0 -56 18.5t-21 49.5q0 32 21 50.5t56 18.5t56 -18.5t21 -50.5q0 -31 -21 -49.5t-56 -18.5z" />
    <glyph glyph-name="uni0308" unicode="&#x308;" horiz-adv-x="0" 
d="M-186 645q-31 0 -49.5 18.5t-18.5 49.5q0 32 18.5 50.5t49.5 18.5q32 0 50.5 -18.5t18.5 -50.5q0 -31 -18.5 -49.5t-50.5 -18.5zM-414 645q-32 0 -50.5 18.5t-18.5 49.5q0 32 18.5 50.5t50.5 18.5q31 0 50 -18.5t19 -50.5q0 -31 -19 -49.5t-50 -18.5z" />
    <glyph glyph-name="hookabovecomb" unicode="&#x309;" horiz-adv-x="0" 
d="M-346 645l49 62q15 18 15 31q0 19 -31 19h-80v71h105q41 0 66 -21t25 -57q0 -33 -18 -56l-39 -49h-92z" />
    <glyph glyph-name="uni030A" unicode="&#x30a;" horiz-adv-x="0" 
d="M-300 605q-57 0 -91.5 32.5t-34.5 85.5t34.5 85.5t91.5 32.5t91.5 -32.5t34.5 -85.5t-34.5 -85.5t-91.5 -32.5zM-300 663q27 0 43.5 16.5t16.5 43.5t-16.5 44t-43.5 17t-43.5 -17t-16.5 -44t16.5 -43.5t43.5 -16.5z" />
    <glyph glyph-name="uni030B" unicode="&#x30b;" horiz-adv-x="0" 
d="M-275 645l108 140h108l-115 -140h-101zM-466 645l109 140h107l-115 -140h-101z" />
    <glyph glyph-name="uni030C" unicode="&#x30c;" horiz-adv-x="0" 
d="M-350 645l-138 140h110l79 -76l76 76h111l-138 -140h-100z" />
    <glyph glyph-name="uni030F" unicode="&#x30f;" horiz-adv-x="0" 
d="M-325 645h-101l-115 140h108zM-134 645h-101l-115 140h107z" />
    <glyph glyph-name="uni0312" unicode="&#x312;" horiz-adv-x="0" 
d="M-177 880l-80 -235h-139l130 235h89z" />
    <glyph glyph-name="uni031B" unicode="&#x31b;" horiz-adv-x="0" 
d="M-237 475v75h33q35 0 35 35v75h88v-78q0 -49 -32 -78t-85 -29h-39z" />
    <glyph glyph-name="dotbelowcomb" unicode="&#x323;" horiz-adv-x="0" 
d="M-300 -219q-35 0 -56 18t-21 50q0 31 21 49.5t56 18.5t56 -18.5t21 -49.5q0 -32 -21 -50t-56 -18z" />
    <glyph glyph-name="uni0325" unicode="&#x325;" horiz-adv-x="0" 
d="M-300 -253q-55 0 -89 28t-34 74q0 45 34 73t89 28t89 -28t34 -73q0 -46 -34 -74t-89 -28zM-301 -201q28 0 44.5 13.5t16.5 36.5q0 24 -16.5 37t-44.5 13q-26 0 -42.5 -14t-16.5 -36q0 -23 16.5 -36.5t42.5 -13.5z" />
    <glyph glyph-name="uni0326" unicode="&#x326;" horiz-adv-x="0" 
d="M-414 -240l95 145h118l-108 -145h-105z" />
    <glyph glyph-name="uni0327" unicode="&#x327;" horiz-adv-x="0" 
d="M-399 -210v60h73q22 0 36 11.5t14 24.5q0 19 -28 32t-80 13l35 92h62l-21 -59q28 -3 57 -13.5t49.5 -29t20.5 -45.5q0 -35 -34.5 -60.5t-91.5 -25.5h-92z" />
    <glyph glyph-name="uni0328" unicode="&#x328;" horiz-adv-x="0" 
d="M-296 -210q-57 0 -91 28t-34 71q0 30 22 60.5t71 60.5h78l-17 -15q-57 -48 -57 -85q0 -20 14 -33t38 -13h63v-74h-87z" />
    <glyph glyph-name="uni0336" unicode="&#x336;" horiz-adv-x="0" 
d="M-630 281v82h660v-82h-660z" />
    <glyph glyph-name="uni0337" unicode="&#x337;" horiz-adv-x="0" 
d="M-568 -30l438 620h98l-438 -620h-98z" />
    <glyph glyph-name="uni0338" unicode="&#x338;" horiz-adv-x="0" 
d="M-491 -110l311 770h72l-312 -770h-71z" />
    <glyph glyph-name="uni0374" unicode="&#x374;" 
d="M158 410l80 311h145l-130 -311h-95z" />
    <glyph glyph-name="uni0375" unicode="&#x375;" 
d="M200 -160l54 306h126l-73 -306h-107z" />
    <glyph glyph-name="uni037E" unicode="&#x37e;" 
d="M290 401q-35 0 -57 22.5t-22 57.5q0 34 22.5 56.5t56.5 22.5h20q34 0 57 -22.5t23 -56.5q0 -35 -22.5 -57.5t-57.5 -22.5h-20zM195 -160l54 306h126l-73 -306h-107z" />
    <glyph glyph-name="tonos" unicode="&#x384;" 
d="M201 645l106 140h119l-113 -140h-112z" />
    <glyph glyph-name="dieresistonos" unicode="&#x385;" 
d="M252 777l77 131h95l-87 -131h-85zM414 645q-31 0 -49.5 18.5t-18.5 49.5q0 32 18.5 50.5t49.5 18.5q32 0 50.5 -18.5t18.5 -50.5q0 -31 -18.5 -49.5t-50.5 -18.5zM186 645q-32 0 -50.5 18.5t-18.5 49.5q0 32 18.5 50.5t50.5 18.5q31 0 50 -18.5t19 -50.5q0 -31 -19 -49.5
t-50 -18.5z" />
    <glyph glyph-name="Alphatonos" unicode="&#x386;" 
d="M43 0l186 730h142l187 -730h-110l-44 185h-207l-44 -185h-110zM217 275h166l-50 210q-13 56 -21.5 97t-11.5 57q-3 -16 -11 -57t-22 -96zM-3 570l57 160h105l-65 -160h-97z" />
    <glyph glyph-name="anoteleia" unicode="&#x387;" 
d="M300 265q-39 0 -63.5 23.5t-24.5 62.5t24.5 63.5t63.5 24.5t63.5 -24.5t24.5 -63.5t-24.5 -62.5t-63.5 -23.5z" />
    <glyph glyph-name="Epsilontonos" unicode="&#x388;" 
d="M94 0v730h429v-96h-323v-208h288v-93h-288v-237h323v-96h-429zM-124 570l57 160h105l-65 -160h-97z" />
    <glyph glyph-name="Etatonos" unicode="&#x389;" 
d="M-124 570l57 160h105l-65 -160h-97zM85 0v730h108v-304h214v304h108v-730h-108v329h-214v-329h-108z" />
    <glyph glyph-name="Iotatonos" unicode="&#x38a;" 
d="M-124 570l57 160h105l-65 -160h-97zM98 0v98h147v534h-147v98h405v-98h-148v-534h148v-98h-405z" />
    <glyph glyph-name="Omicrontonos" unicode="&#x38c;" 
d="M-90 570l57 160h105l-65 -160h-97zM300 -10q-102 0 -161 58.5t-59 164.5v304q0 106 59 164.5t161 58.5t161 -58.5t59 -163.5v-305q0 -106 -59 -164.5t-161 -58.5zM300 86q54 0 83 30t29 87v324q0 57 -28.5 87t-83.5 30t-83.5 -30t-28.5 -87v-324q0 -57 29 -87t83 -30z
" />
    <glyph glyph-name="Upsilontonos" unicode="&#x38e;" 
d="M-143 570l57 160h105l-65 -160h-97zM246 0v269l-217 461h114l127 -276q13 -27 21 -51t11 -36q3 12 11 36t20 51l126 276h112l-217 -461v-269h-108z" />
    <glyph glyph-name="Omegatonos" unicode="&#x38f;" 
d="M50 0v98h145v5q-27 3 -55.5 20.5t-49 52t-20.5 87.5v259q0 66 28.5 115t80 76t121.5 27t121.5 -27t80 -76t28.5 -115v-259q0 -53 -20.5 -87t-49 -51.5t-55.5 -20.5v-6h146v-98h-211v146q36 0 59 31.5t23 80.5v264q0 56 -33.5 89.5t-88.5 33.5t-88.5 -33.5t-33.5 -89.5
v-264q0 -49 23 -80.5t59 -31.5v-146h-210zM-90 570l57 160h105l-65 -160h-97z" />
    <glyph glyph-name="iotadieresistonos" unicode="&#x390;" 
d="M411 0q-77 0 -123.5 45.5t-46.5 121.5v285h-190v98h298v-383q0 -32 18 -50.5t49 -18.5h137v-98h-142zM252 777l77 131h95l-87 -131h-85zM414 645q-31 0 -49.5 18.5t-18.5 49.5q0 32 18.5 50.5t49.5 18.5q32 0 50.5 -18.5t18.5 -50.5q0 -31 -18.5 -49.5t-50.5 -18.5z
M186 645q-32 0 -50.5 18.5t-18.5 49.5q0 32 18.5 50.5t50.5 18.5q31 0 50 -18.5t19 -50.5q0 -31 -19 -49.5t-50 -18.5z" />
    <glyph glyph-name="Alpha" unicode="&#x391;" 
d="M43 0l186 730h142l187 -730h-110l-44 185h-207l-44 -185h-110zM217 275h166l-50 210q-13 56 -21.5 97t-11.5 57q-3 -16 -11 -57t-22 -96z" />
    <glyph glyph-name="Beta" unicode="&#x392;" 
d="M85 0v730h215q103 0 162.5 -50.5t59.5 -138.5q0 -58 -35 -101.5t-91 -53.5v-3q42 -5 74.5 -30t50.5 -63t18 -85q0 -94 -61 -149.5t-164 -55.5h-229zM190 424h109q53 0 84.5 28.5t31.5 78.5q0 49 -31 77.5t-84 28.5h-110v-213zM190 93h115q59 0 93 31.5t34 85.5
q0 56 -34 90t-93 34h-115v-241z" />
    <glyph glyph-name="Gamma" unicode="&#x393;" 
d="M126 0v730h431v-98h-323v-632h-108z" />
    <glyph glyph-name="uni0394" unicode="&#x394;" 
d="M43 0l186 730h142l187 -730h-515zM267 486l-92 -391h250l-93 390q-11 45 -19.5 88t-13.5 66q-4 -23 -12.5 -65.5t-19.5 -87.5z" />
    <glyph glyph-name="Epsilon" unicode="&#x395;" 
d="M94 0v730h429v-96h-323v-208h288v-93h-288v-237h323v-96h-429z" />
    <glyph glyph-name="Zeta" unicode="&#x396;" 
d="M82 0v104l311 528h-305v98h420v-103l-311 -529h321v-98h-436z" />
    <glyph glyph-name="Eta" unicode="&#x397;" 
d="M85 0v730h108v-304h214v304h108v-730h-108v329h-214v-329h-108z" />
    <glyph glyph-name="Theta" unicode="&#x398;" 
d="M300 -10q-102 0 -161 57.5t-59 155.5v324q0 98 59 155.5t161 57.5t161 -57t59 -155v-325q0 -98 -59 -155.5t-161 -57.5zM300 86q54 0 83 30t29 87v324q0 57 -28.5 87t-83.5 30t-83.5 -30t-28.5 -87v-324q0 -57 29 -87t83 -30zM219 319v99h162v-99h-162z" />
    <glyph glyph-name="Iota" unicode="&#x399;" 
d="M98 0v98h147v534h-147v98h405v-98h-148v-534h148v-98h-405z" />
    <glyph glyph-name="Kappa" unicode="&#x39a;" 
d="M84 0v730h108v-306h97l150 306h117l-173 -350l182 -380h-122l-156 330h-95v-330h-108z" />
    <glyph glyph-name="Lambda" unicode="&#x39b;" 
d="M43 0l186 730h142l187 -730h-110l-116 485q-10 41 -17 76t-11.5 56.5l-4.5 21.5l-4 -21t-11 -56t-17 -76l-114 -486h-110z" />
    <glyph glyph-name="Mu" unicode="&#x39c;" 
d="M63 0v730h148l87 -315l90 315h149v-730h-102v326q0 56 2.5 121.5t6.5 129.5t9 116l-110 -372h-91l-106 363q9 -71 14 -163t5 -195v-326h-102z" />
    <glyph glyph-name="Nu" unicode="&#x39d;" 
d="M81 0v730h137l212 -607q-2 28 -5 68t-4.5 83t-1.5 79v377h100v-730h-136l-212 607q2 -27 4.5 -65.5t4.5 -80.5t2 -78v-383h-101z" />
    <glyph glyph-name="Xi" unicode="&#x39e;" 
d="M76 631v99h449v-99h-449zM106 320v100h389v-100h-389zM76 0v99h449v-99h-449z" />
    <glyph glyph-name="Omicron" unicode="&#x39f;" 
d="M300 -10q-102 0 -161 58.5t-59 164.5v304q0 106 59 164.5t161 58.5t161 -58.5t59 -163.5v-305q0 -106 -59 -164.5t-161 -58.5zM300 86q54 0 83 30t29 87v324q0 57 -28.5 87t-83.5 30t-83.5 -30t-28.5 -87v-324q0 -57 29 -87t83 -30z" />
    <glyph glyph-name="Pi" unicode="&#x3a0;" 
d="M86 0v730h428v-730h-108v632h-212v-632h-108z" />
    <glyph glyph-name="Rho" unicode="&#x3a1;" 
d="M84 0v730h239q71 0 123.5 -27t81 -76.5t28.5 -116.5t-29 -116.5t-81 -76.5t-123 -27h-131v-290h-108zM192 386h131q56 0 89.5 34t33.5 90t-33.5 90t-89.5 34h-131v-248z" />
    <glyph glyph-name="Sigma" unicode="&#x3a3;" 
d="M72 0v95l218 277l-218 263v95h478v-96h-349l219 -259l-220 -278h350v-97h-478z" />
    <glyph glyph-name="Tau" unicode="&#x3a4;" 
d="M246 0v632h-195v98h499v-98h-196v-632h-108z" />
    <glyph glyph-name="Upsilon" unicode="&#x3a5;" 
d="M246 0v269l-217 461h114l127 -276q13 -27 21 -51t11 -36q3 12 11 36t20 51l126 276h112l-217 -461v-269h-108z" />
    <glyph glyph-name="Phi" unicode="&#x3a6;" 
d="M246 -25v80q-60 1 -106.5 27t-73 73.5t-26.5 110.5v214q0 65 26.5 113t73 74.5t106.5 27.5v75h108v-75q60 -1 106.5 -27.5t73 -74.5t26.5 -113v-214q0 -63 -26.5 -110.5t-73 -73.5t-106.5 -27v-80h-108zM254 143v464q-52 0 -85 -34t-33 -93v-214q0 -57 33 -90t85 -33z
M346 143q52 0 85 33t33 90v214q0 59 -33 93t-85 34v-464z" />
    <glyph glyph-name="Chi" unicode="&#x3a7;" 
d="M34 0l206 372l-194 358h122l102 -199l18 -38t14 -29q4 10 12.5 29t18.5 38l104 199h117l-194 -354l206 -376h-122l-113 216q-10 19 -19 38.5t-14 30.5q-4 -11 -13 -30.5t-18 -37.5l-115 -217h-118z" />
    <glyph glyph-name="Psi" unicode="&#x3a8;" 
d="M246 0v170q-59 1 -104 27.5t-70 74t-25 109.5v349h97v-349q0 -57 29.5 -89t81.5 -32v470h90v-470q52 0 81.5 32t29.5 89v349h97v-349q0 -62 -25 -109t-70 -73.5t-104 -28.5v-170h-108z" />
    <glyph glyph-name="uni03A9" unicode="&#x3a9;" 
d="M50 0v98h145v5q-27 3 -55.5 20.5t-49 52t-20.5 87.5v259q0 66 28.5 115t80 76t121.5 27t121.5 -27t80 -76t28.5 -115v-259q0 -53 -20.5 -87t-49 -51.5t-55.5 -20.5v-6h146v-98h-211v146q36 0 59 31.5t23 80.5v264q0 56 -33.5 89.5t-88.5 33.5t-88.5 -33.5t-33.5 -89.5
v-264q0 -49 23 -80.5t59 -31.5v-146h-210z" />
    <glyph glyph-name="Iotadieresis" unicode="&#x3aa;" 
d="M414 813q-31 0 -49.5 18t-18.5 49q0 32 18.5 50.5t49.5 18.5q32 0 50.5 -18.5t18.5 -50.5q0 -31 -18.5 -49t-50.5 -18zM186 813q-32 0 -50.5 18t-18.5 49q0 32 18.5 50.5t50.5 18.5q31 0 50 -18.5t19 -50.5q0 -31 -19 -49t-50 -18zM98 0v98h147v534h-147v98h405v-98h-148
v-534h148v-98h-405z" />
    <glyph glyph-name="Upsilondieresis" unicode="&#x3ab;" 
d="M414 813q-31 0 -49.5 18t-18.5 49q0 32 18.5 50.5t49.5 18.5q32 0 50.5 -18.5t18.5 -50.5q0 -31 -18.5 -49t-50.5 -18zM186 813q-32 0 -50.5 18t-18.5 49q0 32 18.5 50.5t50.5 18.5q31 0 50 -18.5t19 -50.5q0 -31 -19 -49t-50 -18zM246 0v269l-217 461h114l127 -276
q13 -27 21 -51t11 -36q3 12 11 36t20 51l126 276h112l-217 -461v-269h-108z" />
    <glyph glyph-name="alphatonos" unicode="&#x3ac;" 
d="M224 645l106 140h119l-112 -140h-113zM259 -10q-82 0 -131.5 56t-49.5 151v155q0 96 49.5 152t131.5 56q59 0 98.5 -29.5t50.5 -82.5h3l-3 102h108v-550h-107v102h-1q-11 -53 -50.5 -82.5t-98.5 -29.5zM297 84q52 0 81.5 31.5t29.5 89.5v141q0 57 -29.5 88.5t-81.5 31.5
t-81.5 -30.5t-29.5 -88.5v-144q0 -58 29.5 -88.5t81.5 -30.5z" />
    <glyph glyph-name="epsilontonos" unicode="&#x3ad;" 
d="M337 -7h-59q-97 0 -154.5 45.5t-57.5 120.5q0 59 35 96.5t96 41.5v5q-52 3 -84 34t-32 78q0 67 54.5 105t146.5 38h49q90 0 143 -40t54 -108h-106q-2 27 -26 42.5t-65 15.5h-49q-42 0 -67 -18.5t-25 -50.5t24.5 -51t67.5 -19h120v-89h-124q-47 0 -74 -21t-27 -57
q0 -35 27 -55.5t74 -20.5h59q44 0 70.5 18.5t26.5 50.5h107q0 -74 -55.5 -117.5t-148.5 -43.5zM231 645l106 140h119l-113 -140h-112z" />
    <glyph glyph-name="etatonos" unicode="&#x3ae;" 
d="M84 0v550h107v-105v0q8 54 46.5 84.5t100.5 30.5q82 0 131 -52.5t49 -141.5v-366h-108v350q0 57 -29 87.5t-79 30.5q-51 0 -80.5 -32t-29.5 -89v-347h-108zM236 645l106 140h119l-113 -140h-112z" />
    <glyph glyph-name="iotatonos" unicode="&#x3af;" 
d="M411 0q-77 0 -123.5 45.5t-46.5 121.5v285h-190v98h298v-383q0 -32 18 -50.5t49 -18.5h137v-98h-142zM226 645l106 140h119l-113 -140h-112z" />
    <glyph glyph-name="upsilondieresistonos" unicode="&#x3b0;" 
d="M299 -10q-100 0 -158.5 57.5t-58.5 156.5v346h108v-345q0 -56 29 -88.5t80 -32.5q52 0 81.5 32.5t29.5 88.5v345h108v-346q0 -99 -59.5 -156.5t-159.5 -57.5zM252 777l77 131h95l-87 -131h-85zM414 645q-31 0 -49.5 18.5t-18.5 49.5q0 32 18.5 50.5t49.5 18.5
q32 0 50.5 -18.5t18.5 -50.5q0 -31 -18.5 -49.5t-50.5 -18.5zM186 645q-32 0 -50.5 18.5t-18.5 49.5q0 32 18.5 50.5t50.5 18.5q31 0 50 -18.5t19 -50.5q0 -31 -19 -49.5t-50 -18.5z" />
    <glyph glyph-name="alpha" unicode="&#x3b1;" 
d="M259 -10q-82 0 -131.5 56t-49.5 151v155q0 96 49.5 152t131.5 56q59 0 98.5 -29.5t50.5 -82.5h3l-3 102h108v-550h-107v102h-1q-11 -53 -50.5 -82.5t-98.5 -29.5zM297 84q52 0 81.5 31.5t29.5 89.5v141q0 57 -29.5 88.5t-81.5 31.5t-81.5 -30.5t-29.5 -88.5v-144
q0 -58 29.5 -88.5t81.5 -30.5z" />
    <glyph glyph-name="beta" unicode="&#x3b2;" 
d="M82 -180v705q0 64 27.5 112.5t76.5 75.5t113 27q63 0 111 -23.5t75 -65t27 -96.5t-31 -96t-80 -53v-3q43 -7 76 -34t51.5 -68.5t18.5 -91.5q0 -64 -26.5 -113.5t-73.5 -77.5t-110 -28q-62 0 -100.5 30t-46.5 83h-3l3 -126v-157h-108zM315 89q55 0 88.5 36.5t33.5 95.5
q0 58 -33.5 94.5t-89.5 36.5h-51v84h36q48 0 77.5 29t29.5 76q0 48 -29.5 77t-77.5 29q-49 0 -79 -33.5t-30 -88.5v-304q0 -59 35 -95.5t90 -36.5z" />
    <glyph glyph-name="gamma" unicode="&#x3b3;" 
d="M246 -180v180l-196 550h113l116 -348q11 -33 16 -61.5t8 -45.5q4 17 8.5 45.5t15.5 61.5l113 348h110l-196 -550v-180h-108z" />
    <glyph glyph-name="delta" unicode="&#x3b4;" 
d="M300 -10q-67 0 -117 27t-78 75.5t-28 114.5v95q0 62 24.5 109t69 74t102.5 27h5q-33 27 -77 58.5t-100 69.5v90h407v-88h-282q95 -57 161.5 -114t101 -124t34.5 -154q0 -134 -59 -197.5t-164 -62.5zM300 85q54 0 84 38.5t30 126.5q0 55 -11 97t-40 81h-64
q-51 0 -82.5 -33.5t-31.5 -88.5v-99q0 -58 31 -90t84 -32z" />
    <glyph glyph-name="epsilon" unicode="&#x3b5;" 
d="M337 -7h-59q-97 0 -154.5 45.5t-57.5 120.5q0 59 35 96.5t96 41.5v5q-52 3 -84 34t-32 78q0 67 54.5 105t146.5 38h49q90 0 143 -40t54 -108h-106q-2 27 -26 42.5t-65 15.5h-49q-42 0 -67 -18.5t-25 -50.5t24.5 -51t67.5 -19h120v-89h-124q-47 0 -74 -21t-27 -57
q0 -35 27 -55.5t74 -20.5h59q44 0 70.5 18.5t26.5 50.5h107q0 -74 -55.5 -117.5t-148.5 -43.5z" />
    <glyph glyph-name="zeta" unicode="&#x3b6;" 
d="M480 -186l-82 48l45 70q10 15 10 29q0 24 -31 33l-126 36q-98 28 -146 78t-48 126q0 72 49 143.5t156 158.5l118 96h-307v98h440v-102l-185 -162q-83 -73 -121.5 -126.5t-38.5 -100.5q0 -73 119 -108l128 -36q50 -15 76 -44.5t26 -69.5q0 -44 -32 -92z" />
    <glyph glyph-name="eta" unicode="&#x3b7;" 
d="M84 0v550h107v-105v0q8 54 46.5 84.5t100.5 30.5q82 0 131 -52.5t49 -141.5v-366h-108v350q0 57 -29 87.5t-79 30.5q-51 0 -80.5 -32t-29.5 -89v-347h-108z" />
    <glyph glyph-name="theta" unicode="&#x3b8;" 
d="M300 -10q-102 0 -161 57.5t-59 155.5v314q0 98 59 155.5t161 57.5t161 -57t59 -155v-315q0 -98 -59 -155.5t-161 -57.5zM188 411h224v106q0 58 -29 88t-83 30t-83 -30t-29 -88v-106zM300 85q54 0 83 30t29 88v116h-224v-116q0 -58 29 -88t83 -30z" />
    <glyph glyph-name="iota" unicode="&#x3b9;" 
d="M411 0q-77 0 -123.5 45.5t-46.5 121.5v285h-190v98h298v-383q0 -32 18 -50.5t49 -18.5h137v-98h-142z" />
    <glyph glyph-name="kappa" unicode="&#x3ba;" 
d="M94 0v550h108v-219h98l138 219h122l-168 -265l178 -285h-124l-146 233h-98v-233h-108z" />
    <glyph glyph-name="lambda" unicode="&#x3bb;" 
d="M43 0l206 542l-75 188h115l269 -730h-115l-119 339q-11 31 -17 59.5t-10 45.5q-1 -17 -5.5 -45.5t-15.5 -59.5l-117 -339h-116z" />
    <glyph glyph-name="uni03BC" unicode="&#x3bc;" 
d="M85 -180v730h108v-347q0 -56 27.5 -87.5t79.5 -31.5q51 0 80 31.5t29 87.5v347h108v-550h-107l2 105h-3q-4 -53 -30 -84t-80 -31t-78.5 31t-28.5 84h-2l3 -128v-157h-108z" />
    <glyph glyph-name="nu" unicode="&#x3bd;" 
d="M231 0l-186 550h114l113 -352q10 -31 18 -61.5t12 -50.5q4 20 10.5 50.5t16.5 61.5l112 352h114l-185 -550h-139z" />
    <glyph glyph-name="xi" unicode="&#x3be;" 
d="M320 645q-50 0 -81 -29.5t-31 -74.5t31 -71t81 -26h151v-95h-145q-61 0 -99 -32t-38 -84q0 -74 104 -104l148 -42q77 -22 92.5 -77t-30.5 -128l-44 -68l-82 45l45 70q13 22 8 38.5t-31 24.5l-136 40q-185 54 -185 199q0 66 38.5 114t101.5 60v2q-53 12 -85.5 53t-32.5 98
q0 53 27.5 94t77.5 64.5t115 23.5q66 0 115 -22.5t77 -62.5t31 -92h-108q-4 36 -34.5 59t-80.5 23z" />
    <glyph glyph-name="omicron" unicode="&#x3bf;" 
d="M300 -9q-102 0 -162.5 59t-60.5 161v128q0 103 60 161.5t163 58.5t163 -58.5t60 -161.5v-128q0 -102 -60.5 -161t-162.5 -59zM300 86q54 0 84.5 30.5t30.5 87.5v142q0 57 -30.5 87.5t-84.5 30.5t-84.5 -30.5t-30.5 -87.5v-142q0 -57 30.5 -87.5t84.5 -30.5z" />
    <glyph glyph-name="pi" unicode="&#x3c0;" 
d="M536 -5q-80 0 -127.5 49t-47.5 132v280h-155v-456h-105v456h-80v94h539v-94h-95v-283q0 -38 19.5 -58.5t52.5 -20.5h24v-99h-25z" />
    <glyph glyph-name="rho" unicode="&#x3c1;" 
d="M86 -180v533q0 95 58.5 151t158.5 56t158 -55.5t58 -151.5v-155q0 -96 -48 -152t-131 -56q-61 0 -100 30.5t-46 84.5h-3l3 -128v-157h-108zM302 84q53 0 81 30.5t28 88.5v144q0 58 -28 88.5t-81 30.5q-52 0 -80 -30.5t-28 -88.5v-144q0 -56 28.5 -87.5t79.5 -31.5z" />
    <glyph glyph-name="uni03C2" unicode="&#x3c2;" 
d="M338 -141l45 70q13 22 8 38t-31 25l-115 36q-78 24 -120 75.5t-42 122.5v121q0 99 61.5 156t164.5 57q99 0 159 -52t63 -142h-108q-3 47 -33 73t-81 26q-55 0 -86.5 -30.5t-31.5 -86.5v-122q0 -34 22.5 -61t61.5 -39l127 -39q76 -23 92 -77.5t-30 -127.5l-44 -68z" />
    <glyph glyph-name="sigma" unicode="&#x3c3;" 
d="M298 -10q-67 0 -116.5 26.5t-76.5 74.5t-27 112v134q0 64 27 112t76.5 74.5t116.5 26.5h268v-95h-158v-2q51 -7 80.5 -42.5t29.5 -91.5v-116q0 -64 -27 -112t-76.5 -74.5t-116.5 -26.5zM298 85q53 0 82.5 31.5t29.5 86.5v134q0 58 -29.5 88t-82.5 30t-82.5 -31.5
t-29.5 -86.5v-134q0 -55 29.5 -86.5t82.5 -31.5z" />
    <glyph glyph-name="tau" unicode="&#x3c4;" 
d="M365 0q-73 0 -116 42t-43 114v296h-165v98h485v-98h-212v-295q0 -26 15 -42.5t41 -16.5h151v-98h-156z" />
    <glyph glyph-name="upsilon" unicode="&#x3c5;" 
d="M299 -10q-100 0 -158.5 57.5t-58.5 156.5v346h108v-345q0 -56 29 -88.5t80 -32.5q52 0 81.5 32.5t29.5 88.5v345h108v-346q0 -99 -59.5 -156.5t-159.5 -57.5z" />
    <glyph glyph-name="phi" unicode="&#x3c6;" 
d="M246 -180v180q-58 1 -103 27t-70.5 72.5t-25.5 107.5v141q0 81 40.5 138.5t106.5 68.5v-108q-22 -6 -35.5 -33t-13.5 -63l-1 -147q0 -54 31 -87t82 -33v466h93q60 0 106 -25.5t71.5 -71t25.5 -105.5v-141q0 -61 -25.5 -107.5t-70.5 -72.5t-103 -27v-180h-108zM343 84
q51 0 82 33t31 87v147q0 51 -30 83.5t-78 32.5h-5v-383z" />
    <glyph glyph-name="chi" unicode="&#x3c7;" 
d="M43 0l193 284l-181 266h124l97 -152q7 -12 14 -25.5t11 -22.5q3 9 9.5 22.5t14.5 25.5l96 152h125l-181 -267l192 -283h-124l-107 165q-7 12 -14 27t-11 24q-5 -9 -12 -24t-15 -27l-107 -165h-124z" />
    <glyph glyph-name="psi" unicode="&#x3c8;" 
d="M246 -180v180q-90 1 -144.5 56t-54.5 148v346h97v-346q0 -56 28.5 -87t82.5 -31v464h90v-464q54 0 82.5 31t28.5 87v346h97v-346q0 -93 -54.5 -148t-144.5 -56v-180h-108z" />
    <glyph glyph-name="omega" unicode="&#x3c9;" 
d="M179 -10q-60 0 -95.5 47t-35.5 125v182q0 89 41 147t111 69v-108q-25 -6 -39.5 -34t-14.5 -70v-193q0 -36 15 -57t41 -21q24 0 38.5 21t14.5 57v190h90v-190q0 -36 14.5 -57t38.5 -21q26 0 41 21t15 57v193q0 40 -15.5 67t-42.5 33v109q72 -12 114 -69t42 -144v-182
q0 -78 -36 -125t-96 -47q-51 0 -84 33.5t-36 89.5h-1q-3 -56 -36 -89.5t-84 -33.5z" />
    <glyph glyph-name="iotadieresis" unicode="&#x3ca;" 
d="M411 0q-77 0 -123.5 45.5t-46.5 121.5v285h-190v98h298v-383q0 -32 18 -50.5t49 -18.5h137v-98h-142zM409 645q-31 0 -49.5 18.5t-18.5 49.5q0 32 18.5 50.5t49.5 18.5q32 0 50.5 -18.5t18.5 -50.5q0 -31 -18.5 -49.5t-50.5 -18.5zM181 645q-32 0 -50.5 18.5t-18.5 49.5
q0 32 18.5 50.5t50.5 18.5q31 0 50 -18.5t19 -50.5q0 -31 -19 -49.5t-50 -18.5z" />
    <glyph glyph-name="upsilondieresis" unicode="&#x3cb;" 
d="M299 -10q-100 0 -158.5 57.5t-58.5 156.5v346h108v-345q0 -56 29 -88.5t80 -32.5q52 0 81.5 32.5t29.5 88.5v345h108v-346q0 -99 -59.5 -156.5t-159.5 -57.5zM414 645q-31 0 -49.5 18.5t-18.5 49.5q0 32 18.5 50.5t49.5 18.5q32 0 50.5 -18.5t18.5 -50.5
q0 -31 -18.5 -49.5t-50.5 -18.5zM186 645q-32 0 -50.5 18.5t-18.5 49.5q0 32 18.5 50.5t50.5 18.5q31 0 50 -18.5t19 -50.5q0 -31 -19 -49.5t-50 -18.5z" />
    <glyph glyph-name="omicrontonos" unicode="&#x3cc;" 
d="M300 -9q-102 0 -162.5 59t-60.5 161v128q0 103 60 161.5t163 58.5t163 -58.5t60 -161.5v-128q0 -102 -60.5 -161t-162.5 -59zM300 86q54 0 84.5 30.5t30.5 87.5v142q0 57 -30.5 87.5t-84.5 30.5t-84.5 -30.5t-30.5 -87.5v-142q0 -57 30.5 -87.5t84.5 -30.5zM231 645
l106 140h119l-113 -140h-112z" />
    <glyph glyph-name="upsilontonos" unicode="&#x3cd;" 
d="M299 -10q-100 0 -158.5 57.5t-58.5 156.5v346h108v-345q0 -56 29 -88.5t80 -32.5q52 0 81.5 32.5t29.5 88.5v345h108v-346q0 -99 -59.5 -156.5t-159.5 -57.5zM231 645l106 140h119l-113 -140h-112z" />
    <glyph glyph-name="omegatonos" unicode="&#x3ce;" 
d="M179 -10q-60 0 -95.5 47t-35.5 125v182q0 89 41 147t111 69v-108q-25 -6 -39.5 -34t-14.5 -70v-193q0 -36 15 -57t41 -21q24 0 38.5 21t14.5 57v190h90v-190q0 -36 14.5 -57t38.5 -21q26 0 41 21t15 57v193q0 40 -15.5 67t-42.5 33v109q72 -12 114 -69t42 -144v-182
q0 -78 -36 -125t-96 -47q-51 0 -84 33.5t-36 89.5h-1q-3 -56 -36 -89.5t-84 -33.5zM220 645l106 140h119l-113 -140h-112z" />
    <glyph glyph-name="uni03CF" unicode="&#x3cf;" 
d="M84 0v730h108v-306h97l150 306h117l-173 -350l144 -300h53v-83q0 -86 -47 -131.5t-137 -45.5h-40v93h37q40 0 63.5 23t23.5 64h-37l-156 330h-95v-330h-108z" />
    <glyph glyph-name="uni03D5" unicode="&#x3d5;" 
d="M246 -180v180q-60 2 -105.5 29t-71 74t-25.5 108v130q0 60 25.5 106.5t71 73.5t105.5 29v180h108v-180q60 -2 105.5 -29t71 -73.5t25.5 -106.5v-130q0 -61 -25.5 -108t-71 -74t-105.5 -29v-180h-108zM257 83v384q-54 0 -84.5 -32t-30.5 -87v-144q0 -56 30.5 -88.5
t84.5 -32.5zM343 83q54 0 84.5 32.5t30.5 88.5v144q0 55 -30.5 87t-84.5 32v-384z" />
    <glyph glyph-name="uni03D6" unicode="&#x3d6;" 
d="M180 -10q-60 0 -94.5 44.5t-34.5 120.5v165q0 48 19 82.5t55 51.5h-111v96h573v-96h-112q36 -17 55.5 -51.5t19.5 -82.5v-165q0 -76 -35 -120.5t-95 -44.5q-50 0 -81.5 29.5t-38.5 81.5q-7 -52 -39 -81.5t-81 -29.5zM202 77q27 0 42 19t15 55v188h83v-188q0 -36 14.5 -55
t41.5 -19q55 0 55 74v229q0 74 -55 74h-196q-55 0 -55 -74v-229q0 -74 55 -74z" />
    <glyph glyph-name="uni03D7" unicode="&#x3d7;" 
d="M84 0v550h100v-281q0 -44 -2 -92t-10 -81l211 454h133v-470h43v-83q0 -86 -47 -131.5t-137 -45.5h-40v93h37q40 0 63.5 23t23.5 64h-43v281q0 45 1.5 91t10.5 77l-211 -449h-133z" />
    <glyph glyph-name="uni0401" unicode="&#x401;" 
d="M94 0v730h429v-96h-323v-208h288v-93h-288v-237h323v-96h-429zM423 813q-31 0 -49.5 18t-18.5 49q0 32 18.5 50.5t49.5 18.5q32 0 50.5 -18.5t18.5 -50.5q0 -31 -18.5 -49t-50.5 -18zM195 813q-32 0 -50.5 18t-18.5 49q0 32 18.5 50.5t50.5 18.5q31 0 50 -18.5t19 -50.5
q0 -31 -19 -49t-50 -18z" />
    <glyph glyph-name="uni0402" unicode="&#x402;" 
d="M268 -180v101h67q48 0 76 27t28 75v275q0 107 -79 107q-46 0 -99 -55l-46 -48v-302h-108v633h-107v97h332v-97h-117v-225l15 16q72 76 156 76q73 0 117 -51t44 -136v-295q0 -59 -27 -104t-75.5 -69.5t-112.5 -24.5h-64z" />
    <glyph glyph-name="uni0403" unicode="&#x403;" 
d="M126 0v730h431v-98h-323v-632h-108zM253 810l106 140h116l-113 -140h-109z" />
    <glyph glyph-name="uni0404" unicode="&#x404;" 
d="M308 -10q-103 0 -163.5 57.5t-60.5 155.5v324q0 99 60.5 156t163.5 57q102 0 162.5 -57.5t60.5 -155.5h-108q0 57 -30.5 87t-84.5 30q-55 0 -85.5 -30t-30.5 -87v-100h216v-98h-216v-126q0 -57 30.5 -87t85.5 -30q54 0 84.5 30t30.5 87h108q0 -98 -60.5 -155.5
t-162.5 -57.5z" />
    <glyph glyph-name="uni0405" unicode="&#x405;" 
d="M303 -10q-108 0 -173 57t-65 156h106q0 -55 36 -86.5t96 -31.5q59 0 93 32t34 85q0 40 -22 70t-63 41l-105 28q-74 20 -116.5 73t-42.5 127q0 60 26.5 104.5t75.5 69.5t114 25t114.5 -25t77 -69.5t27.5 -103.5h-106q0 47 -31.5 75.5t-81.5 28.5t-80.5 -28.5t-30.5 -74.5
q0 -37 20.5 -62t57.5 -35l108 -29q76 -20 120 -78t44 -137q0 -65 -29 -112.5t-81 -73.5t-123 -26z" />
    <glyph glyph-name="uni0406" unicode="&#x406;" 
d="M98 0v98h147v534h-147v98h405v-98h-148v-534h148v-98h-405z" />
    <glyph glyph-name="uni0407" unicode="&#x407;" 
d="M98 0v98h147v534h-147v98h405v-98h-148v-534h148v-98h-405zM414 813q-31 0 -49.5 18t-18.5 49q0 32 18.5 50.5t49.5 18.5q32 0 50.5 -18.5t18.5 -50.5q0 -31 -18.5 -49t-50.5 -18zM186 813q-32 0 -50.5 18t-18.5 49q0 32 18.5 50.5t50.5 18.5q31 0 50 -18.5t19 -50.5
q0 -31 -19 -49t-50 -18z" />
    <glyph glyph-name="uni0408" unicode="&#x408;" 
d="M270 -10q-108 0 -170 60t-62 163h108q0 -60 32.5 -94t91.5 -34q58 0 91.5 33.5t33.5 94.5v517h108v-517q0 -103 -62.5 -163t-170.5 -60z" />
    <glyph glyph-name="uni0409" unicode="&#x409;" 
d="M-6 -5v91h18q56 0 57 111l6 533h292v-295h44q77 0 124.5 -45t47.5 -120v-106q0 -75 -47.5 -119.5t-124.5 -44.5h-135v645h-105l-4 -448q-1 -101 -41 -151.5t-113 -50.5h-19zM367 86h44q35 0 55 21t20 57v106q0 36 -20 57.5t-55 21.5h-44v-263z" />
    <glyph glyph-name="uni040A" unicode="&#x40a;" 
d="M49 0v730h94v-292h133v292h91v-292h44q78 0 125 -44.5t47 -120.5v-109q0 -76 -47 -120t-125 -44h-135v352h-133v-352h-94zM367 86h44q37 0 57 20.5t20 57.5v109q0 37 -20.5 58t-56.5 21h-44v-266z" />
    <glyph glyph-name="uni040B" unicode="&#x40b;" 
d="M107 0v633h-107v97h332v-97h-117v-225l15 16q72 76 156 76q73 0 117 -51t44 -136v-313h-108v298q0 107 -79 107q-46 0 -99 -55l-46 -48v-302h-108z" />
    <glyph glyph-name="uni040C" unicode="&#x40c;" 
d="M84 0v730h108v-306h97l150 306h117l-173 -350l182 -380h-122l-156 330h-95v-330h-108zM233 810l106 140h116l-113 -140h-109z" />
    <glyph glyph-name="uni040E" unicode="&#x40e;" 
d="M182 0l74 188l-213 542h117l120 -339q11 -31 19 -61.5t10 -47.5q2 17 8.5 47.5t16.5 61.5l108 339h116l-262 -730h-114zM300 804q-75 0 -121 40t-46 106h84q0 -36 22.5 -58t59.5 -22q38 0 61 22t23 58h85q0 -66 -46.5 -106t-121.5 -40z" />
    <glyph glyph-name="uni040F" unicode="&#x40f;" 
d="M246 -125v125h-160v730h108v-631h212v631h108v-730h-160v-125h-108z" />
    <glyph glyph-name="uni0410" unicode="&#x410;" 
d="M43 0l186 730h142l187 -730h-110l-44 185h-207l-44 -185h-110zM217 275h166l-50 210q-13 56 -21.5 97t-11.5 57q-3 -16 -11 -57t-22 -96z" />
    <glyph glyph-name="uni0411" unicode="&#x411;" 
d="M86 0v730h422v-98h-316v-194h114q72 0 124 -27.5t80.5 -76.5t28.5 -114q0 -66 -28.5 -115.5t-80.5 -77t-123 -27.5h-221zM192 96h115q56 0 89 33.5t33 90.5q0 56 -33 89.5t-89 33.5h-115v-247z" />
    <glyph glyph-name="uni0412" unicode="&#x412;" 
d="M85 0v730h215q103 0 162.5 -50.5t59.5 -138.5q0 -58 -35 -101.5t-91 -53.5v-3q42 -5 74.5 -30t50.5 -63t18 -85q0 -94 -61 -149.5t-164 -55.5h-229zM190 424h109q53 0 84.5 28.5t31.5 78.5q0 49 -31 77.5t-84 28.5h-110v-213zM190 93h115q59 0 93 31.5t34 85.5
q0 56 -34 90t-93 34h-115v-241z" />
    <glyph glyph-name="uni0413" unicode="&#x413;" 
d="M126 0v730h431v-98h-323v-632h-108z" />
    <glyph glyph-name="uni0414" unicode="&#x414;" 
d="M24 -140v231h41q16 29 34.5 89t19.5 131l7 419h383v-639h67v-231h-98v140h-356v-140h-98zM175 91h229v546h-177l-4 -326q-1 -75 -17 -134t-31 -86z" />
    <glyph glyph-name="uni0415" unicode="&#x415;" 
d="M94 0v730h429v-96h-323v-208h288v-93h-288v-237h323v-96h-429z" />
    <glyph glyph-name="uni0416" unicode="&#x416;" 
d="M3 0l126 378l-117 352h102l100 -313h44v313h83v-313h46l99 313h101l-119 -351l129 -379h-101l-111 338h-44l2 -338h-84l-1 338h-46l-109 -338h-100z" />
    <glyph glyph-name="uni0417" unicode="&#x417;" 
d="M291 -10q-72 0 -127 27t-86.5 75t-31.5 111h107q1 -53 39.5 -86t99.5 -33q62 0 100.5 34.5t38.5 90.5q0 55 -38.5 89.5t-100.5 34.5h-85v93h86q52 0 85 31t33 81q0 49 -32.5 79t-84.5 30q-54 0 -87.5 -33.5t-33.5 -86.5h-107q0 63 29 111t80.5 75t119.5 27
q66 0 116.5 -24.5t79 -67.5t28.5 -100q0 -60 -32.5 -104.5t-84.5 -56.5v-2q62 -12 100.5 -63t38.5 -121q0 -62 -32 -110t-88 -74.5t-130 -26.5z" />
    <glyph glyph-name="uni0418" unicode="&#x418;" 
d="M81 0v730h101v-383q0 -36 -2 -77.5t-4.5 -80.5t-4.5 -66l212 607h136v-730h-100v377q0 36 1.5 79t4.5 83t5 68l-212 -607h-137z" />
    <glyph glyph-name="uni0419" unicode="&#x419;" 
d="M81 0v730h101v-383q0 -36 -2 -77.5t-4.5 -80.5t-4.5 -66l212 607h136v-730h-100v377q0 36 1.5 79t4.5 83t5 68l-212 -607h-137zM300 804q-75 0 -121 40t-46 106h84q0 -36 22.5 -58t59.5 -22q38 0 61 22t23 58h85q0 -66 -46.5 -106t-121.5 -40z" />
    <glyph glyph-name="uni041A" unicode="&#x41a;" 
d="M84 0v730h108v-306h97l150 306h117l-173 -350l182 -380h-122l-156 330h-95v-330h-108z" />
    <glyph glyph-name="uni041B" unicode="&#x41b;" 
d="M19 -5v99h21q39 0 57.5 36t19.5 117l8 483h389v-730h-108v632h-174l-7 -385q-4 -252 -178 -252h-28z" />
    <glyph glyph-name="uni041C" unicode="&#x41c;" 
d="M63 0v730h148l87 -315l90 315h149v-730h-102v326q0 56 2.5 121.5t6.5 129.5t9 116l-110 -372h-91l-106 363q9 -71 14 -163t5 -195v-326h-102z" />
    <glyph glyph-name="uni041D" unicode="&#x41d;" 
d="M85 0v730h108v-304h214v304h108v-730h-108v329h-214v-329h-108z" />
    <glyph glyph-name="uni041E" unicode="&#x41e;" 
d="M300 -10q-102 0 -161 58.5t-59 164.5v304q0 106 59 164.5t161 58.5t161 -58.5t59 -163.5v-305q0 -106 -59 -164.5t-161 -58.5zM300 86q54 0 83 30t29 87v324q0 57 -28.5 87t-83.5 30t-83.5 -30t-28.5 -87v-324q0 -57 29 -87t83 -30z" />
    <glyph glyph-name="uni041F" unicode="&#x41f;" 
d="M86 0v730h428v-730h-108v632h-212v-632h-108z" />
    <glyph glyph-name="uni0420" unicode="&#x420;" 
d="M84 0v730h239q71 0 123.5 -27t81 -76.5t28.5 -116.5t-29 -116.5t-81 -76.5t-123 -27h-131v-290h-108zM192 386h131q56 0 89.5 34t33.5 90t-33.5 90t-89.5 34h-131v-248z" />
    <glyph glyph-name="uni0421" unicode="&#x421;" 
d="M308 -10q-103 0 -163.5 57.5t-60.5 155.5v324q0 99 60.5 156t163.5 57q102 0 162.5 -57.5t60.5 -155.5h-108q0 57 -30.5 87t-84.5 30q-55 0 -85.5 -30t-30.5 -87v-324q0 -57 30.5 -87t85.5 -30q54 0 84.5 30t30.5 87h108q0 -98 -60.5 -155.5t-162.5 -57.5z" />
    <glyph glyph-name="uni0422" unicode="&#x422;" 
d="M246 0v632h-195v98h499v-98h-196v-632h-108z" />
    <glyph glyph-name="uni0423" unicode="&#x423;" 
d="M182 0l74 188l-213 542h117l120 -339q11 -31 19 -61.5t10 -47.5q2 17 8.5 47.5t16.5 61.5l108 339h116l-262 -730h-114z" />
    <glyph glyph-name="uni0424" unicode="&#x424;" 
d="M246 -25v80q-60 1 -106.5 27t-73 73.5t-26.5 110.5v214q0 65 26.5 113t73 74.5t106.5 27.5v75h108v-75q60 -1 106.5 -27.5t73 -74.5t26.5 -113v-214q0 -63 -26.5 -110.5t-73 -73.5t-106.5 -27v-80h-108zM254 143v464q-52 0 -85 -34t-33 -93v-214q0 -57 33 -90t85 -33z
M346 143q52 0 85 33t33 90v214q0 59 -33 93t-85 34v-464z" />
    <glyph glyph-name="uni0425" unicode="&#x425;" 
d="M34 0l206 372l-194 358h122l102 -199l18 -38t14 -29q4 10 12.5 29t18.5 38l104 199h117l-194 -354l206 -376h-122l-113 216q-10 19 -19 38.5t-14 30.5q-4 -11 -13 -30.5t-18 -37.5l-115 -217h-118z" />
    <glyph glyph-name="uni0426" unicode="&#x426;" 
d="M471 -140v140h-385v730h108v-633h192v633h108v-633h75v-237h-98z" />
    <glyph glyph-name="uni0427" unicode="&#x427;" 
d="M405 0v265h-131q-98 0 -152 49t-54 137v279h108v-276q0 -44 29 -68.5t81 -24.5h119v369h108v-730h-108z" />
    <glyph glyph-name="uni0428" unicode="&#x428;" 
d="M55 0l-2 730h99v-639h105v639h87v-639h105v639h98v-730h-492z" />
    <glyph glyph-name="uni0429" unicode="&#x429;" 
d="M502 -140v140h-449v730h93v-639h107v639h79v-639h106v639h93v-639h66v-231h-95z" />
    <glyph glyph-name="uni042A" unicode="&#x42a;" 
d="M128 0v637h-133v93h241v-295h88q70 0 122 -27.5t81 -76t29 -114.5q0 -65 -29 -114t-81 -76t-122 -27h-196zM236 96h85q56 0 90.5 33.5t34.5 87.5q0 55 -34.5 88t-90.5 33h-85v-242z" />
    <glyph glyph-name="uni042B" unicode="&#x42b;" 
d="M53 0v730h98v-295h41q89 0 141.5 -51.5t52.5 -139.5v-54q0 -88 -52.5 -139t-141.5 -51h-139zM449 0v730h98v-730h-98zM151 90h41q46 0 73 27t27 73v54q0 47 -27 74t-73 27h-41v-255z" />
    <glyph glyph-name="uni042C" unicode="&#x42c;" 
d="M86 0v730h108v-292h130q70 0 122 -27.5t81 -77t29 -114.5t-29 -114.5t-81 -77t-122 -27.5h-238zM194 96h127q56 0 90.5 34t34.5 88q0 55 -34.5 89t-90.5 34h-127v-245z" />
    <glyph glyph-name="uni042D" unicode="&#x42d;" 
d="M69 203h108q0 -57 30.5 -87t84.5 -30q55 0 85.5 30t30.5 87v126h-216v98h216v100q0 57 -30.5 87t-85.5 30q-54 0 -84.5 -30t-30.5 -87h-108q0 98 60.5 155.5t162.5 57.5q103 0 163.5 -57t60.5 -156v-324q0 -98 -60.5 -155.5t-163.5 -57.5q-102 0 -162.5 57.5t-60.5 155.5
z" />
    <glyph glyph-name="uni042E" unicode="&#x42e;" 
d="M403 -10q-75 0 -120 50t-45 134v158h-88v-332h-97v730h97v-308h88v135q0 83 45 133t120 50q77 0 123 -50t46 -133v-383q0 -84 -46 -134t-123 -50zM401 75q35 0 54.5 25t19.5 71v389q0 45 -19.5 70t-54.5 25t-54.5 -25t-19.5 -70v-389q0 -46 19.5 -71t54.5 -25z" />
    <glyph glyph-name="uni042F" unicode="&#x42f;" 
d="M50 0l146 314q-64 21 -101 75t-37 127q0 65 28.5 113t80 74.5t120.5 26.5h227v-730h-108v300h-102l-133 -300h-121zM287 395h119v240h-119q-54 0 -86.5 -33t-32.5 -88q0 -54 32 -86.5t87 -32.5z" />
    <glyph glyph-name="uni0430" unicode="&#x430;" 
d="M245 -10q-84 0 -133.5 47.5t-49.5 124.5q0 78 53 125.5t141 47.5h152v40q0 95 -107 95q-48 0 -77 -18t-31 -50h-106q5 69 62 113.5t153 44.5q102 0 158 -48.5t56 -135.5v-376h-106v103h-1q-7 -53 -50 -83t-114 -30zM276 79q61 0 96.5 29.5t35.5 79.5v71h-144
q-43 0 -68.5 -25t-25.5 -64q0 -42 28 -66.5t78 -24.5z" />
    <glyph glyph-name="uni0431" unicode="&#x431;" 
d="M300 -10q-102 1 -162 59t-60 158v252q0 121 55.5 188.5t162.5 76.5l195 16v-105l-179 -15q-144 -12 -144 -161v-51q12 51 52.5 79.5t103.5 28.5q95 0 146.5 -57.5t51.5 -156.5v-95q0 -100 -60 -159t-162 -58zM300 85q53 0 83.5 32.5t30.5 89.5v95q0 57 -30.5 89.5
t-83.5 32.5t-83.5 -32.5t-30.5 -89.5v-95q0 -57 30.5 -89.5t83.5 -32.5z" />
    <glyph glyph-name="uni0432" unicode="&#x432;" 
d="M84 0v550h247q87 0 138 -37.5t51 -101.5q0 -48 -32 -79t-84 -34v-4q61 -4 95.5 -41t34.5 -97q0 -72 -53 -114t-143 -42h-254zM190 322h139q40 0 62 18.5t22 52.5q0 33 -22 51.5t-62 18.5h-139v-141zM190 87h145q44 0 68.5 20.5t24.5 58.5q0 36 -24.5 57t-68.5 21h-145
v-157z" />
    <glyph glyph-name="uni0433" unicode="&#x433;" 
d="M129 0v550h403v-99h-295v-451h-108z" />
    <glyph glyph-name="uni0434" unicode="&#x434;" 
d="M25 -140v234h39q19 18 37 64t20 140l4 252h377v-456h70v-234h-98v140h-351v-140h-98zM172 94h225v363h-171l-2 -160q-2 -92 -18 -139t-34 -64z" />
    <glyph glyph-name="uni0435" unicode="&#x435;" 
d="M300 -10q-101 0 -162 59t-61 161v130q0 102 61 161t162 59q68 0 118 -26.5t77.5 -74.5t27.5 -112v-99h-342v-45q0 -58 32 -90t87 -32q45 0 75 16.5t36 45.5h107q-11 -70 -70.5 -111.5t-147.5 -41.5zM181 347v-23h238v24q0 61 -31 94t-88 33t-88 -33.5t-31 -94.5z" />
    <glyph glyph-name="uni0436" unicode="&#x436;" 
d="M9 0l120 283l-112 267h99l96 -232h47v232h82v-232h46l100 232h96l-112 -264l120 -286h-100l-101 245h-49v-245h-82v245h-49l-99 -245h-102z" />
    <glyph glyph-name="uni0437" unicode="&#x437;" 
d="M263 -7q-93 0 -148 43.5t-55 117.5h106q0 -32 26.5 -50.5t70.5 -18.5h59q47 0 74 20.5t27 55.5q0 36 -27 57t-74 21h-124v89h120q43 0 68 19t25 51t-25.5 50.5t-67.5 18.5h-49q-41 0 -65 -15.5t-25 -42.5h-107q1 68 54 108t143 40h49q92 0 147 -38t55 -105
q0 -47 -32.5 -78t-83.5 -34v-5q60 -4 95 -41.5t35 -96.5q0 -75 -57.5 -120.5t-154.5 -45.5h-59z" />
    <glyph glyph-name="uni0438" unicode="&#x438;" 
d="M84 0v550h100v-281q0 -44 -2 -92t-10 -81l211 454h133v-550h-100v281q0 45 1.5 91t10.5 77l-211 -449h-133z" />
    <glyph glyph-name="uni0439" unicode="&#x439;" 
d="M84 0v550h100v-281q0 -44 -2 -92t-10 -81l211 454h133v-550h-100v281q0 45 1.5 91t10.5 77l-211 -449h-133zM300 639q-75 0 -121 40t-46 106h84q0 -36 22.5 -58t59.5 -22q38 0 61 22t23 58h85q0 -66 -46.5 -106t-121.5 -40z" />
    <glyph glyph-name="uni043A" unicode="&#x43a;" 
d="M94 0v550h108v-219h98l138 219h122l-168 -265l178 -285h-124l-146 233h-98v-233h-108z" />
    <glyph glyph-name="uni043B" unicode="&#x43b;" 
d="M24 -7v99h18q40 0 58 32t20 108l6 318h390v-550h-108v452h-176l-5 -226q-2 -120 -46 -176.5t-132 -56.5h-25z" />
    <glyph glyph-name="uni043C" unicode="&#x43c;" 
d="M63 0v550h138l97 -264l99 264h140v-550h-101v90q0 79 0.5 155.5t3 142t9.5 111.5l-106 -293h-91l-102 277q11 -62 12.5 -164.5t1.5 -228.5v-90h-101z" />
    <glyph glyph-name="uni043D" unicode="&#x43d;" 
d="M84 0v550h108v-219h216v219h108v-550h-108v233h-216v-233h-108z" />
    <glyph glyph-name="uni043E" unicode="&#x43e;" 
d="M300 -9q-102 0 -162.5 59t-60.5 161v128q0 103 60 161.5t163 58.5t163 -58.5t60 -161.5v-128q0 -102 -60.5 -161t-162.5 -59zM300 86q54 0 84.5 30.5t30.5 87.5v142q0 57 -30.5 87.5t-84.5 30.5t-84.5 -30.5t-30.5 -87.5v-142q0 -57 30.5 -87.5t84.5 -30.5z" />
    <glyph glyph-name="uni043F" unicode="&#x43f;" 
d="M84 0v550h432v-550h-108v452h-216v-452h-108z" />
    <glyph glyph-name="uni0440" unicode="&#x440;" 
d="M84 -180v730h107v-104q11 54 50.5 84t99.5 30q82 0 131 -56.5t49 -150.5v-155q0 -95 -49 -151.5t-131 -56.5q-60 0 -100 31.5t-51 86.5h-1l3 -131v-157h-108zM303 84q52 0 81 27.5t29 88.5v151q0 60 -29 87.5t-81 27.5t-81.5 -31.5t-29.5 -88.5v-141q0 -58 29.5 -89.5
t81.5 -31.5z" />
    <glyph glyph-name="uni0441" unicode="&#x441;" 
d="M308 -10q-103 0 -165 57t-62 156v144q0 99 62 156t165 57q100 0 160 -52t64 -142h-107q-3 47 -34.5 73t-82.5 26q-55 0 -87 -30.5t-32 -86.5v-145q0 -57 32 -87.5t87 -30.5q52 0 83 26t34 74h107q-4 -90 -64 -142.5t-160 -52.5z" />
    <glyph glyph-name="uni0442" unicode="&#x442;" 
d="M246 0v452h-194v98h496v-98h-194v-452h-108z" />
    <glyph glyph-name="uni0443" unicode="&#x443;" 
d="M171 -180l80 212l-206 518h115l117 -310q9 -22 17 -48t11 -46q4 20 11.5 46t15.5 48l109 310h114l-271 -730h-113z" />
    <glyph glyph-name="uni0444" unicode="&#x444;" 
d="M246 -180v180q-60 2 -105.5 29t-71 74t-25.5 108v130q0 60 25.5 106.5t71 73.5t105.5 29v180h108v-180q60 -2 105.5 -29t71 -73.5t25.5 -106.5v-130q0 -61 -25.5 -108t-71 -74t-105.5 -29v-180h-108zM257 83v384q-54 0 -84.5 -32t-30.5 -87v-144q0 -56 30.5 -88.5
t84.5 -32.5zM343 83q54 0 84.5 32.5t30.5 88.5v144q0 55 -30.5 87t-84.5 32v-384z" />
    <glyph glyph-name="uni0445" unicode="&#x445;" 
d="M43 0l193 284l-181 266h124l97 -152q7 -12 14 -25.5t11 -22.5q3 9 9.5 22.5t14.5 25.5l96 152h125l-181 -267l192 -283h-124l-107 165q-7 12 -14 27t-11 24q-5 -9 -12 -24t-15 -27l-107 -165h-124z" />
    <glyph glyph-name="uni0446" unicode="&#x446;" 
d="M474 -140v140h-390v550h108v-452h197v452h108v-452h75v-238h-98z" />
    <glyph glyph-name="uni0447" unicode="&#x447;" 
d="M401 0v184h-142q-88 0 -138.5 46.5t-50.5 128.5v191h108v-188q0 -38 24.5 -59.5t67.5 -21.5h131v269h108v-550h-108z" />
    <glyph glyph-name="uni0448" unicode="&#x448;" 
d="M55 0l-2 550h99v-462h105v462h87v-462h105v462h98v-550h-492z" />
    <glyph glyph-name="uni0449" unicode="&#x449;" 
d="M502 -140v140h-449v550h93v-462h105v462h79v-462h105v462h93v-462h69v-228h-95z" />
    <glyph glyph-name="uni044A" unicode="&#x44a;" 
d="M158 0v452h-134v98h242v-191h102q96 0 151.5 -48t55.5 -132q0 -83 -56 -131t-150 -48h-211zM266 96h100q47 0 72.5 21.5t25.5 62.5q0 40 -25.5 61.5t-72.5 21.5h-100v-167z" />
    <glyph glyph-name="uni044B" unicode="&#x44b;" 
d="M53 0v550h98v-194h47q88 0 140 -48.5t52 -130.5q0 -81 -52 -129t-140 -48h-145zM449 0v550h98v-550h-98zM151 83h47q46 0 73 25.5t27 68.5q0 44 -27 70t-73 26h-47v-190z" />
    <glyph glyph-name="uni044C" unicode="&#x44c;" 
d="M96 0v550h108v-191h147q96 0 151 -48t55 -132q0 -83 -55.5 -131t-150.5 -48h-255zM204 96h144q48 0 73.5 21.5t25.5 62.5q0 40 -25.5 61.5t-73.5 21.5h-144v-167z" />
    <glyph glyph-name="uni044D" unicode="&#x44d;" 
d="M294 -10q-100 0 -160 52t-63 140h108q3 -46 33 -71.5t82 -25.5q55 0 86.5 30.5t31.5 86.5v32h-173v90h173v23q0 57 -31.5 87.5t-86.5 30.5q-51 0 -81.5 -25.5t-33.5 -70.5h-108q3 87 63 139t160 52q103 0 164.5 -57t61.5 -156v-144q0 -99 -61.5 -156t-164.5 -57z" />
    <glyph glyph-name="uni044E" unicode="&#x44e;" 
d="M395 -10q-73 0 -115.5 45.5t-42.5 123.5v79h-87v-238h-97v550h97v-230h87v72q0 77 42.5 122.5t115.5 45.5q78 0 123 -45.5t45 -122.5v-233q0 -78 -45 -123.5t-123 -45.5zM395 72q33 0 52.5 23.5t19.5 63.5v233q0 39 -19.5 62.5t-51.5 23.5q-33 0 -51.5 -23.5t-18.5 -62.5
v-233q0 -40 18.5 -63.5t50.5 -23.5z" />
    <glyph glyph-name="uni044F" unicode="&#x44f;" 
d="M59 0l135 208q-57 16 -90 59.5t-33 104.5q0 83 56 130.5t153 47.5h236v-550h-108v199h-101l-121 -199h-127zM283 287h125v172h-125q-48 0 -75.5 -23t-27.5 -64q0 -40 27.5 -62.5t75.5 -22.5z" />
    <glyph glyph-name="uni0451" unicode="&#x451;" 
d="M300 -10q-101 0 -162 59t-61 161v130q0 102 61 161t162 59q68 0 118 -26.5t77.5 -74.5t27.5 -112v-99h-342v-45q0 -58 32 -90t87 -32q45 0 75 16.5t36 45.5h107q-11 -70 -70.5 -111.5t-147.5 -41.5zM181 347v-23h238v24q0 61 -31 94t-88 33t-88 -33.5t-31 -94.5zM414 645
q-31 0 -49.5 18.5t-18.5 49.5q0 32 18.5 50.5t49.5 18.5q32 0 50.5 -18.5t18.5 -50.5q0 -31 -18.5 -49.5t-50.5 -18.5zM186 645q-32 0 -50.5 18.5t-18.5 49.5q0 32 18.5 50.5t50.5 18.5q31 0 50 -18.5t19 -50.5q0 -31 -19 -49.5t-50 -18.5z" />
    <glyph glyph-name="uni0452" unicode="&#x452;" 
d="M250 -180v100h41q56 0 86.5 30t30.5 85v259q0 54 -28 84t-78 30q-51 0 -79.5 -32t-28.5 -89v-287h-108v566h-86v79h86v85h108v-85h159v-79h-159v-76l-2 -105h2q7 55 44.5 85t99.5 30q82 0 130 -52.5t48 -141.5v-272q0 -99 -60 -156.5t-161 -57.5h-45z" />
    <glyph glyph-name="uni0453" unicode="&#x453;" 
d="M129 0v550h403v-99h-295v-451h-108zM263 645l106 140h116l-113 -140h-109z" />
    <glyph glyph-name="uni0454" unicode="&#x454;" 
d="M306 -10q-103 0 -164.5 57t-61.5 156v144q0 99 61.5 156t164.5 57q100 0 160 -52t63 -139h-108q-3 45 -33.5 70.5t-81.5 25.5q-55 0 -86.5 -30.5t-31.5 -87.5v-23h174v-90h-174v-32q0 -56 31.5 -86.5t86.5 -30.5q52 0 82 25.5t33 71.5h108q-3 -88 -63 -140t-160 -52z" />
    <glyph glyph-name="uni0455" unicode="&#x455;" 
d="M278 -9q-95 0 -149 43t-54 120h107q0 -35 25 -54.5t71 -19.5h44q47 0 73 19.5t26 55.5q0 63 -67 72l-145 20q-61 8 -94 48.5t-33 105.5q0 75 50.5 116.5t143.5 41.5h45q86 0 139.5 -41t56.5 -108h-108q-2 27 -25.5 44.5t-62.5 17.5h-45q-43 0 -66.5 -19t-23.5 -50
q0 -52 57 -60l136 -18q147 -20 147 -169q0 -79 -53 -122t-151 -43h-44z" />
    <glyph glyph-name="uni0456" unicode="&#x456;" 
d="M81 0v98h191v354h-171v98h279v-452h177v-98h-476zM317 645q-35 0 -56 18.5t-21 49.5q0 32 21 50.5t56 18.5t56 -18.5t21 -50.5q0 -31 -21 -49.5t-56 -18.5z" />
    <glyph glyph-name="uni0457" unicode="&#x457;" 
d="M81 0v98h191v354h-171v98h279v-452h177v-98h-476zM431 645q-31 0 -49.5 18.5t-18.5 49.5q0 32 18.5 50.5t49.5 18.5q32 0 50.5 -18.5t18.5 -50.5q0 -31 -18.5 -49.5t-50.5 -18.5zM203 645q-32 0 -50.5 18.5t-18.5 49.5q0 32 18.5 50.5t50.5 18.5q31 0 50 -18.5t19 -50.5
q0 -31 -19 -49.5t-50 -18.5z" />
    <glyph glyph-name="uni0458" unicode="&#x458;" 
d="M86 -180v98h134q55 0 86.5 31t31.5 86v417h-257v98h365v-516q0 -99 -60 -156.5t-162 -57.5h-138zM383 645q-35 0 -56 18.5t-21 49.5q0 32 21 50.5t56 18.5t56 -18.5t21 -50.5q0 -31 -21 -49.5t-56 -18.5z" />
    <glyph glyph-name="uni0459" unicode="&#x459;" 
d="M2 -5v94h18q26 0 41.5 29.5t16.5 78.5l4 353h285v-192h54q73 0 117.5 -43t44.5 -113v-49q0 -69 -44.5 -111t-117.5 -42h-142v463h-103l-3 -267q-1 -92 -42 -146.5t-110 -54.5h-19zM367 85h54q31 0 48.5 18.5t17.5 49.5v49q0 32 -17.5 51t-48.5 19h-54v-187z" />
    <glyph glyph-name="uni045A" unicode="&#x45a;" 
d="M55 0v550h95v-194h132v194h86v-194h53q73 0 117.5 -43t44.5 -113v-46q0 -70 -45 -112t-117 -42h-139v271h-132v-271h-95zM368 86h53q31 0 49 18.5t18 49.5v46q0 32 -18 51.5t-49 19.5h-53v-185z" />
    <glyph glyph-name="uni045B" unicode="&#x45b;" 
d="M0 566v79h84v85h108v-85h161v-79h-161v-76l-1 -105h1q8 55 46 85t100 30q82 0 131 -52.5t49 -141.5v-306h-108v294q0 54 -29 84t-79 30q-51 0 -80.5 -32t-29.5 -89v-287h-108v566h-84z" />
    <glyph glyph-name="uni045C" unicode="&#x45c;" 
d="M94 0v550h108v-219h98l138 219h122l-168 -265l178 -285h-124l-146 233h-98v-233h-108zM236 645l106 140h116l-113 -140h-109z" />
    <glyph glyph-name="uni045E" unicode="&#x45e;" 
d="M171 -180l80 212l-206 518h115l117 -310q9 -22 17 -48t11 -46q4 20 11.5 46t15.5 48l109 310h114l-271 -730h-113zM300 639q-75 0 -121 40t-46 106h84q0 -36 22.5 -58t59.5 -22q38 0 61 22t23 58h85q0 -66 -46.5 -106t-121.5 -40z" />
    <glyph glyph-name="uni045F" unicode="&#x45f;" 
d="M246 -125v125h-162v550h108v-451h216v451h108v-550h-162v-125h-108z" />
    <glyph glyph-name="uni0490" unicode="&#x490;" 
d="M126 0v730h328v95h103v-194h-323v-631h-108z" />
    <glyph glyph-name="uni0491" unicode="&#x491;" 
d="M126 0v550h299v105h103v-204h-294v-451h-108z" />
    <glyph glyph-name="uni0492" unicode="&#x492;" 
d="M126 0v320h-96v93h96v317h431v-98h-323v-219h149v-93h-149v-320h-108z" />
    <glyph glyph-name="uni0493" unicode="&#x493;" 
d="M144 0v222h-100v98h100v230h403v-99h-295v-131h166v-98h-166v-222h-108z" />
    <glyph glyph-name="uni049A" unicode="&#x49a;" 
d="M72 0v730h108v-306h96l150 306h118l-173 -350l135 -282h82v-238h-95v140h-62l-156 330h-95v-330h-108z" />
    <glyph glyph-name="uni049B" unicode="&#x49b;" 
d="M84 0v550h108v-221h92l146 221h123l-176 -264l117 -188h82v-238h-95v140h-50l-147 236h-92v-236h-108z" />
    <glyph glyph-name="uni04A2" unicode="&#x4a2;" 
d="M79 0v730h108v-304h214v304h108v-632h53v-238h-95v140h-66v329h-214v-329h-108z" />
    <glyph glyph-name="uni04A3" unicode="&#x4a3;" 
d="M81 0v550h108v-221h212v221h108v-452h53v-238h-95v140h-66v230h-212v-230h-108z" />
    <glyph glyph-name="uni04AE" unicode="&#x4ae;" 
d="M246 0v269l-217 461h114l127 -276q13 -27 21 -51t11 -36q3 12 11 36t20 51l126 276h112l-217 -461v-269h-108z" />
    <glyph glyph-name="uni04AF" unicode="&#x4af;" 
d="M246 -180v180l-196 550h113l116 -348q11 -33 16 -61.5t8 -45.5q4 17 8.5 45.5t15.5 61.5l113 348h110l-196 -550v-180h-108z" />
    <glyph glyph-name="uni04B0" unicode="&#x4b0;" 
d="M124 190v79h122l-217 461h114l127 -276q13 -27 21 -51t11 -36q3 12 11 36t20 51l126 276h112l-217 -461h123v-79h-123v-190h-108v190h-122z" />
    <glyph glyph-name="uni04B1" unicode="&#x4b1;" 
d="M124 -79v79h122l-196 550h113l116 -348q11 -33 16 -61.5t8 -45.5q4 17 8.5 45.5t15.5 61.5l113 348h110l-196 -550h123v-79h-123v-101h-108v101h-122z" />
    <glyph glyph-name="uni04B6" unicode="&#x4b6;" 
d="M395 0v265h-131q-98 0 -152 49t-54 137v279h108v-276q0 -44 29 -68.5t81 -24.5h119v369h108v-632h49v-238h-95v140h-62z" />
    <glyph glyph-name="uni04B7" unicode="&#x4b7;" 
d="M395 0v184h-142q-89 0 -139.5 46.5t-50.5 128.5v191h108v-188q0 -38 24.5 -59.5t68.5 -21.5h131v269h108v-452h51v-238h-95v140h-64z" />
    <glyph glyph-name="uni04BA" unicode="&#x4ba;" 
d="M196 730v-265h131q97 0 151.5 -49t54.5 -137v-279h-108v276q0 44 -29.5 68.5t-81.5 24.5h-118v-369h-108v730h108z" />
    <glyph glyph-name="uni04BB" unicode="&#x4bb;" 
d="M199 550v-184h142q88 0 138.5 -46.5t50.5 -127.5v-192h-108v189q0 37 -24.5 58.5t-67.5 21.5h-131v-269h-108v550h108z" />
    <glyph glyph-name="uni04D8" unicode="&#x4d8;" 
d="M297 -10q-102 0 -162.5 57.5t-60.5 155.5v214h337v111q0 54 -30.5 85.5t-83.5 31.5q-54 0 -84.5 -31.5t-30.5 -86.5h-108q0 98 60.5 155.5t162.5 57.5t162 -57.5t60 -155.5v-324q0 -97 -60 -155t-162 -58zM297 85q53 0 83.5 31.5t30.5 86.5v116h-229v-116
q0 -55 30.5 -86.5t84.5 -31.5z" />
    <glyph glyph-name="uni04D9" unicode="&#x4d9;" 
d="M300 560q101 0 162 -59t61 -161v-130q0 -102 -61 -161t-162 -59q-68 0 -118 26.5t-77.5 74.5t-27.5 112v99h342v45q0 58 -32 90t-87 32q-45 0 -75 -16.5t-36 -45.5h-107q11 70 70.5 111.5t147.5 41.5zM419 203v24l-238 -1v-24q0 -61 31 -94t88 -33t88 33.5t31 94.5z" />
    <glyph glyph-name="uni04DC" unicode="&#x4dc;" 
d="M3 0l126 378l-117 352h102l100 -313h44v313h83v-313h46l99 313h101l-119 -351l129 -379h-101l-111 338h-44l2 -338h-84l-1 338h-46l-109 -338h-100zM414 813q-31 0 -49.5 18t-18.5 49q0 32 18.5 50.5t49.5 18.5q32 0 50.5 -18.5t18.5 -50.5q0 -31 -18.5 -49t-50.5 -18z
M186 813q-32 0 -50.5 18t-18.5 49q0 32 18.5 50.5t50.5 18.5q31 0 50 -18.5t19 -50.5q0 -31 -19 -49t-50 -18z" />
    <glyph glyph-name="uni04DD" unicode="&#x4dd;" 
d="M9 0l120 283l-112 267h99l96 -232h47v232h82v-232h46l100 232h96l-112 -264l120 -286h-100l-101 245h-49v-245h-82v245h-49l-99 -245h-102zM414 645q-31 0 -49.5 18.5t-18.5 49.5q0 32 18.5 50.5t49.5 18.5q32 0 50.5 -18.5t18.5 -50.5q0 -31 -18.5 -49.5t-50.5 -18.5z
M186 645q-32 0 -50.5 18.5t-18.5 49.5q0 32 18.5 50.5t50.5 18.5q31 0 50 -18.5t19 -50.5q0 -31 -19 -49.5t-50 -18.5z" />
    <glyph glyph-name="uni04DE" unicode="&#x4de;" 
d="M291 -10q-72 0 -127 27t-86.5 75t-31.5 111h107q1 -53 39.5 -86t99.5 -33q62 0 100.5 34.5t38.5 90.5q0 55 -38.5 89.5t-100.5 34.5h-85v93h86q52 0 85 31t33 81q0 49 -32.5 79t-84.5 30q-54 0 -87.5 -33.5t-33.5 -86.5h-107q0 63 29 111t80.5 75t119.5 27
q66 0 116.5 -24.5t79 -67.5t28.5 -100q0 -60 -32.5 -104.5t-84.5 -56.5v-2q62 -12 100.5 -63t38.5 -121q0 -62 -32 -110t-88 -74.5t-130 -26.5zM414 813q-31 0 -49.5 18t-18.5 49q0 32 18.5 50.5t49.5 18.5q32 0 50.5 -18.5t18.5 -50.5q0 -31 -18.5 -49t-50.5 -18zM186 813
q-32 0 -50.5 18t-18.5 49q0 32 18.5 50.5t50.5 18.5q31 0 50 -18.5t19 -50.5q0 -31 -19 -49t-50 -18z" />
    <glyph glyph-name="uni04DF" unicode="&#x4df;" 
d="M263 -7q-93 0 -148 43.5t-55 117.5h106q0 -32 26.5 -50.5t70.5 -18.5h59q47 0 74 20.5t27 55.5q0 36 -27 57t-74 21h-124v89h120q43 0 68 19t25 51t-25.5 50.5t-67.5 18.5h-49q-41 0 -65 -15.5t-25 -42.5h-107q1 68 54 108t143 40h49q92 0 147 -38t55 -105
q0 -47 -32.5 -78t-83.5 -34v-5q60 -4 95 -41.5t35 -96.5q0 -75 -57.5 -120.5t-154.5 -45.5h-59zM414 645q-31 0 -49.5 18.5t-18.5 49.5q0 32 18.5 50.5t49.5 18.5q32 0 50.5 -18.5t18.5 -50.5q0 -31 -18.5 -49.5t-50.5 -18.5zM186 645q-32 0 -50.5 18.5t-18.5 49.5
q0 32 18.5 50.5t50.5 18.5q31 0 50 -18.5t19 -50.5q0 -31 -19 -49.5t-50 -18.5z" />
    <glyph glyph-name="uni04E4" unicode="&#x4e4;" 
d="M81 0v730h101v-383q0 -36 -2 -77.5t-4.5 -80.5t-4.5 -66l212 607h136v-730h-100v377q0 36 1.5 79t4.5 83t5 68l-212 -607h-137zM414 813q-31 0 -49.5 18t-18.5 49q0 32 18.5 50.5t49.5 18.5q32 0 50.5 -18.5t18.5 -50.5q0 -31 -18.5 -49t-50.5 -18zM186 813
q-32 0 -50.5 18t-18.5 49q0 32 18.5 50.5t50.5 18.5q31 0 50 -18.5t19 -50.5q0 -31 -19 -49t-50 -18z" />
    <glyph glyph-name="uni04E5" unicode="&#x4e5;" 
d="M84 0v550h100v-281q0 -44 -2 -92t-10 -81l211 454h133v-550h-100v281q0 45 1.5 91t10.5 77l-211 -449h-133zM414 645q-31 0 -49.5 18.5t-18.5 49.5q0 32 18.5 50.5t49.5 18.5q32 0 50.5 -18.5t18.5 -50.5q0 -31 -18.5 -49.5t-50.5 -18.5zM186 645q-32 0 -50.5 18.5
t-18.5 49.5q0 32 18.5 50.5t50.5 18.5q31 0 50 -18.5t19 -50.5q0 -31 -19 -49.5t-50 -18.5z" />
    <glyph glyph-name="uni04E6" unicode="&#x4e6;" 
d="M300 -10q-102 0 -161 58.5t-59 164.5v304q0 106 59 164.5t161 58.5t161 -58.5t59 -163.5v-305q0 -106 -59 -164.5t-161 -58.5zM300 86q54 0 83 30t29 87v324q0 57 -28.5 87t-83.5 30t-83.5 -30t-28.5 -87v-324q0 -57 29 -87t83 -30zM414 813q-31 0 -49.5 18t-18.5 49
q0 32 18.5 50.5t49.5 18.5q32 0 50.5 -18.5t18.5 -50.5q0 -31 -18.5 -49t-50.5 -18zM186 813q-32 0 -50.5 18t-18.5 49q0 32 18.5 50.5t50.5 18.5q31 0 50 -18.5t19 -50.5q0 -31 -19 -49t-50 -18z" />
    <glyph glyph-name="uni04E7" unicode="&#x4e7;" 
d="M300 -9q-102 0 -162.5 59t-60.5 161v128q0 103 60 161.5t163 58.5t163 -58.5t60 -161.5v-128q0 -102 -60.5 -161t-162.5 -59zM300 86q54 0 84.5 30.5t30.5 87.5v142q0 57 -30.5 87.5t-84.5 30.5t-84.5 -30.5t-30.5 -87.5v-142q0 -57 30.5 -87.5t84.5 -30.5zM414 645
q-31 0 -49.5 18.5t-18.5 49.5q0 32 18.5 50.5t49.5 18.5q32 0 50.5 -18.5t18.5 -50.5q0 -31 -18.5 -49.5t-50.5 -18.5zM186 645q-32 0 -50.5 18.5t-18.5 49.5q0 32 18.5 50.5t50.5 18.5q31 0 50 -18.5t19 -50.5q0 -31 -19 -49.5t-50 -18.5z" />
    <glyph glyph-name="uni04E8" unicode="&#x4e8;" 
d="M300 -10q-103 0 -161 58t-58 157v321q0 99 58 156.5t161 57.5t161 -57.5t58 -156.5v-321q0 -98 -58.5 -156.5t-160.5 -58.5zM185 420h230v104q0 58 -29 90t-86 32t-86 -32t-29 -90v-104zM300 84q56 0 85.5 32.5t29.5 90.5v120h-230v-120q0 -58 29.5 -90.5t85.5 -32.5z
" />
    <glyph glyph-name="uni04E9" unicode="&#x4e9;" 
d="M300 -10q-100 0 -159.5 58t-59.5 156v143q0 98 59.5 155.5t159.5 57.5q66 0 115.5 -26.5t76.5 -74t27 -111.5v-144q0 -98 -59.5 -156t-159.5 -58zM183 318h234v29q0 58 -30.5 89.5t-86.5 31.5t-86.5 -31.5t-30.5 -89.5v-29zM300 82q56 0 86.5 31.5t30.5 90.5v33h-234v-33
q0 -59 30.5 -90.5t86.5 -31.5z" />
    <glyph glyph-name="uni04F4" unicode="&#x4f4;" 
d="M405 0v265h-131q-98 0 -152 49t-54 137v279h108v-276q0 -44 29 -68.5t81 -24.5h119v369h108v-730h-108zM414 813q-31 0 -49.5 18t-18.5 49q0 32 18.5 50.5t49.5 18.5q32 0 50.5 -18.5t18.5 -50.5q0 -31 -18.5 -49t-50.5 -18zM186 813q-32 0 -50.5 18t-18.5 49
q0 32 18.5 50.5t50.5 18.5q31 0 50 -18.5t19 -50.5q0 -31 -19 -49t-50 -18z" />
    <glyph glyph-name="uni04F5" unicode="&#x4f5;" 
d="M401 0v184h-142q-88 0 -138.5 46.5t-50.5 128.5v191h108v-188q0 -38 24.5 -59.5t67.5 -21.5h131v269h108v-550h-108zM414 645q-31 0 -49.5 18.5t-18.5 49.5q0 32 18.5 50.5t49.5 18.5q32 0 50.5 -18.5t18.5 -50.5q0 -31 -18.5 -49.5t-50.5 -18.5zM186 645
q-32 0 -50.5 18.5t-18.5 49.5q0 32 18.5 50.5t50.5 18.5q31 0 50 -18.5t19 -50.5q0 -31 -19 -49.5t-50 -18.5z" />
    <glyph glyph-name="uni0AEA" unicode="&#xaea;" 
d="M300 -10q-69 0 -119.5 25t-78.5 67.5t-28 96.5q0 45 20 85t54 80l91 107l-169 199h123l108 -127l109 127h120l-169 -198l95 -111q33 -39 51.5 -79t18.5 -83q0 -54 -28 -96.5t-78.5 -67.5t-119.5 -25zM182 192q0 -45 32 -76t86 -31t86 31t32 76q0 49 -42 98l-76 90
l-77 -90q-41 -48 -41 -98z" />
    <glyph glyph-name="Wgrave" unicode="&#x1e80;" 
d="M98 0l-81 730h94l51 -524q3 -30 5 -68t3 -62q3 24 6 62t7 68l68 524h102l63 -524q3 -30 7.5 -68t6.5 -62q2 24 4.5 62t5.5 68l52 524h91l-84 -730h-126l-61 531q-3 31 -6 68t-5 60q-2 -23 -4.5 -60t-6.5 -68l-65 -531h-127zM258 810l-116 140h120l108 -140h-112z" />
    <glyph glyph-name="wgrave" unicode="&#x1e81;" 
d="M111 0l-88 550h89l52 -362q4 -27 7 -58.5t4 -51.5q2 20 5 51.5t8 58.5l64 362h97l64 -362q4 -27 7.5 -58.5t5.5 -51.5q2 20 4.5 51.5t6.5 58.5l54 362h86l-91 -550h-114l-58 359q-5 28 -8.5 62t-5.5 54q-1 -20 -5.5 -54t-8.5 -62l-60 -359h-115zM258 645l-116 140h120
l108 -140h-112z" />
    <glyph glyph-name="Wacute" unicode="&#x1e82;" 
d="M98 0l-81 730h94l51 -524q3 -30 5 -68t3 -62q3 24 6 62t7 68l68 524h102l63 -524q3 -30 7.5 -68t6.5 -62q2 24 4.5 62t5.5 68l52 524h91l-84 -730h-126l-61 531q-3 31 -6 68t-5 60q-2 -23 -4.5 -60t-6.5 -68l-65 -531h-127zM233 810l106 140h116l-113 -140h-109z" />
    <glyph glyph-name="wacute" unicode="&#x1e83;" 
d="M111 0l-88 550h89l52 -362q4 -27 7 -58.5t4 -51.5q2 20 5 51.5t8 58.5l64 362h97l64 -362q4 -27 7.5 -58.5t5.5 -51.5q2 20 4.5 51.5t6.5 58.5l54 362h86l-91 -550h-114l-58 359q-5 28 -8.5 62t-5.5 54q-1 -20 -5.5 -54t-8.5 -62l-60 -359h-115zM233 645l106 140h116
l-113 -140h-109z" />
    <glyph glyph-name="Wdieresis" unicode="&#x1e84;" 
d="M98 0l-81 730h94l51 -524q3 -30 5 -68t3 -62q3 24 6 62t7 68l68 524h102l63 -524q3 -30 7.5 -68t6.5 -62q2 24 4.5 62t5.5 68l52 524h91l-84 -730h-126l-61 531q-3 31 -6 68t-5 60q-2 -23 -4.5 -60t-6.5 -68l-65 -531h-127zM414 813q-31 0 -49.5 18t-18.5 49
q0 32 18.5 50.5t49.5 18.5q32 0 50.5 -18.5t18.5 -50.5q0 -31 -18.5 -49t-50.5 -18zM186 813q-32 0 -50.5 18t-18.5 49q0 32 18.5 50.5t50.5 18.5q31 0 50 -18.5t19 -50.5q0 -31 -19 -49t-50 -18z" />
    <glyph glyph-name="wdieresis" unicode="&#x1e85;" 
d="M111 0l-88 550h89l52 -362q4 -27 7 -58.5t4 -51.5q2 20 5 51.5t8 58.5l64 362h97l64 -362q4 -27 7.5 -58.5t5.5 -51.5q2 20 4.5 51.5t6.5 58.5l54 362h86l-91 -550h-114l-58 359q-5 28 -8.5 62t-5.5 54q-1 -20 -5.5 -54t-8.5 -62l-60 -359h-115zM414 645
q-31 0 -49.5 18.5t-18.5 49.5q0 32 18.5 50.5t49.5 18.5q32 0 50.5 -18.5t18.5 -50.5q0 -31 -18.5 -49.5t-50.5 -18.5zM186 645q-32 0 -50.5 18.5t-18.5 49.5q0 32 18.5 50.5t50.5 18.5q31 0 50 -18.5t19 -50.5q0 -31 -19 -49.5t-50 -18.5z" />
    <glyph glyph-name="uni1E9E" unicode="&#x1e9e;" 
d="M82 0v520q0 63 27.5 110.5t76.5 73.5t114 26h234v-104l-161 -203q79 -8 126 -64t47 -144q0 -65 -28 -113t-78.5 -75t-118.5 -27h-63v95h54q57 0 89.5 33.5t32.5 90.5q0 55 -33 88t-89 33h-45v88l160 207h-127q-53 0 -83.5 -31t-30.5 -84v-520h-104z" />
    <glyph glyph-name="uni1EA0" unicode="&#x1ea0;" 
d="M43 0l186 730h142l187 -730h-110l-44 185h-207l-44 -185h-110zM217 275h166l-50 210q-13 56 -21.5 97t-11.5 57q-3 -16 -11 -57t-22 -96zM300 -219q-35 0 -56 18t-21 50q0 31 21 49.5t56 18.5t56 -18.5t21 -49.5q0 -32 -21 -50t-56 -18z" />
    <glyph glyph-name="uni1EA1" unicode="&#x1ea1;" 
d="M245 -10q-84 0 -133.5 47.5t-49.5 124.5q0 78 53 125.5t141 47.5h152v40q0 95 -107 95q-48 0 -77 -18t-31 -50h-106q5 69 62 113.5t153 44.5q102 0 158 -48.5t56 -135.5v-376h-106v103h-1q-7 -53 -50 -83t-114 -30zM276 79q61 0 96.5 29.5t35.5 79.5v71h-144
q-43 0 -68.5 -25t-25.5 -64q0 -42 28 -66.5t78 -24.5zM305 -219q-35 0 -56 18t-21 50q0 31 21 49.5t56 18.5t56 -18.5t21 -49.5q0 -32 -21 -50t-56 -18z" />
    <glyph glyph-name="uni1EA2" unicode="&#x1ea2;" 
d="M43 0l186 730h142l187 -730h-110l-44 185h-207l-44 -185h-110zM217 275h166l-50 210q-13 56 -21.5 97t-11.5 57q-3 -16 -11 -57t-22 -96zM254 799l46 61q14 19 14 31q0 20 -30 20h-77v71h88q47 0 76 -21.5t29 -57.5q0 -30 -19 -55l-35 -49h-92z" />
    <glyph glyph-name="uni1EA3" unicode="&#x1ea3;" 
d="M245 -10q-84 0 -133.5 47.5t-49.5 124.5q0 78 53 125.5t141 47.5h152v40q0 95 -107 95q-48 0 -77 -18t-31 -50h-106q5 69 62 113.5t153 44.5q102 0 158 -48.5t56 -135.5v-376h-106v103h-1q-7 -53 -50 -83t-114 -30zM276 79q61 0 96.5 29.5t35.5 79.5v71h-144
q-43 0 -68.5 -25t-25.5 -64q0 -42 28 -66.5t78 -24.5zM259 645l49 62q15 18 15 31q0 19 -31 19h-80v71h105q41 0 66 -21t25 -57q0 -33 -18 -56l-39 -49h-92z" />
    <glyph glyph-name="uni1EA4" unicode="&#x1ea4;" 
d="M43 0l186 730h142l187 -730h-110l-44 185h-207l-44 -185h-110zM217 275h166l-50 210q-13 56 -21.5 97t-11.5 57q-3 -16 -11 -57t-22 -96zM412 902l105 118h115l-112 -118h-108zM113 780l137 140h100l138 -140h-111l-77 76l-77 -76h-110z" />
    <glyph glyph-name="uni1EA5" unicode="&#x1ea5;" 
d="M245 -10q-84 0 -133.5 47.5t-49.5 124.5q0 78 53 125.5t141 47.5h152v40q0 95 -107 95q-48 0 -77 -18t-31 -50h-106q5 69 62 113.5t153 44.5q102 0 158 -48.5t56 -135.5v-376h-106v103h-1q-7 -53 -50 -83t-114 -30zM276 79q61 0 96.5 29.5t35.5 79.5v71h-144
q-43 0 -68.5 -25t-25.5 -64q0 -42 28 -66.5t78 -24.5zM418 760l117 140h113l-123 -140h-107zM118 645l137 140h100l138 -140h-111l-77 76l-77 -76h-110z" />
    <glyph glyph-name="uni1EA6" unicode="&#x1ea6;" 
d="M43 0l186 730h142l187 -730h-110l-44 185h-207l-44 -185h-110zM217 275h166l-50 210q-13 56 -21.5 97t-11.5 57q-3 -16 -11 -57t-22 -96zM448 902l-118 118h113l112 -118h-107zM113 780l137 140h100l138 -140h-111l-77 76l-77 -76h-110z" />
    <glyph glyph-name="uni1EA7" unicode="&#x1ea7;" 
d="M245 -10q-84 0 -133.5 47.5t-49.5 124.5q0 78 53 125.5t141 47.5h152v40q0 95 -107 95q-48 0 -77 -18t-31 -50h-106q5 69 62 113.5t153 44.5q102 0 158 -48.5t56 -135.5v-376h-106v103h-1q-7 -53 -50 -83t-114 -30zM276 79q61 0 96.5 29.5t35.5 79.5v71h-144
q-43 0 -68.5 -25t-25.5 -64q0 -42 28 -66.5t78 -24.5zM463 760l-130 140h113l124 -140h-107zM118 645l137 140h100l138 -140h-111l-77 76l-77 -76h-110z" />
    <glyph glyph-name="uni1EA8" unicode="&#x1ea8;" 
d="M43 0l186 730h142l187 -730h-110l-44 185h-207l-44 -185h-110zM217 275h166l-50 210q-13 56 -21.5 97t-11.5 57q-3 -16 -11 -57t-22 -96zM425 877l44 43q10 10 10 20q0 17 -18 17h-67v63h88q36 0 58 -18.5t22 -49.5q0 -29 -18 -46l-31 -29h-88zM113 780l137 140h100
l138 -140h-111l-77 76l-77 -76h-110z" />
    <glyph glyph-name="uni1EA9" unicode="&#x1ea9;" 
d="M245 -10q-84 0 -133.5 47.5t-49.5 124.5q0 78 53 125.5t141 47.5h152v40q0 95 -107 95q-48 0 -77 -18t-31 -50h-106q5 69 62 113.5t153 44.5q102 0 158 -48.5t56 -135.5v-376h-106v103h-1q-7 -53 -50 -83t-114 -30zM276 79q61 0 96.5 29.5t35.5 79.5v71h-144
q-43 0 -68.5 -25t-25.5 -64q0 -42 28 -66.5t78 -24.5zM428 760l46 60q11 15 11 26q0 22 -30 22h-59v68h70q46 0 73.5 -21.5t27.5 -57.5q0 -24 -18 -49l-35 -48h-86zM118 645l137 140h100l138 -140h-111l-77 76l-77 -76h-110z" />
    <glyph glyph-name="uni1EAA" unicode="&#x1eaa;" 
d="M43 0l186 730h142l187 -730h-110l-44 185h-207l-44 -185h-110zM217 275h166l-50 210q-13 56 -21.5 97t-11.5 57q-3 -16 -11 -57t-22 -96zM378 917q-41 0 -65.5 11t-42.5 21.5t-40 10.5q-13 0 -20.5 -7.5t-7.5 -20.5v-6h-71v6q0 40 25 64t68 24q41 0 65 -11t41.5 -21.5
t39.5 -10.5q13 0 21 7.5t8 20.5v7h71v-7q0 -40 -25 -64t-67 -24zM113 780l109 108h156l110 -108h-112l-76 74l-77 -74h-110z" />
    <glyph glyph-name="uni1EAB" unicode="&#x1eab;" 
d="M245 -10q-84 0 -133.5 47.5t-49.5 124.5q0 78 53 125.5t141 47.5h152v40q0 95 -107 95q-48 0 -77 -18t-31 -50h-106q5 69 62 113.5t153 44.5q102 0 158 -48.5t56 -135.5v-376h-106v103h-1q-7 -53 -50 -83t-114 -30zM276 79q61 0 96.5 29.5t35.5 79.5v71h-144
q-43 0 -68.5 -25t-25.5 -64q0 -42 28 -66.5t78 -24.5zM372 816q-31 0 -50 9.5t-31 21.5t-23.5 21.5t-27.5 9.5q-30 0 -30 -31v-24h-71v22q0 43 27.5 69.5t71.5 26.5q32 0 50.5 -9.5t31 -22t23.5 -21.5t27 -9q30 0 30 29v25h71v-21q0 -43 -27.5 -69.5t-71.5 -26.5zM118 645
l137 140h100l138 -140h-111l-77 76l-77 -76h-110z" />
    <glyph glyph-name="uni1EAC" unicode="&#x1eac;" 
d="M112 810l138 140h100l138 -140h-110l-79 76l-76 -76h-111zM43 0l186 730h142l187 -730h-110l-44 185h-207l-44 -185h-110zM217 275h166l-50 210q-13 56 -21.5 97t-11.5 57q-3 -16 -11 -57t-22 -96zM300 -219q-35 0 -56 18t-21 50q0 31 21 49.5t56 18.5t56 -18.5t21 -49.5
q0 -32 -21 -50t-56 -18z" />
    <glyph glyph-name="uni1EAD" unicode="&#x1ead;" 
d="M245 -10q-84 0 -133.5 47.5t-49.5 124.5q0 78 53 125.5t141 47.5h152v40q0 95 -107 95q-48 0 -77 -18t-31 -50h-106q5 69 62 113.5t153 44.5q102 0 158 -48.5t56 -135.5v-376h-106v103h-1q-7 -53 -50 -83t-114 -30zM276 79q61 0 96.5 29.5t35.5 79.5v71h-144
q-43 0 -68.5 -25t-25.5 -64q0 -42 28 -66.5t78 -24.5zM305 -219q-35 0 -56 18t-21 50q0 31 21 49.5t56 18.5t56 -18.5t21 -49.5q0 -32 -21 -50t-56 -18zM117 645l138 140h100l138 -140h-110l-79 76l-76 -76h-111z" />
    <glyph glyph-name="uni1EAE" unicode="&#x1eae;" 
d="M235 902l105 118h106l-111 -118h-100zM272 780q-68 0 -108 35.5t-40 96.5h78q0 -31 18.5 -48.5t51.5 -17.5h55q33 0 52 17.5t19 48.5h78q0 -61 -40.5 -96.5t-108.5 -35.5h-55zM43 0l186 730h142l187 -730h-110l-44 185h-207l-44 -185h-110zM217 275h166l-50 210
q-13 56 -21.5 97t-11.5 57q-3 -16 -11 -57t-22 -96z" />
    <glyph glyph-name="uni1EAF" unicode="&#x1eaf;" 
d="M245 -10q-84 0 -133.5 47.5t-49.5 124.5q0 78 53 125.5t141 47.5h152v40q0 95 -107 95q-48 0 -77 -18t-31 -50h-106q5 69 62 113.5t153 44.5q102 0 158 -48.5t56 -135.5v-376h-106v103h-1q-7 -53 -50 -83t-114 -30zM276 79q61 0 96.5 29.5t35.5 79.5v71h-144
q-43 0 -68.5 -25t-25.5 -64q0 -42 28 -66.5t78 -24.5zM241 769l115 133h107l-122 -133h-100zM305 640q-78 0 -126 36.5t-48 96.5h82q0 -29 25 -46.5t67 -17.5t67.5 17.5t25.5 46.5h82q0 -60 -48.5 -96.5t-126.5 -36.5z" />
    <glyph glyph-name="uni1EB0" unicode="&#x1eb0;" 
d="M43 0l186 730h142l187 -730h-110l-44 185h-207l-44 -185h-110zM217 275h166l-50 210q-13 56 -21.5 97t-11.5 57q-3 -16 -11 -57t-22 -96zM268 902l-99 118h103l92 -118h-96zM272 780q-68 0 -108 35.5t-40 96.5h78q0 -31 18.5 -48.5t51.5 -17.5h55q33 0 52 17.5t19 48.5
h78q0 -61 -40.5 -96.5t-108.5 -35.5h-55z" />
    <glyph glyph-name="uni1EB1" unicode="&#x1eb1;" 
d="M245 -10q-84 0 -133.5 47.5t-49.5 124.5q0 78 53 125.5t141 47.5h152v40q0 95 -107 95q-48 0 -77 -18t-31 -50h-106q5 69 62 113.5t153 44.5q102 0 158 -48.5t56 -135.5v-376h-106v103h-1q-7 -53 -50 -83t-114 -30zM276 79q61 0 96.5 29.5t35.5 79.5v71h-144
q-43 0 -68.5 -25t-25.5 -64q0 -42 28 -66.5t78 -24.5zM269 769l-122 133h107l115 -133h-100zM305 640q-78 0 -126 36.5t-48 96.5h82q0 -29 25 -46.5t67 -17.5t67.5 17.5t25.5 46.5h82q0 -60 -48.5 -96.5t-126.5 -36.5z" />
    <glyph glyph-name="uni1EB2" unicode="&#x1eb2;" 
d="M43 0l186 730h142l187 -730h-110l-44 185h-207l-44 -185h-110zM217 275h166l-50 210q-13 56 -21.5 97t-11.5 57q-3 -16 -11 -57t-22 -96zM253 883l40 48q8 9 8 17q0 9 -12 9h-71v63h97q31 0 47.5 -14t16.5 -39q0 -30 -17 -53l-25 -31h-84zM272 780q-68 0 -108 35.5
t-40 96.5h78q0 -31 18.5 -48.5t51.5 -17.5h55q33 0 52 17.5t19 48.5h78q0 -61 -40.5 -96.5t-108.5 -35.5h-55z" />
    <glyph glyph-name="uni1EB3" unicode="&#x1eb3;" 
d="M245 -10q-84 0 -133.5 47.5t-49.5 124.5q0 78 53 125.5t141 47.5h152v40q0 95 -107 95q-48 0 -77 -18t-31 -50h-106q5 69 62 113.5t153 44.5q102 0 158 -48.5t56 -135.5v-376h-106v103h-1q-7 -53 -50 -83t-114 -30zM276 79q61 0 96.5 29.5t35.5 79.5v71h-144
q-43 0 -68.5 -25t-25.5 -64q0 -42 28 -66.5t78 -24.5zM254 769l45 59q11 13 11 26q0 22 -27 22h-60v68h74q44 0 71 -21t27 -55q0 -27 -19 -53l-34 -46h-88zM305 640q-78 0 -126 36.5t-48 96.5h82q0 -29 25 -46.5t67 -17.5t67.5 17.5t25.5 46.5h82q0 -60 -48.5 -96.5
t-126.5 -36.5z" />
    <glyph glyph-name="uni1EB4" unicode="&#x1eb4;" 
d="M43 0l186 730h142l187 -730h-110l-44 185h-207l-44 -185h-110zM217 275h166l-50 210q-13 56 -21.5 97t-11.5 57q-3 -16 -11 -57t-22 -96zM378 917q-41 0 -65.5 11t-42.5 21.5t-40 10.5q-13 0 -20.5 -7.5t-7.5 -20.5v-6h-71v6q0 40 25 64t68 24q41 0 65 -11t41.5 -21.5
t39.5 -10.5q13 0 21 7.5t8 20.5v7h71v-7q0 -40 -25 -64t-67 -24zM270 780q-64 0 -101.5 29.5t-37.5 87.5h77q0 -27 16 -39t44 -12h64q28 0 44 12t16 39h78q0 -58 -38 -87.5t-102 -29.5h-60z" />
    <glyph glyph-name="uni1EB5" unicode="&#x1eb5;" 
d="M245 -10q-84 0 -133.5 47.5t-49.5 124.5q0 78 53 125.5t141 47.5h152v40q0 95 -107 95q-48 0 -77 -18t-31 -50h-106q5 69 62 113.5t153 44.5q102 0 158 -48.5t56 -135.5v-376h-106v103h-1q-7 -53 -50 -83t-114 -30zM276 79q61 0 96.5 29.5t35.5 79.5v71h-144
q-43 0 -68.5 -25t-25.5 -64q0 -42 28 -66.5t78 -24.5zM372 810q-31 0 -50 10t-31 22.5t-23.5 22.5t-27.5 10q-30 0 -30 -31v-27h-71v25q0 43 27.5 69.5t71.5 26.5q32 0 50.5 -10t31 -23t23.5 -22.5t27 -9.5q30 0 30 29v29h71v-25q0 -43 -27.5 -69.5t-71.5 -26.5zM305 644
q-75 0 -121 36.5t-46 96.5h78q0 -30 24 -47.5t64 -17.5q41 0 65.5 17.5t24.5 47.5h79q0 -60 -46.5 -96.5t-121.5 -36.5z" />
    <glyph glyph-name="uni1EB6" unicode="&#x1eb6;" 
d="M300 804q-75 0 -121 40t-46 106h84q0 -36 22.5 -58t59.5 -22q38 0 61 22t23 58h85q0 -66 -46.5 -106t-121.5 -40zM43 0l186 730h142l187 -730h-110l-44 185h-207l-44 -185h-110zM217 275h166l-50 210q-13 56 -21.5 97t-11.5 57q-3 -16 -11 -57t-22 -96zM300 -219
q-35 0 -56 18t-21 50q0 31 21 49.5t56 18.5t56 -18.5t21 -49.5q0 -32 -21 -50t-56 -18z" />
    <glyph glyph-name="uni1EB7" unicode="&#x1eb7;" 
d="M245 -10q-84 0 -133.5 47.5t-49.5 124.5q0 78 53 125.5t141 47.5h152v40q0 95 -107 95q-48 0 -77 -18t-31 -50h-106q5 69 62 113.5t153 44.5q102 0 158 -48.5t56 -135.5v-376h-106v103h-1q-7 -53 -50 -83t-114 -30zM276 79q61 0 96.5 29.5t35.5 79.5v71h-144
q-43 0 -68.5 -25t-25.5 -64q0 -42 28 -66.5t78 -24.5zM305 -219q-35 0 -56 18t-21 50q0 31 21 49.5t56 18.5t56 -18.5t21 -49.5q0 -32 -21 -50t-56 -18zM305 639q-75 0 -121 40t-46 106h84q0 -36 22.5 -58t59.5 -22q38 0 61 22t23 58h85q0 -66 -46.5 -106t-121.5 -40z" />
    <glyph glyph-name="uni1EB8" unicode="&#x1eb8;" 
d="M94 0v730h429v-96h-323v-208h288v-93h-288v-237h323v-96h-429zM309 -219q-35 0 -56 18t-21 50q0 31 21 49.5t56 18.5t56 -18.5t21 -49.5q0 -32 -21 -50t-56 -18z" />
    <glyph glyph-name="uni1EB9" unicode="&#x1eb9;" 
d="M300 -10q-101 0 -162 59t-61 161v130q0 102 61 161t162 59q68 0 118 -26.5t77.5 -74.5t27.5 -112v-99h-342v-45q0 -58 32 -90t87 -32q45 0 75 16.5t36 45.5h107q-11 -70 -70.5 -111.5t-147.5 -41.5zM181 347v-23h238v24q0 61 -31 94t-88 33t-88 -33.5t-31 -94.5z
M300 -219q-35 0 -56 18t-21 50q0 31 21 49.5t56 18.5t56 -18.5t21 -49.5q0 -32 -21 -50t-56 -18z" />
    <glyph glyph-name="uni1EBA" unicode="&#x1eba;" 
d="M94 0v730h429v-96h-323v-208h288v-93h-288v-237h323v-96h-429zM263 799l46 61q14 19 14 31q0 20 -30 20h-77v71h88q47 0 76 -21.5t29 -57.5q0 -30 -19 -55l-35 -49h-92z" />
    <glyph glyph-name="uni1EBB" unicode="&#x1ebb;" 
d="M300 -10q-101 0 -162 59t-61 161v130q0 102 61 161t162 59q68 0 118 -26.5t77.5 -74.5t27.5 -112v-99h-342v-45q0 -58 32 -90t87 -32q45 0 75 16.5t36 45.5h107q-11 -70 -70.5 -111.5t-147.5 -41.5zM181 347v-23h238v24q0 61 -31 94t-88 33t-88 -33.5t-31 -94.5zM254 645
l49 62q15 18 15 31q0 19 -31 19h-80v71h105q41 0 66 -21t25 -57q0 -33 -18 -56l-39 -49h-92z" />
    <glyph glyph-name="uni1EBC" unicode="&#x1ebc;" 
d="M94 0v730h429v-96h-323v-208h288v-93h-288v-237h323v-96h-429zM379 811q-31 0 -50 10t-32 23t-25 23.5t-28 10.5q-30 0 -30 -35v-27h-71v31q0 47 26.5 75t69.5 28q31 0 50 -10.5t32 -23.5t25 -23t28 -10q30 0 30 32v30h71v-32q0 -47 -26.5 -74.5t-69.5 -27.5z" />
    <glyph glyph-name="uni1EBD" unicode="&#x1ebd;" 
d="M300 -10q-101 0 -162 59t-61 161v130q0 102 61 161t162 59q68 0 118 -26.5t77.5 -74.5t27.5 -112v-99h-342v-45q0 -58 32 -90t87 -32q45 0 75 16.5t36 45.5h107q-11 -70 -70.5 -111.5t-147.5 -41.5zM181 347v-23h238v24q0 61 -31 94t-88 33t-88 -33.5t-31 -94.5zM370 646
q-31 0 -50 10t-32 23t-25 23.5t-28 10.5q-30 0 -30 -35v-27h-71v31q0 47 26.5 75t69.5 28q31 0 50 -10.5t32 -23.5t25 -23t28 -10q30 0 30 32v30h71v-32q0 -47 -26.5 -74.5t-69.5 -27.5z" />
    <glyph glyph-name="uni1EBE" unicode="&#x1ebe;" 
d="M94 0v730h429v-96h-323v-208h288v-93h-288v-237h323v-96h-429zM421 902l105 118h115l-112 -118h-108zM122 780l137 140h100l138 -140h-111l-77 76l-77 -76h-110z" />
    <glyph glyph-name="uni1EBF" unicode="&#x1ebf;" 
d="M300 -10q-101 0 -162 59t-61 161v130q0 102 61 161t162 59q68 0 118 -26.5t77.5 -74.5t27.5 -112v-99h-342v-45q0 -58 32 -90t87 -32q45 0 75 16.5t36 45.5h107q-11 -70 -70.5 -111.5t-147.5 -41.5zM181 347v-23h238v24q0 61 -31 94t-88 33t-88 -33.5t-31 -94.5zM413 760
l117 140h113l-123 -140h-107zM113 645l137 140h100l138 -140h-111l-77 76l-77 -76h-110z" />
    <glyph glyph-name="uni1EC0" unicode="&#x1ec0;" 
d="M94 0v730h429v-96h-323v-208h288v-93h-288v-237h323v-96h-429zM457 902l-118 118h113l112 -118h-107zM122 780l137 140h100l138 -140h-111l-77 76l-77 -76h-110z" />
    <glyph glyph-name="uni1EC1" unicode="&#x1ec1;" 
d="M300 -10q-101 0 -162 59t-61 161v130q0 102 61 161t162 59q68 0 118 -26.5t77.5 -74.5t27.5 -112v-99h-342v-45q0 -58 32 -90t87 -32q45 0 75 16.5t36 45.5h107q-11 -70 -70.5 -111.5t-147.5 -41.5zM181 347v-23h238v24q0 61 -31 94t-88 33t-88 -33.5t-31 -94.5zM458 760
l-130 140h113l124 -140h-107zM113 645l137 140h100l138 -140h-111l-77 76l-77 -76h-110z" />
    <glyph glyph-name="uni1EC2" unicode="&#x1ec2;" 
d="M94 0v730h429v-96h-323v-208h288v-93h-288v-237h323v-96h-429zM434 877l44 43q10 10 10 20q0 17 -18 17h-67v63h88q36 0 58 -18.5t22 -49.5q0 -29 -18 -46l-31 -29h-88zM122 780l137 140h100l138 -140h-111l-77 76l-77 -76h-110z" />
    <glyph glyph-name="uni1EC3" unicode="&#x1ec3;" 
d="M300 -10q-101 0 -162 59t-61 161v130q0 102 61 161t162 59q68 0 118 -26.5t77.5 -74.5t27.5 -112v-99h-342v-45q0 -58 32 -90t87 -32q45 0 75 16.5t36 45.5h107q-11 -70 -70.5 -111.5t-147.5 -41.5zM181 347v-23h238v24q0 61 -31 94t-88 33t-88 -33.5t-31 -94.5zM423 760
l46 60q11 15 11 26q0 22 -30 22h-59v68h70q46 0 73.5 -21.5t27.5 -57.5q0 -24 -18 -49l-35 -48h-86zM113 645l137 140h100l138 -140h-111l-77 76l-77 -76h-110z" />
    <glyph glyph-name="uni1EC4" unicode="&#x1ec4;" 
d="M94 0v730h429v-96h-323v-208h288v-93h-288v-237h323v-96h-429zM387 917q-41 0 -65.5 11t-42.5 21.5t-40 10.5q-13 0 -20.5 -7.5t-7.5 -20.5v-6h-71v6q0 40 25 64t68 24q41 0 65 -11t41.5 -21.5t39.5 -10.5q13 0 21 7.5t8 20.5v7h71v-7q0 -40 -25 -64t-67 -24zM122 780
l109 108h156l110 -108h-112l-76 74l-77 -74h-110z" />
    <glyph glyph-name="uni1EC5" unicode="&#x1ec5;" 
d="M300 -10q-101 0 -162 59t-61 161v130q0 102 61 161t162 59q68 0 118 -26.5t77.5 -74.5t27.5 -112v-99h-342v-45q0 -58 32 -90t87 -32q45 0 75 16.5t36 45.5h107q-11 -70 -70.5 -111.5t-147.5 -41.5zM181 347v-23h238v24q0 61 -31 94t-88 33t-88 -33.5t-31 -94.5zM367 816
q-31 0 -50 9.5t-31 21.5t-23.5 21.5t-27.5 9.5q-30 0 -30 -31v-24h-71v22q0 43 27.5 69.5t71.5 26.5q32 0 50.5 -9.5t31 -22t23.5 -21.5t27 -9q30 0 30 29v25h71v-21q0 -43 -27.5 -69.5t-71.5 -26.5zM113 645l137 140h100l138 -140h-111l-77 76l-77 -76h-110z" />
    <glyph glyph-name="uni1EC6" unicode="&#x1ec6;" 
d="M94 0v730h429v-96h-323v-208h288v-93h-288v-237h323v-96h-429zM309 -219q-35 0 -56 18t-21 50q0 31 21 49.5t56 18.5t56 -18.5t21 -49.5q0 -32 -21 -50t-56 -18zM121 810l138 140h100l138 -140h-110l-79 76l-76 -76h-111z" />
    <glyph glyph-name="uni1EC7" unicode="&#x1ec7;" 
d="M300 -10q-101 0 -162 59t-61 161v130q0 102 61 161t162 59q68 0 118 -26.5t77.5 -74.5t27.5 -112v-99h-342v-45q0 -58 32 -90t87 -32q45 0 75 16.5t36 45.5h107q-11 -70 -70.5 -111.5t-147.5 -41.5zM181 347v-23h238v24q0 61 -31 94t-88 33t-88 -33.5t-31 -94.5z
M300 -219q-35 0 -56 18t-21 50q0 31 21 49.5t56 18.5t56 -18.5t21 -49.5q0 -32 -21 -50t-56 -18zM112 645l138 140h100l138 -140h-110l-79 76l-76 -76h-111z" />
    <glyph glyph-name="uni1EC8" unicode="&#x1ec8;" 
d="M98 0v98h147v534h-147v98h405v-98h-148v-534h148v-98h-405zM254 799l46 61q14 19 14 31q0 20 -30 20h-77v71h88q47 0 76 -21.5t29 -57.5q0 -30 -19 -55l-35 -49h-92z" />
    <glyph glyph-name="uni1EC9" unicode="&#x1ec9;" 
d="M81 0v98h191v354h-171v98h279v-452h177v-98h-476zM271 645l49 62q15 18 15 31q0 19 -31 19h-80v71h105q41 0 66 -21t25 -57q0 -33 -18 -56l-39 -49h-92z" />
    <glyph glyph-name="uni1ECA" unicode="&#x1eca;" 
d="M98 0v98h147v534h-147v98h405v-98h-148v-534h148v-98h-405zM300 -219q-35 0 -56 18t-21 50q0 31 21 49.5t56 18.5t56 -18.5t21 -49.5q0 -32 -21 -50t-56 -18z" />
    <glyph glyph-name="uni1ECB" unicode="&#x1ecb;" 
d="M81 0v98h191v354h-171v98h279v-452h177v-98h-476zM317 645q-35 0 -56 18.5t-21 49.5q0 32 21 50.5t56 18.5t56 -18.5t21 -50.5q0 -31 -21 -49.5t-56 -18.5zM317 -219q-35 0 -56 18t-21 50q0 31 21 49.5t56 18.5t56 -18.5t21 -49.5q0 -32 -21 -50t-56 -18z" />
    <glyph glyph-name="uni1ECC" unicode="&#x1ecc;" 
d="M300 -10q-102 0 -161 58.5t-59 164.5v304q0 106 59 164.5t161 58.5t161 -58.5t59 -163.5v-305q0 -106 -59 -164.5t-161 -58.5zM300 86q54 0 83 30t29 87v324q0 57 -28.5 87t-83.5 30t-83.5 -30t-28.5 -87v-324q0 -57 29 -87t83 -30zM300 -219q-35 0 -56 18t-21 50
q0 31 21 49.5t56 18.5t56 -18.5t21 -49.5q0 -32 -21 -50t-56 -18z" />
    <glyph glyph-name="uni1ECD" unicode="&#x1ecd;" 
d="M300 -9q-102 0 -162.5 59t-60.5 161v128q0 103 60 161.5t163 58.5t163 -58.5t60 -161.5v-128q0 -102 -60.5 -161t-162.5 -59zM300 86q54 0 84.5 30.5t30.5 87.5v142q0 57 -30.5 87.5t-84.5 30.5t-84.5 -30.5t-30.5 -87.5v-142q0 -57 30.5 -87.5t84.5 -30.5zM300 -219
q-35 0 -56 18t-21 50q0 31 21 49.5t56 18.5t56 -18.5t21 -49.5q0 -32 -21 -50t-56 -18z" />
    <glyph glyph-name="uni1ECE" unicode="&#x1ece;" 
d="M300 -10q-102 0 -161 58.5t-59 164.5v304q0 106 59 164.5t161 58.5t161 -58.5t59 -163.5v-305q0 -106 -59 -164.5t-161 -58.5zM300 86q54 0 83 30t29 87v324q0 57 -28.5 87t-83.5 30t-83.5 -30t-28.5 -87v-324q0 -57 29 -87t83 -30zM254 799l46 61q14 19 14 31
q0 20 -30 20h-77v71h88q47 0 76 -21.5t29 -57.5q0 -30 -19 -55l-35 -49h-92z" />
    <glyph glyph-name="uni1ECF" unicode="&#x1ecf;" 
d="M300 -9q-102 0 -162.5 59t-60.5 161v128q0 103 60 161.5t163 58.5t163 -58.5t60 -161.5v-128q0 -102 -60.5 -161t-162.5 -59zM300 86q54 0 84.5 30.5t30.5 87.5v142q0 57 -30.5 87.5t-84.5 30.5t-84.5 -30.5t-30.5 -87.5v-142q0 -57 30.5 -87.5t84.5 -30.5zM254 645
l49 62q15 18 15 31q0 19 -31 19h-80v71h105q41 0 66 -21t25 -57q0 -33 -18 -56l-39 -49h-92z" />
    <glyph glyph-name="uni1ED0" unicode="&#x1ed0;" 
d="M300 -10q-102 0 -161 58.5t-59 164.5v304q0 106 59 164.5t161 58.5t161 -58.5t59 -163.5v-305q0 -106 -59 -164.5t-161 -58.5zM300 86q54 0 83 30t29 87v324q0 57 -28.5 87t-83.5 30t-83.5 -30t-28.5 -87v-324q0 -57 29 -87t83 -30zM412 902l105 118h115l-112 -118h-108z
M113 780l137 140h100l138 -140h-111l-77 76l-77 -76h-110z" />
    <glyph glyph-name="uni1ED1" unicode="&#x1ed1;" 
d="M300 -9q-102 0 -162.5 59t-60.5 161v128q0 103 60 161.5t163 58.5t163 -58.5t60 -161.5v-128q0 -102 -60.5 -161t-162.5 -59zM300 86q54 0 84.5 30.5t30.5 87.5v142q0 57 -30.5 87.5t-84.5 30.5t-84.5 -30.5t-30.5 -87.5v-142q0 -57 30.5 -87.5t84.5 -30.5zM413 760
l117 140h113l-123 -140h-107zM113 645l137 140h100l138 -140h-111l-77 76l-77 -76h-110z" />
    <glyph glyph-name="uni1ED2" unicode="&#x1ed2;" 
d="M300 -10q-102 0 -161 58.5t-59 164.5v304q0 106 59 164.5t161 58.5t161 -58.5t59 -163.5v-305q0 -106 -59 -164.5t-161 -58.5zM300 86q54 0 83 30t29 87v324q0 57 -28.5 87t-83.5 30t-83.5 -30t-28.5 -87v-324q0 -57 29 -87t83 -30zM448 902l-118 118h113l112 -118h-107z
M113 780l137 140h100l138 -140h-111l-77 76l-77 -76h-110z" />
    <glyph glyph-name="uni1ED3" unicode="&#x1ed3;" 
d="M300 -9q-102 0 -162.5 59t-60.5 161v128q0 103 60 161.5t163 58.5t163 -58.5t60 -161.5v-128q0 -102 -60.5 -161t-162.5 -59zM300 86q54 0 84.5 30.5t30.5 87.5v142q0 57 -30.5 87.5t-84.5 30.5t-84.5 -30.5t-30.5 -87.5v-142q0 -57 30.5 -87.5t84.5 -30.5zM458 760
l-130 140h113l124 -140h-107zM113 645l137 140h100l138 -140h-111l-77 76l-77 -76h-110z" />
    <glyph glyph-name="uni1ED4" unicode="&#x1ed4;" 
d="M300 -10q-102 0 -161 58.5t-59 164.5v304q0 106 59 164.5t161 58.5t161 -58.5t59 -163.5v-305q0 -106 -59 -164.5t-161 -58.5zM300 86q54 0 83 30t29 87v324q0 57 -28.5 87t-83.5 30t-83.5 -30t-28.5 -87v-324q0 -57 29 -87t83 -30zM425 877l44 43q10 10 10 20
q0 17 -18 17h-67v63h88q36 0 58 -18.5t22 -49.5q0 -29 -18 -46l-31 -29h-88zM113 780l137 140h100l138 -140h-111l-77 76l-77 -76h-110z" />
    <glyph glyph-name="uni1ED5" unicode="&#x1ed5;" 
d="M300 -9q-102 0 -162.5 59t-60.5 161v128q0 103 60 161.5t163 58.5t163 -58.5t60 -161.5v-128q0 -102 -60.5 -161t-162.5 -59zM300 86q54 0 84.5 30.5t30.5 87.5v142q0 57 -30.5 87.5t-84.5 30.5t-84.5 -30.5t-30.5 -87.5v-142q0 -57 30.5 -87.5t84.5 -30.5zM423 760
l46 60q11 15 11 26q0 22 -30 22h-59v68h70q46 0 73.5 -21.5t27.5 -57.5q0 -24 -18 -49l-35 -48h-86zM113 645l137 140h100l138 -140h-111l-77 76l-77 -76h-110z" />
    <glyph glyph-name="uni1ED6" unicode="&#x1ed6;" 
d="M300 -10q-102 0 -161 58.5t-59 164.5v304q0 106 59 164.5t161 58.5t161 -58.5t59 -163.5v-305q0 -106 -59 -164.5t-161 -58.5zM300 86q54 0 83 30t29 87v324q0 57 -28.5 87t-83.5 30t-83.5 -30t-28.5 -87v-324q0 -57 29 -87t83 -30zM378 917q-41 0 -65.5 11t-42.5 21.5
t-40 10.5q-13 0 -20.5 -7.5t-7.5 -20.5v-6h-71v6q0 40 25 64t68 24q41 0 65 -11t41.5 -21.5t39.5 -10.5q13 0 21 7.5t8 20.5v7h71v-7q0 -40 -25 -64t-67 -24zM113 780l109 108h156l110 -108h-112l-76 74l-77 -74h-110z" />
    <glyph glyph-name="uni1ED7" unicode="&#x1ed7;" 
d="M300 -9q-102 0 -162.5 59t-60.5 161v128q0 103 60 161.5t163 58.5t163 -58.5t60 -161.5v-128q0 -102 -60.5 -161t-162.5 -59zM300 86q54 0 84.5 30.5t30.5 87.5v142q0 57 -30.5 87.5t-84.5 30.5t-84.5 -30.5t-30.5 -87.5v-142q0 -57 30.5 -87.5t84.5 -30.5zM367 816
q-31 0 -50 9.5t-31 21.5t-23.5 21.5t-27.5 9.5q-30 0 -30 -31v-24h-71v22q0 43 27.5 69.5t71.5 26.5q32 0 50.5 -9.5t31 -22t23.5 -21.5t27 -9q30 0 30 29v25h71v-21q0 -43 -27.5 -69.5t-71.5 -26.5zM113 645l137 140h100l138 -140h-111l-77 76l-77 -76h-110z" />
    <glyph glyph-name="uni1ED8" unicode="&#x1ed8;" 
d="M300 -10q-102 0 -161 58.5t-59 164.5v304q0 106 59 164.5t161 58.5t161 -58.5t59 -163.5v-305q0 -106 -59 -164.5t-161 -58.5zM300 86q54 0 83 30t29 87v324q0 57 -28.5 87t-83.5 30t-83.5 -30t-28.5 -87v-324q0 -57 29 -87t83 -30zM300 -219q-35 0 -56 18t-21 50
q0 31 21 49.5t56 18.5t56 -18.5t21 -49.5q0 -32 -21 -50t-56 -18zM112 810l138 140h100l138 -140h-110l-79 76l-76 -76h-111z" />
    <glyph glyph-name="uni1ED9" unicode="&#x1ed9;" 
d="M300 -9q-102 0 -162.5 59t-60.5 161v128q0 103 60 161.5t163 58.5t163 -58.5t60 -161.5v-128q0 -102 -60.5 -161t-162.5 -59zM300 86q54 0 84.5 30.5t30.5 87.5v142q0 57 -30.5 87.5t-84.5 30.5t-84.5 -30.5t-30.5 -87.5v-142q0 -57 30.5 -87.5t84.5 -30.5zM300 -219
q-35 0 -56 18t-21 50q0 31 21 49.5t56 18.5t56 -18.5t21 -49.5q0 -32 -21 -50t-56 -18zM112 645l138 140h100l138 -140h-110l-79 76l-76 -76h-111z" />
    <glyph glyph-name="uni1EDA" unicode="&#x1eda;" 
d="M300 -10q-102 0 -161 58.5t-59 164.5v304q0 106 59 164.5t161 58.5q82 0 136 -38q22 7 22 33v75h89v-78q0 -66 -54 -93q27 -51 27 -121v-305q0 -106 -59 -164.5t-161 -58.5zM300 86q54 0 83 30t29 87v324q0 57 -28.5 87t-83.5 30t-83.5 -30t-28.5 -87v-324q0 -57 29 -87
t83 -30zM223 810l106 140h116l-113 -140h-109z" />
    <glyph glyph-name="uni1EDB" unicode="&#x1edb;" 
d="M300 -9q-102 0 -162.5 59t-60.5 161v128q0 103 60 161.5t163 58.5q71 0 123 -29h6q35 0 35 35v75h88v-78q0 -34 -16.5 -59t-44.5 -38q32 -52 32 -126v-128q0 -102 -60.5 -161t-162.5 -59zM300 86q54 0 84.5 30.5t30.5 87.5v142q0 57 -30.5 87.5t-84.5 30.5t-84.5 -30.5
t-30.5 -87.5v-142q0 -57 30.5 -87.5t84.5 -30.5zM223 645l106 140h116l-113 -140h-109z" />
    <glyph glyph-name="uni1EDC" unicode="&#x1edc;" 
d="M300 -10q-102 0 -161 58.5t-59 164.5v304q0 106 59 164.5t161 58.5q82 0 136 -38q22 7 22 33v75h89v-78q0 -66 -54 -93q27 -51 27 -121v-305q0 -106 -59 -164.5t-161 -58.5zM300 86q54 0 83 30t29 87v324q0 57 -28.5 87t-83.5 30t-83.5 -30t-28.5 -87v-324q0 -57 29 -87
t83 -30zM248 810l-116 140h120l108 -140h-112z" />
    <glyph glyph-name="uni1EDD" unicode="&#x1edd;" 
d="M300 -9q-102 0 -162.5 59t-60.5 161v128q0 103 60 161.5t163 58.5q71 0 123 -29h6q35 0 35 35v75h88v-78q0 -34 -16.5 -59t-44.5 -38q32 -52 32 -126v-128q0 -102 -60.5 -161t-162.5 -59zM300 86q54 0 84.5 30.5t30.5 87.5v142q0 57 -30.5 87.5t-84.5 30.5t-84.5 -30.5
t-30.5 -87.5v-142q0 -57 30.5 -87.5t84.5 -30.5zM248 645l-116 140h120l108 -140h-112z" />
    <glyph glyph-name="uni1EDE" unicode="&#x1ede;" 
d="M300 -10q-102 0 -161 58.5t-59 164.5v304q0 106 59 164.5t161 58.5q82 0 136 -38q22 7 22 33v75h89v-78q0 -66 -54 -93q27 -51 27 -121v-305q0 -106 -59 -164.5t-161 -58.5zM300 86q54 0 83 30t29 87v324q0 57 -28.5 87t-83.5 30t-83.5 -30t-28.5 -87v-324q0 -57 29 -87
t83 -30zM244 799l46 61q14 19 14 31q0 20 -30 20h-77v71h88q47 0 76 -21.5t29 -57.5q0 -30 -19 -55l-35 -49h-92z" />
    <glyph glyph-name="uni1EDF" unicode="&#x1edf;" 
d="M300 -9q-102 0 -162.5 59t-60.5 161v128q0 103 60 161.5t163 58.5q71 0 123 -29h6q35 0 35 35v75h88v-78q0 -34 -16.5 -59t-44.5 -38q32 -52 32 -126v-128q0 -102 -60.5 -161t-162.5 -59zM300 86q54 0 84.5 30.5t30.5 87.5v142q0 57 -30.5 87.5t-84.5 30.5t-84.5 -30.5
t-30.5 -87.5v-142q0 -57 30.5 -87.5t84.5 -30.5zM244 645l49 62q15 18 15 31q0 19 -31 19h-80v71h105q41 0 66 -21t25 -57q0 -33 -18 -56l-39 -49h-92z" />
    <glyph glyph-name="uni1EE0" unicode="&#x1ee0;" 
d="M300 -10q-102 0 -161 58.5t-59 164.5v304q0 106 59 164.5t161 58.5q82 0 136 -38q22 7 22 33v75h89v-78q0 -66 -54 -93q27 -51 27 -121v-305q0 -106 -59 -164.5t-161 -58.5zM300 86q54 0 83 30t29 87v324q0 57 -28.5 87t-83.5 30t-83.5 -30t-28.5 -87v-324q0 -57 29 -87
t83 -30zM360 811q-31 0 -50 10t-32 23t-25 23.5t-28 10.5q-30 0 -30 -35v-27h-71v31q0 47 26.5 75t69.5 28q31 0 50 -10.5t32 -23.5t25 -23t28 -10q30 0 30 32v30h71v-32q0 -47 -26.5 -74.5t-69.5 -27.5z" />
    <glyph glyph-name="uni1EE1" unicode="&#x1ee1;" 
d="M300 -9q-102 0 -162.5 59t-60.5 161v128q0 103 60 161.5t163 58.5q71 0 123 -29h6q35 0 35 35v75h88v-78q0 -34 -16.5 -59t-44.5 -38q32 -52 32 -126v-128q0 -102 -60.5 -161t-162.5 -59zM300 86q54 0 84.5 30.5t30.5 87.5v142q0 57 -30.5 87.5t-84.5 30.5t-84.5 -30.5
t-30.5 -87.5v-142q0 -57 30.5 -87.5t84.5 -30.5zM360 646q-31 0 -50 10t-32 23t-25 23.5t-28 10.5q-30 0 -30 -35v-27h-71v31q0 47 26.5 75t69.5 28q31 0 50 -10.5t32 -23.5t25 -23t28 -10q30 0 30 32v30h71v-32q0 -47 -26.5 -74.5t-69.5 -27.5z" />
    <glyph glyph-name="uni1EE2" unicode="&#x1ee2;" 
d="M300 -10q-102 0 -161 58.5t-59 164.5v304q0 106 59 164.5t161 58.5q82 0 136 -38q22 7 22 33v75h89v-78q0 -66 -54 -93q27 -51 27 -121v-305q0 -106 -59 -164.5t-161 -58.5zM300 86q54 0 83 30t29 87v324q0 57 -28.5 87t-83.5 30t-83.5 -30t-28.5 -87v-324q0 -57 29 -87
t83 -30zM300 -219q-35 0 -56 18t-21 50q0 31 21 49.5t56 18.5t56 -18.5t21 -49.5q0 -32 -21 -50t-56 -18z" />
    <glyph glyph-name="uni1EE3" unicode="&#x1ee3;" 
d="M300 -9q-102 0 -162.5 59t-60.5 161v128q0 103 60 161.5t163 58.5q71 0 123 -29h6q35 0 35 35v75h88v-78q0 -34 -16.5 -59t-44.5 -38q32 -52 32 -126v-128q0 -102 -60.5 -161t-162.5 -59zM300 86q54 0 84.5 30.5t30.5 87.5v142q0 57 -30.5 87.5t-84.5 30.5t-84.5 -30.5
t-30.5 -87.5v-142q0 -57 30.5 -87.5t84.5 -30.5zM300 -219q-35 0 -56 18t-21 50q0 31 21 49.5t56 18.5t56 -18.5t21 -49.5q0 -32 -21 -50t-56 -18z" />
    <glyph glyph-name="uni1EE4" unicode="&#x1ee4;" 
d="M300 -10q-105 0 -162 57.5t-57 156.5v526h108v-525q0 -56 28 -88t83 -32t83 32t28 88v525h108v-526q0 -100 -57 -157t-162 -57zM300 -219q-35 0 -56 18t-21 50q0 31 21 49.5t56 18.5t56 -18.5t21 -49.5q0 -32 -21 -50t-56 -18z" />
    <glyph glyph-name="uni1EE5" unicode="&#x1ee5;" 
d="M299 -10q-100 0 -158.5 57.5t-58.5 156.5v346h108v-345q0 -56 29 -88.5t80 -32.5q52 0 81.5 32.5t29.5 88.5v345h108v-346q0 -99 -59.5 -156.5t-159.5 -57.5zM300 -219q-35 0 -56 18t-21 50q0 31 21 49.5t56 18.5t56 -18.5t21 -49.5q0 -32 -21 -50t-56 -18z" />
    <glyph glyph-name="uni1EE6" unicode="&#x1ee6;" 
d="M300 -10q-105 0 -162 57.5t-57 156.5v526h108v-525q0 -56 28 -88t83 -32t83 32t28 88v525h108v-526q0 -100 -57 -157t-162 -57zM254 799l46 61q14 19 14 31q0 20 -30 20h-77v71h88q47 0 76 -21.5t29 -57.5q0 -30 -19 -55l-35 -49h-92z" />
    <glyph glyph-name="uni1EE7" unicode="&#x1ee7;" 
d="M299 -10q-100 0 -158.5 57.5t-58.5 156.5v346h108v-345q0 -56 29 -88.5t80 -32.5q52 0 81.5 32.5t29.5 88.5v345h108v-346q0 -99 -59.5 -156.5t-159.5 -57.5zM254 645l49 62q15 18 15 31q0 19 -31 19h-80v71h105q41 0 66 -21t25 -57q0 -33 -18 -56l-39 -49h-92z" />
    <glyph glyph-name="uni1EE8" unicode="&#x1ee8;" 
d="M300 -10q-105 0 -162 57.5t-57 156.5v526h108v-525q0 -56 28 -88t83 -32t83 32t28 88v525h77q16 0 25.5 9.5t9.5 25.5v75h89v-78q0 -43 -25 -71t-68 -35v-452q0 -100 -57 -157t-162 -57zM233 810l106 140h116l-113 -140h-109z" />
    <glyph glyph-name="uni1EE9" unicode="&#x1ee9;" 
d="M82 203v347h108v-348q0 -56 27.5 -87t75.5 -31q49 0 77 31t28 87v348h89q35 0 35 35v75h89v-78q0 -49 -26.5 -78t-78.5 -29v-272q0 -99 -58 -156t-155 -57t-154 57t-57 156zM227 645l106 140h116l-113 -140h-109z" />
    <glyph glyph-name="uni1EEA" unicode="&#x1eea;" 
d="M300 -10q-105 0 -162 57.5t-57 156.5v526h108v-525q0 -56 28 -88t83 -32t83 32t28 88v525h77q16 0 25.5 9.5t9.5 25.5v75h89v-78q0 -43 -25 -71t-68 -35v-452q0 -100 -57 -157t-162 -57zM258 810l-116 140h120l108 -140h-112z" />
    <glyph glyph-name="uni1EEB" unicode="&#x1eeb;" 
d="M82 203v347h108v-348q0 -56 27.5 -87t75.5 -31q49 0 77 31t28 87v348h89q35 0 35 35v75h89v-78q0 -49 -26.5 -78t-78.5 -29v-272q0 -99 -58 -156t-155 -57t-154 57t-57 156zM252 645l-116 140h120l108 -140h-112z" />
    <glyph glyph-name="uni1EEC" unicode="&#x1eec;" 
d="M300 -10q-105 0 -162 57.5t-57 156.5v526h108v-525q0 -56 28 -88t83 -32t83 32t28 88v525h77q16 0 25.5 9.5t9.5 25.5v75h89v-78q0 -43 -25 -71t-68 -35v-452q0 -100 -57 -157t-162 -57zM254 799l46 61q14 19 14 31q0 20 -30 20h-77v71h88q47 0 76 -21.5t29 -57.5
q0 -30 -19 -55l-35 -49h-92z" />
    <glyph glyph-name="uni1EED" unicode="&#x1eed;" 
d="M82 203v347h108v-348q0 -56 27.5 -87t75.5 -31q49 0 77 31t28 87v348h89q35 0 35 35v75h89v-78q0 -49 -26.5 -78t-78.5 -29v-272q0 -99 -58 -156t-155 -57t-154 57t-57 156zM248 645l49 62q15 18 15 31q0 19 -31 19h-80v71h105q41 0 66 -21t25 -57q0 -33 -18 -56l-39 -49
h-92z" />
    <glyph glyph-name="uni1EEE" unicode="&#x1eee;" 
d="M300 -10q-105 0 -162 57.5t-57 156.5v526h108v-525q0 -56 28 -88t83 -32t83 32t28 88v525h77q16 0 25.5 9.5t9.5 25.5v75h89v-78q0 -43 -25 -71t-68 -35v-452q0 -100 -57 -157t-162 -57zM370 811q-31 0 -50 10t-32 23t-25 23.5t-28 10.5q-30 0 -30 -35v-27h-71v31
q0 47 26.5 75t69.5 28q31 0 50 -10.5t32 -23.5t25 -23t28 -10q30 0 30 32v30h71v-32q0 -47 -26.5 -74.5t-69.5 -27.5z" />
    <glyph glyph-name="uni1EEF" unicode="&#x1eef;" 
d="M82 203v347h108v-348q0 -56 27.5 -87t75.5 -31q49 0 77 31t28 87v348h89q35 0 35 35v75h89v-78q0 -49 -26.5 -78t-78.5 -29v-272q0 -99 -58 -156t-155 -57t-154 57t-57 156zM364 646q-31 0 -50 10t-32 23t-25 23.5t-28 10.5q-30 0 -30 -35v-27h-71v31q0 47 26.5 75
t69.5 28q31 0 50 -10.5t32 -23.5t25 -23t28 -10q30 0 30 32v30h71v-32q0 -47 -26.5 -74.5t-69.5 -27.5z" />
    <glyph glyph-name="uni1EF0" unicode="&#x1ef0;" 
d="M300 -10q-105 0 -162 57.5t-57 156.5v526h108v-525q0 -56 28 -88t83 -32t83 32t28 88v525h77q16 0 25.5 9.5t9.5 25.5v75h89v-78q0 -43 -25 -71t-68 -35v-452q0 -100 -57 -157t-162 -57zM300 -219q-35 0 -56 18t-21 50q0 31 21 49.5t56 18.5t56 -18.5t21 -49.5
q0 -32 -21 -50t-56 -18z" />
    <glyph glyph-name="uni1EF1" unicode="&#x1ef1;" 
d="M82 203v347h108v-348q0 -56 27.5 -87t75.5 -31q49 0 77 31t28 87v348h89q35 0 35 35v75h89v-78q0 -49 -26.5 -78t-78.5 -29v-272q0 -99 -58 -156t-155 -57t-154 57t-57 156zM293 -219q-35 0 -56 18t-21 50q0 31 21 49.5t56 18.5t56 -18.5t21 -49.5q0 -32 -21 -50t-56 -18
z" />
    <glyph glyph-name="Ygrave" unicode="&#x1ef2;" 
d="M246 0v269l-217 461h114l127 -276q13 -27 21 -51t11 -36q3 12 11 36t20 51l126 276h112l-217 -461v-269h-108zM258 810l-116 140h120l108 -140h-112z" />
    <glyph glyph-name="ygrave" unicode="&#x1ef3;" 
d="M171 -180l80 212l-206 518h115l117 -310q9 -22 17 -48t11 -46q4 20 11.5 46t15.5 48l109 310h114l-271 -730h-113zM258 645l-116 140h120l108 -140h-112z" />
    <glyph glyph-name="uni1EF4" unicode="&#x1ef4;" 
d="M246 0v269l-217 461h114l127 -276q13 -27 21 -51t11 -36q3 12 11 36t20 51l126 276h112l-217 -461v-269h-108zM300 -219q-35 0 -56 18t-21 50q0 31 21 49.5t56 18.5t56 -18.5t21 -49.5q0 -32 -21 -50t-56 -18z" />
    <glyph glyph-name="uni1EF5" unicode="&#x1ef5;" 
d="M171 -180l80 212l-206 518h115l117 -310q9 -22 17 -48t11 -46q4 20 11.5 46t15.5 48l109 310h114l-271 -730h-113zM472 -219q-35 0 -56 18t-21 50q0 31 21 49.5t56 18.5t56 -18.5t21 -49.5q0 -32 -21 -50t-56 -18z" />
    <glyph glyph-name="uni1EF6" unicode="&#x1ef6;" 
d="M246 0v269l-217 461h114l127 -276q13 -27 21 -51t11 -36q3 12 11 36t20 51l126 276h112l-217 -461v-269h-108zM254 799l46 61q14 19 14 31q0 20 -30 20h-77v71h88q47 0 76 -21.5t29 -57.5q0 -30 -19 -55l-35 -49h-92z" />
    <glyph glyph-name="uni1EF7" unicode="&#x1ef7;" 
d="M171 -180l80 212l-206 518h115l117 -310q9 -22 17 -48t11 -46q4 20 11.5 46t15.5 48l109 310h114l-271 -730h-113zM254 645l49 62q15 18 15 31q0 19 -31 19h-80v71h105q41 0 66 -21t25 -57q0 -33 -18 -56l-39 -49h-92z" />
    <glyph glyph-name="uni1EF8" unicode="&#x1ef8;" 
d="M246 0v269l-217 461h114l127 -276q13 -27 21 -51t11 -36q3 12 11 36t20 51l126 276h112l-217 -461v-269h-108zM370 811q-31 0 -50 10t-32 23t-25 23.5t-28 10.5q-30 0 -30 -35v-27h-71v31q0 47 26.5 75t69.5 28q31 0 50 -10.5t32 -23.5t25 -23t28 -10q30 0 30 32v30h71
v-32q0 -47 -26.5 -74.5t-69.5 -27.5z" />
    <glyph glyph-name="uni1EF9" unicode="&#x1ef9;" 
d="M171 -180l80 212l-206 518h115l117 -310q9 -22 17 -48t11 -46q4 20 11.5 46t15.5 48l109 310h114l-271 -730h-113zM370 646q-31 0 -50 10t-32 23t-25 23.5t-28 10.5q-30 0 -30 -35v-27h-71v31q0 47 26.5 75t69.5 28q31 0 50 -10.5t32 -23.5t25 -23t28 -10q30 0 30 32v30
h71v-32q0 -47 -26.5 -74.5t-69.5 -27.5z" />
    <glyph glyph-name="EMquad" unicode="&#x2001;" 
 />
    <glyph glyph-name="ZEROWIDTHSPACE" unicode="&#x200b;" 
 />
    <glyph glyph-name="uni2010" unicode="&#x2010;" 
d="M140 281v98h320v-98h-320z" />
    <glyph glyph-name="endash" unicode="&#x2013;" 
d="M79 281v98h443v-98h-443z" />
    <glyph glyph-name="emdash" unicode="&#x2014;" 
d="M0 281v98h600v-98h-600z" />
    <glyph glyph-name="uni2016" unicode="&#x2016;" 
d="M113 -110v940h108v-940h-108zM379 -110v940h108v-940h-108z" />
    <glyph glyph-name="quoteleft" unicode="&#x2018;" 
d="M387 730l-55 -123q-19 -42 -19 -77q0 -29 14.5 -57.5t39.5 -47.5h-116q-23 19 -35.5 48t-12.5 57q0 21 7 49t18 52l44 99h115z" />
    <glyph glyph-name="quoteright" unicode="&#x2019;" 
d="M213 425l56 123q19 42 19 77q0 29 -15 57.5t-40 47.5h116q23 -19 36 -48t13 -57q0 -21 -7.5 -49t-17.5 -52l-45 -99h-115z" />
    <glyph glyph-name="quotesinglbase" unicode="&#x201a;" 
d="M213 -160l56 123q19 42 19 77q0 29 -15 57.5t-40 47.5h116q23 -19 36 -48t13 -57q0 -21 -7.5 -49t-17.5 -52l-45 -99h-115z" />
    <glyph glyph-name="quotereversed" unicode="&#x201b;" 
d="M387 425h-115l-44 99q-11 24 -18 52t-7 49q0 28 12.5 57t35.5 48h116q-25 -19 -39.5 -47.5t-14.5 -57.5q0 -35 19 -77z" />
    <glyph glyph-name="quotedblleft" unicode="&#x201c;" 
d="M503 730l-55 -123q-19 -42 -19 -77q0 -29 14.5 -57.5t39.5 -47.5h-116q-23 19 -35.5 48t-12.5 57q0 21 7 49t18 52l44 99h115zM279 730l-55 -123q-19 -42 -19 -77q0 -29 14.5 -57.5t39.5 -47.5h-116q-23 19 -35.5 48t-12.5 57q0 21 7 49t18 52l44 99h115z" />
    <glyph glyph-name="quotedblright" unicode="&#x201d;" 
d="M94 431l56 123q19 42 19 77q0 29 -15 57.5t-40 47.5h116q23 -19 36 -48t13 -57q0 -21 -7.5 -49t-17.5 -52l-45 -99h-115zM321 431l56 123q19 42 19 77q0 29 -15 57.5t-40 47.5h116q23 -19 36 -48t13 -57q0 -21 -7.5 -49t-17.5 -52l-45 -99h-115z" />
    <glyph glyph-name="quotedblbase" unicode="&#x201e;" 
d="M94 -160l56 123q19 42 19 77q0 29 -15 57.5t-40 47.5h116q23 -19 36 -48t13 -57q0 -21 -7.5 -49t-17.5 -52l-45 -99h-115zM339 -160l56 123q19 42 19 77q0 29 -15 57.5t-40 47.5h116q23 -19 36 -48t13 -57q0 -21 -7.5 -49t-17.5 -52l-45 -99h-115z" />
    <glyph glyph-name="uni201F" unicode="&#x201f;" 
d="M506 425h-115l-45 99q-10 24 -17.5 52t-7.5 49q0 28 13 57t36 48h116q-26 -19 -40.5 -47.5t-14.5 -57.5q0 -35 19 -77zM279 425h-115l-44 99q-11 24 -18 52t-7 49q0 28 12.5 57t35.5 48h116q-25 -19 -39.5 -47.5t-14.5 -57.5q0 -35 19 -77z" />
    <glyph glyph-name="dagger" unicode="&#x2020;" 
d="M246 -110v618h-169v98h169v224h108v-224h169v-98h-169v-618h-108z" />
    <glyph glyph-name="daggerdbl" unicode="&#x2021;" 
d="M246 -110v241h-169v98h169v272h-169v98h169v231h108v-231h169v-98h-169v-272h169v-98h-169v-241h-108z" />
    <glyph glyph-name="bullet" unicode="&#x2022;" 
d="M300 241q-55 0 -89.5 34.5t-34.5 89.5t34.5 90t89.5 35t90 -35t35 -90t-35 -89.5t-90 -34.5z" />
    <glyph glyph-name="onedotenleader" unicode="&#x2024;" 
d="M300 -10q-39 0 -63.5 23.5t-24.5 62.5t24.5 63.5t63.5 24.5t63.5 -24.5t24.5 -63.5t-24.5 -62.5t-63.5 -23.5z" />
    <glyph glyph-name="ellipsis" unicode="&#x2026;" 
d="M490 -10q-25 0 -39.5 16t-14.5 42v67q0 26 14.5 42t39.5 16q24 0 39.5 -16t15.5 -42v-67q0 -26 -15.5 -42t-39.5 -16zM110 -10q-25 0 -39.5 16t-14.5 42v67q0 26 14.5 42t39.5 16q24 0 39.5 -16t15.5 -42v-67q0 -26 -15.5 -42t-39.5 -16zM300 -10q-25 0 -39.5 16
t-14.5 42v67q0 26 14.5 42t39.5 16q24 0 39.5 -16t15.5 -42v-67q0 -26 -15.5 -42t-39.5 -16z" />
    <glyph glyph-name="perthousand" unicode="&#x2030;" 
d="M125 440q-55 0 -88 31t-33 84v65q-1 54 31.5 84.5t88.5 30.5q55 0 88.5 -31t34.5 -84v-65q0 -54 -32.5 -84.5t-89.5 -30.5zM-9 0l440 730h74l-441 -730h-73zM125 502q25 0 39.5 14.5t14.5 38.5v65q-1 24 -15.5 38.5t-38.5 14.5q-25 0 -39 -14.5t-14 -38.5v-65
q0 -24 14.5 -38.5t38.5 -14.5zM344 -5q-49 0 -78 32t-29 86v58q0 56 28.5 87.5t78.5 31.5q37 0 61 -18.5t27 -49.5q3 31 27.5 49.5t60.5 18.5q49 0 78 -32t29 -87v-58q0 -55 -28.5 -86.5t-78.5 -31.5q-38 0 -61.5 18.5t-25.5 49.5q-5 -31 -29 -49.5t-60 -18.5zM352 52
q21 0 34 16.5t14 44.5v59q-1 28 -14 44.5t-34 16.5q-23 0 -35.5 -16.5t-12.5 -44.5v-59q0 -28 13 -44.5t35 -16.5zM513 52q21 0 34 16t13 45v59q0 28 -13 44.5t-35 16.5q-21 0 -34 -16.5t-13 -44.5v-59q-1 -28 12.5 -44.5t35.5 -16.5z" />
    <glyph glyph-name="minute" unicode="&#x2032;" 
d="M200 419l54 306h126l-73 -306h-107z" />
    <glyph glyph-name="second" unicode="&#x2033;" 
d="M95 420l54 306h126l-73 -306h-107zM326 420l54 306h126l-73 -306h-107z" />
    <glyph glyph-name="uni2034" unicode="&#x2034;" 
d="M12 419l54 306h126l-73 -306h-107zM211 419l54 306h126l-73 -306h-107zM409 419l54 306h126l-73 -306h-107z" />
    <glyph glyph-name="guilsinglleft" unicode="&#x2039;" 
d="M337 40l-194 240l194 240h117l-194 -238l197 -242h-120z" />
    <glyph glyph-name="guilsinglright" unicode="&#x203a;" 
d="M147 40l194 238l-198 242h120l194 -240l-194 -240h-116z" />
    <glyph glyph-name="exclamdbl" unicode="&#x203c;" 
d="M129 221l-13 509h122l-13 -509h-96zM162 -5q-28 0 -46 17.5t-18 45.5t18 45.5t46 17.5h30q30 0 47.5 -17.5t17.5 -44.5q0 -28 -18.5 -46t-46.5 -18h-30zM375 221l-13 509h122l-13 -509h-96zM408 -5q-28 0 -46 17.5t-18 45.5t18 45.5t46 17.5h30q30 0 47.5 -17.5
t17.5 -44.5q0 -28 -18.5 -46t-46.5 -18h-30z" />
    <glyph glyph-name="uni203D" unicode="&#x203d;" 
d="M213 211l-12 245v85h101v-85l-3 -52q44 8 69 37.5t25 75.5q0 52 -34 83.5t-91 31.5h-140v98h134q71 0 124 -26.5t82.5 -74.5t28.5 -114q0 -90 -54.5 -145t-147.5 -61l-5 -98h-77zM237 -5q-29 0 -47 17.5t-18 45.5t18 45.5t47 17.5h30q30 0 47 -17.5t17 -44.5
q0 -28 -18 -46t-47 -18h-29z" />
    <glyph glyph-name="uni203E" unicode="&#x203e;" 
d="M-10 732v98h620v-98h-620z" />
    <glyph glyph-name="uni203F" unicode="&#x203f;" 
d="M177 -180q-78 0 -124 48.5t-46 131.5h108q0 -41 21.5 -65t58.5 -24h211q36 0 57.5 24t21.5 65h108q0 -83 -46 -131.5t-124 -48.5h-246z" />
    <glyph glyph-name="fraction" unicode="&#x2044;" 
d="M1 0l503 730h96l-504 -730h-95z" />
    <glyph glyph-name="uni2045" unicode="&#x2045;" 
d="M195 -110v940h263v-98h-155v-308h155v-98h-155v-338h151v-98h-259z" />
    <glyph glyph-name="uni2046" unicode="&#x2046;" 
d="M406 -110h-260v98h152v338h-155v98h155v308h-155v98h263v-940z" />
    <glyph glyph-name="uni2070" unicode="&#x2070;" 
d="M300 377q-74 0 -120.5 45t-46.5 118v133q0 72 46.5 117t120.5 45t120.5 -45t46.5 -117v-133q0 -73 -46.5 -118t-120.5 -45zM300 448q39 0 63.5 25t24.5 67v133q0 41 -24.5 66t-63.5 25t-63 -25t-24 -66v-133q0 -42 24 -67t63 -25z" />
    <glyph glyph-name="uni2074" unicode="&#x2074;" 
d="M369 382v102h-228v101l171 245h87l-181 -262v-13h151v109h79v-282h-79z" />
    <glyph glyph-name="uni2075" unicode="&#x2075;" 
d="M303 377q-74 0 -120 39.5t-46 106.5h79q0 -36 23.5 -55.5t63.5 -19.5q38 0 61 22t23 57t-23 56.5t-60 21.5h-144v225h291v-70h-217v-90h70q75 0 119.5 -38.5t44.5 -104.5t-45.5 -108t-119.5 -42z" />
    <glyph glyph-name="uni2076" unicode="&#x2076;" 
d="M301 377q-76 0 -123 42.5t-47 109.5q0 49 35 106l127 195h85l-127 -195h4q27 35 75 35q62 0 100.5 -39t38.5 -102q0 -67 -46.5 -109.5t-121.5 -42.5zM300 446q41 0 66 23t25 60t-25 60t-66 23q-40 0 -65.5 -23t-25.5 -60t25 -60t66 -23z" />
    <glyph glyph-name="uni2077" unicode="&#x2077;" 
d="M211 382l176 377h-166v-77h-77v148h322v-82l-169 -366h-86z" />
    <glyph glyph-name="uni2078" unicode="&#x2078;" 
d="M300 377q-75 0 -122 36.5t-47 94.5q0 46 28 76t76 35v4q-43 8 -68 33.5t-25 60.5q0 53 43.5 85.5t114.5 32.5t115.5 -32.5t44.5 -85.5q0 -35 -26 -60.5t-69 -33.5v-4q47 -5 75.5 -35t28.5 -76q0 -58 -47 -94.5t-122 -36.5zM300 646q38 0 60.5 17t22.5 45t-22.5 45.5
t-60.5 17.5q-37 0 -59.5 -17.5t-22.5 -45.5t22.5 -45t59.5 -17zM300 443q40 0 65.5 19.5t25.5 51.5q0 31 -25.5 51t-65.5 20t-65.5 -20t-25.5 -51q0 -32 25.5 -51.5t65.5 -19.5z" />
    <glyph glyph-name="uni2079" unicode="&#x2079;" 
d="M225 382l125 195h-5q-11 -16 -29.5 -25.5t-45.5 -9.5q-61 0 -98 39.5t-37 101.5q0 68 45 110t119 42q75 0 120.5 -42t45.5 -110q0 -29 -10.5 -59t-30.5 -61l-114 -181h-85zM300 600q38 0 62.5 23t24.5 60t-23.5 60t-63.5 23t-63.5 -23t-23.5 -60t23.5 -60t63.5 -23z" />
    <glyph glyph-name="uni207A" unicode="&#x207a;" 
d="M260 305v105h-100v70h100v105h80v-105h100v-70h-100v-105h-80z" />
    <glyph glyph-name="uni207C" unicode="&#x207c;" 
d="M149 629v68h304v-68h-304zM149 459v68h304v-68h-304z" />
    <glyph glyph-name="uni2080" unicode="&#x2080;" 
d="M300 -138q-74 0 -120.5 45t-46.5 118v133q0 72 46.5 117t120.5 45t120.5 -45t46.5 -117v-133q0 -73 -46.5 -118t-120.5 -45zM300 -67q39 0 63.5 25t24.5 67v133q0 41 -24.5 66t-63.5 25t-63 -25t-24 -66v-133q0 -42 24 -67t63 -25z" />
    <glyph glyph-name="uni2081" unicode="&#x2081;" 
d="M148 -133v72h142v309l-139 -86v81l114 72h105v-376h112v-72h-334z" />
    <glyph glyph-name="uni2082" unicode="&#x2082;" 
d="M154 -133v84l181 150q20 16 32 34.5t12 40.5q0 33 -22 53t-55 20t-55.5 -20.5t-22.5 -53.5h-79q1 42 22 75t56 51.5t79 18.5q67 0 111.5 -39.5t44.5 -102.5q0 -37 -21.5 -69.5t-59.5 -62.5l-132 -108h215v-71h-306z" />
    <glyph glyph-name="uni2083" unicode="&#x2083;" 
d="M301 -138q-73 0 -119.5 41t-46.5 107h80q0 -34 24 -55.5t62 -21.5t62 22.5t24 57.5t-24 57t-62 22h-40v69l110 83h-214v71h294v-76l-111 -87q57 -9 92 -46t35 -93q0 -67 -46.5 -109t-119.5 -42z" />
    <glyph glyph-name="uni2084" unicode="&#x2084;" 
d="M369 -133v102h-228v101l171 245h87l-181 -262v-13h151v109h79v-282h-79z" />
    <glyph glyph-name="uni2085" unicode="&#x2085;" 
d="M303 -138q-74 0 -120 39.5t-46 106.5h79q0 -36 23.5 -55.5t63.5 -19.5q38 0 61 22t23 57t-23 56.5t-60 21.5h-144v225h291v-70h-217v-90h70q75 0 119.5 -38.5t44.5 -104.5t-45.5 -108t-119.5 -42z" />
    <glyph glyph-name="uni2086" unicode="&#x2086;" 
d="M301 -138q-76 0 -123 42.5t-47 109.5q0 49 35 106l127 195h85l-127 -195h4q27 35 75 35q62 0 100.5 -39t38.5 -102q0 -67 -46.5 -109.5t-121.5 -42.5zM300 -69q41 0 66 23t25 60t-25 60t-66 23q-40 0 -65.5 -23t-25.5 -60t25 -60t66 -23z" />
    <glyph glyph-name="uni2087" unicode="&#x2087;" 
d="M211 -133l176 377h-166v-77h-77v148h322v-82l-169 -366h-86z" />
    <glyph glyph-name="uni2088" unicode="&#x2088;" 
d="M300 -148q-75 0 -122 36.5t-47 94.5q0 46 28 76t76 35v4q-43 8 -68 33.5t-25 60.5q0 53 43.5 85.5t114.5 32.5t115.5 -32.5t44.5 -85.5q0 -35 -26 -60.5t-69 -33.5v-4q47 -5 75.5 -35t28.5 -76q0 -58 -47 -94.5t-122 -36.5zM300 121q38 0 60.5 17t22.5 45t-22.5 45.5
t-60.5 17.5q-37 0 -59.5 -17.5t-22.5 -45.5t22.5 -45t59.5 -17zM300 -82q40 0 65.5 19.5t25.5 51.5q0 31 -25.5 51t-65.5 20t-65.5 -20t-25.5 -51q0 -32 25.5 -51.5t65.5 -19.5z" />
    <glyph glyph-name="uni2089" unicode="&#x2089;" 
d="M225 -133l125 195h-5q-11 -16 -29.5 -25.5t-45.5 -9.5q-61 0 -98 39.5t-37 101.5q0 68 45 110t119 42q75 0 120.5 -42t45.5 -110q0 -29 -10.5 -59t-30.5 -61l-114 -181h-85zM300 85q38 0 62.5 23t24.5 60t-23.5 60t-63.5 23t-63.5 -23t-23.5 -60t23.5 -60t63.5 -23z" />
    <glyph glyph-name="dong" unicode="&#x20ab;" 
d="M261 50q-83 0 -131.5 55.5t-48.5 150.5v38q0 95 48 150.5t132 55.5q60 0 98.5 -31t46.5 -84h3l-3 128v53h-109v79h109v85h108v-85h86v-79h-86v-506h-106v105h-2q-7 -54 -45.5 -84.5t-99.5 -30.5zM298 144q51 0 79.5 30.5t28.5 87.5v27q0 56 -28.5 86.5t-79.5 30.5
q-53 0 -81 -30t-28 -87v-27q0 -58 28 -88t81 -30zM81 -86v86h438v-86h-438z" />
    <glyph glyph-name="Euro" unicode="&#x20ac;" 
d="M308 -10q-103 0 -163.5 57.5t-60.5 155.5v36h-68v74h68v94h-68v74h68v46q0 99 60.5 156t163.5 57q102 0 162.5 -57.5t60.5 -155.5h-108q0 57 -30.5 87t-84.5 30q-55 0 -85.5 -30t-30.5 -87v-46h166v-74h-166v-94h166v-74h-166v-36q0 -57 30.5 -87t85.5 -30q54 0 84.5 30
t30.5 87h108q0 -98 -60.5 -155.5t-162.5 -57.5z" />
    </font>
</defs>
</svg>
